<?xml version="1.0" standalone="no"?>
<!DOCTYPE svg PUBLIC "-//W3C//DTD SVG 1.1//EN" "http://www.w3.org/Graphics/SVG/1.1/DTD/svg11.dtd" >
<svg xmlns="http://www.w3.org/2000/svg" xmlns:xlink="http://www.w3.org/1999/xlink" version="1.1">
<metadata>
Created by FontForge 20170731 at Tue Apr 19 15:36:57 2011
 By Aleksey,,,
Copyright (c) 2010 Parachute :, www.parachute.gr.  All rights reserved.
</metadata>
<defs>
<font id="PFRegalDisplayPro-Italic" horiz-adv-x="475" >
  <font-face 
    font-family="PF Regal Display Pro"
    font-weight="400"
    font-style="italic"
    font-stretch="normal"
    units-per-em="1000"
    panose-1="2 0 5 3 0 0 0 9 0 3"
    ascent="750"
    descent="-250"
    x-height="449"
    cap-height="673"
    bbox="-196 -260 1040 903"
    underline-thickness="35"
    underline-position="-168"
    unicode-range="U+0020-FB06"
  />
<missing-glyph horiz-adv-x="440" 
d="M1 0v680h437v-680h-437zM47 29h345l-173 289zM219 366l173 289h-345q79 -132 172 -289zM31 625v-566h1l171 283l-171 284zM237 342q112 -190 171 -283v566h-2z" />
    <glyph glyph-name="f_t" unicode="ft" horiz-adv-x="510" 
d="M287 65l71 357h-162q-45 -283 -82 -408t-76 -177q-51 -67 -113 -67q-27 0 -45 14t-18 34q0 19 13 30.5t30 11.5q22 0 39.5 -17t17.5 -53q49 16 61 84q90 498 100 548h-91l3 14h91q26 131 89 219t131 88q25 0 41 -12t16 -30q0 -20 -14 -31t-34 -11q-19 0 -37 15t-21 40
q-16 -9 -25 -16.5t-24 -34.5t-22 -67l-28 -160h164q61 40 88 123h10l-24 -123h124l-3 -14h-124l-81 -411q47 30 100 83l8 -7q-86 -98 -128 -98q-48 0 -48 48q0 13 3 28z" />
    <glyph glyph-name="f_f_t" unicode="fft" horiz-adv-x="763" 
d="M540 65l71 357h-161q-45 -283 -82 -408t-76 -177q-51 -67 -113 -67q-27 0 -45 14t-18 34q0 19 13 30.5t30 11.5q22 0 39.5 -17t17.5 -53q49 16 61 84q90 498 100 548h-174l-83 -444q-66 -28 -84 -116l-5 -25h-12l114 585h-93l3 14h92q19 101 65 166t98.5 89t113.5 24
q28 0 49 -10.5t23 -29.5q57 68 116 68q25 0 41 -12t16 -30q0 -20 -14 -31t-34 -11q-19 0 -37 15t-21 40q-16 -9 -25 -16.5t-24 -34.5t-22 -67l-28 -160h163q61 40 88 123h10l-24 -123h124l-3 -14h-124l-81 -411q47 30 100 83l8 -7q-86 -98 -128 -98q-48 0 -48 48q0 13 3 28z
M207 436h173q22 111 73 195q-4 -1 -12 -1q-27 0 -41 17t-14 41q0 7 1 10h-6q-36 -5 -62 -18.5t-43 -31.5t-30 -53t-20.5 -68t-18.5 -91z" />
    <glyph glyph-name="fj" unicode="fj" horiz-adv-x="488" 
d="M8 -161l115 583h-92l3 14h92q29 150 106.5 224t170.5 74q30 0 51.5 -11.5t21.5 -33.5q0 -19 -12.5 -29.5t-31.5 -10.5q-27 0 -41 17t-14 41q0 7 1 10h-6q-36 -5 -62 -20.5t-42.5 -35.5t-30 -59.5t-21 -72t-18.5 -93.5h83q102 0 161 14l3 -3l-80 -409q-9 -48 -23.5 -90.5
t-37 -85t-56 -67.5t-73.5 -25q-25 0 -44 13t-19 34t14 32t33 11q21 0 37.5 -19t15.5 -51q21 6 29 20t13 37l101 523q5 30 -1 41t-33 11h-125l-86 -442q-30 -13 -53 -43t-32 -73l-5 -25h-12z" />
    <glyph glyph-name="ffj" unicode="ffj" horiz-adv-x="736" 
d="M563 422h-119l-83 -444q-66 -28 -84 -116l-5 -25h-12l114 585h-170l-94 -496q-66 -28 -84 -116l-5 -25h-12l125 637h-93l3 14h92q19 101 65 166t98.5 89t113.5 24q30 0 51.5 -11.5t21.5 -33.5v-5q72 69 165 69q30 0 51.5 -11.5t21.5 -33.5q0 -19 -12.5 -29.5t-31.5 -10.5
q-27 0 -41 17t-14 41q0 7 1 10h-6q-36 -5 -62 -20.5t-42.5 -35.5t-30 -59.5t-21 -72t-18.5 -93.5h77q102 0 161 14l3 -3l-80 -409q-9 -48 -23.5 -90.5t-37 -85t-56 -67.5t-73.5 -25q-25 0 -44 13t-19 34t14 32t33 11q21 0 37.5 -19t15.5 -51q21 6 29 20t13 37l101 523
q5 30 -1 41t-33 11zM208 436h166q23 119 81 195q-4 -1 -13 -1q-27 0 -41 17t-14 41q0 7 1 10h-6q-36 -5 -62 -18.5t-43 -31.5t-30 -53t-20.5 -68t-18.5 -91z" />
    <glyph glyph-name="fb" unicode="fb" horiz-adv-x="762" 
d="M513 731l-68 -354q-22 -112 -44 -185h5q92 256 202 256q55 0 87 -37.5t32 -116.5q0 -71 -26 -139t-82 -117t-129 -49q-68 0 -116 49q-45 -15 -72 -52h-8l126 646q3 14 3 24q0 54 -57 54q-49 0 -90.5 -38.5t-55.5 -108.5q-5 -25 -22 -127h109l-3 -14h-108
q-45 -283 -82.5 -408.5t-75.5 -176.5q-51 -67 -113 -67q-27 0 -45 14t-18 34q0 19 13 30.5t30 11.5q22 0 39.5 -17t17.5 -53q49 16 61 84q90 498 100 548h-91l3 14h90q25 128 97.5 208.5t159.5 80.5q12 0 26 -2l101 11zM588 425q-46 0 -106 -101t-89 -212l-16 -62
q50 -45 98 -45q71 0 123 90.5t52 204.5q0 125 -62 125z" />
    <glyph glyph-name="ffb" unicode="ffb" horiz-adv-x="995" 
d="M208 436h161q23 118 80 194h-7q-27 0 -41 17t-14 41q0 7 1 10h-6q-36 -5 -62 -18.5t-43 -31.5t-30 -53t-20.5 -68t-18.5 -91zM821 425q-46 0 -106 -101t-89 -212l-16 -62q50 -45 98 -45q71 0 123 90.5t52 204.5q0 125 -62 125zM602 39q-39 -13 -68 -53h-8l127 646
q3 14 3 24q0 54 -57 54q-48 0 -84.5 -37.5t-50.5 -109.5q-5 -25 -22 -127h109l-3 -14h-108q-45 -283 -82.5 -408.5t-75.5 -176.5q-51 -67 -113 -67q-27 0 -45 14t-18 34q0 19 13 30.5t30 11.5q22 0 39.5 -17t17.5 -53q49 16 61 84q90 498 100 548h-163l-83 -444
q-66 -28 -84 -116l-5 -25h-12l114 585h-93l3 14h92q19 101 65 166t98.5 89t113.5 24q29 0 50.5 -11.5t22.5 -32.5q60 54 129 54q12 0 26 -2l102 11l5 -3l-70 -354q-22 -112 -44 -185h5q92 256 202 256q55 0 87 -37.5t32 -116.5q0 -71 -26 -139t-82 -117t-129 -49
q-72 0 -121 50z" />
    <glyph glyph-name="fh" unicode="fh" horiz-adv-x="755" 
d="M515 731l-81 -427q-14 -78 -33 -135h4q45 137 99.5 208.5t107.5 71.5q50 0 79 -36t29 -110q0 -123 -63 -218.5t-149 -95.5q-32 0 -49 15.5t-17 39.5q0 17 10.5 29t28.5 12q28 0 42 -26.5t6 -55.5q59 9 86.5 94t27.5 217q0 46 -12 79t-39 33q-51 0 -116 -119t-86 -226
l-16 -81h-76l122 632q3 14 3 24q0 54 -57 54q-49 0 -90.5 -38.5t-55.5 -108.5q-5 -25 -22 -127h109l-3 -14h-108q-45 -283 -82.5 -408.5t-75.5 -176.5q-51 -67 -113 -67q-27 0 -45 14t-18 34q0 19 13 30.5t30 11.5q22 0 39.5 -17t17.5 -53q49 16 61 84q90 498 100 548h-91
l3 14h90q25 128 97.5 208.5t159.5 80.5q12 0 26 -2l103 11z" />
    <glyph glyph-name="ffh" unicode="ffh" horiz-adv-x="988" 
d="M208 436h161q23 118 80 194h-7q-27 0 -41 17t-14 41q0 7 1 10h-6q-36 -5 -62 -18.5t-43 -31.5t-30 -53t-20.5 -68t-18.5 -91zM743 734l5 -3l-81 -427q-14 -78 -33 -135h4q45 137 99.5 208.5t107.5 71.5q50 0 79 -36t29 -110q0 -123 -63 -218.5t-149 -95.5q-32 0 -49 15.5
t-17 39.5q0 17 10.5 29t28.5 12q23 0 37 -18.5t14 -43.5q0 -11 -3 -20q59 9 86.5 94t27.5 217q0 46 -12 79t-39 33q-51 0 -116 -119t-86 -226l-16 -81h-76l122 632q3 14 3 24q0 54 -57 54q-48 0 -84.5 -37.5t-50.5 -109.5q-5 -25 -22 -127h109l-3 -14h-108
q-45 -283 -82.5 -408.5t-75.5 -176.5q-51 -67 -113 -67q-27 0 -45 14t-18 34q0 19 13 30.5t30 11.5q22 0 39.5 -17t17.5 -53q49 16 61 84q90 498 100 548h-163l-83 -444q-66 -28 -84 -116l-5 -25h-12l114 585h-93l3 14h92q19 101 65 166t98.5 89t113.5 24q29 0 50.5 -11.5
t22.5 -32.5q60 54 129 54q12 0 26 -2z" />
    <glyph glyph-name="fk" unicode="fk" horiz-adv-x="726" 
d="M514 731l-83 -427q-14 -78 -33 -135h4q46 139 103 209.5t119 70.5q35 0 56 -20.5t21 -52.5q0 -37 -32.5 -70.5t-68.5 -51.5t-74 -30q13 -69 41 -123t57 -82q39 27 82 76l8 -7q-83 -101 -123 -101q-49 0 -87.5 69t-47.5 155q172 55 174 161q0 22 -11.5 35.5t-30.5 13.5
q-51 0 -115 -117t-85 -223l-16 -81h-75l123 632q3 14 3 24q0 54 -57 54q-49 0 -90.5 -38.5t-55.5 -108.5q-5 -25 -22 -127h109l-3 -14h-108q-45 -283 -82.5 -408.5t-75.5 -176.5q-51 -67 -113 -67q-27 0 -45 14t-18 34q0 19 13 30.5t30 11.5q22 0 39.5 -17t17.5 -53
q49 16 61 84q90 498 100 548h-91l3 14h90q25 128 97.5 208.5t159.5 80.5q12 0 26 -2l102 11z" />
    <glyph glyph-name="ffk" unicode="ffk" horiz-adv-x="959" 
d="M208 436h161q23 118 80 194h-7q-27 0 -41 17t-14 41q0 7 1 10h-6q-36 -5 -62 -18.5t-43 -31.5t-30 -53t-20.5 -68t-18.5 -91zM641 723l102 11l4 -3l-83 -427q-14 -78 -33 -135h4q46 139 103 209.5t119 70.5q35 0 56 -20.5t21 -52.5q0 -37 -32.5 -70.5t-68.5 -51.5
t-74 -30q13 -69 41 -123t57 -82q39 27 82 76l8 -7q-83 -101 -123 -101q-49 0 -87.5 69t-47.5 155q172 55 174 161q0 22 -11.5 35.5t-30.5 13.5q-51 0 -115 -117t-85 -223l-16 -81h-75l123 632q3 14 3 24q0 54 -57 54q-48 0 -84.5 -37.5t-50.5 -109.5q-5 -25 -22 -127h109
l-3 -14h-108q-45 -283 -82.5 -408.5t-75.5 -176.5q-51 -67 -113 -67q-27 0 -45 14t-18 34q0 19 13 30.5t30 11.5q22 0 39.5 -17t17.5 -53q49 16 61 84q90 498 100 548h-163l-83 -444q-66 -28 -84 -116l-5 -25h-12l114 585h-93l3 14h92q19 101 65 166t98.5 89t113.5 24
q29 0 50.5 -11.5t22.5 -32.5q60 54 129 54q12 0 26 -2z" />
    <glyph glyph-name="longs_b" unicode="&#x17f;b" horiz-adv-x="762" 
d="M513 731l-68 -354q-22 -112 -44 -185h5q92 256 202 256q55 0 87 -37.5t32 -116.5q0 -71 -26 -139t-82 -117t-129 -49q-68 0 -116 49q-45 -15 -72 -52h-8l126 646q3 14 3 24q0 54 -57 54q-49 0 -90.5 -38.5t-55.5 -108.5q-5 -25 -22 -127q-48 -294 -85 -421.5t-75 -177.5
q-51 -67 -113 -67q-27 0 -45 14t-18 34q0 19 13 30.5t30 11.5q22 0 39.5 -17t17.5 -53q49 16 61 84q90 498 100 548h-91l3 14h90q25 128 97.5 208.5t159.5 80.5q12 0 26 -2l101 11zM588 425q-46 0 -106 -101t-89 -212l-16 -62q50 -45 98 -45q71 0 123 90.5t52 204.5
q0 125 -62 125z" />
    <glyph glyph-name="longs_h" unicode="&#x17f;h" horiz-adv-x="755" 
d="M515 731l-81 -427q-14 -78 -33 -135h4q45 137 99.5 208.5t107.5 71.5q50 0 79 -36t29 -110q0 -123 -63 -218.5t-149 -95.5q-32 0 -49 15.5t-17 39.5q0 17 10.5 29t28.5 12q28 0 42 -26.5t6 -55.5q59 9 86.5 94t27.5 217q0 46 -12 79t-39 33q-51 0 -116 -119t-86 -226
l-16 -81h-76l122 632q3 14 3 24q0 54 -57 54q-49 0 -90.5 -38.5t-55.5 -108.5q-6 -33 -24 -141q-45 -283 -82.5 -408.5t-75.5 -176.5q-51 -67 -113 -67q-27 0 -45 14t-18 34q0 19 13 30.5t30 11.5q22 0 39.5 -17t17.5 -53q49 16 61 84q90 498 100 548h-91l3 14h90
q25 128 97.5 208.5t159.5 80.5q12 0 26 -2l103 11z" />
    <glyph glyph-name="longs_i" unicode="&#x17f;i" horiz-adv-x="488" 
d="M196 422q-45 -283 -82.5 -408.5t-75.5 -176.5q-51 -67 -113 -67q-27 0 -45 14t-18 34q0 19 13 30.5t30 11.5q22 0 39.5 -17t17.5 -53q49 16 61 84q90 498 100 548h-92l3 14h92q29 150 106.5 224t170.5 74q30 0 51.5 -11.5t21.5 -33.5q0 -19 -12.5 -29.5t-31.5 -10.5
q-27 0 -41 17t-14 41q0 7 1 10h-6q-30 -4 -53 -14t-40 -30t-28.5 -40t-21.5 -58t-16.5 -68t-16.5 -85zM431 369l-70 -358q47 30 100 83l8 -7q-86 -98 -128 -98q-48 0 -48 49q0 14 2 22l71 367q-42 -27 -100 -85l-8 7q89 102 131 102q47 0 47 -44q0 -13 -5 -38z" />
    <glyph glyph-name="longs_k" unicode="&#x17f;k" horiz-adv-x="726" 
d="M514 731l-83 -427q-14 -78 -33 -135h4q46 139 103 209.5t119 70.5q35 0 56 -20.5t21 -52.5q0 -37 -32.5 -70.5t-68.5 -51.5t-74 -30q13 -69 41 -123t57 -82q39 27 82 76l8 -7q-83 -101 -123 -101q-49 0 -87.5 69t-47.5 155q172 55 174 161q0 22 -11.5 35.5t-30.5 13.5
q-51 0 -115 -117t-85 -223l-16 -81h-75l123 632q3 14 3 24q0 54 -57 54q-49 0 -90.5 -38.5t-55.5 -108.5q-6 -33 -24 -141q-45 -283 -82.5 -408.5t-75.5 -176.5q-51 -67 -113 -67q-27 0 -45 14t-18 34q0 19 13 30.5t30 11.5q22 0 39.5 -17t17.5 -53q49 16 61 84
q90 498 100 548h-91l3 14h90q25 128 97.5 208.5t159.5 80.5q12 0 26 -2l102 11z" />
    <glyph glyph-name="longs_l" unicode="&#x17f;l" horiz-adv-x="517" 
d="M366 710q-49 0 -90.5 -38.5t-55.5 -108.5q-6 -33 -24 -141q-45 -283 -82.5 -408.5t-75.5 -176.5q-51 -67 -113 -67q-27 0 -45 14t-18 34q0 19 13 30.5t30 11.5q22 0 39.5 -17t17.5 -53q49 16 61 84q90 498 100 548h-91l3 14h90q25 128 97.5 208.5t159.5 80.5q12 0 26 -2
l102 11l4 -3l-140 -720q47 30 100 83l8 -7q-86 -98 -128 -98q-47 0 -47 49q0 13 4 33l109 561q3 14 3 24q0 54 -57 54z" />
    <glyph glyph-name="longs_longs" unicode="&#x17f;&#x17f;" horiz-adv-x="488" 
d="M204 422l-83 -444q-66 -28 -84 -116l-5 -25h-12l114 585h-93l3 14h92q19 101 65 166t98.5 89t113.5 24q28 0 49 -10.5t23 -29.5q57 68 116 68q25 0 41 -12t16 -30q0 -20 -14 -31t-34 -11q-19 0 -37 15t-21 40q-16 -10 -25 -17t-24 -34t-22 -67l-30 -174
q-50 -287 -86 -411.5t-72 -173.5q-51 -67 -113 -67q-27 0 -45 14t-18 34q0 19 13 30.5t30 11.5q22 0 39.5 -17t17.5 -53q49 16 61 84q90 498 100 548h-90l2 14h91q22 111 73 195q-4 -1 -12 -1q-27 0 -41 17t-14 41q0 7 1 10h-6q-36 -5 -62 -18.5t-43 -32t-30.5 -55.5
t-22 -71.5t-20.5 -98.5z" />
    <glyph glyph-name="longs_longs_i" unicode="&#x17f;&#x17f;i" horiz-adv-x="741" 
d="M204 422l-83 -444q-66 -28 -84 -116l-5 -25h-12l114 585h-93l3 14h92q19 101 65 166t98.5 89t113.5 24q28 0 49 -10.5t23 -29.5q57 68 116 68q25 0 41 -12t16 -30q0 -20 -14 -31t-34 -11q-19 0 -37 15t-21 40q-16 -10 -25 -17t-24 -34t-22 -67l-30 -174
q-50 -287 -86 -411.5t-72 -173.5q-51 -67 -113 -67q-27 0 -45 14t-18 34q0 19 13 30.5t30 11.5q22 0 39.5 -17t17.5 -53q49 16 61 84q90 498 100 548h-90l2 14h91q22 111 73 195q-4 -1 -12 -1q-27 0 -41 17t-14 41q0 7 1 10h-6q-36 -5 -62 -18.5t-43 -32t-30.5 -55.5
t-22 -71.5t-20.5 -98.5zM673 369l-70 -358q47 30 100 83l8 -7q-86 -98 -128 -98q-48 0 -48 49q0 14 2 22l71 367q-42 -27 -100 -85l-8 7q89 102 131 102q47 0 47 -44q0 -13 -5 -38z" />
    <glyph glyph-name="longs_longs_l" unicode="&#x17f;&#x17f;l" horiz-adv-x="750" 
d="M204 422l-83 -444q-66 -28 -84 -116l-5 -25h-12l114 585h-93l3 14h92q19 101 65 166t98.5 89t113.5 24q29 0 50.5 -11.5t22.5 -32.5q60 54 129 54q12 0 26 -2l102 11l4 -3l-140 -720q47 30 100 83l8 -7q-86 -98 -128 -98q-47 0 -47 49q0 13 4 33l109 561q3 14 3 24
q0 54 -57 54q-48 0 -84.5 -37.5t-50.5 -109.5q-7 -32 -24 -141q-45 -283 -82.5 -408.5t-75.5 -176.5q-51 -67 -113 -67q-27 0 -45 14t-18 34q0 19 13 30.5t30 11.5q22 0 39.5 -17t17.5 -53q49 16 61 84q90 498 100 548h-87l3 14h86q23 118 80 194h-7q-27 0 -41 17t-14 41
q0 7 1 10h-6q-36 -5 -62 -18.5t-43 -32t-30.5 -55.5t-22 -71.5t-20.5 -98.5z" />
    <glyph glyph-name="longs_s" unicode="&#x17f;s" horiz-adv-x="601" 
d="M196 422q-45 -283 -82.5 -408.5t-75.5 -176.5q-51 -67 -113 -67q-27 0 -45 14t-18 34q0 19 13 30.5t30 11.5q22 0 39.5 -17t17.5 -53q49 16 61 84q90 498 100 548h-92l3 14h92q29 150 106.5 224t170.5 74q30 0 51.5 -11.5t21.5 -33.5q0 -19 -12.5 -29.5t-31.5 -10.5
q-27 0 -41 17t-14 41q0 7 1 10h-6q-30 -4 -53 -14t-40 -30t-28.5 -40t-21.5 -58t-16.5 -68t-16.5 -85zM366 -11q-55 0 -93 22t-38 57q0 21 12.5 32.5t28.5 11.5q24 0 35 -17.5t7 -40.5t-19 -39q26 -13 71 -13q50 0 79.5 27.5t29.5 71.5q0 27 -19 50t-46.5 40l-55 34
t-46.5 41.5t-19 53.5q0 59 46 93.5t114 34.5q50 0 86.5 -21.5t36.5 -55.5q0 -20 -12.5 -31.5t-27.5 -11.5q-36 0 -42 35.5t18 59.5q-23 11 -61 11q-34 0 -63 -19t-29 -66q0 -23 19.5 -44t47.5 -37.5t56 -34.5t47.5 -45t19.5 -60q0 -67 -55 -103t-128 -36z" />
    <glyph glyph-name="ff" unicode="ff" horiz-adv-x="498" 
d="M192 435h173q22 110 72 192h-8q-28 1 -41.5 17.5t-13.5 40.5q0 10 1 15q-82 -9 -117 -54t-54 -148zM1 -171l115 592h-76q2 6 2 14h76q15 76 45.5 132.5t70 87.5t81 45.5t85.5 14.5q26 0 47 -10t25 -28q58 66 115 66q25 0 41 -12.5t16 -30.5q0 -20 -14 -31.5t-34 -11.5
t-39.5 15t-22.5 44q-18 -15 -25.5 -22.5t-24 -52t-29.5 -118.5l-15 -88h107l-3 -14h-107l-12 -65q-45 -246 -78 -356t-69 -156q-53 -66 -114 -66q-28 0 -46.5 14t-18.5 35q0 20 13 31.5t32 11.5q22 0 40 -19t19 -55q24 8 40 42t33 115q14 71 42.5 236t43.5 232h-173
q-11 -60 -39.5 -210t-43.5 -230q-28 -11 -52 -39t-32 -71l-9 -42h-12z" />
    <glyph glyph-name="f_i" unicode="fi" horiz-adv-x="491" 
d="M286 94l49 255q6 27 6 39q0 16 -8.5 23.5t-18 8.5t-29.5 1h-95q-2 -11 -10 -61q-42 -243 -77 -357.5t-73 -164.5q-50 -65 -112 -65q-27 0 -46 14.5t-19 35.5q0 19 13 30.5t32 11.5q22 0 40 -18.5t19 -54.5q24 9 39.5 39.5t32.5 116.5q18 92 46.5 254t39.5 219h-74
q0 8 2 14h75q29 148 108.5 223t173.5 75q31 0 53 -12t22 -34q0 -19 -12.5 -30.5t-31.5 -11.5q-28 0 -41.5 16.5t-13.5 41.5q0 11 1 16q-28 -3 -51 -12.5t-39.5 -21.5t-30 -35t-21.5 -41t-17 -52t-13 -56.5t-12 -65.5h86q83 0 149 12l3 -2l-83 -428q42 24 100 80l7 -8
q-38 -44 -74 -71.5t-56 -27.5q-47 0 -47 43q0 18 8 61z" />
    <glyph glyph-name="f_l" unicode="fl" horiz-adv-x="509" 
d="M307 29q0 30 14 98l95 486q6 42 6 43q0 53 -56 53q-49 0 -90 -38.5t-53 -108.5l-22 -127h109q0 -1 -1.5 -6.5t-1.5 -7.5h-109l-10 -58q-43 -247 -77 -361t-71 -162q-52 -67 -114 -67q-27 0 -45.5 14.5t-18.5 35.5q0 19 13 30.5t31 11.5q22 0 40.5 -18.5t19.5 -54.5
q45 17 59 94q25 129 56 305.5t42 229.5h-91l3 14h91q25 128 97 208.5t160 80.5q3 0 8.5 -0.5t8.5 -0.5l110 11l3 -3q-92 -474 -137 -711q34 20 100 75l7 -8q-39 -41 -78 -69.5t-57 -28.5q-41 0 -41 40z" />
    <glyph glyph-name="ffi" unicode="ffi" horiz-adv-x="726" 
d="M529 421h-96q-45 -282 -82.5 -407t-76.5 -177q-51 -67 -113 -67q-27 0 -45 14t-18 34q0 19 13 30.5t30 11.5q22 0 39.5 -17t17.5 -53q49 16 61 84q90 498 100 548h-170l-83 -441q-38 -17 -57.5 -45t-28.5 -74l-7 -33h-12l116 593h-78l3 14h77q15 77 45 133t69.5 87t81 45
t86.5 14q30 0 51.5 -11.5t21.5 -33.5v-5q72 69 165 69q30 0 51.5 -11.5t21.5 -33.5q0 -19 -12.5 -29.5t-31.5 -10.5q-27 0 -41 17t-14 41q0 7 1 10h-6q-26 -3 -46.5 -12.5t-35.5 -20.5t-27.5 -33t-20 -39t-16 -51.5t-13.5 -57t-13 -68.5h86q83 0 149 12l2 -2
q-29 -147 -82 -428q39 22 99 80q1 -1 3 -2.5t3 -3t2 -2.5q-38 -44 -74 -71.5t-56 -27.5q-47 0 -47 46q0 7 15 87l43 228q4 20 4 37q0 16 -8 23.5t-17 8.5t-29 1zM193 436h169q23 119 81 195q-4 -1 -13 -1q-27 0 -41 17t-14 41q0 7 1 10h-6q-36 -5 -62.5 -18t-43.5 -31.5
t-30.5 -53t-21.5 -68.5t-19 -91z" />
    <glyph glyph-name="ffl" unicode="ffl" horiz-adv-x="728" 
d="M1 -171l115 592h-76q2 6 2 14h76q15 76 45.5 132.5t70 87.5t81 45.5t85.5 14.5q30 0 51 -12t22 -33q60 54 128 54q7 0 19 -2l109 12l3 -3q-45 -237 -137 -711q37 22 100 75l7 -8q-39 -41 -78 -69.5t-57 -28.5q-42 0 -42 39q0 11 4 35l105 540q7 37 7 55q0 51 -53 51
q-49 0 -85 -41t-52 -126l-20 -107h98l-3 -14h-98q-47 -284 -82.5 -406.5t-75.5 -174.5q-52 -67 -114 -67q-27 0 -45.5 14.5t-18.5 35.5q0 19 13 30.5t31 11.5q22 0 40.5 -18.5t19.5 -54.5q24 9 40 39.5t33 117.5q17 90 45 251.5t40 220.5h-165q-56 -294 -83 -440
q-28 -10 -52 -38.5t-32 -71.5l-9 -42h-12zM192 435h165q25 129 75 192q-30 1 -44 17t-14 41q0 10 1 15q-82 -9 -117 -54t-54 -148z" />
    <glyph glyph-name="longs_t" unicode="&#x17f;t" horiz-adv-x="500" 
d="M195 451q-53 -306 -89.5 -434t-74.5 -177q-52 -66 -113 -66q-28 0 -46.5 14t-18.5 35q0 19 13 30.5t32 11.5q22 0 40 -18.5t19 -54.5q29 11 43.5 43.5t28.5 112.5q46 268 86 473h-74q0 8 2 14h75q29 147 108.5 222.5t173.5 75.5q31 0 53 -12t22 -34q0 -19 -12.5 -30.5
t-31.5 -11.5q-28 0 -41.5 16.5t-13.5 41.5q0 11 1 16q-33 -3 -58.5 -14t-43.5 -32t-30.5 -41t-22 -54.5t-14.5 -59t-13 -67.5zM279 64l69 356h-62q0 7 2 15h62q54 31 91 125h10q-15 -76 -25 -124h117l-3 -16h-117q-30 -159 -77 -400q29 17 106 80l7 -8q-39 -42 -81 -72.5
t-60 -30.5q-22 0 -32.5 9.5t-10.5 34.5q0 15 4 31z" />
    <glyph glyph-name=".notdef" horiz-adv-x="440" 
d="M1 0v680h437v-680h-437zM47 29h345l-173 289zM219 366l173 289h-345q79 -132 172 -289zM31 625v-566h1l171 283l-171 284zM237 342q112 -190 171 -283v566h-2z" />
    <glyph glyph-name=".null" horiz-adv-x="0" 
 />
    <glyph glyph-name="nonmarkingreturn" horiz-adv-x="333" 
 />
    <glyph glyph-name="space" unicode=" " horiz-adv-x="218" 
 />
    <glyph glyph-name="exclam" unicode="!" horiz-adv-x="244" 
d="M98 97q17 0 28 -11.5t11 -29.5q0 -25 -17.5 -44t-40.5 -19q-17 0 -28 11.5t-11 30.5q0 25 18 43.5t40 18.5zM118 170h-12l40 462q5 67 56 67q38 0 38 -42q0 -19 -3 -27q-70 -267 -119 -460z" />
    <glyph glyph-name="quotedbl" unicode="&#x22;" horiz-adv-x="276" 
d="M166 709q31 0 31 -33q0 -8 -3 -16q-55 -172 -67 -209h-13l9 212q1 19 11.5 32.5t31.5 13.5zM278 709q30 0 30 -33q0 -8 -3 -16q-55 -172 -67 -209h-12q2 74 8 212q0 17 12 31.5t32 14.5z" />
    <glyph glyph-name="numbersign" unicode="#" 
d="M492 419h-106l-57 -169h105q-2 -14 -4 -20h-108l-66 -201h-23l68 201h-160q-46 -134 -68 -201h-22l68 201h-104q2 14 4 20h105q10 28 29 84.5t29 84.5h-107l4 19h109l62 185h21q-33 -103 -61 -185h161q33 103 61 185h22l-62 -185h104q-4 -8 -4 -19zM204 419l-57 -169h159
q10 28 29 84.5t29 84.5h-160z" />
    <glyph glyph-name="dollar" unicode="$" horiz-adv-x="481" 
d="M300 730q-88 -502 -142 -804h-14l13 71q-59 5 -96 31t-37 65q0 32 14.5 47.5t33.5 15.5q25 0 37.5 -17.5t12.5 -42.5q0 -45 -29 -68q25 -13 67 -18q41 238 58 328q-53 31 -82.5 65.5t-29.5 83.5q0 71 48.5 117t120.5 57l12 69h13zM207 -74q47 257 142 804h14l-12 -70
q51 -7 85 -32.5t34 -62.5q0 -26 -14.5 -41.5t-33.5 -15.5q-23 0 -35 15.5t-12 38.5q0 42 25 69q-23 10 -52 14q-37 -208 -45 -256q63 -36 99.5 -77t36.5 -104q0 -88 -61 -142t-144 -67q-4 -20 -13 -73h-14zM372 172q0 71 -85 126l-51 -283q57 10 96.5 53.5t39.5 103.5z
M177 517q0 -45 57 -85q25 142 38 210q-39 -11 -67 -43.5t-28 -81.5z" />
    <glyph glyph-name="percent" unicode="%" horiz-adv-x="758" 
d="M637 720l-484 -759h-17l485 759h16zM266 687q107 0 107 -134q0 -35 -9.5 -76.5t-29 -84t-55.5 -70.5t-82 -28q-57 0 -83 37t-26 96q0 53 16.5 109.5t59 103.5t102.5 47zM199 308q49 0 83.5 86.5t34.5 190.5q0 88 -54 88q-49 0 -83.5 -87t-34.5 -188q0 -90 54 -90z
M588 387q56 0 81.5 -37t25.5 -97q0 -35 -10 -76.5t-29.5 -84t-55.5 -70.5t-82 -28q-57 0 -82.5 36.5t-25.5 96.5q0 38 10 80.5t30 84t56 68.5t82 27zM521 8q49 0 83.5 86.5t34.5 190.5q0 88 -55 88q-49 0 -83 -86.5t-34 -188.5q0 -90 54 -90z" />
    <glyph glyph-name="ampersand" unicode="&#x26;" horiz-adv-x="691" 
d="M320 417l1 3q-88 4 -127.5 37t-39.5 79q0 74 66.5 120t161.5 46q64 0 107 -23.5t43 -68.5q0 -24 -16 -38.5t-33 -14.5q-26 0 -38.5 15t-12.5 39q0 38 25 65q-27 10 -57 10q-63 0 -108.5 -42t-45.5 -114q0 -32 13 -54.5t34.5 -33t41.5 -14.5t40 -4l-4 -12
q-92 -5 -165.5 -81t-73.5 -202q0 -71 39 -113.5t125 -42.5q75 0 138 30t99.5 74.5t56 92t19.5 87.5q0 66 -36.5 104t-89.5 38q-72 0 -118.5 -35.5t-46.5 -91.5q0 -38 27 -66.5t79 -29.5q-2 12 -2 17q0 26 14 44t39 18q14 0 22.5 -8t8.5 -21q0 -29 -24 -45.5t-54 -16.5
q-55 0 -90 31.5t-35 76.5q0 67 43.5 106t105.5 52.5t123.5 22.5t105 28t43.5 56q0 20 -15 32.5t-45 13.5q3 -9 3 -20q0 -24 -14 -42t-38 -18q-14 0 -23 9.5t-9 22.5q0 30 23.5 45.5t55.5 15.5q37 0 59.5 -18.5t22.5 -48.5q0 -58 -60.5 -92t-130.5 -36q34 -23 51 -61.5
t17 -77.5q0 -51 -24 -104.5t-66 -98.5t-106.5 -74t-137.5 -29q-127 0 -187 54t-60 138q0 45 15.5 87.5t47.5 81t88 65.5t129 35z" />
    <glyph glyph-name="quotesingle" unicode="'" horiz-adv-x="172" 
d="M170 709q29 0 31 -27q0 -13 -4 -24q-10 -40 -37 -118.5t-30 -88.5h-13l9 213q1 18 12 31.5t32 13.5z" />
    <glyph glyph-name="parenleft" unicode="(" horiz-adv-x="299" 
d="M116 93q0 -173 74 -281l-7 -9q-129 126 -129 353q0 157 76.5 312t216.5 267l5 -8q-117 -110 -176.5 -284t-59.5 -350z" />
    <glyph glyph-name="parenright" unicode=")" horiz-adv-x="299" 
d="M196 442q0 179 -75 285l9 8q63 -70 94.5 -167t31.5 -202q0 -151 -76 -306.5t-214 -256.5l-5 9q114 109 174.5 276t60.5 354z" />
    <glyph glyph-name="asterisk" unicode="*" horiz-adv-x="372" 
d="M255 575h-6l-13 92q-1 2 -1 7q0 14 10.5 22.5t26.5 8.5q14 0 22 -8t8 -19q0 -7 -3 -13zM235 560l-2 -5l-83 1q-11 0 -18 8t-7 21q0 18 11.5 29t23.5 11q11 0 18 -7zM234 543l5 -3l-36 -89q-10 -25 -32 -25q-13 0 -23 10.5t-10 23.5q0 19 18 31zM256 539l5 3l62 -53
q9 -7 9 -21q0 -12 -11 -25t-27 -13q-11 0 -18.5 7t-8.5 17zM269 558v6l75 56q7 5 16 5q11 0 19.5 -8.5t8.5 -24.5q0 -17 -10 -27.5t-24 -9.5z" />
    <glyph glyph-name="plus" unicode="+" 
d="M437 281h-172q-6 -31 -17 -96t-17 -98h-24q6 33 17 98t17 96h-176l4 24h176q8 41 34 191h24q-6 -31 -17 -95t-17 -96h172z" />
    <glyph glyph-name="comma" unicode="," horiz-adv-x="204" 
d="M75 99q22 0 34 -14.5t12 -38.5q0 -40 -37.5 -99t-88.5 -94l-8 11q29 23 59 66t38 80q-14 -11 -30 -11q-36 0 -36 38q0 26 17.5 44t39.5 18z" />
    <glyph glyph-name="hyphen" unicode="-" horiz-adv-x="278" 
d="M246 229h-215l5 29h216z" />
    <glyph glyph-name="period" unicode="." horiz-adv-x="188" 
d="M75 100q17 0 28.5 -12t11.5 -30q0 -26 -18.5 -45.5t-41.5 -19.5q-18 0 -29 12t-11 31q0 26 18.5 45t41.5 19z" />
    <glyph glyph-name="slash" unicode="/" horiz-adv-x="272" 
d="M368 721l-380 -764h-22l379 764h23z" />
    <glyph glyph-name="zero" unicode="0" 
d="M315 660q150 0 150 -218q0 -49 -8.5 -105.5t-29 -119t-50 -113t-76.5 -83t-104 -32.5q-81 0 -117 60.5t-36 158.5q0 69 16.5 144.5t48 146t85.5 116t121 45.5zM199 4q59 0 106 87t68.5 199t21.5 214q0 141 -83 141q-43 0 -81.5 -49.5t-62.5 -125t-37.5 -159.5t-13.5 -157
q0 -150 82 -150z" />
    <glyph glyph-name="one" unicode="1" 
d="M358 667l-104 -590q-3 -18 2.5 -30t15.5 -17t22.5 -8t23.5 -4t18 -4t6 -8l-1 -6h-275l1 6q1 7 16.5 9.5t34.5 4.5t37 18t23 45l83 471q2 14 2 25.5t-7.5 19t-24.5 7.5q-14 0 -56 -5q-12 -1 -12 5v6l192 57z" />
    <glyph glyph-name="two" unicode="2" 
d="M46 69h182q68 0 100.5 22.5t83.5 95.5q7 10 14 9l4 -1l-76 -195h-389l-2 8q44 55 106.5 114.5t109.5 102t91 91.5t68 106.5t24 123.5q0 48 -27.5 76.5t-75.5 28.5q-69 0 -116 -41q18 -8 28.5 -25.5t10.5 -37.5q0 -23 -14 -39.5t-39 -16.5q-19 0 -30 13t-11 31
q0 49 51.5 91t135.5 42q86 0 128 -38.5t42 -96.5q0 -47 -28 -97t-76.5 -98t-98 -90t-107.5 -91.5t-90 -84.5z" />
    <glyph glyph-name="three" unicode="3" 
d="M286 668q83 0 120 -35.5t37 -81.5q0 -63 -56 -118.5t-155 -72.5q34 -2 64 -10t56.5 -24t42 -44.5t15.5 -65.5q0 -98 -72.5 -162.5t-167.5 -64.5q-77 0 -121 31.5t-44 84.5q0 36 23.5 70t66.5 48l6 -7q-27 -51 -27 -107q0 -48 23 -77t72 -29q74 0 116.5 67t42.5 150
q0 62 -33.5 94t-92.5 32q-26 0 -56 -6q0 1 -1 8l-1 6q109 16 163 70.5t54 134.5q0 46 -26.5 69t-69.5 23q-56 0 -98 -32q32 -20 32 -60q0 -23 -14 -39.5t-38 -16.5q-18 0 -29 12t-11 31q0 43 48 82.5t131 39.5z" />
    <glyph glyph-name="four" unicode="4" horiz-adv-x="481" 
d="M400 421q1 -1 4 -1q-14 -75 -40 -223h91q0 -1 -1.5 -7t-1.5 -7h-90l-17 -96q-3 -15 -3 -20q0 -28 22 -39t44 -13t22 -8q0 -5 -1 -7h-267q0 11 14.5 14.5t32.5 4.5t36 17t23 48l17 99h-280q2 8 2 13q183 196 357 462h94q-100 -132 -217 -254.5t-219 -206.5h266l32 179
q44 14 80 45z" />
    <glyph glyph-name="five" unicode="5" 
d="M195 648h163q66 0 87 8t46 47q7 13 14 10l3 -1l-55 -143q-71 10 -191 10h-74l-68 -216q67 37 139 37q70 0 115.5 -44t45.5 -119q0 -95 -68.5 -171.5t-173.5 -76.5q-83 0 -126.5 31.5t-43.5 85.5q0 34 21 68t65 49l8 -8q-26 -53 -26 -121q0 -40 25 -65.5t74 -25.5
q43 0 76 24.5t51 62.5t27 77.5t9 76.5q0 65 -31.5 98t-86.5 33q-58 0 -108 -32l-11 4z" />
    <glyph glyph-name="six" unicode="6" 
d="M302 409q60 0 95 -44.5t35 -116.5q0 -99 -69 -179t-170 -80q-79 0 -117.5 47.5t-38.5 125.5q0 88 36.5 171.5t96 147.5t131 112t147.5 75l4 -10q-158 -68 -248 -212.5t-90 -319.5q0 -123 88 -123q48 0 84 45.5t51.5 103.5t15.5 113q0 53 -21.5 87.5t-69.5 34.5
q-26 0 -50 -11l-2 11q45 22 92 22z" />
    <glyph glyph-name="seven" unicode="7" 
d="M515 659l3 -5q-135 -222 -364 -654h-95q13 20 53 81t57 86.5t52.5 79.5t59 88t56 80t63 87.5t61.5 82.5h-175q-54 0 -83 -7.5t-47 -24.5t-45 -57q-7 -12 -16 -9l-3 1l72 181q80 -10 214 -10h137z" />
    <glyph glyph-name="eight" unicode="8" 
d="M116 483q0 81 58.5 133t142.5 52q66 0 107 -34t41 -93t-38 -110t-105 -75q49 -35 77 -73t28 -90q0 -83 -66.5 -143.5t-165.5 -60.5q-76 0 -120.5 36t-44.5 100q0 68 45 130t124 92q-83 65 -83 136zM101 119q0 -52 26.5 -83.5t78.5 -31.5q65 1 104 49.5t39 108.5
q0 30 -10 54.5t-35 48.5t-41 36.5t-53 38.5q-42 -28 -68 -75.5t-33.5 -82.5t-7.5 -63zM394 551q0 48 -22 75t-64 27q-48 0 -85.5 -39t-37.5 -97q0 -47 33 -81.5t91 -71.5q35 23 56 67.5t25 71.5t4 48z" />
    <glyph glyph-name="nine" unicode="9" 
d="M309 668q80 0 117.5 -47.5t37.5 -127.5q0 -91 -36 -174.5t-96 -146.5t-131 -109t-148 -74l-4 11q156 61 247.5 207.5t91.5 322.5q0 124 -88 124q-48 0 -84 -44.5t-51.5 -101t-15.5 -111.5q0 -121 94 -121q27 0 48 9q0 -1 0.5 -4.5t0.5 -5.5q-45 -22 -92 -22
q-60 0 -95.5 42t-35.5 109q0 105 69 184.5t171 79.5z" />
    <glyph glyph-name="colon" unicode=":" horiz-adv-x="188" 
d="M124 396q18 0 29.5 -12t11.5 -31q0 -26 -18 -45t-42 -19q-18 0 -28.5 12t-10.5 31q0 26 18 45t40 19zM75 100q18 0 29 -12t11 -30q0 -26 -18 -45.5t-41 -19.5q-18 0 -29 12t-11 31q0 26 18.5 45t40.5 19z" />
    <glyph glyph-name="semicolon" unicode=";" horiz-adv-x="192" 
d="M129 395q18 0 29 -11.5t11 -30.5q0 -26 -18 -45.5t-41 -19.5q-18 0 -29 12.5t-11 30.5q0 26 18.5 45t40.5 19zM73 99q21 0 33 -14.5t12 -38.5q0 -40 -37.5 -99t-88.5 -94l-7 11q29 24 59 67.5t38 78.5q-15 -11 -30 -11q-36 0 -36 38q0 26 17.5 44t39.5 18z" />
    <glyph glyph-name="less" unicode="&#x3c;" 
d="M403 76q-232 134 -347 202l2 14l418 200l-4 -28l-379 -179l314 -180z" />
    <glyph glyph-name="equal" unicode="=" 
d="M422 200h-369l4 24h369zM448 349h-369l5 25h369z" />
    <glyph glyph-name="greater" unicode="&#x3e;" 
d="M438 278q-184 -90 -418 -202l5 30l379 179q-105 61 -315 181l5 26l347 -200z" />
    <glyph glyph-name="question" unicode="?" horiz-adv-x="456" 
d="M458 582q-3 -36 -33 -74t-70 -70.5t-79.5 -64t-67 -64.5t-27.5 -62q0 -42 40 -73l-9 -10q-41 19 -66.5 50.5t-25.5 68.5q0 30 26 64t63.5 65.5t75 63.5t63.5 67t26 67q0 65 -83 65q-36 0 -67 -11q17 -20 17 -47q0 -29 -19.5 -52t-47.5 -23q-17 0 -29 11.5t-12 32.5
q0 51 50.5 79.5t127.5 28.5q62 0 105.5 -24t43.5 -76q0 -4 -2 -12zM184 97q17 0 28 -11.5t11 -29.5q0 -25 -17.5 -44t-40.5 -19q-17 0 -27.5 11.5t-10.5 29.5q0 25 18 44t39 19z" />
    <glyph glyph-name="at" unicode="@" horiz-adv-x="911" 
d="M483 509q62 0 109 -43q11 3 30 16.5t28 24.5h11q-38 -135 -76 -390q108 -1 177.5 89.5t69.5 207.5q0 119 -77 191.5t-212 72.5q-125 0 -231 -68.5t-166.5 -183.5t-60.5 -247q0 -142 78 -228t211 -86q70 0 130 18q0 -10 1 -15q-61 -21 -142 -21q-137 0 -220.5 93
t-83.5 240q0 137 65.5 256t178 189t243.5 70q136 0 222 -73t86 -204q0 -134 -77.5 -227.5t-184.5 -93.5q-68 0 -68 44q0 43 31 167q-85 -205 -176 -205q-104 0 -104 136q0 46 13.5 93t39 87t66 65t89.5 25zM400 128q41 0 95 86t75 185l12 56q-42 37 -84 37q-61 0 -106 -76.5
t-45 -180.5q0 -107 53 -107z" />
    <glyph glyph-name="A" unicode="A" horiz-adv-x="648" 
d="M93 112l244 462q14 28 13 43.5t-12 24t-23.5 12t-22 7.5t-8.5 10l1 5h141q28 -161 104 -587q5 -31 19.5 -48.5t28.5 -20.5t25 -6t11 -8v-6h-250l1 6q1 6 14 9t27.5 5t27 14.5t12.5 35.5q0 4 -2 20l-23 129h-256q-69 -130 -69 -156q0 -19 13.5 -30t29.5 -13t29.5 -5
t13.5 -8q0 -6 -1 -7h-221v5q1 7 14 10.5t31 8.5t43 27.5t45 60.5zM418 233l-57 350l-3 1l-185 -351h245z" />
    <glyph glyph-name="B" unicode="B" horiz-adv-x="630" 
d="M308 0h-317q1 2 1 6q1 7 17 10t35 7t38.5 27t27.5 65l69 390q1 8 4.5 27.5t6 33t2.5 19.5q0 28 -14 44t-31.5 19.5t-31.5 7t-14 8.5q0 2 2 10h284q112 0 164.5 -39.5t52.5 -96.5q0 -71 -60.5 -116t-155.5 -53q100 -5 151 -52.5t51 -112.5q0 -34 -17.5 -69t-51 -65.5
t-89 -50t-124.5 -19.5zM311 361l2 15q25 0 50 4.5t53 17t49.5 31t35.5 49t14 69.5q0 55 -46 83t-114 28h-64l-100 -563q-4 -24 -4 -33q0 -47 66 -47h35q85 0 148 52t63 156q0 39 -17.5 67.5t-46.5 43t-59.5 21t-64.5 6.5z" />
    <glyph glyph-name="C" unicode="C" horiz-adv-x="619" 
d="M424 667q-85 0 -149.5 -68t-96 -169.5t-31.5 -213.5q0 -97 40.5 -154.5t122.5 -57.5q93 0 148 49.5t95 142.5q3 7 8.5 19.5t7.5 17.5t5.5 11.5t7 9t6.5 2.5h4q-35 -167 -58 -274h-8l-25 47q-119 -39 -198 -39q-119 0 -184 74t-65 194q0 184 108.5 304t264.5 120
q76 0 164 -31l38 47h9l-34 -238h-4q-7 0 -10.5 21.5t-10 52t-20 60.5t-48.5 51.5t-87 21.5z" />
    <glyph glyph-name="D" unicode="D" horiz-adv-x="698" 
d="M260 0h-270l1 6q1 7 17 10.5t34.5 7t38 26.5t26.5 65l78 450q4 20 4 30q0 26 -15 40t-32.5 16t-31.5 5.5t-13 10.5l1 7h242q153 0 246.5 -70t93.5 -208q0 -52 -15 -106t-48.5 -106.5t-81 -93t-119 -65.5t-156.5 -25zM286 658l-99 -562q-5 -30 -5 -36q0 -45 58 -45h27
q140 0 230.5 113t90.5 292q0 121 -64.5 179.5t-196.5 58.5h-41z" />
    <glyph glyph-name="E" unicode="E" horiz-adv-x="619" 
d="M243 15h71q93 0 150.5 47t124.5 163q9 14 16 14q1 0 3 -1h3l-90 -256q-58 18 -206 18h-323l1 6q1 8 18.5 9.5t41.5 12.5t38 39q14 29 21 66l74 427q4 24 4 35q0 34 -22.5 47t-45 15t-22.5 8v9h301q147 0 212 27l-13 -223h-5q-4 0 -6.5 3t-4.5 9.5t-3.5 12t-3 14
t-2.5 13.5q-18 78 -48 103t-105 25h-133l-53 -297h104q40 0 67.5 20t37 44.5t18 44.5t14.5 20h4l-49 -282h-4q-8 0 -9 14t-1.5 34.5t-5 41t-22.5 34.5t-50 14h-107l-45 -262q-3 -15 -3 -25q0 -44 58 -44z" />
    <glyph glyph-name="F" unicode="F" horiz-adv-x="576" 
d="M93 66q12 24 19 63l75 431q4 24 4 35q0 34 -22.5 47t-45 15t-22.5 8v9h309q147 0 212 27l-13 -223h-5q-4 0 -6.5 3t-4.5 9.5t-3.5 12t-3 14t-2.5 13.5q-18 78 -48 103t-105 25h-142l-53 -306h122q40 0 67.5 20t37 44.5t18 44.5t14.5 20h4l-49 -282h-4q-8 0 -9 14
t-1.5 34.5t-5 41t-22.5 34.5t-50 14h-125l-37 -214q-4 -20 -4 -38q0 -29 15 -45t33.5 -18.5t33.5 -5.5t15 -10q0 -5 -1 -6h-297l1 5q2 8 20.5 11t43 14t37.5 36z" />
    <glyph glyph-name="G" unicode="G" horiz-adv-x="692" 
d="M307 4q53 0 106 25t83 61l22 125q4 25 -0.5 43.5t-14.5 27t-23 14.5t-24 8t-18.5 5t-6.5 8l1 6h264l-1 -6q-1 -6 -14 -9t-28.5 -6t-31.5 -21.5t-21 -53.5l-36 -220l-7 -4l-37 35q-124 -52 -217 -52q-124 0 -186 72.5t-62 197.5q0 178 108.5 300t268.5 122q76 0 175 -33
l39 49h8l-36 -245h-3q-9 0 -12 32q0 3 -0.5 5.5t-0.5 4.5q-23 172 -173 172q-83 0 -149 -67t-100 -170t-34 -218q0 -208 161 -208z" />
    <glyph glyph-name="H" unicode="H" horiz-adv-x="747" 
d="M679 578l-77 -443q-7 -31 -7 -49q0 -37 23.5 -52t47.5 -18t24 -10v-4l-1 -2h-294v5q1 7 17.5 11t35.5 8t38.5 26t26.5 62l41 236h-321l-39 -227q-5 -25 -5 -36q0 -28 14.5 -44t31.5 -19t31.5 -6.5t14.5 -9.5q0 -1 -1 -4v-2h-290q0 5 1 7q3 7 20 10.5t35 8.5t37 32.5
t28 75.5l79 443q2 14 2 19q0 25 -14.5 38.5t-31.5 16t-31.5 6.5t-14.5 10q-1 4 1 6h291q0 -3 -2 -7q-5 -7 -31.5 -10.5t-52 -20t-32.5 -57.5l-38 -215h321l38 214q2 14 2 19q0 31 -21.5 44t-43 16.5t-21.5 10.5l1 3v3h281q0 -4 -1 -6q-3 -7 -19.5 -10.5t-34.5 -6.5
t-35.5 -21t-23.5 -51z" />
    <glyph glyph-name="I" unicode="I" horiz-adv-x="362" 
d="M284 578l-83 -467q-7 -40 6.5 -62t34.5 -25.5t38.5 -7t16.5 -11.5l-1 -5h-297l1 5q1 7 16.5 11t35 7.5t39 26t26.5 62.5l82 465q4 23 -1 39t-15 23t-22.5 11.5t-23.5 5.5t-18 4t-6 8l1 6h287l-1 -6q-1 -8 -27 -11t-54 -20t-35 -59z" />
    <glyph glyph-name="J" unicode="J" horiz-adv-x="371" 
d="M96 346l3 13h101q22 102 57 165.5t90 114.5l-1 2q-62 -44 -124 -44q-45 0 -145 26q-14 -40 -27 -97l-11 1q10 55 19 86.5t27 56.5t44 25q37 0 95 -26t88 -26q37 0 86 51l7 -7q-49 -46 -71.5 -109.5t-49.5 -218.5h101l-3 -13h-100q-27 -151 -56 -253.5t-48.5 -141.5
t-44.5 -72q-62 -80 -144 -80q-35 0 -57 17.5t-22 43.5q0 24 16.5 38.5t38.5 14.5q34 0 52.5 -22t18.5 -55q0 -11 -1 -16q64 24 78 95l84 431h-101z" />
    <glyph glyph-name="K" unicode="K" horiz-adv-x="670" 
d="M299 341h-67l-41 -230q-3 -15 -3 -26q0 -28 14.5 -44t31.5 -19t31.5 -6.5t14.5 -9.5v-4l-1 -2h-288l1 5q2 9 17.5 12.5t34 8t38 30.5t28.5 74l79 447q2 14 2 20q0 25 -13.5 38.5t-29 16t-29 6t-13.5 10.5v5h284l-1 -5q-2 -8 -18.5 -12t-35.5 -7t-38 -21t-24 -50
q-26 -148 -38 -221h83l201 200q42 41 42 65q0 17 -16 24.5t-32 10.5t-16 10v7h240q0 -5 -1 -7q-2 -8 -17 -12t-37 -7.5t-62 -28t-84 -67.5l-165 -162l158 -295q18 -34 41.5 -52.5t41 -21t29.5 -6t12 -10.5v-5h-276v6q0 8 17.5 11t35 10.5t17.5 25.5q0 13 -8 29z" />
    <glyph glyph-name="L" unicode="L" horiz-adv-x="603" 
d="M246 15h48q73 0 121.5 21.5t85 64t85.5 128.5q8 14 15 13l5 -1l-91 -259q-59 18 -202 18h-321l1 6q1 7 17 10.5t35.5 7.5t40 32t29.5 79l76 430q4 24 4 29q0 25 -13.5 39t-30 17t-30 6t-13.5 9q0 2 2 8h286v-3l-1 -2q-3 -9 -19.5 -12.5t-35.5 -6t-37.5 -20.5t-24.5 -52
l-86 -484q-4 -18 -4 -34q0 -44 58 -44z" />
    <glyph glyph-name="M" unicode="M" horiz-adv-x="848" 
d="M443 213l39 -121l-10 -6q-17 26 -38.5 36.5t-56.5 11.5l-154 468h-1l-88 -451q-9 -41 -5 -80q2 -22 16 -34.5t29 -14.5t26 -6t10 -11v-5h-220v5q1 8 17.5 12.5t36 10.5t41 37.5t32.5 85.5l83 420q5 27 -1.5 45t-19 24.5t-26 10t-23 6.5t-8.5 9l1 8h166l148 -442l277 442
h176l-1 -8q-1 -7 -17.5 -11t-36 -8.5t-38.5 -24t-24 -52.5l-73 -463q-6 -37 6 -58t30 -25t33 -8t14 -11v-5h-278v5q1 7 17 11.5t34.5 9t37 24.5t23.5 56l82 512h-2z" />
    <glyph glyph-name="N" unicode="N" horiz-adv-x="706" 
d="M272 674q42 -84 138 -259.5t141 -265.5l67 382q7 45 0.5 69t-22 35.5t-31.5 14t-27 6t-10 10.5l1 7h234l-1 -6q-1 -8 -20 -12t-44.5 -16.5t-40.5 -39.5q-15 -28 -24 -79l-93 -527h-15l-323 608h-1l-81 -461q-7 -45 -0.5 -68.5t21.5 -35t30.5 -14.5t26.5 -6.5t10 -10.5v-5
h-230v5q0 6 7 9t22.5 6.5t25.5 6.5q28 10 45.5 38.5t28.5 88.5l73 419q5 28 -2.5 45.5t-21.5 23.5t-28.5 9t-24.5 6t-9 9l1 8h177z" />
    <glyph glyph-name="O" unicode="O" horiz-adv-x="694" 
d="M426 682q119 0 185 -76.5t66 -196.5q0 -110 -50 -207t-136.5 -155t-186.5 -58q-121 0 -185 74t-64 192q0 110 49 208t135 158.5t187 60.5zM423 667q-71 0 -127 -46t-87.5 -117t-47.5 -146.5t-16 -144.5q0 -209 165 -209q71 0 126.5 43t87 112t47.5 144t16 149
q0 215 -164 215z" />
    <glyph glyph-name="P" unicode="P" horiz-adv-x="568" 
d="M224 288l-32 -177q-3 -9 -3 -26q0 -30 16 -46t35 -18t34 -5.5t14 -10.5l-1 -5h-297l1 5q1 7 16.5 11t35 7.5t39 26t26.5 62.5l82 465q2 14 2 19q0 21 -9.5 34t-22.5 17.5t-26.5 7t-22 5t-7.5 8.5l1 6h256q110 0 170.5 -46t60.5 -122q0 -74 -44.5 -127t-107.5 -75.5
t-134 -22.5q-46 0 -82 7zM290 658l-64 -354q32 -7 71 -7q92 0 147.5 58.5t55.5 157.5q0 70 -47 107.5t-121 37.5h-42z" />
    <glyph glyph-name="Q" unicode="Q" horiz-adv-x="694" 
d="M425 683q118 0 185 -75t67 -194q0 -109 -48.5 -205.5t-132 -156t-181.5 -63.5q18 -31 72 -31q11 0 29 2q7 -6 36.5 -31.5t44 -36t40 -22.5t48.5 -12q24 0 55 21l7 -9q-66 -63 -137 -63q-30 0 -65.5 22.5t-65.5 55t-50.5 59t-31.5 44.5q-117 1 -180 74.5t-63 189.5
q0 112 49 211.5t135 159.5t187 60zM423 668q-70 0 -126 -45.5t-87.5 -116.5t-48 -146.5t-16.5 -145.5q0 -211 163 -211q69 0 124.5 41.5t88 107.5t49.5 142t17 153q0 99 -38.5 160t-125.5 61z" />
    <glyph glyph-name="R" unicode="R" horiz-adv-x="622" 
d="M287 658l-57 -322h57q92 0 149.5 53.5t57.5 138.5q0 64 -41.5 97t-105.5 33h-60zM228 321l-38 -210q-3 -9 -3 -26q0 -30 16 -46t35.5 -18t35 -5.5t14.5 -10.5l-1 -5h-297l1 5q1 7 16.5 11t35 7.5t39 26t26.5 62.5l82 464q2 14 2 19q0 21 -9.5 34t-22.5 17.5t-26.5 7
t-22 5t-7.5 8.5l1 6h263q103 0 159 -39t56 -110q0 -84 -75 -143.5t-207 -59.5h-17q28 -46 104 -48l87 -173q17 -34 39.5 -53.5t39.5 -23.5t29.5 -7t12.5 -9v-7h-166l-163 321h-39z" />
    <glyph glyph-name="S" unicode="S" horiz-adv-x="520" 
d="M350 682q67 0 116 -27.5t49 -73.5q0 -27 -16 -42.5t-35 -15.5q-25 0 -38 17t-13 42q0 44 26 70q-36 16 -90 16q-68 0 -113 -39t-45 -93q0 -36 30.5 -67t74.5 -56.5t88 -53t74.5 -68.5t30.5 -91q0 -70 -44.5 -119.5t-109 -70t-139.5 -20.5q-79 0 -132 29t-53 76
q0 29 16.5 44.5t37.5 15.5q25 0 38.5 -17t13.5 -43q0 -41 -28 -69q40 -23 107 -23q96 0 151 44.5t55 120.5q0 40 -30.5 74.5t-73.5 60t-86 51.5t-73.5 61t-30.5 76q0 92 73 141.5t169 49.5z" />
    <glyph glyph-name="T" unicode="T" horiz-adv-x="588" 
d="M108 694q83 -20 259 -20q75 0 110.5 1t80 6t77.5 15l-17 -226h-5q-7 0 -9 13q-14 109 -46 142t-120 33h-31l-98 -549q-2 -9 -2 -25q0 -23 9.5 -37.5t23 -19.5t26.5 -7.5t21.5 -5.5t7.5 -9v-5h-289v5q1 7 17.5 11.5t36 8t39 25t26.5 59.5l97 549h-28q-94 0 -138 -36
t-93 -141q-7 -13 -13 -12l-4 1z" />
    <glyph glyph-name="U" unicode="U" horiz-adv-x="710" 
d="M658 549l-49 -277q-25 -139 -96.5 -211t-185.5 -72q-98 0 -159 42t-62 134q0 35 7 73l57 329q4 28 4 30q0 25 -14 38.5t-30 16t-30 6t-14 9.5q-1 4 1 6h288q0 -4 -2 -8q-4 -6 -22 -9.5t-35.5 -6.5t-35 -21t-23.5 -51l-61 -343q-8 -46 -8 -80q0 -72 35 -109.5t122 -37.5
q91 0 158 66.5t89 194.5l42 244q6 33 6 55q0 36 -14 56t-30 24l-30 7.5t-14 10.5q0 1 0.5 4t0.5 4h232q0 -4 -2 -8q-4 -6 -22.5 -10t-37.5 -8.5t-38 -29t-27 -68.5z" />
    <glyph glyph-name="V" unicode="V" horiz-adv-x="627" 
d="M325 118l238 450q14 27 14 45q0 17 -12.5 26.5t-28 12t-27 6.5t-10.5 11l1 5h216l-1 -5q-1 -7 -15 -10.5t-32 -7.5t-44 -27t-48 -64l-303 -565h-11l-122 596q-5 26 -20.5 41t-30 17.5t-26.5 7t-12 13.5v4h264v-4q0 -8 -13.5 -12t-29.5 -6t-29.5 -14.5t-13.5 -34.5
q0 -4 2 -18l90 -467h4z" />
    <glyph glyph-name="W" unicode="W" horiz-adv-x="903" 
d="M283 136h2l203 429q12 27 12 44q0 15 -8 25t-20 14t-23.5 6.5t-19 6t-6.5 8.5l1 5h240v-4q0 -8 -16 -13t-34.5 -9.5t-32 -24.5t-8.5 -54l61 -435h2l186 403q22 46 22 71q0 15 -7.5 25t-18.5 14.5t-21.5 7t-17.5 5.5t-6 8l1 6h216l-1 -6q-1 -6 -16.5 -10.5t-35.5 -9.5
t-45.5 -28.5t-44.5 -64.5l-260 -560h-13l-78 545l-2 1l-260 -547h-10l-83 590q-4 30 -19.5 47t-32 20t-28.5 6.5t-10 11.5l1 5h258l-1 -7q-1 -6 -14.5 -9.5t-29 -6.5t-28 -15.5t-12.5 -33.5q0 -12 1 -19z" />
    <glyph glyph-name="X" unicode="X" horiz-adv-x="622" 
d="M382 106l-86 200l-116 -146q-71 -88 -71 -110q0 -14 11.5 -21.5t24.5 -9.5t24.5 -5t11.5 -9q0 -1 -1 -3v-2h-221q0 8 3 11q3 4 18.5 7t41 14t51.5 34q38 33 101 110l116 143l-101 230q-15 37 -22 49q-10 18 -23 29.5t-25 16.5t-22.5 7.5t-16.5 5t-6 7.5q0 2 2 9h268v-4
q0 -9 -13 -12.5t-28 -5t-28 -11.5t-13 -30q0 -19 22 -69l66 -151l128 160q37 47 37 71q0 21 -29 29.5t-29 15.5q0 2 1 7h218v-3q0 -7 -6 -10.5t-16.5 -5t-28 -8.5t-37 -17.5t-47.5 -35t-56 -59.5l-129 -158l98 -223q21 -48 35 -73t34.5 -40t36.5 -18t27.5 -6.5t11.5 -8.5
t-1 -7h-287l1 6q1 8 21 11.5t39.5 13t19.5 30.5t-10 45z" />
    <glyph glyph-name="Y" unicode="Y" horiz-adv-x="566" 
d="M329 323l141 208q38 57 38 79q0 16 -10 26t-21.5 13t-21.5 7t-10 10t1 7h205v-5q-1 -7 -13 -11t-30 -9t-47 -29.5t-58 -67.5l-168 -248l-32 -179q-3 -15 -3 -27q0 -33 14.5 -51.5t32.5 -22t32.5 -7t14.5 -10.5q0 -5 -1 -6h-295q1 1 1 5q1 8 17 12t35.5 8t39.5 29t28 71
l29 168l-104 289q-13 35 -36 51.5t-39 21.5t-16 13v5h261v-2q0 -9 -13 -14t-28.5 -7t-28.5 -12.5t-13 -29.5q0 -14 5 -26z" />
    <glyph glyph-name="Z" unicode="Z" horiz-adv-x="580" 
d="M507 658h-188q-80 0 -126 -38.5t-92 -138.5q-6 -15 -15 -12l-4 1l64 227q64 -23 213 -23h253l-2 -14l-518 -645h190q68 0 114 22.5t81.5 67.5t85.5 136q8 14 15 13l6 -1l-100 -274q-74 21 -176 21h-327l2 13q174 215 524 645z" />
    <glyph glyph-name="bracketleft" unicode="[" horiz-adv-x="246" 
d="M-8 -187l160 913h152q0 -5 -2 -15h-80l-156 -883h80q-2 -10 -2 -15h-152z" />
    <glyph glyph-name="backslash" unicode="\" horiz-adv-x="272" 
d="M218 -54l-186 784h22l186 -784h-22z" />
    <glyph glyph-name="bracketright" unicode="]" horiz-adv-x="246" 
d="M269 726q-119 -674 -161 -913h-150q0 5 2 15h78q148 839 156 883h-80l3 15h152z" />
    <glyph glyph-name="asciicircum" unicode="^" horiz-adv-x="504" 
d="M463 364h-28q-37 98 -109 294q-70 -98 -208 -294h-29q26 35 116.5 163t116.5 163h21z" />
    <glyph glyph-name="underscore" unicode="_" horiz-adv-x="454" 
d="M396 -100h-453l4 22h453z" />
    <glyph glyph-name="grave" unicode="`" horiz-adv-x="433" 
d="M348 525l-3 -10q-73 21 -118.5 58t-45.5 62q1 14 9.5 25t22.5 11t26 -13.5t22 -33t33 -48t54 -51.5z" />
    <glyph glyph-name="a" unicode="a" horiz-adv-x="518" 
d="M176 17q49 0 108 95t84 212l14 64q-45 42 -96 42q-71 0 -122 -89t-51 -204q0 -120 63 -120zM152 -11q-118 0 -118 154q0 71 26 139.5t82 117.5t129 49q69 0 122 -49q15 5 38.5 23t31.5 29h11q-46 -154 -84 -430q52 32 93 71l7 -8q-90 -95 -128 -95q-44 0 -44 43
q0 22 11.5 89.5t20.5 98.5h-2q-47 -127 -99.5 -179.5t-96.5 -52.5z" />
    <glyph glyph-name="b" unicode="b" horiz-adv-x="488" 
d="M201 8q70 0 122 91.5t52 201.5q0 116 -62 116q-49 0 -108.5 -88t-87.5 -209q-5 -18 -16 -70q44 -42 100 -42zM133 230h5q51 121 102 170t94 49q55 0 87 -38.5t32 -115.5q0 -71 -26 -139t-82 -117t-128 -49q-73 0 -124 48q-46 -23 -72 -52h-8l127 650q4 21 1 34t-10 19
t-16 8.5t-17 3t-13 2.5t-4 7l1 6l149 17l3 -4l-70 -367q-12 -58 -31 -132z" />
    <glyph glyph-name="c" unicode="c" horiz-adv-x="414" 
d="M302 450q52 0 77.5 -18.5t25.5 -47.5q0 -18 -13 -29t-28 -11q-27 0 -41 18.5t-14 44.5q0 19 3 27q-66 0 -113 -47.5t-66 -109t-19 -125.5q0 -56 25 -93t83 -37q72 0 144 77l9 -8q-88 -102 -193 -102q-69 0 -108.5 42.5t-39.5 117.5q0 121 75 211t193 90z" />
    <glyph glyph-name="d" unicode="d" horiz-adv-x="518" 
d="M286 430q-47 0 -87 -42.5t-63 -109.5t-23 -141q0 -118 61 -118q49 0 108.5 94.5t86.5 217.5q8 40 13 60q-44 39 -96 39zM346 205l-3 -1q-91 -215 -191 -215q-118 0 -118 153q0 71 26 140t81.5 118t127.5 49q64 0 117 -41l43 224q2 10 2 14q0 25 -17.5 35.5t-35.5 12
t-18 7.5q0 4 1 9q106 12 159 19l3 -3q-25 -123 -70 -364t-66 -345q39 22 100 80l7 -8q-87 -99 -128 -99q-49 0 -49 48q0 13 4 39q18 98 25 128z" />
    <glyph glyph-name="e" unicode="e" horiz-adv-x="411" 
d="M179 -11q-67 0 -106 42t-39 116q0 42 9 83.5t29 81.5t49 70t72 48.5t94 18.5t80 -24.5t29 -68.5q0 -63 -79 -105.5t-201 -59.5q-3 -17 -3 -34q0 -66 26.5 -101t73.5 -35q74 0 150 79l8 -7q-87 -104 -192 -104zM117 207q98 9 150 57t52 109q0 28 -13.5 43.5t-36.5 15.5
q-55 0 -94.5 -60.5t-57.5 -164.5z" />
    <glyph glyph-name="f" unicode="f" horiz-adv-x="260" 
d="M-74 -222q-27 0 -45.5 14.5t-18.5 34.5q0 19 13 30.5t31 11.5q22 0 40.5 -18.5t19.5 -54.5q24 9 39.5 40t31.5 117q14 74 43 238t43 230h-91l3 14h91q28 134 91 221t131 87q25 0 41.5 -12.5t16.5 -30.5q0 -20 -14.5 -31.5t-34.5 -11.5q-19 0 -38.5 15.5t-23.5 43.5
q-17 -12 -26.5 -23.5t-26 -62t-32.5 -139.5l-10 -56h109q-3 -12 -3 -14h-108q-4 -20 -10 -58q-42 -246 -77 -359t-72 -161q-50 -65 -113 -65z" />
    <glyph glyph-name="g" unicode="g" horiz-adv-x="448" 
d="M57 244q0 83 59.5 144t139.5 61q40 0 73 -15q47 53 101 53q23 0 36 -10t13 -27q0 -16 -12 -26.5t-29 -10.5q-15 0 -32 13t-19 38q-26 -8 -49 -35q59 -34 59 -112q0 -80 -59 -138t-144 -58q-45 0 -84 22q-25 -12 -42 -31t-17 -32q0 -16 33 -21.5t80 -7t94.5 -6.5
t80.5 -27.5t33 -63.5q0 -68 -69.5 -122.5t-178.5 -54.5q-81 0 -122 35.5t-41 82.5q0 33 17 51t38 18q18 0 28 -11.5t10 -28.5q0 -25 -20.5 -44t-47.5 -22q34 -66 140 -66q68 0 114 43.5t46 98.5q0 42 -41.5 62.5t-91.5 22.5t-91.5 13t-41.5 36q0 18 21 40.5t60 40.5
q-44 29 -44 95zM258 435q-53 0 -89.5 -63.5t-36.5 -148.5q0 -88 68 -88q53 0 88 64.5t35 147.5q0 88 -65 88z" />
    <glyph glyph-name="h" unicode="h" horiz-adv-x="473" 
d="M14 0l113 583q10 55 10 66q0 25 -17.5 34.5t-35 11t-17.5 7.5q0 4 1 8q100 11 157 19l3 -3l-78 -405q-1 -4 -28 -120l2 -1q39 118 96 183.5t111 65.5q107 0 107 -145q0 -118 -64 -216.5t-149 -98.5q-32 0 -49.5 15t-17.5 39q0 18 11 30t29 12q23 0 36 -17t13 -45
q0 -6 -2 -22q58 17 86.5 110t28.5 205q0 43 -12.5 73t-39.5 30q-56 0 -115.5 -97.5t-79.5 -207.5l-21 -114h-78z" />
    <glyph glyph-name="i" unicode="i" horiz-adv-x="277" 
d="M106 -11q-22 0 -32 9.5t-10 33.5q0 9 4 31l70 359q-38 -21 -101 -82l-8 8q88 102 130 102q48 0 48 -51q0 -18 -5 -43q-7 -36 -31 -153.5t-37 -182.5q34 20 100 75l7 -8q-39 -41 -78 -69.5t-57 -28.5zM155 612q0 24 17.5 40.5t41.5 16.5q18 0 30 -12.5t12 -30.5
q0 -24 -17.5 -42t-39.5 -18q-19 0 -31.5 13t-12.5 33z" />
    <glyph glyph-name="j" unicode="j" horiz-adv-x="234" 
d="M194 356q-20 -104 -62 -312q-9 -44 -23 -86t-36 -85t-54.5 -69t-71.5 -26q-24 0 -43 11.5t-19 31.5t13 32t32 12q20 0 36.5 -18t16.5 -49q30 13 40 65l108 559q-38 -21 -101 -82l-8 8q88 102 130 102q48 0 48 -51q0 -11 -6 -43zM149 612q0 23 17 40t41 17q18 0 30 -12.5
t12 -30.5q0 -24 -17 -42t-39 -18q-20 0 -32 13t-12 33z" />
    <glyph glyph-name="k" unicode="k" horiz-adv-x="444" 
d="M134 241l3 -1q35 98 92.5 153.5t119.5 55.5q31 0 51 -21t20 -53q0 -88 -176 -151q10 -63 38 -117.5t56 -83.5q37 28 80 70l8 -8q-79 -96 -123 -96q-48 0 -84 70t-44 150q92 36 132.5 73t40.5 80q0 20 -11 32.5t-31 12.5q-62 0 -116 -86t-80 -224l-18 -97h-78l121 626
q3 12 3 21q0 19 -11 29.5t-24.5 12.5t-24.5 4.5t-11 7.5q0 4 1 9q100 11 157 19l3 -3l-51 -270q-4 -18 -11 -59.5t-14.5 -79.5t-17.5 -76z" />
    <glyph glyph-name="l" unicode="l" horiz-adv-x="240" 
d="M245 726q-54 -281 -137 -706q41 24 100 75q1 -1 2 -2.5t3 -3t3 -2.5q-39 -41 -78.5 -69.5t-56.5 -28.5q-42 0 -42 38q0 6 7 48l98 507q10 54 10 67q0 25 -17.5 34.5t-35 11t-17.5 7.5q0 4 1 8q111 13 157 19z" />
    <glyph glyph-name="m" unicode="m" horiz-adv-x="736" 
d="M363 449q75 0 75 -82q0 -22 -5.5 -49t-18 -72t-16.5 -63h2q50 142 103 204t94 62q75 0 75 -83q0 -12 -7 -49l-64 -299q18 8 48.5 32t50.5 43l7 -8q-89 -96 -130 -96q-46 0 -46 42q0 15 5 35l48 204q16 75 16 95q0 46 -35 46q-43 0 -101 -111.5t-85 -232.5l-15 -67h-76
l69 311q8 40 8 51q0 50 -35 50q-44 0 -105 -119.5t-84 -239.5l-10 -53h-74q54 282 80 423q-20 -12 -52 -38t-49 -45l-8 8q89 103 130 103q49 0 49 -47q0 -52 -48 -231h2q53 151 106 213.5t96 62.5z" />
    <glyph glyph-name="n" unicode="n" horiz-adv-x="518" 
d="M157 451q50 0 50 -48q0 -22 -15.5 -97.5t-30.5 -132.5h2q56 148 114 212t101 64q75 0 75 -78q0 -27 -6 -55l-65 -298q17 8 50.5 33.5t48.5 41.5l8 -8q-91 -96 -131 -96q-46 0 -46 43q0 7 4 27l58 256q8 38 8 57q0 44 -35 44q-30 0 -73.5 -57.5t-80.5 -143t-52 -162.5
l-10 -53h-74q54 282 80 423q-23 -13 -54 -38.5t-47 -44.5l-8 8q87 103 129 103z" />
    <glyph glyph-name="o" unicode="o" horiz-adv-x="479" 
d="M278 449q78 0 122.5 -48.5t44.5 -124.5q0 -109 -76.5 -198t-180.5 -89q-78 0 -116 48t-38 126q0 111 71 198.5t173 87.5zM276 434q-50 0 -88.5 -47.5t-57 -115.5t-18.5 -141q0 -127 79 -127q56 0 98 51.5t60 117.5t18 130q0 132 -91 132z" />
    <glyph glyph-name="p" unicode="p" horiz-adv-x="508" 
d="M190 385q-14 -89 -34 -165h3q87 229 196 229q118 0 118 -154q0 -71 -26 -139.5t-82 -117.5t-129 -49q-66 0 -116 40l-26 -129q-6 -28 -6 -44q0 -20 14 -31.5t30.5 -14t30.5 -6t14 -9.5v-5h-258v4q0 8 12.5 11t29 5t33 18.5t22.5 47.5l105 546q-14 -8 -30 -20t-25 -20
t-25.5 -23.5t-21.5 -19.5l-7 8q86 102 130 102q49 0 49 -49q0 -10 -1 -15zM220 6q72 0 123 89.5t51 205.5q0 117 -60 117q-50 0 -110 -92.5t-87 -218.5l-13 -61q43 -40 96 -40z" />
    <glyph glyph-name="q" unicode="q" horiz-adv-x="494" 
d="M286 429q-71 0 -122.5 -90t-51.5 -203q0 -116 62 -116q61 0 121 108.5t91 258.5q-44 42 -100 42zM473 450l-107 -550q-6 -28 -6 -44q0 -20 13 -31.5t28 -14t28 -6t13 -9.5v-5h-267v4q0 8 15 11t33.5 5t37.5 18.5t25 47.5l49 241q16 78 25 113h-3q-50 -134 -104.5 -187.5
t-99.5 -53.5q-55 0 -87 38t-32 115q0 71 26 139.5t82 118t128 49.5q69 0 124 -50q42 20 70 51h9z" />
    <glyph glyph-name="r" unicode="r" horiz-adv-x="382" 
d="M315 419q-44 -24 -99.5 -143t-79.5 -241l-7 -35h-73l81 422q-18 -9 -51 -36t-50 -46l-8 8q88 102 130 102q47 0 47 -51q0 -45 -52 -230h3q54 163 101.5 220.5t97.5 57.5q22 0 39 -12t17 -31q0 -21 -13.5 -32.5t-32.5 -11.5q-24 0 -40 17t-10 42z" />
    <glyph glyph-name="s" unicode="s" horiz-adv-x="374" 
d="M141 -11q-57 0 -95 22.5t-38 58.5q0 22 12.5 33.5t28.5 11.5q42 0 42 -45q0 -33 -22 -55q24 -13 71 -13q48 0 80 29.5t32 70.5q0 28 -19 51t-46.5 39t-55 33t-46.5 40.5t-19 52.5q0 60 46.5 95t114.5 35q51 0 87.5 -22t36.5 -58q0 -21 -12.5 -32.5t-27.5 -11.5
q-21 0 -32 13t-11 32q0 31 21 54q-25 11 -58 11q-35 0 -65 -21.5t-30 -67.5q0 -23 19.5 -43.5t47 -37t55 -34t47 -43.5t19.5 -58q0 -63 -54 -101.5t-129 -38.5z" />
    <glyph glyph-name="t" unicode="t" horiz-adv-x="267" 
d="M47 66l69 354h-64l3 16h65q56 31 87 125h11l-25 -125h117l-3 -16h-117l-78 -400q35 20 106 80l7 -8q-38 -42 -80.5 -72.5t-60.5 -30.5q-21 0 -31 9.5t-10 34.5q0 16 4 33z" />
    <glyph glyph-name="u" unicode="u" horiz-adv-x="509" 
d="M452 449l4 -3q-41 -193 -83 -429q40 22 100 80l7 -8q-87 -99 -129 -99q-49 0 -49 45q0 46 46 227h-1q-1 -1 -2 -1q-53 -147 -107.5 -210t-96.5 -63q-76 0 -76 76q0 22 6 47l65 310q-31 -17 -100 -79l-8 8q90 99 131 99q46 0 46 -43q0 -21 -7 -49l-57 -259q-4 -16 -4 -36
q0 -41 34 -41q29 0 69.5 58t76 143.5t52.5 164.5l6 28q40 8 77 34z" />
    <glyph glyph-name="v" unicode="v" horiz-adv-x="428" 
d="M114 449q30 0 41 -17.5t15 -47.5q19 -142 26 -307q49 55 78.5 90t64.5 86.5t50 91.5q-20 4 -40 20.5t-20 42.5q0 16 10.5 31t31.5 15t34 -14t13 -40q0 -40 -30.5 -96t-65.5 -99t-94 -112.5t-84 -100.5h-16q-9 237 -37 428q-39 -31 -80 -97l-9 6q68 120 112 120z" />
    <glyph glyph-name="w" unicode="w" horiz-adv-x="653" 
d="M353 449q49 0 57 -66q17 -131 23 -303h3q142 169 177 265q-22 3 -41.5 19.5t-19.5 43.5q0 16 10 31t31 15t34.5 -14t13.5 -40q0 -33 -15.5 -71.5t-48 -86.5t-58 -81t-72.5 -90t-64 -79h-16q-4 110 -21 289q-39 -70 -100 -156t-102 -133h-16q-9 239 -37 427
q-30 -25 -80 -97q-3 3 -9 7q68 120 112 120q20 0 32.5 -10.5t16.5 -22.5t7 -32q20 -149 26 -302q87 108 147 226q-5 55 -13 112q-32 -27 -79 -97q-1 1 -4 3t-5 4q66 119 111 119z" />
    <glyph glyph-name="x" unicode="x" horiz-adv-x="461" 
d="M156 449q22 0 33 -13.5t21 -43.5q34 -97 44 -127q50 101 86 143t77 42q24 0 41 -12t17 -32t-12.5 -31t-32.5 -11q-22 0 -37 17.5t-12 42.5q-51 -28 -121 -179q9 -34 77 -223q14 10 43.5 44.5t40.5 52.5l9 -7q-72 -123 -124 -123q-23 0 -36.5 12.5t-23.5 41.5q-1 3 -24 68
t-25 73q-51 -109 -88.5 -154t-82.5 -45q-23 0 -40 12t-17 32t13 31t32 11q21 0 36 -17.5t14 -43.5q53 25 127 195q-3 10 -35 101.5t-36 103.5q-56 -56 -78 -93l-9 7q76 125 123 125z" />
    <glyph glyph-name="y" unicode="y" horiz-adv-x="429" 
d="M370 452q19 0 32 -12.5t13 -37.5q0 -41 -36.5 -100t-88 -119t-103 -120.5t-88 -121.5t-36.5 -105q0 -43 45 -54q-2 34 12.5 56.5t41.5 22.5q17 0 27 -10t10 -25q0 -29 -22.5 -43t-51.5 -14q-35 0 -55 18t-20 47q0 65 70 162q-11 232 -38 432q-32 -27 -78 -102l-9 5
q34 59 59.5 88.5t53.5 29.5q51 0 59 -64q20 -170 25 -299q19 23 58 69t58 69.5t42 58t34 62.5q-18 2 -36.5 17t-18.5 43q0 15 9 31t32 16z" />
    <glyph glyph-name="z" unicode="z" horiz-adv-x="415" 
d="M129 449q41 0 118.5 -21.5t95.5 -21.5q34 0 70 49l9 -5q-31 -55 -90.5 -117t-115.5 -107t-112.5 -97.5t-81.5 -89.5l1 -2q59 39 123 39q34 0 87 -24.5t77 -24.5q20 0 34 27q-50 14 -50 62q0 17 10.5 30t29.5 13q17 0 28.5 -14.5t11.5 -35.5q0 -43 -32 -83t-103 -40
q-32 0 -92 23t-87 23q-44 0 -67 -41l-11 6q32 65 96.5 127t151 135.5t141.5 138.5l-1 1q-55 -35 -130 -35q-69 0 -145 18q-11 -24 -31 -96l-12 1q5 33 10 56t14 50t22.5 41.5t30.5 14.5z" />
    <glyph glyph-name="braceleft" unicode="{" horiz-adv-x="310" 
d="M182 145l-38 -216q-3 -25 -2.5 -46.5t18.5 -37t54 -19.5l-2 -10q-87 4 -117.5 40t-16.5 117l34 194q5 33 6.5 60.5t-13 47t-47.5 23.5l2 11q23 4 40 13t26 17.5t16.5 28.5t10 32.5l8.5 42.5l21 120q14 81 59.5 121t130.5 40l-2 -10q-56 -5 -77.5 -34.5t-29.5 -76.5
l-23 -130q-29 -157 -148 -167l-1 -3q57 -6 80.5 -46.5t10.5 -111.5z" />
    <glyph glyph-name="bar" unicode="|" horiz-adv-x="330" 
d="M190 -141h-26v885h26v-885z" />
    <glyph glyph-name="braceright" unicode="}" horiz-adv-x="310" 
d="M158 460l26 151q3 25 3 46.5t-18 37t-54 19.5l2 10q87 -4 117 -40t16 -117l-22 -129q-5 -33 -6.5 -60.5t13 -47t47.5 -23.5l-2 -11q-23 -4 -40 -12.5t-26.5 -18t-16.5 -28.5t-10 -32.5t-8 -42.5l-32 -185q-14 -81 -59.5 -121t-130.5 -40l2 10q56 5 77.5 34.5t29.5 76.5
l34 195q29 159 148 169l1 3q-115 12 -91 156z" />
    <glyph glyph-name="asciitilde" unicode="~" horiz-adv-x="481" 
d="M456 337l10 -5q-18 -48 -54 -81t-88 -33q-30 0 -92 21.5t-92 21.5q-63 0 -95 -55l-11 4q13 43 49.5 80.5t92.5 37.5q26 0 92 -22t98 -22q33 0 51.5 10.5t38.5 42.5z" />
    <glyph glyph-name="exclamdown" unicode="&#xa1;" horiz-adv-x="248" 
d="M38 -260q-36 0 -38 38q0 16 4 31q14 52 120 459h12l-41 -460q0 -23 -15.5 -45.5t-41.5 -22.5zM162 445q17 0 28.5 -12t11.5 -30q0 -25 -18 -44t-40 -19q-17 0 -28 12t-11 30q0 25 17.5 44t39.5 19z" />
    <glyph glyph-name="cent" unicode="&#xa2;" 
d="M349 533q51 0 75.5 -17.5t24.5 -45.5q0 -17 -12.5 -28t-27.5 -11q-27 0 -40.5 17.5t-13.5 42.5q0 16 4 28q-19 0 -35 -3l-75 -413q86 0 160 81l9 -7q-80 -94 -174 -102l-18 -102h-14l18 101q-73 0 -112 42.5t-39 117.5q0 109 64.5 195.5t169.5 100.5l18 101h14l-18 -99
q3 0 10.5 0.5t11.5 0.5zM159 237q0 -117 77 -132l74 408q-53 -16 -88.5 -63.5t-49 -101.5t-13.5 -111z" />
    <glyph glyph-name="sterling" unicode="&#xa3;" 
d="M158 320h-93l3 15h88q-2 48 -2 74q0 113 64.5 185.5t167.5 72.5q50 0 83.5 -20.5t33.5 -59.5q0 -23 -13.5 -37.5t-31.5 -14.5q-45 0 -45 47q0 34 23 63q-21 7 -48 7q-149 0 -149 -245q0 -12 3 -72h180l-3 -15h-177q2 -196 -167 -281l1 -3q53 24 86 24q45 0 94 -27.5
t97 -55t93 -27.5q42 0 69 51q-32 10 -44 29.5t-12 37.5t10.5 31.5t31.5 13.5q18 0 30 -16t12 -41q0 -47 -40.5 -95.5t-112.5 -48.5q-41 0 -85 17.5t-76 39t-73 39t-76 17.5q-29 0 -87 -39l-7 11q107 63 139.5 135t32.5 188z" />
    <glyph glyph-name="currency" unicode="&#xa4;" horiz-adv-x="523" 
d="M264 110q-63 0 -111 39l-58 -59l-23 23q13 12 59 58q-40 48 -40 112q0 61 39 108l-58 58l24 23l57 -57q50 39 111 39q62 0 109 -36q5 6 27.5 27t27.5 27l23 -23l-54 -55q40 -50 40 -111t-41 -113l55 -56l-22 -23l-57 57q-49 -38 -108 -38zM264 421q-57 0 -98 -40.5
t-41 -97.5q0 -58 41 -98.5t98 -40.5q58 0 98.5 40.5t40.5 98.5q0 57 -40.5 97.5t-98.5 40.5z" />
    <glyph glyph-name="yen" unicode="&#xa5;" 
d="M24 229h439l-3 -12h-189l-20 -116q-6 -35 6.5 -54.5t31 -23t34.5 -7.5t16 -11v-5h-284v5q2 8 17 11t33 5.5t36 21.5t24 54l22 120h-166zM474 298h-439l3 12h162l-74 260q-8 29 -24 45.5t-30 20t-25 7.5t-11 12v4h257v-4q0 -9 -16 -13.5t-34 -8t-28.5 -21t-1.5 -48.5
l70 -235l139 235q14 26 13.5 39.5t-11 21.5t-23 10.5t-22 7t-8.5 11.5l1 5h203l-1 -5q-2 -8 -15 -11.5t-30 -6.5t-40.5 -20t-42.5 -48l-156 -258h187z" />
    <glyph glyph-name="brokenbar" unicode="&#xa6;" horiz-adv-x="330" 
d="M190 392h-26v352h26v-352zM164 265h26v-406h-26v406z" />
    <glyph glyph-name="section" unicode="&#xa7;" horiz-adv-x="467" 
d="M130 -99q-38 0 -68 19t-30 56q0 29 15.5 47.5t35.5 18.5q25 0 38.5 -17t13.5 -41q0 -37 -24 -66q8 -2 23 -2q41 0 72 27.5t31 75.5q0 33 -23.5 79t-52 85.5t-52 95t-23.5 106.5q0 122 77 214.5t192 92.5q51 0 82 -21.5t31 -60.5q0 -25 -16 -39.5t-34 -14.5q-47 0 -47 55
q0 40 22 62q-16 4 -41 4q-43 0 -68.5 -30t-25.5 -81q0 -29 17 -60.5t41 -61.5t47.5 -62.5t40.5 -76.5t17 -92q0 -56 -17.5 -109.5t-51 -99.5t-91.5 -74.5t-131 -28.5zM218 625l-2 1q-72 -67 -72 -158q0 -41 16 -84t39 -80t45.5 -74.5t38.5 -81t16 -85.5q0 -73 -46 -119l3 -1
q104 59 104 178q0 92 -72 202q-1 1 -19 29t-22.5 36.5t-18.5 34t-19 40.5t-10.5 37.5t-5.5 41.5q0 46 25 83z" />
    <glyph glyph-name="dieresis" unicode="&#xa8;" horiz-adv-x="448" 
d="M209 634q16 0 26 -11.5t10 -28.5q0 -22 -16.5 -38t-36.5 -16q-16 0 -27 10.5t-11 26.5q0 22 17 39.5t38 17.5zM374 634q16 0 26.5 -11.5t10.5 -28.5q0 -22 -16.5 -38t-36.5 -16q-16 0 -27 10.5t-11 26.5q0 22 16.5 39.5t37.5 17.5z" />
    <glyph glyph-name="copyright" unicode="&#xa9;" horiz-adv-x="826" 
d="M430 581q74 0 131 -37l20 37h8v-163h-6q-8 0 -12 15t-10 37t-18 43.5t-41.5 36.5t-73.5 15q-85 0 -122 -64.5t-37 -166.5q0 -97 39.5 -157t121.5 -60q46 0 77.5 17t45.5 40.5t22 47.5t13 41t12 17h6v-176h-9l-24 41q-75 -44 -146 -44q-106 0 -169.5 66t-63.5 169
q0 104 64.5 174.5t171.5 70.5zM426 14q143 0 238 95.5t95 234.5t-95.5 235t-237.5 96q-144 0 -239 -96t-95 -235q0 -140 92.5 -235t241.5 -95zM426 -1q-160 0 -257 98.5t-97 246.5q0 145 101.5 246t252.5 101t252 -101t101 -246q0 -146 -101 -245.5t-252 -99.5z" />
    <glyph glyph-name="ordfeminine" unicode="&#xaa;" horiz-adv-x="335" 
d="M207 593q49 0 85 -30q30 13 45 29h12q-30 -95 -56 -272q3 2 63 46l6 -8q-65 -65 -91 -65q-33 0 -33 31q0 26 14 90q-63 -121 -124 -121q-84 0 -84 101q0 74 44.5 136.5t118.5 62.5zM221 578q-47 0 -82 -58t-35 -130q0 -32 9.5 -54t29.5 -22q39 0 80.5 73.5t60.5 164.5
q-31 26 -63 26z" />
    <glyph glyph-name="guillemotleft" unicode="&#xab;" horiz-adv-x="427" 
d="M263 407l8 -7l-147 -192q25 -65 77 -195l-11 -8l-141 182q-7 10 -7 18q1 8 11 18l27 25zM401 407l8 -7q-50 -64 -148 -192q52 -130 77 -195l-10 -8l-142 182q-7 10 -7 18q1 8 11 18l27 25z" />
    <glyph glyph-name="logicalnot" unicode="&#xac;" horiz-adv-x="490" 
d="M455 305q-26 -146 -38 -218h-23q6 33 17 98t17 96h-361q1 4 2 12t2 12h384z" />
    <glyph glyph-name="sfthyphen" unicode="&#xad;" horiz-adv-x="287" 
d="M255 229h-224l5 29h224z" />
    <glyph glyph-name="registered" unicode="&#xae;" horiz-adv-x="662" 
d="M308 586v-128h19q29 0 54 19t25 45q0 32 -24 48t-59 16h-15zM311 448h-3v-94q0 -15 10.5 -21t21 -8t10.5 -6v-4h-126v4q0 4 10 5.5t20.5 8t10.5 21.5v203q0 21 -20.5 26t-20.5 9v4h115q55 0 84 -19.5t29 -54.5q0 -31 -29 -52.5t-86 -21.5h-15q15 -15 55 -15l68 -85
q9 -11 22 -16.5t21 -7t8 -5.5v-4h-79zM343 208q-109 0 -175.5 68t-66.5 170q0 101 69 170t173 69q106 0 175.5 -69t69.5 -170q0 -100 -70 -169t-175 -69zM343 222q101 0 165.5 65t64.5 159t-65 159.5t-165 65.5q-98 0 -163 -65t-65 -160t62.5 -159.5t165.5 -64.5z" />
    <glyph glyph-name="macron" unicode="&#xaf;" horiz-adv-x="453" 
d="M414 614l-13 -55q-99 9 -253 0l10 40q58 9 256 15z" />
    <glyph glyph-name="degree" unicode="&#xb0;" horiz-adv-x="397" 
d="M223 460q-50 0 -85 34t-35 82q0 50 35 84.5t85 34.5q49 0 84 -34.5t35 -84.5q0 -49 -34.5 -82.5t-84.5 -33.5zM223 672q-40 0 -67 -28.5t-27 -67.5q0 -38 26.5 -65.5t67.5 -27.5q40 0 67 27.5t27 65.5t-27.5 67t-66.5 29z" />
    <glyph glyph-name="plusminus" unicode="&#xb1;" horiz-adv-x="490" 
d="M403 9h-384q2 9 4 23h384zM450 281h-179l-33 -194h-23l34 194h-182q0 1 2 12t2 12h182q6 31 17 94.5t17 96.5h23q-12 -63 -34 -191h179z" />
    <glyph glyph-name="twosuperior" unicode="&#xb2;" horiz-adv-x="320" 
d="M82 347h115q47 0 70 11t50 51q6 8 12 7l3 -1l-52 -115h-256v9q33 34 85.5 78t85.5 71.5t58.5 66t25.5 77.5q0 34 -18.5 53.5t-49.5 19.5q-35 0 -66 -26q21 -11 21 -40q0 -15 -9.5 -26t-25.5 -11q-13 0 -20.5 9t-7.5 21q0 30 34 58t85 28q116 0 116 -84q0 -43 -41.5 -86
t-114.5 -94t-100 -77z" />
    <glyph glyph-name="threesuperior" unicode="&#xb3;" horiz-adv-x="320" 
d="M216 512l17 -4q87 -20 87 -87q0 -55 -50 -91.5t-113 -36.5q-48 0 -78.5 20t-30.5 51q0 21 15.5 40.5t45.5 28.5q1 -1 2.5 -3.5t3.5 -3.5q-17 -26 -17 -62q0 -25 14.5 -40.5t44.5 -15.5q47 0 73.5 36t26.5 82q0 36 -22 55t-60 19q-21 0 -40 -4q-1 4 -1 12q139 21 139 113
q0 24 -16 38t-41 14q-32 0 -55 -12q12 -15 12 -33q0 -17 -11 -29t-28 -12q-12 0 -19 7.5t-7 19.5q0 26 33 49.5t88 23.5q58 0 82 -21.5t24 -49.5q0 -33 -31 -62.5t-88 -41.5z" />
    <glyph glyph-name="acute" unicode="&#xb4;" horiz-adv-x="448" 
d="M216 513l-4 10q38 25 67 54.5t41.5 49t27.5 33t31 13.5q15 0 22 -10t5 -23q-3 -25 -54.5 -64t-135.5 -63z" />
    <glyph glyph-name="mu" unicode="&#xb5;" horiz-adv-x="509" 
d="M373 17q40 22 100 80l7 -8q-87 -99 -129 -99q-49 0 -49 46q0 48 45 226h-1l-2 -1q-49 -140 -99.5 -205.5t-96.5 -66.5q-18 0 -28 5l-18 -95q-6 -28 -6 -42q0 -21 14 -33t31 -14t31 -4.5t14 -7.5q0 -1 -1 -8h-256l1 7q1 5 14 8t28.5 6t31.5 19.5t22 45.5l109 545
q-31 -17 -100 -79l-8 8q90 99 130 99q46 0 46 -47q0 -6 -4 -28l-47 -229q-14 -63 -14 -86q0 -43 34 -43q30 0 71 60t75.5 146t49.5 163l6 30q42 9 78 34l4 -3q-45 -217 -83 -429z" />
    <glyph glyph-name="mu" unicode="&#x3bc;" horiz-adv-x="509" 
d="M373 17q40 22 100 80l7 -8q-87 -99 -129 -99q-49 0 -49 46q0 48 45 226h-1l-2 -1q-49 -140 -99.5 -205.5t-96.5 -66.5q-18 0 -28 5l-18 -95q-6 -28 -6 -42q0 -21 14 -33t31 -14t31 -4.5t14 -7.5q0 -1 -1 -8h-256l1 7q1 5 14 8t28.5 6t31.5 19.5t22 45.5l109 545
q-31 -17 -100 -79l-8 8q90 99 130 99q46 0 46 -47q0 -6 -4 -28l-47 -229q-14 -63 -14 -86q0 -43 34 -43q30 0 71 60t75.5 146t49.5 163l6 30q42 9 78 34l4 -3q-45 -217 -83 -429z" />
    <glyph glyph-name="paragraph" unicode="&#xb6;" horiz-adv-x="563" 
d="M305 674h312l-2 -7q-1 -6 -17.5 -10t-36.5 -9t-40.5 -29.5t-27.5 -65.5l-82 -464q-23 -127 -99 -203t-212 -76q-42 0 -71.5 19t-29.5 55q0 31 16 49.5t39 18.5q29 0 44 -19t15 -47q0 -33 -19 -58q34 0 58 19t38 53.5t21 63.5t14 68q1 9 2 13l46 261h-32
q-70 0 -112.5 43.5t-42.5 111.5q0 91 62.5 152t156.5 61zM394 659l-111 -632q-26 -145 -119 -189l1 -1q147 26 179 202q80 457 109 620h-59z" />
    <glyph glyph-name="periodcentered" unicode="&#xb7;" horiz-adv-x="217" 
d="M122 310q18 0 29 -12t11 -31q0 -26 -18 -45t-42 -19q-17 0 -28 12t-11 31q0 26 18.5 45t40.5 19z" />
    <glyph glyph-name="cedilla" unicode="&#xb8;" horiz-adv-x="418" 
d="M236 -1l-32 -63q52 0 88.5 -18.5t36.5 -56.5q0 -42 -43.5 -73t-122.5 -31q-26 0 -39 2q0 1 1 7l1 6q69 0 101.5 25.5t32.5 59.5q0 43 -80 57l45 86q6 0 11 -1z" />
    <glyph glyph-name="onesuperior" unicode="&#xb9;" horiz-adv-x="302" 
d="M149 351l43 247q2 16 2 20q0 11 -6 15t-23 4q-3 0 -13.5 -0.5t-15.5 -0.5q-4 0 -6.5 1t-1.5 4l1 5l131 36l3 -2l-59 -332q-3 -17 5.5 -25t20 -8.5t22 -3t10.5 -8.5v-4h-182v4q0 7 15 8.5t32.5 9.5t21.5 30z" />
    <glyph glyph-name="ordmasculine" unicode="&#xba;" horiz-adv-x="352" 
d="M231 593q54 0 85.5 -31.5t31.5 -82.5q0 -70 -53 -128t-125 -58q-55 0 -81.5 31.5t-26.5 82.5q0 72 49 129t120 57zM230 581q-50 0 -79.5 -61t-29.5 -135q0 -80 51 -80q38 0 66 33t39.5 75t11.5 83q0 85 -59 85z" />
    <glyph glyph-name="guillemotright" unicode="&#xbb;" horiz-adv-x="441" 
d="M70 400l9 7q132 -147 156 -175q15 -12 15 -26q-1 -9 -20 -26l-192 -175l-2 1q-2 2 -3.5 3t-2.5 3l-2 1l137 195q-8 20 -47 95t-48 97zM212 400l9 7l138 -153q32 -37 32 -46q0 -8 -12 -20l-199 -183l-11 8q17 22 69.5 98.5t68.5 96.5q-64 128 -95 192z" />
    <glyph glyph-name="onequarter" unicode="&#xbc;" horiz-adv-x="757" 
d="M639 720l-484 -759h-17l485 759h16zM159 351l43 247q2 16 2 20q0 11 -6 15t-23 4q-3 0 -13.5 -0.5t-15.5 -0.5q-4 0 -6.5 1t-1.5 4l1 5l131 36l3 -2l-59 -332q-3 -17 5.5 -25t20 -8.5t22 -3t10.5 -8.5v-4h-182v4q0 7 15 8.5t32.5 9.5t21.5 30zM646 248h4q-7 -44 -23 -130
h60l-3 -14h-59l-7 -38q-3 -9 -3 -22t9 -19.5t20.5 -7.5t20.5 -3.5t9 -7.5v-6h-183v6q0 7 15 9t31.5 10t20.5 29l9 50h-182q0 2 0.5 5.5t0.5 5.5q146 161 223 267h73q-136 -154 -276 -264h163l17 96q29 8 60 34z" />
    <glyph glyph-name="onehalf" unicode="&#xbd;" horiz-adv-x="757" 
d="M622 720l-484 -759h-17l485 759h16zM159 351l43 247q2 16 2 20q0 11 -6 15t-23 4q-3 0 -13.5 -0.5t-15.5 -0.5q-4 0 -6.5 1t-1.5 4l1 5l131 36l3 -2l-59 -332q-3 -17 5.5 -25t20 -8.5t22 -3t10.5 -8.5v-4h-182v4q0 7 15 8.5t32.5 9.5t21.5 30zM437 47h115q47 0 70 11
t50 51q6 8 12 7l3 -1l-52 -115h-256v9q33 34 85.5 78t85.5 71.5t58.5 66t25.5 77.5q0 34 -18.5 53.5t-49.5 19.5q-35 0 -66 -26q21 -11 21 -40q0 -15 -9.5 -26t-25.5 -11q-13 0 -20.5 9t-7.5 21q0 30 34 58t85 28q116 0 116 -84q0 -43 -41.5 -86t-114.5 -94t-100 -77z" />
    <glyph glyph-name="threequarters" unicode="&#xbe;" horiz-adv-x="757" 
d="M657 720l-484 -759h-17l485 759h16zM237 512l17 -4q87 -20 87 -87q0 -55 -50 -91.5t-113 -36.5q-48 0 -78.5 20t-30.5 51q0 21 15.5 40.5t45.5 28.5q1 -1 2.5 -3.5t3.5 -3.5q-17 -26 -17 -62q0 -25 14.5 -40.5t44.5 -15.5q47 0 73.5 36t26.5 82q0 36 -22 55t-60 19
q-21 0 -40 -4q-1 4 -1 12q139 21 139 113q0 24 -16 38t-41 14q-32 0 -55 -12q12 -15 12 -33q0 -17 -11 -29t-28 -12q-12 0 -19 7.5t-7 19.5q0 26 33 49.5t88 23.5q58 0 82 -21.5t24 -49.5q0 -33 -31 -62.5t-88 -41.5zM652 248h4q-7 -44 -23 -130h60l-3 -14h-59l-7 -38
q-3 -9 -3 -22t9 -19.5t20.5 -7.5t20.5 -3.5t9 -7.5v-6h-183v6q0 7 15 9t31.5 10t20.5 29l9 50h-182q0 2 0.5 5.5t0.5 5.5q146 161 223 267h73q-136 -154 -276 -264h163l17 96q29 8 60 34z" />
    <glyph glyph-name="questiondown" unicode="&#xbf;" horiz-adv-x="439" 
d="M-5 -141q3 36 33 74t70 70t79 63.5t66.5 64.5t27.5 62q0 41 -39 74l9 10q40 -19 66 -51t26 -69q0 -36 -40 -80.5t-87.5 -80t-87.5 -81t-40 -83.5q0 -66 83 -66q37 0 67 11q-13 17 -13 44q0 31 17.5 54.5t46.5 23.5q17 0 28.5 -11.5t11.5 -32.5q0 -51 -50 -79t-127 -28
q-62 0 -105 23.5t-43 75.5q0 8 1 12zM269 343q-18 0 -28.5 12t-10.5 30q0 25 17.5 44t40.5 19q16 0 27 -12t11 -29q0 -26 -17.5 -45t-39.5 -19z" />
    <glyph glyph-name="Agrave" unicode="&#xc0;" horiz-adv-x="648" 
d="M93 112l244 462q14 28 13 43.5t-12 24t-23.5 12t-22 7.5t-8.5 10l1 5h141q28 -161 104 -587q5 -31 19.5 -48.5t28.5 -20.5t25 -6t11 -8v-6h-250l1 6q1 6 14 9t27.5 5t27 14.5t12.5 35.5q0 4 -2 20l-23 129h-256q-69 -130 -69 -156q0 -19 13.5 -30t29.5 -13t29.5 -5
t13.5 -8q0 -6 -1 -7h-221v5q1 7 14 10.5t31 8.5t43 27.5t45 60.5zM418 233l-57 350l-3 1l-185 -351h245zM466 751l-4 -10q-81 8 -135 40t-54 56q0 13 9.5 22.5t25.5 9.5t33.5 -18t49.5 -48.5t75 -51.5z" />
    <glyph glyph-name="Aacute" unicode="&#xc1;" horiz-adv-x="648" 
d="M93 112l244 462q14 28 13 43.5t-12 24t-23.5 12t-22 7.5t-8.5 10l1 5h141q28 -161 104 -587q5 -31 19.5 -48.5t28.5 -20.5t25 -6t11 -8v-6h-250l1 6q1 6 14 9t27.5 5t27 14.5t12.5 35.5q0 4 -2 20l-23 129h-256q-69 -130 -69 -156q0 -19 13.5 -30t29.5 -13t29.5 -5
t13.5 -8q0 -6 -1 -7h-221v5q1 7 14 10.5t31 8.5t43 27.5t45 60.5zM418 233l-57 350l-3 1l-185 -351h245zM307 739l-2 10q49 21 84.5 52t54 49.5t36.5 18.5q13 0 21.5 -10.5t8.5 -22.5q0 -14 -19 -32.5t-68 -38.5t-116 -26z" />
    <glyph glyph-name="Acircumflex" unicode="&#xc2;" horiz-adv-x="648" 
d="M93 112l244 462q14 28 13 43.5t-12 24t-23.5 12t-22 7.5t-8.5 10l1 5h141q28 -161 104 -587q5 -31 19.5 -48.5t28.5 -20.5t25 -6t11 -8v-6h-250l1 6q1 6 14 9t27.5 5t27 14.5t12.5 35.5q0 4 -2 20l-23 129h-256q-69 -130 -69 -156q0 -19 13.5 -30t29.5 -13t29.5 -5
t13.5 -8q0 -6 -1 -7h-221v5q1 7 14 10.5t31 8.5t43 27.5t45 60.5zM418 233l-57 350l-3 1l-185 -351h245zM519 723l-124 77l-151 -77q-1 1 -7 10l125 107q6 5 17 14t17.5 13.5t10.5 4.5q7 0 15 -8l21 -25q58 -70 86 -105z" />
    <glyph glyph-name="Atilde" unicode="&#xc3;" horiz-adv-x="648" 
d="M93 112l244 462q14 28 13 43.5t-12 24t-23.5 12t-22 7.5t-8.5 10l1 5h141q28 -161 104 -587q5 -31 19.5 -48.5t28.5 -20.5t25 -6t11 -8v-6h-250l1 6q1 6 14 9t27.5 5t27 14.5t12.5 35.5q0 4 -2 20l-23 129h-256q-69 -130 -69 -156q0 -19 13.5 -30t29.5 -13t29.5 -5
t13.5 -8q0 -6 -1 -7h-221v5q1 7 14 10.5t31 8.5t43 27.5t45 60.5zM418 233l-57 350l-3 1l-185 -351h245zM536 833l7 -3q-13 -41 -39 -67t-61 -26q-20 0 -66 15.5t-65 15.5q-38 0 -61 -42l-9 3q14 36 39 64.5t60 28.5q19 0 65 -17t69 -17q36 0 61 45z" />
    <glyph glyph-name="Adieresis" unicode="&#xc4;" horiz-adv-x="648" 
d="M93 112l244 462q14 28 13 43.5t-12 24t-23.5 12t-22 7.5t-8.5 10l1 5h141q28 -161 104 -587q5 -31 19.5 -48.5t28.5 -20.5t25 -6t11 -8v-6h-250l1 6q1 6 14 9t27.5 5t27 14.5t12.5 35.5q0 4 -2 20l-23 129h-256q-69 -130 -69 -156q0 -19 13.5 -30t29.5 -13t29.5 -5
t13.5 -8q0 -6 -1 -7h-221v5q1 7 14 10.5t31 8.5t43 27.5t45 60.5zM418 233l-57 350l-3 1l-185 -351h245zM324 833q16 0 26 -11t10 -28q0 -21 -16.5 -38t-36.5 -17q-16 0 -26.5 10.5t-10.5 27.5q0 22 17 39t37 17zM491 833q16 0 26 -11t10 -28q0 -22 -16.5 -38.5t-37.5 -16.5
q-16 0 -26.5 10.5t-10.5 27.5q0 22 16.5 39t38.5 17z" />
    <glyph glyph-name="Aring" unicode="&#xc5;" horiz-adv-x="648" 
d="M93 112l244 462q14 28 13 43.5t-12 24t-23.5 12t-22 7.5t-8.5 10l1 5h141q28 -161 104 -587q5 -31 19.5 -48.5t28.5 -20.5t25 -6t11 -8v-6h-250l1 6q1 6 14 9t27.5 5t27 14.5t12.5 35.5q0 4 -2 20l-23 129h-256q-69 -130 -69 -156q0 -19 13.5 -30t29.5 -13t29.5 -5
t13.5 -8q0 -6 -1 -7h-221v5q1 7 14 10.5t31 8.5t43 27.5t45 60.5zM418 233l-57 350l-3 1l-185 -351h245zM406 889q33 0 53.5 -22t20.5 -55q0 -45 -32 -77.5t-75 -32.5q-33 0 -55 22t-22 54q0 44 32 77.5t78 33.5zM402 869q-35 0 -59.5 -27t-24.5 -61q0 -25 16 -41.5
t44 -16.5q31 0 56 25.5t25 57.5q0 27 -15.5 45t-41.5 18z" />
    <glyph glyph-name="AE" unicode="&#xc6;" horiz-adv-x="964" 
d="M600 15h48q107 0 166.5 44.5t123.5 165.5q7 14 15 14q1 0 7 -1l-91 -256q-56 18 -200 18h-321q1 2 1 6q1 7 17 11.5t35.5 9.5t39 27t25.5 61l20 117h-257l-84 -109q-39 -49 -39 -69q0 -19 19 -27.5t37.5 -11.5t18.5 -8t-1 -7h-222l1 5q2 8 14.5 11.5t30.5 7t48 25
t61 60.5l413 526q-9 11 -27 16t-31 7.5t-12 8.5l1 7h270q150 0 223 27l-14 -221h-5q-9 0 -11 13q-14 100 -46 132.5t-114 32.5h-114l-53 -297h86q39 0 66.5 20t37.5 44.5t18.5 44.5t14.5 20h5q-34 -188 -50 -282h-4q-9 0 -10.5 21.5t-1.5 47.5t-18 47.5t-57 21.5h-90
l-39 -224q-9 -54 -9 -62q0 -45 58 -45zM488 247l55 311q4 24 4 33q0 21 -9 36l-298 -380h248z" />
    <glyph glyph-name="Ccedilla" unicode="&#xc7;" horiz-adv-x="619" 
d="M424 667q-85 0 -149.5 -68t-96 -169.5t-31.5 -213.5q0 -97 40.5 -154.5t122.5 -57.5q93 0 148 49.5t95 142.5q3 7 8.5 19.5t7.5 17.5t5.5 11.5t7 9t6.5 2.5h4q-35 -167 -58 -274h-8l-25 47q-112 -38 -191 -39l-30 -60q52 0 88.5 -18.5t36.5 -56.5q0 -42 -43.5 -73
t-122.5 -31q-26 0 -39 2q0 1 1 7l1 6q69 0 101.5 25.5t32.5 59.5q0 43 -80 57l43 82q-118 1 -181.5 75t-63.5 193q0 184 108.5 304t264.5 120q76 0 164 -31l38 47h9l-34 -238h-4q-7 0 -10.5 21.5t-10 52t-20 60.5t-48.5 51.5t-87 21.5z" />
    <glyph glyph-name="Egrave" unicode="&#xc8;" horiz-adv-x="619" 
d="M243 15h71q93 0 150.5 47t124.5 163q9 14 16 14q1 0 3 -1h3l-90 -256q-58 18 -206 18h-323l1 6q1 8 18.5 9.5t41.5 12.5t38 39q14 29 21 66l74 427q4 24 4 35q0 34 -22.5 47t-45 15t-22.5 8v9h301q147 0 212 27l-13 -223h-5q-4 0 -6.5 3t-4.5 9.5t-3.5 12t-3 14
t-2.5 13.5q-18 78 -48 103t-105 25h-133l-53 -297h104q40 0 67.5 20t37 44.5t18 44.5t14.5 20h4l-49 -282h-4q-8 0 -9 14t-1.5 34.5t-5 41t-22.5 34.5t-50 14h-107l-45 -262q-3 -15 -3 -25q0 -44 58 -44zM463 751l-4 -10q-81 8 -135 40t-54 56q0 13 9.5 22.5t25.5 9.5
t33.5 -18t49.5 -48.5t75 -51.5z" />
    <glyph glyph-name="Eacute" unicode="&#xc9;" horiz-adv-x="619" 
d="M243 15h71q93 0 150.5 47t124.5 163q9 14 16 14q1 0 3 -1h3l-90 -256q-58 18 -206 18h-323l1 6q1 8 18.5 9.5t41.5 12.5t38 39q14 29 21 66l74 427q4 24 4 35q0 34 -22.5 47t-45 15t-22.5 8v9h301q147 0 212 27l-13 -223h-5q-4 0 -6.5 3t-4.5 9.5t-3.5 12t-3 14
t-2.5 13.5q-18 78 -48 103t-105 25h-133l-53 -297h104q40 0 67.5 20t37 44.5t18 44.5t14.5 20h4l-49 -282h-4q-8 0 -9 14t-1.5 34.5t-5 41t-22.5 34.5t-50 14h-107l-45 -262q-3 -15 -3 -25q0 -44 58 -44zM297 739l-2 10q49 21 84.5 52t54 49.5t36.5 18.5q13 0 21.5 -10.5
t8.5 -22.5q0 -14 -19 -32.5t-68 -38.5t-116 -26z" />
    <glyph glyph-name="Ecircumflex" unicode="&#xca;" horiz-adv-x="619" 
d="M243 15h71q93 0 150.5 47t124.5 163q9 14 16 14q1 0 3 -1h3l-90 -256q-58 18 -206 18h-323l1 6q1 8 18.5 9.5t41.5 12.5t38 39q14 29 21 66l74 427q4 24 4 35q0 34 -22.5 47t-45 15t-22.5 8v9h301q147 0 212 27l-13 -223h-5q-4 0 -6.5 3t-4.5 9.5t-3.5 12t-3 14
t-2.5 13.5q-18 78 -48 103t-105 25h-133l-53 -297h104q40 0 67.5 20t37 44.5t18 44.5t14.5 20h4l-49 -282h-4q-8 0 -9 14t-1.5 34.5t-5 41t-22.5 34.5t-50 14h-107l-45 -262q-3 -15 -3 -25q0 -44 58 -44zM519 733l-124 77l-151 -77q-1 1 -7 10l125 107q6 5 17 14t17.5 13.5
t10.5 4.5q7 0 15 -8l21 -25q58 -70 86 -105z" />
    <glyph glyph-name="Edieresis" unicode="&#xcb;" horiz-adv-x="619" 
d="M243 15h71q93 0 150.5 47t124.5 163q9 14 16 14q1 0 3 -1h3l-90 -256q-58 18 -206 18h-323l1 6q1 8 18.5 9.5t41.5 12.5t38 39q14 29 21 66l74 427q4 24 4 35q0 34 -22.5 47t-45 15t-22.5 8v9h301q147 0 212 27l-13 -223h-5q-4 0 -6.5 3t-4.5 9.5t-3.5 12t-3 14
t-2.5 13.5q-18 78 -48 103t-105 25h-133l-53 -297h104q40 0 67.5 20t37 44.5t18 44.5t14.5 20h4l-49 -282h-4q-8 0 -9 14t-1.5 34.5t-5 41t-22.5 34.5t-50 14h-107l-45 -262q-3 -15 -3 -25q0 -44 58 -44zM317 833q16 0 26 -11t10 -28q0 -21 -16.5 -38t-36.5 -17
q-16 0 -26.5 10.5t-10.5 27.5q0 22 17 39t37 17zM484 833q16 0 26 -11t10 -28q0 -22 -17 -38.5t-37 -16.5q-16 0 -26.5 10.5t-10.5 27.5q0 22 16.5 39t38.5 17z" />
    <glyph glyph-name="Igrave" unicode="&#xcc;" horiz-adv-x="363" 
d="M284 578l-83 -467q-7 -40 6.5 -62t34.5 -25.5t38.5 -7t16.5 -11.5l-1 -5h-297l1 5q1 7 16.5 11t35 7.5t39 26t26.5 62.5l82 465q4 23 -1 39t-15 23t-22.5 11.5t-23.5 5.5t-18 4t-6 8l1 6h287l-1 -6q-1 -8 -27 -11t-54 -20t-35 -59zM340 751l-4 -10q-81 8 -135 40t-54 56
q0 13 9.5 22.5t25.5 9.5t33.5 -18t49.5 -48.5t75 -51.5z" />
    <glyph glyph-name="Iacute" unicode="&#xcd;" horiz-adv-x="363" 
d="M284 578l-83 -467q-7 -40 6.5 -62t34.5 -25.5t38.5 -7t16.5 -11.5l-1 -5h-297l1 5q1 7 16.5 11t35 7.5t39 26t26.5 62.5l82 465q4 23 -1 39t-15 23t-22.5 11.5t-23.5 5.5t-18 4t-6 8l1 6h287l-1 -6q-1 -8 -27 -11t-54 -20t-35 -59zM189 739l-2 10q49 21 84.5 52t54 49.5
t36.5 18.5q13 0 21.5 -10.5t8.5 -22.5q0 -14 -19 -32.5t-68 -38.5t-116 -26z" />
    <glyph glyph-name="Icircumflex" unicode="&#xce;" horiz-adv-x="363" 
d="M284 578l-83 -467q-7 -40 6.5 -62t34.5 -25.5t38.5 -7t16.5 -11.5l-1 -5h-297l1 5q1 7 16.5 11t35 7.5t39 26t26.5 62.5l82 465q4 23 -1 39t-15 23t-22.5 11.5t-23.5 5.5t-18 4t-6 8l1 6h287l-1 -6q-1 -8 -27 -11t-54 -20t-35 -59zM402 733l-124 77l-151 -77q-1 1 -7 10
l125 107q6 5 17 14t17.5 13.5t10.5 4.5q7 0 15 -8l21 -25q58 -70 86 -105z" />
    <glyph glyph-name="Idieresis" unicode="&#xcf;" horiz-adv-x="363" 
d="M284 578l-83 -467q-7 -40 6.5 -62t34.5 -25.5t38.5 -7t16.5 -11.5l-1 -5h-297l1 5q1 7 16.5 11t35 7.5t39 26t26.5 62.5l82 465q4 23 -1 39t-15 23t-22.5 11.5t-23.5 5.5t-18 4t-6 8l1 6h287l-1 -6q-1 -8 -27 -11t-54 -20t-35 -59zM198 833q16 0 26 -11t10 -28
q0 -21 -16.5 -38t-36.5 -17q-16 0 -26.5 10.5t-10.5 27.5q0 22 17 39t37 17zM365 833q16 0 26 -11t10 -28q0 -22 -16.5 -38.5t-37.5 -16.5q-16 0 -26.5 10.5t-10.5 27.5q0 22 16.5 39t38.5 17z" />
    <glyph glyph-name="Eth" unicode="&#xd0;" horiz-adv-x="698" 
d="M260 0h-270l1 6q1 7 17 10.5t34.5 7t38 26.5t26.5 65l39 229h-84l3 16h84l36 205q4 20 4 30q0 26 -15 40t-32.5 16t-31.5 5.5t-13 10.5l1 7h242q153 0 246.5 -70t93.5 -208q0 -52 -15 -106t-48.5 -106.5t-81 -93t-119 -65.5t-156.5 -25zM286 658l-53 -298h163
q0 -6 -2 -16h-164l-43 -248q-5 -30 -5 -36q0 -45 58 -45h27q140 0 230.5 113t90.5 292q0 121 -64.5 179.5t-196.5 58.5h-41z" />
    <glyph glyph-name="Ntilde" unicode="&#xd1;" horiz-adv-x="706" 
d="M272 674q42 -84 138 -259.5t141 -265.5l67 382q7 45 0.5 69t-22 35.5t-31.5 14t-27 6t-10 10.5l1 7h234l-1 -6q-1 -8 -20 -12t-44.5 -16.5t-40.5 -39.5q-15 -28 -24 -79l-93 -527h-15l-323 608h-1l-81 -461q-7 -45 -0.5 -68.5t21.5 -35t30.5 -14.5t26.5 -6.5t10 -10.5v-5
h-230v5q0 6 7 9t22.5 6.5t25.5 6.5q28 10 45.5 38.5t28.5 88.5l73 419q5 28 -2.5 45.5t-21.5 23.5t-28.5 9t-24.5 6t-9 9l1 8h177zM600 851l7 -3q-13 -41 -39 -67t-61 -26q-20 0 -66 15.5t-65 15.5q-38 0 -61 -42l-9 3q14 36 39 64.5t60 28.5q19 0 65 -17t69 -17q36 0 61 45
z" />
    <glyph glyph-name="Ograve" unicode="&#xd2;" horiz-adv-x="694" 
d="M426 682q119 0 185 -76.5t66 -196.5q0 -110 -50 -207t-136.5 -155t-186.5 -58q-121 0 -185 74t-64 192q0 110 49 208t135 158.5t187 60.5zM423 667q-71 0 -127 -46t-87.5 -117t-47.5 -146.5t-16 -144.5q0 -209 165 -209q71 0 126.5 43t87 112t47.5 144t16 149
q0 215 -164 215zM532 754l-4 -10q-81 8 -135 40t-54 56q0 13 9.5 22.5t25.5 9.5t33.5 -18t49.5 -48.5t75 -51.5z" />
    <glyph glyph-name="Oacute" unicode="&#xd3;" horiz-adv-x="694" 
d="M426 682q119 0 185 -76.5t66 -196.5q0 -110 -50 -207t-136.5 -155t-186.5 -58q-121 0 -185 74t-64 192q0 110 49 208t135 158.5t187 60.5zM423 667q-71 0 -127 -46t-87.5 -117t-47.5 -146.5t-16 -144.5q0 -209 165 -209q71 0 126.5 43t87 112t47.5 144t16 149
q0 215 -164 215zM371 743l-2 10q49 21 84.5 52t54 49.5t36.5 18.5q13 0 21.5 -10.5t8.5 -22.5q0 -14 -19 -32.5t-68 -38.5t-116 -26z" />
    <glyph glyph-name="Ocircumflex" unicode="&#xd4;" horiz-adv-x="694" 
d="M426 682q119 0 185 -76.5t66 -196.5q0 -110 -50 -207t-136.5 -155t-186.5 -58q-121 0 -185 74t-64 192q0 110 49 208t135 158.5t187 60.5zM423 667q-71 0 -127 -46t-87.5 -117t-47.5 -146.5t-16 -144.5q0 -209 165 -209q71 0 126.5 43t87 112t47.5 144t16 149
q0 215 -164 215zM589 733l-124 77l-151 -77q-1 1 -7 10l125 107q6 5 17 14t17.5 13.5t10.5 4.5q7 0 15 -8l21 -25q58 -70 86 -105z" />
    <glyph glyph-name="Otilde" unicode="&#xd5;" horiz-adv-x="694" 
d="M426 682q119 0 185 -76.5t66 -196.5q0 -110 -50 -207t-136.5 -155t-186.5 -58q-121 0 -185 74t-64 192q0 110 49 208t135 158.5t187 60.5zM423 667q-71 0 -127 -46t-87.5 -117t-47.5 -146.5t-16 -144.5q0 -209 165 -209q71 0 126.5 43t87 112t47.5 144t16 149
q0 215 -164 215zM610 858l7 -3q-13 -41 -39 -67t-61 -26q-20 0 -66 15.5t-65 15.5q-38 0 -61 -42l-9 3q14 36 39 64.5t60 28.5q19 0 65 -17t69 -17q36 0 61 45z" />
    <glyph glyph-name="Odieresis" unicode="&#xd6;" horiz-adv-x="694" 
d="M426 682q119 0 185 -76.5t66 -196.5q0 -110 -50 -207t-136.5 -155t-186.5 -58q-121 0 -185 74t-64 192q0 110 49 208t135 158.5t187 60.5zM423 667q-71 0 -127 -46t-87.5 -117t-47.5 -146.5t-16 -144.5q0 -209 165 -209q71 0 126.5 43t87 112t47.5 144t16 149
q0 215 -164 215zM386 833q16 0 26 -11t10 -28q0 -21 -16.5 -38t-36.5 -17q-16 0 -26.5 10.5t-10.5 27.5q0 22 17 39t37 17zM553 833q16 0 26 -11t10 -28q0 -22 -16.5 -38.5t-37.5 -16.5q-16 0 -26.5 10.5t-10.5 27.5q0 22 16.5 39t38.5 17z" />
    <glyph glyph-name="multiply" unicode="&#xd7;" horiz-adv-x="490" 
d="M345 128l-103 135l-153 -137l-13 18l153 137l-104 137l18 16l104 -136l152 135q2 -3 6.5 -9t5.5 -8q-146 -131 -151 -136l103 -135z" />
    <glyph glyph-name="Oslash" unicode="&#xd8;" horiz-adv-x="694" 
d="M426 682q99 0 162 -55l56 69l10 -9l-56 -69q78 -76 78 -209q0 -169 -110 -294t-263 -125q-107 0 -171 59l-61 -75l-9 10q22 26 61 74q-68 71 -68 197q0 110 48.5 208t135 158.5t187.5 60.5zM423 667q-71 0 -127 -46t-87.5 -117t-47.5 -146.5t-16 -144.5q0 -67 16 -108
q133 162 397 486q-41 76 -135 76zM564 578q-372 -457 -397 -487q43 -87 143 -87q57 0 104.5 29t79 75t53 106t31 120t9.5 118q0 77 -23 126z" />
    <glyph glyph-name="Ugrave" unicode="&#xd9;" horiz-adv-x="710" 
d="M658 549l-49 -277q-25 -139 -96.5 -211t-185.5 -72q-98 0 -159 42t-62 134q0 35 7 73l57 329q4 28 4 30q0 25 -14 38.5t-30 16t-30 6t-14 9.5q-1 4 1 6h288q0 -4 -2 -8q-4 -6 -22 -9.5t-35.5 -6.5t-35 -21t-23.5 -51l-61 -343q-8 -46 -8 -80q0 -72 35 -109.5t122 -37.5
q91 0 158 66.5t89 194.5l42 244q6 33 6 55q0 36 -14 56t-30 24l-30 7.5t-14 10.5q0 1 0.5 4t0.5 4h232q0 -4 -2 -8q-4 -6 -22.5 -10t-37.5 -8.5t-38 -29t-27 -68.5zM540 751l-4 -10q-81 8 -135 40t-54 56q0 13 9.5 22.5t25.5 9.5t33.5 -18t49.5 -48.5t75 -51.5z" />
    <glyph glyph-name="Uacute" unicode="&#xda;" horiz-adv-x="710" 
d="M658 549l-49 -277q-25 -139 -96.5 -211t-185.5 -72q-98 0 -159 42t-62 134q0 35 7 73l57 329q4 28 4 30q0 25 -14 38.5t-30 16t-30 6t-14 9.5q-1 4 1 6h288q0 -4 -2 -8q-4 -6 -22 -9.5t-35.5 -6.5t-35 -21t-23.5 -51l-61 -343q-8 -46 -8 -80q0 -72 35 -109.5t122 -37.5
q91 0 158 66.5t89 194.5l42 244q6 33 6 55q0 36 -14 56t-30 24l-30 7.5t-14 10.5q0 1 0.5 4t0.5 4h232q0 -4 -2 -8q-4 -6 -22.5 -10t-37.5 -8.5t-38 -29t-27 -68.5zM383 739l-2 10q49 21 84.5 52t54 49.5t36.5 18.5q13 0 21.5 -10.5t8.5 -22.5q0 -14 -19 -32.5t-68 -38.5
t-116 -26z" />
    <glyph glyph-name="Ucircumflex" unicode="&#xdb;" horiz-adv-x="710" 
d="M658 549l-49 -277q-25 -139 -96.5 -211t-185.5 -72q-98 0 -159 42t-62 134q0 35 7 73l57 329q4 28 4 30q0 25 -14 38.5t-30 16t-30 6t-14 9.5q-1 4 1 6h288q0 -4 -2 -8q-4 -6 -22 -9.5t-35.5 -6.5t-35 -21t-23.5 -51l-61 -343q-8 -46 -8 -80q0 -72 35 -109.5t122 -37.5
q91 0 158 66.5t89 194.5l42 244q6 33 6 55q0 36 -14 56t-30 24l-30 7.5t-14 10.5q0 1 0.5 4t0.5 4h232q0 -4 -2 -8q-4 -6 -22.5 -10t-37.5 -8.5t-38 -29t-27 -68.5zM594 733l-124 77l-151 -77q-1 1 -7 10l125 107q6 5 17 14t17.5 13.5t10.5 4.5q7 0 15 -8l21 -25
q58 -70 86 -105z" />
    <glyph glyph-name="Udieresis" unicode="&#xdc;" horiz-adv-x="710" 
d="M658 549l-49 -277q-25 -139 -96.5 -211t-185.5 -72q-98 0 -159 42t-62 134q0 35 7 73l57 329q4 28 4 30q0 25 -14 38.5t-30 16t-30 6t-14 9.5q-1 4 1 6h288q0 -4 -2 -8q-4 -6 -22 -9.5t-35.5 -6.5t-35 -21t-23.5 -51l-61 -343q-8 -46 -8 -80q0 -72 35 -109.5t122 -37.5
q91 0 158 66.5t89 194.5l42 244q6 33 6 55q0 36 -14 56t-30 24l-30 7.5t-14 10.5q0 1 0.5 4t0.5 4h232q0 -4 -2 -8q-4 -6 -22.5 -10t-37.5 -8.5t-38 -29t-27 -68.5zM384 833q16 0 26 -11t10 -28q0 -21 -16.5 -38t-36.5 -17q-16 0 -26.5 10.5t-10.5 27.5q0 22 17 39t37 17z
M551 833q16 0 26 -11t10 -28q0 -22 -16.5 -38.5t-37.5 -16.5q-16 0 -26.5 10.5t-10.5 27.5q0 22 16.5 39t38.5 17z" />
    <glyph glyph-name="Yacute" unicode="&#xdd;" horiz-adv-x="566" 
d="M329 323l141 208q38 57 38 79q0 16 -10 26t-21.5 13t-21.5 7t-10 10t1 7h205v-5q-1 -7 -13 -11t-30 -9t-47 -29.5t-58 -67.5l-168 -248l-32 -179q-3 -15 -3 -27q0 -33 14.5 -51.5t32.5 -22t32.5 -7t14.5 -10.5q0 -5 -1 -6h-295q1 1 1 5q1 8 17 12t35.5 8t39.5 29t28 71
l29 168l-104 289q-13 35 -36 51.5t-39 21.5t-16 13v5h261v-2q0 -9 -13 -14t-28.5 -7t-28.5 -12.5t-13 -29.5q0 -14 5 -26zM301 739l-2 10q49 21 84.5 52t54 49.5t36.5 18.5q13 0 21.5 -10.5t8.5 -22.5q0 -14 -19 -32.5t-68 -38.5t-116 -26z" />
    <glyph glyph-name="Thorn" unicode="&#xde;" horiz-adv-x="549" 
d="M277 578l-4 -19q26 5 61 5q99 0 163 -45t64 -125q0 -109 -82.5 -168t-188.5 -59q-49 0 -85 7l-11 -63q-7 -40 6.5 -62t34.5 -25.5t38.5 -7t16.5 -11.5l-1 -5h-297l1 5q1 7 16.5 11t35 7.5t39 26t26.5 62.5l82 465q4 23 -1 39t-15 23t-22.5 11.5t-23.5 5.5t-18 4t-6 8l1 6
h287l-1 -6q-1 -8 -27 -11t-54 -20t-35 -59zM323 549q-24 0 -52 -5l-64 -356q31 -7 73 -7q79 0 133 62t54 150q0 72 -37 114t-107 42z" />
    <glyph glyph-name="germandbls" unicode="&#xdf;" horiz-adv-x="508" 
d="M452 127q0 -61 -46 -103.5t-116 -42.5q-55 0 -93 22.5t-38 57.5q0 21 12.5 33t28.5 12q21 0 32 -14t11 -34q0 -30 -18 -51q26 -12 63 -12q48 0 73.5 22.5t25.5 53.5q0 38 -26 82t-52 85t-26 72q0 67 62 115q74 57 104 101t30 98q0 41 -25.5 62.5t-69.5 21.5
q-24 0 -50 -10t-55 -33t-52.5 -69t-34.5 -108q-57 -342 -91.5 -467t-72.5 -175q-53 -69 -120 -69q-28 0 -46.5 14.5t-18.5 35.5q0 19 13 30.5t32 11.5q22 0 40 -18.5t19 -55.5q25 11 40.5 38t25.5 81q84 458 94 508q27 132 120.5 219.5t186.5 87.5q63 0 99 -30t36 -71
q0 -50 -33.5 -91t-73.5 -63t-73.5 -48t-33.5 -50q0 -39 58.5 -123.5t58.5 -125.5z" />
    <glyph glyph-name="agrave" unicode="&#xe0;" horiz-adv-x="518" 
d="M176 17q49 0 108 95t84 212l14 64q-45 42 -96 42q-71 0 -122 -89t-51 -204q0 -120 63 -120zM152 -11q-118 0 -118 154q0 71 26 139.5t82 117.5t129 49q69 0 122 -49q15 5 38.5 23t31.5 29h11q-46 -154 -84 -430q52 32 93 71l7 -8q-90 -95 -128 -95q-44 0 -44 43
q0 22 11.5 89.5t20.5 98.5h-2q-47 -127 -99.5 -179.5t-96.5 -52.5zM391 525l-3 -10q-73 21 -118.5 58t-45.5 62q1 14 9.5 25t22.5 11t26 -13.5t22 -33t33 -48t54 -51.5z" />
    <glyph glyph-name="aacute" unicode="&#xe1;" horiz-adv-x="518" 
d="M176 17q49 0 108 95t84 212l14 64q-45 42 -96 42q-71 0 -122 -89t-51 -204q0 -120 63 -120zM152 -11q-118 0 -118 154q0 71 26 139.5t82 117.5t129 49q69 0 122 -49q15 5 38.5 23t31.5 29h11q-46 -154 -84 -430q52 32 93 71l7 -8q-90 -95 -128 -95q-44 0 -44 43
q0 22 11.5 89.5t20.5 98.5h-2q-47 -127 -99.5 -179.5t-96.5 -52.5zM228 513l-4 10q38 25 67 54.5t41.5 49t27.5 33t31 13.5q15 0 22 -10t5 -23q-3 -25 -54.5 -64t-135.5 -63z" />
    <glyph glyph-name="acircumflex" unicode="&#xe2;" horiz-adv-x="518" 
d="M176 17q49 0 108 95t84 212l14 64q-45 42 -96 42q-71 0 -122 -89t-51 -204q0 -120 63 -120zM152 -11q-118 0 -118 154q0 71 26 139.5t82 117.5t129 49q69 0 122 -49q15 5 38.5 23t31.5 29h11q-46 -154 -84 -430q52 32 93 71l7 -8q-90 -95 -128 -95q-44 0 -44 43
q0 22 11.5 89.5t20.5 98.5h-2q-47 -127 -99.5 -179.5t-96.5 -52.5zM430 503l-117 94l-152 -94l-8 10l142 137q21 20 30 20q10 0 22 -19l94 -138z" />
    <glyph glyph-name="atilde" unicode="&#xe3;" horiz-adv-x="518" 
d="M176 17q49 0 108 95t84 212l14 64q-45 42 -96 42q-71 0 -122 -89t-51 -204q0 -120 63 -120zM152 -11q-118 0 -118 154q0 71 26 139.5t82 117.5t129 49q69 0 122 -49q15 5 38.5 23t31.5 29h11q-46 -154 -84 -430q52 32 93 71l7 -8q-90 -95 -128 -95q-44 0 -44 43
q0 22 11.5 89.5t20.5 98.5h-2q-47 -127 -99.5 -179.5t-96.5 -52.5zM455 639l7 -3q-13 -41 -39 -67t-61 -26q-20 0 -66 15.5t-65 15.5q-38 0 -61 -42l-9 3q14 36 39 64.5t60 28.5q19 0 65 -17t69 -17q36 0 61 45z" />
    <glyph glyph-name="adieresis" unicode="&#xe4;" horiz-adv-x="518" 
d="M176 17q49 0 108 95t84 212l14 64q-45 42 -96 42q-71 0 -122 -89t-51 -204q0 -120 63 -120zM152 -11q-118 0 -118 154q0 71 26 139.5t82 117.5t129 49q69 0 122 -49q15 5 38.5 23t31.5 29h11q-46 -154 -84 -430q52 32 93 71l7 -8q-90 -95 -128 -95q-44 0 -44 43
q0 22 11.5 89.5t20.5 98.5h-2q-47 -127 -99.5 -179.5t-96.5 -52.5zM241 634q16 0 26 -11.5t10 -28.5q0 -22 -16.5 -38t-36.5 -16q-16 0 -27 10.5t-11 26.5q0 22 17 39.5t38 17.5zM406 634q16 0 26.5 -11.5t10.5 -28.5q0 -22 -16.5 -38t-36.5 -16q-16 0 -27 10.5t-11 26.5
q0 22 16.5 39.5t37.5 17.5z" />
    <glyph glyph-name="aring" unicode="&#xe5;" horiz-adv-x="518" 
d="M176 17q49 0 108 95t84 212l14 64q-45 42 -96 42q-71 0 -122 -89t-51 -204q0 -120 63 -120zM152 -11q-118 0 -118 154q0 71 26 139.5t82 117.5t129 49q69 0 122 -49q15 5 38.5 23t31.5 29h11q-46 -154 -84 -430q52 32 93 71l7 -8q-90 -95 -128 -95q-44 0 -44 43
q0 22 11.5 89.5t20.5 98.5h-2q-47 -127 -99.5 -179.5t-96.5 -52.5zM335 687q33 0 53.5 -22t20.5 -55q0 -45 -32 -77.5t-75 -32.5q-34 0 -55.5 22t-21.5 54q0 44 32 77.5t78 33.5zM331 667q-35 0 -59.5 -27t-24.5 -61q0 -25 16 -41.5t44 -16.5q31 0 56 25.5t25 57.5
q0 27 -15.5 45t-41.5 18z" />
    <glyph glyph-name="ae" unicode="&#xe6;" horiz-adv-x="679" 
d="M441 -11q-97 0 -131 80q-96 -80 -198 -80q-45 0 -71 22.5t-26 65.5q0 46 22 79t58 50.5t75 25t81 7.5q27 0 55 -3q4 25 9.5 52t8.5 41.5t3 19.5q0 41 -20.5 62.5t-58.5 21.5q-53 0 -90 -25q29 -17 29 -53q0 -27 -15.5 -43t-37.5 -16q-17 0 -27.5 12t-10.5 30q0 38 42 74
t124 36q95 0 120 -71q61 72 167 72q51 0 80 -24.5t29 -69.5q0 -62 -63.5 -103.5t-172.5 -41.5q-13 0 -43 2q-3 -36 -3 -49q0 -67 25.5 -104.5t73.5 -37.5q78 0 150 79q2 -3 8 -7q-86 -104 -192 -104zM154 13q73 0 152 69q-10 25 -10 66q0 34 7 74q-24 2 -46 2
q-73 0 -118.5 -40t-45.5 -115q0 -56 61 -56zM381 226q24 -2 34 -2q89 0 127.5 43.5t38.5 105.5q0 28 -13.5 43.5t-37.5 15.5q-114 0 -149 -206z" />
    <glyph glyph-name="ccedilla" unicode="&#xe7;" horiz-adv-x="414" 
d="M302 450q52 0 77.5 -18.5t25.5 -47.5q0 -18 -13 -29t-28 -11q-27 0 -41 18.5t-14 44.5q0 19 3 27q-66 0 -113 -47.5t-66 -109t-19 -125.5q0 -56 25 -93t83 -37q72 0 144 77l9 -8q-88 -102 -193 -102h-4l-27 -53q52 0 88.5 -18.5t36.5 -56.5q0 -42 -43.5 -73t-122.5 -31
q-26 0 -39 2q0 1 1 7l1 6q69 0 101.5 25.5t32.5 59.5q0 43 -80 57l39 76q-62 5 -97 47t-35 112q0 121 75 211t193 90z" />
    <glyph glyph-name="egrave" unicode="&#xe8;" horiz-adv-x="411" 
d="M179 -11q-67 0 -106 42t-39 116q0 42 9 83.5t29 81.5t49 70t72 48.5t94 18.5t80 -24.5t29 -68.5q0 -63 -79 -105.5t-201 -59.5q-3 -17 -3 -34q0 -66 26.5 -101t73.5 -35q74 0 150 79l8 -7q-87 -104 -192 -104zM117 207q98 9 150 57t52 109q0 28 -13.5 43.5t-36.5 15.5
q-55 0 -94.5 -60.5t-57.5 -164.5zM354 525l-3 -10q-73 21 -118.5 58t-45.5 62q1 14 9.5 25t22.5 11t26 -13.5t22 -33t33 -48t54 -51.5z" />
    <glyph glyph-name="eacute" unicode="&#xe9;" horiz-adv-x="411" 
d="M179 -11q-67 0 -106 42t-39 116q0 42 9 83.5t29 81.5t49 70t72 48.5t94 18.5t80 -24.5t29 -68.5q0 -63 -79 -105.5t-201 -59.5q-3 -17 -3 -34q0 -66 26.5 -101t73.5 -35q74 0 150 79l8 -7q-87 -104 -192 -104zM117 207q98 9 150 57t52 109q0 28 -13.5 43.5t-36.5 15.5
q-55 0 -94.5 -60.5t-57.5 -164.5zM216 513l-4 10q38 25 67 54.5t41.5 49t27.5 33t31 13.5q15 0 22 -10t5 -23q-3 -25 -54.5 -64t-135.5 -63z" />
    <glyph glyph-name="ecircumflex" unicode="&#xea;" horiz-adv-x="411" 
d="M179 -11q-67 0 -106 42t-39 116q0 42 9 83.5t29 81.5t49 70t72 48.5t94 18.5t80 -24.5t29 -68.5q0 -63 -79 -105.5t-201 -59.5q-3 -17 -3 -34q0 -66 26.5 -101t73.5 -35q74 0 150 79l8 -7q-87 -104 -192 -104zM117 207q98 9 150 57t52 109q0 28 -13.5 43.5t-36.5 15.5
q-55 0 -94.5 -60.5t-57.5 -164.5zM414 503l-117 94l-152 -94l-8 10l142 137q21 20 30 20q10 0 22 -19l94 -138z" />
    <glyph glyph-name="edieresis" unicode="&#xeb;" horiz-adv-x="411" 
d="M179 -11q-67 0 -106 42t-39 116q0 42 9 83.5t29 81.5t49 70t72 48.5t94 18.5t80 -24.5t29 -68.5q0 -63 -79 -105.5t-201 -59.5q-3 -17 -3 -34q0 -66 26.5 -101t73.5 -35q74 0 150 79l8 -7q-87 -104 -192 -104zM117 207q98 9 150 57t52 109q0 28 -13.5 43.5t-36.5 15.5
q-55 0 -94.5 -60.5t-57.5 -164.5zM213 634q16 0 26 -11.5t10 -28.5q0 -22 -16.5 -38t-36.5 -16q-16 0 -27 10.5t-11 26.5q0 22 17 39.5t38 17.5zM378 634q16 0 26.5 -11.5t10.5 -28.5q0 -22 -16.5 -38t-36.5 -16q-16 0 -27 10.5t-11 26.5q0 22 16.5 39.5t37.5 17.5z" />
    <glyph glyph-name="igrave" unicode="&#xec;" horiz-adv-x="277" 
d="M240 525l-3 -10q-73 21 -118.5 58t-45.5 62q1 14 9.5 25t22.5 11t26 -13.5t22 -33t33 -48t54 -51.5zM106 -11q-22 0 -32 9.5t-10 33.5q0 10 3 24l6 34q11 63 34 177.5t31 154.5q-19 -9 -51 -35t-50 -47q-1 1 -4 4.5t-4 4.5q89 102 129 102q50 0 50 -46q0 -11 -12.5 -77.5
t-34 -171.5t-27.5 -136q52 30 100 75l7 -8q-39 -41 -78 -69.5t-57 -28.5z" />
    <glyph glyph-name="iacute" unicode="&#xed;" horiz-adv-x="277" 
d="M102 513l-4 10q38 25 67 54.5t41.5 49t27.5 33t31 13.5q15 0 22 -10t5 -23q-3 -25 -54.5 -64t-135.5 -63zM106 -11q-22 0 -32 9.5t-10 33.5q0 10 3 24l6 34q11 63 34 177.5t31 154.5q-19 -9 -51 -35t-50 -47q-1 1 -4 4.5t-4 4.5q89 102 129 102q50 0 50 -46
q0 -11 -12.5 -77.5t-34 -171.5t-27.5 -136q52 30 100 75l7 -8q-39 -41 -78 -69.5t-57 -28.5z" />
    <glyph glyph-name="icircumflex" unicode="&#xee;" horiz-adv-x="277" 
d="M106 -11q-22 0 -32 9.5t-10 33.5q0 10 3 24l6 34q11 63 34 177.5t31 154.5q-19 -9 -51 -35t-50 -47q-1 1 -4 4.5t-4 4.5q89 102 129 102q50 0 50 -46q0 -11 -12.5 -77.5t-34 -171.5t-27.5 -136q52 30 100 75l7 -8q-39 -41 -78 -69.5t-57 -28.5zM301 503l-117 94l-152 -94
l-8 10l142 137q21 20 30 20q10 0 22 -19l94 -138z" />
    <glyph glyph-name="idieresis" unicode="&#xef;" horiz-adv-x="277" 
d="M112 634q16 0 26 -11.5t10 -28.5q0 -22 -16 -38t-37 -16q-16 0 -27 10.5t-11 26.5q0 22 17 39.5t38 17.5zM277 634q16 0 26.5 -11.5t10.5 -28.5q0 -22 -16 -38t-37 -16q-16 0 -27 10.5t-11 26.5q0 22 16.5 39.5t37.5 17.5zM106 -11q-22 0 -32 9.5t-10 33.5q0 10 3 24
l6 34q11 63 34 177.5t31 154.5q-19 -9 -51 -35t-50 -47q-1 1 -4 4.5t-4 4.5q89 102 129 102q50 0 50 -46q0 -11 -12.5 -77.5t-34 -171.5t-27.5 -136q52 30 100 75l7 -8q-39 -41 -78 -69.5t-57 -28.5z" />
    <glyph glyph-name="eth" unicode="&#xf0;" horiz-adv-x="479" 
d="M376 416h1q1 1 2 1q-8 99 -58 184l-109 -68l-8 13l108 67q-44 70 -107 107l8 13q71 -40 127 -102l110 70l8 -13q-72 -46 -108 -68q104 -124 104 -287q0 -141 -75.5 -242.5t-189.5 -101.5q-79 0 -117 47t-38 127q0 114 71 200t171 86q67 0 100 -33zM275 434
q-73 0 -118.5 -94.5t-45.5 -209.5q0 -127 82 -127q53 0 94.5 49t60.5 115t19 132q0 64 -20 99.5t-72 35.5z" />
    <glyph glyph-name="ntilde" unicode="&#xf1;" horiz-adv-x="518" 
d="M157 451q50 0 50 -48q0 -22 -15.5 -97.5t-30.5 -132.5h2q56 148 114 212t101 64q75 0 75 -78q0 -27 -6 -55l-65 -298q17 8 50.5 33.5t48.5 41.5l8 -8q-91 -96 -131 -96q-46 0 -46 43q0 7 4 27l58 256q8 38 8 57q0 44 -35 44q-30 0 -73.5 -57.5t-80.5 -143t-52 -162.5
l-10 -53h-74q54 282 80 423q-23 -13 -54 -38.5t-47 -44.5l-8 8q87 103 129 103zM449 639l7 -3q-13 -41 -39 -67t-61 -26q-20 0 -66 15.5t-65 15.5q-38 0 -61 -42l-9 3q14 36 39 64.5t60 28.5q19 0 65 -17t69 -17q36 0 61 45z" />
    <glyph glyph-name="ograve" unicode="&#xf2;" horiz-adv-x="479" 
d="M278 449q78 0 122.5 -48.5t44.5 -124.5q0 -109 -76.5 -198t-180.5 -89q-78 0 -116 48t-38 126q0 111 71 198.5t173 87.5zM276 434q-50 0 -88.5 -47.5t-57 -115.5t-18.5 -141q0 -127 79 -127q56 0 98 51.5t60 117.5t18 130q0 132 -91 132zM369 525l-3 -10
q-73 21 -118.5 58t-45.5 62q1 14 9.5 25t22.5 11t26 -13.5t22 -33t33 -48t54 -51.5z" />
    <glyph glyph-name="oacute" unicode="&#xf3;" horiz-adv-x="479" 
d="M278 449q78 0 122.5 -48.5t44.5 -124.5q0 -109 -76.5 -198t-180.5 -89q-78 0 -116 48t-38 126q0 111 71 198.5t173 87.5zM276 434q-50 0 -88.5 -47.5t-57 -115.5t-18.5 -141q0 -127 79 -127q56 0 98 51.5t60 117.5t18 130q0 132 -91 132zM238 513l-4 10q38 25 67 54.5
t41.5 49t27.5 33t31 13.5q15 0 22 -10t5 -23q-3 -25 -54.5 -64t-135.5 -63z" />
    <glyph glyph-name="ocircumflex" unicode="&#xf4;" horiz-adv-x="479" 
d="M278 449q78 0 122.5 -48.5t44.5 -124.5q0 -109 -76.5 -198t-180.5 -89q-78 0 -116 48t-38 126q0 111 71 198.5t173 87.5zM276 434q-50 0 -88.5 -47.5t-57 -115.5t-18.5 -141q0 -127 79 -127q56 0 98 51.5t60 117.5t18 130q0 132 -91 132zM437 503l-117 94l-152 -94l-8 10
l142 137q21 20 30 20q10 0 22 -19l94 -138z" />
    <glyph glyph-name="otilde" unicode="&#xf5;" horiz-adv-x="479" 
d="M278 449q78 0 122.5 -48.5t44.5 -124.5q0 -109 -76.5 -198t-180.5 -89q-78 0 -116 48t-38 126q0 111 71 198.5t173 87.5zM276 434q-50 0 -88.5 -47.5t-57 -115.5t-18.5 -141q0 -127 79 -127q56 0 98 51.5t60 117.5t18 130q0 132 -91 132zM452 639l7 -3q-13 -41 -39 -67
t-61 -26q-20 0 -66 15.5t-65 15.5q-38 0 -61 -42l-9 3q14 36 39 64.5t60 28.5q19 0 65 -17t69 -17q36 0 61 45z" />
    <glyph glyph-name="odieresis" unicode="&#xf6;" horiz-adv-x="479" 
d="M278 449q78 0 122.5 -48.5t44.5 -124.5q0 -109 -76.5 -198t-180.5 -89q-78 0 -116 48t-38 126q0 111 71 198.5t173 87.5zM276 434q-50 0 -88.5 -47.5t-57 -115.5t-18.5 -141q0 -127 79 -127q56 0 98 51.5t60 117.5t18 130q0 132 -91 132zM242 634q16 0 26 -11.5t10 -28.5
q0 -22 -16 -38t-37 -16q-16 0 -27 10.5t-11 26.5q0 22 17 39.5t38 17.5zM407 634q16 0 26.5 -11.5t10.5 -28.5q0 -22 -16 -38t-37 -16q-16 0 -27 10.5t-11 26.5q0 22 16.5 39.5t37.5 17.5z" />
    <glyph glyph-name="divide" unicode="&#xf7;" horiz-adv-x="490" 
d="M296 491q18 0 29.5 -12t11.5 -31q0 -24 -18 -42.5t-41 -18.5q-18 0 -29.5 12t-11.5 30q0 25 18 43.5t41 18.5zM244 193q18 0 29 -12t11 -30q0 -25 -18 -43t-41 -18q-18 0 -29.5 11.5t-11.5 29.5q0 24 18.5 43t41.5 19zM450 281h-384l5 24h383z" />
    <glyph glyph-name="oslash" unicode="&#xf8;" horiz-adv-x="479" 
d="M278 449q71 0 116 -42l45 53l5 -4q4 -3 5 -3l-47 -55q43 -48 43 -122q0 -109 -76.5 -198t-180.5 -89q-63 0 -101 33l-44 -52l-10 10l44 51q-43 44 -43 132q0 111 71 198.5t173 87.5zM276 434q-50 0 -88.5 -47.5t-57 -115.5t-18.5 -141q0 -32 4 -53l243 289q-17 68 -83 68
zM367 302q0 29 -4 49l-243 -289q16 -59 71 -59q56 0 98 51.5t60 117.5t18 130z" />
    <glyph glyph-name="ugrave" unicode="&#xf9;" horiz-adv-x="509" 
d="M452 449l4 -3q-41 -193 -83 -429q40 22 100 80l7 -8q-87 -99 -129 -99q-49 0 -49 45q0 46 46 227h-1q-1 -1 -2 -1q-53 -147 -107.5 -210t-96.5 -63q-76 0 -76 76q0 22 6 47l65 310q-31 -17 -100 -79l-8 8q90 99 131 99q46 0 46 -43q0 -21 -7 -49l-57 -259q-4 -16 -4 -36
q0 -41 34 -41q29 0 69.5 58t76 143.5t52.5 164.5l6 28q40 8 77 34zM362 525l-3 -10q-73 21 -118.5 58t-45.5 62q1 14 9.5 25t22.5 11t26 -13.5t22 -33t33 -48t54 -51.5z" />
    <glyph glyph-name="uacute" unicode="&#xfa;" horiz-adv-x="509" 
d="M452 449l4 -3q-41 -193 -83 -429q40 22 100 80l7 -8q-87 -99 -129 -99q-49 0 -49 45q0 46 46 227h-1q-1 -1 -2 -1q-53 -147 -107.5 -210t-96.5 -63q-76 0 -76 76q0 22 6 47l65 310q-31 -17 -100 -79l-8 8q90 99 131 99q46 0 46 -43q0 -21 -7 -49l-57 -259q-4 -16 -4 -36
q0 -41 34 -41q29 0 69.5 58t76 143.5t52.5 164.5l6 28q40 8 77 34zM235 513l-4 10q38 25 67 54.5t41.5 49t27.5 33t31 13.5q15 0 22 -10t5 -23q-3 -25 -54.5 -64t-135.5 -63z" />
    <glyph glyph-name="ucircumflex" unicode="&#xfb;" horiz-adv-x="509" 
d="M452 449l4 -3q-41 -193 -83 -429q40 22 100 80l7 -8q-87 -99 -129 -99q-49 0 -49 45q0 46 46 227h-1q-1 -1 -2 -1q-53 -147 -107.5 -210t-96.5 -63q-76 0 -76 76q0 22 6 47l65 310q-31 -17 -100 -79l-8 8q90 99 131 99q46 0 46 -43q0 -21 -7 -49l-57 -259q-4 -16 -4 -36
q0 -41 34 -41q29 0 69.5 58t76 143.5t52.5 164.5l6 28q40 8 77 34zM431 503l-117 94l-152 -94l-8 10l142 137q21 20 30 20q10 0 22 -19l94 -138z" />
    <glyph glyph-name="udieresis" unicode="&#xfc;" horiz-adv-x="509" 
d="M452 449l4 -3q-41 -193 -83 -429q40 22 100 80l7 -8q-87 -99 -129 -99q-49 0 -49 45q0 46 46 227h-1q-1 -1 -2 -1q-53 -147 -107.5 -210t-96.5 -63q-76 0 -76 76q0 22 6 47l65 310q-31 -17 -100 -79l-8 8q90 99 131 99q46 0 46 -43q0 -21 -7 -49l-57 -259q-4 -16 -4 -36
q0 -41 34 -41q29 0 69.5 58t76 143.5t52.5 164.5l6 28q40 8 77 34zM240 634q16 0 26 -11.5t10 -28.5q0 -22 -16 -38t-37 -16q-16 0 -27 10.5t-11 26.5q0 22 17 39.5t38 17.5zM405 634q16 0 26.5 -11.5t10.5 -28.5q0 -22 -16 -38t-37 -16q-16 0 -27 10.5t-11 26.5
q0 22 16.5 39.5t37.5 17.5z" />
    <glyph glyph-name="yacute" unicode="&#xfd;" horiz-adv-x="429" 
d="M370 452q19 0 32 -12.5t13 -37.5q0 -41 -36.5 -100t-88 -119t-103 -120.5t-88 -121.5t-36.5 -105q0 -43 45 -54q-2 34 12.5 56.5t41.5 22.5q17 0 27 -10t10 -25q0 -29 -22.5 -43t-51.5 -14q-35 0 -55 18t-20 47q0 65 70 162q-11 232 -38 432q-32 -27 -78 -102l-9 5
q34 59 59.5 88.5t53.5 29.5q51 0 59 -64q20 -170 25 -299q19 23 58 69t58 69.5t42 58t34 62.5q-18 2 -36.5 17t-18.5 43q0 15 9 31t32 16zM195 513l-4 10q38 25 67 54.5t41.5 49t27.5 33t31 13.5q15 0 22 -10t5 -23q-3 -25 -54.5 -64t-135.5 -63z" />
    <glyph glyph-name="thorn" unicode="&#xfe;" horiz-adv-x="508" 
d="M16 -124l139 707q10 55 10 66q0 25 -17.5 34.5t-35 11t-17.5 7.5q0 4 1 8q100 11 157 19l3 -3l-65 -341q-24 -124 -35 -165h3q87 229 196 229q118 0 118 -154q0 -71 -26 -139.5t-82 -117.5t-129 -49q-66 0 -116 40l-26 -129q-6 -28 -6 -44q0 -20 14 -31.5t30.5 -14
t30.5 -6t14 -9.5v-5h-258v4q0 8 12.5 11t29 5t33 18.5t22.5 47.5zM220 6q72 0 123 89.5t51 205.5q0 117 -60 117q-50 0 -110 -92.5t-87 -218.5l-13 -61q43 -40 96 -40z" />
    <glyph glyph-name="ydieresis" unicode="&#xff;" horiz-adv-x="429" 
d="M370 452q19 0 32 -12.5t13 -37.5q0 -41 -36.5 -100t-88 -119t-103 -120.5t-88 -121.5t-36.5 -105q0 -43 45 -54q-2 34 12.5 56.5t41.5 22.5q17 0 27 -10t10 -25q0 -29 -22.5 -43t-51.5 -14q-35 0 -55 18t-20 47q0 65 70 162q-11 232 -38 432q-32 -27 -78 -102l-9 5
q34 59 59.5 88.5t53.5 29.5q51 0 59 -64q20 -170 25 -299q19 23 58 69t58 69.5t42 58t34 62.5q-18 2 -36.5 17t-18.5 43q0 15 9 31t32 16zM196 634q16 0 26 -11.5t10 -28.5q0 -22 -16 -38t-37 -16q-16 0 -27 10.5t-11 26.5q0 22 17 39.5t38 17.5zM361 634q16 0 26.5 -11.5
t10.5 -28.5q0 -22 -16 -38t-37 -16q-16 0 -27 10.5t-11 26.5q0 22 16.5 39.5t37.5 17.5z" />
    <glyph glyph-name="Amacron" unicode="&#x100;" horiz-adv-x="648" 
d="M93 112l244 462q14 28 13 43.5t-12 24t-23.5 12t-22 7.5t-8.5 10l1 5h141q28 -161 104 -587q5 -31 19.5 -48.5t28.5 -20.5t25 -6t11 -8v-6h-250l1 6q1 6 14 9t27.5 5t27 14.5t12.5 35.5q0 4 -2 20l-23 129h-256q-69 -130 -69 -156q0 -19 13.5 -30t29.5 -13t29.5 -5
t13.5 -8q0 -6 -1 -7h-221v5q1 7 14 10.5t31 8.5t43 27.5t45 60.5zM418 233l-57 350l-3 1l-185 -351h245zM525 817l-15 -57q-103 10 -263 0l10 42q56 9 268 15z" />
    <glyph glyph-name="amacron" unicode="&#x101;" horiz-adv-x="518" 
d="M176 17q49 0 108 95t84 212l14 64q-45 42 -96 42q-71 0 -122 -89t-51 -204q0 -120 63 -120zM152 -11q-118 0 -118 154q0 71 26 139.5t82 117.5t129 49q69 0 122 -49q15 5 38.5 23t31.5 29h11q-46 -154 -84 -430q52 32 93 71l7 -8q-90 -95 -128 -95q-44 0 -44 43
q0 22 11.5 89.5t20.5 98.5h-2q-47 -127 -99.5 -179.5t-96.5 -52.5zM444 614l-13 -55q-99 9 -253 0l10 40q58 9 256 15z" />
    <glyph glyph-name="Abreve" unicode="&#x102;" horiz-adv-x="648" 
d="M93 112l244 462q14 28 13 43.5t-12 24t-23.5 12t-22 7.5t-8.5 10l1 5h141q28 -161 104 -587q5 -31 19.5 -48.5t28.5 -20.5t25 -6t11 -8v-6h-250l1 6q1 6 14 9t27.5 5t27 14.5t12.5 35.5q0 4 -2 20l-23 129h-256q-69 -130 -69 -156q0 -19 13.5 -30t29.5 -13t29.5 -5
t13.5 -8q0 -6 -1 -7h-221v5q1 7 14 10.5t31 8.5t43 27.5t45 60.5zM418 233l-57 350l-3 1l-185 -351h245zM381 727q-52 0 -82 36t-29 102l11 3q29 -87 109 -87q82 0 146 88l10 -3q-29 -73 -75 -106t-90 -33z" />
    <glyph glyph-name="abreve" unicode="&#x103;" horiz-adv-x="518" 
d="M176 17q49 0 108 95t84 212l14 64q-45 42 -96 42q-71 0 -122 -89t-51 -204q0 -120 63 -120zM152 -11q-118 0 -118 154q0 71 26 139.5t82 117.5t129 49q69 0 122 -49q15 5 38.5 23t31.5 29h11q-46 -154 -84 -430q52 32 93 71l7 -8q-90 -95 -128 -95q-44 0 -44 43
q0 22 11.5 89.5t20.5 98.5h-2q-47 -127 -99.5 -179.5t-96.5 -52.5zM300 510q-54 0 -83.5 38t-24.5 105l13 4q9 -47 37 -70t64 -23q77 0 143 87l11 -3q-56 -138 -160 -138z" />
    <glyph glyph-name="Aogonek" unicode="&#x104;" horiz-adv-x="648" 
d="M93 112l244 462q14 28 13 43.5t-12 24t-23.5 12t-22 7.5t-8.5 10l1 5h141q28 -161 104 -587q5 -31 19.5 -48.5t28.5 -20.5t25 -6t11 -8v-6h-91q-40 -32 -63.5 -72.5t-23.5 -68.5t21 -43t57 -15q28 0 60 8l1 -11q-61 -28 -115 -28q-87 0 -87 64q0 35 32.5 80t100.5 86
h-142l1 6q1 6 14 9t27.5 5t27 14.5t12.5 35.5q0 4 -2 20l-23 129h-256q-69 -130 -69 -156q0 -19 13.5 -30t29.5 -13t29.5 -5t13.5 -8q0 -6 -1 -7h-221v5q1 7 14 10.5t31 8.5t43 27.5t45 60.5zM418 233l-57 350l-3 1l-185 -351h245z" />
    <glyph glyph-name="aogonek" unicode="&#x105;" horiz-adv-x="518" 
d="M152 -11q-118 0 -118 154q0 71 26 139.5t81.5 117.5t128.5 49q70 0 123 -49q15 7 38.5 24t31.5 28h11q-46 -154 -84 -430q52 32 93 71l7 -8q-90 -95 -128 -95q-24 0 -35 14q-35 -30 -56 -68t-21 -64q0 -28 21 -43t57 -15q28 0 60 8l1 -11q-59 -27 -115 -27q-88 0 -88 63
q0 35 33 80.5t102 86.5q-3 8 -3 19q0 22 11.5 89.5t20.5 98.5h-2q-50 -131 -101 -181.5t-95 -50.5zM176 17q47 0 107 95.5t85 211.5l14 64q-45 42 -96 42q-71 0 -122 -89t-51 -204q0 -120 63 -120z" />
    <glyph glyph-name="Cacute" unicode="&#x106;" horiz-adv-x="619" 
d="M424 667q-85 0 -149.5 -68t-96 -169.5t-31.5 -213.5q0 -97 40.5 -154.5t122.5 -57.5q93 0 148 49.5t95 142.5q3 7 8.5 19.5t7.5 17.5t5.5 11.5t7 9t6.5 2.5h4q-35 -167 -58 -274h-8l-25 47q-119 -39 -198 -39q-119 0 -184 74t-65 194q0 184 108.5 304t264.5 120
q76 0 164 -31l38 47h9l-34 -238h-4q-7 0 -10.5 21.5t-10 52t-20 60.5t-48.5 51.5t-87 21.5zM359 745l-2 10q49 21 84.5 52t54 49.5t36.5 18.5q13 0 21.5 -10.5t8.5 -22.5q0 -14 -19 -32.5t-68 -38.5t-116 -26z" />
    <glyph glyph-name="cacute" unicode="&#x107;" horiz-adv-x="413" 
d="M302 450q52 0 77.5 -18.5t25.5 -47.5q0 -18 -13 -29t-28 -11q-27 0 -41 18.5t-14 44.5q0 19 3 27q-66 0 -113 -47.5t-66 -109t-19 -125.5q0 -56 25 -93t83 -37q72 0 144 77l9 -8q-88 -102 -193 -102q-69 0 -108.5 42.5t-39.5 117.5q0 121 75 211t193 90zM212 513l-4 10
q38 25 67 54.5t41.5 49t27.5 33t31 13.5q15 0 22 -10t5 -23q-3 -25 -54.5 -64t-135.5 -63z" />
    <glyph glyph-name="Ccircumflex" unicode="&#x108;" horiz-adv-x="619" 
d="M424 667q-85 0 -149.5 -68t-96 -169.5t-31.5 -213.5q0 -97 40.5 -154.5t122.5 -57.5q93 0 148 49.5t95 142.5q3 7 8.5 19.5t7.5 17.5t5.5 11.5t7 9t6.5 2.5h4q-35 -167 -58 -274h-8l-25 47q-119 -39 -198 -39q-119 0 -184 74t-65 194q0 184 108.5 304t264.5 120
q76 0 164 -31l38 47h9l-34 -238h-4q-7 0 -10.5 21.5t-10 52t-20 60.5t-48.5 51.5t-87 21.5zM565 739l-124 77l-151 -77q-1 1 -7 10l125 107q6 5 17 14t17.5 13.5t10.5 4.5q7 0 15 -8l21 -25q58 -70 86 -105z" />
    <glyph glyph-name="ccircumflex" unicode="&#x109;" horiz-adv-x="413" 
d="M302 450q52 0 77.5 -18.5t25.5 -47.5q0 -18 -13 -29t-28 -11q-27 0 -41 18.5t-14 44.5q0 19 3 27q-66 0 -113 -47.5t-66 -109t-19 -125.5q0 -56 25 -93t83 -37q72 0 144 77l9 -8q-88 -102 -193 -102q-69 0 -108.5 42.5t-39.5 117.5q0 121 75 211t193 90zM410 503l-117 94
l-152 -94l-8 10l142 137q21 20 30 20q10 0 22 -19l94 -138z" />
    <glyph glyph-name="Cdotaccent" unicode="&#x10a;" horiz-adv-x="619" 
d="M424 667q-85 0 -149.5 -68t-96 -169.5t-31.5 -213.5q0 -97 40.5 -154.5t122.5 -57.5q93 0 148 49.5t95 142.5q3 7 8.5 19.5t7.5 17.5t5.5 11.5t7 9t6.5 2.5h4q-35 -167 -58 -274h-8l-25 47q-119 -39 -198 -39q-119 0 -184 74t-65 194q0 184 108.5 304t264.5 120
q76 0 164 -31l38 47h9l-34 -238h-4q-7 0 -10.5 21.5t-10 52t-20 60.5t-48.5 51.5t-87 21.5zM450 851q18 0 29 -13t11 -31q0 -25 -19 -44t-41 -19q-17 0 -28.5 12t-11.5 31q0 24 18 44t42 20z" />
    <glyph glyph-name="cdotaccent" unicode="&#x10b;" horiz-adv-x="413" 
d="M302 450q52 0 77.5 -18.5t25.5 -47.5q0 -18 -13 -29t-28 -11q-27 0 -41 18.5t-14 44.5q0 19 3 27q-66 0 -113 -47.5t-66 -109t-19 -125.5q0 -56 25 -93t83 -37q72 0 144 77l9 -8q-88 -102 -193 -102q-69 0 -108.5 42.5t-39.5 117.5q0 121 75 211t193 90zM313 643
q18 0 29 -13t11 -31q0 -25 -18.5 -44t-41.5 -19q-17 0 -28.5 12t-11.5 31q0 24 18 44t42 20z" />
    <glyph glyph-name="Ccaron" unicode="&#x10c;" horiz-adv-x="619" 
d="M424 667q-85 0 -149.5 -68t-96 -169.5t-31.5 -213.5q0 -97 40.5 -154.5t122.5 -57.5q93 0 148 49.5t95 142.5q3 7 8.5 19.5t7.5 17.5t5.5 11.5t7 9t6.5 2.5h4q-35 -167 -58 -274h-8l-25 47q-119 -39 -198 -39q-119 0 -184 74t-65 194q0 184 108.5 304t264.5 120
q76 0 164 -31l38 47h9l-34 -238h-4q-7 0 -10.5 21.5t-10 52t-20 60.5t-48.5 51.5t-87 21.5zM445 801l152 78q6 -9 7 -10l-155 -133q-9 -8 -17 -8q-6 0 -14 9l-107 132q2 1 3.5 3t4 4.5l3.5 3.5z" />
    <glyph glyph-name="ccaron" unicode="&#x10d;" horiz-adv-x="413" 
d="M302 450q52 0 77.5 -18.5t25.5 -47.5q0 -18 -13 -29t-28 -11q-27 0 -41 18.5t-14 44.5q0 19 3 27q-66 0 -113 -47.5t-66 -109t-19 -125.5q0 -56 25 -93t83 -37q72 0 144 77l9 -8q-88 -102 -193 -102q-69 0 -108.5 42.5t-39.5 117.5q0 121 75 211t193 90zM293 574l151 95
l6 -11l-142 -137q-20 -19 -28 -19t-23 20l-94 137l11 10z" />
    <glyph glyph-name="Dcaron" unicode="&#x10e;" horiz-adv-x="698" 
d="M260 0h-270l1 6q1 7 17 10.5t34.5 7t38 26.5t26.5 65l78 450q4 20 4 30q0 26 -15 40t-32.5 16t-31.5 5.5t-13 10.5l1 7h242q153 0 246.5 -70t93.5 -208q0 -52 -15 -106t-48.5 -106.5t-81 -93t-119 -65.5t-156.5 -25zM286 658l-99 -562q-5 -30 -5 -36q0 -45 58 -45h27
q140 0 230.5 113t90.5 292q0 121 -64.5 179.5t-196.5 58.5h-41zM407 801l152 78q6 -9 7 -10l-155 -133q-9 -8 -17 -8q-6 0 -14 9l-107 132q2 1 3.5 3t4 4.5l3.5 3.5z" />
    <glyph glyph-name="dcaron" unicode="&#x10f;" horiz-adv-x="532" 
d="M286 430q-47 0 -87 -42.5t-63 -109.5t-23 -141q0 -118 61 -118q49 0 108.5 94.5t86.5 217.5q8 40 13 60q-44 39 -96 39zM346 205l-3 -1q-91 -215 -191 -215q-118 0 -118 153q0 71 26 140t81.5 118t127.5 49q64 0 117 -41l43 224q2 10 2 14q0 25 -17.5 35.5t-35.5 12
t-18 7.5q0 4 1 9q106 12 159 19l3 -3q-25 -123 -70 -364t-66 -345q39 22 100 80l7 -8q-87 -99 -128 -99q-49 0 -49 48q0 13 4 39q18 98 25 128zM621 738q42 0 42 -44q0 -34 -34 -83.5t-84 -81.5l-4 9q29 23 54.5 55.5t34.5 63.5q-12 -9 -26 -9q-15 0 -26 10t-11 26
q0 22 15.5 38t38.5 16z" />
    <glyph glyph-name="Dcroat" unicode="&#x110;" horiz-adv-x="698" 
d="M260 0h-270l1 6q1 7 17 10.5t34.5 7t38 26.5t26.5 65l39 229h-84l3 16h84l36 205q4 20 4 30q0 26 -15 40t-32.5 16t-31.5 5.5t-13 10.5l1 7h242q153 0 246.5 -70t93.5 -208q0 -52 -15 -106t-48.5 -106.5t-81 -93t-119 -65.5t-156.5 -25zM286 658l-53 -298h163
q0 -6 -2 -16h-164l-43 -248q-5 -30 -5 -36q0 -45 58 -45h27q140 0 230.5 113t90.5 292q0 121 -64.5 179.5t-196.5 58.5h-41z" />
    <glyph glyph-name="dcroat" unicode="&#x111;" horiz-adv-x="518" 
d="M346 205l-3 -1q-91 -215 -191 -215q-118 0 -118 153q0 71 26 140t81.5 118t127.5 49q64 0 117 -41l26 137h-173q0 3 1.5 8.5t1.5 7.5h173l14 71q2 10 2 14q0 25 -17.5 35.5t-35.5 12t-18 7.5q0 4 1 9q106 12 159 19l3 -3l-33 -165h63l-3 -16h-63q-11 -59 -46 -245.5
t-54 -282.5q39 22 100 80l7 -8q-87 -99 -128 -99q-49 0 -49 48q0 13 4 39q18 98 25 128zM286 430q-47 0 -87 -42.5t-63 -109.5t-23 -141q0 -118 61 -118q49 0 108.5 94.5t86.5 217.5q8 40 13 60q-44 39 -96 39z" />
    <glyph glyph-name="Emacron" unicode="&#x112;" horiz-adv-x="619" 
d="M243 15h71q93 0 150.5 47t124.5 163q9 14 16 14q1 0 3 -1h3l-90 -256q-58 18 -206 18h-323l1 6q1 8 18.5 9.5t41.5 12.5t38 39q14 29 21 66l74 427q4 24 4 35q0 34 -22.5 47t-45 15t-22.5 8v9h301q147 0 212 27l-13 -223h-5q-4 0 -6.5 3t-4.5 9.5t-3.5 12t-3 14
t-2.5 13.5q-18 78 -48 103t-105 25h-133l-53 -297h104q40 0 67.5 20t37 44.5t18 44.5t14.5 20h4l-49 -282h-4q-8 0 -9 14t-1.5 34.5t-5 41t-22.5 34.5t-50 14h-107l-45 -262q-3 -15 -3 -25q0 -44 58 -44zM534 817l-15 -57q-103 10 -263 0l10 42q56 9 268 15z" />
    <glyph glyph-name="emacron" unicode="&#x113;" horiz-adv-x="411" 
d="M179 -11q-67 0 -106 42t-39 116q0 42 9 83.5t29 81.5t49 70t72 48.5t94 18.5t80 -24.5t29 -68.5q0 -63 -79 -105.5t-201 -59.5q-3 -17 -3 -34q0 -66 26.5 -101t73.5 -35q74 0 150 79l8 -7q-87 -104 -192 -104zM117 207q98 9 150 57t52 109q0 28 -13.5 43.5t-36.5 15.5
q-55 0 -94.5 -60.5t-57.5 -164.5zM414 614l-13 -55q-99 9 -253 0l10 40q58 9 256 15z" />
    <glyph glyph-name="Ebreve" unicode="&#x114;" horiz-adv-x="619" 
d="M243 15h71q93 0 150.5 47t124.5 163q9 14 16 14q1 0 3 -1h3l-90 -256q-58 18 -206 18h-323l1 6q1 8 18.5 9.5t41.5 12.5t38 39q14 29 21 66l74 427q4 24 4 35q0 34 -22.5 47t-45 15t-22.5 8v9h301q147 0 212 27l-13 -223h-5q-4 0 -6.5 3t-4.5 9.5t-3.5 12t-3 14
t-2.5 13.5q-18 78 -48 103t-105 25h-133l-53 -297h104q40 0 67.5 20t37 44.5t18 44.5t14.5 20h4l-49 -282h-4q-8 0 -9 14t-1.5 34.5t-5 41t-22.5 34.5t-50 14h-107l-45 -262q-3 -15 -3 -25q0 -44 58 -44zM385 727q-52 0 -82 36t-29 102l11 3q29 -87 109 -87q82 0 146 88
l10 -3q-29 -73 -75 -106t-90 -33z" />
    <glyph glyph-name="ebreve" unicode="&#x115;" horiz-adv-x="411" 
d="M179 -11q-67 0 -106 42t-39 116q0 42 9 83.5t29 81.5t49 70t72 48.5t94 18.5t80 -24.5t29 -68.5q0 -63 -79 -105.5t-201 -59.5q-3 -17 -3 -34q0 -66 26.5 -101t73.5 -35q74 0 150 79l8 -7q-87 -104 -192 -104zM117 207q98 9 150 57t52 109q0 28 -13.5 43.5t-36.5 15.5
q-55 0 -94.5 -60.5t-57.5 -164.5zM283 510q-54 0 -83.5 38t-24.5 105l13 4q9 -47 37 -70t64 -23q77 0 143 87l11 -3q-56 -138 -160 -138z" />
    <glyph glyph-name="Edotaccent" unicode="&#x116;" horiz-adv-x="619" 
d="M243 15h71q93 0 150.5 47t124.5 163q9 14 16 14q1 0 3 -1h3l-90 -256q-58 18 -206 18h-323l1 6q1 8 18.5 9.5t41.5 12.5t38 39q14 29 21 66l74 427q4 24 4 35q0 34 -22.5 47t-45 15t-22.5 8v9h301q147 0 212 27l-13 -223h-5q-4 0 -6.5 3t-4.5 9.5t-3.5 12t-3 14
t-2.5 13.5q-18 78 -48 103t-105 25h-133l-53 -297h104q40 0 67.5 20t37 44.5t18 44.5t14.5 20h4l-49 -282h-4q-8 0 -9 14t-1.5 34.5t-5 41t-22.5 34.5t-50 14h-107l-45 -262q-3 -15 -3 -25q0 -44 58 -44zM403 849q18 0 29 -13t11 -31q0 -25 -18.5 -44t-41.5 -19
q-17 0 -28.5 12t-11.5 31q0 24 18 44t42 20z" />
    <glyph glyph-name="edotaccent" unicode="&#x117;" horiz-adv-x="411" 
d="M179 -11q-67 0 -106 42t-39 116q0 42 9 83.5t29 81.5t49 70t72 48.5t94 18.5t80 -24.5t29 -68.5q0 -63 -79 -105.5t-201 -59.5q-3 -17 -3 -34q0 -66 26.5 -101t73.5 -35q74 0 150 79l8 -7q-87 -104 -192 -104zM117 207q98 9 150 57t52 109q0 28 -13.5 43.5t-36.5 15.5
q-55 0 -94.5 -60.5t-57.5 -164.5zM308 643q18 0 29 -13t11 -31q0 -25 -19 -44t-41 -19q-17 0 -28.5 12t-11.5 31q0 24 18 44t42 20z" />
    <glyph glyph-name="Eogonek" unicode="&#x118;" horiz-adv-x="619" 
d="M243 15h71q93 0 150.5 47t124.5 163q9 14 16 14q1 0 3 -1h3l-90 -256q-26 9 -58 12q-36 -31 -57 -69.5t-21 -64.5q0 -28 21 -43t57 -15q28 0 60 8l1 -11q-61 -28 -115 -28q-87 0 -87 64q0 34 30.5 78t93.5 83q-36 4 -131 4h-323l1 6q1 8 18.5 9.5t41.5 12.5t38 39
q14 29 21 66l74 427q4 24 4 35q0 34 -22.5 47t-45 15t-22.5 8v9h301q147 0 212 27l-13 -223h-5q-4 0 -6.5 3t-4.5 9.5t-3.5 12t-3 14t-2.5 13.5q-18 78 -48 103t-105 25h-133l-53 -297h104q40 0 67.5 20t37 44.5t18 44.5t14.5 20h4l-49 -282h-4q-8 0 -9 14t-1.5 34.5t-5 41
t-22.5 34.5t-50 14h-107l-45 -262q-3 -15 -3 -25q0 -44 58 -44z" />
    <glyph glyph-name="eogonek" unicode="&#x119;" horiz-adv-x="411" 
d="M179 -11q-67 0 -106 42t-39 116q0 42 9 83.5t29 81.5t49 70t72 48.5t94 18.5t80 -24.5t29 -68.5q0 -63 -79 -105.5t-201 -59.5q-3 -17 -3 -34q0 -66 26.5 -101t73.5 -35q74 0 150 79l8 -7q-46 -54 -101 -82q-39 -31 -62.5 -71.5t-23.5 -68.5t21 -43t57 -15q28 0 60 8
l1 -11q-61 -28 -115 -28q-87 0 -87 64q0 31 26 71.5t81 77.5q-24 -6 -49 -6zM117 207q98 9 150 57t52 109q0 28 -13.5 43.5t-36.5 15.5q-55 0 -94.5 -60.5t-57.5 -164.5z" />
    <glyph glyph-name="Ecaron" unicode="&#x11a;" horiz-adv-x="619" 
d="M243 15h71q93 0 150.5 47t124.5 163q9 14 16 14q1 0 3 -1h3l-90 -256q-58 18 -206 18h-323l1 6q1 8 18.5 9.5t41.5 12.5t38 39q14 29 21 66l74 427q4 24 4 35q0 34 -22.5 47t-45 15t-22.5 8v9h301q147 0 212 27l-13 -223h-5q-4 0 -6.5 3t-4.5 9.5t-3.5 12t-3 14
t-2.5 13.5q-18 78 -48 103t-105 25h-133l-53 -297h104q40 0 67.5 20t37 44.5t18 44.5t14.5 20h4l-49 -282h-4q-8 0 -9 14t-1.5 34.5t-5 41t-22.5 34.5t-50 14h-107l-45 -262q-3 -15 -3 -25q0 -44 58 -44zM390 801l152 78q6 -9 7 -10l-155 -133q-9 -8 -17 -8q-7 0 -14 9
l-107 132q2 1 3.5 3t4 4.5l3.5 3.5z" />
    <glyph glyph-name="ecaron" unicode="&#x11b;" horiz-adv-x="411" 
d="M179 -11q-67 0 -106 42t-39 116q0 42 9 83.5t29 81.5t49 70t72 48.5t94 18.5t80 -24.5t29 -68.5q0 -63 -79 -105.5t-201 -59.5q-3 -17 -3 -34q0 -66 26.5 -101t73.5 -35q74 0 150 79l8 -7q-87 -104 -192 -104zM117 207q98 9 150 57t52 109q0 28 -13.5 43.5t-36.5 15.5
q-55 0 -94.5 -60.5t-57.5 -164.5zM294 574l151 95l6 -11l-142 -137q-20 -19 -28 -19t-23 20l-94 137l11 10z" />
    <glyph glyph-name="Gcircumflex" unicode="&#x11c;" horiz-adv-x="692" 
d="M307 4q53 0 106 25t83 61l22 125q4 25 -0.5 43.5t-14.5 27t-23 14.5t-24 8t-18.5 5t-6.5 8l1 6h264l-1 -6q-1 -6 -14 -9t-28.5 -6t-31.5 -21.5t-21 -53.5l-36 -220l-7 -4l-37 35q-124 -52 -217 -52q-124 0 -186 72.5t-62 197.5q0 178 108.5 300t268.5 122q76 0 175 -33
l39 49h8l-36 -245h-3q-9 0 -12 32q0 3 -0.5 5.5t-0.5 4.5q-23 172 -173 172q-83 0 -149 -67t-100 -170t-34 -218q0 -208 161 -208zM591 736l-124 77l-151 -77q-1 1 -7 10l125 107q6 5 17 14t17.5 13.5t10.5 4.5q7 0 15 -8l21 -25q58 -70 86 -105z" />
    <glyph glyph-name="gcircumflex" unicode="&#x11d;" horiz-adv-x="448" 
d="M57 244q0 83 59.5 144t139.5 61q40 0 73 -15q47 53 101 53q23 0 36 -10t13 -27q0 -16 -12 -26.5t-29 -10.5q-15 0 -32 13t-19 38q-26 -8 -49 -35q59 -34 59 -112q0 -80 -59 -138t-144 -58q-45 0 -84 22q-25 -12 -42 -31t-17 -32q0 -16 33 -21.5t80 -7t94.5 -6.5
t80.5 -27.5t33 -63.5q0 -68 -69.5 -122.5t-178.5 -54.5q-81 0 -122 35.5t-41 82.5q0 33 17 51t38 18q18 0 28 -11.5t10 -28.5q0 -25 -20.5 -44t-47.5 -22q34 -66 140 -66q68 0 114 43.5t46 98.5q0 42 -41.5 62.5t-91.5 22.5t-91.5 13t-41.5 36q0 18 21 40.5t60 40.5
q-44 29 -44 95zM258 435q-53 0 -89.5 -63.5t-36.5 -148.5q0 -88 68 -88q53 0 88 64.5t35 147.5q0 88 -65 88zM402 519l-117 94l-152 -94l-8 10l142 137q21 20 30 20q10 0 22 -19l94 -138z" />
    <glyph glyph-name="Gbreve" unicode="&#x11e;" horiz-adv-x="692" 
d="M307 4q53 0 106 25t83 61l22 125q4 25 -0.5 43.5t-14.5 27t-23 14.5t-24 8t-18.5 5t-6.5 8l1 6h264l-1 -6q-1 -6 -14 -9t-28.5 -6t-31.5 -21.5t-21 -53.5l-36 -220l-7 -4l-37 35q-124 -52 -217 -52q-124 0 -186 72.5t-62 197.5q0 178 108.5 300t268.5 122q76 0 175 -33
l39 49h8l-36 -245h-3q-9 0 -12 32q0 3 -0.5 5.5t-0.5 4.5q-23 172 -173 172q-83 0 -149 -67t-100 -170t-34 -218q0 -208 161 -208zM453 727q-52 0 -82 36t-29 102l11 3q29 -87 109 -87q82 0 146 88l10 -3q-29 -73 -75 -106t-90 -33z" />
    <glyph glyph-name="gbreve" unicode="&#x11f;" horiz-adv-x="448" 
d="M57 244q0 83 59.5 144t139.5 61q40 0 73 -15q47 53 101 53q23 0 36 -10t13 -27q0 -16 -12 -26.5t-29 -10.5q-15 0 -32 13t-19 38q-26 -8 -49 -35q59 -34 59 -112q0 -80 -59 -138t-144 -58q-45 0 -84 22q-25 -12 -42 -31t-17 -32q0 -16 33 -21.5t80 -7t94.5 -6.5
t80.5 -27.5t33 -63.5q0 -68 -69.5 -122.5t-178.5 -54.5q-81 0 -122 35.5t-41 82.5q0 33 17 51t38 18q18 0 28 -11.5t10 -28.5q0 -25 -20.5 -44t-47.5 -22q34 -66 140 -66q68 0 114 43.5t46 98.5q0 42 -41.5 62.5t-91.5 22.5t-91.5 13t-41.5 36q0 18 21 40.5t60 40.5
q-44 29 -44 95zM258 435q-53 0 -89.5 -63.5t-36.5 -148.5q0 -88 68 -88q53 0 88 64.5t35 147.5q0 88 -65 88zM280 512q-54 0 -83.5 38t-24.5 105l13 4q9 -47 37 -70t64 -23q77 0 143 87l11 -3q-56 -138 -160 -138z" />
    <glyph glyph-name="Gdotaccent" unicode="&#x120;" horiz-adv-x="692" 
d="M307 4q53 0 106 25t83 61l22 125q4 25 -0.5 43.5t-14.5 27t-23 14.5t-24 8t-18.5 5t-6.5 8l1 6h264l-1 -6q-1 -6 -14 -9t-28.5 -6t-31.5 -21.5t-21 -53.5l-36 -220l-7 -4l-37 35q-124 -52 -217 -52q-124 0 -186 72.5t-62 197.5q0 178 108.5 300t268.5 122q76 0 175 -33
l39 49h8l-36 -245h-3q-9 0 -12 32q0 3 -0.5 5.5t-0.5 4.5q-23 172 -173 172q-83 0 -149 -67t-100 -170t-34 -218q0 -208 161 -208zM459 845q18 0 29 -13t11 -31q0 -25 -18.5 -44t-41.5 -19q-17 0 -28.5 12t-11.5 31q0 24 18 44t42 20z" />
    <glyph glyph-name="gdotaccent" unicode="&#x121;" horiz-adv-x="448" 
d="M57 244q0 83 59.5 144t139.5 61q40 0 73 -15q47 53 101 53q23 0 36 -10t13 -27q0 -16 -12 -26.5t-29 -10.5q-15 0 -32 13t-19 38q-26 -8 -49 -35q59 -34 59 -112q0 -80 -59 -138t-144 -58q-45 0 -84 22q-25 -12 -42 -31t-17 -32q0 -16 33 -21.5t80 -7t94.5 -6.5
t80.5 -27.5t33 -63.5q0 -68 -69.5 -122.5t-178.5 -54.5q-81 0 -122 35.5t-41 82.5q0 33 17 51t38 18q18 0 28 -11.5t10 -28.5q0 -25 -20.5 -44t-47.5 -22q34 -66 140 -66q68 0 114 43.5t46 98.5q0 42 -41.5 62.5t-91.5 22.5t-91.5 13t-41.5 36q0 18 21 40.5t60 40.5
q-44 29 -44 95zM258 435q-53 0 -89.5 -63.5t-36.5 -148.5q0 -88 68 -88q53 0 88 64.5t35 147.5q0 88 -65 88zM312 643q18 0 29 -13t11 -31q0 -25 -19 -44t-41 -19q-17 0 -28.5 12t-11.5 31q0 24 18 44t42 20z" />
    <glyph glyph-name="Gcommaaccent" unicode="&#x122;" horiz-adv-x="692" 
d="M307 4q53 0 106 25t83 61l22 125q4 25 -0.5 43.5t-14.5 27t-23 14.5t-24 8t-18.5 5t-6.5 8l1 6h264l-1 -6q-1 -6 -14 -9t-28.5 -6t-31.5 -21.5t-21 -53.5l-36 -220l-7 -4l-37 35q-124 -52 -217 -52q-124 0 -186 72.5t-62 197.5q0 178 108.5 300t268.5 122q76 0 175 -33
l39 49h8l-36 -245h-3q-9 0 -12 32q0 3 -0.5 5.5t-0.5 4.5q-23 172 -173 172q-83 0 -149 -67t-100 -170t-34 -218q0 -208 161 -208zM309 -44q42 0 42 -44q0 -34 -34 -83.5t-84 -81.5l-4 9q29 23 54.5 55.5t34.5 63.5q-12 -9 -26 -9q-15 0 -26 10t-11 26q0 22 15.5 38t38.5 16
z" />
    <glyph glyph-name="gcommaaccent" unicode="&#x123;" horiz-adv-x="448" 
d="M295 518q-37 0 -37 40q0 32 30.5 81.5t73.5 81.5l7 -7q-30 -25 -57 -59t-33 -62q20 10 33 10q34 0 34 -34q0 -19 -16 -35t-35 -16zM57 244q0 83 59.5 144t139.5 61q40 0 73 -15q47 53 101 53q23 0 36 -10t13 -27q0 -16 -12 -26.5t-29 -10.5q-15 0 -32 13t-19 38
q-26 -8 -49 -35q59 -34 59 -112q0 -80 -59 -138t-144 -58q-45 0 -84 22q-25 -12 -42 -31t-17 -32q0 -16 33 -21.5t80 -7t94.5 -6.5t80.5 -27.5t33 -63.5q0 -68 -69.5 -122.5t-178.5 -54.5q-81 0 -122 35.5t-41 82.5q0 33 17 51t38 18q18 0 28 -11.5t10 -28.5
q0 -25 -20.5 -44t-47.5 -22q34 -66 140 -66q68 0 114 43.5t46 98.5q0 42 -41.5 62.5t-91.5 22.5t-91.5 13t-41.5 36q0 18 21 40.5t60 40.5q-44 29 -44 95zM258 435q-53 0 -89.5 -63.5t-36.5 -148.5q0 -88 68 -88q53 0 88 64.5t35 147.5q0 88 -65 88z" />
    <glyph glyph-name="Hcircumflex" unicode="&#x124;" horiz-adv-x="747" 
d="M679 578l-77 -443q-7 -31 -7 -49q0 -37 23.5 -52t47.5 -18t24 -10v-4l-1 -2h-294v5q1 7 17.5 11t35.5 8t38.5 26t26.5 62l41 236h-321l-39 -227q-5 -25 -5 -36q0 -28 14.5 -44t31.5 -19t31.5 -6.5t14.5 -9.5q0 -1 -1 -4v-2h-290q0 5 1 7q3 7 20 10.5t35 8.5t37 32.5
t28 75.5l79 443q2 14 2 19q0 25 -14.5 38.5t-31.5 16t-31.5 6.5t-14.5 10q-1 4 1 6h291q0 -3 -2 -7q-5 -7 -31.5 -10.5t-52 -20t-32.5 -57.5l-38 -215h321l38 214q2 14 2 19q0 31 -21.5 44t-43 16.5t-21.5 10.5l1 3v3h281q0 -4 -1 -6q-3 -7 -19.5 -10.5t-34.5 -6.5
t-35.5 -21t-23.5 -51zM591 733l-124 77l-151 -77q-1 1 -7 10l125 107q6 5 17 14t17.5 13.5t10.5 4.5q7 0 15 -8l21 -25q58 -70 86 -105z" />
    <glyph glyph-name="hcircumflex" unicode="&#x125;" horiz-adv-x="473" 
d="M14 0l113 583q10 55 10 66q0 25 -17.5 34.5t-35 11t-17.5 7.5q0 4 1 8q100 11 157 19l3 -3l-78 -405q-1 -4 -28 -120l2 -1q39 118 96 183.5t111 65.5q107 0 107 -145q0 -118 -64 -216.5t-149 -98.5q-32 0 -49.5 15t-17.5 39q0 18 11 30t29 12q23 0 36 -17t13 -45
q0 -6 -2 -22q58 17 86.5 110t28.5 205q0 43 -12.5 73t-39.5 30q-56 0 -115.5 -97.5t-79.5 -207.5l-21 -114h-78zM321 748l-124 77l-151 -77q-1 1 -7 10l125 107q6 5 17 14t17.5 13.5t10.5 4.5q7 0 15 -8l21 -25q58 -70 86 -105z" />
    <glyph glyph-name="Hbar" unicode="&#x126;" horiz-adv-x="747" 
d="M679 578l-10 -57h51l-3 -15h-51l-64 -371q-7 -31 -7 -49q0 -37 23.5 -52t47.5 -18t24 -10v-4l-1 -2h-294v5q1 7 17.5 11t35.5 8t38.5 26t26.5 62l41 236h-321l-39 -227q-5 -25 -5 -36q0 -28 14.5 -44t31.5 -19t31.5 -6.5t14.5 -9.5q0 -1 -1 -4v-2h-290q0 5 1 7
q3 7 20 10.5t35 8.5t37 32.5t28 75.5l66 372h-62l3 15h62l10 56q2 14 2 19q0 25 -14.5 38.5t-31.5 16t-31.5 6.5t-14.5 10q-1 4 1 6h291q0 -3 -2 -7q-5 -7 -31.5 -10.5t-52 -20t-32.5 -57.5l-10 -57h321l10 56q2 14 2 19q0 31 -21.5 44t-43 16.5t-21.5 10.5l1 3v3h281
q0 -4 -1 -6q-3 -7 -19.5 -10.5t-34.5 -6.5t-35.5 -21t-23.5 -51zM236 363h321l25 143h-321z" />
    <glyph glyph-name="hbar" unicode="&#x127;" horiz-adv-x="473" 
d="M14 0l107 553h-70q0 1 3 16h70l7 34q4 23 6 46q0 25 -17.5 34.5t-35 11t-17.5 7.5q0 4 1 8q100 11 157 19l3 -3l-30 -157h149q0 -1 -3 -16h-149l-50 -251q-18 -81 -23 -101l2 -1q39 118 96 183.5t111 65.5q107 0 107 -145q0 -118 -64 -216.5t-149 -98.5q-32 0 -49.5 15
t-17.5 39q0 18 11 30t29 12q19 0 33.5 -17.5t14.5 -50.5q0 -10 -1 -16q58 17 86.5 110t28.5 205q0 100 -49 100q-57 0 -117.5 -95.5t-80.5 -206.5l-21 -114h-78z" />
    <glyph glyph-name="Itilde" unicode="&#x128;" horiz-adv-x="363" 
d="M284 578l-83 -467q-7 -40 6.5 -62t34.5 -25.5t38.5 -7t16.5 -11.5l-1 -5h-297l1 5q1 7 16.5 11t35 7.5t39 26t26.5 62.5l82 465q4 23 -1 39t-15 23t-22.5 11.5t-23.5 5.5t-18 4t-6 8l1 6h287l-1 -6q-1 -8 -27 -11t-54 -20t-35 -59zM424 841l7 -3q-13 -41 -39 -67t-61 -26
q-20 0 -66 15.5t-65 15.5q-38 0 -61 -42l-9 3q14 36 39 64.5t60 28.5q19 0 65 -17t69 -17q36 0 61 45z" />
    <glyph glyph-name="itilde" unicode="&#x129;" horiz-adv-x="277" 
d="M324 639l7 -3q-13 -41 -39 -67t-61 -26q-20 0 -66 15.5t-65 15.5q-38 0 -61 -42l-9 3q14 36 39 64.5t60 28.5q19 0 65 -17t69 -17q36 0 61 45zM106 -11q-22 0 -32 9.5t-10 33.5q0 10 3 24l6 34q11 63 34 177.5t31 154.5q-19 -9 -51 -35t-50 -47q-1 1 -4 4.5t-4 4.5
q89 102 129 102q50 0 50 -46q0 -11 -12.5 -77.5t-34 -171.5t-27.5 -136q52 30 100 75l7 -8q-39 -41 -78 -69.5t-57 -28.5z" />
    <glyph glyph-name="Imacron" unicode="&#x12a;" horiz-adv-x="363" 
d="M284 578l-83 -467q-7 -40 6.5 -62t34.5 -25.5t38.5 -7t16.5 -11.5l-1 -5h-297l1 5q1 7 16.5 11t35 7.5t39 26t26.5 62.5l82 465q4 23 -1 39t-15 23t-22.5 11.5t-23.5 5.5t-18 4t-6 8l1 6h287l-1 -6q-1 -8 -27 -11t-54 -20t-35 -59zM412 817l-15 -57q-103 10 -263 0l10 42
q56 9 268 15z" />
    <glyph glyph-name="imacron" unicode="&#x12b;" horiz-adv-x="277" 
d="M307 614l-13 -55q-99 9 -253 0l10 40q58 9 256 15zM106 -11q-22 0 -32 9.5t-10 33.5q0 10 3 24l6 34q11 63 34 177.5t31 154.5q-19 -9 -51 -35t-50 -47q-1 1 -4 4.5t-4 4.5q89 102 129 102q50 0 50 -46q0 -11 -12.5 -77.5t-34 -171.5t-27.5 -136q52 30 100 75l7 -8
q-39 -41 -78 -69.5t-57 -28.5z" />
    <glyph glyph-name="Ibreve" unicode="&#x12c;" horiz-adv-x="367" 
d="M284 578l-83 -467q-7 -40 6.5 -62t34.5 -25.5t38.5 -7t16.5 -11.5l-1 -5h-297l1 5q1 7 16.5 11t35 7.5t39 26t26.5 62.5l82 465q4 23 -1 39t-15 23t-22.5 11.5t-23.5 5.5t-18 4t-6 8l1 6h287l-1 -6q-1 -8 -27 -11t-54 -20t-35 -59zM262 727q-52 0 -82 36t-29 102l11 3
q29 -87 109 -87q82 0 146 88l10 -3q-29 -73 -75 -106t-90 -33z" />
    <glyph glyph-name="ibreve" unicode="&#x12d;" horiz-adv-x="277" 
d="M177 516q-54 0 -83.5 38t-24.5 105l13 4q9 -47 37 -70t64 -23q77 0 143 87l11 -3q-56 -138 -160 -138zM106 -11q-22 0 -32 9.5t-10 33.5q0 10 3 24l6 34q11 63 34 177.5t31 154.5q-19 -9 -51 -35t-50 -47q-1 1 -4 4.5t-4 4.5q89 102 129 102q50 0 50 -46
q0 -11 -12.5 -77.5t-34 -171.5t-27.5 -136q52 30 100 75l7 -8q-39 -41 -78 -69.5t-57 -28.5z" />
    <glyph glyph-name="Iogonek" unicode="&#x12e;" horiz-adv-x="363" 
d="M284 578l-83 -467q-7 -40 6.5 -62t34.5 -25.5t38.5 -7t16.5 -11.5l-1 -5h-131q-40 -32 -63.5 -72.5t-23.5 -68.5t21 -43t57 -15q28 0 60 8l1 -11q-61 -28 -115 -28q-87 0 -87 64q0 35 32.5 80t100.5 86h-149l1 5q1 7 16.5 11t35 7.5t39 26t26.5 62.5l82 465q4 23 -1 39
t-15 23t-22.5 11.5t-23.5 5.5t-18 4t-6 8l1 6h287l-1 -6q-1 -8 -27 -11t-54 -20t-35 -59z" />
    <glyph glyph-name="iogonek" unicode="&#x12f;" horiz-adv-x="277" 
d="M241 87q-32 -34 -67.5 -60.5t-55.5 -33.5l-12 -4q-35 -30 -56 -68t-21 -64q0 -28 21 -43t56 -15q29 0 61 8q0 -8 1 -11q-61 -28 -115 -28q-87 0 -87 64q0 33 30 76.5t93 82.5q-23 6 -25 32q0 18 4 39l70 360q-38 -21 -101 -82l-8 8q88 102 130 102q48 0 48 -49
q0 -17 -5 -45q-7 -36 -31 -153.5t-37 -182.5q34 20 100 75zM155 612q0 24 17.5 40.5t41.5 16.5q18 0 30 -12.5t12 -30.5q0 -24 -17.5 -42t-39.5 -18q-19 0 -31.5 13t-12.5 33z" />
    <glyph glyph-name="Idotaccent" unicode="&#x130;" horiz-adv-x="363" 
d="M284 578l-83 -467q-7 -40 6.5 -62t34.5 -25.5t38.5 -7t16.5 -11.5l-1 -5h-297l1 5q1 7 16.5 11t35 7.5t39 26t26.5 62.5l82 465q4 23 -1 39t-15 23t-22.5 11.5t-23.5 5.5t-18 4t-6 8l1 6h287l-1 -6q-1 -8 -27 -11t-54 -20t-35 -59zM284 842q18 0 29 -13t11 -31
q0 -26 -19 -44.5t-41 -18.5q-17 0 -28.5 12t-11.5 31q0 24 18 44t42 20z" />
    <glyph glyph-name="dotlessi" unicode="&#x131;" horiz-adv-x="277" 
d="M106 -11q-22 0 -32 9.5t-10 33.5q0 10 3 24l6 34q11 63 34 177.5t31 154.5q-19 -9 -51 -35t-50 -47q-1 1 -4 4.5t-4 4.5q89 102 129 102q50 0 50 -46q0 -11 -12.5 -77.5t-34 -171.5t-27.5 -136q52 30 100 75l7 -8q-39 -41 -78 -69.5t-57 -28.5z" />
    <glyph glyph-name="IJ" unicode="&#x132;" horiz-adv-x="728" 
d="M284 578l-83 -467q-7 -40 6.5 -62t34.5 -25.5t38.5 -7t16.5 -11.5l-1 -5h-297l1 5q1 7 16.5 11t35 7.5t39 26t26.5 62.5l82 465q4 23 -1 39t-15 23t-22.5 11.5t-23.5 5.5t-18 4t-6 8l1 6h287l-1 -6q-1 -8 -27 -11t-54 -20t-35 -59zM457 346l3 13h101q22 102 57 165.5
t90 114.5l-1 2q-62 -44 -124 -44q-45 0 -145 26q-14 -40 -27 -97l-11 1q10 55 19 86.5t27 56.5t44 25q37 0 95 -26t88 -26q37 0 86 51l7 -7q-49 -46 -71.5 -109.5t-49.5 -218.5h101l-3 -13h-100q-27 -151 -56 -253.5t-48.5 -141.5t-44.5 -72q-62 -80 -144 -80
q-35 0 -57 17.5t-22 43.5q0 24 16.5 38.5t38.5 14.5q34 0 52.5 -22t18.5 -55q0 -11 -1 -16q64 24 78 95l84 431h-101z" />
    <glyph glyph-name="ij" unicode="&#x133;" horiz-adv-x="490" 
d="M106 -11q-22 0 -32 9.5t-10 33.5q0 9 4 31l70 359q-38 -21 -101 -82l-8 8q88 102 130 102q48 0 48 -51q0 -18 -5 -43q-7 -36 -31 -153.5t-37 -182.5q34 20 100 75l7 -8q-39 -41 -78 -69.5t-57 -28.5zM155 612q0 24 17.5 40.5t41.5 16.5q18 0 30 -12.5t12 -30.5
q0 -24 -17.5 -42t-39.5 -18q-19 0 -31.5 13t-12.5 33zM437 356q-20 -104 -62 -312q-9 -44 -23 -86t-36 -85t-54.5 -69t-71.5 -26q-24 0 -43 11.5t-19 31.5t13 32t32 12q20 0 36.5 -18t16.5 -49q30 13 40 65l108 559q-38 -21 -101 -82l-8 8q88 102 130 102q48 0 48 -51
q0 -11 -6 -43zM392 612q0 23 17 40t41 17q18 0 30 -12.5t12 -30.5q0 -24 -17 -42t-39 -18q-20 0 -32 13t-12 33z" />
    <glyph glyph-name="Jcircumflex" unicode="&#x134;" horiz-adv-x="351" 
d="M95 347l3 13h101q22 102 57 165.5t90 114.5l-1 2q-62 -44 -124 -44q-45 0 -145 26q-14 -40 -27 -97l-11 1q10 55 19 86.5t27 56.5t44 25q37 0 95 -26t88 -26q37 0 86 51l7 -7q-49 -46 -71.5 -109.5t-49.5 -218.5h101l-3 -13h-100q-27 -151 -56 -253.5t-48.5 -141.5
t-44.5 -72q-62 -80 -144 -80q-35 0 -57 17.5t-22 43.5q0 24 16.5 38.5t38.5 14.5q34 0 52.5 -22t18.5 -55q0 -11 -1 -16q64 24 78 95l84 431h-101zM400 735l-124 77l-151 -77q-1 1 -7 10l125 107q6 5 17 14t17.5 13.5t10.5 4.5q7 0 15 -8l21 -25q58 -70 86 -105z" />
    <glyph glyph-name="jcircumflex" unicode="&#x135;" horiz-adv-x="234" 
d="M194 356l-62 -312q-9 -44 -23 -86t-36 -85t-55 -69t-71 -26q-24 0 -43 11.5t-19 31.5t13 32t32 12q20 0 36 -18.5t17 -50.5q11 4 19 14.5t14 29.5t9 30.5t7.5 37.5t5.5 32l93 482q-38 -21 -101 -82l-8 8q88 102 130 102q48 0 48 -49q0 -13 -6 -45zM303 503l-117 94
l-152 -94l-8 10l142 137q21 20 30 20q10 0 22 -19l94 -138z" />
    <glyph glyph-name="Kcommaaccent" unicode="&#x136;" horiz-adv-x="670" 
d="M299 341h-67l-41 -230q-3 -15 -3 -26q0 -28 14.5 -44t31.5 -19t31.5 -6.5t14.5 -9.5v-4l-1 -2h-288l1 5q2 9 17.5 12.5t34 8t38 30.5t28.5 74l79 447q2 14 2 20q0 25 -13.5 38.5t-29 16t-29 6t-13.5 10.5v5h284l-1 -5q-2 -8 -18.5 -12t-35.5 -7t-38 -21t-24 -50
q-26 -148 -38 -221h83l201 200q42 41 42 65q0 17 -16 24.5t-32 10.5t-16 10v7h240q0 -5 -1 -7q-2 -8 -17 -12t-37 -7.5t-62 -28t-84 -67.5l-165 -162l158 -295q18 -34 41.5 -52.5t41 -21t29.5 -6t12 -10.5v-5h-276v6q0 8 17.5 11t35 10.5t17.5 25.5q0 13 -8 29zM313 -44
q42 0 42 -44q0 -34 -34 -83.5t-84 -81.5l-4 9q29 23 54.5 55.5t34.5 63.5q-12 -9 -26 -9q-15 0 -26 10t-11 26q0 22 15.5 38t38.5 16z" />
    <glyph glyph-name="kcommaaccent" unicode="&#x137;" horiz-adv-x="444" 
d="M134 241l3 -1q35 98 92.5 153.5t119.5 55.5q31 0 51 -21t20 -53q0 -88 -176 -151q10 -63 38 -117.5t56 -83.5q37 28 80 70l8 -8q-79 -96 -123 -96q-48 0 -84 70t-44 150q92 36 132.5 73t40.5 80q0 20 -11 32.5t-31 12.5q-62 0 -116 -86t-80 -224l-18 -97h-78l121 626
q3 12 3 21q0 19 -11 29.5t-24.5 12.5t-24.5 4.5t-11 7.5q0 4 1 9q100 11 157 19l3 -3l-51 -270q-4 -18 -11 -59.5t-14.5 -79.5t-17.5 -76zM164 -44q42 0 42 -44q0 -34 -34 -83.5t-84 -81.5l-4 9q29 23 54.5 55.5t34.5 63.5q-12 -9 -26 -9q-15 0 -26 10t-11 26q0 22 15.5 38
t38.5 16z" />
    <glyph glyph-name="kgreenlandic" unicode="&#x138;" horiz-adv-x="494" 
d="M161 450q48 0 48 -50q0 -28 -19.5 -115.5t-36.5 -141.5q1 0 3 1q39 136 118.5 220.5t151.5 84.5q24 0 42.5 -12t18.5 -34q0 -21 -12.5 -32t-31.5 -11q-23 0 -37.5 15.5t-14.5 43.5q0 1 0.5 4.5t0.5 5.5q-78 -26 -141 -114q23 -81 58.5 -164t67.5 -131q16 11 44 36t38 37
l7 -8q-79 -96 -126 -96q-35 0 -74 80.5t-61 168.5q-43 -90 -66 -207l-6 -31h-74q73 376 81 422q-17 -9 -50.5 -36t-50.5 -46l-7 8q86 102 129 102z" />
    <glyph glyph-name="Lacute" unicode="&#x139;" horiz-adv-x="603" 
d="M246 15h48q73 0 121.5 21.5t85 64t85.5 128.5q8 14 15 13l5 -1l-91 -259q-59 18 -202 18h-321l1 6q1 7 17 10.5t35.5 7.5t40 32t29.5 79l76 430q4 24 4 29q0 25 -13.5 39t-30 17t-30 6t-13.5 9q0 2 2 8h286v-3l-1 -2q-3 -9 -19.5 -12.5t-35.5 -6t-37.5 -20.5t-24.5 -52
l-86 -484q-4 -18 -4 -34q0 -44 58 -44zM187 739l-2 10q49 21 84.5 52t54 49.5t36.5 18.5q13 0 21.5 -10.5t8.5 -22.5q0 -14 -19 -32.5t-68 -38.5t-116 -26z" />
    <glyph glyph-name="lacute" unicode="&#x13a;" horiz-adv-x="240" 
d="M245 726q-54 -281 -137 -706q41 24 100 75q1 -1 2 -2.5t3 -3t3 -2.5q-39 -41 -78.5 -69.5t-56.5 -28.5q-42 0 -42 38q0 6 7 48l98 507q10 54 10 67q0 25 -17.5 34.5t-35 11t-17.5 7.5q0 4 1 8q111 13 157 19zM109 773l-2 10q49 21 84.5 52t54 49.5t36.5 18.5
q13 0 21.5 -10.5t8.5 -22.5q0 -14 -19 -32.5t-68 -38.5t-116 -26z" />
    <glyph glyph-name="Lcommaaccent" unicode="&#x13b;" horiz-adv-x="603" 
d="M246 15h48q73 0 121.5 21.5t85 64t85.5 128.5q8 14 15 13l5 -1l-91 -259q-59 18 -202 18h-321l1 6q1 7 17 10.5t35.5 7.5t40 32t29.5 79l76 430q4 24 4 29q0 25 -13.5 39t-30 17t-30 6t-13.5 9q0 2 2 8h286v-3l-1 -2q-3 -9 -19.5 -12.5t-35.5 -6t-37.5 -20.5t-24.5 -52
l-86 -484q-4 -18 -4 -34q0 -44 58 -44zM279 -44q42 0 42 -44q0 -34 -34 -83.5t-84 -81.5l-4 9q29 23 54.5 55.5t34.5 63.5q-12 -9 -26 -9q-15 0 -26 10t-11 26q0 22 15.5 38t38.5 16z" />
    <glyph glyph-name="lcommaaccent" unicode="&#x13c;" horiz-adv-x="240" 
d="M245 726q-54 -281 -137 -706q41 24 100 75q1 -1 2 -2.5t3 -3t3 -2.5q-39 -41 -78.5 -69.5t-56.5 -28.5q-42 0 -42 38q0 6 7 48l98 507q10 54 10 67q0 25 -17.5 34.5t-35 11t-17.5 7.5q0 4 1 8q111 13 157 19zM60 -44q42 0 42 -44q0 -34 -34 -83.5t-84 -81.5l-4 9
q29 23 54.5 55.5t34.5 63.5q-12 -9 -26 -9q-15 0 -26 10t-11 26q0 22 15.5 38t38.5 16z" />
    <glyph glyph-name="Lcaron" unicode="&#x13d;" horiz-adv-x="603" 
d="M246 15h48q73 0 121.5 21.5t85 64t85.5 128.5q8 14 15 13l5 -1l-91 -259q-59 18 -202 18h-321l1 6q1 7 17 10.5t35.5 7.5t40 32t29.5 79l76 430q4 24 4 29q0 25 -13.5 39t-30 17t-30 6t-13.5 9q0 2 2 8h286v-3l-1 -2q-3 -9 -19.5 -12.5t-35.5 -6t-37.5 -20.5t-24.5 -52
l-86 -484q-4 -18 -4 -34q0 -44 58 -44zM521 689q42 0 42 -44q0 -34 -34 -83.5t-84 -81.5l-4 9q29 23 54.5 55.5t34.5 63.5q-12 -9 -26 -9q-15 0 -26 10t-11 26q0 22 15.5 38t38.5 16z" />
    <glyph glyph-name="lcaron" unicode="&#x13e;" horiz-adv-x="250" 
d="M245 726q-54 -281 -137 -706q41 24 100 75q1 -1 2 -2.5t3 -3t3 -2.5q-39 -41 -78.5 -69.5t-56.5 -28.5q-42 0 -42 38q0 6 7 48l98 507q10 54 10 67q0 25 -17.5 34.5t-35 11t-17.5 7.5q0 4 1 8q111 13 157 19zM339 739q42 0 42 -44q0 -34 -34 -83.5t-84 -81.5l-4 9
q29 23 54.5 55.5t34.5 63.5q-12 -9 -26 -9q-15 0 -26 10t-11 26q0 22 15.5 38t38.5 16z" />
    <glyph glyph-name="Ldot" unicode="&#x13f;" horiz-adv-x="603" 
d="M246 15h48q73 0 121.5 21.5t85 64t85.5 128.5q8 14 15 13l5 -1l-91 -259q-59 18 -202 18h-321l1 6q1 7 17 10.5t35.5 7.5t40 32t29.5 79l76 430q4 24 4 29q0 25 -13.5 39t-30 17t-30 6t-13.5 9q0 2 2 8h286v-3l-1 -2q-3 -9 -19.5 -12.5t-35.5 -6t-37.5 -20.5t-24.5 -52
l-86 -484q-4 -18 -4 -34q0 -44 58 -44zM440 406q18 0 29 -13t11 -31q0 -26 -19 -44.5t-41 -18.5q-17 0 -28.5 12t-11.5 31q0 24 18 44t42 20z" />
    <glyph glyph-name="ldot" unicode="&#x140;" horiz-adv-x="309" 
d="M245 726q-54 -281 -137 -706q41 24 100 75q1 -1 2 -2.5t3 -3t3 -2.5q-39 -41 -78.5 -69.5t-56.5 -28.5q-42 0 -42 38q0 6 7 48l98 507q10 54 10 67q0 25 -17.5 34.5t-35 11t-17.5 7.5q0 4 1 8q111 13 157 19zM288 408q18 0 29 -13t11 -31q0 -26 -19 -44.5t-41 -18.5
q-17 0 -28.5 12t-11.5 31q0 24 18 44t42 20z" />
    <glyph glyph-name="Lslash" unicode="&#x141;" horiz-adv-x="603" 
d="M246 15h48q73 0 121.5 21.5t85 64t85.5 128.5q8 14 15 13l5 -1l-91 -259q-59 18 -202 18h-321l1 6q1 7 17 10.5t35.5 7.5t40 32t29.5 79l28 161q-22 -12 -65 -36t-65 -36q-1 2 -3 6.5t-2 6.5l138 76l45 252q4 24 4 29q0 25 -13.5 39t-30 17t-30 6t-13.5 9q0 2 2 8h286v-3
l-1 -2q-3 -9 -19.5 -12.5t-35.5 -6t-37.5 -20.5t-24.5 -52l-38 -212l156 86q4 -7 5 -13l-164 -90l-45 -255q-4 -18 -4 -34q0 -44 58 -44z" />
    <glyph glyph-name="lslash" unicode="&#x142;" horiz-adv-x="240" 
d="M245 726l-69 -353l92 51l4 -15l-99 -54q-24 -131 -65 -335q41 24 100 75q1 -1 2 -2.5t3 -3t3 -2.5q-39 -41 -78.5 -69.5t-56.5 -28.5q-21 0 -31.5 9.5t-10.5 32.5q0 15 4 32l47 247q-30 -17 -90 -49q0 3 -1 7t-1 7q17 10 50 28t46 25l59 304q1 5 1 14q0 25 -17.5 35.5
t-35 12t-17.5 7.5q0 4 1 9q111 13 157 19z" />
    <glyph glyph-name="Nacute" unicode="&#x143;" horiz-adv-x="706" 
d="M272 674q42 -84 138 -259.5t141 -265.5l67 382q7 45 0.5 69t-22 35.5t-31.5 14t-27 6t-10 10.5l1 7h234l-1 -6q-1 -8 -20 -12t-44.5 -16.5t-40.5 -39.5q-15 -28 -24 -79l-93 -527h-15l-323 608h-1l-81 -461q-7 -45 -0.5 -68.5t21.5 -35t30.5 -14.5t26.5 -6.5t10 -10.5v-5
h-230v5q0 6 7 9t22.5 6.5t25.5 6.5q28 10 45.5 38.5t28.5 88.5l73 419q5 28 -2.5 45.5t-21.5 23.5t-28.5 9t-24.5 6t-9 9l1 8h177zM368 739l-2 10q49 21 84.5 52t54 49.5t36.5 18.5q13 0 21.5 -10.5t8.5 -22.5q0 -14 -19 -32.5t-68 -38.5t-116 -26z" />
    <glyph glyph-name="nacute" unicode="&#x144;" horiz-adv-x="518" 
d="M157 451q50 0 50 -48q0 -22 -15.5 -97.5t-30.5 -132.5h2q56 148 114 212t101 64q75 0 75 -78q0 -27 -6 -55l-65 -298q17 8 50.5 33.5t48.5 41.5l8 -8q-91 -96 -131 -96q-46 0 -46 43q0 7 4 27l58 256q8 38 8 57q0 44 -35 44q-30 0 -73.5 -57.5t-80.5 -143t-52 -162.5
l-10 -53h-74q54 282 80 423q-23 -13 -54 -38.5t-47 -44.5l-8 8q87 103 129 103zM224 513l-4 10q38 25 67 54.5t41.5 49t27.5 33t31 13.5q15 0 22 -10t5 -23q-3 -25 -54.5 -64t-135.5 -63z" />
    <glyph glyph-name="Ncommaaccent" unicode="&#x145;" horiz-adv-x="706" 
d="M272 674q42 -84 138 -259.5t141 -265.5l67 382q7 45 0.5 69t-22 35.5t-31.5 14t-27 6t-10 10.5l1 7h234l-1 -6q-1 -8 -20 -12t-44.5 -16.5t-40.5 -39.5q-15 -28 -24 -79l-93 -527h-15l-323 608h-1l-81 -461q-7 -45 -0.5 -68.5t21.5 -35t30.5 -14.5t26.5 -6.5t10 -10.5v-5
h-230v5q0 6 7 9t22.5 6.5t25.5 6.5q28 10 45.5 38.5t28.5 88.5l73 419q5 28 -2.5 45.5t-21.5 23.5t-28.5 9t-24.5 6t-9 9l1 8h177zM315 -24q42 0 42 -44q0 -34 -34 -83.5t-84 -81.5l-4 9q29 23 54.5 55.5t34.5 63.5q-12 -9 -26 -9q-15 0 -26 10t-11 26q0 22 15.5 38t38.5 16
z" />
    <glyph glyph-name="ncommaaccent" unicode="&#x146;" horiz-adv-x="518" 
d="M157 451q50 0 50 -48q0 -22 -15.5 -97.5t-30.5 -132.5h2q56 148 114 212t101 64q75 0 75 -78q0 -27 -6 -55l-65 -298q17 8 50.5 33.5t48.5 41.5l8 -8q-91 -96 -131 -96q-46 0 -46 43q0 7 4 27l58 256q8 38 8 57q0 44 -35 44q-30 0 -73.5 -57.5t-80.5 -143t-52 -162.5
l-10 -53h-74q54 282 80 423q-23 -13 -54 -38.5t-47 -44.5l-8 8q87 103 129 103zM222 -44q42 0 42 -44q0 -34 -34 -83.5t-84 -81.5l-4 9q29 23 54.5 55.5t34.5 63.5q-12 -9 -26 -9q-15 0 -26 10t-11 26q0 22 15.5 38t38.5 16z" />
    <glyph glyph-name="Ncaron" unicode="&#x147;" horiz-adv-x="706" 
d="M272 674q42 -84 138 -259.5t141 -265.5l67 382q7 45 0.5 69t-22 35.5t-31.5 14t-27 6t-10 10.5l1 7h234l-1 -6q-1 -8 -20 -12t-44.5 -16.5t-40.5 -39.5q-15 -28 -24 -79l-93 -527h-15l-323 608h-1l-81 -461q-7 -45 -0.5 -68.5t21.5 -35t30.5 -14.5t26.5 -6.5t10 -10.5v-5
h-230v5q0 6 7 9t22.5 6.5t25.5 6.5q28 10 45.5 38.5t28.5 88.5l73 419q5 28 -2.5 45.5t-21.5 23.5t-28.5 9t-24.5 6t-9 9l1 8h177zM450 801l152 78q6 -9 7 -10l-155 -133q-9 -8 -17 -8q-7 0 -14 9l-107 132q2 1 3.5 3t4 4.5l3.5 3.5z" />
    <glyph glyph-name="ncaron" unicode="&#x148;" horiz-adv-x="518" 
d="M157 451q50 0 50 -48q0 -22 -15.5 -97.5t-30.5 -132.5h2q56 148 114 212t101 64q75 0 75 -78q0 -27 -6 -55l-65 -298q17 8 50.5 33.5t48.5 41.5l8 -8q-91 -96 -131 -96q-46 0 -46 43q0 7 4 27l58 256q8 38 8 57q0 44 -35 44q-30 0 -73.5 -57.5t-80.5 -143t-52 -162.5
l-10 -53h-74q54 282 80 423q-23 -13 -54 -38.5t-47 -44.5l-8 8q87 103 129 103zM289 574l151 95l6 -11l-142 -137q-20 -19 -28 -19t-23 20l-94 137l11 10z" />
    <glyph glyph-name="napostrophe" unicode="&#x149;" horiz-adv-x="518" 
d="M157 451q50 0 50 -48q0 -22 -15.5 -97.5t-30.5 -132.5h2q56 148 114 212t101 64q75 0 75 -78q0 -27 -6 -55l-65 -298q17 8 50.5 33.5t48.5 41.5l8 -8q-91 -96 -131 -96q-46 0 -46 43q0 7 4 27l58 256q8 38 8 57q0 44 -35 44q-30 0 -73.5 -57.5t-80.5 -143t-52 -162.5
l-10 -53h-74q54 282 80 423q-23 -13 -54 -38.5t-47 -44.5l-8 8q87 103 129 103zM85 664q42 0 42 -44q0 -34 -34 -83.5t-84 -81.5l-4 9q29 23 54.5 55.5t34.5 63.5q-12 -9 -26 -9q-15 0 -26 10t-11 26q0 22 15.5 38t38.5 16z" />
    <glyph glyph-name="Eng" unicode="&#x14a;" horiz-adv-x="707" 
d="M272 674q42 -84 138 -259.5t141 -265.5l67 382q7 45 0.5 69t-22 35.5t-31.5 14t-27 6t-10 10.5l1 7h234l-1 -6q-2 -10 -21 -14t-44 -15.5t-40 -38.5q-15 -28 -24 -79l-92 -522q-41 -232 -179 -232q-24 0 -43.5 13t-19.5 38q0 21 15 35t37 14q27 0 43 -22t18 -52
q75 30 105 168l7 34l-322 607h-1l-81 -461q-7 -45 -0.5 -68.5t21.5 -35t30.5 -14.5t26.5 -6.5t10 -10.5v-5h-230v5q0 6 7 9t22.5 6.5t25.5 6.5q28 10 45.5 38.5t28.5 88.5l73 419q5 28 -2.5 45.5t-21.5 23.5t-28.5 9t-24.5 6t-9 9l1 8h177z" />
    <glyph glyph-name="eng" unicode="&#x14b;" horiz-adv-x="497" 
d="M382 449q74 0 74 -81q0 -23 -5 -53q-38 -213 -50 -267q-23 -109 -55 -158q-30 -46 -77.5 -75t-96.5 -29q-22 0 -39 12.5t-17 34.5q0 19 14 32t34 13q26 0 40.5 -19.5t16.5 -51.5q22 8 37.5 24.5t28.5 56.5q22 67 44 173q14 69 33 182t19 127q0 44 -33 44q-30 0 -74 -56.5
t-82 -142t-53 -162.5l-10 -53h-74q26 141 80 423q-20 -11 -51.5 -37t-50.5 -46l-7 8q87 103 129 103q49 0 49 -48q0 -23 -15 -100t-30 -130h3q55 148 114.5 212t103.5 64z" />
    <glyph glyph-name="Omacron" unicode="&#x14c;" horiz-adv-x="694" 
d="M426 682q119 0 185 -76.5t66 -196.5q0 -110 -50 -207t-136.5 -155t-186.5 -58q-121 0 -185 74t-64 192q0 110 49 208t135 158.5t187 60.5zM423 667q-71 0 -127 -46t-87.5 -117t-47.5 -146.5t-16 -144.5q0 -209 165 -209q71 0 126.5 43t87 112t47.5 144t16 149
q0 215 -164 215zM590 817l-15 -57q-103 10 -263 0l10 42q56 9 268 15z" />
    <glyph glyph-name="omacron" unicode="&#x14d;" horiz-adv-x="479" 
d="M278 449q78 0 122.5 -48.5t44.5 -124.5q0 -109 -76.5 -198t-180.5 -89q-78 0 -116 48t-38 126q0 111 71 198.5t173 87.5zM276 434q-50 0 -88.5 -47.5t-57 -115.5t-18.5 -141q0 -127 79 -127q56 0 98 51.5t60 117.5t18 130q0 132 -91 132zM434 614l-13 -55q-99 9 -253 0
l10 40q58 9 256 15z" />
    <glyph glyph-name="Obreve" unicode="&#x14e;" horiz-adv-x="694" 
d="M426 682q119 0 185 -76.5t66 -196.5q0 -110 -50 -207t-136.5 -155t-186.5 -58q-121 0 -185 74t-64 192q0 110 49 208t135 158.5t187 60.5zM423 667q-71 0 -127 -46t-87.5 -117t-47.5 -146.5t-16 -144.5q0 -209 165 -209q71 0 126.5 43t87 112t47.5 144t16 149
q0 215 -164 215zM460 727q-52 0 -82 36t-29 102l11 3q29 -87 109 -87q82 0 146 88l10 -3q-29 -73 -75 -106t-90 -33z" />
    <glyph glyph-name="obreve" unicode="&#x14f;" horiz-adv-x="479" 
d="M278 449q78 0 122.5 -48.5t44.5 -124.5q0 -109 -76.5 -198t-180.5 -89q-78 0 -116 48t-38 126q0 111 71 198.5t173 87.5zM276 434q-50 0 -88.5 -47.5t-57 -115.5t-18.5 -141q0 -127 79 -127q56 0 98 51.5t60 117.5t18 130q0 132 -91 132zM309 510q-54 0 -83.5 38
t-24.5 105l13 4q9 -47 37 -70t64 -23q77 0 143 87l11 -3q-56 -138 -160 -138z" />
    <glyph glyph-name="Ohungarumlaut" unicode="&#x150;" horiz-adv-x="694" 
d="M426 682q119 0 185 -76.5t66 -196.5q0 -110 -50 -207t-136.5 -155t-186.5 -58q-121 0 -185 74t-64 192q0 110 49 208t135 158.5t187 60.5zM423 667q-71 0 -127 -46t-87.5 -117t-47.5 -146.5t-16 -144.5q0 -209 165 -209q71 0 126.5 43t87 112t47.5 144t16 149
q0 215 -164 215zM312 737q-3 3 -3 10q49 21 88 52.5t60.5 50.5t36.5 19q13 0 20 -9.5t7 -20.5q0 -13 -21 -33.5t-71.5 -41.5t-116.5 -27zM461 737q-2 8 -2 11q49 21 88 52t60.5 50t36.5 19q13 0 20 -9.5t7 -20.5q0 -13 -21 -33.5t-72 -41.5t-117 -27z" />
    <glyph glyph-name="ohungarumlaut" unicode="&#x151;" horiz-adv-x="479" 
d="M278 449q78 0 122.5 -48.5t44.5 -124.5q0 -109 -76.5 -198t-180.5 -89q-78 0 -116 48t-38 126q0 111 71 198.5t173 87.5zM276 434q-50 0 -88.5 -47.5t-57 -115.5t-18.5 -141q0 -127 79 -127q56 0 98 51.5t60 117.5t18 130q0 132 -91 132zM187 511l-3 11q38 25 68.5 54.5
t44 49.5t28.5 33.5t30 13.5q13 0 19.5 -8t6.5 -19q0 -24 -52 -66.5t-142 -68.5zM318 511l-3 11q39 25 69 54.5t44 49.5t28.5 33.5t29.5 13.5q26 0 26 -28q0 -24 -52.5 -66.5t-141.5 -67.5z" />
    <glyph glyph-name="OE" unicode="&#x152;" horiz-adv-x="965" 
d="M591 15h72q95 0 153.5 47t119.5 163q7 14 15 14l3 -1h4q-13 -38 -44 -124t-46 -132q-62 18 -203 18h-278q-49 -11 -84 -11q-121 0 -185 73.5t-64 192.5q0 174 108.5 300.5t262.5 126.5q36 0 71 -8h247q144 0 210 27v-32l-14 -189h-5q-9 0 -10 12q-14 99 -46.5 132.5
t-112.5 33.5h-128l-53 -297h96q40 0 67.5 20t37.5 44.5t18 44.5t14 20h5q-8 -47 -25 -141t-25 -141h-4q-8 0 -9.5 21.5t-1.5 47.5t-18.5 47.5t-57.5 21.5h-100l-42 -251q0 -2 -1.5 -10t-2.5 -14.5t-1 -9.5q0 -22 12.5 -34t44.5 -12zM457 116l77 443q0 1 2 13.5t2 15.5
q0 78 -116 78q-70 0 -126 -46t-87.5 -117t-47.5 -146.5t-16 -144.5q0 -209 164 -209q128 0 148 113z" />
    <glyph glyph-name="oe" unicode="&#x153;" horiz-adv-x="736" 
d="M498 -11q-48 0 -82.5 25.5t-47.5 69.5q-77 -95 -181 -95q-78 0 -115.5 48t-37.5 126q0 111 71 198.5t173 87.5q103 0 146 -96q30 43 77.5 69.5t105.5 26.5q51 0 80 -24.5t29 -68.5q0 -63 -79.5 -105.5t-201.5 -59.5q-3 -18 -3 -36q0 -65 26.5 -99.5t73.5 -34.5
q77 0 150 79l8 -7q-87 -104 -192 -104zM276 434q-50 0 -88.5 -47.5t-57 -116t-18.5 -141.5q0 -126 79 -126q56 0 98 51t60 117t18 130q0 133 -91 133zM437 207q98 9 149.5 57t51.5 109q0 28 -13.5 43.5t-36.5 15.5q-54 0 -94.5 -60.5t-56.5 -164.5z" />
    <glyph glyph-name="Racute" unicode="&#x154;" horiz-adv-x="604" 
d="M287 658l-57 -322h57q92 0 149.5 53.5t57.5 138.5q0 64 -41.5 97t-105.5 33h-60zM228 321l-38 -210q-3 -9 -3 -26q0 -30 16 -46t35.5 -18t35 -5.5t14.5 -10.5l-1 -5h-297l1 5q1 7 16.5 11t35 7.5t39 26t26.5 62.5l82 464q2 14 2 19q0 21 -9.5 34t-22.5 17.5t-26.5 7
t-22 5t-7.5 8.5l1 6h263q103 0 159 -39t56 -110q0 -84 -75 -143.5t-207 -59.5h-17q28 -46 104 -48l87 -173q17 -34 39.5 -53.5t39.5 -23.5t29.5 -7t12.5 -9v-7h-166l-163 321h-39zM286 739l-2 10q49 21 84.5 52t54 49.5t36.5 18.5q13 0 21.5 -10.5t8.5 -22.5
q0 -14 -19 -32.5t-68 -38.5t-116 -26z" />
    <glyph glyph-name="racute" unicode="&#x155;" horiz-adv-x="382" 
d="M315 419q-44 -24 -99.5 -143t-79.5 -241l-7 -35h-73l81 422q-18 -9 -51 -36t-50 -46l-8 8q88 102 130 102q47 0 47 -51q0 -45 -52 -230h3q54 163 101.5 220.5t97.5 57.5q22 0 39 -12t17 -31q0 -21 -13.5 -32.5t-32.5 -11.5q-24 0 -40 17t-10 42zM190 513l-4 10
q38 25 67 54.5t41.5 49t27.5 33t31 13.5q15 0 22 -10t5 -23q-3 -25 -54.5 -64t-135.5 -63z" />
    <glyph glyph-name="Rcommaaccent" unicode="&#x156;" horiz-adv-x="604" 
d="M287 658l-57 -322h57q92 0 149.5 53.5t57.5 138.5q0 64 -41.5 97t-105.5 33h-60zM228 321l-38 -210q-3 -9 -3 -26q0 -30 16 -46t35.5 -18t35 -5.5t14.5 -10.5l-1 -5h-297l1 5q1 7 16.5 11t35 7.5t39 26t26.5 62.5l82 464q2 14 2 19q0 21 -9.5 34t-22.5 17.5t-26.5 7
t-22 5t-7.5 8.5l1 6h263q103 0 159 -39t56 -110q0 -84 -75 -143.5t-207 -59.5h-17q28 -46 104 -48l87 -173q17 -34 39.5 -53.5t39.5 -23.5t29.5 -7t12.5 -9v-7h-166l-163 321h-39zM318 -38q42 0 42 -44q0 -34 -34 -83.5t-84 -81.5l-4 9q29 23 54.5 55.5t34.5 63.5
q-12 -9 -26 -9q-15 0 -26 10t-11 26q0 22 15.5 38t38.5 16z" />
    <glyph glyph-name="rcommaaccent" unicode="&#x157;" horiz-adv-x="382" 
d="M315 419q-44 -24 -99.5 -143t-79.5 -241l-7 -35h-73l81 422q-18 -9 -51 -36t-50 -46l-8 8q88 102 130 102q47 0 47 -51q0 -45 -52 -230h3q54 163 101.5 220.5t97.5 57.5q22 0 39 -12t17 -31q0 -21 -13.5 -32.5t-32.5 -11.5q-24 0 -40 17t-10 42zM77 -44q42 0 42 -44
q0 -34 -34 -83.5t-84 -81.5l-4 9q29 23 54.5 55.5t34.5 63.5q-12 -9 -26 -9q-15 0 -26 10t-11 26q0 22 15.5 38t38.5 16z" />
    <glyph glyph-name="Rcaron" unicode="&#x158;" horiz-adv-x="604" 
d="M287 658l-57 -322h57q92 0 149.5 53.5t57.5 138.5q0 64 -41.5 97t-105.5 33h-60zM228 321l-38 -210q-3 -9 -3 -26q0 -30 16 -46t35.5 -18t35 -5.5t14.5 -10.5l-1 -5h-297l1 5q1 7 16.5 11t35 7.5t39 26t26.5 62.5l82 464q2 14 2 19q0 21 -9.5 34t-22.5 17.5t-26.5 7
t-22 5t-7.5 8.5l1 6h263q103 0 159 -39t56 -110q0 -84 -75 -143.5t-207 -59.5h-17q28 -46 104 -48l87 -173q17 -34 39.5 -53.5t39.5 -23.5t29.5 -7t12.5 -9v-7h-166l-163 321h-39zM362 801l152 78q6 -9 7 -10l-155 -133q-9 -8 -17 -8q-7 0 -14 9l-107 132q2 1 3.5 3t4 4.5
l3.5 3.5z" />
    <glyph glyph-name="rcaron" unicode="&#x159;" horiz-adv-x="382" 
d="M315 419q-44 -24 -99.5 -143t-79.5 -241l-7 -35h-73l81 422q-18 -9 -51 -36t-50 -46l-8 8q88 102 130 102q47 0 47 -51q0 -45 -52 -230h3q54 163 101.5 220.5t97.5 57.5q22 0 39 -12t17 -31q0 -21 -13.5 -32.5t-32.5 -11.5q-24 0 -40 17t-10 42zM246 574l151 95l6 -11
l-142 -137q-20 -19 -28 -19t-23 20l-94 137l11 10z" />
    <glyph glyph-name="Sacute" unicode="&#x15a;" horiz-adv-x="506" 
d="M350 682q67 0 116 -27.5t49 -73.5q0 -27 -16 -42.5t-35 -15.5q-25 0 -38 17t-13 42q0 44 26 70q-36 16 -90 16q-68 0 -113 -39t-45 -93q0 -36 30.5 -67t74.5 -56.5t88 -53t74.5 -68.5t30.5 -91q0 -70 -44.5 -119.5t-109 -70t-139.5 -20.5q-79 0 -132 29t-53 76
q0 29 16.5 44.5t37.5 15.5q25 0 38.5 -17t13.5 -43q0 -41 -28 -69q40 -23 107 -23q96 0 151 44.5t55 120.5q0 40 -30.5 74.5t-73.5 60t-86 51.5t-73.5 61t-30.5 76q0 92 73 141.5t169 49.5zM266 739l-2 10q49 21 84.5 52t54 49.5t36.5 18.5q13 0 21.5 -10.5t8.5 -22.5
q0 -14 -19 -32.5t-68 -38.5t-116 -26z" />
    <glyph glyph-name="sacute" unicode="&#x15b;" horiz-adv-x="374" 
d="M141 -11q-57 0 -95 22.5t-38 58.5q0 22 12.5 33.5t28.5 11.5q42 0 42 -45q0 -33 -22 -55q24 -13 71 -13q48 0 80 29.5t32 70.5q0 28 -19 51t-46.5 39t-55 33t-46.5 40.5t-19 52.5q0 60 46.5 95t114.5 35q51 0 87.5 -22t36.5 -58q0 -21 -12.5 -32.5t-27.5 -11.5
q-21 0 -32 13t-11 32q0 31 21 54q-25 11 -58 11q-35 0 -65 -21.5t-30 -67.5q0 -23 19.5 -43.5t47 -37t55 -34t47 -43.5t19.5 -58q0 -63 -54 -101.5t-129 -38.5zM164 513l-4 10q38 25 67 54.5t41.5 49t27.5 33t31 13.5q15 0 22 -10t5 -23q-3 -25 -54.5 -64t-135.5 -63z" />
    <glyph glyph-name="Scircumflex" unicode="&#x15c;" horiz-adv-x="506" 
d="M350 682q67 0 116 -27.5t49 -73.5q0 -27 -16 -42.5t-35 -15.5q-25 0 -38 17t-13 42q0 44 26 70q-36 16 -90 16q-68 0 -113 -39t-45 -93q0 -36 30.5 -67t74.5 -56.5t88 -53t74.5 -68.5t30.5 -91q0 -70 -44.5 -119.5t-109 -70t-139.5 -20.5q-79 0 -132 29t-53 76
q0 29 16.5 44.5t37.5 15.5q25 0 38.5 -17t13.5 -43q0 -41 -28 -69q40 -23 107 -23q96 0 151 44.5t55 120.5q0 40 -30.5 74.5t-73.5 60t-86 51.5t-73.5 61t-30.5 76q0 92 73 141.5t169 49.5zM477 733l-124 77l-151 -77q-1 1 -7 10l125 107q6 5 17 14t17.5 13.5t10.5 4.5
q7 0 15 -8l21 -25q58 -70 86 -105z" />
    <glyph glyph-name="scircumflex" unicode="&#x15d;" horiz-adv-x="374" 
d="M141 -11q-57 0 -95 22.5t-38 58.5q0 22 12.5 33.5t28.5 11.5q42 0 42 -45q0 -33 -22 -55q24 -13 71 -13q48 0 80 29.5t32 70.5q0 28 -19 51t-46.5 39t-55 33t-46.5 40.5t-19 52.5q0 60 46.5 95t114.5 35q51 0 87.5 -22t36.5 -58q0 -21 -12.5 -32.5t-27.5 -11.5
q-21 0 -32 13t-11 32q0 31 21 54q-25 11 -58 11q-35 0 -65 -21.5t-30 -67.5q0 -23 19.5 -43.5t47 -37t55 -34t47 -43.5t19.5 -58q0 -63 -54 -101.5t-129 -38.5zM361 503l-117 94l-152 -94l-8 10l142 137q21 20 30 20q10 0 22 -19l94 -138z" />
    <glyph glyph-name="Scedilla" unicode="&#x15e;" horiz-adv-x="520" 
d="M350 682q67 0 116 -27.5t49 -73.5q0 -27 -16 -42.5t-35 -15.5q-25 0 -38 17t-13 42q0 44 26 70q-36 16 -90 16q-68 0 -113 -39t-45 -93q0 -36 30.5 -67t74.5 -56.5t88 -53t74.5 -68.5t30.5 -91q0 -67 -41 -115t-100 -69.5t-131 -24.5l-29 -58q52 0 88.5 -18.5t36.5 -56.5
q0 -42 -43.5 -73t-122.5 -31q-26 0 -39 2q0 1 1 7l1 6q69 0 101.5 25.5t32.5 59.5q0 43 -80 57l41 79h-9q-79 0 -132 29t-53 76q0 29 16.5 44.5t37.5 15.5q25 0 38.5 -17t13.5 -43q0 -41 -28 -69q40 -23 107 -23q96 0 151 44.5t55 120.5q0 40 -30.5 74.5t-73.5 60t-86 51.5
t-73.5 61t-30.5 76q0 92 73 141.5t169 49.5z" />
    <glyph glyph-name="scedilla" unicode="&#x15f;" horiz-adv-x="374" 
d="M141 -11q-57 0 -95 22.5t-38 58.5q0 22 12.5 33.5t28.5 11.5q42 0 42 -45q0 -33 -22 -55q24 -13 71 -13q48 0 80 29.5t32 70.5q0 28 -19 51t-46.5 39t-55 33t-46.5 40.5t-19 52.5q0 60 46.5 95t114.5 35q51 0 87.5 -22t36.5 -58q0 -21 -12.5 -32.5t-27.5 -11.5
q-21 0 -32 13t-11 32q0 31 21 54q-25 11 -58 11q-35 0 -65 -21.5t-30 -67.5q0 -23 19.5 -43.5t47 -37t55 -34t47 -43.5t19.5 -58q0 -60 -49.5 -97.5t-119.5 -41.5l-29 -58q52 0 88.5 -18.5t36.5 -56.5q0 -42 -43.5 -73t-122.5 -31q-26 0 -39 2q0 1 1 7l1 6q69 0 101.5 25.5
t32.5 59.5q0 43 -80 57l41 79h-2z" />
    <glyph glyph-name="Scaron" unicode="&#x160;" horiz-adv-x="506" 
d="M350 682q67 0 116 -27.5t49 -73.5q0 -27 -16 -42.5t-35 -15.5q-25 0 -38 17t-13 42q0 44 26 70q-36 16 -90 16q-68 0 -113 -39t-45 -93q0 -36 30.5 -67t74.5 -56.5t88 -53t74.5 -68.5t30.5 -91q0 -70 -44.5 -119.5t-109 -70t-139.5 -20.5q-79 0 -132 29t-53 76
q0 29 16.5 44.5t37.5 15.5q25 0 38.5 -17t13.5 -43q0 -41 -28 -69q40 -23 107 -23q96 0 151 44.5t55 120.5q0 40 -30.5 74.5t-73.5 60t-86 51.5t-73.5 61t-30.5 76q0 92 73 141.5t169 49.5zM347 801l152 78q6 -9 7 -10l-155 -133q-9 -8 -17 -8q-6 0 -14 9l-107 132
q2 1 3.5 3t4 4.5l3.5 3.5z" />
    <glyph glyph-name="scaron" unicode="&#x161;" horiz-adv-x="374" 
d="M141 -11q-57 0 -95 22.5t-38 58.5q0 22 12.5 33.5t28.5 11.5q42 0 42 -45q0 -33 -22 -55q24 -13 71 -13q48 0 80 29.5t32 70.5q0 28 -19 51t-46.5 39t-55 33t-46.5 40.5t-19 52.5q0 60 46.5 95t114.5 35q51 0 87.5 -22t36.5 -58q0 -21 -12.5 -32.5t-27.5 -11.5
q-21 0 -32 13t-11 32q0 31 21 54q-25 11 -58 11q-35 0 -65 -21.5t-30 -67.5q0 -23 19.5 -43.5t47 -37t55 -34t47 -43.5t19.5 -58q0 -63 -54 -101.5t-129 -38.5zM245 574l151 95l6 -11l-142 -137q-20 -19 -28 -19t-23 20l-94 137l11 10z" />
    <glyph glyph-name="Tcommaaccent" unicode="&#x162;" horiz-adv-x="588" 
d="M108 694q83 -20 259 -20q75 0 110.5 1t80 6t77.5 15l-17 -226h-5q-7 0 -9 13q-14 109 -46 142t-120 33h-31l-98 -549q-2 -9 -2 -25q0 -23 9.5 -37.5t23 -19.5t26.5 -7.5t21.5 -5.5t7.5 -9v-5h-140l-28 -56q52 0 88.5 -18.5t36.5 -56.5q0 -42 -43.5 -73t-122.5 -31
q-26 0 -39 2q0 1 1 7l1 6q69 0 101.5 25.5t32.5 59.5q0 43 -80 57l41 78h-138v5q1 7 17.5 11.5t36 8t39 25t26.5 59.5l97 549h-28q-94 0 -138 -36t-93 -141q-7 -13 -13 -12l-4 1z" />
    <glyph glyph-name="tcommaaccent" unicode="&#x163;" horiz-adv-x="267" 
d="M47 66l69 354h-64l3 16h65q56 31 87 125h11l-25 -125h117l-3 -16h-117l-78 -400q35 20 106 80l7 -8q-38 -42 -80.5 -72.5t-60.5 -30.5q-6 0 -16 2l-25 -51q52 0 88.5 -18.5t36.5 -56.5q0 -42 -43.5 -73t-122.5 -31q-26 0 -39 2q0 1 1 7l1 6q69 0 101.5 25.5t32.5 59.5
q0 43 -80 57l39 76q-15 9 -15 39q0 16 4 33z" />
    <glyph glyph-name="Tcaron" unicode="&#x164;" horiz-adv-x="588" 
d="M108 694q83 -20 259 -20q75 0 110.5 1t80 6t77.5 15l-17 -226h-5q-7 0 -9 13q-14 109 -46 142t-120 33h-31l-98 -549q-2 -9 -2 -25q0 -23 9.5 -37.5t23 -19.5t26.5 -7.5t21.5 -5.5t7.5 -9v-5h-289v5q1 7 17.5 11.5t36 8t39 25t26.5 59.5l97 549h-28q-94 0 -138 -36
t-93 -141q-7 -13 -13 -12l-4 1zM388 801l152 78q6 -9 7 -10l-155 -133q-9 -8 -17 -8q-7 0 -14 9l-107 132q2 1 3.5 3t4 4.5l3.5 3.5z" />
    <glyph glyph-name="tcaron" unicode="&#x165;" horiz-adv-x="279" 
d="M47 66l69 354h-64l3 16h65q56 31 87 125h11l-25 -125h117l-3 -16h-117l-78 -400q35 20 106 80l7 -8q-38 -42 -80.5 -72.5t-60.5 -30.5q-21 0 -31 9.5t-10 34.5q0 16 4 33zM337 707q42 0 42 -44q0 -34 -34 -83.5t-84 -81.5l-4 9q29 23 54.5 55.5t34.5 63.5q-12 -9 -26 -9
q-15 0 -26 10t-11 26q0 22 15.5 38t38.5 16z" />
    <glyph glyph-name="Tbar" unicode="&#x166;" horiz-adv-x="588" 
d="M108 694q83 -20 259 -20q75 0 110.5 1t80 6t77.5 15l-17 -226h-5q-7 0 -9 13q-14 109 -46 142t-120 33h-31l-51 -283h161q0 -3 -0.5 -5.5t-1.5 -6t-1 -5.5h-161l-44 -249q-2 -9 -2 -25q0 -23 9.5 -37.5t23 -19.5t26.5 -7.5t21.5 -5.5t7.5 -9v-5h-289v5q1 7 17.5 11.5
t36 8t39 25t26.5 59.5l44 249h-158q0 3 0.5 5.5t1.5 6t1 5.5h158l50 283h-28q-94 0 -138 -36t-93 -141q-7 -13 -13 -12l-4 1z" />
    <glyph glyph-name="tbar" unicode="&#x167;" horiz-adv-x="267" 
d="M90 287l26 133h-63q0 7 2 15h62q55 34 91 126h10l-25 -125h117l-3 -16h-117l-26 -133h122l-3 -16h-122q-32 -168 -49 -251q22 12 55 37.5t51 42.5l8 -8q-39 -42 -81 -72.5t-61 -30.5q-21 0 -31.5 9.5t-10.5 32.5q0 7 4 31q31 153 41 209h-59l3 16h59z" />
    <glyph glyph-name="Utilde" unicode="&#x168;" horiz-adv-x="710" 
d="M658 549l-49 -277q-25 -139 -96.5 -211t-185.5 -72q-98 0 -159 42t-62 134q0 35 7 73l57 329q4 28 4 30q0 25 -14 38.5t-30 16t-30 6t-14 9.5q-1 4 1 6h288q0 -4 -2 -8q-4 -6 -22 -9.5t-35.5 -6.5t-35 -21t-23.5 -51l-61 -343q-8 -46 -8 -80q0 -72 35 -109.5t122 -37.5
q91 0 158 66.5t89 194.5l42 244q6 33 6 55q0 36 -14 56t-30 24l-30 7.5t-14 10.5q0 1 0.5 4t0.5 4h232q0 -4 -2 -8q-4 -6 -22.5 -10t-37.5 -8.5t-38 -29t-27 -68.5zM624 851l7 -3q-13 -41 -39 -67t-61 -26q-20 0 -66 15.5t-65 15.5q-38 0 -61 -42l-9 3q14 36 39 64.5
t60 28.5q19 0 65 -17t69 -17q36 0 61 45z" />
    <glyph glyph-name="utilde" unicode="&#x169;" horiz-adv-x="509" 
d="M452 449l4 -3q-41 -193 -83 -429q40 22 100 80l7 -8q-87 -99 -129 -99q-49 0 -49 45q0 46 46 227h-1q-1 -1 -2 -1q-53 -147 -107.5 -210t-96.5 -63q-76 0 -76 76q0 22 6 47l65 310q-31 -17 -100 -79l-8 8q90 99 131 99q46 0 46 -43q0 -21 -7 -49l-57 -259q-4 -16 -4 -36
q0 -41 34 -41q29 0 69.5 58t76 143.5t52.5 164.5l6 28q40 8 77 34zM457 639l7 -3q-13 -41 -39 -67t-61 -26q-20 0 -66 15.5t-65 15.5q-38 0 -61 -42l-9 3q14 36 39 64.5t60 28.5q19 0 65 -17t69 -17q36 0 61 45z" />
    <glyph glyph-name="Umacron" unicode="&#x16a;" horiz-adv-x="710" 
d="M658 549l-49 -277q-25 -139 -96.5 -211t-185.5 -72q-98 0 -159 42t-62 134q0 35 7 73l57 329q4 28 4 30q0 25 -14 38.5t-30 16t-30 6t-14 9.5q-1 4 1 6h288q0 -4 -2 -8q-4 -6 -22 -9.5t-35.5 -6.5t-35 -21t-23.5 -51l-61 -343q-8 -46 -8 -80q0 -72 35 -109.5t122 -37.5
q91 0 158 66.5t89 194.5l42 244q6 33 6 55q0 36 -14 56t-30 24l-30 7.5t-14 10.5q0 1 0.5 4t0.5 4h232q0 -4 -2 -8q-4 -6 -22.5 -10t-37.5 -8.5t-38 -29t-27 -68.5zM607 817l-15 -57q-103 10 -263 0l10 42q56 9 268 15z" />
    <glyph glyph-name="umacron" unicode="&#x16b;" horiz-adv-x="509" 
d="M452 449l4 -3q-41 -193 -83 -429q40 22 100 80l7 -8q-87 -99 -129 -99q-49 0 -49 45q0 46 46 227h-1q-1 -1 -2 -1q-53 -147 -107.5 -210t-96.5 -63q-76 0 -76 76q0 22 6 47l65 310q-31 -17 -100 -79l-8 8q90 99 131 99q46 0 46 -43q0 -21 -7 -49l-57 -259q-4 -16 -4 -36
q0 -41 34 -41q29 0 69.5 58t76 143.5t52.5 164.5l6 28q40 8 77 34zM438 614l-13 -55q-99 9 -253 0l10 40q58 9 256 15z" />
    <glyph glyph-name="Ubreve" unicode="&#x16c;" horiz-adv-x="710" 
d="M658 549l-49 -277q-25 -139 -96.5 -211t-185.5 -72q-98 0 -159 42t-62 134q0 35 7 73l57 329q4 28 4 30q0 25 -14 38.5t-30 16t-30 6t-14 9.5q-1 4 1 6h288q0 -4 -2 -8q-4 -6 -22 -9.5t-35.5 -6.5t-35 -21t-23.5 -51l-61 -343q-8 -46 -8 -80q0 -72 35 -109.5t122 -37.5
q91 0 158 66.5t89 194.5l42 244q6 33 6 55q0 36 -14 56t-30 24l-30 7.5t-14 10.5q0 1 0.5 4t0.5 4h232q0 -4 -2 -8q-4 -6 -22.5 -10t-37.5 -8.5t-38 -29t-27 -68.5zM459 723q-52 0 -82 36t-29 102l11 3q29 -87 109 -87q82 0 146 88l10 -3q-29 -73 -75 -106t-90 -33z" />
    <glyph glyph-name="ubreve" unicode="&#x16d;" horiz-adv-x="509" 
d="M452 449l4 -3q-41 -193 -83 -429q40 22 100 80l7 -8q-87 -99 -129 -99q-49 0 -49 45q0 46 46 227h-1q-1 -1 -2 -1q-53 -147 -107.5 -210t-96.5 -63q-76 0 -76 76q0 22 6 47l65 310q-31 -17 -100 -79l-8 8q90 99 131 99q46 0 46 -43q0 -21 -7 -49l-57 -259q-4 -16 -4 -36
q0 -41 34 -41q29 0 69.5 58t76 143.5t52.5 164.5l6 28q40 8 77 34zM300 510q-54 0 -83.5 38t-24.5 105l13 4q9 -47 37 -70t64 -23q77 0 143 87l11 -3q-56 -138 -160 -138z" />
    <glyph glyph-name="Uring" unicode="&#x16e;" horiz-adv-x="710" 
d="M658 549l-49 -277q-25 -139 -96.5 -211t-185.5 -72q-98 0 -159 42t-62 134q0 35 7 73l57 329q4 28 4 30q0 25 -14 38.5t-30 16t-30 6t-14 9.5q-1 4 1 6h288q0 -4 -2 -8q-4 -6 -22 -9.5t-35.5 -6.5t-35 -21t-23.5 -51l-61 -343q-8 -46 -8 -80q0 -72 35 -109.5t122 -37.5
q91 0 158 66.5t89 194.5l42 244q6 33 6 55q0 36 -14 56t-30 24l-30 7.5t-14 10.5q0 1 0.5 4t0.5 4h232q0 -4 -2 -8q-4 -6 -22.5 -10t-37.5 -8.5t-38 -29t-27 -68.5zM494 894q33 0 53.5 -22t20.5 -55q0 -45 -32 -77.5t-75 -32.5q-33 0 -55 21.5t-22 54.5q0 44 32 77.5
t78 33.5zM490 874q-35 0 -59.5 -27t-24.5 -61q0 -25 16 -41.5t44 -16.5q31 0 56 25.5t25 57.5q0 27 -15.5 45t-41.5 18z" />
    <glyph glyph-name="uring" unicode="&#x16f;" horiz-adv-x="509" 
d="M452 449l4 -3q-41 -193 -83 -429q40 22 100 80l7 -8q-87 -99 -129 -99q-49 0 -49 45q0 46 46 227h-1q-1 -1 -2 -1q-53 -147 -107.5 -210t-96.5 -63q-76 0 -76 76q0 22 6 47l65 310q-31 -17 -100 -79l-8 8q90 99 131 99q46 0 46 -43q0 -21 -7 -49l-57 -259q-4 -16 -4 -36
q0 -41 34 -41q29 0 69.5 58t76 143.5t52.5 164.5l6 28q40 8 77 34zM328 687q33 0 53.5 -22t20.5 -55q0 -45 -32 -77.5t-75 -32.5q-33 0 -55 22t-22 54q0 44 32 77.5t78 33.5zM324 667q-35 0 -59.5 -27t-24.5 -61q0 -25 16 -41.5t44 -16.5q31 0 56 25.5t25 57.5
q0 27 -15.5 45t-41.5 18z" />
    <glyph glyph-name="Uhungarumlaut" unicode="&#x170;" horiz-adv-x="710" 
d="M658 549l-49 -277q-25 -139 -96.5 -211t-185.5 -72q-98 0 -159 42t-62 134q0 35 7 73l57 329q4 28 4 30q0 25 -14 38.5t-30 16t-30 6t-14 9.5q-1 4 1 6h288q0 -4 -2 -8q-4 -6 -22 -9.5t-35.5 -6.5t-35 -21t-23.5 -51l-61 -343q-8 -46 -8 -80q0 -72 35 -109.5t122 -37.5
q91 0 158 66.5t89 194.5l42 244q6 33 6 55q0 36 -14 56t-30 24l-30 7.5t-14 10.5q0 1 0.5 4t0.5 4h232q0 -4 -2 -8q-4 -6 -22.5 -10t-37.5 -8.5t-38 -29t-27 -68.5zM315 737q-3 3 -3 10q49 21 88 52.5t60.5 50.5t36.5 19q13 0 20 -9.5t7 -20.5q0 -13 -21 -33.5t-71.5 -41.5
t-116.5 -27zM464 737q-2 8 -2 11q49 21 88 52t60.5 50t36.5 19q13 0 20 -9.5t7 -20.5q0 -13 -21 -33.5t-72 -41.5t-117 -27z" />
    <glyph glyph-name="uhungarumlaut" unicode="&#x171;" horiz-adv-x="509" 
d="M452 449l4 -3q-41 -193 -83 -429q40 22 100 80l7 -8q-87 -99 -129 -99q-49 0 -49 45q0 46 46 227h-1q-1 -1 -2 -1q-53 -147 -107.5 -210t-96.5 -63q-76 0 -76 76q0 22 6 47l65 310q-31 -17 -100 -79l-8 8q90 99 131 99q46 0 46 -43q0 -21 -7 -49l-57 -259q-4 -16 -4 -36
q0 -41 34 -41q29 0 69.5 58t76 143.5t52.5 164.5l6 28q40 8 77 34zM183 511l-3 11q38 25 68.5 54.5t44 49.5t28.5 33.5t30 13.5q13 0 19.5 -8t6.5 -19q0 -24 -52 -66.5t-142 -68.5zM314 511l-3 11q39 25 69 54.5t44 49.5t28.5 33.5t29.5 13.5q26 0 26 -28q0 -24 -52.5 -66.5
t-141.5 -67.5z" />
    <glyph glyph-name="Uogonek" unicode="&#x172;" horiz-adv-x="710" 
d="M658 549l-49 -277q-49 -272 -267 -283q-40 -32 -64 -73t-24 -69t21 -43t57 -15q28 0 60 8l1 -11q-61 -28 -115 -28q-87 0 -87 64q0 35 32.5 80.5t101.5 86.5q-47 0 -84.5 9.5t-68.5 29.5t-48 55t-18 82q0 35 7 73l57 329q4 28 4 30q0 25 -14 38.5t-30 16t-30 6t-14 9.5
q-1 4 1 6h288q0 -4 -2 -8q-4 -6 -22 -9.5t-35.5 -6.5t-35 -21t-23.5 -51l-61 -343q-8 -46 -8 -80q0 -72 35 -109.5t122 -37.5q91 0 158 66.5t89 194.5l42 244q6 33 6 55q0 36 -14 56t-30 24l-30 7.5t-14 10.5q0 1 0.5 4t0.5 4h232q0 -4 -2 -8q-4 -6 -22.5 -10t-37.5 -8.5
t-38 -29t-27 -68.5z" />
    <glyph glyph-name="uogonek" unicode="&#x173;" horiz-adv-x="509" 
d="M452 449l4 -3q-41 -193 -83 -429q40 22 100 80l7 -8q-87 -99 -129 -99q-12 0 -21 3q-34 -31 -54 -67.5t-20 -62.5q0 -28 21 -43t57 -15q28 0 60 8l1 -11q-61 -28 -115 -28q-87 0 -87 64q0 34 30.5 78t94.5 83q-16 10 -16 36q0 46 46 227h-1q-1 -1 -2 -1
q-53 -147 -107.5 -210t-96.5 -63q-76 0 -76 76q0 22 6 47l65 310q-31 -17 -100 -79l-8 8q90 99 131 99q46 0 46 -43q0 -21 -7 -49l-57 -259q-4 -16 -4 -36q0 -41 34 -41q29 0 69.5 58t76 143.5t52.5 164.5l6 28q40 8 77 34z" />
    <glyph glyph-name="Wcircumflex" unicode="&#x174;" horiz-adv-x="903" 
d="M283 136h2l203 429q12 27 12 44q0 15 -8 25t-20 14t-23.5 6.5t-19 6t-6.5 8.5l1 5h240v-4q0 -8 -16 -13t-34.5 -9.5t-32 -24.5t-8.5 -54l61 -435h2l186 403q22 46 22 71q0 15 -7.5 25t-18.5 14.5t-21.5 7t-17.5 5.5t-6 8l1 6h216l-1 -6q-1 -6 -16.5 -10.5t-35.5 -9.5
t-45.5 -28.5t-44.5 -64.5l-260 -560h-13l-78 545l-2 1l-260 -547h-10l-83 590q-4 30 -19.5 47t-32 20t-28.5 6.5t-10 11.5l1 5h258l-1 -7q-1 -6 -14.5 -9.5t-29 -6.5t-28 -15.5t-12.5 -33.5q0 -12 1 -19zM682 731l-124 77l-151 -77q-1 1 -7 10l125 107q6 5 17 14t17.5 13.5
t10.5 4.5q7 0 15 -8l21 -25q58 -70 86 -105z" />
    <glyph glyph-name="wcircumflex" unicode="&#x175;" horiz-adv-x="653" 
d="M353 449q49 0 57 -66q17 -131 23 -303h3q142 169 177 265q-22 3 -41.5 19.5t-19.5 43.5q0 16 10 31t31 15t34.5 -14t13.5 -40q0 -33 -15.5 -71.5t-48 -86.5t-58 -81t-72.5 -90t-64 -79h-16q-4 110 -21 289q-39 -70 -100 -156t-102 -133h-16q-9 239 -37 427
q-30 -25 -80 -97q-3 3 -9 7q68 120 112 120q20 0 32.5 -10.5t16.5 -22.5t7 -32q20 -149 26 -302q87 108 147 226q-5 55 -13 112q-32 -27 -79 -97q-1 1 -4 3t-5 4q66 119 111 119zM509 503l-117 94l-152 -94l-8 10l142 137q21 20 30 20q10 0 22 -19l94 -138z" />
    <glyph glyph-name="Ycircumflex" unicode="&#x176;" horiz-adv-x="566" 
d="M329 323l141 208q38 57 38 79q0 16 -10 26t-21.5 13t-21.5 7t-10 10t1 7h205v-5q-1 -7 -13 -11t-30 -9t-47 -29.5t-58 -67.5l-168 -248l-32 -179q-3 -15 -3 -27q0 -33 14.5 -51.5t32.5 -22t32.5 -7t14.5 -10.5q0 -5 -1 -6h-295q1 1 1 5q1 8 17 12t35.5 8t39.5 29t28 71
l29 168l-104 289q-13 35 -36 51.5t-39 21.5t-16 13v5h261v-2q0 -9 -13 -14t-28.5 -7t-28.5 -12.5t-13 -29.5q0 -14 5 -26zM505 727l-124 77l-151 -77q-1 1 -7 10l125 107q6 5 17 14t17.5 13.5t10.5 4.5q7 0 15 -8l21 -25q58 -70 86 -105z" />
    <glyph glyph-name="ycircumflex" unicode="&#x177;" horiz-adv-x="429" 
d="M370 452q19 0 32 -12.5t13 -37.5q0 -41 -36.5 -100t-88 -119t-103 -120.5t-88 -121.5t-36.5 -105q0 -43 45 -54q-2 34 12.5 56.5t41.5 22.5q17 0 27 -10t10 -25q0 -29 -22.5 -43t-51.5 -14q-35 0 -55 18t-20 47q0 65 70 162q-11 232 -38 432q-32 -27 -78 -102l-9 5
q34 59 59.5 88.5t53.5 29.5q51 0 59 -64q20 -170 25 -299q19 23 58 69t58 69.5t42 58t34 62.5q-18 2 -36.5 17t-18.5 43q0 15 9 31t32 16zM387 503l-117 94l-152 -94l-8 10l142 137q21 20 30 20q10 0 22 -19l94 -138z" />
    <glyph glyph-name="Ydieresis" unicode="&#x178;" horiz-adv-x="566" 
d="M329 323l141 208q38 57 38 79q0 16 -10 26t-21.5 13t-21.5 7t-10 10t1 7h205v-5q-1 -7 -13 -11t-30 -9t-47 -29.5t-58 -67.5l-168 -248l-32 -179q-3 -15 -3 -27q0 -33 14.5 -51.5t32.5 -22t32.5 -7t14.5 -10.5q0 -5 -1 -6h-295q1 1 1 5q1 8 17 12t35.5 8t39.5 29t28 71
l29 168l-104 289q-13 35 -36 51.5t-39 21.5t-16 13v5h261v-2q0 -9 -13 -14t-28.5 -7t-28.5 -12.5t-13 -29.5q0 -14 5 -26zM307 833q16 0 26 -11t10 -28q0 -21 -16.5 -38t-36.5 -17q-16 0 -26.5 10.5t-10.5 27.5q0 22 17 39t37 17zM474 833q16 0 26 -11t10 -28
q0 -22 -17 -38.5t-37 -16.5q-16 0 -26.5 10.5t-10.5 27.5q0 22 16.5 39t38.5 17z" />
    <glyph glyph-name="Zacute" unicode="&#x179;" horiz-adv-x="580" 
d="M507 658h-188q-80 0 -126 -38.5t-92 -138.5q-6 -15 -15 -12l-4 1l64 227q64 -23 213 -23h253l-2 -14l-518 -645h190q68 0 114 22.5t81.5 67.5t85.5 136q8 14 15 13l6 -1l-100 -274q-74 21 -176 21h-327l2 13q174 215 524 645zM300 739l-2 10q49 21 84.5 52t54 49.5
t36.5 18.5q13 0 21.5 -10.5t8.5 -22.5q0 -14 -19 -32.5t-68 -38.5t-116 -26z" />
    <glyph glyph-name="zacute" unicode="&#x17a;" horiz-adv-x="415" 
d="M129 449q41 0 118.5 -21.5t95.5 -21.5q34 0 70 49l9 -5q-31 -55 -90.5 -117t-115.5 -107t-112.5 -97.5t-81.5 -89.5l1 -2q59 39 123 39q34 0 87 -24.5t77 -24.5q20 0 34 27q-50 14 -50 62q0 17 10.5 30t29.5 13q17 0 28.5 -14.5t11.5 -35.5q0 -43 -32 -83t-103 -40
q-32 0 -92 23t-87 23q-44 0 -67 -41l-11 6q32 65 96.5 127t151 135.5t141.5 138.5l-1 1q-55 -35 -130 -35q-69 0 -145 18q-11 -24 -31 -96l-12 1q5 33 10 56t14 50t22.5 41.5t30.5 14.5zM187 513l-4 10q38 25 67 54.5t41.5 49t27.5 33t31 13.5q15 0 22 -10t5 -23
q-3 -25 -54.5 -64t-135.5 -63z" />
    <glyph glyph-name="Zdotaccent" unicode="&#x17b;" horiz-adv-x="580" 
d="M507 658h-188q-80 0 -126 -38.5t-92 -138.5q-6 -15 -15 -12l-4 1l64 227q64 -23 213 -23h253l-2 -14l-518 -645h190q68 0 114 22.5t81.5 67.5t85.5 136q8 14 15 13l6 -1l-100 -274q-74 21 -176 21h-327l2 13q174 215 524 645zM395 849q18 0 29 -13t11 -31
q0 -25 -18.5 -44t-41.5 -19q-17 0 -28.5 12t-11.5 31q0 24 18 44t42 20z" />
    <glyph glyph-name="zdotaccent" unicode="&#x17c;" horiz-adv-x="415" 
d="M129 449q41 0 118.5 -21.5t95.5 -21.5q34 0 70 49l9 -5q-31 -55 -90.5 -117t-115.5 -107t-112.5 -97.5t-81.5 -89.5l1 -2q59 39 123 39q34 0 87 -24.5t77 -24.5q20 0 34 27q-50 14 -50 62q0 17 10.5 30t29.5 13q17 0 28.5 -14.5t11.5 -35.5q0 -43 -32 -83t-103 -40
q-32 0 -92 23t-87 23q-44 0 -67 -41l-11 6q32 65 96.5 127t151 135.5t141.5 138.5l-1 1q-55 -35 -130 -35q-69 0 -145 18q-11 -24 -31 -96l-12 1q5 33 10 56t14 50t22.5 41.5t30.5 14.5zM275 643q18 0 29 -13t11 -31q0 -25 -18.5 -44t-41.5 -19q-17 0 -28.5 12t-11.5 31
q0 24 18 44t42 20z" />
    <glyph glyph-name="Zcaron" unicode="&#x17d;" horiz-adv-x="580" 
d="M507 658h-188q-80 0 -126 -38.5t-92 -138.5q-6 -15 -15 -12l-4 1l64 227q64 -23 213 -23h253l-2 -14l-518 -645h190q68 0 114 22.5t81.5 67.5t85.5 136q8 14 15 13l6 -1l-100 -274q-74 21 -176 21h-327l2 13q174 215 524 645zM404 801l152 78q6 -9 7 -10l-155 -133
q-9 -8 -17 -8q-7 0 -14 9l-107 132q2 1 3.5 3t4 4.5l3.5 3.5z" />
    <glyph glyph-name="zcaron" unicode="&#x17e;" horiz-adv-x="415" 
d="M129 449q41 0 118.5 -21.5t95.5 -21.5q34 0 70 49l9 -5q-31 -55 -90.5 -117t-115.5 -107t-112.5 -97.5t-81.5 -89.5l1 -2q59 39 123 39q34 0 87 -24.5t77 -24.5q20 0 34 27q-50 14 -50 62q0 17 10.5 30t29.5 13q17 0 28.5 -14.5t11.5 -35.5q0 -43 -32 -83t-103 -40
q-32 0 -92 23t-87 23q-44 0 -67 -41l-11 6q32 65 96.5 127t151 135.5t141.5 138.5l-1 1q-55 -35 -130 -35q-69 0 -145 18q-11 -24 -31 -96l-12 1q5 33 10 56t14 50t22.5 41.5t30.5 14.5zM271 574l151 95l6 -11l-142 -137q-20 -19 -28 -19t-23 20l-94 137l11 10z" />
    <glyph glyph-name="longs" unicode="&#x17f;" horiz-adv-x="233" 
d="M189 411q-47 -274 -83 -397.5t-74 -174.5q-50 -66 -115 -66q-28 0 -46.5 14.5t-18.5 34.5t13.5 31.5t31.5 11.5q23 0 41 -18.5t19 -55.5q25 11 40 38t25 80q75 421 94 512h-75l3 15h74q29 148 109 223t175 75q31 0 52.5 -12t21.5 -35q0 -19 -12.5 -30t-31.5 -11
q-32 0 -45 21.5t-8 52.5q-25 -3 -45.5 -9.5t-37 -20t-29 -26.5t-23 -37t-17 -42t-14.5 -52t-12 -57t-12 -65z" />
    <glyph glyph-name="florin" unicode="&#x192;" 
d="M130 354q0 9 1 14h85q82 300 213 300q28 0 48 -14.5t20 -40.5q0 -18 -11.5 -29.5t-27.5 -11.5q-30 0 -45 24.5t-7 57.5q-34 -8 -53 -63t-54 -223h95l-2 -14h-95q-49 -233 -108.5 -346.5t-150.5 -113.5q-23 0 -41 11t-18 32q0 20 13 31t31 11q22 0 38.5 -16.5t20.5 -48.5
q16 6 29 30t25.5 69.5t22 90t25.5 120t29 130.5h-83z" />
    <glyph glyph-name="AEacute" unicode="&#x1fc;" horiz-adv-x="964" 
d="M600 15h48q107 0 166.5 44.5t123.5 165.5q7 14 15 14q1 0 7 -1l-91 -256q-56 18 -200 18h-321q1 2 1 6q1 7 17 11.5t35.5 9.5t39 27t25.5 61l20 117h-257l-84 -109q-39 -49 -39 -69q0 -19 19 -27.5t37.5 -11.5t18.5 -8t-1 -7h-222l1 5q2 8 14.5 11.5t30.5 7t48 25
t61 60.5l413 526q-9 11 -27 16t-31 7.5t-12 8.5l1 7h270q150 0 223 27l-14 -221h-5q-9 0 -11 13q-14 100 -46 132.5t-114 32.5h-114l-53 -297h86q39 0 66.5 20t37.5 44.5t18.5 44.5t14.5 20h5q-34 -188 -50 -282h-4q-9 0 -10.5 21.5t-1.5 47.5t-18 47.5t-57 21.5h-90
l-39 -224q-9 -54 -9 -62q0 -45 58 -45zM488 247l55 311q4 24 4 33q0 21 -9 36l-298 -380h248zM613 739l-2 10q49 21 84.5 52t54 49.5t36.5 18.5q13 0 21.5 -10.5t8.5 -22.5q0 -14 -19 -32.5t-68 -38.5t-116 -26z" />
    <glyph glyph-name="aeacute" unicode="&#x1fd;" horiz-adv-x="679" 
d="M441 -11q-97 0 -131 80q-96 -80 -198 -80q-45 0 -71 22.5t-26 65.5q0 46 22 79t58 50.5t75 25t81 7.5q27 0 55 -3q4 25 9.5 52t8.5 41.5t3 19.5q0 41 -20.5 62.5t-58.5 21.5q-53 0 -90 -25q29 -17 29 -53q0 -27 -15.5 -43t-37.5 -16q-17 0 -27.5 12t-10.5 30q0 38 42 74
t124 36q95 0 120 -71q61 72 167 72q51 0 80 -24.5t29 -69.5q0 -62 -63.5 -103.5t-172.5 -41.5q-13 0 -43 2q-3 -36 -3 -49q0 -67 25.5 -104.5t73.5 -37.5q78 0 150 79q2 -3 8 -7q-86 -104 -192 -104zM154 13q73 0 152 69q-10 25 -10 66q0 34 7 74q-24 2 -46 2
q-73 0 -118.5 -40t-45.5 -115q0 -56 61 -56zM381 226q24 -2 34 -2q89 0 127.5 43.5t38.5 105.5q0 28 -13.5 43.5t-37.5 15.5q-114 0 -149 -206zM341 513l-4 10q38 25 67 54.5t41.5 49t27.5 33t31 13.5q15 0 22 -10t5 -23q-3 -25 -54.5 -64t-135.5 -63z" />
    <glyph glyph-name="Oslashacute" unicode="&#x1fe;" horiz-adv-x="694" 
d="M384 739l-2 10q49 21 84.5 52t54 49.5t36.5 18.5q13 0 21.5 -10.5t8.5 -22.5q0 -14 -19 -32.5t-68 -38.5t-116 -26zM426 682q99 0 162 -55l56 69l10 -9l-56 -69q78 -76 78 -209q0 -169 -110 -294t-263 -125q-107 0 -171 59l-61 -75l-9 10q22 26 61 74q-68 71 -68 197
q0 110 48.5 208t135 158.5t187.5 60.5zM423 667q-71 0 -127 -46t-87.5 -117t-47.5 -146.5t-16 -144.5q0 -67 16 -108q133 162 397 486q-41 76 -135 76zM564 578q-372 -457 -397 -487q43 -87 143 -87q57 0 104.5 29t79 75t53 106t31 120t9.5 118q0 77 -23 126z" />
    <glyph glyph-name="oslashacute" unicode="&#x1ff;" horiz-adv-x="479" 
d="M242 513l-4 10q38 25 67 54.5t41.5 49t27.5 33t31 13.5q15 0 22 -10t5 -23q-3 -25 -54.5 -64t-135.5 -63zM278 449q71 0 116 -42l45 53l5 -4q4 -3 5 -3l-47 -55q43 -48 43 -122q0 -109 -76.5 -198t-180.5 -89q-63 0 -101 33l-44 -52l-10 10l44 51q-43 44 -43 132
q0 111 71 198.5t173 87.5zM276 434q-50 0 -88.5 -47.5t-57 -115.5t-18.5 -141q0 -32 4 -53l243 289q-17 68 -83 68zM367 302q0 29 -4 49l-243 -289q16 -59 71 -59q56 0 98 51.5t60 117.5t18 130z" />
    <glyph glyph-name="Scommaaccent" unicode="&#x218;" horiz-adv-x="506" 
d="M350 682q67 0 116 -27.5t49 -73.5q0 -27 -16 -42.5t-35 -15.5q-25 0 -38 17t-13 42q0 44 26 70q-36 16 -90 16q-68 0 -113 -39t-45 -93q0 -36 30.5 -67t74.5 -56.5t88 -53t74.5 -68.5t30.5 -91q0 -70 -44.5 -119.5t-109 -70t-139.5 -20.5q-79 0 -132 29t-53 76
q0 29 16.5 44.5t37.5 15.5q25 0 38.5 -17t13.5 -43q0 -41 -28 -69q40 -23 107 -23q96 0 151 44.5t55 120.5q0 40 -30.5 74.5t-73.5 60t-86 51.5t-73.5 61t-30.5 76q0 92 73 141.5t169 49.5zM203 -44q42 0 42 -44q0 -34 -34 -83.5t-84 -81.5l-4 9q29 23 54.5 55.5t34.5 63.5
q-12 -9 -26 -9q-15 0 -26 10t-11 26q0 22 15.5 38t38.5 16z" />
    <glyph glyph-name="scommaaccent" unicode="&#x219;" horiz-adv-x="374" 
d="M141 -11q-57 0 -95 22.5t-38 58.5q0 22 12.5 33.5t28.5 11.5q42 0 42 -45q0 -33 -22 -55q24 -13 71 -13q48 0 80 29.5t32 70.5q0 28 -19 51t-46.5 39t-55 33t-46.5 40.5t-19 52.5q0 60 46.5 95t114.5 35q51 0 87.5 -22t36.5 -58q0 -21 -12.5 -32.5t-27.5 -11.5
q-21 0 -32 13t-11 32q0 31 21 54q-25 11 -58 11q-35 0 -65 -21.5t-30 -67.5q0 -23 19.5 -43.5t47 -37t55 -34t47 -43.5t19.5 -58q0 -63 -54 -101.5t-129 -38.5zM145 -44q42 0 42 -44q0 -34 -34 -83.5t-84 -81.5l-4 9q29 23 54.5 55.5t34.5 63.5q-12 -9 -26 -9q-15 0 -26 10
t-11 26q0 22 15.5 38t38.5 16z" />
    <glyph glyph-name="uni021A" unicode="&#x21a;" horiz-adv-x="588" 
d="M108 694q83 -20 259 -20q75 0 110.5 1t80 6t77.5 15l-17 -226h-5q-7 0 -9 13q-14 109 -46 142t-120 33h-31l-98 -549q-2 -9 -2 -25q0 -23 9.5 -37.5t23 -19.5t26.5 -7.5t21.5 -5.5t7.5 -9v-5h-289v5q1 7 17.5 11.5t36 8t39 25t26.5 59.5l97 549h-28q-94 0 -138 -36
t-93 -141q-7 -13 -13 -12l-4 1zM246 -44q42 0 42 -44q0 -34 -34 -83.5t-84 -81.5l-4 9q29 23 54.5 55.5t34.5 63.5q-12 -9 -26 -9q-15 0 -26 10t-11 26q0 22 15.5 38t38.5 16z" />
    <glyph glyph-name="uni021B" unicode="&#x21b;" horiz-adv-x="267" 
d="M47 66l69 354h-64l3 16h65q56 31 87 125h11l-25 -125h117l-3 -16h-117l-78 -400q35 20 106 80l7 -8q-38 -42 -80.5 -72.5t-60.5 -30.5q-21 0 -31 9.5t-10 34.5q0 16 4 33zM73 -44q42 0 42 -44q0 -34 -34 -83.5t-84 -81.5l-4 9q29 23 54.5 55.5t34.5 63.5q-12 -9 -26 -9
q-15 0 -26 10t-11 26q0 22 15.5 38t38.5 16z" />
    <glyph glyph-name="schwa" unicode="&#x259;" horiz-adv-x="417" 
d="M238 449q67 0 105.5 -42t38.5 -116q0 -53 -15 -105t-44.5 -97t-79.5 -72.5t-114 -27.5q-51 0 -80 24.5t-29 68.5q0 63 79.5 105.5t201.5 59.5q2 11 2 35q0 64 -26.5 99t-72.5 35q-78 0 -150 -79l-8 8q87 104 192 104zM299 231q-97 -9 -149.5 -57t-52.5 -109
q0 -29 13.5 -44t36.5 -15q55 0 95 60.5t57 164.5z" />
    <glyph glyph-name="primemod" unicode="&#x2b9;" horiz-adv-x="228" 
d="M66 405l148 256q15 26 38 26q14 0 22 -8.5t8 -20.5q0 -14 -9 -25l-196 -234q-1 0 -6 3z" />
    <glyph glyph-name="circumflex" unicode="&#x2c6;" horiz-adv-x="448" 
d="M401 503l-117 94l-152 -94l-8 10l142 137q21 20 30 20q10 0 22 -19l94 -138z" />
    <glyph glyph-name="caron" unicode="&#x2c7;" horiz-adv-x="448" 
d="M280 574l151 95l6 -11l-142 -137q-20 -19 -28 -19t-23 20l-94 137l11 10z" />
    <glyph glyph-name="breve" unicode="&#x2d8;" horiz-adv-x="448" 
d="M267 510q-54 0 -83.5 38t-24.5 105l13 4q9 -47 37 -70t64 -23q77 0 143 87l11 -3q-56 -138 -160 -138z" />
    <glyph glyph-name="dotaccent" unicode="&#x2d9;" horiz-adv-x="446" 
d="M294 643q18 0 29 -13t11 -31q0 -25 -19 -44t-41 -19q-17 0 -28.5 12t-11.5 31q0 24 18 44t42 20z" />
    <glyph glyph-name="ring" unicode="&#x2da;" horiz-adv-x="448" 
d="M302 687q33 0 53.5 -22t20.5 -55q0 -45 -32 -77.5t-75 -32.5q-33 0 -55 22t-22 54q0 44 32 77.5t78 33.5zM298 667q-35 0 -59.5 -27t-24.5 -61q0 -25 16 -41.5t44 -16.5q31 0 56 25.5t25 57.5q0 27 -15.5 45t-41.5 18z" />
    <glyph glyph-name="ogonek" unicode="&#x2db;" horiz-adv-x="450" 
d="M338 39l4 -6q-42 -32 -67 -74t-25 -71q0 -28 21 -43t57 -15q28 0 60 8l1 -11q-61 -28 -115 -28q-87 0 -87 64q0 37 37 85.5t114 90.5z" />
    <glyph glyph-name="tilde" unicode="&#x2dc;" horiz-adv-x="449" 
d="M428 639l7 -3q-13 -41 -39 -67t-61 -26q-20 0 -66 15.5t-65 15.5q-38 0 -61 -42l-9 3q14 36 39 64.5t60 28.5q19 0 65 -17t69 -17q36 0 61 45z" />
    <glyph glyph-name="hungarumlaut" unicode="&#x2dd;" horiz-adv-x="449" 
d="M137 511l-3 11q38 25 68.5 54.5t44 49.5t28.5 33.5t30 13.5q13 0 19.5 -8t6.5 -19q0 -24 -52 -66.5t-142 -68.5zM268 511l-3 11q39 25 69 54.5t44 49.5t28.5 33.5t29.5 13.5q26 0 26 -28q0 -24 -52.5 -66.5t-141.5 -67.5z" />
    <glyph glyph-name="tonos" unicode="&#x384;" horiz-adv-x="448" 
d="M230 506l-5 10q43 35 71.5 78t43 64t35.5 21q25 0 25 -26q0 -25 -44 -67.5t-126 -79.5z" />
    <glyph glyph-name="dieresistonos" unicode="&#x385;" horiz-adv-x="496" 
d="M205 638q16 0 26.5 -11.5t10.5 -28.5q0 -21 -17 -37.5t-38 -16.5q-16 0 -26 10.5t-10 26.5q0 22 16.5 39.5t37.5 17.5zM435 638q16 0 26.5 -11.5t10.5 -28.5q0 -21 -17 -37.5t-38 -16.5q-16 0 -26 10.5t-10 25.5q0 23 16 40.5t38 17.5zM214 505l-6 9q34 29 60 63t37.5 56
t25.5 37.5t31 15.5q12 0 19 -7.5t7 -18.5q0 -25 -47 -71t-127 -84z" />
    <glyph glyph-name="Alphatonos" unicode="&#x386;" horiz-adv-x="648" 
d="M93 112l244 462q14 28 13 43.5t-12 24t-23.5 12t-22 7.5t-8.5 10l1 5h141q28 -161 104 -587q5 -31 19.5 -48.5t28.5 -20.5t25 -6t11 -8v-6h-250l1 6q1 6 14 9t27.5 5t27 14.5t12.5 35.5q0 4 -2 20l-23 129h-256q-69 -130 -69 -156q0 -19 13.5 -30t29.5 -13t29.5 -5
t13.5 -8q0 -6 -1 -7h-221v5q1 7 14 10.5t31 8.5t43 27.5t45 60.5zM418 233l-57 350l-3 1l-185 -351h245zM57 506l-5 10q43 35 71.5 78t43 64t35.5 21q25 0 25 -26q0 -25 -44 -67.5t-126 -79.5z" />
    <glyph glyph-name="anoteleia" unicode="&#x387;" horiz-adv-x="188" 
d="M125 396q18 0 29 -12t11 -31q0 -26 -18 -45t-42 -19q-17 0 -28 12t-11 31q0 26 18.5 45t40.5 19z" />
    <glyph glyph-name="Epsilontonos" unicode="&#x388;" horiz-adv-x="619" 
d="M243 15h71q93 0 150.5 47t124.5 163q9 14 16 14q1 0 3 -1h3l-90 -256q-58 18 -206 18h-323l1 6q1 8 18.5 9.5t41.5 12.5t38 39q14 29 21 66l74 427q4 24 4 35q0 34 -22.5 47t-45 15t-22.5 8v9h301q147 0 212 27l-13 -223h-5q-4 0 -6.5 3t-4.5 9.5t-3.5 12t-3 14
t-2.5 13.5q-18 78 -48 103t-105 25h-133l-53 -297h104q40 0 67.5 20t37 44.5t18 44.5t14.5 20h4l-49 -282h-4q-8 0 -9 14t-1.5 34.5t-5 41t-22.5 34.5t-50 14h-107l-45 -262q-3 -15 -3 -25q0 -44 58 -44zM-106 506l-5 10q43 35 71.5 78t43 64t35.5 21q25 0 25 -26
q0 -25 -44 -67.5t-126 -79.5z" />
    <glyph glyph-name="Etatonos" unicode="&#x389;" horiz-adv-x="747" 
d="M679 578l-77 -443q-7 -31 -7 -49q0 -37 23.5 -52t47.5 -18t24 -10v-4l-1 -2h-294v5q1 7 17.5 11t35.5 8t38.5 26t26.5 62l41 236h-321l-39 -227q-5 -25 -5 -36q0 -28 14.5 -44t31.5 -19t31.5 -6.5t14.5 -9.5q0 -1 -1 -4v-2h-290q0 5 1 7q3 7 20 10.5t35 8.5t37 32.5
t28 75.5l79 443q2 14 2 19q0 25 -14.5 38.5t-31.5 16t-31.5 6.5t-14.5 10q-1 4 1 6h291q0 -3 -2 -7q-5 -7 -31.5 -10.5t-52 -20t-32.5 -57.5l-38 -215h321l38 214q2 14 2 19q0 31 -21.5 44t-43 16.5t-21.5 10.5l1 3v3h281q0 -4 -1 -6q-3 -7 -19.5 -10.5t-34.5 -6.5
t-35.5 -21t-23.5 -51zM-97 506l-5 10q43 35 71.5 78t43 64t35.5 21q25 0 25 -26q0 -25 -44 -67.5t-126 -79.5z" />
    <glyph glyph-name="Iotatonos" unicode="&#x38a;" horiz-adv-x="363" 
d="M284 578l-83 -467q-7 -40 6.5 -62t34.5 -25.5t38.5 -7t16.5 -11.5l-1 -5h-297l1 5q1 7 16.5 11t35 7.5t39 26t26.5 62.5l82 465q4 23 -1 39t-15 23t-22.5 11.5t-23.5 5.5t-18 4t-6 8l1 6h287l-1 -6q-1 -8 -27 -11t-54 -20t-35 -59zM-92 506l-5 10q43 35 71.5 78t43 64
t35.5 21q25 0 25 -26q0 -25 -44 -67.5t-126 -79.5z" />
    <glyph glyph-name="Omicrontonos" unicode="&#x38c;" horiz-adv-x="694" 
d="M426 682q119 0 185 -76.5t66 -196.5q0 -110 -50 -207t-136.5 -155t-186.5 -58q-121 0 -185 74t-64 192q0 110 49 208t135 158.5t187 60.5zM423 667q-71 0 -127 -46t-87.5 -117t-47.5 -146.5t-16 -144.5q0 -209 165 -209q71 0 126.5 43t87 112t47.5 144t16 149
q0 215 -164 215zM-71 506l-5 10q43 35 71.5 78t43 64t35.5 21q25 0 25 -26q0 -25 -44 -67.5t-126 -79.5z" />
    <glyph glyph-name="Upsilontonos" unicode="&#x38e;" horiz-adv-x="566" 
d="M329 323l141 208q38 57 38 79q0 16 -10 26t-21.5 13t-21.5 7t-10 10t1 7h205v-5q-1 -7 -13 -11t-30 -9t-47 -29.5t-58 -67.5l-168 -248l-32 -179q-3 -15 -3 -27q0 -33 14.5 -51.5t32.5 -22t32.5 -7t14.5 -10.5q0 -5 -1 -6h-295q1 1 1 5q1 8 17 12t35.5 8t39.5 29t28 71
l29 168l-104 289q-13 35 -36 51.5t-39 21.5t-16 13v5h261v-2q0 -9 -13 -14t-28.5 -7t-28.5 -12.5t-13 -29.5q0 -14 5 -26zM-133 506l-5 10q43 35 71.5 78t43 64t35.5 21q25 0 25 -26q0 -25 -44 -67.5t-126 -79.5z" />
    <glyph glyph-name="Omegatonos" unicode="&#x38f;" horiz-adv-x="755" 
d="M393 0l-2 3q11 31 38.5 56.5t64 60t62.5 81.5q66 121 66 250q0 91 -41.5 154.5t-131.5 63.5q-68 0 -124 -40t-89 -101t-50.5 -127t-17.5 -125t13.5 -100.5t30.5 -60.5t35.5 -48t24.5 -64l-2 -3h-44q-102 0 -200 -11l-8 227q2 1 6 1q7 0 9 -13q17 -101 54.5 -145
t108.5 -44h58q-16 53 -76 102q-100 82 -100 193q0 62 25.5 127t71 121t118.5 91.5t159 35.5q129 0 195.5 -74.5t66.5 -183.5q0 -151 -128 -265q-18 -16 -61.5 -46.5t-74 -56t-37.5 -44.5h29q96 0 152.5 44.5t106.5 143.5q7 12 13 12q4 0 6 -1l-78 -225q-104 11 -219 11h-30z
M-48 506l-5 10q43 35 71.5 78t43 64t35.5 21q25 0 25 -26q0 -25 -44 -67.5t-126 -79.5z" />
    <glyph glyph-name="iotadieresistonos" unicode="&#x390;" horiz-adv-x="277" 
d="M106 -11q-22 0 -32 9.5t-10 33.5q0 15 4 30l70 360q-38 -21 -101 -82l-8 8q88 102 130 102q48 0 48 -51q0 -18 -5 -43q-7 -36 -31 -153.5t-37 -182.5q34 20 100 75l7 -8q-39 -41 -78 -69.5t-57 -28.5zM81 638q16 0 26.5 -11.5t10.5 -28.5q0 -21 -17 -37.5t-38 -16.5
q-16 0 -26 10.5t-10 26.5q0 22 16.5 39.5t37.5 17.5zM311 638q16 0 26.5 -11.5t10.5 -28.5q0 -21 -17 -37.5t-38 -16.5q-16 0 -26 10.5t-10 25.5q0 23 16 40.5t38 17.5zM90 505l-6 9q34 29 60 63t37.5 56t25.5 37.5t31 15.5q12 0 19 -7.5t7 -18.5q0 -25 -47 -71t-127 -84z
" />
    <glyph glyph-name="Alpha" unicode="&#x391;" horiz-adv-x="648" 
d="M93 112l244 462q14 28 13 43.5t-12 24t-23.5 12t-22 7.5t-8.5 10l1 5h141q28 -161 104 -587q5 -31 19.5 -48.5t28.5 -20.5t25 -6t11 -8v-6h-250l1 6q1 6 14 9t27.5 5t27 14.5t12.5 35.5q0 4 -2 20l-23 129h-256q-69 -130 -69 -156q0 -19 13.5 -30t29.5 -13t29.5 -5
t13.5 -8q0 -6 -1 -7h-221v5q1 7 14 10.5t31 8.5t43 27.5t45 60.5zM418 233l-57 350l-3 1l-185 -351h245z" />
    <glyph glyph-name="Beta" unicode="&#x392;" horiz-adv-x="630" 
d="M308 0h-317q1 2 1 6q1 7 17 10t35 7t38.5 27t27.5 65l69 390q1 8 4.5 27.5t6 33t2.5 19.5q0 28 -14 44t-31.5 19.5t-31.5 7t-14 8.5q0 2 2 10h284q112 0 164.5 -39.5t52.5 -96.5q0 -71 -60.5 -116t-155.5 -53q100 -5 151 -52.5t51 -112.5q0 -34 -17.5 -69t-51 -65.5
t-89 -50t-124.5 -19.5zM311 361l2 15q25 0 50 4.5t53 17t49.5 31t35.5 49t14 69.5q0 55 -46 83t-114 28h-64l-100 -563q-4 -24 -4 -33q0 -47 66 -47h35q85 0 148 52t63 156q0 39 -17.5 67.5t-46.5 43t-59.5 21t-64.5 6.5z" />
    <glyph glyph-name="Gamma" unicode="&#x393;" horiz-adv-x="572" 
d="M289 658l-93 -535q-4 -20 -4 -38q0 -29 15 -45t33.5 -18.5t33.5 -5.5t15 -10q0 -5 -1 -6h-297l1 5q2 8 20.5 11t43 14t37.5 36q12 24 19 63l75 431q4 24 4 35q0 34 -22.5 47t-45 15t-22.5 8v9h309q147 0 212 27l-13 -223h-4q-5 0 -7.5 1.5t-4.5 6.5t-2.5 10t-2 15
t-2.5 18q-13 76 -46 102.5t-109 26.5h-142z" />
    <glyph glyph-name="Delta" unicode="&#x394;" horiz-adv-x="610" 
d="M-9 0q0 5 1 9l391 670h12q25 -112 75 -335t76 -334q0 -4 -2 -10h-553zM334 566q-208 -358 -313 -536h430q-18 79 -56 257.5t-61 278.5z" />
    <glyph glyph-name="Epsilon" unicode="&#x395;" horiz-adv-x="619" 
d="M243 15h71q93 0 150.5 47t124.5 163q9 14 16 14q1 0 3 -1h3l-90 -256q-58 18 -206 18h-323l1 6q1 8 18.5 9.5t41.5 12.5t38 39q14 29 21 66l74 427q4 24 4 35q0 34 -22.5 47t-45 15t-22.5 8v9h301q147 0 212 27l-13 -223h-5q-4 0 -6.5 3t-4.5 9.5t-3.5 12t-3 14
t-2.5 13.5q-18 78 -48 103t-105 25h-133l-53 -297h104q40 0 67.5 20t37 44.5t18 44.5t14.5 20h4l-49 -282h-4q-8 0 -9 14t-1.5 34.5t-5 41t-22.5 34.5t-50 14h-107l-45 -262q-3 -15 -3 -25q0 -44 58 -44z" />
    <glyph glyph-name="Zeta" unicode="&#x396;" horiz-adv-x="580" 
d="M507 658h-188q-80 0 -126 -38.5t-92 -138.5q-6 -15 -15 -12l-4 1l64 227q64 -23 213 -23h253l-2 -14l-518 -645h190q68 0 114 22.5t81.5 67.5t85.5 136q8 14 15 13l6 -1l-100 -274q-74 21 -176 21h-327l2 13q174 215 524 645z" />
    <glyph glyph-name="Eta" unicode="&#x397;" horiz-adv-x="747" 
d="M679 578l-77 -443q-7 -31 -7 -49q0 -37 23.5 -52t47.5 -18t24 -10v-4l-1 -2h-294v5q1 7 17.5 11t35.5 8t38.5 26t26.5 62l41 236h-321l-39 -227q-5 -25 -5 -36q0 -28 14.5 -44t31.5 -19t31.5 -6.5t14.5 -9.5q0 -1 -1 -4v-2h-290q0 5 1 7q3 7 20 10.5t35 8.5t37 32.5
t28 75.5l79 443q2 14 2 19q0 25 -14.5 38.5t-31.5 16t-31.5 6.5t-14.5 10q-1 4 1 6h291q0 -3 -2 -7q-5 -7 -31.5 -10.5t-52 -20t-32.5 -57.5l-38 -215h321l38 214q2 14 2 19q0 31 -21.5 44t-43 16.5t-21.5 10.5l1 3v3h281q0 -4 -1 -6q-3 -7 -19.5 -10.5t-34.5 -6.5
t-35.5 -21t-23.5 -51z" />
    <glyph glyph-name="Theta" unicode="&#x398;" horiz-adv-x="733" 
d="M445 682q127 0 198 -78.5t71 -202.5q0 -163 -115.5 -287t-275.5 -124q-128 0 -197.5 76t-69.5 199q0 172 114.5 294.5t274.5 122.5zM442 667q-72 0 -130.5 -43.5t-93 -110.5t-52.5 -139.5t-18 -138.5q0 -102 43 -166.5t138 -64.5q73 0 131 42t92 107.5t51.5 137.5
t17.5 140q0 50 -9.5 90.5t-29.5 74t-55.5 52.5t-84.5 19zM220 286l-9 5q42 102 121 102q24 0 75 -11.5t70 -11.5q40 0 72 48l10 -3q-21 -59 -49.5 -84t-69.5 -25q-23 0 -67.5 12.5t-64.5 12.5q-53 0 -88 -45z" />
    <glyph glyph-name="Iota" unicode="&#x399;" horiz-adv-x="363" 
d="M284 578l-83 -467q-7 -40 6.5 -62t34.5 -25.5t38.5 -7t16.5 -11.5l-1 -5h-297l1 5q1 7 16.5 11t35 7.5t39 26t26.5 62.5l82 465q4 23 -1 39t-15 23t-22.5 11.5t-23.5 5.5t-18 4t-6 8l1 6h287l-1 -6q-1 -8 -27 -11t-54 -20t-35 -59z" />
    <glyph glyph-name="Kappa" unicode="&#x39a;" horiz-adv-x="670" 
d="M299 341h-67l-41 -230q-3 -15 -3 -26q0 -28 14.5 -44t31.5 -19t31.5 -6.5t14.5 -9.5v-4l-1 -2h-288l1 5q2 9 17.5 12.5t34 8t38 30.5t28.5 74l79 447q2 14 2 20q0 25 -13.5 38.5t-29 16t-29 6t-13.5 10.5v5h284l-1 -5q-2 -8 -18.5 -12t-35.5 -7t-38 -21t-24 -50
q-26 -148 -38 -221h83l201 200q42 41 42 65q0 17 -16 24.5t-32 10.5t-16 10v7h240q0 -5 -1 -7q-2 -8 -17 -12t-37 -7.5t-62 -28t-84 -67.5l-165 -162l158 -295q18 -34 41.5 -52.5t41 -21t29.5 -6t12 -10.5v-5h-276v6q0 8 17.5 11t35 10.5t17.5 25.5q0 13 -8 29z" />
    <glyph glyph-name="Lambda" unicode="&#x39b;" horiz-adv-x="648" 
d="M346 560q-222 -419 -236 -451q-14 -31 -14 -46q0 -19 13.5 -30t29.5 -13t29.5 -5t13.5 -8q0 -6 -1 -7h-221v5q1 7 14 10.5t31 8.5t43 27.5t45 60.5l300 566h14l119 -589q6 -31 21 -48.5t29.5 -20.5t26 -6t11.5 -8v-6h-257l1 6q1 6 14.5 9.5t29 5.5t28 14.5t12.5 34.5
q0 4 -2 20l-91 469z" />
    <glyph glyph-name="Mu" unicode="&#x39c;" horiz-adv-x="848" 
d="M443 213l39 -121l-10 -6q-17 26 -38.5 36.5t-56.5 11.5l-154 468h-1l-88 -451q-9 -41 -5 -80q2 -22 16 -34.5t29 -14.5t26 -6t10 -11v-5h-220v5q1 8 17.5 12.5t36 10.5t41 37.5t32.5 85.5l83 420q5 27 -1.5 45t-19 24.5t-26 10t-23 6.5t-8.5 9l1 8h166l148 -442l277 442
h176l-1 -8q-1 -7 -17.5 -11t-36 -8.5t-38.5 -24t-24 -52.5l-73 -463q-6 -37 6 -58t30 -25t33 -8t14 -11v-5h-278v5q1 7 17 11.5t34.5 9t37 24.5t23.5 56l82 512h-2z" />
    <glyph glyph-name="Nu" unicode="&#x39d;" horiz-adv-x="706" 
d="M272 674q42 -84 138 -259.5t141 -265.5l67 382q7 45 0.5 69t-22 35.5t-31.5 14t-27 6t-10 10.5l1 7h234l-1 -6q-1 -8 -20 -12t-44.5 -16.5t-40.5 -39.5q-15 -28 -24 -79l-93 -527h-15l-323 608h-1l-81 -461q-7 -45 -0.5 -68.5t21.5 -35t30.5 -14.5t26.5 -6.5t10 -10.5v-5
h-230v5q0 6 7 9t22.5 6.5t25.5 6.5q28 10 45.5 38.5t28.5 88.5l73 419q5 28 -2.5 45.5t-21.5 23.5t-28.5 9t-24.5 6t-9 9l1 8h177z" />
    <glyph glyph-name="Xi" unicode="&#x39e;" horiz-adv-x="657" 
d="M172 289l-9 5q57 109 134 109q26 0 80.5 -14t74.5 -14q42 0 75 48l10 -3q-23 -62 -53 -88t-73 -26q-25 0 -78 16t-73 16q-50 0 -88 -49zM613 224l-90 -239q-50 15 -235 15q-179 0 -254 -15l5 239l3 1q10 2 12 -11q14 -91 41 -115t107 -24h196q76 0 110.5 25.5t86.5 113.5
q7 14 15 11zM501 603h-226q-67 0 -91 -14t-57 -76q-6 -13 -13 -11l-4 1l49 186q73 -15 247 -15q166 0 240 15l-17 -186l-3 -1q-4 -1 -6.5 2.5t-3.5 8.5q-10 62 -29 76t-86 14z" />
    <glyph glyph-name="Omicron" unicode="&#x39f;" horiz-adv-x="694" 
d="M426 682q119 0 185 -76.5t66 -196.5q0 -110 -50 -207t-136.5 -155t-186.5 -58q-121 0 -185 74t-64 192q0 110 49 208t135 158.5t187 60.5zM423 667q-71 0 -127 -46t-87.5 -117t-47.5 -146.5t-16 -144.5q0 -209 165 -209q71 0 126.5 43t87 112t47.5 144t16 149
q0 215 -164 215z" />
    <glyph glyph-name="Pi" unicode="&#x3a0;" horiz-adv-x="742" 
d="M111 134l75 422q5 30 5 38q0 31 -23.5 45t-47.5 17t-24 9q0 4 1 8h694q-1 -1 -1 -6q-1 -7 -17 -10.5t-34 -6.5t-36 -21t-24 -51l-77 -443q-7 -31 -7 -49q0 -37 23.5 -52t47.5 -18t24 -10v-4l-1 -2h-294v5q1 7 17.5 11t35.5 8t38.5 26t26.5 62l96 546h-321l-94 -537
q-5 -25 -5 -36q0 -28 14.5 -44t31.5 -19t31.5 -6.5t14.5 -9.5q0 -1 -1 -4v-2h-290q0 5 1 7q3 7 20 10.5t35 8.5t37 32.5t28 75.5z" />
    <glyph glyph-name="Rho" unicode="&#x3a1;" horiz-adv-x="568" 
d="M224 288l-32 -177q-3 -9 -3 -26q0 -30 16 -46t35 -18t34 -5.5t14 -10.5l-1 -5h-297l1 5q1 7 16.5 11t35 7.5t39 26t26.5 62.5l82 465q2 14 2 19q0 21 -9.5 34t-22.5 17.5t-26.5 7t-22 5t-7.5 8.5l1 6h256q110 0 170.5 -46t60.5 -122q0 -74 -44.5 -127t-107.5 -75.5
t-134 -22.5q-46 0 -82 7zM290 658l-64 -354q32 -7 71 -7q92 0 147.5 58.5t55.5 157.5q0 70 -47 107.5t-121 37.5h-42z" />
    <glyph glyph-name="Sigma" unicode="&#x3a3;" horiz-adv-x="597" 
d="M343 378l-273 -300h294q70 0 111 33t95 136q9 15 16 15q1 0 3 -0.5t3 -0.5l-96 -261h-507q0 5 2 13l278 309l-171 336l2 16h299q140 0 189 29l-16 -227h-7q-6 0 -8 12q-13 97 -46.5 133.5t-111.5 36.5h-196z" />
    <glyph glyph-name="Tau" unicode="&#x3a4;" horiz-adv-x="588" 
d="M108 694q83 -20 259 -20q75 0 110.5 1t80 6t77.5 15l-17 -226h-5q-7 0 -9 13q-14 109 -46 142t-120 33h-31l-98 -549q-2 -9 -2 -25q0 -23 9.5 -37.5t23 -19.5t26.5 -7.5t21.5 -5.5t7.5 -9v-5h-289v5q1 7 17.5 11.5t36 8t39 25t26.5 59.5l97 549h-28q-94 0 -138 -36
t-93 -141q-7 -13 -13 -12l-4 1z" />
    <glyph glyph-name="Upsilon" unicode="&#x3a5;" horiz-adv-x="566" 
d="M329 323l141 208q38 57 38 79q0 16 -10 26t-21.5 13t-21.5 7t-10 10t1 7h205v-5q-1 -7 -13 -11t-30 -9t-47 -29.5t-58 -67.5l-168 -248l-32 -179q-3 -15 -3 -27q0 -33 14.5 -51.5t32.5 -22t32.5 -7t14.5 -10.5q0 -5 -1 -6h-295q1 1 1 5q1 8 17 12t35.5 8t39.5 29t28 71
l29 168l-104 289q-13 35 -36 51.5t-39 21.5t-16 13v5h261v-2q0 -9 -13 -14t-28.5 -7t-28.5 -12.5t-13 -29.5q0 -14 5 -26z" />
    <glyph glyph-name="Phi" unicode="&#x3a6;" horiz-adv-x="750" 
d="M735 374q0 -113 -96.5 -192t-248.5 -88q-4 -31 10.5 -49t34.5 -21.5t36.5 -7.5t15.5 -11l-1 -5h-297l1 5q1 7 15.5 10.5t32 6.5t37 21.5t28.5 50.5q-45 4 -87.5 18t-80 38t-60 63.5t-22.5 88.5q0 110 95 192.5t242 95.5q3 23 -5.5 37t-22.5 19.5t-27.5 8t-23 5t-8.5 8.5
l1 6h287l-1 -6q-1 -7 -16.5 -10.5t-33.5 -6t-37 -18t-26 -43.5q122 -7 190 -66t68 -150zM474 576l-83 -467q107 6 179.5 89t72.5 201q0 79 -44 126t-125 51zM146 283q0 -77 42 -122t118 -52l82 466q-102 -8 -172 -91.5t-70 -200.5z" />
    <glyph glyph-name="Chi" unicode="&#x3a7;" horiz-adv-x="622" 
d="M382 106l-86 200l-116 -146q-71 -88 -71 -110q0 -14 11.5 -21.5t24.5 -9.5t24.5 -5t11.5 -9q0 -1 -1 -3v-2h-221q0 8 3 11q3 4 18.5 7t41 14t51.5 34q38 33 101 110l116 143l-101 230q-15 37 -22 49q-10 18 -23 29.5t-25 16.5t-22.5 7.5t-16.5 5t-6 7.5q0 2 2 9h268v-4
q0 -9 -13 -12.5t-28 -5t-28 -11.5t-13 -30q0 -19 22 -69l66 -151l128 160q37 47 37 71q0 21 -29 29.5t-29 15.5q0 2 1 7h218v-3q0 -7 -6 -10.5t-16.5 -5t-28 -8.5t-37 -17.5t-47.5 -35t-56 -59.5l-129 -158l98 -223q21 -48 35 -73t34.5 -40t36.5 -18t27.5 -6.5t11.5 -8.5
t-1 -7h-287l1 6q1 8 21 11.5t39.5 13t19.5 30.5t-10 45z" />
    <glyph glyph-name="Psi" unicode="&#x3a8;" horiz-adv-x="794" 
d="M495 578l-65 -365q95 11 150 80t73 171l37 207l3 3h169l-1 -5q-1 -7 -15.5 -11t-31.5 -7.5t-34 -20.5t-22 -47l-19 -103q-23 -125 -107 -198t-204 -82l-16 -89q-7 -40 6.5 -62t34.5 -25.5t38.5 -7t16.5 -11.5l-1 -5h-297l1 5q1 7 16.5 11t35 7.5t39 26t26.5 62.5l15 88
q-116 9 -172 78t-36 185l19 111q4 25 -2.5 42t-18.5 24t-24.5 11t-21 8t-7.5 10l1 5q102 2 170 6l3 -3l-37 -212q-9 -63 -5.5 -116t38 -90.5t96.5 -45.5l64 364q4 23 -1 39t-15 23t-22.5 11.5t-23.5 5.5t-18 4t-6 8l1 6h287l-1 -6q-1 -8 -26.5 -11t-54 -20t-35.5 -59z" />
    <glyph glyph-name="Omega" unicode="&#x3a9;" horiz-adv-x="743" 
d="M393 0l-2 3q11 31 38.5 56.5t64 60t62.5 81.5q66 121 66 250q0 91 -41.5 154.5t-131.5 63.5q-68 0 -124 -40t-89 -101t-50.5 -127t-17.5 -125t13.5 -100.5t30.5 -60.5t35.5 -48t24.5 -64l-2 -3h-44q-102 0 -200 -11l-8 227q2 1 6 1q7 0 9 -13q17 -101 54.5 -145
t108.5 -44h58q-16 53 -76 102q-100 82 -100 193q0 62 25.5 127t71 121t118.5 91.5t159 35.5q129 0 195.5 -74.5t66.5 -183.5q0 -151 -128 -265q-18 -16 -61.5 -46.5t-74 -56t-37.5 -44.5h29q96 0 152.5 44.5t106.5 143.5q7 12 13 12q4 0 6 -1l-78 -225q-104 11 -219 11h-30z
" />
    <glyph glyph-name="Iotadieresis" unicode="&#x3aa;" horiz-adv-x="362" 
d="M284 578l-83 -467q-7 -40 6.5 -62t34.5 -25.5t38.5 -7t16.5 -11.5l-1 -5h-297l1 5q1 7 16.5 11t35 7.5t39 26t26.5 62.5l82 465q4 23 -1 39t-15 23t-22.5 11.5t-23.5 5.5t-18 4t-6 8l1 6h287l-1 -6q-1 -8 -27 -11t-54 -20t-35 -59zM206 828q16 0 26 -11.5t10 -28.5
q0 -22 -16 -38t-37 -16q-16 0 -27 10.5t-11 26.5q0 22 17 39.5t38 17.5zM371 828q16 0 26.5 -11.5t10.5 -28.5q0 -22 -16 -38t-37 -16q-16 0 -27 10.5t-11 26.5q0 22 16.5 39.5t37.5 17.5z" />
    <glyph glyph-name="Upsilondieresis" unicode="&#x3ab;" horiz-adv-x="566" 
d="M329 323l141 208q38 57 38 79q0 16 -10 26t-21.5 13t-21.5 7t-10 10t1 7h205v-5q-1 -7 -13 -11t-30 -9t-47 -29.5t-58 -67.5l-168 -248l-32 -179q-3 -15 -3 -27q0 -33 14.5 -51.5t32.5 -22t32.5 -7t14.5 -10.5q0 -5 -1 -6h-295q1 1 1 5q1 8 17 12t35.5 8t39.5 29t28 71
l29 168l-104 289q-13 35 -36 51.5t-39 21.5t-16 13v5h261v-2q0 -9 -13 -14t-28.5 -7t-28.5 -12.5t-13 -29.5q0 -14 5 -26zM326 826q16 0 26 -11.5t10 -28.5q0 -22 -16 -38t-37 -16q-16 0 -27 10.5t-11 26.5q0 22 17 39.5t38 17.5zM491 826q16 0 26.5 -11.5t10.5 -28.5
q0 -22 -16 -38t-37 -16q-16 0 -27 10.5t-11 26.5q0 22 16.5 39.5t37.5 17.5z" />
    <glyph glyph-name="alphatonos" unicode="&#x3ac;" horiz-adv-x="518" 
d="M176 17q49 0 108 95t84 212l14 64q-45 42 -96 42q-71 0 -122 -89t-51 -204q0 -120 63 -120zM152 -11q-118 0 -118 154q0 71 26 139.5t82 117.5t129 49q69 0 122 -49q15 5 38.5 23t31.5 29h11q-46 -154 -84 -430q52 32 93 71l7 -8q-90 -95 -128 -95q-44 0 -44 43
q0 22 11.5 89.5t20.5 98.5h-2q-47 -127 -99.5 -179.5t-96.5 -52.5zM251 506l-5 10q43 35 71.5 78t43 64t35.5 21q25 0 25 -26q0 -25 -44 -67.5t-126 -79.5z" />
    <glyph glyph-name="epsilontonos" unicode="&#x3ad;" horiz-adv-x="394" 
d="M208 506l-5 10q43 35 71.5 78t43 64t35.5 21q25 0 25 -26q0 -25 -44 -67.5t-126 -79.5zM194 231v3q-114 15 -114 88q0 46 44.5 86t139.5 40q53 0 88 -20.5t35 -57.5q0 -20 -11.5 -33.5t-30.5 -13.5q-21 0 -32.5 12.5t-11.5 31.5q0 32 20 57q-20 8 -48 8q-47 0 -82 -31
t-35 -83q0 -46 34 -61.5t93 -15.5q0 -1 1 -4l-3 -10q-74 -2 -122 -39t-48 -104q0 -77 90 -77q85 0 159 51l6 -9q-74 -59 -166 -59q-80 0 -124 23t-44 80q0 16 7.5 36t24 42t50.5 39t80 21z" />
    <glyph glyph-name="etatonos" unicode="&#x3ae;" horiz-adv-x="508" 
d="M157 451q50 0 50 -48q0 -22 -15.5 -97.5t-30.5 -132.5h2q56 148 114 212t101 64q75 0 75 -78q0 -27 -6 -55l-98 -457q17 8 50.5 33.5t48.5 41.5l8 -8q-91 -96 -131 -96q-46 0 -46 43q0 7 4 27l91 415q8 38 8 57q0 44 -35 44q-30 0 -73.5 -57.5t-80.5 -143t-52 -162.5
l-10 -53h-74q54 282 80 423q-23 -13 -54 -38.5t-47 -44.5l-8 8q87 103 129 103zM229 506l-5 10q43 35 71.5 78t43 64t35.5 21q25 0 25 -26q0 -25 -44 -67.5t-126 -79.5z" />
    <glyph glyph-name="iotatonos" unicode="&#x3af;" horiz-adv-x="277" 
d="M106 -11q-22 0 -32 9.5t-10 33.5q0 15 4 30l70 360q-38 -21 -101 -82l-8 8q88 102 130 102q48 0 48 -51q0 -18 -5 -43q-7 -36 -31 -153.5t-37 -182.5q34 20 100 75l7 -8q-39 -41 -78 -69.5t-57 -28.5zM109 506l-5 10q43 35 71.5 78t43 64t35.5 21q25 0 25 -26
q0 -25 -44 -67.5t-126 -79.5z" />
    <glyph glyph-name="upsilondieresistonos" unicode="&#x3b0;" horiz-adv-x="510" 
d="M86 172l51 249q-35 -17 -100 -79q-1 1 -4 4.5t-4 4.5q89 98 131 98q47 0 47 -45q0 -4 -5 -34l-47 -228q-8 -37 -8 -56q0 -39 14.5 -61t55.5 -22q44 0 80.5 31.5t57.5 80t32.5 99.5t11.5 97q0 100 -50 132q1 4 5 12q60 -12 88.5 -59.5t28.5 -108.5q0 -111 -74.5 -204.5
t-186.5 -93.5q-130 0 -130 122q0 35 6 61zM206 638q16 0 26.5 -11.5t10.5 -28.5q0 -21 -17 -37.5t-38 -16.5q-16 0 -26 10.5t-10 26.5q0 22 16.5 39.5t37.5 17.5zM436 638q16 0 26.5 -11.5t10.5 -28.5q0 -21 -17 -37.5t-38 -16.5q-16 0 -26 10.5t-10 25.5q0 23 16 40.5
t38 17.5zM215 505l-6 9q34 29 60 63t37.5 56t25.5 37.5t31 15.5q12 0 19 -7.5t7 -18.5q0 -25 -47 -71t-127 -84z" />
    <glyph glyph-name="alpha" unicode="&#x3b1;" horiz-adv-x="518" 
d="M176 17q49 0 108 95t84 212l14 64q-45 42 -96 42q-71 0 -122 -89t-51 -204q0 -120 63 -120zM152 -11q-118 0 -118 154q0 71 26 139.5t82 117.5t129 49q69 0 122 -49q15 5 38.5 23t31.5 29h11q-46 -154 -84 -430q52 32 93 71l7 -8q-90 -95 -128 -95q-44 0 -44 43
q0 22 11.5 89.5t20.5 98.5h-2q-47 -127 -99.5 -179.5t-96.5 -52.5z" />
    <glyph glyph-name="beta" unicode="&#x3b2;" horiz-adv-x="482" 
d="M206 396l1 14q97 11 144.5 69.5t47.5 153.5q0 38 -19.5 61t-56.5 23q-100 0 -126 -139l-105 -539q48 -34 96 -34q49 0 90 42t62 102t21 120q0 126 -155 127zM-17 -153l128 660q18 90 83 158t142 68q69 0 102.5 -35.5t33.5 -90.5q0 -80 -58 -139t-160 -59l-1 -4
q98 0 143 -39t45 -106q0 -64 -28 -125t-84.5 -103t-126.5 -42q-60 0 -109 34l-5 -4q-10 -46 -24.5 -86t-36 -79t-53.5 -62t-70 -23q-25 0 -44 13t-19 34t14 32t33 11q21 0 37.5 -19t15.5 -51q21 6 29 20t13 37z" />
    <glyph glyph-name="gamma" unicode="&#x3b3;" horiz-adv-x="410" 
d="M358 452q19 0 31.5 -12.5t12.5 -37.5q0 -66 -53 -145t-143 -175q3 -40 -1 -88.5t-17 -102t-44.5 -89t-77.5 -35.5q-31 0 -46 17.5t-15 37.5q0 85 137 218q-3 185 -61 385q-40 -38 -87 -100l-9 6q77 120 119 120q26 0 36.5 -13.5t19.5 -43.5q38 -126 46 -292
q136 145 168 243q-21 2 -40 17t-19 43q0 15 10 31t33 16zM21 -166q0 -27 23 -27q38 0 68 62.5t30 154.5q-121 -123 -121 -190z" />
    <glyph glyph-name="delta" unicode="&#x3b4;" horiz-adv-x="479" 
d="M200 3q71 0 119 84.5t48 180.5q0 106 -101 169q-67 -14 -112 -106t-45 -208q0 -120 91 -120zM336 734q56 0 95.5 -25.5t39.5 -64.5q0 -22 -12 -36.5t-30 -14.5q-20 0 -30.5 13t-10.5 33q0 41 31 59q-30 22 -83 22q-48 0 -88.5 -28t-40.5 -77q0 -27 24.5 -53.5t59.5 -52.5
t70 -56.5t59.5 -78.5t24.5 -106q0 -102 -71 -190.5t-180 -88.5q-80 0 -121.5 47t-41.5 121q0 104 62 187.5t158 101.5q-102 63 -102 136q0 60 49.5 106t137.5 46z" />
    <glyph glyph-name="epsilon" unicode="&#x3b5;" horiz-adv-x="394" 
d="M194 231v3q-114 15 -114 88q0 46 44.5 86t139.5 40q53 0 88 -20.5t35 -57.5q0 -20 -11.5 -33.5t-30.5 -13.5q-21 0 -32.5 12.5t-11.5 31.5q0 32 20 57q-20 8 -48 8q-47 0 -82 -31t-35 -83q0 -46 34 -61.5t93 -15.5q0 -1 1 -4l-3 -10q-74 -2 -122 -39t-48 -104
q0 -77 90 -77q85 0 159 51l6 -9q-74 -59 -166 -59q-80 0 -124 23t-44 80q0 16 7.5 36t24 42t50.5 39t80 21z" />
    <glyph glyph-name="zeta" unicode="&#x3b6;" horiz-adv-x="347" 
d="M524 698l4 -6q-79 -58 -148.5 -117.5t-132.5 -125.5t-99.5 -132t-36.5 -120q0 -42 33.5 -75.5t74 -51.5t74 -42.5t33.5 -51.5q0 -37 -44 -73.5t-111 -51.5l-5 11q50 13 77.5 38t27.5 45q0 16 -24.5 31.5t-59.5 32t-70 36.5t-59.5 54.5t-24.5 77.5q0 46 31.5 102.5
t79.5 109t109 106.5t115 94t103 72l-1 2q-36 -21 -107 -41.5t-118 -20.5q-71 0 -71 51q0 36 36 76h9q3 -38 34.5 -59.5t86.5 -21.5q80 0 184 51z" />
    <glyph glyph-name="eta" unicode="&#x3b7;" horiz-adv-x="508" 
d="M157 451q50 0 50 -48q0 -22 -15.5 -97.5t-30.5 -132.5h2q56 148 114 212t101 64q75 0 75 -78q0 -27 -6 -55l-98 -457q17 8 50.5 33.5t48.5 41.5l8 -8q-91 -96 -131 -96q-46 0 -46 43q0 7 4 27l91 415q8 38 8 57q0 44 -35 44q-30 0 -73.5 -57.5t-80.5 -143t-52 -162.5
l-10 -53h-74q54 282 80 423q-23 -13 -54 -38.5t-47 -44.5l-8 8q87 103 129 103z" />
    <glyph glyph-name="theta" unicode="&#x3b8;" horiz-adv-x="476" 
d="M327 733q145 0 145 -217q0 -87 -21 -179t-58 -170t-94 -128t-121 -50q-142 0 -142 219q0 129 38.5 250t106.5 198t146 77zM182 3q27 0 49.5 12t41 37t33 54.5t28.5 74.5t24 87t23 101h-250q-28 -131 -28 -227q0 -139 79 -139zM321 718q-36 0 -66 -27t-52.5 -77t-39 -105
t-30.5 -126h250q21 120 21 193q0 70 -18.5 106t-64.5 36z" />
    <glyph glyph-name="iota" unicode="&#x3b9;" horiz-adv-x="277" 
d="M106 -11q-22 0 -32 9.5t-10 33.5q0 15 4 30l70 360q-38 -21 -101 -82l-8 8q88 102 130 102q48 0 48 -51q0 -18 -5 -43q-7 -36 -31 -153.5t-37 -182.5q34 20 100 75l7 -8q-39 -41 -78 -69.5t-57 -28.5z" />
    <glyph glyph-name="kappa" unicode="&#x3ba;" horiz-adv-x="494" 
d="M161 450q48 0 48 -50q0 -28 -19.5 -115.5t-36.5 -141.5q1 0 3 1q39 136 118.5 220.5t151.5 84.5q24 0 42.5 -12t18.5 -34q0 -21 -12.5 -32t-31.5 -11q-23 0 -37.5 15.5t-14.5 43.5q0 1 0.5 4.5t0.5 5.5q-78 -26 -141 -114q23 -81 58.5 -164t67.5 -131q16 11 44 36t38 37
l7 -8q-79 -96 -126 -96q-35 0 -74 80.5t-61 168.5q-43 -90 -66 -207l-6 -31h-74q73 376 81 422q-17 -9 -50.5 -36t-50.5 -46l-7 8q86 102 129 102z" />
    <glyph glyph-name="lambda" unicode="&#x3bb;" horiz-adv-x="473" 
d="M64 94l190 342q-5 49 -12.5 141t-10.5 122q-27 -15 -88 -64l-7 8q82 86 121 86q28 0 40 -15.5t15 -51.5q13 -154 26.5 -314t19.5 -235.5t8 -89.5q16 11 40 39t37 49q3 -3 9 -7q-69 -114 -112 -114q-27 0 -37 17.5t-14 53.5l-34 348l-178 -322q-18 -31 -10 -46.5
t24.5 -18.5t33.5 -6.5t17 -10.5v-5h-191v5q0 6 10.5 9.5t25.5 6.5t37 21.5t40 51.5z" />
    <glyph glyph-name="nu" unicode="&#x3bd;" horiz-adv-x="428" 
d="M114 449q30 0 41 -17.5t15 -47.5q19 -142 26 -307q49 55 78.5 90t64.5 86.5t50 91.5q-20 4 -40 20.5t-20 42.5q0 16 10.5 31t31.5 15t34 -14t13 -40q0 -40 -30.5 -96t-65.5 -99t-94 -112.5t-84 -100.5h-16q-9 237 -37 428q-39 -31 -80 -97l-9 6q68 120 112 120z" />
    <glyph glyph-name="xi" unicode="&#x3be;" horiz-adv-x="360" 
d="M265 416l1 3q-78 6 -115.5 43t-37.5 91q0 83 63.5 131.5t150.5 48.5q55 0 92.5 -23t37.5 -62q0 -20 -11.5 -33.5t-31.5 -13.5q-42 0 -42 47q0 33 19 59q-27 12 -58 12q-56 0 -98.5 -42.5t-42.5 -121.5q0 -118 183 -130q-1 -4 -5 -12q-111 0 -183 -62t-72 -145
q0 -37 23 -67t56 -50.5t66 -38t56 -37t23 -40.5q0 -37 -43 -74t-110 -51q-1 4 -5 10q50 13 78 38t28 45q0 16 -26 32t-63 33.5t-74 40t-63 59.5t-26 83q0 76 60.5 142.5t169.5 84.5z" />
    <glyph glyph-name="omicron" unicode="&#x3bf;" horiz-adv-x="479" 
d="M278 449q78 0 122.5 -48.5t44.5 -124.5q0 -109 -76.5 -198t-180.5 -89q-78 0 -116 48t-38 126q0 111 71 198.5t173 87.5zM276 434q-50 0 -88.5 -47.5t-57 -115.5t-18.5 -141q0 -127 79 -127q56 0 98 51.5t60 117.5t18 130q0 132 -91 132z" />
    <glyph glyph-name="pi" unicode="&#x3c0;" horiz-adv-x="523" 
d="M125 421h-77l3 14h477l-3 -14h-74l-81 -410q47 30 100 83l8 -7q-86 -98 -128 -98q-49 0 -49 48q0 14 6 38l69 346h-175l-58 -299q-9 -48 -23.5 -90.5t-37 -85t-56 -67.5t-73.5 -25q-25 0 -44 13t-19 34t14 32t33 11q21 0 37.5 -19t15.5 -51q21 6 29 20t13 37z" />
    <glyph glyph-name="rho" unicode="&#x3c1;" horiz-adv-x="491" 
d="M304 436q-50 0 -93.5 -51.5t-69.5 -129.5t-40.5 -163t-14.5 -159q0 -64 24.5 -95.5t64.5 -31.5q64 0 132 66l9 -8q-32 -34 -85.5 -64.5t-99.5 -30.5q-119 0 -119 168q0 57 11 122.5t35 135t57.5 125.5t84.5 92t110 36q66 0 108 -45.5t42 -122.5q0 -61 -27.5 -123.5
t-84.5 -108t-130 -45.5q-30 0 -50.5 14.5t-20.5 37.5q0 19 10 31.5t26 12.5q25 0 39.5 -18t14.5 -44q0 -6 -2 -20q38 3 68 34.5t46.5 77t24.5 90t8 80.5q0 69 -17.5 103t-60.5 34z" />
    <glyph glyph-name="sigma1" unicode="&#x3c2;" horiz-adv-x="404" 
d="M38 202q0 58 23 106.5t59 78t79 45.5t85 16q57 0 95 -21.5t38 -57.5q0 -20 -12.5 -33.5t-31.5 -13.5q-21 0 -31.5 13.5t-10.5 32.5q0 28 18 54q-17 10 -51 10q-80 0 -132 -60t-52 -149q0 -39 20.5 -71t49.5 -53t58 -39t49.5 -37.5t20.5 -39.5q0 -38 -41.5 -74t-106.5 -51
l-5 11q48 15 76.5 39.5t28.5 42.5q0 16 -35.5 38.5t-77.5 45.5t-77.5 68t-35.5 99z" />
    <glyph glyph-name="sigma" unicode="&#x3c3;" horiz-adv-x="490" 
d="M362 422l-2 -3q87 -44 87 -150q0 -104 -71.5 -192t-183.5 -88q-77 0 -117 50t-40 126q0 116 71 193.5t171 77.5h218l-2 -14h-131zM277 422q-44 0 -78 -32t-52.5 -81t-27.5 -97t-9 -89q0 -122 87 -122q45 0 80.5 32.5t54.5 81.5t29 97t10 88q0 122 -94 122z" />
    <glyph glyph-name="tau" unicode="&#x3c4;" horiz-adv-x="339" 
d="M233 422l-81 -411q47 30 100 83l8 -7q-86 -98 -128 -98q-48 0 -48 48q0 13 3 28l71 357h-107l2 14h307l-2 -14h-125z" />
    <glyph glyph-name="upsilon" unicode="&#x3c5;" horiz-adv-x="509" 
d="M86 172l51 249q-35 -17 -100 -79q-1 1 -4 4.5t-4 4.5q89 98 131 98q47 0 47 -45q0 -4 -5 -34l-47 -228q-8 -37 -8 -56q0 -39 14.5 -61t55.5 -22q44 0 80.5 31.5t57.5 80t32.5 99.5t11.5 97q0 100 -50 132q1 4 5 12q60 -12 88.5 -59.5t28.5 -108.5q0 -111 -74.5 -204.5
t-186.5 -93.5q-130 0 -130 122q0 35 6 61z" />
    <glyph glyph-name="phi" unicode="&#x3c6;" horiz-adv-x="581" 
d="M419 433q-58 0 -74 -88l-66 -343q48 7 85 37.5t56.5 69t31.5 86.5t15.5 82t3.5 63q0 93 -52 93zM276 -11q-16 -86 -64 -152.5t-114 -66.5q-24 0 -43.5 13t-19.5 34q0 20 13.5 31.5t32.5 11.5q22 0 38.5 -19.5t15.5 -50.5q15 5 24.5 16.5t12.5 20.5t6 25l26 137
q-83 2 -126 52.5t-43 126.5q0 95 55 176t161 108l1 -12q-57 -34 -98 -112t-41 -194q0 -127 94 -131l51 265q13 72 57.5 126.5t108.5 54.5q57 0 89.5 -42.5t32.5 -114.5q0 -50 -18 -100t-51 -93t-85.5 -73t-115.5 -37z" />
    <glyph glyph-name="chi" unicode="&#x3c7;" horiz-adv-x="453" 
d="M301 -11q-26 0 -38 11.5t-22 39.5l-52 142q-27 -63 -58.5 -119.5t-70 -108t-82.5 -82t-86 -30.5q-25 0 -41.5 11.5t-16.5 31.5q0 21 13.5 32t32.5 11q20 0 34 -19t14 -44q70 23 138 121.5t115 215.5l-78 214q-34 -30 -80 -101l-9 6q72 130 128 130q16 0 26.5 -9t15 -18.5
t11.5 -29.5l47 -130q41 94 80.5 139t87.5 46q23 0 40.5 -12t17.5 -31q0 -21 -13.5 -32t-32.5 -11q-21 0 -34.5 17t-13.5 44q-60 -25 -125 -180l84 -226q39 34 87 107l9 -6q-72 -130 -128 -130z" />
    <glyph glyph-name="psi" unicode="&#x3c8;" horiz-adv-x="636" 
d="M217 -124l22 116q-159 14 -159 162q0 28 6 61l42 212q-42 -27 -100 -85l-8 7q89 102 131 102q46 0 46 -44q0 -13 -5 -38l-38 -194q-7 -37 -7 -60q0 -95 95 -110l94 482q5 28 -1.5 43t-17.5 17t-20 4.5t-8 9.5l1 6l134 17l2 -4l-112 -575q128 19 159 179l35 185
q16 80 84 80q22 0 54 -10l-3 -11q-30 4 -43 -13t-21 -58l-25 -128q-20 -101 -85 -165.5t-158 -73.5l-16 -90q-6 -28 -6 -44q0 -20 14 -31.5t30.5 -14t30.5 -6t14 -9.5v-5h-258v4q0 8 12.5 11t29 5t33 18.5t22.5 47.5z" />
    <glyph glyph-name="omega" unicode="&#x3c9;" horiz-adv-x="652" 
d="M331 342q51 0 51 -57q0 -96 -61 -191q7 -90 79 -90q40 0 74 47t52 119.5t18 151.5q0 85 -50 108l5 12q56 -13 86 -62.5t30 -119.5q0 -103 -61.5 -186.5t-156.5 -83.5q-34 0 -58.5 22t-31.5 62q-62 -85 -143 -85q-129 0 -129 155q0 109 58.5 195t149.5 105l2 -13
q-67 -29 -104 -142t-37 -204q0 -36 14.5 -59t46.5 -23q42 0 72.5 31t44.5 79.5t20 90.5t6 81q0 32 -29 33v10q26 14 52 14z" />
    <glyph glyph-name="iotadieresis" unicode="&#x3ca;" horiz-adv-x="277" 
d="M106 -11q-22 0 -32 9.5t-10 33.5q0 15 4 30l70 360q-38 -21 -101 -82l-8 8q88 102 130 102q48 0 48 -51q0 -18 -5 -43q-7 -36 -31 -153.5t-37 -182.5q34 20 100 75l7 -8q-39 -41 -78 -69.5t-57 -28.5zM114 634q16 0 26 -11.5t10 -28.5q0 -22 -16 -38t-37 -16
q-16 0 -27 10.5t-11 26.5q0 22 17 39.5t38 17.5zM279 634q16 0 26.5 -11.5t10.5 -28.5q0 -22 -16 -38t-37 -16q-16 0 -27 10.5t-11 26.5q0 22 16.5 39.5t37.5 17.5z" />
    <glyph glyph-name="upsilondieresis" unicode="&#x3cb;" horiz-adv-x="510" 
d="M86 172l51 249q-35 -17 -100 -79q-1 1 -4 4.5t-4 4.5q89 98 131 98q47 0 47 -45q0 -4 -5 -34l-47 -228q-8 -37 -8 -56q0 -39 14.5 -61t55.5 -22q44 0 80.5 31.5t57.5 80t32.5 99.5t11.5 97q0 100 -50 132q1 4 5 12q60 -12 88.5 -59.5t28.5 -108.5q0 -111 -74.5 -204.5
t-186.5 -93.5q-130 0 -130 122q0 35 6 61zM235 634q16 0 26 -11.5t10 -28.5q0 -22 -16.5 -38t-36.5 -16q-16 0 -27 10.5t-11 26.5q0 22 17 39.5t38 17.5zM400 634q16 0 26.5 -11.5t10.5 -28.5q0 -22 -16.5 -38t-36.5 -16q-16 0 -27 10.5t-11 26.5q0 22 16.5 39.5t37.5 17.5z
" />
    <glyph glyph-name="omicrontonos" unicode="&#x3cc;" horiz-adv-x="479" 
d="M278 449q78 0 122.5 -48.5t44.5 -124.5q0 -109 -76.5 -198t-180.5 -89q-78 0 -116 48t-38 126q0 111 71 198.5t173 87.5zM276 434q-50 0 -88.5 -47.5t-57 -115.5t-18.5 -141q0 -127 79 -127q56 0 98 51.5t60 117.5t18 130q0 132 -91 132zM243 506l-5 10q43 35 71.5 78
t43 64t35.5 21q25 0 25 -26q0 -25 -44 -67.5t-126 -79.5z" />
    <glyph glyph-name="upsilontonos" unicode="&#x3cd;" horiz-adv-x="510" 
d="M243 506l-5 10q43 35 71.5 78t43 64t35.5 21q25 0 25 -26q0 -25 -44 -67.5t-126 -79.5zM86 172l51 249q-35 -17 -100 -79q-1 1 -4 4.5t-4 4.5q89 98 131 98q47 0 47 -45q0 -4 -5 -34l-47 -228q-8 -37 -8 -56q0 -39 14.5 -61t55.5 -22q44 0 80.5 31.5t57.5 80t32.5 99.5
t11.5 97q0 100 -50 132q1 4 5 12q60 -12 88.5 -59.5t28.5 -108.5q0 -111 -74.5 -204.5t-186.5 -93.5q-130 0 -130 122q0 35 6 61z" />
    <glyph glyph-name="omegatonos" unicode="&#x3ce;" horiz-adv-x="652" 
d="M331 342q51 0 51 -57q0 -96 -61 -191q7 -90 79 -90q40 0 74 47t52 119.5t18 151.5q0 85 -50 108l5 12q56 -13 86 -62.5t30 -119.5q0 -103 -61.5 -186.5t-156.5 -83.5q-34 0 -58.5 22t-31.5 62q-62 -85 -143 -85q-129 0 -129 155q0 109 58.5 195t149.5 105l2 -13
q-67 -29 -104 -142t-37 -204q0 -36 14.5 -59t46.5 -23q42 0 72.5 31t44.5 79.5t20 90.5t6 81q0 32 -29 33v10q26 14 52 14zM323 500l-5 10q43 35 71.5 78t43 64t35.5 21q25 0 25 -26q0 -25 -44 -67.5t-126 -79.5z" />
    </font>
</defs>
</svg>
