<?xml version="1.0" standalone="no"?>
<!DOCTYPE svg PUBLIC "-//W3C//DTD SVG 1.1//EN" "http://www.w3.org/Graphics/SVG/1.1/DTD/svg11.dtd" >
<svg xmlns="http://www.w3.org/2000/svg" xmlns:xlink="http://www.w3.org/1999/xlink" version="1.1">
<metadata>
Created by FontForge 20170731 at Wed Mar 11 20:07:06 2009
 By Aleksey,,,
Copyright (c) 2005-2009 Parachute :, www.parachute.gr.  All rights reserved.
</metadata>
<defs>
<font id="PFEncoreSansPro-MediumItalic" horiz-adv-x="1818" >
  <font-face 
    font-family="PF Encore Sans Pro Medium"
    font-weight="700"
    font-style="italic"
    font-stretch="normal"
    units-per-em="1000"
    panose-1="2 0 5 3 0 0 0 9 0 4"
    ascent="750"
    descent="-250"
    x-height="485"
    cap-height="677"
    bbox="-314 -289 1760 947"
    underline-thickness="60"
    underline-position="-235"
    unicode-range="U+0020-FB05"
  />
<missing-glyph horiz-adv-x="447" 
d="M1 0v700h445v-700h-445zM96 61h255l-127 232zM224 407l127 232h-255zM62 577v-455l126 228zM260 350l125 -228v455z" />
    <glyph glyph-name="fj" unicode="fj" horiz-adv-x="547" 
d="M166 0h-113l70 404h-76l12 65l77 16l9 53q33 190 235 190q60 0 127 -15l-16 -88q-75 8 -104 8q-62 0 -90.5 -22t-38.5 -80l-8 -45h270l-86 -527q-12 -72 -43.5 -109t-100.5 -37q-22 0 -59 5l14 89q41 0 56 13t21 46l73 438h-160z" />
    <glyph glyph-name="ffj" unicode="ffj" horiz-adv-x="825" 
d="M423 -109h-113l89 513h-163l-71 -404h-114l72 404h-76l12 66l77 14l11 59q15 88 63 126.5t131 38.5q39 0 77 -9l-15 -86q-35 4 -60 4q-39 0 -57 -16t-26 -63l-10 -53h162l9 52q31 191 233 191q52 0 127 -15l-15 -89q-63 9 -104 9q-60 0 -89.5 -22.5t-39.5 -79.5l-8 -46
h273l-87 -526q-12 -72 -43.5 -109t-101.5 -37q-21 0 -58 5l14 89q41 0 56 13t21 46l72 438h-159z" />
    <glyph glyph-name="fb" unicode="fb" horiz-adv-x="877" 
d="M135 -176h-113l100 580h-75l12 65l77 16l9 51q31 186 233 186q51 0 114 -13h76l-30 -188q-10 -72 -32 -114h5q66 87 170 87q155 0 155 -177q0 -87 -25 -158.5t-82.5 -119t-140.5 -47.5q-46 0 -83.5 20t-49.5 57h-5q-9 -47 -26 -69h-90l109 623q-36 4 -57 4q-61 0 -90 -20
t-38 -75l-8 -47h112l-14 -81h-113zM572 80q66 0 107.5 61t41.5 158q0 104 -88 104q-75 0 -114 -68.5t-39 -157.5q0 -45 23.5 -71t68.5 -26z" />
    <glyph glyph-name="ffb" unicode="ffb" horiz-adv-x="1149" 
d="M422 -109h-113l91 513h-164l-102 -580h-114l103 580h-76l12 66l77 14l10 56q16 88 64 126.5t130 38.5q44 0 81 -9l-16 -86q-35 4 -62 4q-39 0 -56.5 -15.5t-26.5 -63.5l-9 -50h161l9 51q33 186 234 186q40 0 110 -12h76l-30 -189q-15 -83 -32 -113h6q65 86 169 86
q155 0 155 -177q0 -87 -25 -158t-82.5 -118.5t-140.5 -47.5q-47 0 -84 19.5t-49 57.5h-5q-8 -42 -26 -70h-90l109 623q-23 4 -56 4q-57 0 -86 -20.5t-39 -74.5l-9 -47h111l-14 -81h-110zM845 80q66 0 107.5 61t41.5 158q0 104 -88 104q-75 0 -114 -68.5t-39 -156.5
q0 -45 23.5 -71.5t68.5 -26.5z" />
    <glyph glyph-name="fh" unicode="fh" horiz-adv-x="863" 
d="M137 -177h-115l100 580h-75q8 44 11 65l78 17l9 51q18 101 76.5 144t156.5 43q36 0 113 -14h77l-34 -193q-14 -73 -31 -109h5q31 43 78 64.5t94 21.5q54 0 87 -18.5t44 -53t11 -71.5t-9 -88l-46 -262h-115l49 276q3 27 4 55t-16 49.5t-51 21.5q-67 0 -102.5 -47.5
t-46.5 -112.5l-43 -242h-114l110 623q-36 4 -57 4q-62 0 -90.5 -20.5t-37.5 -76.5l-8 -45h113l-14 -82h-114z" />
    <glyph glyph-name="ffh" unicode="ffh" horiz-adv-x="1136" 
d="M424 -109h-114l89 512h-163q-71 -399 -102 -580h-114q65 365 102 580h-75q8 44 11 66l78 15l10 54q18 95 61.5 131.5t132.5 36.5q36 0 80 -11l-16 -85q-28 4 -58 4q-36 0 -57.5 -16.5t-29.5 -62.5l-9 -50h162l9 51q33 187 234 187q46 0 114 -14h72l-34 -194
q-12 -69 -31 -108h5q31 43 78 64.5t94 21.5q143 0 143 -138q0 -31 -10 -91l-46 -264h-115l46 261q7 42 7 68q0 73 -68 73q-35 0 -63 -15t-44.5 -40t-26 -50t-14.5 -53l-43 -244h-114l111 623q-28 5 -56 5q-56 0 -85.5 -21t-39.5 -75l-9 -47h111l-14 -81h-110z" />
    <glyph glyph-name="fk" unicode="fk" horiz-adv-x="820" 
d="M135 -177h-115l102 580h-75q8 44 11 65l78 17l9 51q18 101 76.5 144t156.5 43q47 0 113 -14h78q-8 -44 -21.5 -124.5t-25 -146.5t-22.5 -125h50q55 58 167 172h135q-214 -217 -215 -218q16 -30 44.5 -84t52 -98.5t44.5 -84.5h-127q-18 37 -55 110.5t-55 110.5h-57
l-39 -221h-112q66 379 109 623q-36 4 -57 4q-62 0 -90.5 -20.5t-37.5 -76.5l-8 -45h113l-14 -82h-114z" />
    <glyph glyph-name="ffk" unicode="ffk" horiz-adv-x="1091" 
d="M422 -109h-114l89 512h-163q-100 -562 -103 -580h-114q86 479 103 580h-75q8 44 11 66l78 15l10 54q18 95 61.5 131.5t132.5 36.5q36 0 80 -11l-16 -85q-28 4 -58 4q-36 0 -57.5 -16.5t-29.5 -62.5l-9 -50h162l10 51q37 187 233 187q46 0 114 -14h74q-8 -44 -21.5 -124.5
t-25 -146.5t-22.5 -125h50q19 19 52.5 54t61.5 63.5t52 54.5h136q-214 -217 -215 -218q19 -35 66.5 -126.5t73.5 -140.5h-126q-18 37 -55 110.5t-55 110.5h-57l-39 -221h-113l110 623q-28 5 -56 5q-56 0 -85.5 -21t-39.5 -75l-9 -47h111l-14 -81h-110z" />
    <glyph glyph-name="r_y" unicode="ry" horiz-adv-x="776" 
d="M510 81l100 210q29 62 40.5 99t21.5 94h106q-2 -12 -6.5 -37.5t-6.5 -36t-7 -31t-10 -34.5t-13.5 -34.5t-19.5 -42.5l-241 -473h-117l108 204l-42 -2l-75 393q-74 -4 -118 -45.5t-56 -108.5l-42 -236h-114l85 486h90q7 -18 7 -42q0 -18 -7 -53h5q32 51 83 77.5t111 26.5
q28 0 49 -4l33 -205q19 -117 29 -205h7z" />
    <glyph glyph-name="ff" unicode="ff" horiz-adv-x="639" 
d="M436 -109h-112l86 513h-172l-102 -580h-113l102 580h-75l11 66l77 14l11 56q17 90 62 128.5t131 38.5q42 0 81 -11l-16 -87q-43 6 -63 6q-39 0 -57 -17.5t-26 -62.5l-9 -50h171l14 74q17 91 61.5 128.5t130.5 37.5q47 0 87 -11l-15 -86q-62 6 -70 6q-39 0 -57.5 -16.5
t-26.5 -63.5l-13 -69h140l-14 -81h-140z" />
    <glyph glyph-name="fi" unicode="fi" horiz-adv-x="547" 
d="M133 -176h-113l103 580h-76l12 65l77 16l9 53q33 190 235 190q60 0 127 -15l-16 -88q-75 8 -104 8q-60 0 -89.5 -22.5t-39.5 -79.5l-8 -46h272l-84 -485h-114l71 404h-160z" />
    <glyph glyph-name="fl" unicode="fl" horiz-adv-x="554" 
d="M133 -176h-113l102 580h-75l12 65l77 16l10 53q20 103 79.5 144.5t153.5 41.5q55 0 118 -13h72l-125 -711h-111l110 625q-45 5 -57 5q-60 0 -90 -20.5t-39 -75.5l-8 -49h116l-15 -81h-116z" />
    <glyph glyph-name="ffi" unicode="ffi" horiz-adv-x="825" 
d="M422 -109h-113l90 513h-163l-102 -580h-114l103 580h-76l12 66l77 14l11 59q15 89 62 128t132 39q39 0 77 -9l-15 -89q-33 5 -62 5q-38 0 -55.5 -16.5t-25.5 -62.5l-9 -53h161l9 52q32 191 233 191q52 0 127 -15l-15 -89q-63 9 -104 9q-60 0 -90 -22.5t-40 -79.5l-8 -46
h274l-84 -485h-114l70 404h-159z" />
    <glyph glyph-name="ffl" unicode="ffl" horiz-adv-x="830" 
d="M422 -109h-113l91 513h-164l-102 -580h-114l103 580h-76l12 66l77 14l10 56q16 89 63 128t131 39q44 0 81 -9l-16 -88q-35 4 -62 4q-39 0 -56.5 -15.5t-26.5 -63.5l-9 -50h162l11 57q19 101 78.5 143.5t153.5 42.5q51 0 114 -13h72l-126 -715h-110l110 629q-34 4 -55 4
q-57 0 -85.5 -20.5t-40.5 -74.5l-11 -53h117l-14 -81h-115z" />
    <glyph glyph-name="ft" unicode="ft" horiz-adv-x="667" 
d="M143 -133h-113l95 537h-75l11 66l78 14l14 75q17 89 61 128t131 39q47 0 91 -12l-16 -86q-45 6 -73 6q-36 0 -55.5 -17t-27.5 -63l-12 -69h175l50 134h80l-23 -133h135l-14 -82h-136l-42 -238q-8 -47 6 -64.5t59 -17.5q41 0 74 4l-13 -86q-41 -9 -102 -9q-89 0 -121 38
t-14 133l42 240h-170z" />
    <glyph glyph-name=".notdef" horiz-adv-x="447" 
d="M1 0v700h445v-700h-445zM96 61h255l-127 232zM224 407l127 232h-255zM62 577v-455l126 228zM260 350l125 -228v455z" />
    <glyph glyph-name=".null" horiz-adv-x="0" 
 />
    <glyph glyph-name="nonmarkingreturn" horiz-adv-x="333" 
 />
    <glyph glyph-name="space" unicode=" " horiz-adv-x="294" 
 />
    <glyph glyph-name="exclam" unicode="!" horiz-adv-x="312" 
d="M194 183h-90l75 494h119zM139 127q25 0 40.5 -15.5t15.5 -39.5q0 -34 -24 -58.5t-56 -24.5q-25 0 -40.5 16t-15.5 40q0 34 24 58t56 24z" />
    <glyph glyph-name="quotedbl" unicode="&#x22;" horiz-adv-x="374" 
d="M330 435h-74l32 236h97zM193 435h-73l29 236h97z" />
    <glyph glyph-name="numbersign" unicode="#" horiz-adv-x="609" 
d="M595 388h-108l-43 -123h108l-24 -68h-108l-66 -197h-84l68 197h-116l-68 -197h-84l67 197h-106l22 68h108l42 123h-107l24 67h107l64 185h82l-64 -185h119l63 185h82l-63 -185h106zM287 388l-43 -123h116l44 123h-117z" />
    <glyph glyph-name="dollar" unicode="$" horiz-adv-x="609" 
d="M454 722l-14 -79q64 -8 105 -45t41 -95q0 -28 -6 -46h-103q1 7 1 19q0 57 -55 71l-30 -171q82 -23 119.5 -61.5t37.5 -102.5q0 -85 -61 -143.5t-161 -65.5l-14 -75h-47l141 794h46zM190 -72l14 75q-71 12 -113.5 52.5t-42.5 102.5q0 36 8 55h99q-1 -7 -1 -21
q0 -70 66 -91l36 198q-150 34 -150 149q0 73 54 131.5t157 66.5q2 16 14 76h43l-141 -794h-43zM375 277l-31 -179q44 7 70 34.5t26 64.5q0 55 -65 80zM300 552q-39 -8 -62 -34t-23 -58q0 -45 58 -60z" />
    <glyph glyph-name="percent" unicode="%" horiz-adv-x="893" 
d="M248 -28h-82l505 734h84zM274 683q154 -1 154 -157q0 -44 -12 -85.5t-36 -79t-68 -60.5t-102 -23q-152 0 -152 138q0 118 58.5 192.5t157.5 74.5zM266 609q-53 0 -84 -52t-31 -127q0 -79 70 -79q46 0 79.5 47.5t33.5 128.5q0 82 -68 82zM712 400q154 0 154 -156
q0 -44 -12 -85.5t-36 -79t-68 -60.5t-102 -23q-152 0 -152 138q0 119 58 192.5t158 73.5zM704 326q-53 0 -84.5 -52t-31.5 -127q0 -78 71 -78q46 0 79.5 47.5t33.5 128.5t-68 81z" />
    <glyph glyph-name="ampersand" unicode="&#x26;" horiz-adv-x="745" 
d="M588 -40q-61 39 -97 70q-100 -49 -230 -49q-97 0 -155 39.5t-58 116.5q0 64 45.5 130t131.5 117q-40 59 -40 118q0 71 51 127t137 56q66 0 105 -34t39 -88q0 -59 -40 -107.5t-115 -95.5q66 -121 152 -210q46 41 69 92t23 94q0 60 -65 92q3 5 19 34.5t18 33.5
q59 -9 93 -48t34 -99q0 -61 -32 -133t-95 -128q39 -34 73 -57zM271 311q-106 -67 -106 -152q0 -42 31.5 -65.5t87.5 -23.5q78 0 140 25q-67 72 -153 216zM364 597q-26 0 -43.5 -18.5t-22 -36t-4.5 -31.5q0 -35 24 -80q87 59 87 123q0 19 -11 31t-30 12z" />
    <glyph glyph-name="quotesingle" unicode="'" horiz-adv-x="274" 
d="M210 435h-73l29 236h96z" />
    <glyph glyph-name="parenleft" unicode="(" horiz-adv-x="312" 
d="M320 726l53 -51q-99 -102 -157 -225.5t-58 -243.5q0 -153 80 -280l-68 -50q-119 156 -119 349q0 136 74 264t195 237z" />
    <glyph glyph-name="parenright" unicode=")" horiz-adv-x="312" 
d="M101 675l72 51q119 -160 119 -345q0 -132 -75.5 -267.5t-193.5 -241.5l-52 56q95 96 154 215t59 246q0 154 -83 286z" />
    <glyph glyph-name="asterisk" unicode="*" horiz-adv-x="455" 
d="M338 472l60 -95l-92 -59l-44 100q-6 -10 -76 -100l-74 58l93 98l-110 35l46 86l100 -46l16 116h99l-27 -116l115 46l20 -86z" />
    <glyph glyph-name="plus" unicode="+" horiz-adv-x="609" 
d="M354 229l-27 -152h-99l27 152h-154l15 86h154l28 160h99l-28 -160h153l-15 -86h-153z" />
    <glyph glyph-name="comma" unicode="," horiz-adv-x="266" 
d="M117 142q28 0 45 -17t17 -44t-19 -56l-141 -214l-38 16l85 168q-38 13 -38 57q0 37 27 63.5t62 26.5z" />
    <glyph glyph-name="hyphen" unicode="-" horiz-adv-x="479" 
d="M87 210l16 94h299l-17 -94h-298z" />
    <glyph glyph-name="period" unicode="." horiz-adv-x="261" 
d="M115 141q28 0 45 -17.5t17 -44.5q0 -37 -26 -63.5t-63 -26.5q-27 0 -44 17.5t-17 44.5q0 36 27 63t61 27z" />
    <glyph glyph-name="slash" unicode="/" horiz-adv-x="537" 
d="M56 -44h-102l562 761h104z" />
    <glyph glyph-name="zero" unicode="0" horiz-adv-x="609" 
d="M370 658q228 0 228 -247q0 -58 -10 -114.5t-34.5 -112.5t-61 -98t-94 -68t-129.5 -26q-122 0 -176 59t-54 167q0 192 88.5 316t242.5 124zM363 565q-55 0 -97.5 -31.5t-66 -82t-35.5 -107t-12 -114.5q0 -146 126 -146q88 0 148 86t60 241q0 154 -123 154z" />
    <glyph glyph-name="one" unicode="1" horiz-adv-x="609" 
d="M502 93l-16 -93h-444l16 93h163l79 446l-141 -21l13 76l168 55h94l-98 -556h166z" />
    <glyph glyph-name="two" unicode="2" horiz-adv-x="609" 
d="M371 659q110 0 161 -42.5t51 -113.5q0 -41 -16.5 -76t-51.5 -65.5t-69 -52t-89 -51.5q-61 -33 -92.5 -52.5t-64 -50.5t-42.5 -63h364l-16 -92h-484q8 66 26.5 113t56 86t80.5 68t117 69q37 20 58 32.5t49 33.5t41.5 42.5t13.5 44.5q0 35 -27 55.5t-75 20.5
q-50 0 -90.5 -29.5t-50.5 -91.5h-105q-1 6 -1 17q0 61 40.5 107.5t97.5 68.5t118 22z" />
    <glyph glyph-name="three" unicode="3" horiz-adv-x="609" 
d="M253 -8q-91 0 -146 34t-55 100q0 32 11 62h94q-1 -59 28 -81.5t82 -22.5q68 0 116 39.5t48 107.5q0 97 -154 97q-24 0 -37 -1l-27 66l207 157l-2 7h-268l17 92h436l-15 -80l-214 -160l2 -4q82 -6 128 -47t46 -115q0 -115 -83 -183t-214 -68z" />
    <glyph glyph-name="four" unicode="4" horiz-adv-x="609" 
d="M439 650h103l-71 -406h101l-17 -91h-101l-26 -153h-111l26 153h-319l15 80zM173 249l1 -5h186l41 237h-5z" />
    <glyph glyph-name="five" unicode="5" horiz-adv-x="609" 
d="M431 240q0 104 -125 104q-72 0 -134 -29l-55 41l97 293h378l-17 -92h-285l-44 -132q40 9 77 9q105 0 164.5 -44t59.5 -138q0 -115 -84.5 -187.5t-213.5 -72.5q-90 0 -145 34t-55 100q0 32 11 62h94q-1 -59 28 -81.5t82 -22.5q67 0 117 43.5t50 112.5z" />
    <glyph glyph-name="six" unicode="6" horiz-adv-x="609" 
d="M395 659q85 0 134 -33.5t49 -89.5q0 -20 -7 -44h-104q-2 76 -91 76q-76 0 -122 -60t-64 -157l4 -1q29 36 75 55t89 19q91 0 140 -42t49 -123q0 -112 -77 -189t-204 -77q-103 1 -152.5 54.5t-49.5 161.5q0 54 9.5 111t33.5 119t60 110t95 79t133 31zM286 85
q73 0 110.5 48.5t37.5 108.5q0 91 -104 91q-61 0 -102.5 -42t-41.5 -110q0 -42 24.5 -69t75.5 -27z" />
    <glyph glyph-name="seven" unicode="7" horiz-adv-x="609" 
d="M129 556l17 93h460l-14 -76l-370 -573h-123l361 556h-331z" />
    <glyph glyph-name="eight" unicode="8" horiz-adv-x="609" 
d="M379 659q104 0 150 -43t46 -105q0 -24 -8 -49.5t-35.5 -58t-70.5 -51.5l-2 -4q86 -37 86 -140q0 -85 -79 -149.5t-205 -64.5q-103 0 -158.5 41.5t-55.5 117.5q0 56 35 111.5t111 84.5q0 1 1 3v2q-69 29 -69 109q0 74 67.5 135t186.5 61zM277 82q61 0 107 32t46 90
q0 40 -27.5 67.5t-82.5 36.5q-70 -13 -113.5 -51.5t-43.5 -91.5q0 -41 34.5 -62t79.5 -21zM362 567q-49 0 -85 -26t-36 -71q0 -59 93 -86q55 12 90 45t35 71q0 67 -97 67z" />
    <glyph glyph-name="nine" unicode="9" horiz-adv-x="609" 
d="M246 -7q-87 0 -139.5 34.5t-52.5 90.5q0 17 7 43h102q2 -36 28 -56.5t73 -20.5q74 0 122.5 54.5t67.5 160.5l-4 1q-62 -72 -162 -72q-90 0 -139.5 41.5t-49.5 120.5q0 113 74 191t198 78q209 0 209 -230q0 -83 -19 -158t-57 -139t-104.5 -101.5t-153.5 -37.5zM360 567
q-73 0 -110 -48t-37 -109q0 -93 102 -93q61 0 103.5 42t42.5 109q0 43 -25 71t-76 28z" />
    <glyph glyph-name="colon" unicode=":" horiz-adv-x="261" 
d="M115 141q28 0 45 -17.5t17 -44.5q0 -36 -27 -63t-62 -27q-27 0 -44 17.5t-17 44.5q0 36 27 63t61 27zM165 425q28 0 45 -17.5t17 -44.5q0 -36 -27 -63t-61 -27q-28 0 -45 17.5t-17 44.5q0 36 27 63t61 27z" />
    <glyph glyph-name="semicolon" unicode=";" horiz-adv-x="261" 
d="M165 425q28 0 45 -17.5t17 -44.5q0 -36 -27 -63t-61 -27q-28 0 -45 17.5t-17 44.5q0 36 27 63t61 27zM115 142q29 0 46 -17t17 -44q0 -25 -19 -56l-141 -214l-38 16l84 168q-38 14 -38 57q0 37 27.5 63.5t61.5 26.5z" />
    <glyph glyph-name="less" unicode="&#x3c;" horiz-adv-x="609" 
d="M100 236l13 72q45 21 218 97.5t228 101.5l-18 -105l-315 -133l268 -134l-18 -96z" />
    <glyph glyph-name="equal" unicode="=" horiz-adv-x="609" 
d="M493 137h-408l15 84h408zM518 288h-408l14 85h408z" />
    <glyph glyph-name="greater" unicode="&#x3e;" horiz-adv-x="609" 
d="M524 308l-13 -72l-446 -197l17 106l316 134l-268 134l18 94q45 -25 195.5 -104t180.5 -95z" />
    <glyph glyph-name="question" unicode="?" horiz-adv-x="497" 
d="M321 702q89 0 137.5 -35t48.5 -105q0 -56 -32.5 -101t-96.5 -96q-35 -28 -53 -45.5t-37 -47.5t-26 -66l-6 -31h-103l11 62q23 87 118 163q104 82 104 141q0 33 -21.5 51t-58.5 18q-43 0 -76 -23t-41 -73h-101q0 2 -0.5 4t-0.5 4q0 87 68.5 133.5t165.5 46.5zM196 127
q25 0 40.5 -16t15.5 -40q0 -33 -24 -57t-57 -24q-25 0 -40 15t-15 39q0 34 24 58.5t56 24.5z" />
    <glyph glyph-name="at" unicode="@" horiz-adv-x="899" 
d="M422 198q56 0 89 52t33 126q0 37 -19 58t-57 21q-46 0 -81 -47t-35 -132q0 -78 70 -78zM563 476l4 1q6 32 22 50h75l-49 -272q-10 -63 29 -63q49 0 87.5 60.5t38.5 153.5q0 107 -72.5 168.5t-173.5 61.5q-149 0 -253.5 -106.5t-104.5 -258.5q0 -119 69.5 -190.5
t190.5 -71.5q112 0 219 40l18 -71q-126 -42 -242 -42q-155 0 -247 86t-93 234q0 194 125.5 324.5t320.5 130.5q146 0 235 -78.5t90 -211.5q0 -139 -66 -222t-165 -83q-31 0 -60 14.5t-34 50.5h-5q-49 -61 -134 -61q-131 0 -131 146q0 107 54 187.5t146 80.5q77 0 106 -58z
" />
    <glyph glyph-name="A" unicode="A" horiz-adv-x="635" 
d="M465 0l-28 163h-260l-84 -163h-125l367 678h122l127 -678h-119zM380 551h-7q-28 -65 -75 -155l-71 -139h195l-22 133q-18 129 -20 161z" />
    <glyph glyph-name="B" unicode="B" horiz-adv-x="620" 
d="M467 361l-2 -5q49 -12 75 -48.5t26 -87.5q0 -102 -71 -161t-182 -59h-288l119 676h282q81 0 125 -35.5t44 -104.5q0 -55 -33 -105t-95 -70zM398 578h-157l-30 -173h154q43 0 73 26.5t35 65.5q5 37 -14.5 59t-60.5 22zM349 310h-154l-37 -211h154q58 0 92.5 28.5
t41.5 80.5q7 47 -20.5 74.5t-76.5 27.5z" />
    <glyph glyph-name="C" unicode="C" horiz-adv-x="632" 
d="M405 582q-105 0 -164 -94t-59 -243q0 -76 33 -115t107 -39q149 0 169 131h112q0 -9 -2 -27q-12 -102 -91 -152.5t-187 -50.5q-262 0 -262 243q0 198 91.5 322.5t259.5 124.5q98 0 162.5 -45t64.5 -125q0 -26 -6 -51h-111q2 14 2 21q0 48 -31.5 74t-87.5 26z" />
    <glyph glyph-name="D" unicode="D" horiz-adv-x="646" 
d="M156 99h73q33 0 66.5 7t71.5 27.5t67 52t48 87t19 126.5q0 44 -13 77.5t-32.5 52t-46.5 30t-49.5 15t-47.5 3.5h-71zM24 0l119 676h185q59 0 109 -14.5t92 -45t66 -84.5t24 -127q0 -182 -106 -293.5t-270 -111.5h-219z" />
    <glyph glyph-name="E" unicode="E" horiz-adv-x="564" 
d="M22 0l119 676h448l-18 -99h-332l-32 -177h309l-18 -100h-308l-35 -200h355l-17 -100h-471z" />
    <glyph glyph-name="F" unicode="F" horiz-adv-x="557" 
d="M28 0l119 676h463l-18 -100h-348l-32 -184h310l-18 -100h-309l-52 -292h-115z" />
    <glyph glyph-name="G" unicode="G" horiz-adv-x="667" 
d="M409 583q-75 0 -128.5 -50t-76.5 -124.5t-23 -164.5q0 -154 143 -154q84 0 129 41.5t57 106.5l6 36h-125l16 91h237l-16 -111q-18 -125 -95 -193.5t-215 -68.5q-257 0 -257 249q0 194 94.5 319t262.5 125q98 0 163 -42t65 -119q0 -32 -8 -56h-112q1 7 1 20q0 49 -32.5 72
t-85.5 23z" />
    <glyph glyph-name="H" unicode="H" horiz-adv-x="673" 
d="M455 0l53 303h-318l-52 -303h-116l119 676h116l-50 -276h318l49 276h116l-119 -676h-116z" />
    <glyph glyph-name="I" unicode="I" horiz-adv-x="274" 
d="M38 0l119 676h118l-119 -676h-118z" />
    <glyph glyph-name="J" unicode="J" horiz-adv-x="556" 
d="M215 -8q-96 0 -154 37t-58 106q0 31 12 69h108q-2 -9 -2 -26q0 -86 97 -87q72 0 105 38t46 109l78 438h114l-79 -447q-6 -37 -14.5 -65t-28 -62.5t-46.5 -56.5t-72.5 -37.5t-105.5 -15.5z" />
    <glyph glyph-name="K" unicode="K" horiz-adv-x="591" 
d="M256 676l-47 -268h61l255 268h143l-304 -316l194 -360h-135l-158 306h-74l-54 -306h-115l119 676h115z" />
    <glyph glyph-name="L" unicode="L" horiz-adv-x="528" 
d="M23 0l119 676h117l-102 -576h339l-17 -100h-456z" />
    <glyph glyph-name="M" unicode="M" horiz-adv-x="869" 
d="M428 218h7q48 92 138 235l141 222h140q-66 -450 -98 -675h-115l78 504h-5q-29 -53 -83 -138l-170 -270h-97l-75 267q-28 98 -34 136h-5l-109 -499h-115l149 675h133l73 -259q30 -109 47 -198z" />
    <glyph glyph-name="N" unicode="N" horiz-adv-x="674" 
d="M486 188h2q2 1 3 1l85 486h115l-119 -675h-104l-175 346q-44 87 -67 144l-4 -2q-19 -106 -85 -488h-116l119 675h108l152 -301q39 -78 86 -186z" />
    <glyph glyph-name="O" unicode="O" horiz-adv-x="703" 
d="M429 683q128 0 187 -70t59 -185q0 -62 -10.5 -120.5t-37 -116.5t-66 -101.5t-103 -70.5t-142.5 -27q-133 0 -194 64t-61 177q0 199 97 324.5t271 125.5zM416 584q-61 0 -108.5 -31.5t-74 -82.5t-39.5 -107.5t-13 -114.5q0 -81 35 -120t113 -39q96 0 162 91t66 239
q0 165 -141 165z" />
    <glyph glyph-name="P" unicode="P" horiz-adv-x="592" 
d="M340 243h-160l-42 -243h-116l119 676h276q101 0 150 -49t49 -134q0 -42 -13.5 -82.5t-43.5 -80t-86.5 -63.5t-132.5 -24zM394 577h-155l-42 -235h154q53 0 96.5 29.5t50.5 91.5q7 53 -22 83.5t-82 30.5z" />
    <glyph glyph-name="Q" unicode="Q" horiz-adv-x="695" 
d="M429 683q128 0 187 -70t59 -185q0 -86 -19.5 -163t-71 -147t-130.5 -101q62 -26 142 -50l-50 -92q-148 48 -241 117q-244 6 -244 241q0 199 97 324.5t271 125.5zM416 584q-61 0 -108.5 -31.5t-74 -82.5t-39.5 -107.5t-13 -114.5q0 -81 35 -120t113 -39q96 0 162 91
t66 239q0 165 -141 165z" />
    <glyph glyph-name="R" unicode="R" horiz-adv-x="601" 
d="M601 496q0 -22 -5 -46.5t-20 -55t-38 -55t-62 -45t-89 -27.5l142 -267h-129l-136 262h-80q-28 -162 -46 -262h-115l119 675h260q97 0 148 -46.5t51 -132.5zM380 577h-141q-14 -85 -38 -217h139q56 0 101 31t45 96q0 44 -28 67t-78 23z" />
    <glyph glyph-name="S" unicode="S" horiz-adv-x="628" 
d="M383 683q93 0 160.5 -40.5t67.5 -115.5q0 -21 -10 -56h-111v12q0 47 -30.5 74t-84.5 27q-65 0 -106 -27.5t-41 -77.5q0 -31 28 -49t98 -31q124 -25 177 -67t53 -114q0 -98 -78.5 -162t-220.5 -64q-109 0 -178 41.5t-69 122.5q0 30 11 63h109q-2 -16 -2 -22
q0 -63 37.5 -86.5t101.5 -23.5q81 0 122.5 33t41.5 84q0 39 -34.5 61t-121.5 38q-98 17 -147 51.5t-49 108.5q0 38 14 74.5t44 70.5t86.5 54.5t131.5 20.5z" />
    <glyph glyph-name="T" unicode="T" horiz-adv-x="575" 
d="M408 577l-101 -577h-115l101 577h-217l18 99h545l-18 -99h-213z" />
    <glyph glyph-name="U" unicode="U" horiz-adv-x="672" 
d="M689 676l-71 -405q-24 -135 -95.5 -207t-216.5 -72q-151 0 -205 74t-30 213l70 397h116l-72 -408q-18 -99 17.5 -139t114.5 -40q154 0 186 186l71 401h115z" />
    <glyph glyph-name="V" unicode="V" horiz-adv-x="618" 
d="M282 116h6q42 104 126 266l147 294h123l-352 -676h-130l-110 676h117l44 -297q28 -192 29 -263z" />
    <glyph glyph-name="W" unicode="W" horiz-adv-x="917" 
d="M643 141h5q19 50 102 265l110 270h125l-298 -676h-127l-32 296q-17 153 -16 236h-4q-41 -109 -96 -232l-134 -300h-127l-61 676h120l13 -250q10 -228 11 -286h5q40 101 121 286l112 250h124l26 -265q19 -193 21 -270z" />
    <glyph glyph-name="X" unicode="X" horiz-adv-x="622" 
d="M234 675q36 -82 106 -246l189 246h135q-45 -55 -134.5 -164t-134.5 -164q75 -154 170 -347h-132l-115 265l-207 -265h-139q192 234 289 351l-155 324h128z" />
    <glyph glyph-name="Y" unicode="Y" horiz-adv-x="586" 
d="M306 360h8q47 86 109 174l99 141h129l-301 -425l-44 -250h-116q15 83 43 249l-147 426h124l54 -160q28 -84 42 -155z" />
    <glyph glyph-name="Z" unicode="Z" horiz-adv-x="591" 
d="M-5 0l16 91l451 484h-346l18 101h491l-17 -91l-447 -487h371l-17 -98h-520z" />
    <glyph glyph-name="bracketleft" unicode="[" horiz-adv-x="302" 
d="M4 -112l144 822h189l-15 -83h-87l-115 -656h86l-14 -83h-188z" />
    <glyph glyph-name="backslash" unicode="\" horiz-adv-x="548" 
d="M487 -44h-101l-296 761h100z" />
    <glyph glyph-name="bracketright" unicode="]" horiz-adv-x="302" 
d="M322 710l-145 -822h-189l15 83h86l116 656h-87l15 83h189z" />
    <glyph glyph-name="asciicircum" unicode="^" horiz-adv-x="609" 
d="M342 668h80q15 -49 63 -215t63 -216h-99l-86 309l-191 -309h-109q33 49 139.5 215.5t139.5 215.5z" />
    <glyph glyph-name="underscore" unicode="_" horiz-adv-x="497" 
d="M-53 -116l14 82h483l-14 -82h-483z" />
    <glyph glyph-name="grave" unicode="`" horiz-adv-x="543" 
d="M448 592l-46 -47l-168 137l67 72z" />
    <glyph glyph-name="a" unicode="a" horiz-adv-x="561" 
d="M245 80q69 0 110 66t41 155q0 47 -24 74t-71 27q-58 0 -101.5 -58.5t-43.5 -163.5q0 -100 89 -100zM541 486l-85 -486h-91q-10 35 -4 71h-6q-57 -79 -156 -79q-158 0 -158 177q0 130 66 227.5t179 97.5q100 0 137 -71h4q5 41 26 63h88z" />
    <glyph glyph-name="b" unicode="b" horiz-adv-x="558" 
d="M269 -7q-46 0 -83.5 19t-49.5 57h-4q-10 -47 -26 -69h-91l125 710h114l-34 -184q-16 -88 -32 -120h5q67 88 170 88q155 0 155 -178q0 -85 -25 -156t-83.5 -119t-140.5 -48zM314 403q-51 0 -87 -35.5t-50.5 -85t-14.5 -105.5q0 -44 23.5 -70.5t68.5 -26.5q65 0 106.5 62
t41.5 157q0 104 -88 104z" />
    <glyph glyph-name="c" unicode="c" horiz-adv-x="502" 
d="M306 493q83 0 129 -33.5t46 -97.5q0 -14 -5 -37h-102v6l1 5q0 63 -75 63q-71 0 -107 -63t-36 -155q0 -96 93 -96q43 0 69 19t37 66h102v-16q-5 -77 -65 -119.5t-147 -42.5q-203 0 -203 185q0 145 72.5 230.5t190.5 85.5z" />
    <glyph glyph-name="d" unicode="d" horiz-adv-x="556" 
d="M365 75h-4q-57 -83 -160 -83q-86 0 -122.5 50t-36.5 124q0 143 70 235.5t180 92.5q88 0 128 -48h4l48 264h109l-123 -710h-90q-10 33 -3 75zM246 81q65 0 109 66.5t44 162.5q0 93 -94 93q-65 0 -107 -62t-42 -160q0 -100 90 -100z" />
    <glyph glyph-name="e" unicode="e" horiz-adv-x="523" 
d="M318 493q91 0 132.5 -39t41.5 -94q0 -46 -26.5 -79.5t-72.5 -51.5t-98 -26t-112 -8h-26q-1 -7 -1 -21q0 -91 91 -91q51 0 75.5 19.5t36.5 54.5h99q1 -12 0 -22q-6 -69 -68 -106t-149 -37q-105 0 -151 51.5t-46 130.5q0 136 71 227.5t203 91.5zM306 401q-61 0 -95 -37
t-44 -95q10 -1 29 -1q94 0 138.5 25t44.5 58q0 24 -20 37t-53 13z" />
    <glyph glyph-name="f" unicode="f" horiz-adv-x="368" 
d="M148 -174h-113l102 578h-77l12 66l78 14l12 68q16 88 61.5 127t131.5 39q47 0 87 -11l-16 -86q-45 6 -69 6q-39 0 -56.5 -16.5t-26.5 -63.5l-12 -62h139l-15 -81h-137z" />
    <glyph glyph-name="g" unicode="g" horiz-adv-x="563" 
d="M206 -213q-83 0 -142.5 31t-59.5 90q0 20 8 43h100q0 -1 0.5 -6.5t0.5 -6.5q6 -60 92 -60q120 0 144 120q13 61 28 94h-4q-27 -39 -73 -64.5t-97 -25.5q-77 0 -118 42.5t-41 120.5q0 61 14.5 117.5t43 105t78 77.5t113.5 29q43 0 79 -20.5t50 -60.5h4q8 51 27 73h92
l-82 -471q-19 -112 -77.5 -170t-179.5 -58zM305 402q-65 0 -105.5 -62.5t-40.5 -149.5q0 -99 94 -99q42 0 73 26t45.5 64t21 69t6.5 54q0 98 -94 98z" />
    <glyph glyph-name="h" unicode="h" horiz-adv-x="545" 
d="M186 407h5q31 43 78 65t94 22q53 0 86.5 -18.5t44.5 -49t13 -69t-8 -78.5l-49 -279h-115l49 276q11 62 -3.5 96.5t-68.5 34.5q-56 0 -91.5 -45t-45.5 -101l-46 -261h-113l125 712h111l-34 -196q-14 -72 -32 -109z" />
    <glyph glyph-name="i" unicode="i" horiz-adv-x="272" 
d="M38 0l85 486h113l-85 -486h-113zM216 687q25 0 40.5 -16t15.5 -41q0 -32 -24.5 -56t-55.5 -24q-25 0 -40 15.5t-15 39.5q0 33 24 57.5t55 24.5z" />
    <glyph glyph-name="j" unicode="j" horiz-adv-x="262" 
d="M-70 -206l13 94q46 0 61 12t21 44l96 542h114l-98 -551q-6 -32 -13.5 -54t-23.5 -45t-44 -35t-67 -12q-22 0 -59 5zM216 687q25 0 40.5 -16t15.5 -41q0 -32 -24.5 -56t-55.5 -24q-25 0 -40 15.5t-15 39.5q0 33 24 57.5t55 24.5z" />
    <glyph glyph-name="k" unicode="k" horiz-adv-x="503" 
d="M400 485h135q-214 -217 -215 -218l141 -267h-126l-111 221h-57l-39 -221h-112l125 711h112l-69 -398h49z" />
    <glyph glyph-name="l" unicode="l" horiz-adv-x="257" 
d="M44 111l107 600h111l-104 -588q-4 -24 4.5 -31.5t37.5 -8.5l-10 -84q-36 -7 -67 -7q-58 0 -74 28t-5 91z" />
    <glyph glyph-name="m" unicode="m" horiz-adv-x="833" 
d="M607 407q-48 0 -83.5 -43t-44.5 -96l-47 -268h-113l50 284q22 122 -67 122q-55 0 -87 -45t-42 -103l-44 -258h-113l85 486h91q13 -26 3 -79h4q58 87 154 87q109 0 130 -87q72 87 172 87q50 0 82 -17.5t43 -46.5t13.5 -66t-6.5 -77l-50 -287h-114l50 285q10 59 -3.5 90.5
t-62.5 31.5z" />
    <glyph glyph-name="n" unicode="n" horiz-adv-x="545" 
d="M363 493q171 0 136 -203l-50 -290h-114l50 283q3 27 2.5 53.5t-18 46t-50.5 19.5q-60 0 -97 -43t-47 -102l-46 -257h-114l85 486h91q11 -29 2 -86h4q61 93 166 93z" />
    <glyph glyph-name="o" unicode="o" horiz-adv-x="557" 
d="M316 494q105 0 152.5 -54.5t47.5 -142.5q0 -54 -14 -105t-43.5 -97.5t-84 -74.5t-126.5 -28q-203 0 -203 188q0 135 70 224.5t201 89.5zM307 404q-72 0 -110.5 -63t-38.5 -154q0 -108 99 -108q62 0 103.5 58t41.5 159q0 108 -95 108z" />
    <glyph glyph-name="p" unicode="p" horiz-adv-x="557" 
d="M361 493q78 0 118 -46t40 -123q0 -155 -68.5 -243t-197.5 -88q-78 4 -113 48h-5q-15 -81 -43 -245h-112q22 132 65 375.5t55 314.5h90q9 -31 2 -80h4q61 87 165 87zM312 405q-62 0 -107.5 -68.5t-45.5 -165.5q0 -92 94 -92q65 0 107.5 63.5t42.5 158.5q0 51 -24 77.5
t-67 26.5z" />
    <glyph glyph-name="q" unicode="q" horiz-adv-x="557" 
d="M293 493q102 0 130 -74h4q6 41 26 67h92l-122 -691h-112l31 174q10 60 29 104h-5q-70 -81 -165 -81q-160 0 -160 174q0 82 25.5 154t84.5 122.5t142 50.5zM246 80q70 0 111 66t41 155q0 48 -23 74.5t-69 26.5q-65 0 -107.5 -60.5t-42.5 -159.5q0 -102 90 -102z" />
    <glyph glyph-name="r" unicode="r" horiz-adv-x="346" 
d="M384 496l-12 -104q-91 -2 -137 -39.5t-60 -115.5l-43 -237h-113l85 486h90q12 -35 0 -95h4q32 55 82.5 80t103.5 25z" />
    <glyph glyph-name="s" unicode="s" horiz-adv-x="483" 
d="M284 494q65 0 115.5 -26t50.5 -79q0 -22 -7 -40h-100q1 30 -20.5 43.5t-52.5 13.5q-43 0 -65.5 -20t-22.5 -47q0 -21 19 -30.5t67 -17.5q84 -16 122.5 -45t37.5 -85q-1 -74 -58 -121t-166 -47q-46 0 -85 11t-68 39.5t-29 69.5q0 21 7 43h99q-3 -43 24 -61t67 -18
q48 0 73 23.5t25 51.5q0 23 -20 34t-70 21q-82 16 -120.5 40t-38.5 78q0 68 51.5 118.5t164.5 50.5z" />
    <glyph glyph-name="t" unicode="t" horiz-adv-x="382" 
d="M275 618l-24 -132h136l-14 -83h-136l-42 -238q-8 -47 7.5 -64.5t67.5 -17.5q28 0 65 5q-4 -20 -13 -86q-48 -9 -103 -9q-169 0 -136 171l42 239h-75l12 69q51 7 83 13l49 133h81z" />
    <glyph glyph-name="u" unicode="u" horiz-adv-x="534" 
d="M180 -7q-90 0 -119 53t-13 148l51 292h115l-50 -284q-20 -122 68 -122q54 0 87.5 45t44.5 103l46 258h114l-85 -486h-91q-9 43 -1 85h-4q-63 -92 -163 -92z" />
    <glyph glyph-name="v" unicode="v" horiz-adv-x="508" 
d="M235 113l108 193q55 99 69 178h109q-11 -63 -28 -107.5t-55 -108.5l-163 -270h-125l-93 487h114l29 -174q23 -132 28 -198h7z" />
    <glyph glyph-name="w" unicode="w" horiz-adv-x="734" 
d="M498 122h4l83 174q29 60 39.5 94.5t19.5 94.5h105q-10 -77 -21 -115.5t-45 -104.5l-141 -267h-118l-21 152q-11 74 -17 143h-7q-21 -51 -70 -149l-74 -146h-122l-61 488l113 -1l18 -187q15 -154 15 -167h7q10 20 34 71.5t37 77.5l72 141h112l20 -149z" />
    <glyph glyph-name="x" unicode="x" horiz-adv-x="500" 
d="M327 0l-81 182q-37 -45 -146 -182h-131l218 253q-103 196 -122 233h125l73 -160q17 22 127 160h133l-203 -233l131 -253h-124z" />
    <glyph glyph-name="y" unicode="y" horiz-adv-x="495" 
d="M228 81l108 227q34 73 54 176h106q-1 -7 -4 -25.5t-4.5 -24.5t-4 -21.5t-4.5 -22.5l-6 -21t-7.5 -23.5t-8.5 -22.5t-11 -26.5t-14 -28.5l-240 -473h-117l108 204l-42 -2l-94 488h112l39 -239q15 -92 23 -165h7z" />
    <glyph glyph-name="z" unicode="z" horiz-adv-x="458" 
d="M-14 0q1 10 5 32.5t6 34.5l317 330h-241l16 88h382l-12 -70l-316 -329h264l-15 -86h-406z" />
    <glyph glyph-name="braceleft" unicode="{" horiz-adv-x="342" 
d="M169 311l-2 -6q57 -32 40 -132l-31 -169q-7 -39 32 -39h39l-14 -79h-67q-50 0 -74 31.5t-15 82.5l31 170q9 47 -1 70.5t-46 34.5l11 65q38 10 57 34t27 70l24 141q20 121 121 121h69l-14 -76h-30q-37 0 -47 -45l-23 -139q-19 -107 -87 -135z" />
    <glyph glyph-name="bar" unicode="|" horiz-adv-x="312" 
d="M103 -112v829h105v-829h-105z" />
    <glyph glyph-name="braceright" unicode="}" horiz-adv-x="342" 
d="M195 291l1 6q-59 27 -40 135l28 153q5 21 -3 33t-27 12h-36l14 76h74q99 0 79 -121l-29 -155q-8 -46 2 -70t45 -34l-12 -65q-40 -11 -58 -34.5t-27 -70.5l-26 -156q-9 -52 -43.5 -83t-84.5 -31h-63l14 79h34q39 0 46 39l26 155q17 100 86 132z" />
    <glyph glyph-name="asciitilde" unicode="~" horiz-adv-x="609" 
d="M406 203q-43 0 -105.5 25.5t-83.5 25.5q-37 0 -97 -53l-44 41q28 50 68.5 78.5t80.5 28.5q34 0 102.5 -25.5t94.5 -25.5q39 0 84 50l51 -38q-28 -50 -68.5 -78.5t-82.5 -28.5z" />
    <glyph glyph-name="exclamdown" unicode="&#xa1;" horiz-adv-x="312" 
d="M125 298h90l-70 -494h-119zM205 491q25 0 40 -15.5t15 -40.5q0 -33 -24.5 -57.5t-55.5 -24.5q-25 0 -40.5 16t-15.5 40q0 34 24 58t57 24z" />
    <glyph glyph-name="cent" unicode="&#xa2;" horiz-adv-x="609" 
d="M234 -70l26 151q-153 15 -153 178q0 140 66.5 222.5t173.5 88.5l26 148h48l-26 -148q65 -3 104.5 -32.5t39.5 -89.5q0 -21 -4 -41h-102q3 61 -54 71l-55 -306q82 8 93 82h101q1 -5 1 -15q0 -71 -62.5 -115t-148.5 -45l-26 -149h-48zM331 477q-55 -13 -86 -72t-31 -139
q0 -82 63 -93z" />
    <glyph glyph-name="sterling" unicode="&#xa3;" horiz-adv-x="609" 
d="M385 564q-67 0 -99.5 -38t-32.5 -103q0 -19 3 -42h182l-14 -78h-160q0 -121 -64 -210h313l-16 -93h-473l16 93h46q66 97 66 177q0 9 -2 33h-72l14 78h53q-2 20 -2 31q0 111 65 179t178 68q93 0 146 -34.5t53 -93.5q0 -24 -6 -45h-101q-1 37 -21.5 57.5t-71.5 20.5z" />
    <glyph glyph-name="currency" unicode="&#xa4;" horiz-adv-x="630" 
d="M103 299q0 58 32 112q-6 7 -18 19t-22 22.5t-18 19.5l67 64l56 -58q57 32 114 32q61 0 113 -34l57 58q13 -13 36 -35.5t30 -29.5l-58 -60q31 -48 31 -110q0 -58 -31 -112q39 -39 59 -57q-23 -25 -67 -66l-57 56q-54 -32 -113 -32q-60 0 -114 32l-55 -57l-66 66l17.5 17.5
l21 21l17.5 17.5q-32 47 -32 114zM190 298q0 -50 36 -86t87 -36q50 0 85.5 36t35.5 86t-35.5 86.5t-85.5 36.5q-51 0 -87 -36t-36 -87z" />
    <glyph glyph-name="yen" unicode="&#xa5;" horiz-adv-x="609" 
d="M535 271h-442l9 54h123l-113 324h114l47 -145q37 -118 45 -163h9q28 53 104 169l97 139h127l-233 -324h123zM86 230h442l-9 -53h-166l-30 -177h-114l31 177h-164z" />
    <glyph glyph-name="brokenbar" unicode="&#xa6;" horiz-adv-x="366" 
d="M123 283h111v-393h-111v393zM234 329h-111v374h111v-374z" />
    <glyph glyph-name="section" unicode="&#xa7;" horiz-adv-x="543" 
d="M286 374q-45 -3 -72.5 -30t-27.5 -59q0 -28 25 -45.5t75 -31.5q52 3 80.5 27.5t28.5 55.5q0 56 -109 83zM220 -110q-75 0 -129 28.5t-54 86.5q0 21 5 35h101q2 -33 26.5 -48.5t58.5 -15.5q56 0 83.5 22.5t27.5 51.5q0 21 -21 37.5t-66 32.5q-42 14 -66 24.5t-51 28.5
t-39.5 43t-12.5 58q0 46 27 84t71 58q-48 29 -48 93q0 66 52.5 119t167.5 53q72 0 122 -29t50 -87q0 -18 -5 -34h-97q-1 34 -24.5 49t-55.5 15q-49 0 -76 -21.5t-27 -51.5q0 -37 88 -67q43 -15 68.5 -26t51.5 -28.5t37.5 -41t11.5 -54.5q0 -97 -102 -143q56 -38 56 -99
q0 -20 -6 -41t-22.5 -45t-41 -43t-66.5 -31.5t-95 -12.5z" />
    <glyph glyph-name="dieresis" unicode="&#xa8;" horiz-adv-x="544" 
d="M257 686q21 0 34 -14t13 -35q0 -27 -21 -48t-47 -21q-22 0 -35.5 14t-13.5 35q0 27 21.5 48t48.5 21zM440 686q22 0 35.5 -14t13.5 -35q0 -27 -21.5 -48t-48.5 -21q-20 0 -33.5 13.5t-13.5 33.5q0 28 20.5 49.5t47.5 21.5z" />
    <glyph glyph-name="copyright" unicode="&#xa9;" horiz-adv-x="825" 
d="M415 -13q-163 0 -260 103t-97 265q0 157 104 260.5t253 103.5t252.5 -103.5t103.5 -260.5q0 -158 -104 -263t-252 -105zM415 650q-120 0 -203 -86t-83 -209q0 -127 80.5 -213t205.5 -86q121 0 202 86.5t81 212.5q0 124 -81.5 209.5t-201.5 85.5zM301 344
q0 -78 24.5 -118.5t85.5 -40.5q47 0 73 24.5t26 63.5h81q0 -3 0.5 -8.5t0.5 -7.5q0 -65 -52 -102.5t-121 -37.5q-204 0 -204 227q0 108 52 171t149 63q71 0 120.5 -35.5t49.5 -97.5q0 -12 -1 -18h-81q-2 39 -25.5 61t-67.5 22q-110 0 -110 -166z" />
    <glyph glyph-name="ordfeminine" unicode="&#xaa;" horiz-adv-x="377" 
d="M234 612q66 0 87 -48q5 26 23 42h65l-57 -326h-70q-10 16 -6 44h-4q-36 -47 -100 -47q-111 0 -111 113q0 94 46.5 158t126.5 64zM208 346q42 0 65.5 43t23.5 93q0 62 -54 62q-38 0 -64.5 -36.5t-26.5 -102.5q0 -59 56 -59z" />
    <glyph glyph-name="guillemotleft" unicode="&#xab;" horiz-adv-x="511" 
d="M167 231l96 -180l-58 -42l-150 208l6 29l216 208l48 -43zM349 231l96 -180l-60 -41l-148 207l6 29l217 208l47 -43z" />
    <glyph glyph-name="logicalnot" unicode="&#xac;" horiz-adv-x="609" 
d="M522 315l-42 -238h-99l27 152h-307l15 86h406z" />
    <glyph glyph-name="sfthyphen" unicode="&#xad;" horiz-adv-x="479" 
d="M87 210l16 94h299l-17 -94h-298z" />
    <glyph glyph-name="registered" unicode="&#xae;" horiz-adv-x="580" 
d="M330 443l58 -116h-59l-52 110h-33v-110h-52v276h94q42 0 68 -21.5t26 -64.5q0 -51 -50 -74zM287 553h-43v-69h43q39 0 39 34q0 35 -39 35zM523 457q0 -100 -70.5 -170.5t-171.5 -70.5q-109 0 -175.5 69t-66.5 172q0 100 71.5 171t170.5 71q104 0 173 -70t69 -172z
M469 457q0 78 -55.5 134.5t-132.5 56.5q-80 0 -133.5 -56t-53.5 -135t52.5 -134.5t134.5 -55.5q78 0 133 56t55 134z" />
    <glyph glyph-name="macron" unicode="&#xaf;" horiz-adv-x="541" 
d="M189 598l15 83h308l-15 -83h-308z" />
    <glyph glyph-name="degree" unicode="&#xb0;" horiz-adv-x="393" 
d="M217 374q-67 0 -111 43.5t-44 105.5t45 104t110 42q62 0 107 -42t45 -104q0 -61 -45 -105t-107 -44zM215 599q-32 0 -56 -22.5t-24 -53.5q0 -33 23 -56.5t57 -23.5q32 0 55.5 23.5t23.5 56.5q0 31 -23.5 53.5t-55.5 22.5z" />
    <glyph glyph-name="plusminus" unicode="&#xb1;" horiz-adv-x="609" 
d="M74 84h408l-14 -84h-408zM359 257l-25 -143h-99l25 143h-154l15 86h155l25 144h99l-26 -144h154l-16 -86h-153z" />
    <glyph glyph-name="twosuperior" unicode="&#xb2;" horiz-adv-x="369" 
d="M255 699q-74 0 -85 -61h-73v11q0 55 51 89t117 34q70 0 102.5 -26.5t32.5 -68.5q0 -75 -119 -142q-14 -8 -43 -23.5t-41.5 -22.5t-26.5 -19t-20 -24h214l-13 -74h-315l5 35q9 57 48 92.5t123 78.5q29 15 44.5 24.5t32 27t16.5 34.5q0 16 -13 25.5t-37 9.5z" />
    <glyph glyph-name="threesuperior" unicode="&#xb3;" horiz-adv-x="363" 
d="M259 691q0 1 -0.5 2.5t-0.5 2.5h-157q3 12 7 35.5t6 35.5h286q-9 -46 -11 -61l-111 -80v-6q94 -15 94 -96q0 -70 -54.5 -112.5t-142.5 -42.5q-61 0 -96.5 23.5t-35.5 66.5q0 19 5 37h74v-9q0 -48 62 -48q39 0 67 19.5t28 55.5q0 51 -72 51q-17 0 -45 -4l-15 50z" />
    <glyph glyph-name="acute" unicode="&#xb4;" horiz-adv-x="543" 
d="M310 544l-44 48l163 165l63 -74z" />
    <glyph glyph-name="mu" unicode="&#xb5;" horiz-adv-x="535" 
d="M-20 -205q41 243 122 691h113l-52 -294q-10 -46 5.5 -79t63.5 -33q54 0 87.5 41.5t43.5 94.5l49 270h113l-86 -486h-93q-13 23 -3 75h-5q-65 -79 -138 -79q-35 0 -69 15l-38 -216h-113z" />
    <glyph glyph-name="mu" unicode="&#x3bc;" horiz-adv-x="535" 
d="M-20 -205q41 243 122 691h113l-52 -294q-10 -46 5.5 -79t63.5 -33q54 0 87.5 41.5t43.5 94.5l49 270h113l-86 -486h-93q-13 23 -3 75h-5q-65 -79 -138 -79q-35 0 -69 15l-38 -216h-113z" />
    <glyph glyph-name="paragraph" unicode="&#xb6;" horiz-adv-x="543" 
d="M552 686l-118 -671q-6 -36 -17 -63.5t-32 -54t-57.5 -40.5t-87.5 -14q-20 0 -39 3l12 72q70 -2 102 23.5t42 82.5l117 662h78zM353 297h-98q-74 0 -115.5 46t-41.5 119q0 101 61.5 162.5t150.5 61.5h111z" />
    <glyph glyph-name="periodcentered" unicode="&#xb7;" horiz-adv-x="266" 
d="M61 263q0 36 25.5 62t60.5 26q30 0 50 -20.5t20 -50.5q0 -36 -26 -61.5t-61 -25.5q-30 0 -49.5 20t-19.5 50z" />
    <glyph glyph-name="cedilla" unicode="&#xb8;" horiz-adv-x="516" 
d="M174 -228q-53 0 -105 19l24 50q42 -13 73 -13q32 0 52 13t20 35q0 31 -42 31q-28 0 -42 -10l-24 23l75 107h61l-49 -67q59 -1 83.5 -23.5t24.5 -53.5q0 -46 -40 -78t-111 -33z" />
    <glyph glyph-name="onesuperior" unicode="&#xb9;" horiz-adv-x="353" 
d="M347 443l-12 -71h-299l12 71h102l42 237l-88 -11l11 64l112 35h73l-57 -325h104z" />
    <glyph glyph-name="ordmasculine" unicode="&#xba;" horiz-adv-x="378" 
d="M257 612q133 0 133 -129q0 -83 -48 -144t-144 -61q-70 0 -102.5 35t-32.5 94q0 92 52.5 148.5t141.5 56.5zM243 540q-43 0 -67 -38.5t-24 -90.5q0 -62 58 -62q37 0 63 32.5t26 93.5q0 65 -56 65z" />
    <glyph glyph-name="guillemotright" unicode="&#xbb;" horiz-adv-x="511" 
d="M210 51l160 175l-96 185l61 40l145 -210l-5 -29l-216 -208zM28 49l159 182l-95 180l59 41l147 -211l-5 -29l-217 -208z" />
    <glyph glyph-name="onequarter" unicode="&#xbc;" horiz-adv-x="898" 
d="M737 395h79q-6 -37 -20 -116t-21 -120h62q-2 -14 -6.5 -41t-5.5 -30h-63l-15 -88h-92l15 88h-197q6 30 9 60zM281 -28h-82l505 734h84zM367 353l-12 -71h-299l12 71h102l42 237l-88 -11l11 64l112 35h73l-57 -325h104zM587 159h95l20 113z" />
    <glyph glyph-name="onehalf" unicode="&#xbd;" horiz-adv-x="898" 
d="M708 328q-73 0 -85 -62h-73q-1 3 -1 11q0 56 50.5 91t118.5 35q70 0 103 -28t33 -70q0 -76 -117 -142q-14 -8 -43 -23.5t-41.5 -22.5t-26.5 -19t-20 -24h211l-12 -74h-316l6 35q8 57 47 92.5t123 78.5q29 15 44.5 24.5t32 26.5t16.5 34q0 16 -13 26.5t-37 10.5zM251 -28
h-82l505 734h84zM350 353l-12 -71h-299l12 71h102l42 237l-88 -11l11 64l112 35h73l-57 -325h104z" />
    <glyph glyph-name="threequarters" unicode="&#xbe;" horiz-adv-x="898" 
d="M269 -28h-82l505 734h84zM292 601q0 1 -0.5 2.5t-0.5 2.5h-157q3 12 6.5 35.5t6.5 35.5h286q-9 -46 -11 -61l-111 -80v-6q94 -15 94 -96q0 -70 -54.5 -112.5t-142.5 -42.5q-61 0 -96.5 23.5t-35.5 66.5q0 19 5 37h74v-9q0 -48 62 -48q39 0 67 19.5t28 55.5q0 51 -72 51
q-17 0 -45 -4l-15 50zM730 395h79q-6 -37 -20 -116t-21 -120h62q-2 -14 -6.5 -41t-5.5 -30h-63l-15 -88h-92l15 88h-197q6 30 9 60zM580 159h95l20 113z" />
    <glyph glyph-name="questiondown" unicode="&#xbf;" horiz-adv-x="475" 
d="M175 -218q-89 0 -137.5 35t-48.5 105q0 55 32.5 99.5t96.5 96.5q35 28 53 45t37 47.5t26 66.5q1 11 5 31h103l-5 -32q-4 -46 -29 -87.5t-58 -72t-65 -58t-54 -57t-22 -58.5q0 -33 22 -51t59 -18q42 0 75 23t41 73h102q0 -91 -67 -139.5t-166 -48.5zM325 495
q25 0 40.5 -15.5t15.5 -40.5q0 -34 -24.5 -58t-55.5 -24q-25 0 -40.5 15.5t-15.5 40.5q0 33 24 57.5t56 24.5z" />
    <glyph glyph-name="Agrave" unicode="&#xc0;" horiz-adv-x="635" 
d="M465 0l-28 163h-260l-84 -163h-125l367 678h122l127 -678h-119zM380 551h-7q-28 -65 -75 -155l-71 -139h195l-22 133q-18 129 -20 161zM457 770l-40 -52l-182 105l57 82z" />
    <glyph glyph-name="Aacute" unicode="&#xc1;" horiz-adv-x="635" 
d="M465 0l-28 163h-260l-84 -163h-125l367 678h122l127 -678h-119zM380 551h-7q-28 -65 -75 -155l-71 -139h195l-22 133q-18 129 -20 161zM384 726l-32 56l193 129l48 -89z" />
    <glyph glyph-name="Acircumflex" unicode="&#xc2;" horiz-adv-x="635" 
d="M465 0l-28 163h-260l-84 -163h-125l367 678h122l127 -678h-119zM380 551h-7q-28 -65 -75 -155l-71 -139h195l-22 133q-18 129 -20 161zM533 721l-105 108l-156 -107l-36 45l161 144h79l107 -147z" />
    <glyph glyph-name="Atilde" unicode="&#xc3;" horiz-adv-x="635" 
d="M465 0l-28 163h-260l-84 -163h-125l367 678h122l127 -678h-119zM380 551h-7q-28 -65 -75 -155l-71 -139h195l-22 133q-18 129 -20 161zM458 767q-27 0 -68.5 20.5t-61.5 21.5q-36 0 -76 -34l-40 32q54 84 125 84q23 0 63.5 -20t65.5 -20q40 0 76 33l41 -32
q-45 -85 -125 -85z" />
    <glyph glyph-name="Adieresis" unicode="&#xc4;" horiz-adv-x="635" 
d="M465 0l-28 163h-260l-84 -163h-125l367 678h122l127 -678h-119zM380 551h-7q-28 -65 -75 -155l-71 -139h195l-22 133q-18 129 -20 161zM333 866q21 0 35 -14t14 -34q0 -28 -21 -49t-48 -21q-21 0 -34.5 14t-13.5 35q0 27 21 48t47 21zM518 866q21 0 34.5 -14t13.5 -34
q0 -28 -21 -49t-48 -21q-21 0 -35 14t-14 35q0 27 21.5 48t48.5 21z" />
    <glyph glyph-name="Aring" unicode="&#xc5;" horiz-adv-x="635" 
d="M465 0l-28 163h-260l-84 -163h-125l367 678h122l127 -678h-119zM380 551h-7q-28 -65 -75 -155l-71 -139h195l-22 133q-18 129 -20 161zM402 706q-41 0 -65.5 24.5t-24.5 64.5q0 58 39 96.5t91 38.5q42 0 67.5 -26.5t25.5 -67.5q0 -56 -38.5 -93t-94.5 -37zM431 867
q-22 0 -38.5 -18.5t-16.5 -42.5q0 -17 10 -28.5t27 -11.5q25 0 41.5 19t16.5 41q0 18 -10.5 29.5t-29.5 11.5z" />
    <glyph glyph-name="AE" unicode="&#xc6;" horiz-adv-x="956" 
d="M425 0l27 194h-232l-141 -194h-122l498 676h500l-11 -92h-328l-25 -188h304l-11 -91h-304l-29 -214h349l-11 -91h-464zM506 578l-4 1q-23 -33 -129 -181l-83 -113h173z" />
    <glyph glyph-name="Ccedilla" unicode="&#xc7;" horiz-adv-x="632" 
d="M254 -231q-53 0 -105 19l24 50q42 -13 73 -13q32 0 52 13t20 35q0 31 -42 31q-28 0 -42 -10l-24 23l55 79q-204 25 -204 239q0 198 91.5 322.5t259.5 124.5q98 0 162.5 -45t64.5 -125q0 -26 -6 -51h-111q2 14 2 21q0 48 -31.5 74t-87.5 26q-105 0 -164 -94t-59 -243
q0 -76 33 -115t107 -39q149 0 169 131h112q0 -9 -2 -27q-12 -102 -91 -152.5t-187 -50.5h-1l-25 -35q59 -1 83.5 -23.5t24.5 -53.5q0 -46 -40 -78t-111 -33z" />
    <glyph glyph-name="Egrave" unicode="&#xc8;" horiz-adv-x="564" 
d="M22 0l119 676h448l-18 -99h-332l-32 -177h309l-18 -100h-308l-35 -200h355l-17 -100h-471zM459 770l-40 -52l-182 105l57 82z" />
    <glyph glyph-name="Eacute" unicode="&#xc9;" horiz-adv-x="574" 
d="M25 0l119 676h448l-18 -99h-332l-32 -177h309l-18 -100h-308l-35 -200h355l-17 -100h-471zM331 726l-32 56l193 129l48 -89z" />
    <glyph glyph-name="Ecircumflex" unicode="&#xca;" horiz-adv-x="564" 
d="M22 0l119 676h448l-18 -99h-332l-32 -177h309l-18 -100h-308l-35 -200h355l-17 -100h-471zM496 721l-105 108l-156 -107l-36 45l161 144h79l107 -147z" />
    <glyph glyph-name="Edieresis" unicode="&#xcb;" horiz-adv-x="564" 
d="M22 0l119 676h448l-18 -99h-332l-32 -177h309l-18 -100h-308l-35 -200h355l-17 -100h-471zM300 866q22 0 35.5 -14t13.5 -34q0 -28 -21 -49t-48 -21q-21 0 -34.5 14t-13.5 35q0 27 21 48t47 21zM485 866q21 0 34.5 -14t13.5 -34q0 -28 -21 -49t-48 -21q-21 0 -35 14
t-14 35q0 27 21.5 48t48.5 21z" />
    <glyph glyph-name="Igrave" unicode="&#xcc;" horiz-adv-x="274" 
d="M38 0l119 676h118l-119 -676h-118zM279 770l-40 -52l-182 105l57 82z" />
    <glyph glyph-name="Iacute" unicode="&#xcd;" horiz-adv-x="274" 
d="M38 0l119 676h118l-119 -676h-118zM203 726l-32 56l193 129l48 -89z" />
    <glyph glyph-name="Icircumflex" unicode="&#xce;" horiz-adv-x="274" 
d="M38 0l119 676h118l-119 -676h-118zM357 721l-105 108l-156 -107l-36 45l161 144h79l107 -147z" />
    <glyph glyph-name="Idieresis" unicode="&#xcf;" horiz-adv-x="274" 
d="M38 0l119 676h118l-119 -676h-118zM155 866q21 0 35 -14t14 -34q0 -28 -21 -49t-48 -21q-21 0 -34.5 14t-13.5 35q0 27 21 48t47 21zM340 866q21 0 34.5 -14t13.5 -34q0 -28 -21 -49t-48 -21q-21 0 -35 14t-14 35q0 27 21.5 48t48.5 21z" />
    <glyph glyph-name="Eth" unicode="&#xd0;" horiz-adv-x="642" 
d="M24 0l54 308h-57l13 73h57l52 295h185q59 0 109 -14.5t92 -45t66 -84.5t24 -127q0 -182 -106 -293.5t-270 -111.5h-219zM156 99h73q33 0 66.5 7t71.5 27.5t67 52t48 87t19 126.5q0 44 -13 77.5t-32.5 52t-46.5 30t-49.5 15t-47.5 3.5h-71l-35 -196h141l-13 -73h-141z" />
    <glyph glyph-name="Ntilde" unicode="&#xd1;" horiz-adv-x="674" 
d="M486 188h2q2 1 3 1l85 486h115l-119 -675h-104l-175 346q-44 87 -67 144l-4 -2q-19 -106 -85 -488h-116l119 675h108l152 -301q39 -78 86 -186zM504 749q-27 0 -68.5 20.5t-61.5 21.5q-36 0 -76 -34l-40 32q54 84 125 84q23 0 63.5 -20t65.5 -20q40 0 76 33l41 -32
q-45 -85 -125 -85z" />
    <glyph glyph-name="Ograve" unicode="&#xd2;" horiz-adv-x="703" 
d="M429 683q128 0 187 -70t59 -185q0 -62 -10.5 -120.5t-37 -116.5t-66 -101.5t-103 -70.5t-142.5 -27q-133 0 -194 64t-61 177q0 199 97 324.5t271 125.5zM416 584q-61 0 -108.5 -31.5t-74 -82.5t-39.5 -107.5t-13 -114.5q0 -81 35 -120t113 -39q96 0 162 91t66 239
q0 165 -141 165zM527 770l-40 -52l-182 105l57 82z" />
    <glyph glyph-name="Oacute" unicode="&#xd3;" horiz-adv-x="703" 
d="M429 683q128 0 187 -70t59 -185q0 -62 -10.5 -120.5t-37 -116.5t-66 -101.5t-103 -70.5t-142.5 -27q-133 0 -194 64t-61 177q0 199 97 324.5t271 125.5zM416 584q-61 0 -108.5 -31.5t-74 -82.5t-39.5 -107.5t-13 -114.5q0 -81 35 -120t113 -39q96 0 162 91t66 239
q0 165 -141 165zM421 726l-32 56l193 129l48 -89z" />
    <glyph glyph-name="Ocircumflex" unicode="&#xd4;" horiz-adv-x="703" 
d="M429 683q128 0 187 -70t59 -185q0 -62 -10.5 -120.5t-37 -116.5t-66 -101.5t-103 -70.5t-142.5 -27q-133 0 -194 64t-61 177q0 199 97 324.5t271 125.5zM416 584q-61 0 -108.5 -31.5t-74 -82.5t-39.5 -107.5t-13 -114.5q0 -81 35 -120t113 -39q96 0 162 91t66 239
q0 165 -141 165zM585 721l-105 108l-156 -107l-36 45l161 144h79l107 -147z" />
    <glyph glyph-name="Otilde" unicode="&#xd5;" horiz-adv-x="703" 
d="M429 683q128 0 187 -70t59 -185q0 -62 -10.5 -120.5t-37 -116.5t-66 -101.5t-103 -70.5t-142.5 -27q-133 0 -194 64t-61 177q0 199 97 324.5t271 125.5zM416 584q-61 0 -108.5 -31.5t-74 -82.5t-39.5 -107.5t-13 -114.5q0 -81 35 -120t113 -39q96 0 162 91t66 239
q0 165 -141 165zM545 758q-27 0 -68.5 20.5t-61.5 21.5q-36 0 -76 -34l-40 32q54 84 125 84q23 0 63.5 -20t65.5 -20q40 0 76 33l41 -32q-45 -85 -125 -85z" />
    <glyph glyph-name="Odieresis" unicode="&#xd6;" horiz-adv-x="703" 
d="M429 683q128 0 187 -70t59 -185q0 -62 -10.5 -120.5t-37 -116.5t-66 -101.5t-103 -70.5t-142.5 -27q-133 0 -194 64t-61 177q0 199 97 324.5t271 125.5zM416 584q-61 0 -108.5 -31.5t-74 -82.5t-39.5 -107.5t-13 -114.5q0 -81 35 -120t113 -39q96 0 162 91t66 239
q0 165 -141 165zM409 867q21 0 35 -13.5t14 -34.5q0 -28 -21 -49t-48 -21q-21 0 -34.5 14t-13.5 35q0 27 21 48t47 21zM594 867q21 0 34.5 -14t13.5 -34q0 -28 -21 -49t-48 -21q-21 0 -35 14t-14 35q0 27 21.5 48t48.5 21z" />
    <glyph glyph-name="multiply" unicode="&#xd7;" horiz-adv-x="609" 
d="M405 75l-101 128l-147 -127l-57 71l146 128l-101 128l78 69l102 -128l146 128l58 -72l-147 -128l101 -128z" />
    <glyph glyph-name="Oslash" unicode="&#xd8;" horiz-adv-x="703" 
d="M429 683q117 0 180 -63l63 64l43 -44l-71 -70q31 -58 31 -142q0 -62 -10.5 -120.5t-37 -116.5t-66 -101.5t-103 -70.5t-142.5 -27q-126 0 -190 61l-66 -66l-42 45l70 71q-27 51 -27 130q0 199 97 324.5t271 125.5zM557 419q0 28 -7 58l-340 -342q34 -46 119 -46
q96 0 162 91t66 239zM416 584q-61 0 -108.5 -31.5t-74 -82.5t-39.5 -107.5t-13 -114.5q0 -34 4 -50l339 339q-37 47 -108 47z" />
    <glyph glyph-name="Ugrave" unicode="&#xd9;" horiz-adv-x="672" 
d="M689 676l-71 -405q-24 -135 -95.5 -207t-216.5 -72q-151 0 -205 74t-30 213l70 397h116l-72 -408q-18 -99 17.5 -139t114.5 -40q154 0 186 186l71 401h115zM499 770l-40 -52l-182 105l57 82z" />
    <glyph glyph-name="Uacute" unicode="&#xda;" horiz-adv-x="672" 
d="M689 676l-71 -405q-24 -135 -95.5 -207t-216.5 -72q-151 0 -205 74t-30 213l70 397h116l-72 -408q-18 -99 17.5 -139t114.5 -40q154 0 186 186l71 401h115zM381 726l-32 56l193 129l48 -89z" />
    <glyph glyph-name="Ucircumflex" unicode="&#xdb;" horiz-adv-x="672" 
d="M689 676l-71 -405q-24 -135 -95.5 -207t-216.5 -72q-151 0 -205 74t-30 213l70 397h116l-72 -408q-18 -99 17.5 -139t114.5 -40q154 0 186 186l71 401h115zM551 721l-105 108l-156 -107l-36 45l161 144h79l107 -147z" />
    <glyph glyph-name="Udieresis" unicode="&#xdc;" horiz-adv-x="672" 
d="M689 676l-71 -405q-24 -135 -95.5 -207t-216.5 -72q-151 0 -205 74t-30 213l70 397h116l-72 -408q-18 -99 17.5 -139t114.5 -40q154 0 186 186l71 401h115zM353 866q21 0 35 -14t14 -34q0 -28 -21 -49t-48 -21q-21 0 -34.5 14t-13.5 35q0 27 21 48t47 21zM538 866
q21 0 34.5 -14t13.5 -34q0 -28 -21 -49t-48 -21q-21 0 -35 14t-14 35q0 27 21.5 48t48.5 21z" />
    <glyph glyph-name="Yacute" unicode="&#xdd;" horiz-adv-x="586" 
d="M306 360h8q47 86 109 174l99 141h129l-301 -425l-44 -250h-116q15 83 43 249l-147 426h124l54 -160q28 -84 42 -155zM339 726l-32 56l193 129l48 -89z" />
    <glyph glyph-name="Thorn" unicode="&#xde;" horiz-adv-x="588" 
d="M28 0l119 677h114l-22 -121h153q101 0 149.5 -49t48.5 -135q0 -31 -8 -63.5t-28.5 -66t-51 -60t-78.5 -43t-108 -16.5h-152l-22 -123h-114zM372 470h-148l-46 -260h148q58 0 105 38.5t47 115.5q0 50 -29 78t-77 28z" />
    <glyph glyph-name="germandbls" unicode="&#xdf;" horiz-adv-x="560" 
d="M32 19l81 460q40 237 245 237q85 0 132.5 -44.5t47.5 -106.5q0 -43 -24 -83.5t-63 -66.5q-37 -24 -37 -50q1 -29 42 -68q67 -65 67 -138q0 -74 -56 -125.5t-157 -51.5q-54 0 -107 14l13 85q38 -10 70 -10q53 0 86 24.5t33 64.5q0 44 -41 85q-69 69 -69 112q0 50 84 118
q20 16 34 40t14 47q0 30 -20 50t-59 20q-47 0 -79 -38t-45 -113l-86 -486q-17 -94 -62 -138.5t-130 -44.5q-40 0 -87 9l16 87q28 -5 48 -5q49 0 73.5 26t35.5 90z" />
    <glyph glyph-name="agrave" unicode="&#xe0;" horiz-adv-x="561" 
d="M245 80q69 0 110 66t41 155q0 47 -24 74t-71 27q-58 0 -101.5 -58.5t-43.5 -163.5q0 -100 89 -100zM541 486l-85 -486h-91q-10 35 -4 71h-6q-57 -79 -156 -79q-158 0 -158 177q0 130 66 227.5t179 97.5q100 0 137 -71h4q5 41 26 63h88zM418 592l-46 -47l-168 137l67 72z
" />
    <glyph glyph-name="aacute" unicode="&#xe1;" horiz-adv-x="561" 
d="M245 80q69 0 110 66t41 155q0 47 -24 74t-71 27q-58 0 -101.5 -58.5t-43.5 -163.5q0 -100 89 -100zM541 486l-85 -486h-91q-10 35 -4 71h-6q-57 -79 -156 -79q-158 0 -158 177q0 130 66 227.5t179 97.5q100 0 137 -71h4q5 41 26 63h88zM310 544l-44 48l163 165l63 -74z
" />
    <glyph glyph-name="acircumflex" unicode="&#xe2;" horiz-adv-x="561" 
d="M245 80q69 0 110 66t41 155q0 47 -24 74t-71 27q-58 0 -101.5 -58.5t-43.5 -163.5q0 -100 89 -100zM541 486l-85 -486h-91q-10 35 -4 71h-6q-57 -79 -156 -79q-158 0 -158 177q0 130 66 227.5t179 97.5q100 0 137 -71h4q5 41 26 63h88zM455 546l-101 111l-152 -111
l-39 45l163 150h79l107 -153z" />
    <glyph glyph-name="atilde" unicode="&#xe3;" horiz-adv-x="561" 
d="M245 80q69 0 110 66t41 155q0 47 -24 74t-71 27q-58 0 -101.5 -58.5t-43.5 -163.5q0 -100 89 -100zM541 486l-85 -486h-91q-10 35 -4 71h-6q-57 -79 -156 -79q-158 0 -158 177q0 130 66 227.5t179 97.5q100 0 137 -71h4q5 41 26 63h88zM408 574q-27 0 -68.5 20.5
t-61.5 21.5q-36 0 -76 -34l-40 32q54 84 125 84q23 0 63.5 -20t65.5 -20q40 0 76 33l41 -32q-45 -85 -125 -85z" />
    <glyph glyph-name="adieresis" unicode="&#xe4;" horiz-adv-x="561" 
d="M245 80q69 0 110 66t41 155q0 47 -24 74t-71 27q-58 0 -101.5 -58.5t-43.5 -163.5q0 -100 89 -100zM541 486l-85 -486h-91q-10 35 -4 71h-6q-57 -79 -156 -79q-158 0 -158 177q0 130 66 227.5t179 97.5q100 0 137 -71h4q5 41 26 63h88zM263 686q21 0 34 -14t13 -35
q0 -27 -21 -48t-47 -21q-22 0 -35.5 14t-13.5 35q0 27 21.5 48t48.5 21zM446 686q22 0 35.5 -14t13.5 -35q0 -27 -21.5 -48t-48.5 -21q-20 0 -33.5 13.5t-13.5 33.5q0 28 20.5 49.5t47.5 21.5z" />
    <glyph glyph-name="aring" unicode="&#xe5;" horiz-adv-x="561" 
d="M245 80q69 0 110 66t41 155q0 47 -24 74t-71 27q-58 0 -101.5 -58.5t-43.5 -163.5q0 -100 89 -100zM541 486l-85 -486h-91q-10 35 -4 71h-6q-57 -79 -156 -79q-158 0 -158 177q0 130 66 227.5t179 97.5q100 0 137 -71h4q5 41 26 63h88zM340 546q-41 0 -65.5 24.5
t-24.5 64.5q0 58 39 96.5t91 38.5q42 0 67.5 -26.5t25.5 -67.5q0 -56 -38.5 -93t-94.5 -37zM369 707q-22 0 -38.5 -18.5t-16.5 -42.5q0 -17 10 -28.5t27 -11.5q25 0 41.5 19t16.5 41q0 18 -10.5 29.5t-29.5 11.5z" />
    <glyph glyph-name="ae" unicode="&#xe6;" horiz-adv-x="835" 
d="M629 493q92 0 133.5 -39t41.5 -94q0 -158 -284 -165h-51q-2 -14 -2 -21q0 -91 92 -91q51 0 75.5 19.5t36.5 54.5h99q0 -17 -1 -25q-8 -67 -69 -103.5t-147 -36.5q-128 0 -174 81q-90 -83 -221 -83q-67 0 -103 30.5t-36 89.5q0 175 246 175q56 0 101 -6q5 30 5 49
q0 76 -83 76q-79 0 -96 -55h-97q-1 4 -1 13q0 37 21 64t54.5 40t67 19t67.5 6q115 0 154 -56q68 58 171 58zM135 132q0 -25 18.5 -39.5t49.5 -14.5q83 0 155 63q-5 27 -1 66q-47 5 -75 5q-147 0 -147 -80zM479 269q23 -1 42 0q89 2 129 26t40 56q0 24 -19.5 37t-52.5 13
q-61 0 -95.5 -37.5t-43.5 -94.5z" />
    <glyph glyph-name="ccedilla" unicode="&#xe7;" horiz-adv-x="502" 
d="M184 -227q-52 0 -104 18q4 9 12 26t11 24q40 -12 73 -12q32 0 52 13t20 35q0 31 -42 31q-24 0 -42 -10l-24 22l53 76q-150 21 -150 181q0 145 72.5 230.5t190.5 85.5q82 0 128.5 -34t46.5 -98q0 -13 -5 -36h-104q0 43 -18.5 57t-52.5 14q-70 0 -107.5 -62t-37.5 -153
q0 -96 93 -96q86 0 107 85h102v-8q0 -79 -59.5 -123.5t-147.5 -46.5l-24 -31q59 -1 83.5 -23.5t24.5 -53.5q0 -47 -40 -78.5t-111 -32.5z" />
    <glyph glyph-name="egrave" unicode="&#xe8;" horiz-adv-x="538" 
d="M318 493q91 0 132.5 -39t41.5 -94q0 -46 -26.5 -79.5t-72.5 -51.5t-98 -26t-112 -8h-26q-1 -7 -1 -21q0 -91 91 -91q51 0 75.5 19.5t36.5 54.5h99q1 -12 0 -22q-6 -69 -68 -106t-149 -37q-105 0 -151 51.5t-46 130.5q0 136 71 227.5t203 91.5zM306 401q-61 0 -95 -37
t-44 -95q10 -1 29 -1q94 0 138.5 25t44.5 58q0 24 -20 37t-53 13zM409 592l-46 -47l-168 137l67 72z" />
    <glyph glyph-name="eacute" unicode="&#xe9;" horiz-adv-x="538" 
d="M318 493q91 0 132.5 -39t41.5 -94q0 -46 -26.5 -79.5t-72.5 -51.5t-98 -26t-112 -8h-26q-1 -7 -1 -21q0 -91 91 -91q51 0 75.5 19.5t36.5 54.5h99q1 -12 0 -22q-6 -69 -68 -106t-149 -37q-105 0 -151 51.5t-46 130.5q0 136 71 227.5t203 91.5zM306 401q-61 0 -95 -37
t-44 -95q10 -1 29 -1q94 0 138.5 25t44.5 58q0 24 -20 37t-53 13zM309 544l-44 48l163 165l63 -74z" />
    <glyph glyph-name="ecircumflex" unicode="&#xea;" horiz-adv-x="538" 
d="M318 493q91 0 132.5 -39t41.5 -94q0 -46 -26.5 -79.5t-72.5 -51.5t-98 -26t-112 -8h-26q-1 -7 -1 -21q0 -91 91 -91q51 0 75.5 19.5t36.5 54.5h99q1 -12 0 -22q-6 -69 -68 -106t-149 -37q-105 0 -151 51.5t-46 130.5q0 136 71 227.5t203 91.5zM455 546l-101 111
l-152 -111l-39 45l163 150h79l107 -153zM306 401q-61 0 -95 -37t-44 -95q10 -1 29 -1q94 0 138.5 25t44.5 58q0 24 -20 37t-53 13z" />
    <glyph glyph-name="edieresis" unicode="&#xeb;" horiz-adv-x="538" 
d="M318 493q91 0 132.5 -39t41.5 -94q0 -46 -26.5 -79.5t-72.5 -51.5t-98 -26t-112 -8h-26q-1 -7 -1 -21q0 -91 91 -91q51 0 75.5 19.5t36.5 54.5h99q1 -12 0 -22q-6 -69 -68 -106t-149 -37q-105 0 -151 51.5t-46 130.5q0 136 71 227.5t203 91.5zM306 401q-61 0 -95 -37
t-44 -95q10 -1 29 -1q94 0 138.5 25t44.5 58q0 24 -20 37t-53 13zM264 686q21 0 34 -14t13 -35q0 -27 -20.5 -48t-47.5 -21q-22 0 -35.5 14t-13.5 35q0 27 21.5 48t48.5 21zM447 686q22 0 35.5 -14t13.5 -35q0 -27 -21.5 -48t-48.5 -21q-20 0 -33.5 13.5t-13.5 33.5
q0 28 20.5 49.5t47.5 21.5z" />
    <glyph glyph-name="igrave" unicode="&#xec;" horiz-adv-x="273" 
d="M252 592l-46 -47l-168 137l67 72zM37 0l85 486h113l-85 -486h-113z" />
    <glyph glyph-name="iacute" unicode="&#xed;" horiz-adv-x="273" 
d="M182 544l-44 48l163 165l63 -74zM37 0l85 486h113l-85 -486h-113z" />
    <glyph glyph-name="icircumflex" unicode="&#xee;" horiz-adv-x="272" 
d="M38 0l85 486h113l-85 -486h-113zM311 546l-101 111l-152 -111l-39 45l163 150h79l107 -153z" />
    <glyph glyph-name="idieresis" unicode="&#xef;" horiz-adv-x="272" 
d="M121 686q21 0 34 -14t13 -35q0 -27 -21 -48t-47 -21q-22 0 -35.5 14t-13.5 35q0 27 21.5 48t48.5 21zM304 686q22 0 35.5 -14t13.5 -35q0 -27 -21.5 -48t-48.5 -21q-20 0 -33.5 13.5t-13.5 33.5q0 28 20.5 49.5t47.5 21.5zM38 0l85 486h113l-85 -486h-113z" />
    <glyph glyph-name="eth" unicode="&#xf0;" horiz-adv-x="554" 
d="M300 464q36 0 73.5 -14.5t57.5 -49.5l5 1q2 13 2 39q0 67 -27 110l-78 -54l-25 41l70 50q-41 38 -114 52l29 86q113 -16 172 -75l73 52l29 -42l-70 -50q39 -65 39 -173q0 -38 -4.5 -79t-15.5 -94t-33.5 -99t-54.5 -86t-83 -63t-114 -23q-190 0 -190 175q0 128 69.5 212
t189.5 84zM298 375q-71 0 -109.5 -58t-38.5 -135q0 -102 95 -102q60 0 102.5 49.5t42.5 142.5q0 103 -92 103z" />
    <glyph glyph-name="ntilde" unicode="&#xf1;" horiz-adv-x="545" 
d="M363 493q171 0 136 -203l-50 -290h-114l50 283q3 27 2.5 53.5t-18 46t-50.5 19.5q-60 0 -97 -43t-47 -102l-46 -257h-114l85 486h91q11 -29 2 -86h4q61 93 166 93zM384 571q-27 0 -68.5 20.5t-61.5 21.5q-36 0 -76 -34l-40 32q54 84 125 84q23 0 63.5 -20t65.5 -20
q40 0 76 33l41 -32q-45 -85 -125 -85z" />
    <glyph glyph-name="ograve" unicode="&#xf2;" horiz-adv-x="557" 
d="M316 494q105 0 152.5 -54.5t47.5 -142.5q0 -54 -14 -105t-43.5 -97.5t-84 -74.5t-126.5 -28q-203 0 -203 188q0 135 70 224.5t201 89.5zM307 404q-72 0 -110.5 -63t-38.5 -154q0 -108 99 -108q62 0 103.5 58t41.5 159q0 108 -95 108zM416 592l-46 -47l-168 137l67 72z
" />
    <glyph glyph-name="oacute" unicode="&#xf3;" horiz-adv-x="557" 
d="M316 494q105 0 152.5 -54.5t47.5 -142.5q0 -54 -14 -105t-43.5 -97.5t-84 -74.5t-126.5 -28q-203 0 -203 188q0 135 70 224.5t201 89.5zM307 404q-72 0 -110.5 -63t-38.5 -154q0 -108 99 -108q62 0 103.5 58t41.5 159q0 108 -95 108zM332 544l-44 48l163 165l63 -74z" />
    <glyph glyph-name="ocircumflex" unicode="&#xf4;" horiz-adv-x="557" 
d="M316 494q105 0 152.5 -54.5t47.5 -142.5q0 -54 -14 -105t-43.5 -97.5t-84 -74.5t-126.5 -28q-203 0 -203 188q0 135 70 224.5t201 89.5zM307 404q-72 0 -110.5 -63t-38.5 -154q0 -108 99 -108q62 0 103.5 58t41.5 159q0 108 -95 108zM465 546l-101 111l-152 -111l-39 45
l163 150h79l107 -153z" />
    <glyph glyph-name="otilde" unicode="&#xf5;" horiz-adv-x="557" 
d="M316 494q105 0 152.5 -54.5t47.5 -142.5q0 -54 -14 -105t-43.5 -97.5t-84 -74.5t-126.5 -28q-203 0 -203 188q0 135 70 224.5t201 89.5zM307 404q-72 0 -110.5 -63t-38.5 -154q0 -108 99 -108q62 0 103.5 58t41.5 159q0 108 -95 108zM407 571q-27 0 -68.5 20.5
t-61.5 21.5q-36 0 -76 -34l-40 32q54 84 125 84q23 0 63.5 -20t65.5 -20q40 0 76 33l41 -32q-45 -85 -125 -85z" />
    <glyph glyph-name="odieresis" unicode="&#xf6;" horiz-adv-x="557" 
d="M316 494q105 0 152.5 -54.5t47.5 -142.5q0 -54 -14 -105t-43.5 -97.5t-84 -74.5t-126.5 -28q-203 0 -203 188q0 135 70 224.5t201 89.5zM307 404q-72 0 -110.5 -63t-38.5 -154q0 -108 99 -108q62 0 103.5 58t41.5 159q0 108 -95 108zM267 686q21 0 34 -14t13 -35
q0 -27 -21 -48t-47 -21q-22 0 -35.5 14t-13.5 35q0 27 21.5 48t48.5 21zM450 686q22 0 35.5 -14t13.5 -35q0 -27 -21.5 -48t-48.5 -21q-20 0 -33.5 13.5t-13.5 33.5q0 28 20.5 49.5t47.5 21.5z" />
    <glyph glyph-name="divide" unicode="&#xf7;" horiz-adv-x="611" 
d="M508 222h-408l15 87h408zM354 481q23 0 37.5 -14.5t14.5 -37.5q0 -31 -22.5 -53.5t-51.5 -22.5q-23 0 -37 15t-14 38q0 30 22.5 52.5t50.5 22.5zM301 177q23 0 37 -14.5t14 -37.5q0 -31 -22.5 -53.5t-51.5 -22.5q-22 0 -36.5 14.5t-14.5 37.5q0 30 23 53t51 23z" />
    <glyph glyph-name="oslash" unicode="&#xf8;" horiz-adv-x="557" 
d="M316 494q99 0 151 -55l61 54l32 -39l-64 -58q20 -43 20 -99q0 -54 -14 -105t-43.5 -97.5t-84 -74.5t-126.5 -28q-101 0 -153 50q-3 -2 -24 -20t-32 -27q-1 2 -14 17t-20 23l58 51q-18 37 -18 94q0 135 70 224.5t201 89.5zM307 404q-72 0 -111.5 -63.5t-39.5 -154.5
q0 -12 1 -18l228 199q-24 37 -78 37zM401 310q-152 -136 -225 -198q25 -34 79 -34q62 0 104.5 58.5t42.5 159.5q0 10 -1 14z" />
    <glyph glyph-name="ugrave" unicode="&#xf9;" horiz-adv-x="534" 
d="M180 -7q-90 0 -119 53t-13 148l51 292h115l-50 -284q-20 -122 68 -122q54 0 87.5 45t44.5 103l46 258h114l-85 -486h-91q-9 43 -1 85h-4q-63 -92 -163 -92zM395 592l-46 -47l-168 137l67 72z" />
    <glyph glyph-name="uacute" unicode="&#xfa;" horiz-adv-x="534" 
d="M180 -7q-90 0 -119 53t-13 148l51 292h115l-50 -284q-20 -122 68 -122q54 0 87.5 45t44.5 103l46 258h114l-85 -486h-91q-9 43 -1 85h-4q-63 -92 -163 -92zM316 544l-44 48l163 165l63 -74z" />
    <glyph glyph-name="ucircumflex" unicode="&#xfb;" horiz-adv-x="534" 
d="M180 -7q-90 0 -119 53t-13 148l51 292h115l-50 -284q-20 -122 68 -122q54 0 87.5 45t44.5 103l46 258h114l-85 -486h-91q-9 43 -1 85h-4q-63 -92 -163 -92zM449 546l-101 111l-152 -111l-39 45l163 150h79l107 -153z" />
    <glyph glyph-name="udieresis" unicode="&#xfc;" horiz-adv-x="534" 
d="M180 -7q-90 0 -119 53t-13 148l51 292h115l-50 -284q-20 -122 68 -122q54 0 87.5 45t44.5 103l46 258h114l-85 -486h-91q-9 43 -1 85h-4q-63 -92 -163 -92zM258 686q21 0 34 -14t13 -35q0 -27 -20.5 -48t-47.5 -21q-22 0 -35.5 14t-13.5 35q0 27 21.5 48t48.5 21z
M441 686q22 0 35.5 -14t13.5 -35q0 -27 -21.5 -48t-48.5 -21q-20 0 -33.5 13.5t-13.5 33.5q0 28 20.5 49.5t47.5 21.5z" />
    <glyph glyph-name="yacute" unicode="&#xfd;" horiz-adv-x="495" 
d="M228 81l108 227q34 73 54 176h106q-1 -7 -4 -25.5t-4.5 -24.5t-4 -21.5t-4.5 -22.5l-6 -21t-7.5 -23.5t-8.5 -22.5t-11 -26.5t-14 -28.5l-240 -473h-117l108 204l-42 -2l-94 488h112l39 -239q15 -92 23 -165h7zM271 544l-44 48l163 165l63 -74z" />
    <glyph glyph-name="thorn" unicode="&#xfe;" horiz-adv-x="555" 
d="M361 494q79 0 118.5 -46.5t39.5 -123.5q0 -145 -67.5 -238.5t-187.5 -93.5q-89 0 -125 50h-4q-15 -82 -43 -246h-112l162 915h111l-36 -190q-12 -56 -30 -113h5q66 86 169 86zM312 405q-63 0 -108 -69.5t-45 -165.5q0 -91 94 -91q65 0 106.5 65t41.5 159q0 102 -89 102z
" />
    <glyph glyph-name="ydieresis" unicode="&#xff;" horiz-adv-x="495" 
d="M228 81l108 227q34 73 54 176h106q-1 -7 -4 -25.5t-4.5 -24.5t-4 -21.5t-4.5 -22.5l-6 -21t-7.5 -23.5t-8.5 -22.5t-11 -26.5t-14 -28.5l-240 -473h-117l108 204l-42 -2l-94 488h112l39 -239q15 -92 23 -165h7zM216 686q21 0 34 -14t13 -35q0 -27 -20.5 -48t-47.5 -21
q-22 0 -35.5 14t-13.5 35q0 27 21.5 48t48.5 21zM399 686q22 0 35.5 -14t13.5 -35q0 -27 -21.5 -48t-48.5 -21q-20 0 -33.5 13.5t-13.5 33.5q0 28 20.5 49.5t47.5 21.5z" />
    <glyph glyph-name="Amacron" unicode="&#x100;" horiz-adv-x="635" 
d="M465 0l-28 163h-260l-84 -163h-125l367 678h122l127 -678h-119zM380 551h-7q-28 -65 -75 -155l-71 -139h195l-22 133q-18 129 -20 161zM256 762l15 83h304l-14 -83h-305z" />
    <glyph glyph-name="amacron" unicode="&#x101;" horiz-adv-x="561" 
d="M245 80q69 0 110 66t41 155q0 47 -24 74t-71 27q-58 0 -101.5 -58.5t-43.5 -163.5q0 -100 89 -100zM541 486l-85 -486h-91q-10 35 -4 71h-6q-57 -79 -156 -79q-158 0 -158 177q0 130 66 227.5t179 97.5q100 0 137 -71h4q5 41 26 63h88zM197 598l15 83h308l-15 -83h-308z
" />
    <glyph glyph-name="Abreve" unicode="&#x102;" horiz-adv-x="635" 
d="M465 0l-28 163h-260l-84 -163h-125l367 678h122l127 -678h-119zM380 551h-7q-28 -65 -75 -155l-71 -139h195l-22 133q-18 129 -20 161zM404 728q-41 0 -70.5 17.5t-43 45.5t-18.5 56t-2 56h75q-3 -39 12.5 -66.5t57.5 -27.5q40 0 67.5 28t38.5 66h78
q-13 -68 -64.5 -121.5t-130.5 -53.5z" />
    <glyph glyph-name="abreve" unicode="&#x103;" horiz-adv-x="561" 
d="M245 80q69 0 110 66t41 155q0 47 -24 74t-71 27q-58 0 -101.5 -58.5t-43.5 -163.5q0 -100 89 -100zM541 486l-85 -486h-91q-10 35 -4 71h-6q-57 -79 -156 -79q-158 0 -158 177q0 130 66 227.5t179 97.5q100 0 137 -71h4q5 41 26 63h88zM321 553q-42 0 -71 17t-40.5 43
t-17 55.5t0.5 55.5h73q-4 -37 11.5 -63t57.5 -26q41 0 67.5 26t38.5 63h81q-16 -65 -69 -118t-132 -53z" />
    <glyph glyph-name="Aogonek" unicode="&#x104;" horiz-adv-x="635" 
d="M584 0h-78q-57 -58 -67 -110q-5 -29 10.5 -41t48.5 -12q28 0 66 10l3 -42q-59 -28 -122 -28q-52 0 -77.5 21.5t-19.5 58.5q14 78 114 148l-26 158h-260l-84 -163h-124l367 678h122zM379 551h-7q-28 -65 -75 -155l-72 -139h196l-22 133q-18 129 -20 161z" />
    <glyph glyph-name="aogonek" unicode="&#x105;" horiz-adv-x="561" 
d="M541 486l-85 -486h-70q-31 -31 -49.5 -65t-18.5 -58q0 -40 60 -40q18 0 66 10q0 -1 3 -41q-61 -29 -121 -29q-48 0 -73.5 17.5t-25.5 48.5q0 36 33.5 84t99.5 89q-6 20 1 55h-6q-57 -79 -156 -79q-158 0 -158 177q0 130 66 227.5t179 97.5q99 0 137 -71h4q5 41 26 63h88z
M245 80q69 0 110 66t41 155q0 47 -24 74t-71 27q-58 0 -101.5 -58.5t-43.5 -163.5q0 -100 89 -100z" />
    <glyph glyph-name="Cacute" unicode="&#x106;" horiz-adv-x="632" 
d="M405 582q-105 0 -164 -94t-59 -243q0 -76 33 -115t107 -39q149 0 169 131h112q0 -9 -2 -27q-12 -102 -91 -152.5t-187 -50.5q-262 0 -262 243q0 198 91.5 322.5t259.5 124.5q98 0 162.5 -45t64.5 -125q0 -26 -6 -51h-111q2 14 2 21q0 48 -31.5 74t-87.5 26zM381 726
l-32 56l193 129l48 -89z" />
    <glyph glyph-name="cacute" unicode="&#x107;" horiz-adv-x="502" 
d="M306 493q83 0 129 -33.5t46 -97.5q0 -14 -5 -37h-102v6l1 5q0 63 -75 63q-71 0 -107 -63t-36 -155q0 -96 93 -96q43 0 69 19t37 66h102v-16q-5 -77 -65 -119.5t-147 -42.5q-203 0 -203 185q0 145 72.5 230.5t190.5 85.5zM301 544l-44 48l163 165l63 -74z" />
    <glyph glyph-name="Ccircumflex" unicode="&#x108;" horiz-adv-x="632" 
d="M405 582q-105 0 -164 -94t-59 -243q0 -76 33 -115t107 -39q149 0 169 131h112q0 -9 -2 -27q-12 -102 -91 -152.5t-187 -50.5q-262 0 -262 243q0 198 91.5 322.5t259.5 124.5q98 0 162.5 -45t64.5 -125q0 -26 -6 -51h-111q2 14 2 21q0 48 -31.5 74t-87.5 26zM561 721
l-105 108l-156 -107l-36 45l161 144h79l107 -147z" />
    <glyph glyph-name="ccircumflex" unicode="&#x109;" horiz-adv-x="502" 
d="M306 493q83 0 129 -33.5t46 -97.5q0 -14 -5 -37h-102v6l1 5q0 63 -75 63q-71 0 -107 -63t-36 -155q0 -96 93 -96q43 0 69 19t37 66h102v-16q-5 -77 -65 -119.5t-147 -42.5q-203 0 -203 185q0 145 72.5 230.5t190.5 85.5zM443 546l-101 111l-152 -111l-39 45l163 150h79
l107 -153z" />
    <glyph glyph-name="Cdotaccent" unicode="&#x10a;" horiz-adv-x="632" 
d="M405 582q-105 0 -164 -94t-59 -243q0 -76 33 -115t107 -39q149 0 169 131h112q0 -9 -2 -27q-12 -102 -91 -152.5t-187 -50.5q-262 0 -262 243q0 198 91.5 322.5t259.5 124.5q98 0 162.5 -45t64.5 -125q0 -26 -6 -51h-111q2 14 2 21q0 48 -31.5 74t-87.5 26zM443 873
q22 0 37 -15.5t15 -38.5q0 -29 -23.5 -51.5t-51.5 -22.5q-22 0 -36.5 14.5t-14.5 37.5q0 30 22.5 53t51.5 23z" />
    <glyph glyph-name="cdotaccent" unicode="&#x10b;" horiz-adv-x="502" 
d="M306 493q83 0 129 -33.5t46 -97.5q0 -14 -5 -37h-102v6l1 5q0 63 -75 63q-71 0 -107 -63t-36 -155q0 -96 93 -96q43 0 69 19t37 66h102v-16q-5 -77 -65 -119.5t-147 -42.5q-203 0 -203 185q0 145 72.5 230.5t190.5 85.5zM348 703q22 0 37 -15.5t15 -38.5
q0 -29 -23.5 -51.5t-51.5 -22.5q-22 0 -36.5 14.5t-14.5 37.5q0 30 22.5 53t51.5 23z" />
    <glyph glyph-name="Ccaron" unicode="&#x10c;" horiz-adv-x="632" 
d="M405 582q-105 0 -164 -94t-59 -243q0 -76 33 -115t107 -39q149 0 169 131h112q0 -9 -2 -27q-12 -102 -91 -152.5t-187 -50.5q-262 0 -262 243q0 198 91.5 322.5t259.5 124.5q98 0 162.5 -45t64.5 -125q0 -26 -6 -51h-111q2 14 2 21q0 48 -31.5 74t-87.5 26zM438 808
l145 106l42 -45l-158 -145h-79l-111 145l53 45z" />
    <glyph glyph-name="ccaron" unicode="&#x10d;" horiz-adv-x="502" 
d="M306 493q83 0 129 -33.5t46 -97.5q0 -14 -5 -37h-102v6l1 5q0 63 -75 63q-71 0 -107 -63t-36 -155q0 -96 93 -96q43 0 69 19t37 66h102v-16q-5 -77 -65 -119.5t-147 -42.5q-203 0 -203 185q0 145 72.5 230.5t190.5 85.5zM337 633l148 108l39 -44l-161 -146h-79l-106 145
l55 45z" />
    <glyph glyph-name="Dcaron" unicode="&#x10e;" horiz-adv-x="646" 
d="M156 99h73q33 0 66.5 7t71.5 27.5t67 52t48 87t19 126.5q0 44 -13 77.5t-32.5 52t-46.5 30t-49.5 15t-47.5 3.5h-71zM24 0l119 676h185q59 0 109 -14.5t92 -45t66 -84.5t24 -127q0 -182 -106 -293.5t-270 -111.5h-219zM381 808l145 106l42 -45l-158 -145h-79l-111 145
l53 45z" />
    <glyph glyph-name="dcaron" unicode="&#x10f;" horiz-adv-x="716" 
d="M365 75h-4q-57 -83 -160 -83q-86 0 -122.5 50t-36.5 124q0 143 70 235.5t180 92.5q88 0 128 -48h4l48 264h109l-123 -710h-90q-10 33 -3 75zM246 81q65 0 109 66.5t44 162.5q0 93 -94 93q-65 0 -107 -62t-42 -160q0 -100 90 -100zM721 717q23 0 37 -14t14 -36
q0 -28 -15 -48l-98 -144l-33 13l52 106q-32 10 -32 46q0 31 23 54t52 23z" />
    <glyph glyph-name="Dcroat" unicode="&#x110;" horiz-adv-x="642" 
d="M24 0l54 308h-57l13 73h57l52 295h185q59 0 109 -14.5t92 -45t66 -84.5t24 -127q0 -182 -106 -293.5t-270 -111.5h-219zM156 99h73q33 0 66.5 7t71.5 27.5t67 52t48 87t19 126.5q0 44 -13 77.5t-32.5 52t-46.5 30t-49.5 15t-47.5 3.5h-71l-35 -196h141l-13 -73h-141z" />
    <glyph glyph-name="dcroat" unicode="&#x111;" horiz-adv-x="556" 
d="M367 75h-4q-57 -83 -162 -83q-45 0 -77.5 15t-49.5 40.5t-24.5 54.5t-7.5 63q0 142 68.5 232.5t179.5 90.5q93 0 131 -48h5l20 119h-146l12 65h146l16 87h110l-16 -87h53l-11 -65h-53l-97 -559h-89q-12 27 -4 75zM249 82q64 0 107.5 65.5t43.5 160.5q0 90 -93 90
q-65 0 -106 -61.5t-41 -158.5q0 -96 89 -96z" />
    <glyph glyph-name="Emacron" unicode="&#x112;" horiz-adv-x="564" 
d="M22 0l119 676h448l-18 -99h-332l-32 -177h309l-18 -100h-308l-35 -200h355l-17 -100h-471zM228 769l15 83h304l-14 -83h-305z" />
    <glyph glyph-name="emacron" unicode="&#x113;" horiz-adv-x="538" 
d="M318 493q91 0 132.5 -39t41.5 -94q0 -46 -26.5 -79.5t-72.5 -51.5t-98 -26t-112 -8h-26q-1 -7 -1 -21q0 -91 91 -91q51 0 75.5 19.5t36.5 54.5h99q1 -12 0 -22q-6 -69 -68 -106t-149 -37q-105 0 -151 51.5t-46 130.5q0 136 71 227.5t203 91.5zM181 598l15 83h308l-15 -83
h-308zM306 401q-61 0 -95 -37t-44 -95q10 -1 29 -1q94 0 138.5 25t44.5 58q0 24 -20 37t-53 13z" />
    <glyph glyph-name="Ebreve" unicode="&#x114;" horiz-adv-x="564" 
d="M22 0l119 676h448l-18 -99h-332l-32 -177h309l-18 -100h-308l-35 -200h355l-17 -100h-471zM379 728q-41 0 -70.5 17.5t-43 45.5t-18.5 56t-2 56h75q-3 -39 12.5 -66.5t57.5 -27.5q40 0 67.5 28t38.5 66h78q-13 -68 -64.5 -121.5t-130.5 -53.5z" />
    <glyph glyph-name="ebreve" unicode="&#x115;" horiz-adv-x="538" 
d="M318 493q91 0 132.5 -39t41.5 -94q0 -46 -26.5 -79.5t-72.5 -51.5t-98 -26t-112 -8h-26q-1 -7 -1 -21q0 -91 91 -91q51 0 75.5 19.5t36.5 54.5h99q1 -12 0 -22q-6 -69 -68 -106t-149 -37q-105 0 -151 51.5t-46 130.5q0 136 71 227.5t203 91.5zM327 553q-42 0 -71 17
t-40.5 43t-17 55.5t0.5 55.5h73q-4 -37 11.5 -63t57.5 -26q41 0 67.5 26t38.5 63h81q-16 -65 -69 -118t-132 -53zM306 401q-61 0 -95 -37t-44 -95q10 -1 29 -1q94 0 138.5 25t44.5 58q0 24 -20 37t-53 13z" />
    <glyph glyph-name="Edotaccent" unicode="&#x116;" horiz-adv-x="564" 
d="M22 0l119 676h448l-18 -99h-332l-32 -177h309l-18 -100h-308l-35 -200h355l-17 -100h-471zM385 873q22 0 37 -15.5t15 -38.5q0 -29 -23.5 -51.5t-51.5 -22.5q-22 0 -36.5 14.5t-14.5 37.5q0 30 22.5 53t51.5 23z" />
    <glyph glyph-name="edotaccent" unicode="&#x117;" horiz-adv-x="538" 
d="M318 493q91 0 132.5 -39t41.5 -94q0 -46 -26.5 -79.5t-72.5 -51.5t-98 -26t-112 -8h-26q-1 -7 -1 -21q0 -91 91 -91q51 0 75.5 19.5t36.5 54.5h99q1 -12 0 -22q-6 -69 -68 -106t-149 -37q-105 0 -151 51.5t-46 130.5q0 136 71 227.5t203 91.5zM306 401q-61 0 -95 -37
t-44 -95q10 -1 29 -1q94 0 138.5 25t44.5 58q0 24 -20 37t-53 13zM360 703q22 0 37 -15.5t15 -38.5q0 -29 -23.5 -51.5t-51.5 -22.5q-22 0 -36.5 14.5t-14.5 37.5q0 30 22.5 53t51.5 23z" />
    <glyph glyph-name="Eogonek" unicode="&#x118;" horiz-adv-x="564" 
d="M22 0l119 676h450l-18 -99h-334l-32 -177h309l-18 -100h-308l-35 -200h354l-17 -100h-40q-65 -64 -74 -120q-7 -50 59 -50q16 0 66 10l3 -41q-61 -29 -121 -29q-51 0 -77 20.5t-21 54.5q8 79 116 155h-381z" />
    <glyph glyph-name="eogonek" unicode="&#x119;" horiz-adv-x="523" 
d="M318 493q91 0 132.5 -39t41.5 -94q0 -46 -26.5 -79.5t-72.5 -51.5t-98 -26t-112 -8h-26q-1 -7 -1 -21q0 -91 91 -91q51 0 75.5 19.5t36.5 54.5h99q1 -12 0 -22q-9 -96 -121 -130q-33 -31 -53 -67t-20 -61q0 -40 60 -40q28 0 66 10l3 -42q-59 -28 -122 -28q-48 0 -73 17.5
t-25 48.5q0 30 25.5 71t74.5 80q-20 -2 -32 -2q-105 0 -151 51.5t-46 130.5q0 136 71 227.5t203 91.5zM306 401q-61 0 -95 -37t-44 -95q10 -1 29 -1q94 0 138.5 25t44.5 58q0 24 -20 37t-53 13z" />
    <glyph glyph-name="Ecaron" unicode="&#x11a;" horiz-adv-x="564" 
d="M22 0l119 676h448l-18 -99h-332l-32 -177h309l-18 -100h-308l-35 -200h355l-17 -100h-471zM392 808l145 106l42 -45l-158 -145h-79l-111 145l53 45z" />
    <glyph glyph-name="ecaron" unicode="&#x11b;" horiz-adv-x="538" 
d="M318 493q91 0 132.5 -39t41.5 -94q0 -46 -26.5 -79.5t-72.5 -51.5t-98 -26t-112 -8h-26q-1 -7 -1 -21q0 -91 91 -91q51 0 75.5 19.5t36.5 54.5h99q1 -12 0 -22q-6 -69 -68 -106t-149 -37q-105 0 -151 51.5t-46 130.5q0 136 71 227.5t203 91.5zM335 633l148 108l39 -44
l-161 -146h-79l-106 145l55 45zM306 401q-61 0 -95 -37t-44 -95q10 -1 29 -1q94 0 138.5 25t44.5 58q0 24 -20 37t-53 13z" />
    <glyph glyph-name="Gcircumflex" unicode="&#x11c;" horiz-adv-x="667" 
d="M409 583q-75 0 -128.5 -50t-76.5 -124.5t-23 -164.5q0 -154 143 -154q84 0 129 41.5t57 106.5l6 36h-125l16 91h237l-16 -111q-18 -125 -95 -193.5t-215 -68.5q-257 0 -257 249q0 194 94.5 319t262.5 125q98 0 163 -42t65 -119q0 -32 -8 -56h-112q1 7 1 20q0 49 -32.5 72
t-85.5 23zM562 721l-105 108l-156 -107l-36 45l161 144h79l107 -147z" />
    <glyph glyph-name="gcircumflex" unicode="&#x11d;" horiz-adv-x="563" 
d="M206 -213q-83 0 -142.5 31t-59.5 90q0 20 8 43h100q0 -1 0.5 -6.5t0.5 -6.5q6 -60 92 -60q120 0 144 120q13 61 28 94h-4q-27 -39 -73 -64.5t-97 -25.5q-77 0 -118 42.5t-41 120.5q0 61 14.5 117.5t43 105t78 77.5t113.5 29q43 0 79 -20.5t50 -60.5h4q8 51 27 73h92
l-82 -471q-19 -112 -77.5 -170t-179.5 -58zM305 402q-65 0 -105.5 -62.5t-40.5 -149.5q0 -99 94 -99q42 0 73 26t45.5 64t21 69t6.5 54q0 98 -94 98zM464 546l-101 111l-152 -111l-39 45l163 150h79l107 -153z" />
    <glyph glyph-name="Gbreve" unicode="&#x11e;" horiz-adv-x="667" 
d="M409 583q-75 0 -128.5 -50t-76.5 -124.5t-23 -164.5q0 -154 143 -154q84 0 129 41.5t57 106.5l6 36h-125l16 91h237l-16 -111q-18 -125 -95 -193.5t-215 -68.5q-257 0 -257 249q0 194 94.5 319t262.5 125q98 0 163 -42t65 -119q0 -32 -8 -56h-112q1 7 1 20q0 49 -32.5 72
t-85.5 23zM438 728q-41 0 -70.5 17.5t-43 45.5t-18.5 56t-2 56h75q-3 -39 12.5 -66.5t57.5 -27.5q40 0 67.5 28t38.5 66h78q-13 -68 -64.5 -121.5t-130.5 -53.5z" />
    <glyph glyph-name="gbreve" unicode="&#x11f;" horiz-adv-x="563" 
d="M206 -213q-83 0 -142.5 31t-59.5 90q0 20 8 43h100q0 -1 0.5 -6.5t0.5 -6.5q6 -60 92 -60q120 0 144 120q13 61 28 94h-4q-27 -39 -73 -64.5t-97 -25.5q-77 0 -118 42.5t-41 120.5q0 61 14.5 117.5t43 105t78 77.5t113.5 29q43 0 79 -20.5t50 -60.5h4q8 51 27 73h92
l-82 -471q-19 -112 -77.5 -170t-179.5 -58zM305 402q-65 0 -105.5 -62.5t-40.5 -149.5q0 -99 94 -99q42 0 73 26t45.5 64t21 69t6.5 54q0 98 -94 98zM333 553q-42 0 -71 17t-40.5 43t-17 55.5t0.5 55.5h73q-4 -37 11.5 -63t57.5 -26q41 0 67.5 26t38.5 63h81
q-16 -65 -69 -118t-132 -53z" />
    <glyph glyph-name="Gdotaccent" unicode="&#x120;" horiz-adv-x="667" 
d="M409 583q-75 0 -128.5 -50t-76.5 -124.5t-23 -164.5q0 -154 143 -154q84 0 129 41.5t57 106.5l6 36h-125l16 91h237l-16 -111q-18 -125 -95 -193.5t-215 -68.5q-257 0 -257 249q0 194 94.5 319t262.5 125q98 0 163 -42t65 -119q0 -32 -8 -56h-112q1 7 1 20q0 49 -32.5 72
t-85.5 23zM448 874q22 0 37 -15.5t15 -38.5q0 -29 -23.5 -51.5t-51.5 -22.5q-22 0 -36.5 14.5t-14.5 37.5q0 30 22.5 53t51.5 23z" />
    <glyph glyph-name="gdotaccent" unicode="&#x121;" horiz-adv-x="563" 
d="M206 -213q-83 0 -142.5 31t-59.5 90q0 20 8 43h100q0 -1 0.5 -6.5t0.5 -6.5q6 -60 92 -60q120 0 144 120q13 61 28 94h-4q-27 -39 -73 -64.5t-97 -25.5q-77 0 -118 42.5t-41 120.5q0 61 14.5 117.5t43 105t78 77.5t113.5 29q43 0 79 -20.5t50 -60.5h4q8 51 27 73h92
l-82 -471q-19 -112 -77.5 -170t-179.5 -58zM305 402q-65 0 -105.5 -62.5t-40.5 -149.5q0 -99 94 -99q42 0 73 26t45.5 64t21 69t6.5 54q0 98 -94 98zM374 703q22 0 37 -15.5t15 -38.5q0 -29 -23.5 -51.5t-51.5 -22.5q-22 0 -36.5 14.5t-14.5 37.5q0 30 22.5 53t51.5 23z" />
    <glyph glyph-name="Gcommaaccent" unicode="&#x122;" horiz-adv-x="667" 
d="M409 583q-75 0 -128.5 -50t-76.5 -124.5t-23 -164.5q0 -154 143 -154q84 0 129 41.5t57 106.5l6 36h-125l16 91h237l-16 -111q-18 -125 -95 -193.5t-215 -68.5q-257 0 -257 249q0 194 94.5 319t262.5 125q98 0 163 -42t65 -119q0 -32 -8 -56h-112q1 7 1 20q0 49 -32.5 72
t-85.5 23zM294 -45q23 0 37 -14t14 -36q0 -28 -15 -48l-98 -144l-33 13l52 106q-32 10 -32 46q0 31 23 54t52 23z" />
    <glyph glyph-name="gcommaaccent" unicode="&#x123;" horiz-adv-x="563" 
d="M324 543q-24 0 -38 14t-14 36q0 27 14 48l97 139l33 -14l-51 -100q32 -10 32 -47q0 -30 -22.5 -53t-50.5 -23zM206 -213q-83 0 -142.5 31t-59.5 90q0 20 8 43h100q0 -1 0.5 -6.5t0.5 -6.5q6 -60 92 -60q120 0 144 120q13 61 28 94h-4q-27 -39 -73 -64.5t-97 -25.5
q-77 0 -118 42.5t-41 120.5q0 61 14.5 117.5t43 105t78 77.5t113.5 29q43 0 79 -20.5t50 -60.5h4q8 51 27 73h92l-82 -471q-19 -112 -77.5 -170t-179.5 -58zM305 402q-65 0 -105.5 -62.5t-40.5 -149.5q0 -99 94 -99q42 0 73 26t45.5 64t21 69t6.5 54q0 98 -94 98z" />
    <glyph glyph-name="Hcircumflex" unicode="&#x124;" horiz-adv-x="673" 
d="M455 0l53 303h-318l-52 -303h-116l119 676h116l-50 -276h318l49 276h116l-119 -676h-116zM556 721l-105 108l-156 -107l-36 45l161 144h79l107 -147z" />
    <glyph glyph-name="hcircumflex" unicode="&#x125;" horiz-adv-x="545" 
d="M186 407h5q31 43 78 65t94 22q53 0 86.5 -18.5t44.5 -49t13 -69t-8 -78.5l-49 -279h-115l49 276q11 62 -3.5 96.5t-68.5 34.5q-56 0 -91.5 -45t-45.5 -101l-46 -261h-113l125 712h111l-34 -196q-14 -72 -32 -109zM324 726l-105 108l-156 -107l-36 45l161 144h79l107 -147
z" />
    <glyph glyph-name="Hbar" unicode="&#x126;" horiz-adv-x="673" 
d="M457 0l52 300h-319l-53 -300h-115l92 527h-44l12 70h44l15 79h115l-14 -79h319l15 79h114l-14 -79h48l-12 -70h-49l-92 -527h-114zM207 400h319l23 127h-320z" />
    <glyph glyph-name="hbar" unicode="&#x127;" horiz-adv-x="545" 
d="M185 393h4q30 43 77 64.5t94 21.5q54 0 87 -17t44.5 -45.5t13 -66t-7.5 -77.5l-47 -273h-115l47 270q12 59 -3 90.5t-69 31.5q-57 0 -92.5 -45t-46.5 -103l-42 -244h-113l97 556h-48l12 68h48l16 88h111l-15 -88h209l-11 -68h-210l-7 -40q-16 -85 -33 -123z" />
    <glyph glyph-name="Itilde" unicode="&#x128;" horiz-adv-x="274" 
d="M38 0l119 676h118l-119 -676h-118zM299 741q-27 0 -68.5 20.5t-61.5 21.5q-36 0 -76 -34l-40 32q54 84 125 84q23 0 63.5 -20t65.5 -20q40 0 76 33l41 -32q-45 -85 -125 -85z" />
    <glyph glyph-name="itilde" unicode="&#x129;" horiz-adv-x="273" 
d="M257 571q-27 0 -68.5 20.5t-61.5 21.5q-36 0 -76 -34l-40 32q54 84 125 84q23 0 63.5 -20t65.5 -20q40 0 76 33l41 -32q-45 -85 -125 -85zM37 0l85 486h113l-85 -486h-113z" />
    <glyph glyph-name="Imacron" unicode="&#x12a;" horiz-adv-x="274" 
d="M38 0l119 676h118l-119 -676h-118zM73 762l15 83h304l-14 -83h-305z" />
    <glyph glyph-name="imacron" unicode="&#x12b;" horiz-adv-x="273" 
d="M42 598l15 83h308l-15 -83h-308zM37 0l85 486h113l-85 -486h-113z" />
    <glyph glyph-name="Ibreve" unicode="&#x12c;" horiz-adv-x="282" 
d="M49 0l119 676h118l-119 -676h-118zM237 728q-41 0 -70.5 17.5t-43 45.5t-18.5 56t-2 56h75q-3 -39 12.5 -66.5t57.5 -27.5q40 0 67.5 28t38.5 66h78q-13 -68 -64.5 -121.5t-130.5 -53.5z" />
    <glyph glyph-name="ibreve" unicode="&#x12d;" horiz-adv-x="273" 
d="M182 559q-42 0 -71 17t-40.5 43t-17 55.5t0.5 55.5h73q-4 -37 11.5 -63t57.5 -26q41 0 67.5 26t38.5 63h81q-16 -65 -69 -118t-132 -53zM37 0l85 486h113l-85 -486h-113z" />
    <glyph glyph-name="Iogonek" unicode="&#x12e;" horiz-adv-x="271" 
d="M154 0h-74q-32 -32 -50.5 -65.5t-18.5 -57.5q0 -40 60 -40q22 0 67 9l2 -41q-59 -28 -121 -28q-46 0 -72 18t-26 47q0 34 29.5 79t86.5 85l118 669h118z" />
    <glyph glyph-name="iogonek" unicode="&#x12f;" horiz-adv-x="269" 
d="M150 0h-75q-66 -68 -66 -121q0 -40 60 -40q28 0 66 10l3 -42q-59 -28 -122 -28q-47 0 -72.5 17.5t-25.5 48.5q0 33 30 79t90 86l84 476h113zM214 685q27 0 41.5 -13.5t14.5 -37.5q0 -39 -23 -61t-57 -22q-54 0 -54 49q0 38 21 61.5t57 23.5z" />
    <glyph glyph-name="Idotaccent" unicode="&#x130;" horiz-adv-x="274" 
d="M38 0l119 676h118l-119 -676h-118zM254 873q22 0 37 -15.5t15 -38.5q0 -29 -23.5 -51.5t-51.5 -22.5q-22 0 -36.5 14.5t-14.5 37.5q0 30 22.5 53t51.5 23z" />
    <glyph glyph-name="dotlessi" unicode="&#x131;" horiz-adv-x="272" 
d="M38 0l85 486h113l-85 -486h-113z" />
    <glyph glyph-name="IJ" unicode="&#x132;" horiz-adv-x="791" 
d="M38 0l119 676h118l-119 -676h-118zM453 -8q-96 0 -154 37t-58 106q0 31 12 69h108q-2 -9 -2 -26q0 -86 97 -87q72 0 105 38t46 109l78 438h114l-79 -447q-6 -37 -14.5 -65t-28 -62.5t-46.5 -56.5t-72.5 -37.5t-105.5 -15.5z" />
    <glyph glyph-name="ij" unicode="&#x133;" horiz-adv-x="495" 
d="M38 0l85 486h113l-85 -486h-113zM216 687q25 0 40.5 -16t15.5 -41q0 -32 -24.5 -56t-55.5 -24q-25 0 -40 15.5t-15 39.5q0 33 24 57.5t55 24.5zM165 -206l13 94q46 0 61 12t21 44l96 542h114l-98 -551q-6 -32 -13.5 -54t-23.5 -45t-44 -35t-67 -12q-22 0 -59 5zM451 687
q25 0 40.5 -16t15.5 -41q0 -32 -24.5 -56t-55.5 -24q-25 0 -40 15.5t-15 39.5q0 33 24 57.5t55 24.5z" />
    <glyph glyph-name="Jcircumflex" unicode="&#x134;" horiz-adv-x="564" 
d="M215 -8q-96 0 -154 37t-58 106q0 31 12 69h108q-2 -9 -2 -26q0 -86 97 -87q72 0 105 38t46 109l78 438h114l-79 -447q-6 -37 -14.5 -65t-28 -62.5t-46.5 -56.5t-72.5 -37.5t-105.5 -15.5zM647 723l-105 108l-156 -107l-36 45l161 144h79l107 -147z" />
    <glyph glyph-name="jcircumflex" unicode="&#x135;" horiz-adv-x="262" 
d="M-70 -206q4 31 14 93q44 1 60 14t22 45q19 105 53.5 303.5t41.5 236.5h114l-98 -551q-6 -32 -13.5 -54t-23.5 -45t-44 -35t-67 -12q-22 0 -59 5zM313 546l-101 111l-152 -111l-39 45l163 150h79l107 -153z" />
    <glyph glyph-name="Kcommaaccent" unicode="&#x136;" horiz-adv-x="591" 
d="M256 676l-47 -268h61l255 268h143l-304 -316l194 -360h-135l-158 306h-74l-54 -306h-115l119 676h115zM251 -25q23 0 37 -14t14 -36q0 -28 -15 -48l-98 -144l-33 13l52 106q-32 10 -32 46q0 31 23 54t52 23z" />
    <glyph glyph-name="kcommaaccent" unicode="&#x137;" horiz-adv-x="503" 
d="M400 485h135q-214 -217 -215 -218l141 -267h-126l-111 221h-57l-39 -221h-112l125 711h112l-69 -398h49zM205 -45q23 0 37 -14t14 -36q0 -28 -15 -48l-98 -144l-33 13l52 106q-32 10 -32 46q0 31 23 54t52 23z" />
    <glyph glyph-name="kgreenlandic" unicode="&#x138;" horiz-adv-x="501" 
d="M213 486l-32 -183h47l175 182h133q-73 -74 -217 -224l138 -261h-125l-106 211h-62l-36 -211h-113l85 486h113z" />
    <glyph glyph-name="Lacute" unicode="&#x139;" horiz-adv-x="528" 
d="M23 0l119 676h117l-102 -576h339l-17 -100h-456zM192 726l-32 56l193 129l48 -89z" />
    <glyph glyph-name="lacute" unicode="&#x13a;" horiz-adv-x="257" 
d="M44 111l107 600h111l-104 -588q-4 -24 4.5 -31.5t37.5 -8.5l-10 -84q-36 -7 -67 -7q-58 0 -74 28t-5 91zM197 762l-32 56l193 129l48 -89z" />
    <glyph glyph-name="Lcommaaccent" unicode="&#x13b;" horiz-adv-x="528" 
d="M23 0l119 676h117l-102 -576h339l-17 -100h-456zM245 -45q23 0 37 -14t14 -36q0 -28 -15 -48l-98 -144l-33 13l52 106q-32 10 -32 46q0 31 23 54t52 23z" />
    <glyph glyph-name="lcommaaccent" unicode="&#x13c;" horiz-adv-x="257" 
d="M44 111l107 600h111l-104 -588q-4 -24 4.5 -31.5t37.5 -8.5l-10 -84q-36 -7 -67 -7q-58 0 -74 28t-5 91zM92 -45q23 0 37 -14t14 -36q0 -28 -15 -48l-98 -144l-33 13l52 106q-32 10 -32 46q0 31 23 54t52 23z" />
    <glyph glyph-name="Lcaron" unicode="&#x13d;" horiz-adv-x="528" 
d="M23 0l119 676h117l-102 -576h339l-17 -100h-456zM455 683q23 0 37 -14t14 -36q0 -28 -15 -48l-98 -144l-33 13l52 106q-32 10 -32 46q0 31 23 54t52 23z" />
    <glyph glyph-name="lcaron" unicode="&#x13e;" horiz-adv-x="340" 
d="M30 111l107 600h111l-104 -588q-4 -24 4.5 -31.5t37.5 -8.5l-10 -84q-36 -7 -67 -7q-58 0 -74 28t-5 91zM363 720q23 0 37 -14t14 -36q0 -28 -15 -48l-98 -144l-33 13l52 106q-32 10 -32 46q0 31 23 54t52 23z" />
    <glyph glyph-name="Ldot" unicode="&#x13f;" horiz-adv-x="528" 
d="M23 0l119 676h117l-102 -576h339l-17 -100h-456zM427 457q22 0 37 -15.5t15 -38.5q0 -29 -23.5 -51.5t-51.5 -22.5q-22 0 -36.5 14.5t-14.5 37.5q0 30 22.5 53t51.5 23z" />
    <glyph glyph-name="ldot" unicode="&#x140;" horiz-adv-x="380" 
d="M37 111l107 600h111l-104 -588q-4 -24 4.5 -31.5t37.5 -8.5l-10 -84q-36 -7 -67 -7q-58 0 -74 28t-5 91zM348 466q22 0 37 -15.5t15 -38.5q0 -29 -23.5 -51.5t-51.5 -22.5q-22 0 -36.5 14.5t-14.5 37.5q0 30 22.5 53t51.5 23z" />
    <glyph glyph-name="Lslash" unicode="&#x141;" horiz-adv-x="528" 
d="M23 0l40 224l-67 -33l-18 62l98 50l66 373h117l-55 -310l169 87l19 -62l-201 -103l-34 -188h339l-17 -100h-456z" />
    <glyph glyph-name="lslash" unicode="&#x142;" horiz-adv-x="257" 
d="M45 114l22 127l-76 -41l-20 61l111 60l69 390h111l-58 -323l86 46l21 -61l-121 -65l-32 -185q-5 -25 2.5 -32t39.5 -8l-15 -84q-36 -7 -62 -7q-60 0 -74.5 28.5t-3.5 93.5z" />
    <glyph glyph-name="Nacute" unicode="&#x143;" horiz-adv-x="674" 
d="M486 188h2q2 1 3 1l85 486h115l-119 -675h-104l-175 346q-44 87 -67 144l-4 -2q-19 -106 -85 -488h-116l119 675h108l152 -301q39 -78 86 -186zM388 726l-32 56l193 129l48 -89z" />
    <glyph glyph-name="nacute" unicode="&#x144;" horiz-adv-x="545" 
d="M363 493q171 0 136 -203l-50 -290h-114l50 283q3 27 2.5 53.5t-18 46t-50.5 19.5q-60 0 -97 -43t-47 -102l-46 -257h-114l85 486h91q11 -29 2 -86h4q61 93 166 93zM282 544l-44 48l163 165l63 -74z" />
    <glyph glyph-name="Ncommaaccent" unicode="&#x145;" horiz-adv-x="674" 
d="M486 188h2q2 1 3 1l85 486h115l-119 -675h-104l-175 346q-44 87 -67 144l-4 -2q-19 -106 -85 -488h-116l119 675h108l152 -301q39 -78 86 -186zM291 -25q23 0 37 -14t14 -36q0 -28 -15 -48l-98 -144l-33 13l52 106q-32 10 -32 46q0 31 23 54t52 23z" />
    <glyph glyph-name="ncommaaccent" unicode="&#x146;" horiz-adv-x="545" 
d="M363 493q171 0 136 -203l-50 -290h-114l50 283q3 27 2.5 53.5t-18 46t-50.5 19.5q-60 0 -97 -43t-47 -102l-46 -257h-114l85 486h91q11 -29 2 -86h4q61 93 166 93zM213 -45q23 0 37 -14t14 -36q0 -28 -15 -48l-98 -144l-33 13l52 106q-32 10 -32 46q0 31 23 54t52 23z
" />
    <glyph glyph-name="Ncaron" unicode="&#x147;" horiz-adv-x="674" 
d="M486 188h2q2 1 3 1l85 486h115l-119 -675h-104l-175 346q-44 87 -67 144l-4 -2q-19 -106 -85 -488h-116l119 675h108l152 -301q39 -78 86 -186zM441 808l145 106l42 -45l-158 -145h-79l-111 145l53 45z" />
    <glyph glyph-name="ncaron" unicode="&#x148;" horiz-adv-x="545" 
d="M363 493q171 0 136 -203l-50 -290h-114l50 283q3 27 2.5 53.5t-18 46t-50.5 19.5q-60 0 -97 -43t-47 -102l-46 -257h-114l85 486h91q11 -29 2 -86h4q61 93 166 93zM317 633l148 108l39 -44l-161 -146h-79l-106 145l55 45z" />
    <glyph glyph-name="napostrophe" unicode="&#x149;" horiz-adv-x="642" 
d="M459 493q171 0 136 -203l-50 -290h-114l50 283q3 27 2.5 53.5t-18 46t-50.5 19.5q-60 0 -97 -43t-47 -102l-46 -257h-114l85 486h91q11 -29 2 -86h4q61 93 166 93zM159 697q23 0 37 -14t14 -36q0 -28 -15 -48l-98 -144l-33 13l52 106q-32 10 -32 46q0 31 23 54t52 23z
" />
    <glyph glyph-name="Eng" unicode="&#x14a;" horiz-adv-x="674" 
d="M486 196l6 1l84 479h116l-134 -756q-11 -63 -43.5 -96.5t-102.5 -33.5q-62 0 -107 23l32 82q30 -11 59 -11q26 0 37.5 13t17.5 42l12 70l-154 301q-57 112 -82 176l-5 -2l-85 -484h-116l119 676h109l142 -276q54 -109 95 -204z" />
    <glyph glyph-name="eng" unicode="&#x14b;" horiz-adv-x="545" 
d="M363 493q52 0 84.5 -18t44 -48t13.5 -69.5t-8 -83.5l-49 -287q-9 -50 -17 -78t-25 -59t-47.5 -45t-75.5 -14q-48 0 -96 22l32 81q24 -9 54 -9q25 0 35 12t16 42l61 344q20 120 -68 120q-63 0 -98.5 -45t-46.5 -107l-43 -251h-114l85 486h91q14 -26 7 -71h4q33 40 78 59
t83 19z" />
    <glyph glyph-name="Omacron" unicode="&#x14c;" horiz-adv-x="703" 
d="M429 683q128 0 187 -70t59 -185q0 -62 -10.5 -120.5t-37 -116.5t-66 -101.5t-103 -70.5t-142.5 -27q-133 0 -194 64t-61 177q0 199 97 324.5t271 125.5zM416 584q-61 0 -108.5 -31.5t-74 -82.5t-39.5 -107.5t-13 -114.5q0 -81 35 -120t113 -39q96 0 162 91t66 239
q0 165 -141 165zM296 772l15 83h304l-14 -83h-305z" />
    <glyph glyph-name="omacron" unicode="&#x14d;" horiz-adv-x="557" 
d="M316 494q105 0 152.5 -54.5t47.5 -142.5q0 -54 -14 -105t-43.5 -97.5t-84 -74.5t-126.5 -28q-203 0 -203 188q0 135 70 224.5t201 89.5zM307 404q-72 0 -110.5 -63t-38.5 -154q0 -108 99 -108q62 0 103.5 58t41.5 159q0 108 -95 108zM191 598l15 83h308l-15 -83h-308z
" />
    <glyph glyph-name="Obreve" unicode="&#x14e;" horiz-adv-x="703" 
d="M429 683q128 0 187 -70t59 -185q0 -62 -10.5 -120.5t-37 -116.5t-66 -101.5t-103 -70.5t-142.5 -27q-133 0 -194 64t-61 177q0 199 97 324.5t271 125.5zM416 584q-61 0 -108.5 -31.5t-74 -82.5t-39.5 -107.5t-13 -114.5q0 -81 35 -120t113 -39q96 0 162 91t66 239
q0 165 -141 165zM453 735q-41 0 -70.5 17.5t-43 45.5t-18.5 56t-2 56h75q-3 -39 12.5 -66.5t57.5 -27.5q40 0 67.5 28t38.5 66h78q-13 -68 -64.5 -121.5t-130.5 -53.5z" />
    <glyph glyph-name="obreve" unicode="&#x14f;" horiz-adv-x="557" 
d="M316 494q105 0 152.5 -54.5t47.5 -142.5q0 -54 -14 -105t-43.5 -97.5t-84 -74.5t-126.5 -28q-203 0 -203 188q0 135 70 224.5t201 89.5zM307 404q-72 0 -110.5 -63t-38.5 -154q0 -108 99 -108q62 0 103.5 58t41.5 159q0 108 -95 108zM335 553q-42 0 -71 17t-40.5 43
t-17 55.5t0.5 55.5h73q-4 -37 11.5 -63t57.5 -26q41 0 67.5 26t38.5 63h81q-16 -65 -69 -118t-132 -53z" />
    <glyph glyph-name="Ohungarumlaut" unicode="&#x150;" horiz-adv-x="703" 
d="M429 683q128 0 187 -70t59 -185q0 -62 -10.5 -120.5t-37 -116.5t-66 -101.5t-103 -70.5t-142.5 -27q-133 0 -194 64t-61 177q0 199 97 324.5t271 125.5zM416 584q-61 0 -108.5 -31.5t-74 -82.5t-39.5 -107.5t-13 -114.5q0 -81 35 -120t113 -39q96 0 162 91t66 239
q0 165 -141 165zM281 729l-36 55l185 134l54 -86zM475 723l-36 55l185 134l53 -86z" />
    <glyph glyph-name="ohungarumlaut" unicode="&#x151;" horiz-adv-x="557" 
d="M316 494q105 0 152.5 -54.5t47.5 -142.5q0 -54 -14 -105t-43.5 -97.5t-84 -74.5t-126.5 -28q-203 0 -203 188q0 135 70 224.5t201 89.5zM307 404q-72 0 -110.5 -63t-38.5 -154q0 -108 99 -108q62 0 103.5 58t41.5 159q0 108 -95 108zM233 544l-44 49l162 164l65 -74z
M402 544l-44 49l162 164l64 -74z" />
    <glyph glyph-name="OE" unicode="&#x152;" horiz-adv-x="897" 
d="M425 683q47 0 85 -7h412l-18 -99h-314l-31 -177h298l-17 -100h-298l-36 -200h346l-17 -100h-438q-40 -8 -81 -8q-133 0 -194 64t-61 177q0 199 95 324.5t269 125.5zM329 89q33 0 62 12l84 471q-26 12 -59 12q-61 0 -108.5 -31.5t-74 -82.5t-39.5 -107.5t-13 -114.5
q0 -81 35 -120t113 -39z" />
    <glyph glyph-name="oe" unicode="&#x153;" horiz-adv-x="878" 
d="M598 -7q-122 0 -166 76q-69 -76 -185 -76q-203 0 -203 187q0 134 70 223.5t201 89.5q119 0 169 -81q70 81 191 81q91 0 132.5 -39t41.5 -94q0 -35 -15 -63t-50.5 -52t-103.5 -37t-166 -13q-1 -7 -1 -21q0 -92 91 -92q51 0 75.5 20t36.5 55h99q1 -4 1 -12
q0 -73 -64 -112.5t-154 -39.5zM306 400q-72 0 -110 -61.5t-38 -151.5q0 -105 99 -105q62 0 103.5 57t41.5 157q0 104 -96 104zM524 268q110 0 161 24t51 59q0 24 -20 36.5t-53 12.5q-61 0 -95 -37t-44 -95z" />
    <glyph glyph-name="Racute" unicode="&#x154;" horiz-adv-x="601" 
d="M601 496q0 -22 -5 -46.5t-20 -55t-38 -55t-62 -45t-89 -27.5l142 -267h-129l-136 262h-80q-28 -162 -46 -262h-115l119 675h260q97 0 148 -46.5t51 -132.5zM380 577h-141q-14 -85 -38 -217h139q56 0 101 31t45 96q0 44 -28 67t-78 23zM318 726l-32 56l193 129l48 -89z
" />
    <glyph glyph-name="racute" unicode="&#x155;" horiz-adv-x="346" 
d="M384 496l-12 -104q-91 -2 -137 -39.5t-60 -115.5l-43 -237h-113l85 486h90q12 -35 0 -95h4q32 55 82.5 80t103.5 25zM185 544l-44 48l163 165l63 -74z" />
    <glyph glyph-name="Rcommaaccent" unicode="&#x156;" horiz-adv-x="601" 
d="M601 496q0 -22 -5 -46.5t-20 -55t-38 -55t-62 -45t-89 -27.5l142 -267h-129l-136 262h-80q-28 -162 -46 -262h-115l119 675h260q97 0 148 -46.5t51 -132.5zM380 577h-141q-14 -85 -38 -217h139q56 0 101 31t45 96q0 44 -28 67t-78 23zM246 -25q23 0 37 -14t14 -36
q0 -28 -15 -48l-98 -144l-33 13l52 106q-32 10 -32 46q0 31 23 54t52 23z" />
    <glyph glyph-name="rcommaaccent" unicode="&#x157;" horiz-adv-x="346" 
d="M384 496l-12 -104q-91 -2 -137 -39.5t-60 -115.5l-43 -237h-113l85 486h90q12 -35 0 -95h4q32 55 82.5 80t103.5 25zM63 -45q23 0 37 -14t14 -36q0 -28 -15 -48l-98 -144l-33 13l52 106q-32 10 -32 46q0 31 23 54t52 23z" />
    <glyph glyph-name="Rcaron" unicode="&#x158;" horiz-adv-x="601" 
d="M601 496q0 -22 -5 -46.5t-20 -55t-38 -55t-62 -45t-89 -27.5l142 -267h-129l-136 262h-80q-28 -162 -46 -262h-115l119 675h260q97 0 148 -46.5t51 -132.5zM380 577h-141q-14 -85 -38 -217h139q56 0 101 31t45 96q0 44 -28 67t-78 23zM365 808l145 106l42 -45l-158 -145
h-79l-111 145l53 45z" />
    <glyph glyph-name="rcaron" unicode="&#x159;" horiz-adv-x="346" 
d="M384 496l-12 -104q-91 -2 -137 -39.5t-60 -115.5l-43 -237h-113l85 486h90q12 -35 0 -95h4q32 55 82.5 80t103.5 25zM231 633l148 108l39 -44l-161 -146h-79l-106 145l55 45z" />
    <glyph glyph-name="Sacute" unicode="&#x15a;" horiz-adv-x="628" 
d="M383 683q93 0 160.5 -40.5t67.5 -115.5q0 -21 -10 -56h-111v12q0 47 -30.5 74t-84.5 27q-65 0 -106 -27.5t-41 -77.5q0 -31 28 -49t98 -31q124 -25 177 -67t53 -114q0 -98 -78.5 -162t-220.5 -64q-109 0 -178 41.5t-69 122.5q0 30 11 63h109q-2 -16 -2 -22
q0 -63 37.5 -86.5t101.5 -23.5q81 0 122.5 33t41.5 84q0 39 -34.5 61t-121.5 38q-98 17 -147 51.5t-49 108.5q0 38 14 74.5t44 70.5t86.5 54.5t131.5 20.5zM362 726l-32 56l193 129l48 -89z" />
    <glyph glyph-name="sacute" unicode="&#x15b;" horiz-adv-x="483" 
d="M284 494q65 0 115.5 -26t50.5 -79q0 -22 -7 -40h-100q1 30 -20.5 43.5t-52.5 13.5q-43 0 -65.5 -20t-22.5 -47q0 -21 19 -30.5t67 -17.5q84 -16 122.5 -45t37.5 -85q-1 -74 -58 -121t-166 -47q-46 0 -85 11t-68 39.5t-29 69.5q0 21 7 43h99q-3 -43 24 -61t67 -18
q48 0 73 23.5t25 51.5q0 23 -20 34t-70 21q-82 16 -120.5 40t-38.5 78q0 68 51.5 118.5t164.5 50.5zM264 544l-44 48l163 165l63 -74z" />
    <glyph glyph-name="Scircumflex" unicode="&#x15c;" horiz-adv-x="628" 
d="M383 683q93 0 160.5 -40.5t67.5 -115.5q0 -21 -10 -56h-111v12q0 47 -30.5 74t-84.5 27q-65 0 -106 -27.5t-41 -77.5q0 -31 28 -49t98 -31q124 -25 177 -67t53 -114q0 -98 -78.5 -162t-220.5 -64q-109 0 -178 41.5t-69 122.5q0 30 11 63h109q-2 -16 -2 -22
q0 -63 37.5 -86.5t101.5 -23.5q81 0 122.5 33t41.5 84q0 39 -34.5 61t-121.5 38q-98 17 -147 51.5t-49 108.5q0 38 14 74.5t44 70.5t86.5 54.5t131.5 20.5zM531 721l-105 108l-156 -107l-36 45l161 144h79l107 -147z" />
    <glyph glyph-name="scircumflex" unicode="&#x15d;" horiz-adv-x="483" 
d="M284 494q65 0 115.5 -26t50.5 -79q0 -22 -7 -40h-100q1 30 -20.5 43.5t-52.5 13.5q-43 0 -65.5 -20t-22.5 -47q0 -21 19 -30.5t67 -17.5q84 -16 122.5 -45t37.5 -85q-1 -74 -58 -121t-166 -47q-46 0 -85 11t-68 39.5t-29 69.5q0 21 7 43h99q-3 -43 24 -61t67 -18
q48 0 73 23.5t25 51.5q0 23 -20 34t-70 21q-82 16 -120.5 40t-38.5 78q0 68 51.5 118.5t164.5 50.5zM418 546l-101 111l-152 -111l-39 45l163 150h79l107 -153z" />
    <glyph glyph-name="Scedilla" unicode="&#x15e;" horiz-adv-x="628" 
d="M234 -227q-53 0 -105 18l24 50q38 -12 73 -12q32 0 52 13t20 35q0 31 -42 31q-25 0 -42 -10q-5 4 -12.5 11t-12.5 11l52 74q-92 7 -147.5 48t-55.5 114q0 30 11 63h109v-10q0 -70 35.5 -94.5t101.5 -24.5q83 0 121.5 32.5t38.5 87.5q0 37 -34.5 58t-117.5 33
q-95 13 -145.5 50t-50.5 112q0 38 14 74.5t44 70.5t86.5 54.5t131.5 20.5q93 0 160.5 -40.5t67.5 -115.5q0 -21 -10 -56h-111q0 110 -115 110q-73 0 -108 -30.5t-35 -75.5q0 -29 26.5 -45.5t95.5 -27.5q125 -21 177.5 -66t52.5 -118q0 -95 -74 -158.5t-210 -67.5l-23 -31
q59 -1 83 -23.5t24 -53.5q0 -47 -40 -78.5t-110 -32.5z" />
    <glyph glyph-name="scedilla" unicode="&#x15f;" horiz-adv-x="483" 
d="M151 -228q-54 0 -105 19l24 50q42 -13 73 -13q32 0 52 13t20 35q0 31 -42 31q-28 0 -42 -10l-25 23l53 77q-59 8 -98 36.5t-39 79.5q0 21 7 43h99q0 -77 91 -77q48 0 73 22.5t25 50.5q0 23 -20.5 34.5t-69.5 18.5q-79 12 -119.5 37.5t-40.5 82.5q0 70 51.5 119.5
t165.5 49.5q65 0 115.5 -26t50.5 -79q0 -22 -7 -40h-100q0 30 -21 43.5t-52 13.5q-43 0 -65.5 -20t-22.5 -47q0 -21 18.5 -29t67.5 -16q84 -15 122 -44.5t38 -88.5q0 -71 -53.5 -117.5t-156.5 -50.5l-24 -33q59 -1 83.5 -23.5t24.5 -53.5q0 -46 -40 -78t-111 -33z" />
    <glyph glyph-name="Scaron" unicode="&#x160;" horiz-adv-x="628" 
d="M383 683q93 0 160.5 -40.5t67.5 -115.5q0 -21 -10 -56h-111v12q0 47 -30.5 74t-84.5 27q-65 0 -106 -27.5t-41 -77.5q0 -31 28 -49t98 -31q124 -25 177 -67t53 -114q0 -98 -78.5 -162t-220.5 -64q-109 0 -178 41.5t-69 122.5q0 30 11 63h109q-2 -16 -2 -22
q0 -63 37.5 -86.5t101.5 -23.5q81 0 122.5 33t41.5 84q0 39 -34.5 61t-121.5 38q-98 17 -147 51.5t-49 108.5q0 38 14 74.5t44 70.5t86.5 54.5t131.5 20.5zM413 808l145 106l42 -45l-158 -145h-79l-111 145l53 45z" />
    <glyph glyph-name="scaron" unicode="&#x161;" horiz-adv-x="483" 
d="M284 494q65 0 115.5 -26t50.5 -79q0 -22 -7 -40h-100q1 30 -20.5 43.5t-52.5 13.5q-43 0 -65.5 -20t-22.5 -47q0 -21 19 -30.5t67 -17.5q84 -16 122.5 -45t37.5 -85q-1 -74 -58 -121t-166 -47q-46 0 -85 11t-68 39.5t-29 69.5q0 21 7 43h99q-3 -43 24 -61t67 -18
q48 0 73 23.5t25 51.5q0 23 -20 34t-70 21q-82 16 -120.5 40t-38.5 78q0 68 51.5 118.5t164.5 50.5zM312 633l148 108l39 -44l-161 -146h-79l-106 145l55 45z" />
    <glyph glyph-name="Tcommaaccent" unicode="&#x162;" horiz-adv-x="575" 
d="M408 577l-101 -577h-115l101 577h-217l18 99h545l-18 -99h-213zM242 -45q23 0 37 -14t14 -36q0 -28 -15 -48l-98 -144l-33 13l52 106q-32 10 -32 46q0 31 23 54t52 23z" />
    <glyph glyph-name="tcommaaccent" unicode="&#x163;" horiz-adv-x="382" 
d="M275 618l-24 -132h136l-14 -83h-136l-42 -238q-8 -47 7.5 -64.5t67.5 -17.5q28 0 65 5q-4 -20 -13 -86q-48 -9 -103 -9q-169 0 -136 171l42 239h-75l12 69q51 7 83 13l49 133h81zM139 -45q23 0 37 -14t14 -36q0 -28 -15 -48l-98 -144l-33 13l52 106q-32 10 -32 46
q0 31 23 54t52 23z" />
    <glyph glyph-name="Tcaron" unicode="&#x164;" horiz-adv-x="575" 
d="M408 577l-101 -577h-115l101 577h-217l18 99h545l-18 -99h-213zM393 808l145 106l42 -45l-158 -145h-79l-111 145l53 45z" />
    <glyph glyph-name="tcaron" unicode="&#x165;" horiz-adv-x="440" 
d="M273 618l-24 -132h136l-14 -83h-136l-42 -238q-8 -47 7.5 -64.5t67.5 -17.5q28 0 65 5q-4 -20 -13 -86q-48 -9 -103 -9q-169 0 -136 171l42 239h-75l12 69q51 7 83 13l49 133h81zM452 783q23 0 37 -14t14 -36q0 -28 -15 -48l-98 -144l-33 13l52 106q-32 10 -32 46
q0 31 23 54t52 23z" />
    <glyph glyph-name="Tbar" unicode="&#x166;" horiz-adv-x="575" 
d="M408 577l-30 -170h153l-13 -72h-152l-59 -335h-115l58 335h-155l13 72h155l30 170h-217l18 99h545l-18 -99h-213z" />
    <glyph glyph-name="tbar" unicode="&#x167;" horiz-adv-x="382" 
d="M275 618l-24 -132h136l-14 -83h-136l-17 -92h125q-3 -12 -6.5 -35.5t-6.5 -35.5h-124l-13 -75q-8 -47 7.5 -64.5t67.5 -17.5q28 0 65 5q-4 -20 -13 -86q-48 -9 -103 -9q-86 0 -118.5 42t-17.5 129l13 76h-77q3 12 7 35.5t6 35.5h77l16 92h-75l12 69q51 7 83 13l49 133h81
z" />
    <glyph glyph-name="Utilde" unicode="&#x168;" horiz-adv-x="672" 
d="M689 676l-71 -405q-24 -135 -95.5 -207t-216.5 -72q-151 0 -205 74t-30 213l70 397h116l-72 -408q-18 -99 17.5 -139t114.5 -40q154 0 186 186l71 401h115zM488 741q-27 0 -68.5 20.5t-61.5 21.5q-36 0 -76 -34l-40 32q54 84 125 84q23 0 63.5 -20t65.5 -20q40 0 76 33
l41 -32q-45 -85 -125 -85z" />
    <glyph glyph-name="utilde" unicode="&#x169;" horiz-adv-x="534" 
d="M180 -7q-90 0 -119 53t-13 148l51 292h115l-50 -284q-20 -122 68 -122q54 0 87.5 45t44.5 103l46 258h114l-85 -486h-91q-9 43 -1 85h-4q-63 -92 -163 -92zM398 571q-27 0 -68.5 20.5t-61.5 21.5q-36 0 -76 -34l-40 32q54 84 125 84q23 0 63.5 -20t65.5 -20q40 0 76 33
l41 -32q-45 -85 -125 -85z" />
    <glyph glyph-name="Umacron" unicode="&#x16a;" horiz-adv-x="672" 
d="M689 676l-71 -405q-24 -135 -95.5 -207t-216.5 -72q-151 0 -205 74t-30 213l70 397h116l-72 -408q-18 -99 17.5 -139t114.5 -40q154 0 186 186l71 401h115zM273 762l15 83h304l-14 -83h-305z" />
    <glyph glyph-name="umacron" unicode="&#x16b;" horiz-adv-x="534" 
d="M180 -7q-90 0 -119 53t-13 148l51 292h115l-50 -284q-20 -122 68 -122q54 0 87.5 45t44.5 103l46 258h114l-85 -486h-91q-9 43 -1 85h-4q-63 -92 -163 -92zM181 598l15 83h308l-15 -83h-308z" />
    <glyph glyph-name="Ubreve" unicode="&#x16c;" horiz-adv-x="672" 
d="M689 676l-71 -405q-24 -135 -95.5 -207t-216.5 -72q-151 0 -205 74t-30 213l70 397h116l-72 -408q-18 -99 17.5 -139t114.5 -40q154 0 186 186l71 401h115zM430 727q-41 0 -70.5 17.5t-43 45.5t-18.5 56t-2 56h75q-3 -39 12.5 -66.5t57.5 -27.5q40 0 67.5 28t38.5 66h78
q-13 -68 -64.5 -121.5t-130.5 -53.5z" />
    <glyph glyph-name="ubreve" unicode="&#x16d;" horiz-adv-x="534" 
d="M180 -7q-90 0 -119 53t-13 148l51 292h115l-50 -284q-20 -122 68 -122q54 0 87.5 45t44.5 103l46 258h114l-85 -486h-91q-9 43 -1 85h-4q-63 -92 -163 -92zM321 553q-42 0 -71 17t-40.5 43t-17 55.5t0.5 55.5h73q-4 -37 11.5 -63t57.5 -26q41 0 67.5 26t38.5 63h81
q-16 -65 -69 -118t-132 -53z" />
    <glyph glyph-name="Uring" unicode="&#x16e;" horiz-adv-x="672" 
d="M689 676l-71 -405q-24 -135 -95.5 -207t-216.5 -72q-151 0 -205 74t-30 213l70 397h116l-72 -408q-18 -99 17.5 -139t114.5 -40q154 0 186 186l71 401h115zM414 701q-41 0 -65.5 24.5t-24.5 64.5q0 58 39 96.5t91 38.5q42 0 67.5 -26.5t25.5 -67.5q0 -56 -38.5 -93
t-94.5 -37zM443 862q-22 0 -38.5 -18.5t-16.5 -42.5q0 -17 10 -28.5t27 -11.5q25 0 41.5 19t16.5 41q0 18 -10.5 29.5t-29.5 11.5z" />
    <glyph glyph-name="uring" unicode="&#x16f;" horiz-adv-x="534" 
d="M180 -7q-90 0 -119 53t-13 148l51 292h115l-50 -284q-20 -122 68 -122q54 0 87.5 45t44.5 103l46 258h114l-85 -486h-91q-9 43 -1 85h-4q-63 -92 -163 -92zM322 546q-41 0 -65.5 24.5t-24.5 64.5q0 58 39 96.5t91 38.5q42 0 67.5 -26.5t25.5 -67.5q0 -56 -38.5 -93
t-94.5 -37zM351 707q-22 0 -38.5 -18.5t-16.5 -42.5q0 -17 10 -28.5t27 -11.5q25 0 41.5 19t16.5 41q0 18 -10.5 29.5t-29.5 11.5z" />
    <glyph glyph-name="Uhungarumlaut" unicode="&#x170;" horiz-adv-x="672" 
d="M689 676l-71 -405q-24 -135 -95.5 -207t-216.5 -72q-151 0 -205 74t-30 213l70 397h116l-72 -408q-18 -99 17.5 -139t114.5 -40q154 0 186 186l71 401h115zM271 729l-36 55l185 134l54 -86zM465 723l-36 55l185 134l53 -86z" />
    <glyph glyph-name="uhungarumlaut" unicode="&#x171;" horiz-adv-x="534" 
d="M180 -7q-90 0 -119 53t-13 148l51 292h115l-50 -284q-20 -122 68 -122q54 0 87.5 45t44.5 103l46 258h114l-85 -486h-91q-9 43 -1 85h-4q-63 -92 -163 -92zM213 544l-44 49l162 164l65 -74zM382 544l-44 49l162 164l64 -74z" />
    <glyph glyph-name="Uogonek" unicode="&#x172;" horiz-adv-x="672" 
d="M689 675l-72 -404q-49 -268 -298 -278q-57 -65 -57 -113q0 -40 59 -40q17 0 67 10q0 -7 1 -21t1 -21q-59 -28 -120 -28q-47 0 -73 17.5t-26 47.5q0 32 23.5 72t71.5 77q-128 7 -174.5 77.5t-22.5 200.5l72 403h116l-73 -407q-16 -87 18.5 -133t114.5 -46q70 0 119.5 44
t65.5 136l72 406h115z" />
    <glyph glyph-name="uogonek" unicode="&#x173;" horiz-adv-x="534" 
d="M343 70h-4q-34 -41 -78 -59.5t-80 -18.5q-51 0 -83.5 16t-43.5 42.5t-13.5 60t6.5 67.5l54 308h114l-50 -285q-10 -60 3 -90t66 -30t85.5 40.5t42.5 94.5l48 270h114l-85 -486h-52q-60 -62 -67 -113q-4 -27 11.5 -38t46.5 -11q24 0 67 9l3 -41q-61 -28 -122 -28
q-51 0 -76.5 20t-20.5 54q10 80 116 155q-9 22 -2 63z" />
    <glyph glyph-name="Wcircumflex" unicode="&#x174;" horiz-adv-x="917" 
d="M643 141h5q19 50 102 265l110 270h125l-298 -676h-127l-32 296q-17 153 -16 236h-4q-41 -109 -96 -232l-134 -300h-127l-61 676h120l13 -250q10 -228 11 -286h5q40 101 121 286l112 250h124l26 -265q19 -193 21 -270zM680 721l-105 108l-156 -107l-36 45l161 144h79
l107 -147z" />
    <glyph glyph-name="wcircumflex" unicode="&#x175;" horiz-adv-x="734" 
d="M498 122h4l83 174q29 60 39.5 94.5t19.5 94.5h105q-10 -77 -21 -115.5t-45 -104.5l-141 -267h-118l-21 152q-11 74 -17 143h-7q-21 -51 -70 -149l-74 -146h-122l-61 488l113 -1l18 -187q15 -154 15 -167h7q10 20 34 71.5t37 77.5l72 141h112l20 -149zM546 546l-101 111
l-152 -111l-39 45l163 150h79l107 -153z" />
    <glyph glyph-name="Ycircumflex" unicode="&#x176;" horiz-adv-x="586" 
d="M306 360h8q47 86 109 174l99 141h129l-301 -425l-44 -250h-116q15 83 43 249l-147 426h124l54 -160q28 -84 42 -155zM505 721l-105 108l-156 -107l-36 45l161 144h79l107 -147z" />
    <glyph glyph-name="ycircumflex" unicode="&#x177;" horiz-adv-x="495" 
d="M228 81l108 227q34 73 54 176h106q-1 -7 -4 -25.5t-4.5 -24.5t-4 -21.5t-4.5 -22.5l-6 -21t-7.5 -23.5t-8.5 -22.5t-11 -26.5t-14 -28.5l-240 -473h-117l108 204l-42 -2l-94 488h112l39 -239q15 -92 23 -165h7zM416 546l-101 111l-152 -111l-39 45l163 150h79l107 -153z
" />
    <glyph glyph-name="Ydieresis" unicode="&#x178;" horiz-adv-x="586" 
d="M306 360h8q47 86 109 174l99 141h129l-301 -425l-44 -250h-116q15 83 43 249l-147 426h124l54 -160q28 -84 42 -155zM308 866q22 0 35.5 -14t13.5 -34q0 -28 -21 -49t-48 -21q-21 0 -34.5 14t-13.5 35q0 27 21 48t47 21zM493 866q21 0 34.5 -14t13.5 -34q0 -28 -21 -49
t-48 -21q-21 0 -35 14t-14 35q0 27 21.5 48t48.5 21z" />
    <glyph glyph-name="Zacute" unicode="&#x179;" horiz-adv-x="591" 
d="M-5 0l16 91l451 484h-346l18 101h491l-17 -91l-447 -487h371l-17 -98h-520zM350 726l-32 56l193 129l48 -89z" />
    <glyph glyph-name="zacute" unicode="&#x17a;" horiz-adv-x="458" 
d="M-14 0q1 10 5 32.5t6 34.5l317 330h-241l16 88h382l-12 -70l-316 -329h264l-15 -86h-406zM261 544l-44 48l163 165l63 -74z" />
    <glyph glyph-name="Zdotaccent" unicode="&#x17b;" horiz-adv-x="591" 
d="M-5 0l16 91l451 484h-346l18 101h491l-17 -91l-447 -487h371l-17 -98h-520zM413 873q22 0 37 -15.5t15 -38.5q0 -29 -23.5 -51.5t-51.5 -22.5q-22 0 -36.5 14.5t-14.5 37.5q0 30 22.5 53t51.5 23z" />
    <glyph glyph-name="zdotaccent" unicode="&#x17c;" horiz-adv-x="458" 
d="M-14 0q1 10 5 32.5t6 34.5l317 330h-241l16 88h382l-12 -70l-316 -329h264l-15 -86h-406zM328 703q22 0 37 -15.5t15 -38.5q0 -29 -23.5 -51.5t-51.5 -22.5q-22 0 -36.5 14.5t-14.5 37.5q0 30 22.5 53t51.5 23z" />
    <glyph glyph-name="Zcaron" unicode="&#x17d;" horiz-adv-x="591" 
d="M-5 0l16 91l451 484h-346l18 101h491l-17 -91l-447 -487h371l-17 -98h-520zM393 808l145 106l42 -45l-158 -145h-79l-111 145l53 45z" />
    <glyph glyph-name="zcaron" unicode="&#x17e;" horiz-adv-x="458" 
d="M-14 0q1 10 5 32.5t6 34.5l317 330h-241l16 88h382l-12 -70l-316 -329h264l-15 -86h-406zM304 633l148 108l39 -44l-161 -146h-79l-106 145l55 45z" />
    <glyph glyph-name="florin" unicode="&#x192;" horiz-adv-x="609" 
d="M158 312l6 76h96l17 78q21 97 60 143t126 46q49 0 95 -17l-26 -84q-39 9 -60 9q-42 0 -61 -26t-31 -88l-12 -61h98l-7 -76h-107l-28 -130q-19 -86 -35 -137t-40 -89.5t-57 -54t-81 -15.5q-54 0 -96 19l28 88q39 -10 58 -10q50 0 70.5 45.5t52.5 193.5q1 4 1.5 7t1.5 6
l17 77h-86z" />
    <glyph glyph-name="Ohorn" unicode="&#x1a0;" horiz-adv-x="712" 
d="M429 683q128 0 190 -73q81 4 97 91l12 73h85l-17 -96q-5 -27 -13 -48t-22.5 -42.5t-40 -34.5t-60.5 -16q16 -49 16 -111q0 -63 -11 -122t-38 -116.5t-67 -100t-103 -69t-141 -26.5q-255 0 -255 240q0 129 41 229.5t125.5 161t201.5 60.5zM416 584q-50 0 -90.5 -21.5
t-67 -55.5t-44.5 -79t-25.5 -91t-7.5 -92q0 -156 148 -156q94 0 161 87t67 243q0 165 -141 165z" />
    <glyph glyph-name="ohorn" unicode="&#x1a1;" horiz-adv-x="591" 
d="M320 494q109 0 156 -63q66 3 81 87l12 72h83l-16 -95q-24 -124 -125 -137q5 -32 5 -61q0 -53 -14 -103.5t-43 -97t-84 -75t-128 -28.5q-202 0 -202 190q0 134 71 222.5t204 88.5zM310 401q-72 0 -112.5 -60t-40.5 -155q0 -103 97 -103q64 0 106 55.5t42 154.5
q0 108 -92 108z" />
    <glyph glyph-name="Uhorn" unicode="&#x1af;" horiz-adv-x="753" 
d="M689 676l-11 -64h11q37 0 54 20.5t23 62.5l15 79h83l-16 -96q-26 -142 -153 -142h-31l-46 -265q-50 -279 -316 -279q-152 0 -204.5 72t-27.5 211l71 401h116l-72 -408q-18 -99 17.5 -139t114.5 -40q70 0 119.5 44t65.5 136l72 407h115z" />
    <glyph glyph-name="uhorn" unicode="&#x1b0;" horiz-adv-x="611" 
d="M343 70h-4q-34 -41 -78 -59.5t-80 -18.5q-52 0 -84.5 16.5t-43 43.5t-13 61t6.5 69l54 304h114l-50 -284q-12 -61 1.5 -91t67.5 -30q53 0 86 41t42 94l48 270h114l-10 -55h6q36 0 51 20.5t23 66.5l12 72h83l-17 -95q-10 -60 -45 -99.5t-104 -39.5h-22l-62 -356h-91
q-13 25 -5 70z" />
    <glyph glyph-name="AEacute" unicode="&#x1fc;" horiz-adv-x="956" 
d="M425 0l27 194h-232l-141 -194h-122l498 676h500l-11 -92h-328l-25 -188h304l-11 -91h-304l-29 -214h349l-11 -91h-464zM506 578l-4 1q-23 -33 -129 -181l-83 -113h173zM625 726l-32 56l193 129l48 -89z" />
    <glyph glyph-name="aeacute" unicode="&#x1fd;" horiz-adv-x="835" 
d="M629 493q92 0 133.5 -39t41.5 -94q0 -158 -284 -165h-51q-2 -14 -2 -21q0 -91 92 -91q51 0 75.5 19.5t36.5 54.5h99q0 -17 -1 -25q-8 -67 -69 -103.5t-147 -36.5q-128 0 -174 81q-90 -83 -221 -83q-67 0 -103 30.5t-36 89.5q0 175 246 175q56 0 101 -6q5 30 5 49
q0 76 -83 76q-79 0 -96 -55h-97q-1 4 -1 13q0 37 21 64t54.5 40t67 19t67.5 6q115 0 154 -56q68 58 171 58zM135 132q0 -25 18.5 -39.5t49.5 -14.5q83 0 155 63q-5 27 -1 66q-47 5 -75 5q-147 0 -147 -80zM479 269q23 -1 42 0q89 2 129 26t40 56q0 24 -19.5 37t-52.5 13
q-61 0 -95.5 -37.5t-43.5 -94.5zM469 544l-44 48l163 165l63 -74z" />
    <glyph glyph-name="Oslashacute" unicode="&#x1fe;" horiz-adv-x="718" 
d="M404 726l-32 56l193 129l48 -89zM429 683q117 0 180 -63l63 64l43 -44l-71 -70q31 -58 31 -142q0 -62 -10.5 -120.5t-37 -116.5t-66 -101.5t-103 -70.5t-142.5 -27q-126 0 -190 61l-66 -66l-42 45l70 71q-27 51 -27 130q0 199 97 324.5t271 125.5zM557 419q0 28 -7 58
l-340 -342q34 -46 119 -46q96 0 162 91t66 239zM416 584q-61 0 -108.5 -31.5t-74 -82.5t-39.5 -107.5t-13 -114.5q0 -34 4 -50l339 339q-37 47 -108 47z" />
    <glyph glyph-name="oslashacute" unicode="&#x1ff;" horiz-adv-x="569" 
d="M327 544l-44 48l163 165l63 -74zM316 494q99 0 151 -55l61 54l32 -39l-64 -58q20 -43 20 -99q0 -54 -14 -105t-43.5 -97.5t-84 -74.5t-126.5 -28q-101 0 -153 50q-3 -2 -24 -20t-32 -27q-1 2 -14 17t-20 23l58 51q-18 37 -18 94q0 135 70 224.5t201 89.5zM307 404
q-72 0 -111.5 -63.5t-39.5 -154.5q0 -12 1 -18l228 199q-24 37 -78 37zM401 310q-152 -136 -225 -198q25 -34 79 -34q62 0 104.5 58.5t42.5 159.5q0 10 -1 14z" />
    <glyph glyph-name="Scommaaccent" unicode="&#x218;" horiz-adv-x="628" 
d="M383 683q93 0 160.5 -40.5t67.5 -115.5q0 -21 -10 -56h-111v12q0 47 -30.5 74t-84.5 27q-65 0 -106 -27.5t-41 -77.5q0 -31 28 -49t98 -31q124 -25 177 -67t53 -114q0 -98 -78.5 -162t-220.5 -64q-109 0 -178 41.5t-69 122.5q0 30 11 63h109q-2 -16 -2 -22
q0 -63 37.5 -86.5t101.5 -23.5q81 0 122.5 33t41.5 84q0 39 -34.5 61t-121.5 38q-98 17 -147 51.5t-49 108.5q0 38 14 74.5t44 70.5t86.5 54.5t131.5 20.5zM265 -45q23 0 37 -14t14 -36q0 -28 -15 -48l-98 -144l-33 13l52 106q-32 10 -32 46q0 31 23 54t52 23z" />
    <glyph glyph-name="scommaaccent" unicode="&#x219;" horiz-adv-x="483" 
d="M284 494q65 0 115.5 -26t50.5 -79q0 -22 -7 -40h-100q1 30 -20.5 43.5t-52.5 13.5q-43 0 -65.5 -20t-22.5 -47q0 -21 19 -30.5t67 -17.5q84 -16 122.5 -45t37.5 -85q-1 -74 -58 -121t-166 -47q-46 0 -85 11t-68 39.5t-29 69.5q0 21 7 43h99q-3 -43 24 -61t67 -18
q48 0 73 23.5t25 51.5q0 23 -20 34t-70 21q-82 16 -120.5 40t-38.5 78q0 68 51.5 118.5t164.5 50.5zM204 -45q23 0 37 -14t14 -36q0 -28 -15 -48l-98 -144l-33 13l52 106q-32 10 -32 46q0 31 23 54t52 23z" />
    <glyph glyph-name="schwa" unicode="&#x259;" horiz-adv-x="540" 
d="M218 -8q-91 0 -132.5 39t-41.5 94q0 46 26.5 79.5t72.5 51.5t98 26t112 8h26q1 7 1 21q0 91 -91 91q-51 0 -75.5 -19.5t-36.5 -54.5h-99q-1 12 0 22q6 69 68 106t149 37q105 0 151 -51.5t46 -130.5q0 -136 -71 -227.5t-203 -91.5zM230 84q61 0 95 37t44 95q-10 1 -29 1
q-94 0 -138.5 -25t-44.5 -58q0 -24 20 -37t53 -13z" />
    <glyph glyph-name="primemod" unicode="&#x2b9;" horiz-adv-x="241" 
d="M125 394l-61 32l167 296l100 -46z" />
    <glyph glyph-name="circumflex" unicode="&#x2c6;" horiz-adv-x="543" 
d="M449 546l-101 111l-152 -111l-39 45l163 150h79l107 -153z" />
    <glyph glyph-name="caron" unicode="&#x2c7;" horiz-adv-x="543" 
d="M338 633l148 108l39 -44l-161 -146h-79l-106 145l55 45z" />
    <glyph glyph-name="breve" unicode="&#x2d8;" horiz-adv-x="548" 
d="M326 553q-42 0 -71 17t-40.5 43t-17 55.5t0.5 55.5h73q-4 -37 11.5 -63t57.5 -26q41 0 67.5 26t38.5 63h81q-16 -65 -69 -118t-132 -53z" />
    <glyph glyph-name="dotaccent" unicode="&#x2d9;" horiz-adv-x="547" 
d="M371 703q22 0 37 -15.5t15 -38.5q0 -29 -23.5 -51.5t-51.5 -22.5q-22 0 -36.5 14.5t-14.5 37.5q0 30 22.5 53t51.5 23z" />
    <glyph glyph-name="ring" unicode="&#x2da;" horiz-adv-x="529" 
d="M335 546q-41 0 -65.5 24.5t-24.5 64.5q0 58 39 96.5t91 38.5q42 0 67.5 -26.5t25.5 -67.5q0 -56 -38.5 -93t-94.5 -37zM364 707q-22 0 -38.5 -18.5t-16.5 -42.5q0 -17 10 -28.5t27 -11.5q25 0 41.5 19t16.5 41q0 18 -10.5 29.5t-29.5 11.5z" />
    <glyph glyph-name="ogonek" unicode="&#x2db;" horiz-adv-x="536" 
d="M410 30l16 -18q-36 -33 -58 -71t-22 -64q0 -40 60 -40q28 0 66 10l3 -42q-59 -28 -122 -28q-48 0 -73 17.5t-25 48.5q0 39 39.5 91t115.5 96z" />
    <glyph glyph-name="tilde" unicode="&#x2dc;" horiz-adv-x="529" 
d="M402 571q-27 0 -68.5 20.5t-61.5 21.5q-36 0 -76 -34l-40 32q54 84 125 84q23 0 63.5 -20t65.5 -20q40 0 76 33l41 -32q-45 -85 -125 -85z" />
    <glyph glyph-name="hungarumlaut" unicode="&#x2dd;" horiz-adv-x="555" 
d="M223 544l-44 49l162 164l65 -74zM392 544l-44 49l162 164l64 -74z" />
    <glyph glyph-name="tonos" unicode="&#x384;" horiz-adv-x="543" 
d="M322 539l-51 39l135 182l78 -57z" />
    <glyph glyph-name="dieresistonos" unicode="&#x385;" horiz-adv-x="543" 
d="M317 539l-60 34l109 200l96 -38zM212 686q21 0 35 -14t14 -35q0 -28 -21.5 -49t-48.5 -21q-21 0 -34.5 14t-13.5 35q0 28 21.5 49t47.5 21zM485 686q21 0 34.5 -14t13.5 -35q0 -28 -21 -49t-48 -21q-21 0 -34.5 14t-13.5 35q0 28 21 49t48 21z" />
    <glyph glyph-name="Alphatonos" unicode="&#x386;" horiz-adv-x="635" 
d="M465 0l-28 163h-260l-84 -163h-125l367 678h122l127 -678h-119zM380 551h-7q-28 -65 -75 -155l-71 -139h195l-22 133q-18 129 -20 161zM34 503l-51 39l135 182l78 -57z" />
    <glyph glyph-name="anoteleia" unicode="&#x387;" horiz-adv-x="261" 
d="M165 425q28 0 45 -17.5t17 -44.5q0 -36 -27 -63t-61 -27q-28 0 -45 17.5t-17 44.5q0 36 27 63t61 27z" />
    <glyph glyph-name="Epsilontonos" unicode="&#x388;" horiz-adv-x="564" 
d="M22 0l119 676h448l-18 -99h-332l-32 -177h309l-18 -100h-308l-35 -200h355l-17 -100h-471zM-98 503l-51 39l135 182l78 -57z" />
    <glyph glyph-name="Etatonos" unicode="&#x389;" horiz-adv-x="673" 
d="M455 0l53 303h-318l-52 -303h-116l119 676h116l-50 -276h318l49 276h116l-119 -676h-116zM-84 503l-51 39l135 182l78 -57z" />
    <glyph glyph-name="Iotatonos" unicode="&#x38a;" horiz-adv-x="274" 
d="M38 0l119 676h118l-119 -676h-118zM-64 503l-51 39l135 182l78 -57z" />
    <glyph glyph-name="Omicrontonos" unicode="&#x38c;" horiz-adv-x="703" 
d="M429 683q128 0 187 -70t59 -185q0 -62 -10.5 -120.5t-37 -116.5t-66 -101.5t-103 -70.5t-142.5 -27q-133 0 -194 64t-61 177q0 199 97 324.5t271 125.5zM416 584q-61 0 -108.5 -31.5t-74 -82.5t-39.5 -107.5t-13 -114.5q0 -81 35 -120t113 -39q96 0 162 91t66 239
q0 165 -141 165zM-34 503l-51 39l135 182l78 -57z" />
    <glyph glyph-name="Upsilontonos" unicode="&#x38e;" horiz-adv-x="586" 
d="M306 360h8q47 86 109 174l99 141h129l-301 -425l-44 -250h-116q15 83 43 249l-147 426h124l54 -160q28 -84 42 -155zM-101 503l-51 39l135 182l78 -57z" />
    <glyph glyph-name="Omegatonos" unicode="&#x38f;" horiz-adv-x="718" 
d="M419 584q-102 0 -167.5 -85.5t-65.5 -230.5q0 -134 96 -167l-18 -101h-253l17 98h96q0 2 2 4q-59 56 -59 177q0 77 24 148.5t68.5 129.5t115 92.5t156.5 34.5q131 0 195.5 -74.5t64.5 -190.5q0 -86 -35 -175.5t-109 -141.5l3 -4h104l-17 -98h-266q13 73 17 101
q68 19 125.5 107.5t57.5 210.5q0 79 -39 122t-113 43zM-29 500l-51 39l135 182l78 -57z" />
    <glyph glyph-name="iotadieresistonos" unicode="&#x390;" horiz-adv-x="286" 
d="M124 485h114l-65 -349q-5 -28 7.5 -37.5t45.5 -11.5l-10 -88q-29 -5 -61 -5q-122 0 -98 132zM188 540l-60 34l109 200l96 -38zM83 687q21 0 35 -14t14 -35q0 -28 -21.5 -49t-48.5 -21q-21 0 -34.5 14t-13.5 35q0 27 21 48.5t48 21.5zM356 687q21 0 34.5 -14t13.5 -35
q0 -28 -21 -49t-48 -21q-21 0 -34.5 14t-13.5 35q0 28 21 49t48 21z" />
    <glyph glyph-name="Alpha" unicode="&#x391;" horiz-adv-x="635" 
d="M465 0l-28 163h-260l-84 -163h-125l367 678h122l127 -678h-119zM380 551h-7q-28 -65 -75 -155l-71 -139h195l-22 133q-18 129 -20 161z" />
    <glyph glyph-name="Beta" unicode="&#x392;" horiz-adv-x="620" 
d="M467 361l-2 -5q49 -12 75 -48.5t26 -87.5q0 -102 -71 -161t-182 -59h-288l119 676h282q81 0 125 -35.5t44 -104.5q0 -55 -33 -105t-95 -70zM398 578h-157l-30 -173h154q43 0 73 26.5t35 65.5q5 37 -14.5 59t-60.5 22zM349 310h-154l-37 -211h154q58 0 92.5 28.5
t41.5 80.5q7 47 -20.5 74.5t-76.5 27.5z" />
    <glyph glyph-name="Gamma" unicode="&#x393;" horiz-adv-x="530" 
d="M22 0l119 676h457l-18 -100h-341l-101 -576h-116z" />
    <glyph glyph-name="Delta" unicode="&#x394;" horiz-adv-x="649" 
d="M594 0h-622l365 676h125zM386 553h-7q-30 -68 -105 -218l-120 -240h298l-36 237q-27 183 -30 221z" />
    <glyph glyph-name="Delta" unicode="&#x2206;" horiz-adv-x="649" 
d="M594 0h-622l365 676h125zM386 553h-7q-30 -68 -105 -218l-120 -240h298l-36 237q-27 183 -30 221z" />
    <glyph glyph-name="Epsilon" unicode="&#x395;" horiz-adv-x="564" 
d="M22 0l119 676h448l-18 -99h-332l-32 -177h309l-18 -100h-308l-35 -200h355l-17 -100h-471z" />
    <glyph glyph-name="Zeta" unicode="&#x396;" horiz-adv-x="591" 
d="M-5 0l16 91l451 484h-346l18 101h491l-17 -91l-447 -487h371l-17 -98h-520z" />
    <glyph glyph-name="Eta" unicode="&#x397;" horiz-adv-x="673" 
d="M455 0l53 303h-318l-52 -303h-116l119 676h116l-50 -276h318l49 276h116l-119 -676h-116z" />
    <glyph glyph-name="Theta" unicode="&#x398;" horiz-adv-x="721" 
d="M241 301l16 92h264l-16 -92h-264zM436 684q256 0 256 -264q0 -62 -11.5 -120.5t-38.5 -115t-67.5 -98.5t-103.5 -68t-141 -26q-268 0 -268 245q0 126 42 226t128.5 160.5t203.5 60.5zM425 584q-63 0 -111.5 -31t-76.5 -81t-42 -107t-14 -115q0 -161 157 -161q59 0 105 28
t74 75t42.5 104.5t14.5 120.5q0 167 -149 167z" />
    <glyph glyph-name="Iota" unicode="&#x399;" horiz-adv-x="274" 
d="M38 0l119 676h118l-119 -676h-118z" />
    <glyph glyph-name="Kappa" unicode="&#x39a;" horiz-adv-x="591" 
d="M256 676l-47 -268h61l255 268h143l-304 -316l194 -360h-135l-158 306h-74l-54 -306h-115l119 676h115z" />
    <glyph glyph-name="Lambda" unicode="&#x39b;" horiz-adv-x="650" 
d="M384 549q-1 0 -2.5 -0.5t-3.5 -0.5q-27 -64 -98 -201l-181 -347h-125q67 124 191.5 353.5t174.5 322.5h122l133 -676h-119q-21 115 -61 345q-25 137 -31 204z" />
    <glyph glyph-name="Mu" unicode="&#x39c;" horiz-adv-x="869" 
d="M428 218h7q48 92 138 235l141 222h140q-66 -450 -98 -675h-115l78 504h-5q-29 -53 -83 -138l-170 -270h-97l-75 267q-28 98 -34 136h-5l-109 -499h-115l149 675h133l73 -259q30 -109 47 -198z" />
    <glyph glyph-name="Nu" unicode="&#x39d;" horiz-adv-x="674" 
d="M486 188h2q2 1 3 1l85 486h115l-119 -675h-104l-175 346q-44 87 -67 144l-4 -2q-19 -106 -85 -488h-116l119 675h108l152 -301q39 -78 86 -186z" />
    <glyph glyph-name="Xi" unicode="&#x39e;" horiz-adv-x="573" 
d="M14 103h509l-17 -103h-509zM115 401h403l-18 -101h-403zM583 575h-474l18 101h474z" />
    <glyph glyph-name="Omicron" unicode="&#x39f;" horiz-adv-x="703" 
d="M429 683q128 0 187 -70t59 -185q0 -62 -10.5 -120.5t-37 -116.5t-66 -101.5t-103 -70.5t-142.5 -27q-133 0 -194 64t-61 177q0 199 97 324.5t271 125.5zM416 584q-61 0 -108.5 -31.5t-74 -82.5t-39.5 -107.5t-13 -114.5q0 -81 35 -120t113 -39q96 0 162 91t66 239
q0 165 -141 165z" />
    <glyph glyph-name="Pi" unicode="&#x3a0;" horiz-adv-x="664" 
d="M446 0l101 577h-308l-101 -577h-116l119 677h539l-119 -677h-115z" />
    <glyph glyph-name="Rho" unicode="&#x3a1;" horiz-adv-x="592" 
d="M340 243h-160l-42 -243h-116l119 676h276q101 0 150 -49t49 -134q0 -42 -13.5 -82.5t-43.5 -80t-86.5 -63.5t-132.5 -24zM394 577h-155l-42 -235h154q53 0 96.5 29.5t50.5 91.5q7 53 -22 83.5t-82 30.5z" />
    <glyph glyph-name="Sigma" unicode="&#x3a3;" horiz-adv-x="574" 
d="M9 91l231 269l-138 225l17 92h493l-18 -101h-351l131 -216l-220 -261h378l-17 -99h-522z" />
    <glyph glyph-name="Tau" unicode="&#x3a4;" horiz-adv-x="575" 
d="M408 577l-101 -577h-115l101 577h-217l18 99h545l-18 -99h-213z" />
    <glyph glyph-name="Upsilon" unicode="&#x3a5;" horiz-adv-x="586" 
d="M306 360h8q47 86 109 174l99 141h129l-301 -425l-44 -250h-116q15 83 43 249l-147 426h124l54 -160q28 -84 42 -155z" />
    <glyph glyph-name="Phi" unicode="&#x3a6;" horiz-adv-x="778" 
d="M387 554q-98 -10 -155 -84.5t-57 -173.5q0 -63 35.5 -102.5t104.5 -49.5zM521 677l-6 -33q123 -11 179 -76.5t56 -163.5q0 -48 -11.5 -93.5t-38 -89.5t-65 -78t-96.5 -58t-128 -30l-9 -55h-112l10 54q-120 11 -179.5 74t-59.5 162q0 142 93 241t250 113l6 33h111z
M499 555l-72 -410q93 13 150.5 83t57.5 173q0 64 -35 106t-101 48z" />
    <glyph glyph-name="Chi" unicode="&#x3a7;" horiz-adv-x="622" 
d="M234 675q36 -82 106 -246l189 246h135q-45 -55 -134.5 -164t-134.5 -164q75 -154 170 -347h-132l-115 265l-207 -265h-139q192 234 289 351l-155 324h128z" />
    <glyph glyph-name="Psi" unicode="&#x3a8;" horiz-adv-x="735" 
d="M271 0l28 163q-129 11 -183.5 87t-32.5 202l40 225h116l-42 -233q-15 -89 15.5 -131.5t103.5 -51.5l74 418h116l-73 -418q149 14 179 184l41 232h114l-38 -228q-21 -125 -98 -202.5t-215 -83.5l-29 -163h-116z" />
    <glyph glyph-name="Omega" unicode="&#x3a9;" horiz-adv-x="718" 
d="M419 584q-102 0 -167.5 -85.5t-65.5 -230.5q0 -134 96 -167l-18 -101h-253l17 98h96q0 2 2 4q-59 56 -59 177q0 77 24 148.5t68.5 129.5t115 92.5t156.5 34.5q131 0 195.5 -74.5t64.5 -190.5q0 -86 -35 -175.5t-109 -141.5l3 -4h104l-17 -98h-266q13 73 17 101
q68 19 125.5 107.5t57.5 210.5q0 79 -39 122t-113 43z" />
    <glyph glyph-name="Iotadieresis" unicode="&#x3aa;" horiz-adv-x="274" 
d="M38 0l119 676h118l-119 -676h-118zM149 866q21 0 35 -14t14 -34q0 -28 -21 -49t-48 -21q-21 0 -34.5 14t-13.5 35q0 27 21 48t47 21zM334 866q21 0 34.5 -14t13.5 -34q0 -28 -21 -49t-48 -21q-21 0 -35 14t-14 35q0 27 21.5 48t48.5 21z" />
    <glyph glyph-name="Upsilondieresis" unicode="&#x3ab;" horiz-adv-x="586" 
d="M306 360h8q47 86 109 174l99 141h129l-301 -425l-44 -250h-116q15 83 43 249l-147 426h124l54 -160q28 -84 42 -155zM310 866q22 0 35.5 -14t13.5 -34q0 -28 -21 -49t-48 -21q-21 0 -34.5 14t-13.5 35q0 27 21 48t47 21zM495 866q21 0 34.5 -14t13.5 -34q0 -28 -21 -49
t-48 -21q-21 0 -35 14t-14 35q0 27 21.5 48t48.5 21z" />
    <glyph glyph-name="alphatonos" unicode="&#x3ac;" horiz-adv-x="561" 
d="M245 80q69 0 110 66t41 155q0 47 -24 74t-71 27q-58 0 -101.5 -58.5t-43.5 -163.5q0 -100 89 -100zM541 486l-85 -486h-91q-10 35 -4 71h-6q-57 -79 -156 -79q-158 0 -158 177q0 130 66 227.5t179 97.5q100 0 137 -71h4q5 41 26 63h88zM328 539l-51 39l135 182l78 -57z
" />
    <glyph glyph-name="epsilontonos" unicode="&#x3ad;" horiz-adv-x="473" 
d="M277 539l-51 39l135 182l78 -57zM218 -8q-97 0 -144.5 33.5t-47.5 88.5q0 38 22 76t80 57v2q1 2 1 3q-59 23 -59 80q0 70 56 116t156 46q70 0 120 -30.5t51 -92.5q0 -20 -4 -39h-96v7q0 63 -81 63q-37 0 -62 -20t-25 -51q0 -39 52 -39h77l-15 -81h-77q-35 0 -56.5 -22
t-21.5 -55q0 -24 21.5 -39t58.5 -15q104 0 113 90h99v-13q0 -79 -60.5 -122t-157.5 -43z" />
    <glyph glyph-name="etatonos" unicode="&#x3ae;" horiz-adv-x="545" 
d="M363 493q91 0 121.5 -57t14.5 -150l-76 -436h-115l77 433q9 49 -4.5 83.5t-60.5 34.5q-60 0 -97.5 -43.5t-47.5 -101.5l-46 -256h-114l85 486h91q11 -27 2 -86h4q61 93 166 93zM295 539l-51 39l135 182l78 -57z" />
    <glyph glyph-name="iotatonos" unicode="&#x3af;" horiz-adv-x="286" 
d="M124 485h114l-65 -349q-5 -28 7.5 -37.5t45.5 -11.5l-10 -88q-29 -5 -61 -5q-122 0 -98 132zM189 539l-51 39l135 182l78 -57z" />
    <glyph glyph-name="upsilondieresistonos" unicode="&#x3b0;" horiz-adv-x="535" 
d="M525 486l-53 -295q-36 -198 -244 -198q-101 0 -148 55.5t-30 154.5l50 283h115l-51 -289q-21 -115 77 -115q101 0 120 115l51 289h113zM311 539l-60 34l109 200l96 -38zM206 686q21 0 35 -14t14 -35q0 -28 -21.5 -49t-48.5 -21q-21 0 -34.5 14t-13.5 35q0 28 21.5 49
t47.5 21zM479 686q21 0 34.5 -14t13.5 -35q0 -28 -21 -49t-48 -21q-21 0 -34.5 14t-13.5 35q0 28 21 49t48 21z" />
    <glyph glyph-name="alpha" unicode="&#x3b1;" horiz-adv-x="561" 
d="M245 80q69 0 110 66t41 155q0 47 -24 74t-71 27q-58 0 -101.5 -58.5t-43.5 -163.5q0 -100 89 -100zM541 486l-85 -486h-91q-10 35 -4 71h-6q-57 -79 -156 -79q-158 0 -158 177q0 130 66 227.5t179 97.5q100 0 137 -71h4q5 41 26 63h88z" />
    <glyph glyph-name="beta" unicode="&#x3b2;" horiz-adv-x="555" 
d="M423 420l-1 -1v-2v-1l1 -2q89 -31 89 -147q0 -115 -65.5 -195t-183.5 -80q-89 0 -126 59h-5l-36 -211h-109q22 129 65.5 375.5t48.5 274.5q18 103 77.5 163.5t161.5 60.5q88 0 136 -39.5t48 -107.5q0 -44 -25 -86t-76 -61zM336 627q-49 0 -78 -29.5t-37 -70.5l-57 -316
q-10 -56 10.5 -95t80.5 -39q59 0 100 51t41 127q0 111 -102 111h-42l16 85h46q42 0 69 32t27 70q0 35 -21 54.5t-53 19.5z" />
    <glyph glyph-name="gamma" unicode="&#x3b3;" horiz-adv-x="486" 
d="M233 140h5q17 56 73 168l91 177h120l-249 -458q-8 -43 -22 -123t-19 -108h-113q6 30 12 64t13 75.5t11 64.5q-8 43 -31.5 171t-35.5 198q-4 18 -14 24t-35 6l3 75q45 19 85 19q38 0 53.5 -26t22.5 -81l14 -88q15 -91 16 -158z" />
    <glyph glyph-name="delta" unicode="&#x3b4;" horiz-adv-x="557" 
d="M241 -7q-98 0 -148 49t-50 141q0 54 16.5 105t48.5 94.5t87 69.5t124 26q-54 62 -171 140q6 31 13 80h395l-15 -90h-198v-5q81 -55 127 -135.5t46 -171.5q0 -148 -77.5 -225.5t-197.5 -77.5zM329 406q-79 0 -125 -61.5t-46 -157.5q0 -52 25 -79.5t71 -27.5q64 0 106 59.5
t42 152.5q0 59 -29 110q-21 4 -44 4z" />
    <glyph glyph-name="epsilon" unicode="&#x3b5;" horiz-adv-x="473" 
d="M218 -8q-97 0 -144.5 33.5t-47.5 88.5q0 38 22 76t80 57v2q1 2 1 3q-59 23 -59 80q0 70 56 116t156 46q70 0 120 -30.5t51 -92.5q0 -20 -4 -39h-96v7q0 63 -81 63q-37 0 -62 -20t-25 -51q0 -39 52 -39h77l-15 -81h-77q-35 0 -56.5 -22t-21.5 -55q0 -24 21.5 -39t58.5 -15
q104 0 113 90h99v-13q0 -79 -60.5 -122t-157.5 -43z" />
    <glyph glyph-name="zeta" unicode="&#x3b6;" horiz-adv-x="438" 
d="M369 602v5h-230l15 90h387l-14 -80q-162 -119 -262 -230.5t-100 -172.5q0 -38 27.5 -57.5t119.5 -57.5l15 -6q77 -33 77 -82q0 -35 -39.5 -88.5t-90.5 -98.5l-63 48q64 78 64 103q0 10 -12 17.5t-44 20.5q-7 2 -11 4q-88 36 -125.5 70t-37.5 99q0 82 84.5 193.5
t239.5 222.5z" />
    <glyph glyph-name="eta" unicode="&#x3b7;" horiz-adv-x="545" 
d="M363 493q91 0 121.5 -57t14.5 -150l-76 -436h-115l77 433q9 49 -4.5 83.5t-60.5 34.5q-60 0 -97.5 -43.5t-47.5 -101.5l-46 -256h-114l85 486h91q11 -27 2 -86h4q61 93 166 93z" />
    <glyph glyph-name="theta" unicode="&#x3b8;" horiz-adv-x="557" 
d="M365 713q100 0 140 -56.5t40 -157.5q0 -63 -7.5 -125.5t-28.5 -133.5t-54 -124.5t-89 -88.5t-128 -35q-99 0 -141.5 55.5t-42.5 159.5q0 62 9.5 127.5t32.5 134.5t57.5 122.5t89.5 87.5t122 34zM253 80q68 0 104.5 63t59.5 190h-239q-14 -78 -14 -132q0 -121 89 -121z
M349 626q-111 0 -156 -211h237q7 54 7 86q0 125 -88 125z" />
    <glyph glyph-name="iota" unicode="&#x3b9;" horiz-adv-x="286" 
d="M124 485h114l-65 -349q-5 -28 7.5 -37.5t45.5 -11.5l-10 -88q-29 -5 -61 -5q-122 0 -98 132z" />
    <glyph glyph-name="kappa" unicode="&#x3ba;" horiz-adv-x="501" 
d="M213 486l-32 -183h47l175 182h133q-73 -74 -217 -224l138 -261h-125l-106 211h-62l-36 -211h-113l85 486h113z" />
    <glyph glyph-name="lambda" unicode="&#x3bb;" horiz-adv-x="477" 
d="M351 572l49 -460q2 -21 10 -28.5t35 -6.5l-4 -74q-25 -11 -76 -11q-35 0 -52.5 20.5t-22.5 79.5l-12 137q-11 129 -11 165h-6q-29 -86 -66 -162l-113 -232h-114q67 135 247 484l31 -1l-11 88q-4 30 -17 39.5t-45 9.5h-26l14 89h66q71 0 93.5 -31.5t30.5 -105.5z" />
    <glyph glyph-name="nu" unicode="&#x3bd;" horiz-adv-x="508" 
d="M235 113l108 193q55 99 69 178h109q-11 -63 -28 -107.5t-55 -108.5l-163 -270h-125l-93 487h114l29 -174q23 -132 28 -198h7z" />
    <glyph glyph-name="xi" unicode="&#x3be;" horiz-adv-x="441" 
d="M341 712q74 0 123.5 -27t49.5 -86q0 -24 -8 -48h-99q1 39 -20.5 54.5t-56.5 15.5q-49 0 -79.5 -33t-30.5 -82q0 -70 95 -70h95l-16 -92h-100q-61 0 -99.5 -40.5t-38.5 -95.5q0 -20 7.5 -35t29 -28t37 -20t53.5 -22q2 -1 3.5 -1.5l3 -1t3.5 -1.5q60 -24 83 -46t23 -50
q0 -35 -29 -77t-90 -103l-65 46q64 83 64 100q0 18 -66 42q-90 34 -131 75t-41 105q0 63 35 115t98 79l1 6q-68 27 -68 110t62 147t172 64z" />
    <glyph glyph-name="omicron" unicode="&#x3bf;" horiz-adv-x="557" 
d="M316 494q105 0 152.5 -54.5t47.5 -142.5q0 -54 -14 -105t-43.5 -97.5t-84 -74.5t-126.5 -28q-203 0 -203 188q0 135 70 224.5t201 89.5zM307 404q-72 0 -110.5 -63t-38.5 -154q0 -108 99 -108q62 0 103.5 58t41.5 159q0 108 -95 108z" />
    <glyph glyph-name="pi" unicode="&#x3c0;" horiz-adv-x="551" 
d="M412 395h-214l-69 -395h-114l85 485h441l-85 -485h-114z" />
    <glyph glyph-name="rho" unicode="&#x3c1;" horiz-adv-x="552" 
d="M316 494q96 0 147 -54t51 -141q0 -131 -65 -219t-181 -88q-94 0 -131 57h-5l-45 -252h-112l74 426q23 129 90 200t177 71zM305 400q-109 0 -140 -154q-33 -167 86 -167q66 0 107 62.5t41 156.5q0 52 -26 77t-68 25z" />
    <glyph glyph-name="sigma1" unicode="&#x3c2;" horiz-adv-x="466" 
d="M294 400q-65 0 -101.5 -54t-36.5 -131q0 -40 22.5 -60.5t86.5 -49.5q65 -30 88 -52.5t23 -49.5q0 -36 -32 -83t-87 -94l-65 48q58 77 58 94q0 23 -55 46q-88 35 -121.5 74t-33.5 100q0 134 70 220t192 86q76 0 125.5 -30.5t49.5 -89.5q0 -21 -8 -48h-96q4 38 -18.5 56
t-60.5 18z" />
    <glyph glyph-name="sigma" unicode="&#x3c3;" horiz-adv-x="562" 
d="M480 400l-4 -5q36 -37 36 -109q0 -35 -8 -73t-28 -78t-49 -71.5t-75.5 -51.5t-103.5 -20q-200 0 -200 187q0 136 74.5 221.5t205.5 85.5h252l-16 -91h-32q-32 0 -52 5zM312 401q-72 0 -111.5 -63t-39.5 -153q0 -105 95 -105q64 0 106 64t42 152q0 105 -92 105z" />
    <glyph glyph-name="tau" unicode="&#x3c4;" horiz-adv-x="407" 
d="M60 485q59 0 177 0.5t177 0.5l-16 -91h-137l-40 -228q-7 -42 6 -63t58 -21q40 0 71 5l-14 -86q-45 -9 -100 -9q-87 0 -117.5 41t-15.5 130l41 231h-105z" />
    <glyph glyph-name="upsilon" unicode="&#x3c5;" horiz-adv-x="535" 
d="M525 486l-53 -295q-36 -198 -244 -198q-101 0 -148 55.5t-30 154.5l50 283h115l-51 -289q-21 -115 77 -115q101 0 120 115l51 289h113z" />
    <glyph glyph-name="phi" unicode="&#x3c6;" horiz-adv-x="676" 
d="M423 400q-35 -194 -56 -319q70 5 113.5 62.5t43.5 147.5q0 106 -101 109zM255 83l72 409h103q204 0 204 -196q0 -54 -16 -104.5t-48.5 -95t-89 -72t-128.5 -29.5l-36 -200h-112l35 199q-103 5 -149.5 55.5t-46.5 132.5q0 108 53.5 193t158.5 104q4 -24 10 -82
q-53 -21 -82 -76t-29 -130q0 -49 27 -78t74 -30z" />
    <glyph glyph-name="chi" unicode="&#x3c7;" horiz-adv-x="486" 
d="M327 0l-81 182q-37 -45 -146 -182h-131l218 253q-103 196 -122 233h125l73 -160q17 22 127 160h133l-203 -233l131 -253h-124z" />
    <glyph glyph-name="psi" unicode="&#x3c8;" horiz-adv-x="654" 
d="M190 -205l35 199q-100 7 -146 66t-28 164l46 262h113l-49 -276q-10 -60 10 -89t71 -36l70 401h112l-70 -401q111 10 133 125l48 276h113l-49 -278q-39 -216 -262 -216l-35 -197h-112z" />
    <glyph glyph-name="omega" unicode="&#x3c9;" horiz-adv-x="770" 
d="M729 309q0 -56 -13 -108.5t-40.5 -101t-78 -77.5t-117.5 -29q-44 0 -79 20t-47 56h-6q-59 -76 -155 -76q-153 0 -153 167q0 147 69 240t204 93l-10 -91q-73 -2 -112 -69t-39 -168q0 -77 63 -77q44 0 75.5 33.5t39.5 86.5l19 119h104l-24 -138q-19 -106 59 -106
q58 0 93.5 63t35.5 156q0 41 -21.5 69.5t-72.5 31.5l9 90q105 -1 151 -53t46 -131z" />
    <glyph glyph-name="iotadieresis" unicode="&#x3ca;" horiz-adv-x="286" 
d="M124 485h114l-65 -349q-5 -28 7.5 -37.5t45.5 -11.5l-10 -88q-29 -5 -61 -5q-122 0 -98 132zM121 686q21 0 34 -14t13 -35q0 -27 -21 -48t-47 -21q-22 0 -35.5 14t-13.5 35q0 27 21.5 48t48.5 21zM304 686q22 0 35.5 -14t13.5 -35q0 -27 -21.5 -48t-48.5 -21
q-20 0 -33.5 13.5t-13.5 33.5q0 28 20.5 49.5t47.5 21.5z" />
    <glyph glyph-name="upsilondieresis" unicode="&#x3cb;" horiz-adv-x="535" 
d="M525 486l-53 -295q-36 -198 -244 -198q-101 0 -148 55.5t-30 154.5l50 283h115l-51 -289q-21 -115 77 -115q101 0 120 115l51 289h113zM255 686q21 0 34 -14t13 -35q0 -27 -21 -48t-47 -21q-22 0 -35.5 14t-13.5 35q0 27 21.5 48t48.5 21zM438 686q22 0 35.5 -14
t13.5 -35q0 -27 -21.5 -48t-48.5 -21q-20 0 -33.5 13.5t-13.5 33.5q0 28 20.5 49.5t47.5 21.5z" />
    <glyph glyph-name="omicrontonos" unicode="&#x3cc;" horiz-adv-x="557" 
d="M316 494q105 0 152.5 -54.5t47.5 -142.5q0 -54 -14 -105t-43.5 -97.5t-84 -74.5t-126.5 -28q-203 0 -203 188q0 135 70 224.5t201 89.5zM307 404q-72 0 -110.5 -63t-38.5 -154q0 -108 99 -108q62 0 103.5 58t41.5 159q0 108 -95 108zM341 539l-51 39l135 182l78 -57z" />
    <glyph glyph-name="upsilontonos" unicode="&#x3cd;" horiz-adv-x="535" 
d="M322 539l-51 39l135 182l78 -57zM525 486l-53 -295q-36 -198 -244 -198q-101 0 -148 55.5t-30 154.5l50 283h115l-51 -289q-21 -115 77 -115q101 0 120 115l51 289h113z" />
    <glyph glyph-name="omegatonos" unicode="&#x3ce;" horiz-adv-x="770" 
d="M729 309q0 -56 -13 -108.5t-40.5 -101t-78 -77.5t-117.5 -29q-44 0 -79 20t-47 56h-6q-59 -76 -155 -76q-153 0 -153 167q0 147 69 240t204 93l-10 -91q-73 -2 -112 -69t-39 -168q0 -77 63 -77q44 0 75.5 33.5t39.5 86.5l19 119h104l-24 -138q-19 -106 59 -106
q58 0 93.5 63t35.5 156q0 41 -21.5 69.5t-72.5 31.5l9 90q105 -1 151 -53t46 -131zM437 539l-51 39l135 182l78 -57z" />
    <glyph glyph-name="Sampigreek" unicode="&#x3e0;" horiz-adv-x="656" 
d="M78 598l17 68q245 -12 371 -133.5t126 -314.5q0 -128 -65 -292l-76 12q41 134 41 232q0 43 -7 81q-11 -7 -76 -42t-135 -72t-76 -40l-36 70l305 158q-16 50 -36 79l-295 -156l-40 69l285 147q-87 108 -303 134z" />
    <glyph glyph-name="sampigreek" unicode="&#x3e1;" horiz-adv-x="575" 
d="M65 436l14 62q209 -9 317.5 -112.5t108.5 -266.5q0 -103 -55 -248l-73 11q35 111 35 199q0 35 -5 60q-11 -6 -122 -64.5t-119 -63.5l-31 63l258 134q-20 50 -29 63l-249 -132l-35 62l239 125q-75 87 -254 108z" />
    <glyph glyph-name="afii10023" unicode="&#x401;" horiz-adv-x="564" 
d="M22 0l119 676h448l-18 -99h-332l-32 -177h309l-18 -100h-308l-35 -200h355l-17 -100h-471zM316 869q22 0 35.5 -13.5t13.5 -34.5q0 -28 -21 -49t-48 -21q-21 0 -34.5 14t-13.5 35q0 27 21 48t47 21zM501 869q21 0 34.5 -14t13.5 -34q0 -28 -21 -49t-48 -21q-21 0 -35 14
t-14 35q0 27 21.5 48t48.5 21z" />
    <glyph glyph-name="afii10051" unicode="&#x402;" horiz-adv-x="768" 
d="M367 576l-30 -169q1 0 2.5 -0.5t2.5 -0.5q82 57 183 57q94 0 143 -56t49 -153q0 -57 -13.5 -110t-41.5 -100.5t-79 -76t-119 -28.5q-18 0 -41 3l16 89q78 4 118.5 59.5t40.5 146.5q0 59 -30.5 90.5t-86.5 31.5q-38 0 -83 -17.5t-79 -45.5q-36 -198 -53 -296h-116l101 576
h-197l18 99h579l-18 -99h-266z" />
    <glyph glyph-name="afii10052" unicode="&#x403;" horiz-adv-x="530" 
d="M328 726l-32 56l193 129l48 -89zM22 0l119 676h457l-18 -100h-341l-101 -576h-116z" />
    <glyph glyph-name="afii10053" unicode="&#x404;" horiz-adv-x="625" 
d="M323 -8q-262 0 -262 243q0 199 91.5 323t258.5 124q97 0 162 -45t65 -125q0 -18 -6 -42h-111q1 8 1 20q0 45 -31.5 68.5t-86.5 23.5q-77 0 -129 -47.5t-74 -138.5h259l-17 -94h-259q-5 -29 -5 -66q0 -66 34.5 -105.5t108.5 -39.5q148 0 168 126h112q0 -57 -25 -101.5
t-66.5 -70.5t-89.5 -39.5t-98 -13.5z" />
    <glyph glyph-name="afii10054" unicode="&#x405;" horiz-adv-x="628" 
d="M383 683q93 0 160.5 -40.5t67.5 -115.5q0 -21 -10 -56h-111v12q0 47 -30.5 74t-84.5 27q-65 0 -106 -27.5t-41 -77.5q0 -31 28 -49t98 -31q124 -25 177 -67t53 -114q0 -98 -78.5 -162t-220.5 -64q-109 0 -178 41.5t-69 122.5q0 30 11 63h109q-2 -16 -2 -22
q0 -63 37.5 -86.5t101.5 -23.5q81 0 122.5 33t41.5 84q0 39 -34.5 61t-121.5 38q-98 17 -147 51.5t-49 108.5q0 38 14 74.5t44 70.5t86.5 54.5t131.5 20.5z" />
    <glyph glyph-name="afii10055" unicode="&#x406;" horiz-adv-x="274" 
d="M38 0l119 676h118l-119 -676h-118z" />
    <glyph glyph-name="afii10056" unicode="&#x407;" horiz-adv-x="274" 
d="M38 0l119 676h118l-119 -676h-118zM164 865q21 0 34 -14t13 -35q0 -28 -20.5 -48.5t-47.5 -20.5q-22 0 -35.5 14t-13.5 35q0 27 21.5 48t48.5 21zM347 865q22 0 35.5 -14t13.5 -35q0 -27 -21.5 -48t-48.5 -21q-20 0 -33.5 13.5t-13.5 33.5q0 28 20.5 49.5t47.5 21.5z" />
    <glyph glyph-name="afii10057" unicode="&#x408;" horiz-adv-x="556" 
d="M215 -8q-96 0 -154 37t-58 106q0 31 12 69h108q-2 -9 -2 -26q0 -86 97 -87q72 0 105 38t46 109l78 438h114l-79 -447q-6 -37 -14.5 -65t-28 -62.5t-46.5 -56.5t-72.5 -37.5t-105.5 -15.5z" />
    <glyph glyph-name="afii10058" unicode="&#x409;" horiz-adv-x="961" 
d="M624 675l-48 -273h169q99 0 145 -47t46 -122q0 -111 -72 -172t-184 -61h-290l101 576h-186q-70 -319 -98 -404q-42 -126 -102 -163q-38 -22 -96 -22q-27 0 -42 5l11 86q76 11 102.5 67t89.5 326q29 126 48 204h406zM716 305h-158l-36 -207h165q52 0 90.5 29.5t38.5 91.5
q0 86 -100 86z" />
    <glyph glyph-name="afii10059" unicode="&#x40a;" horiz-adv-x="939" 
d="M372 0l52 302h-232l-53 -302h-117l119 676h117l-48 -274h232q29 170 49 274h114l-48 -274h166q99 0 145 -47t46 -122q0 -111 -72 -172t-184 -61h-286zM694 305h-154q-7 -35 -19 -104.5t-18 -102.5h162q52 0 90.5 29.5t38.5 91.5q0 86 -100 86z" />
    <glyph glyph-name="afii10060" unicode="&#x40b;" horiz-adv-x="764" 
d="M369 576l-32 -178h5q35 31 93.5 49t109.5 18q82 0 125.5 -40t43.5 -112q0 -24 -4 -45l-45 -268h-115l39 228q4 28 4 41q0 94 -95 94q-45 0 -97 -22t-83 -57q-34 -190 -50 -284h-117q68 384 101 576h-198l18 99h565l-18 -99h-250z" />
    <glyph glyph-name="afii10061" unicode="&#x40c;" horiz-adv-x="591" 
d="M341 729l-32 56l193 129l48 -89zM256 676l-47 -268h61l255 268h143l-304 -316l194 -360h-135l-158 306h-74l-54 -306h-115l119 676h115z" />
    <glyph glyph-name="afii10062" unicode="&#x40e;" horiz-adv-x="556" 
d="M350 703q-41 0 -70.5 17.5t-43 45.5t-18.5 56t-2 56h75q-3 -39 12.5 -66.5t57.5 -27.5q40 0 67.5 28t38.5 66h78q-13 -68 -64.5 -121.5t-130.5 -53.5zM278 261h9l219 414h117l-281 -521q-50 -93 -99 -127.5t-129 -34.5h-52l14 95h39q39 0 62 14.5t45 50.5l15 28l-41 -2
l-110 497h114z" />
    <glyph glyph-name="afii10145" unicode="&#x40f;" horiz-adv-x="675" 
d="M353 0q-6 -29 -16 -86t-15 -84h-111q5 27 15 84t16 86h-220l119 676h116l-102 -576h319l102 576h115l-119 -676h-219z" />
    <glyph glyph-name="afii10017" unicode="&#x410;" horiz-adv-x="635" 
d="M465 0l-28 163h-260l-84 -163h-125l367 678h122l127 -678h-119zM380 551h-7q-28 -65 -75 -155l-71 -139h195l-22 133q-18 129 -20 161z" />
    <glyph glyph-name="afii10018" unicode="&#x411;" horiz-adv-x="607" 
d="M22 0l119 676h444l-18 -100h-329q-4 -29 -14.5 -87t-14.5 -87h173q99 0 145 -47t46 -122q0 -111 -72 -172t-184 -61h-295zM353 305h-162l-36 -207h169q52 0 90.5 29.5t38.5 91.5q0 86 -100 86z" />
    <glyph glyph-name="afii10019" unicode="&#x412;" horiz-adv-x="620" 
d="M467 361l-2 -5q49 -12 75 -48.5t26 -87.5q0 -102 -71 -161t-182 -59h-288l119 676h282q81 0 125 -35.5t44 -104.5q0 -55 -33 -105t-95 -70zM398 578h-157l-30 -173h154q43 0 73 26.5t35 65.5q5 37 -14.5 59t-60.5 22zM349 310h-154l-37 -211h154q58 0 92.5 28.5
t41.5 80.5q7 47 -20.5 74.5t-76.5 27.5z" />
    <glyph glyph-name="afii10020" unicode="&#x413;" horiz-adv-x="536" 
d="M22 0l119 676h457l-18 -100h-341l-101 -576h-116z" />
    <glyph glyph-name="afii10021" unicode="&#x414;" horiz-adv-x="679" 
d="M641 100l-45 -257h-103l28 157h-451l-28 -157h-101q7 43 22 128.5t22 128.5h61q42 57 70 128.5t61 205.5l59 242h435l-102 -576h72zM536 576h-213l-37 -142q-26 -99 -36.5 -136.5t-33.5 -95.5t-52 -102h288z" />
    <glyph glyph-name="afii10022" unicode="&#x415;" horiz-adv-x="564" 
d="M22 0l119 676h448l-18 -99h-332l-32 -177h309l-18 -100h-308l-35 -200h355l-17 -100h-471z" />
    <glyph glyph-name="afii10024" unicode="&#x416;" horiz-adv-x="924" 
d="M436 408l48 268h114l-48 -268h57l245 268h141l-295 -316l192 -360h-134l-156 306h-68l-53 -306h-114l53 306h-55l-253 -306h-146l310 362l-192 314h128l161 -268h65z" />
    <glyph glyph-name="afii10025" unicode="&#x417;" horiz-adv-x="602" 
d="M364 683q110 0 168 -45t58 -122q0 -49 -28.5 -94t-96.5 -67l-1 -5q87 -33 87 -128q0 -99 -81 -165t-215 -66q-62 0 -113.5 14.5t-88.5 51t-37 89.5q0 33 13 68h107q-1 -7 -1 -19q0 -58 38 -83t95 -25q78 0 119 41.5t41 94.5q0 37 -23.5 58.5t-66.5 21.5h-95l17 99h79
q52 0 90.5 23.5t38.5 76.5q0 37 -29 59t-83 22q-126 0 -151 -104h-114q0 2 -0.5 6t-0.5 6q0 89 82 140.5t192 51.5z" />
    <glyph glyph-name="afii10026" unicode="&#x418;" horiz-adv-x="676" 
d="M579 676h114l-119 -676h-114l87 500h-5q-73 -101 -130 -168l-282 -332h-109l119 676h115q-33 -191 -86 -487h6q31 41 65.5 85t54 67t64 75.5t56.5 66.5z" />
    <glyph glyph-name="afii10027" unicode="&#x419;" horiz-adv-x="690" 
d="M431 733q-42 0 -71 17t-40.5 43t-17 55.5t0.5 55.5h73q-4 -37 11.5 -63t57.5 -26q41 0 67.5 26t38.5 63h81q-16 -65 -69 -118t-132 -53zM579 676h114l-119 -676h-114l87 500h-5q-73 -101 -130 -168l-282 -332h-109l119 676h115q-33 -191 -86 -487h6q31 41 65.5 85t54 67
t64 75.5t56.5 66.5z" />
    <glyph glyph-name="afii10028" unicode="&#x41a;" horiz-adv-x="591" 
d="M256 676l-47 -268h61l255 268h143l-304 -316l194 -360h-135l-158 306h-74l-54 -306h-115l119 676h115z" />
    <glyph glyph-name="afii10029" unicode="&#x41b;" horiz-adv-x="637" 
d="M535 0h-115l101 577h-215l-46 -204q-21 -95 -37 -152.5t-36.5 -107.5t-44.5 -74.5t-56 -38t-77 -13.5q-27 0 -43 4l12 88q54 8 79 32t47.5 91.5t59.5 233.5l54 241h436z" />
    <glyph glyph-name="afii10030" unicode="&#x41c;" horiz-adv-x="869" 
d="M428 218h7q48 92 138 235l141 222h140q-66 -450 -98 -675h-115l78 504h-5q-29 -53 -83 -138l-170 -270h-97l-75 267q-28 98 -34 136h-5l-109 -499h-115l149 675h133l73 -259q30 -109 47 -198z" />
    <glyph glyph-name="afii10031" unicode="&#x41d;" horiz-adv-x="673" 
d="M455 0l53 303h-318l-52 -303h-116l119 676h116l-50 -276h318l49 276h116l-119 -676h-116z" />
    <glyph glyph-name="afii10032" unicode="&#x41e;" horiz-adv-x="703" 
d="M429 683q128 0 187 -70t59 -185q0 -62 -10.5 -120.5t-37 -116.5t-66 -101.5t-103 -70.5t-142.5 -27q-133 0 -194 64t-61 177q0 199 97 324.5t271 125.5zM416 584q-61 0 -108.5 -31.5t-74 -82.5t-39.5 -107.5t-13 -114.5q0 -81 35 -120t113 -39q96 0 162 91t66 239
q0 165 -141 165z" />
    <glyph glyph-name="afii10033" unicode="&#x41f;" horiz-adv-x="664" 
d="M446 0l101 577h-308l-101 -577h-116l119 677h539l-119 -677h-115z" />
    <glyph glyph-name="afii10034" unicode="&#x420;" horiz-adv-x="592" 
d="M340 243h-160l-42 -243h-116l119 676h276q101 0 150 -49t49 -134q0 -42 -13.5 -82.5t-43.5 -80t-86.5 -63.5t-132.5 -24zM394 577h-155l-42 -235h154q53 0 96.5 29.5t50.5 91.5q7 53 -22 83.5t-82 30.5z" />
    <glyph glyph-name="afii10035" unicode="&#x421;" horiz-adv-x="632" 
d="M405 582q-105 0 -164 -94t-59 -243q0 -76 33 -115t107 -39q149 0 169 131h112q0 -9 -2 -27q-12 -102 -91 -152.5t-187 -50.5q-262 0 -262 243q0 198 91.5 322.5t259.5 124.5q98 0 162.5 -45t64.5 -125q0 -26 -6 -51h-111q2 14 2 21q0 48 -31.5 74t-87.5 26z" />
    <glyph glyph-name="afii10036" unicode="&#x422;" horiz-adv-x="575" 
d="M408 577l-101 -577h-115l101 577h-217l18 99h545l-18 -99h-213z" />
    <glyph glyph-name="afii10037" unicode="&#x423;" horiz-adv-x="556" 
d="M278 261h9l219 414h117l-281 -521q-50 -93 -99 -127.5t-129 -34.5h-52l14 95h39q39 0 62 14.5t45 50.5l15 28l-41 -2l-110 497h114z" />
    <glyph glyph-name="afii10038" unicode="&#x424;" horiz-adv-x="778" 
d="M387 554q-98 -10 -155 -84.5t-57 -173.5q0 -63 35.5 -102.5t104.5 -49.5zM521 677l-6 -33q123 -11 179 -76.5t56 -163.5q0 -48 -11.5 -93.5t-38 -89.5t-65 -78t-96.5 -58t-128 -30l-9 -55h-112l10 54q-120 11 -179.5 74t-59.5 162q0 142 93 241t250 113l6 33h111z
M499 555l-72 -410q93 13 150.5 83t57.5 173q0 64 -35 106t-101 48z" />
    <glyph glyph-name="afii10039" unicode="&#x425;" horiz-adv-x="622" 
d="M234 675q36 -82 106 -246l189 246h135q-45 -55 -134.5 -164t-134.5 -164q75 -154 170 -347h-132l-115 265l-207 -265h-139q192 234 289 351l-155 324h128z" />
    <glyph glyph-name="afii10040" unicode="&#x426;" horiz-adv-x="704" 
d="M672 100l-45 -257h-106l28 157h-527l119 676h116l-102 -576h318q20 111 56 316.5t46 259.5h116l-102 -576h83z" />
    <glyph glyph-name="afii10041" unicode="&#x427;" horiz-adv-x="615" 
d="M118 676h117l-34 -188q-14 -79 16 -110.5t97 -31.5q72 0 147 17l55 313h117l-119 -676h-118l46 268q-86 -19 -168 -19q-120 0 -166.5 53.5t-26.5 164.5z" />
    <glyph glyph-name="afii10042" unicode="&#x428;" horiz-adv-x="930" 
d="M730 101l102 576h115l-119 -677h-807l119 677h117l-102 -576h231l102 576h115l-102 -576h229z" />
    <glyph glyph-name="afii10043" unicode="&#x429;" horiz-adv-x="959" 
d="M928 100l-45 -257h-106l28 157h-784l119 676h116l-102 -576h231l102 576h115l-102 -576h229l102 576h116l-102 -576h83z" />
    <glyph glyph-name="afii10044" unicode="&#x42a;" horiz-adv-x="756" 
d="M175 0l100 576h-200l18 100h316q-9 -47 -25 -138.5t-24 -135.5h170q99 0 145 -47t46 -122q0 -111 -72 -172t-184 -61h-290zM501 305h-158q-7 -35 -19 -104.5t-18 -102.5h166q52 0 90.5 29.5t38.5 91.5q0 86 -100 86z" />
    <glyph glyph-name="afii10045" unicode="&#x42b;" horiz-adv-x="811" 
d="M210 402h169q99 0 145 -47t46 -122q0 -111 -72 -172t-184 -61h-290l119 675h116q-14 -77 -49 -273zM587 0l119 675h117l-119 -675h-117zM350 305h-158l-36 -207h166q51 0 89.5 29.5t38.5 91.5q0 86 -100 86z" />
    <glyph glyph-name="afii10046" unicode="&#x42c;" horiz-adv-x="601" 
d="M210 402h169q99 0 145 -47t46 -122q0 -111 -72 -172t-184 -61h-290l119 675h116q-14 -77 -49 -273zM350 305h-158l-36 -207h166q51 0 89.5 29.5t38.5 91.5q0 86 -100 86z" />
    <glyph glyph-name="afii10047" unicode="&#x42d;" horiz-adv-x="636" 
d="M227 303l17 98h249q2 24 2 36q0 146 -146 146q-120 0 -147 -113h-107q0 101 75.5 156.5t180.5 55.5q129 0 194 -66t65 -189q0 -198 -92 -316.5t-259 -118.5q-96 0 -162 41t-66 121q0 30 8 55h107q-1 -7 -1 -19q0 -99 125 -99q86 0 139.5 55.5t67.5 156.5h-250z" />
    <glyph glyph-name="afii10048" unicode="&#x42e;" horiz-adv-x="926" 
d="M661 684q126 0 182 -71.5t56 -187.5q0 -58 -10.5 -114.5t-36.5 -115.5t-65 -103t-102.5 -72t-142.5 -28q-128 0 -186.5 65.5t-58.5 173.5q0 30 5 68h-112l-52 -299h-116l119 677h116l-49 -276h114q37 130 123 206.5t216 76.5zM644 584q-59 0 -105 -33t-71.5 -85.5
t-38.5 -109.5t-13 -112q0 -155 141 -155q98 0 159.5 89.5t61.5 242.5q0 163 -134 163z" />
    <glyph glyph-name="afii10049" unicode="&#x42f;" horiz-adv-x="628" 
d="M88 442q0 106 72.5 169.5t191.5 63.5h280l-117 -675h-120q5 27 48 262h-71l-224 -262h-138l231 268q-81 15 -117 66.5t-36 107.5zM500 577h-151q-59 0 -101 -33.5t-42 -94.5q0 -47 31 -68t79 -21h146q14 85 38 217z" />
    <glyph glyph-name="afii10065" unicode="&#x430;" horiz-adv-x="561" 
d="M245 80q69 0 110 66t41 155q0 47 -24 74t-71 27q-58 0 -101.5 -58.5t-43.5 -163.5q0 -100 89 -100zM541 486l-85 -486h-91q-10 35 -4 71h-6q-57 -79 -156 -79q-158 0 -158 177q0 130 66 227.5t179 97.5q100 0 137 -71h4q5 41 26 63h88z" />
    <glyph glyph-name="afii10066" unicode="&#x431;" horiz-adv-x="555" 
d="M348 479q81 0 124.5 -46.5t43.5 -131.5q0 -61 -15.5 -114.5t-47.5 -98t-87 -70.5t-126 -26q-193 0 -195 187q0 104 46 247q66 211 208 255q58 18 225 33l6 -90q-125 -12 -132 -13q-88 -12 -131 -58t-70 -135l4 -4q63 65 147 65zM253 81q64 0 106 56t42 148q0 107 -88 107
q-73 0 -114 -59t-41 -145q0 -107 95 -107z" />
    <glyph glyph-name="afii10067" unicode="&#x432;" horiz-adv-x="545" 
d="M425 270v-7q71 -23 71 -92q0 -78 -63 -128.5t-182 -50.5q-245 0 -199 235l12 61q40 207 243 207q100 0 147 -37.5t47 -87.5q0 -28 -17.5 -57t-58.5 -43zM305 408q-104 0 -126 -120l-15 -79q-12 -59 10.5 -95.5t86.5 -36.5q58 0 88.5 27t30.5 62q0 25 -19 42.5t-56 16.5
h-59l15 82h55q36 0 55 14t19 37q0 19 -23.5 34.5t-61.5 15.5z" />
    <glyph glyph-name="afii10068" unicode="&#x433;" horiz-adv-x="484" 
d="M270 494q96 0 141 -35.5t45 -92.5q0 -66 -52.5 -101t-151.5 -56q-58 -13 -84 -29.5t-26 -46.5q0 -23 21 -37.5t62 -14.5q98 0 114 78l96 -1q0 -2 0.5 -6.5t0.5 -7.5q0 -75 -64.5 -112.5t-153.5 -39.5q-91 0 -139.5 34.5t-48.5 90.5q0 77 51.5 116.5t157.5 60.5
q54 10 77.5 24t23.5 38q0 20 -18 34.5t-51 14.5q-31 0 -57.5 -14.5t-35.5 -44.5h-101q-1 4 -1 10q0 67 59.5 102.5t134.5 35.5z" />
    <glyph glyph-name="afii10069" unicode="&#x434;" horiz-adv-x="561" 
d="M255 80q68 0 107.5 65t39.5 144q0 46 -25.5 76.5t-74.5 30.5q-40 0 -70 -21.5t-45 -55t-22 -67t-7 -65.5q0 -107 97 -107zM254 -8q-51 0 -89 11.5t-60.5 29t-36 43.5t-18 51t-4.5 55q0 75 25.5 141.5t82 113t134.5 46.5q87 0 138 -52l5 2q1 11 1 28q0 165 -140 165
q-45 0 -90 -16l-24 85q63 24 126 24q115 0 175 -69.5t60 -194.5q0 -53 -6.5 -109t-26 -121.5t-49.5 -115.5t-82.5 -83.5t-120.5 -33.5z" />
    <glyph glyph-name="afii10070" unicode="&#x435;" horiz-adv-x="523" 
d="M318 493q91 0 132.5 -39t41.5 -94q0 -46 -26.5 -79.5t-72.5 -51.5t-98 -26t-112 -8h-26q-1 -7 -1 -21q0 -91 91 -91q51 0 75.5 19.5t36.5 54.5h99q1 -12 0 -22q-6 -69 -68 -106t-149 -37q-105 0 -151 51.5t-46 130.5q0 136 71 227.5t203 91.5zM306 401q-61 0 -95 -37
t-44 -95q10 -1 29 -1q94 0 138.5 25t44.5 58q0 24 -20 37t-53 13z" />
    <glyph glyph-name="afii10072" unicode="&#x436;" horiz-adv-x="745" 
d="M328 302q22 122 32 184h112q-10 -62 -32 -184h47l165 183h128q-35 -37 -104 -111.5t-104 -111.5q25 -50 70.5 -141.5t59.5 -120.5h-122l-100 213h-55q-26 -142 -38 -213h-112l38 213h-49q-114 -142 -172 -213h-129l214 260l-127 225h124q64 -122 97 -183h57z" />
    <glyph glyph-name="afii10073" unicode="&#x437;" horiz-adv-x="473" 
d="M271 494q85 0 127 -31.5t45 -84.5q0 -96 -89 -128v-2q-1 -2 -1 -3q63 -26 63 -89q0 -71 -58.5 -117.5t-164.5 -46.5q-84 0 -134.5 30.5t-50.5 94.5q0 21 8 53h100q-1 -7 -1 -17q0 -38 24 -56.5t62 -18.5q49 0 75 25.5t26 58.5q0 21 -14.5 34t-42.5 13h-67l15 84h67
q25 0 44.5 15t19.5 37q0 31 -20.5 44.5t-45.5 13.5q-79 0 -97 -70h-101q0 17 1 25q8 65 69 100.5t141 35.5z" />
    <glyph glyph-name="afii10074" unicode="&#x438;" horiz-adv-x="534" 
d="M180 -7q-90 0 -119 53t-13 148l51 292h115l-50 -284q-20 -122 68 -122q54 0 87.5 45t44.5 103l46 258h114l-85 -486h-91q-9 43 -1 85h-4q-63 -92 -163 -92z" />
    <glyph glyph-name="afii10075" unicode="&#x439;" horiz-adv-x="534" 
d="M313 551q-42 0 -71 17t-40.5 43t-17 55.5t0.5 55.5h73q-4 -37 11.5 -63t57.5 -26q41 0 67.5 26t38.5 63h81q-16 -65 -69 -118t-132 -53zM180 -7q-90 0 -119 53t-13 148l51 292h115l-50 -284q-20 -122 68 -122q54 0 87.5 45t44.5 103l46 258h114l-85 -486h-91q-9 43 -1 85
h-4q-63 -92 -163 -92z" />
    <glyph glyph-name="afii10076" unicode="&#x43a;" horiz-adv-x="501" 
d="M213 486l-32 -183h47l175 182h133q-73 -74 -217 -224l138 -261h-125l-106 211h-62l-36 -211h-113l85 486h113z" />
    <glyph glyph-name="afii10077" unicode="&#x43b;" horiz-adv-x="529" 
d="M428 0h-114l69 396h-138l-32 -141q-35 -154 -74.5 -209.5t-119.5 -55.5q-19 0 -43 3l10 83q39 4 57.5 18t37 62t42.5 156l40 174h350z" />
    <glyph glyph-name="afii10078" unicode="&#x43c;" horiz-adv-x="683" 
d="M358 67h-87l-55 161q-15 42 -26 94q-1 -1 -5 -1q-48 -233 -67 -321h-108l104 484h116l49 -146q39 -116 49 -161h8q15 25 106 163l97 144h124l-70 -484h-111l54 321h-7q-18 -32 -53 -83z" />
    <glyph glyph-name="afii10079" unicode="&#x43d;" horiz-adv-x="554" 
d="M346 0l37 210h-216l-37 -210h-114l85 485h114l-33 -185h216l33 185h113l-85 -485h-113z" />
    <glyph glyph-name="afii10080" unicode="&#x43e;" horiz-adv-x="557" 
d="M316 494q105 0 152.5 -54.5t47.5 -142.5q0 -54 -14 -105t-43.5 -97.5t-84 -74.5t-126.5 -28q-203 0 -203 188q0 135 70 224.5t201 89.5zM307 404q-72 0 -110.5 -63t-38.5 -154q0 -108 99 -108q62 0 103.5 58t41.5 159q0 108 -95 108z" />
    <glyph glyph-name="afii10081" unicode="&#x43f;" horiz-adv-x="545" 
d="M363 493q171 0 136 -203l-50 -290h-114l50 283q3 27 2.5 53.5t-18 46t-50.5 19.5q-60 0 -97 -43t-47 -102l-46 -257h-114l85 486h91q11 -29 2 -86h4q61 93 166 93z" />
    <glyph glyph-name="afii10082" unicode="&#x440;" horiz-adv-x="557" 
d="M361 493q78 0 118 -46t40 -123q0 -155 -68.5 -243t-197.5 -88q-78 4 -113 48h-5q-15 -81 -43 -245h-112q22 132 65 375.5t55 314.5h90q9 -31 2 -80h4q61 87 165 87zM312 405q-62 0 -107.5 -68.5t-45.5 -165.5q0 -92 94 -92q65 0 107.5 63.5t42.5 158.5q0 51 -24 77.5
t-67 26.5z" />
    <glyph glyph-name="afii10083" unicode="&#x441;" horiz-adv-x="502" 
d="M306 493q83 0 129 -33.5t46 -97.5q0 -14 -5 -37h-102v6l1 5q0 63 -75 63q-71 0 -107 -63t-36 -155q0 -96 93 -96q43 0 69 19t37 66h102v-16q-5 -77 -65 -119.5t-147 -42.5q-203 0 -203 185q0 145 72.5 230.5t190.5 85.5z" />
    <glyph glyph-name="afii10084" unicode="&#x442;" horiz-adv-x="833" 
d="M607 407q-48 0 -83.5 -43t-44.5 -96l-47 -268h-113l50 284q22 122 -67 122q-55 0 -87 -45t-42 -103l-44 -258h-113l85 486h91q13 -26 3 -79h4q58 87 154 87q109 0 130 -87q72 87 172 87q50 0 82 -17.5t43 -46.5t13.5 -66t-6.5 -77l-50 -287h-114l50 285q10 59 -3.5 90.5
t-62.5 31.5z" />
    <glyph glyph-name="afii10085" unicode="&#x443;" horiz-adv-x="495" 
d="M228 81l108 227q34 73 54 176h106q-1 -7 -4 -25.5t-4.5 -24.5t-4 -21.5t-4.5 -22.5l-6 -21t-7.5 -23.5t-8.5 -22.5t-11 -26.5t-14 -28.5l-240 -473h-117l108 204l-42 -2l-94 488h112l39 -239q15 -92 23 -165h7z" />
    <glyph glyph-name="afii10086" unicode="&#x444;" horiz-adv-x="698" 
d="M434 406q-10 -54 -29 -163t-29 -164q73 9 122.5 66.5t49.5 147.5q0 46 -32 77t-82 36zM267 79l57 327q-74 -10 -122 -67.5t-48 -140.5q0 -50 31.5 -81t81.5 -38zM340 492l38 219h110l-39 -218q107 -6 157 -63.5t50 -137.5q0 -31 -8.5 -66.5t-30 -76.5t-53.5 -74t-85 -56
t-118 -26l-35 -198h-110l35 199q-105 5 -156 63.5t-51 139.5q0 49 16.5 97t50 92t93 73t136.5 33z" />
    <glyph glyph-name="afii10087" unicode="&#x445;" horiz-adv-x="486" 
d="M327 0l-81 182q-37 -45 -146 -182h-131l218 253q-103 196 -122 233h125l73 -160q17 22 127 160h133l-203 -233l131 -253h-124z" />
    <glyph glyph-name="afii10088" unicode="&#x446;" horiz-adv-x="557" 
d="M232 80q52 0 84.5 44t42.5 104l46 258h113l-55 -307q-18 -97 41 -138l-49 -218h-96l34 172q-40 28 -40 86h-4q-61 -88 -169 -88q-90 0 -119 53t-13 148l51 292h115l-50 -284q-20 -122 68 -122z" />
    <glyph glyph-name="afii10089" unicode="&#x447;" horiz-adv-x="497" 
d="M71 485h112l-26 -150q-9 -49 9.5 -73t71.5 -24q39 0 93 16l42 231h114q-23 -128 -85 -485h-114l30 172q-67 -23 -134 -23q-169 0 -141 178z" />
    <glyph glyph-name="afii10090" unicode="&#x448;" horiz-adv-x="797" 
d="M231 79q48 0 83.5 43t44.5 96l47 268h112l-49 -284q-22 -122 67 -122q38 0 66.5 25.5t42 56t20.5 66.5l44 258h113l-85 -486h-91q-14 28 -3 79h-5q-57 -87 -153 -87q-108 0 -131 87q-70 -87 -171 -87q-50 0 -82 17.5t-43 46.5t-13.5 66t6.5 77l50 287h114l-50 -285
q-11 -59 3 -90.5t63 -31.5z" />
    <glyph glyph-name="afii10091" unicode="&#x449;" horiz-adv-x="843" 
d="M484 -7q-109 0 -130 86q-69 -86 -171 -86q-166 0 -132 205l49 288h114l-50 -285q-20 -120 60 -120q51 0 88 40.5t47 96.5l47 268h112l-50 -284q-20 -119 61 -119q59 0 91 42t43 103l46 258h113l-55 -307q-20 -95 41 -138l-49 -218h-96l34 172q-40 28 -40 86h-4
q-61 -88 -169 -88z" />
    <glyph glyph-name="afii10092" unicode="&#x44a;" horiz-adv-x="624" 
d="M32 397l16 88h260l-30 -166h156q73 0 115.5 -35.5t42.5 -96.5q0 -82 -67.5 -138t-185.5 -56q-200 0 -200 158q0 34 6 75t17 93t15 78h-145zM347 82q60 0 95.5 26t35.5 65q0 25 -19 43.5t-63 18.5h-132l-8 -47q-2 -18 -2 -24q0 -82 93 -82z" />
    <glyph glyph-name="afii10093" unicode="&#x44b;" horiz-adv-x="738" 
d="M636 0h-114l86 485h113zM255 82q60 0 95.5 26t35.5 65q0 25 -19 43.5t-63 18.5h-132l-8 -47q-2 -18 -2 -24q0 -82 93 -82zM101 485h115l-30 -166h156q73 0 115.5 -35.5t42.5 -96.5q0 -82 -66.5 -138t-186.5 -56q-200 0 -200 158q0 34 5 58q32 184 49 276z" />
    <glyph glyph-name="afii10094" unicode="&#x44c;" horiz-adv-x="535" 
d="M255 82q60 0 95.5 26t35.5 66q0 24 -18.5 43t-62.5 19h-133l-8 -48q-2 -16 -2 -23q0 -37 22 -60t71 -23zM102 485h114l-29 -166h155q73 0 115.5 -35.5t42.5 -96.5q0 -82 -66 -138.5t-187 -56.5q-200 0 -200 160q0 26 5 58z" />
    <glyph glyph-name="afii10095" unicode="&#x44d;" horiz-adv-x="498" 
d="M184 -9q-73 0 -122 30.5t-49 91.5q0 22 8 49h100q-1 -80 79 -80q57 0 90.5 33.5t43.5 89.5h-162l16 89h158q2 9 2 26q0 38 -21 59t-61 21q-32 0 -61.5 -16.5t-41.5 -51.5h-101q6 78 68.5 119.5t140.5 41.5q188 0 188 -186q0 -146 -71 -231t-204 -85z" />
    <glyph glyph-name="afii10096" unicode="&#x44e;" horiz-adv-x="739" 
d="M503 494q105 0 150 -55t45 -142q0 -51 -14 -100.5t-43.5 -97t-84.5 -77t-129 -29.5q-192 0 -192 180q0 10 2 36h-71l-37 -209h-113l86 486h112l-33 -189h74q30 90 93.5 143.5t154.5 53.5zM497 401q-69 0 -107 -59.5t-40 -143.5q-6 -115 91 -115q57 0 98.5 54t44.5 146
q5 118 -87 118z" />
    <glyph glyph-name="afii10097" unicode="&#x44f;" horiz-adv-x="523" 
d="M258 486h249l-83 -486h-116l34 183h-45l-165 -183h-128q111 120 169 186q-56 11 -85.5 46t-29.5 83q0 78 55 124.5t145 46.5zM380 400h-119q-37 0 -64 -20.5t-27 -55.5q0 -59 79 -59h107z" />
    <glyph glyph-name="afii10071" unicode="&#x451;" horiz-adv-x="523" 
d="M318 493q91 0 132.5 -39t41.5 -94q0 -46 -26.5 -79.5t-72.5 -51.5t-98 -26t-112 -8h-26q-1 -7 -1 -21q0 -91 91 -91q51 0 75.5 19.5t36.5 54.5h99q1 -12 0 -22q-6 -69 -68 -106t-149 -37q-105 0 -151 51.5t-46 130.5q0 136 71 227.5t203 91.5zM306 401q-61 0 -95 -37
t-44 -95q10 -1 29 -1q94 0 138.5 25t44.5 58q0 24 -20 37t-53 13zM259 693q21 0 34 -14t13 -35q0 -28 -21 -48.5t-47 -20.5q-22 0 -35.5 14t-13.5 35q0 27 21.5 48t48.5 21zM442 693q22 0 35.5 -14t13.5 -35q0 -27 -21.5 -48t-48.5 -21q-20 0 -33.5 13.5t-13.5 33.5
q0 28 20.5 49.5t47.5 21.5z" />
    <glyph glyph-name="afii10099" unicode="&#x452;" horiz-adv-x="555" 
d="M361 477q148 0 148 -188q0 -60 -12 -115.5t-39 -108.5t-79 -85t-123 -32q-9 0 -29 2l16 88q76 5 115.5 70t39.5 169q0 113 -86 113q-60 0 -93 -43t-43 -102l-43 -245h-111l98 556h-49l11 68h50l15 87h109l-15 -87h215l-12 -68h-215l-11 -59q-13 -70 -32 -109h5
q31 44 77.5 66.5t92.5 22.5z" />
    <glyph glyph-name="afii10100" unicode="&#x453;" horiz-adv-x="484" 
d="M278 549l-44 48l163 165l63 -74zM270 494q96 0 141 -35.5t45 -92.5q0 -66 -52.5 -101t-151.5 -56q-58 -13 -84 -29.5t-26 -46.5q0 -23 21 -37.5t62 -14.5q98 0 114 78l96 -1q0 -2 0.5 -6.5t0.5 -7.5q0 -75 -64.5 -112.5t-153.5 -39.5q-91 0 -139.5 34.5t-48.5 90.5
q0 77 51.5 116.5t157.5 60.5q54 10 77.5 24t23.5 38q0 20 -18 34.5t-51 14.5q-31 0 -57.5 -14.5t-35.5 -44.5h-101q-1 4 -1 10q0 67 59.5 102.5t134.5 35.5z" />
    <glyph glyph-name="afii10101" unicode="&#x454;" horiz-adv-x="501" 
d="M306 493q82 0 128.5 -34t46.5 -98q0 -10 -5 -35h-104q0 73 -77 73q-45 0 -77.5 -27.5t-44.5 -78.5h159q-3 -14 -8 -43t-8 -44h-159q-2 -18 -2 -27q0 -94 94 -94q87 0 107 83h102v-8q0 -78 -62 -123t-151 -45q-202 0 -202 185q0 145 72.5 230.5t190.5 85.5z" />
    <glyph glyph-name="afii10102" unicode="&#x455;" horiz-adv-x="483" 
d="M284 494q65 0 115.5 -26t50.5 -79q0 -22 -7 -40h-100q1 30 -20.5 43.5t-52.5 13.5q-43 0 -65.5 -20t-22.5 -47q0 -21 19 -30.5t67 -17.5q84 -16 122.5 -45t37.5 -85q-1 -74 -58 -121t-166 -47q-46 0 -85 11t-68 39.5t-29 69.5q0 21 7 43h99q-3 -43 24 -61t67 -18
q48 0 73 23.5t25 51.5q0 23 -20 34t-70 21q-82 16 -120.5 40t-38.5 78q0 68 51.5 118.5t164.5 50.5z" />
    <glyph glyph-name="afii10103" unicode="&#x456;" horiz-adv-x="272" 
d="M38 0l85 486h113l-85 -486h-113zM216 687q25 0 40.5 -16t15.5 -41q0 -32 -24.5 -56t-55.5 -24q-25 0 -40 15.5t-15 39.5q0 33 24 57.5t55 24.5z" />
    <glyph glyph-name="afii10104" unicode="&#x457;" horiz-adv-x="279" 
d="M120 686q21 0 34 -14t13 -35q0 -27 -20.5 -48t-47.5 -21q-22 0 -35.5 14t-13.5 35q0 27 21.5 48t48.5 21zM303 686q22 0 35.5 -14t13.5 -35q0 -27 -21.5 -48t-48.5 -21q-20 0 -33.5 13.5t-13.5 33.5q0 28 20.5 49.5t47.5 21.5zM37 0l85 486h113l-85 -486h-113z" />
    <glyph glyph-name="afii10105" unicode="&#x458;" horiz-adv-x="262" 
d="M-70 -206l13 94q46 0 61 12t21 44l96 542h114l-98 -551q-6 -32 -13.5 -54t-23.5 -45t-44 -35t-67 -12q-22 0 -59 5zM216 687q25 0 40.5 -16t15.5 -41q0 -32 -24.5 -56t-55.5 -24q-25 0 -40 15.5t-15 39.5q0 33 24 57.5t55 24.5z" />
    <glyph glyph-name="afii10106" unicode="&#x459;" horiz-adv-x="810" 
d="M123 312l40 173h331l-31 -166h154q73 0 115.5 -35.5t42.5 -96.5q0 -82 -66.5 -138.5t-186.5 -56.5q-198 0 -198 160q0 26 5 58l35 186h-119l-32 -141q-35 -154 -74.5 -209.5t-119.5 -55.5q-19 0 -43 3l10 83q39 4 57.5 18t37 62t42.5 156zM530 82q60 0 95.5 26t35.5 66
q0 24 -19 43t-63 19h-130l-8 -48q-2 -16 -2 -23q0 -83 91 -83z" />
    <glyph glyph-name="afii10107" unicode="&#x45a;" horiz-adv-x="802" 
d="M376 485h115l-32 -177h155q75 0 116.5 -30.5t41.5 -90.5q0 -81 -67 -137.5t-185 -56.5q-199 0 -199 158q0 17 4 49l3 23h-159q-28 -162 -40 -223h-114l85 485h115q-18 -107 -31 -176h160q5 30 16 88.5t16 87.5zM527 82q60 0 96 26t36 65q0 51 -82 51h-133l-6 -36
q0 -5 -1 -14.5t-1 -13.5q0 -78 91 -78z" />
    <glyph glyph-name="afii10108" unicode="&#x45b;" horiz-adv-x="545" 
d="M185 393h4q30 43 77 64.5t94 21.5q54 0 87 -17t44.5 -45.5t13 -66t-7.5 -77.5l-47 -273h-115l47 270q12 59 -3 90.5t-69 31.5q-57 0 -92.5 -45t-46.5 -103l-42 -244h-113l97 556h-48l12 68h48l16 88h111l-15 -88h209l-11 -68h-210l-7 -40q-16 -85 -33 -123z" />
    <glyph glyph-name="afii10109" unicode="&#x45c;" horiz-adv-x="501" 
d="M290 544l-44 48l163 165l63 -74zM213 486l-32 -183h47l175 182h133q-73 -74 -217 -224l138 -261h-125l-106 211h-62l-36 -211h-113l85 486h113z" />
    <glyph glyph-name="afii10110" unicode="&#x45e;" horiz-adv-x="495" 
d="M228 81l108 227q34 73 54 176h106q-1 -7 -4 -25.5t-4.5 -24.5t-4 -21.5t-4.5 -22.5l-6 -21t-7.5 -23.5t-8.5 -22.5t-11 -26.5t-14 -28.5l-240 -473h-117l108 204l-42 -2l-94 488h112l39 -239q15 -92 23 -165h7zM288 538q-41 0 -70.5 17.5t-43 45.5t-18 56.5t-1.5 56.5h75
q-4 -39 11.5 -66.5t57.5 -27.5q40 0 67.5 28t38.5 66h78q-13 -68 -64 -122t-131 -54z" />
    <glyph glyph-name="afii10193" unicode="&#x45f;" horiz-adv-x="534" 
d="M184 -35q18 0 55.5 0.5t56.5 0.5l-40 -187h-94q14 124 22 186zM180 -7q-90 0 -119 53t-13 148l51 292h115l-50 -284q-20 -122 68 -122q54 0 87.5 45t44.5 103l46 258h114l-85 -486h-91q-9 43 -1 85h-4q-63 -92 -163 -92z" />
    <glyph glyph-name="afii10050" unicode="&#x490;" horiz-adv-x="536" 
d="M506 675l24 141h102q-8 -42 -22 -122t-21 -118h-350l-101 -576h-116l119 675h365z" />
    <glyph glyph-name="afii10098" unicode="&#x491;" horiz-adv-x="447" 
d="M384 484l24 135h97l-40 -228h-267l-69 -391h-114q56 322 85 484h284z" />
    <glyph glyph-name="schwacyrillic" unicode="&#x4d9;" horiz-adv-x="540" 
d="M218 -8q-91 0 -132.5 39t-41.5 94q0 46 26.5 79.5t72.5 51.5t98 26t112 8h26q1 7 1 21q0 91 -91 91q-51 0 -75.5 -19.5t-36.5 -54.5h-99q-1 12 0 22q6 69 68 106t149 37q105 0 151 -51.5t46 -130.5q0 -136 -71 -227.5t-203 -91.5zM230 84q61 0 95 37t44 95q-10 1 -29 1
q-94 0 -138.5 -25t-44.5 -58q0 -24 20 -37t53 -13z" />
    <glyph glyph-name="Wgrave" unicode="&#x1e80;" horiz-adv-x="917" 
d="M643 141h5q19 50 102 265l110 270h125l-298 -676h-127l-32 296q-17 153 -16 236h-4q-41 -109 -96 -232l-134 -300h-127l-61 676h120l13 -250q10 -228 11 -286h5q40 101 121 286l112 250h124l26 -265q19 -193 21 -270zM603 770l-40 -52l-182 105l57 82z" />
    <glyph glyph-name="wgrave" unicode="&#x1e81;" horiz-adv-x="734" 
d="M498 122h4l83 174q29 60 39.5 94.5t19.5 94.5h105q-10 -77 -21 -115.5t-45 -104.5l-141 -267h-118l-21 152q-11 74 -17 143h-7q-21 -51 -70 -149l-74 -146h-122l-61 488l113 -1l18 -187q15 -154 15 -167h7q10 20 34 71.5t37 77.5l72 141h112l20 -149zM486 592l-46 -47
l-168 137l67 72z" />
    <glyph glyph-name="Wacute" unicode="&#x1e82;" horiz-adv-x="917" 
d="M643 141h5q19 50 102 265l110 270h125l-298 -676h-127l-32 296q-17 153 -16 236h-4q-41 -109 -96 -232l-134 -300h-127l-61 676h120l13 -250q10 -228 11 -286h5q40 101 121 286l112 250h124l26 -265q19 -193 21 -270zM520 726l-32 56l193 129l48 -89z" />
    <glyph glyph-name="wacute" unicode="&#x1e83;" horiz-adv-x="734" 
d="M498 122h4l83 174q29 60 39.5 94.5t19.5 94.5h105q-10 -77 -21 -115.5t-45 -104.5l-141 -267h-118l-21 152q-11 74 -17 143h-7q-21 -51 -70 -149l-74 -146h-122l-61 488l113 -1l18 -187q15 -154 15 -167h7q10 20 34 71.5t37 77.5l72 141h112l20 -149zM407 544l-44 48
l163 165l63 -74z" />
    <glyph glyph-name="Wdieresis" unicode="&#x1e84;" horiz-adv-x="917" 
d="M643 141h5q19 50 102 265l110 270h125l-298 -676h-127l-32 296q-17 153 -16 236h-4q-41 -109 -96 -232l-134 -300h-127l-61 676h120l13 -250q10 -228 11 -286h5q40 101 121 286l112 250h124l26 -265q19 -193 21 -270zM481 880q21 0 35 -14t14 -34q0 -28 -21 -49t-48 -21
q-21 0 -34.5 14t-13.5 35q0 27 21 48t47 21zM666 880q21 0 34.5 -14t13.5 -34q0 -28 -21 -49t-48 -21q-21 0 -35 14t-14 35q0 27 21.5 48t48.5 21z" />
    <glyph glyph-name="wdieresis" unicode="&#x1e85;" horiz-adv-x="734" 
d="M498 122h4l83 174q29 60 39.5 94.5t19.5 94.5h105q-10 -77 -21 -115.5t-45 -104.5l-141 -267h-118l-21 152q-11 74 -17 143h-7q-21 -51 -70 -149l-74 -146h-122l-61 488l113 -1l18 -187q15 -154 15 -167h7q10 20 34 71.5t37 77.5l72 141h112l20 -149zM351 686
q21 0 34 -14t13 -35q0 -27 -21 -48t-47 -21q-22 0 -35.5 14t-13.5 35q0 27 21.5 48t48.5 21zM534 686q22 0 35.5 -14t13.5 -35q0 -27 -21.5 -48t-48.5 -21q-20 0 -33.5 13.5t-13.5 33.5q0 28 20.5 49.5t47.5 21.5z" />
    <glyph glyph-name="Ygrave" unicode="&#x1ef2;" horiz-adv-x="586" 
d="M306 360h8q47 86 109 174l99 141h129l-301 -425l-44 -250h-116q15 83 43 249l-147 426h124l54 -160q28 -84 42 -155zM453 770l-40 -52l-182 105l57 82z" />
    <glyph glyph-name="ygrave" unicode="&#x1ef3;" horiz-adv-x="495" 
d="M228 81l108 227q34 73 54 176h106q-1 -7 -4 -25.5t-4.5 -24.5t-4 -21.5t-4.5 -22.5l-6 -21t-7.5 -23.5t-8.5 -22.5t-11 -26.5t-14 -28.5l-240 -473h-117l108 204l-42 -2l-94 488h112l39 -239q15 -92 23 -165h7zM353 592l-46 -47l-168 137l67 72z" />
    <glyph glyph-name="uni1F00" unicode="&#x1f00;" horiz-adv-x="561" 
d="M245 80q69 0 110 66t41 155q0 47 -24 74t-71 27q-58 0 -101.5 -58.5t-43.5 -163.5q0 -100 89 -100zM541 486l-85 -486h-91q-10 35 -4 71h-6q-57 -79 -156 -79q-158 0 -158 177q0 130 66 227.5t179 97.5q100 0 137 -71h4q5 41 26 63h88zM343 538l-40 24q47 55 47 95
q0 34 -55 56l52 95q98 -32 98 -111q0 -37 -27 -82t-75 -77z" />
    <glyph glyph-name="uni1F01" unicode="&#x1f01;" horiz-adv-x="561" 
d="M245 80q69 0 110 66t41 155q0 47 -24 74t-71 27q-58 0 -101.5 -58.5t-43.5 -163.5q0 -100 89 -100zM541 486l-85 -486h-91q-10 35 -4 71h-6q-57 -79 -156 -79q-158 0 -158 177q0 130 66 227.5t179 97.5q100 0 137 -71h4q5 41 26 63h88zM394 562l-48 -24q-28 24 -42 57.5
t-12 65.5q3 53 42 91t103 56l17 -95q-43 -14 -59.5 -33t-17.5 -47q-2 -37 17 -71z" />
    <glyph glyph-name="uni1F02" unicode="&#x1f02;" horiz-adv-x="561" 
d="M245 80q69 0 110 66t41 155q0 47 -24 74t-71 27q-58 0 -101.5 -58.5t-43.5 -163.5q0 -100 89 -100zM541 486l-85 -486h-91q-10 35 -4 71h-6q-57 -79 -156 -79q-158 0 -158 177q0 130 66 227.5t179 97.5q100 0 137 -71h4q5 41 26 63h88zM235 540l-39 25q48 53 48 96
q0 32 -55 54l48 100q101 -38 101 -114q0 -37 -27.5 -82.5t-75.5 -78.5zM518 575l-68 -24l-104 227l106 43z" />
    <glyph glyph-name="uni1F03" unicode="&#x1f03;" horiz-adv-x="561" 
d="M245 80q69 0 110 66t41 155q0 47 -24 74t-71 27q-58 0 -101.5 -58.5t-43.5 -163.5q0 -100 89 -100zM541 486l-85 -486h-91q-10 35 -4 71h-6q-57 -79 -156 -79q-158 0 -158 177q0 130 66 227.5t179 97.5q100 0 137 -71h4q5 41 26 63h88zM516 577l-64 -23l-101 220l107 41z
M278 562l-48 -25q-55 48 -55 117q0 55 40 95t106 59l17 -96q-45 -15 -61.5 -34.5t-16.5 -49.5q0 -33 18 -66z" />
    <glyph glyph-name="uni1F04" unicode="&#x1f04;" horiz-adv-x="561" 
d="M245 80q69 0 110 66t41 155q0 47 -24 74t-71 27q-58 0 -101.5 -58.5t-43.5 -163.5q0 -100 89 -100zM541 486l-85 -486h-91q-10 35 -4 71h-6q-57 -79 -156 -79q-158 0 -158 177q0 130 66 227.5t179 97.5q100 0 137 -71h4q5 41 26 63h88zM413 536l-58 31l115 235l94 -42z
M256 542l-39 25q47 53 47 95q0 33 -55 56l52 95q98 -33 98 -112q0 -35 -27.5 -81t-75.5 -78z" />
    <glyph glyph-name="uni1F05" unicode="&#x1f05;" horiz-adv-x="561" 
d="M245 80q69 0 110 66t41 155q0 47 -24 74t-71 27q-58 0 -101.5 -58.5t-43.5 -163.5q0 -100 89 -100zM541 486l-85 -486h-91q-10 35 -4 71h-6q-57 -79 -156 -79q-158 0 -158 177q0 130 66 227.5t179 97.5q100 0 137 -71h4q5 41 26 63h88zM413 537l-58 34l118 231l94 -42z
M314 563l-48 -25q-54 47 -54 118q0 55 40 94.5t105 58.5l17 -95q-45 -16 -61.5 -35.5t-16.5 -49.5q0 -33 18 -66z" />
    <glyph glyph-name="uni1F06" unicode="&#x1f06;" horiz-adv-x="561" 
d="M245 80q69 0 110 66t41 155q0 47 -24 74t-71 27q-58 0 -101.5 -58.5t-43.5 -163.5q0 -100 89 -100zM541 486l-85 -486h-91q-10 35 -4 71h-6q-57 -79 -156 -79q-158 0 -158 177q0 130 66 227.5t179 97.5q100 0 137 -71h4q5 41 26 63h88zM335 532l-42 29q41 38 41 67
q0 23 -49 39l44 78q45 -12 69 -32t24 -58q0 -31 -24 -66t-63 -57zM426 763q-25 0 -67.5 17t-62.5 17q-37 0 -78 -37l-40 37q23 42 56.5 65t68.5 23q21 0 62 -18t65 -18q34 0 75 37l43 -36q-20 -40 -54 -63.5t-68 -23.5z" />
    <glyph glyph-name="uni1F07" unicode="&#x1f07;" horiz-adv-x="561" 
d="M245 80q69 0 110 66t41 155q0 47 -24 74t-71 27q-58 0 -101.5 -58.5t-43.5 -163.5q0 -100 89 -100zM541 486l-85 -486h-91q-10 35 -4 71h-6q-57 -79 -156 -79q-158 0 -158 177q0 130 66 227.5t179 97.5q100 0 137 -71h4q5 41 26 63h88zM382 554l-50 -22q-54 38 -54 93
q0 45 36.5 76.5t102.5 42.5l15 -84q-71 -5 -71 -51q0 -23 21 -55zM457 763q-25 0 -67.5 17t-62.5 17q-37 0 -78 -37l-40 37q23 42 56.5 65t68.5 23q22 0 62 -18t65 -18q34 0 75 37l43 -36q-20 -40 -54 -63.5t-68 -23.5z" />
    <glyph glyph-name="uni1F08" unicode="&#x1f08;" horiz-adv-x="635" 
d="M465 0l-28 163h-260l-84 -163h-125l367 678h122l127 -678h-119zM380 551h-7q-28 -65 -75 -155l-71 -139h195l-22 133q-18 129 -20 161zM45 441l-40 24q47 55 47 95q0 34 -55 56l52 95q98 -32 98 -111q0 -37 -27 -82t-75 -77z" />
    <glyph glyph-name="uni1F09" unicode="&#x1f09;" horiz-adv-x="635" 
d="M465 0l-28 163h-260l-84 -163h-125l367 678h122l127 -678h-119zM380 551h-7q-28 -65 -75 -155l-71 -139h195l-22 133q-18 129 -20 161zM107 468l-48 -24q-28 24 -42 57.5t-12 65.5q3 53 42 91t103 56l17 -95q-43 -14 -59.5 -33t-17.5 -47q-2 -37 17 -71z" />
    <glyph glyph-name="uni1F0A" unicode="&#x1f0a;" horiz-adv-x="635" 
d="M465 0l-28 163h-260l-84 -163h-125l367 678h122l127 -678h-119zM380 551h-7q-28 -65 -75 -155l-71 -139h195l-22 133q-18 129 -20 161zM-115 436l-39 25q48 53 48 96q0 32 -55 54l48 100q101 -38 101 -114q0 -37 -27.5 -82.5t-75.5 -78.5zM168 471l-68 -24l-104 227
l106 43z" />
    <glyph glyph-name="uni1F0B" unicode="&#x1f0b;" horiz-adv-x="635" 
d="M465 0l-28 163h-260l-84 -163h-125l367 678h122l127 -678h-119zM380 551h-7q-28 -65 -75 -155l-71 -139h195l-22 133q-18 129 -20 161zM177 480l-64 -23l-101 220l107 41zM-61 465l-48 -25q-55 48 -55 117q0 55 40 95t106 59l17 -96q-45 -15 -61.5 -34.5t-16.5 -49.5
q0 -33 18 -66z" />
    <glyph glyph-name="uni1F0C" unicode="&#x1f0c;" horiz-adv-x="635" 
d="M465 0l-28 163h-260l-84 -163h-125l367 678h122l127 -678h-119zM380 551h-7q-28 -65 -75 -155l-71 -139h195l-22 133q-18 129 -20 161zM67 435l-58 31l115 235l94 -42zM-90 441l-39 25q47 53 47 95q0 33 -55 56l52 95q98 -33 98 -112q0 -35 -27.5 -81t-75.5 -78z" />
    <glyph glyph-name="uni1F0D" unicode="&#x1f0d;" horiz-adv-x="635" 
d="M465 0l-28 163h-260l-84 -163h-125l367 678h122l127 -678h-119zM380 551h-7q-28 -65 -75 -155l-71 -139h195l-22 133q-18 129 -20 161zM65 439l-58 34l118 231l94 -42zM-34 465l-48 -25q-54 47 -54 118q0 55 40 94.5t105 58.5l17 -95q-45 -16 -61.5 -35.5t-16.5 -49.5
q0 -33 18 -66z" />
    <glyph glyph-name="uni1F0E" unicode="&#x1f0e;" horiz-adv-x="635" 
d="M465 0l-28 163h-260l-84 -163h-125l367 678h122l127 -678h-119zM380 551h-7q-28 -65 -75 -155l-71 -139h195l-22 133q-18 129 -20 161zM2 366l-42 29q41 38 41 67q0 23 -49 39l44 78q45 -12 69 -32t24 -58q0 -31 -24 -66t-63 -57zM93 597q-25 0 -67.5 17t-62.5 17
q-37 0 -78 -37l-40 37q23 42 56.5 65t68.5 23q21 0 61.5 -18t65.5 -18q34 0 75 37l43 -36q-20 -40 -54 -63.5t-68 -23.5z" />
    <glyph glyph-name="uni1F0F" unicode="&#x1f0f;" horiz-adv-x="635" 
d="M465 0l-28 163h-260l-84 -163h-125l367 678h122l127 -678h-119zM380 551h-7q-28 -65 -75 -155l-71 -139h195l-22 133q-18 129 -20 161zM35 380l-50 -22q-54 38 -54 93q0 45 36.5 76.5t102.5 42.5l15 -84q-71 -5 -71 -51q0 -23 21 -55zM110 589q-25 0 -67.5 17t-62.5 17
q-37 0 -78 -37l-40 37q23 42 56.5 65t68.5 23q21 0 61.5 -18t65.5 -18q34 0 75 37l43 -36q-20 -40 -54 -63.5t-68 -23.5z" />
    <glyph glyph-name="uni1F10" unicode="&#x1f10;" horiz-adv-x="473" 
d="M218 -8q-97 0 -144.5 33.5t-47.5 88.5q0 38 22 76t80 57v2q1 2 1 3q-59 23 -59 80q0 70 56 116t156 46q70 0 120 -30.5t51 -92.5q0 -20 -4 -39h-96v7q0 63 -81 63q-37 0 -62 -20t-25 -51q0 -39 52 -39h77l-15 -81h-77q-35 0 -56.5 -22t-21.5 -55q0 -24 21.5 -39t58.5 -15
q104 0 113 90h99v-13q0 -79 -60.5 -122t-157.5 -43zM293 538l-40 24q47 55 47 95q0 34 -55 56l52 95q98 -32 98 -111q0 -37 -27 -82t-75 -77z" />
    <glyph glyph-name="uni1F11" unicode="&#x1f11;" horiz-adv-x="473" 
d="M218 -8q-97 0 -144.5 33.5t-47.5 88.5q0 38 22 76t80 57v2q1 2 1 3q-59 23 -59 80q0 70 56 116t156 46q70 0 120 -30.5t51 -92.5q0 -20 -4 -39h-96v7q0 63 -81 63q-37 0 -62 -20t-25 -51q0 -39 52 -39h77l-15 -81h-77q-35 0 -56.5 -22t-21.5 -55q0 -24 21.5 -39t58.5 -15
q104 0 113 90h99v-13q0 -79 -60.5 -122t-157.5 -43zM342 562l-48 -24q-28 24 -42 57.5t-12 65.5q3 53 42 91t103 56l17 -95q-43 -14 -59.5 -33t-17.5 -47q-2 -37 17 -71z" />
    <glyph glyph-name="uni1F12" unicode="&#x1f12;" horiz-adv-x="473" 
d="M218 -8q-97 0 -144.5 33.5t-47.5 88.5q0 38 22 76t80 57v2q1 2 1 3q-59 23 -59 80q0 70 56 116t156 46q70 0 120 -30.5t51 -92.5q0 -20 -4 -39h-96v7q0 63 -81 63q-37 0 -62 -20t-25 -51q0 -39 52 -39h77l-15 -81h-77q-35 0 -56.5 -22t-21.5 -55q0 -24 21.5 -39t58.5 -15
q104 0 113 90h99v-13q0 -79 -60.5 -122t-157.5 -43zM188 540l-39 25q48 53 48 96q0 32 -55 54l48 100q101 -38 101 -114q0 -37 -27.5 -82.5t-75.5 -78.5zM471 575l-68 -24l-104 227l106 43z" />
    <glyph glyph-name="uni1F13" unicode="&#x1f13;" horiz-adv-x="473" 
d="M218 -8q-97 0 -144.5 33.5t-47.5 88.5q0 38 22 76t80 57v2q1 2 1 3q-59 23 -59 80q0 70 56 116t156 46q70 0 120 -30.5t51 -92.5q0 -20 -4 -39h-96v7q0 63 -81 63q-37 0 -62 -20t-25 -51q0 -39 52 -39h77l-15 -81h-77q-35 0 -56.5 -22t-21.5 -55q0 -24 21.5 -39t58.5 -15
q104 0 113 90h99v-13q0 -79 -60.5 -122t-157.5 -43zM469 577l-64 -23l-101 220l107 41zM231 562l-48 -25q-55 48 -55 117q0 55 40 95t106 59l17 -96q-45 -15 -61.5 -34.5t-16.5 -49.5q0 -33 18 -66z" />
    <glyph glyph-name="uni1F14" unicode="&#x1f14;" horiz-adv-x="473" 
d="M218 -8q-97 0 -144.5 33.5t-47.5 88.5q0 38 22 76t80 57v2q1 2 1 3q-59 23 -59 80q0 70 56 116t156 46q70 0 120 -30.5t51 -92.5q0 -20 -4 -39h-96v7q0 63 -81 63q-37 0 -62 -20t-25 -51q0 -39 52 -39h77l-15 -81h-77q-35 0 -56.5 -22t-21.5 -55q0 -24 21.5 -39t58.5 -15
q104 0 113 90h99v-13q0 -79 -60.5 -122t-157.5 -43zM379 536l-58 31l115 235l94 -42zM222 542l-39 25q47 53 47 95q0 33 -55 56l52 95q98 -33 98 -112q0 -35 -27.5 -81t-75.5 -78z" />
    <glyph glyph-name="uni1F15" unicode="&#x1f15;" horiz-adv-x="473" 
d="M218 -8q-97 0 -144.5 33.5t-47.5 88.5q0 38 22 76t80 57v2q1 2 1 3q-59 23 -59 80q0 70 56 116t156 46q70 0 120 -30.5t51 -92.5q0 -20 -4 -39h-96v7q0 63 -81 63q-37 0 -62 -20t-25 -51q0 -39 52 -39h77l-15 -81h-77q-35 0 -56.5 -22t-21.5 -55q0 -24 21.5 -39t58.5 -15
q104 0 113 90h99v-13q0 -79 -60.5 -122t-157.5 -43zM372 537l-58 34l118 231l94 -42zM273 563l-48 -25q-54 47 -54 118q0 55 40 94.5t105 58.5l17 -95q-45 -16 -61.5 -35.5t-16.5 -49.5q0 -33 18 -66z" />
    <glyph glyph-name="uni1F18" unicode="&#x1f18;" horiz-adv-x="564" 
d="M22 0l119 676h448l-18 -99h-332l-32 -177h309l-18 -100h-308l-35 -200h355l-17 -100h-471zM-72 432l-40 24q47 55 47 95q0 34 -55 56l52 95q98 -32 98 -111q0 -37 -27 -82t-75 -77z" />
    <glyph glyph-name="uni1F19" unicode="&#x1f19;" horiz-adv-x="564" 
d="M22 0l119 676h448l-18 -99h-332l-32 -177h309l-18 -100h-308l-35 -200h355l-17 -100h-471zM-17 460l-48 -24q-28 24 -42 57.5t-12 65.5q3 53 42 91t103 56l17 -95q-43 -14 -59.5 -33t-17.5 -47q-2 -37 17 -71z" />
    <glyph glyph-name="uni1F1A" unicode="&#x1f1a;" horiz-adv-x="564" 
d="M22 0l119 676h448l-18 -99h-332l-32 -177h309l-18 -100h-308l-35 -200h355l-17 -100h-471zM-235 439l-39 25q48 53 48 96q0 32 -55 54l48 100q101 -38 101 -114q0 -37 -27.5 -82.5t-75.5 -78.5zM48 474l-68 -24l-104 227l106 43z" />
    <glyph glyph-name="uni1F1B" unicode="&#x1f1b;" horiz-adv-x="564" 
d="M22 0l119 676h448l-18 -99h-332l-32 -177h309l-18 -100h-308l-35 -200h355l-17 -100h-471zM45 476l-64 -23l-101 220l107 41zM-193 461l-48 -25q-55 48 -55 117q0 55 40 95t106 59l17 -96q-45 -15 -61.5 -34.5t-16.5 -49.5q0 -33 18 -66z" />
    <glyph glyph-name="uni1F1C" unicode="&#x1f1c;" horiz-adv-x="564" 
d="M22 0l119 676h448l-18 -99h-332l-32 -177h309l-18 -100h-308l-35 -200h355l-17 -100h-471zM-81 434l-58 31l115 235l94 -42zM-238 440l-39 25q47 53 47 95q0 33 -55 56l52 95q98 -33 98 -112q0 -35 -27.5 -81t-75.5 -78z" />
    <glyph glyph-name="uni1F1D" unicode="&#x1f1d;" horiz-adv-x="564" 
d="M22 0l119 676h448l-18 -99h-332l-32 -177h309l-18 -100h-308l-35 -200h355l-17 -100h-471zM-80 442l-58 34l118 231l94 -42zM-179 468l-48 -25q-54 47 -54 118q0 55 40 94.5t105 58.5l17 -95q-45 -16 -61.5 -35.5t-16.5 -49.5q0 -33 18 -66z" />
    <glyph glyph-name="uni1F20" unicode="&#x1f20;" horiz-adv-x="545" 
d="M363 493q91 0 121.5 -57t14.5 -150l-76 -436h-115l77 433q9 49 -4.5 83.5t-60.5 34.5q-60 0 -97.5 -43.5t-47.5 -101.5l-46 -256h-114l85 486h91q11 -27 2 -86h4q61 93 166 93zM290 543l-40 24q47 55 47 95q0 34 -55 56l52 95q98 -32 98 -111q0 -37 -27 -82t-75 -77z" />
    <glyph glyph-name="uni1F21" unicode="&#x1f21;" horiz-adv-x="545" 
d="M363 493q91 0 121.5 -57t14.5 -150l-76 -436h-115l77 433q9 49 -4.5 83.5t-60.5 34.5q-60 0 -97.5 -43.5t-47.5 -101.5l-46 -256h-114l85 486h91q11 -27 2 -86h4q61 93 166 93zM350 564l-48 -24q-28 24 -42 57.5t-12 65.5q3 53 42 91t103 56l17 -95q-43 -14 -59.5 -33
t-17.5 -47q-2 -37 17 -71z" />
    <glyph glyph-name="uni1F22" unicode="&#x1f22;" horiz-adv-x="545" 
d="M363 493q91 0 121.5 -57t14.5 -150l-76 -436h-115l77 433q9 49 -4.5 83.5t-60.5 34.5q-60 0 -97.5 -43.5t-47.5 -101.5l-46 -256h-114l85 486h91q11 -27 2 -86h4q61 93 166 93zM207 545l-39 25q48 53 48 96q0 32 -55 54l48 100q101 -38 101 -114q0 -37 -27.5 -82.5
t-75.5 -78.5zM490 580l-68 -24l-104 227l106 43z" />
    <glyph glyph-name="uni1F23" unicode="&#x1f23;" horiz-adv-x="545" 
d="M363 493q91 0 121.5 -57t14.5 -150l-76 -436h-115l77 433q9 49 -4.5 83.5t-60.5 34.5q-60 0 -97.5 -43.5t-47.5 -101.5l-46 -256h-114l85 486h91q11 -27 2 -86h4q61 93 166 93zM489 584l-64 -23l-101 220l107 41zM251 569l-48 -25q-55 48 -55 117q0 55 40 95t106 59
l17 -96q-45 -15 -61.5 -34.5t-16.5 -49.5q0 -33 18 -66z" />
    <glyph glyph-name="uni1F24" unicode="&#x1f24;" horiz-adv-x="545" 
d="M363 493q91 0 121.5 -57t14.5 -150l-76 -436h-115l77 433q9 49 -4.5 83.5t-60.5 34.5q-60 0 -97.5 -43.5t-47.5 -101.5l-46 -256h-114l85 486h91q11 -27 2 -86h4q61 93 166 93zM379 542l-58 31l115 235l94 -42zM222 548l-39 25q47 53 47 95q0 33 -55 56l52 95
q98 -33 98 -112q0 -35 -27.5 -81t-75.5 -78z" />
    <glyph glyph-name="uni1F25" unicode="&#x1f25;" horiz-adv-x="545" 
d="M363 493q91 0 121.5 -57t14.5 -150l-76 -436h-115l77 433q9 49 -4.5 83.5t-60.5 34.5q-60 0 -97.5 -43.5t-47.5 -101.5l-46 -256h-114l85 486h91q11 -27 2 -86h4q61 93 166 93zM373 546l-58 34l118 231l94 -42zM274 572l-48 -25q-54 47 -54 118q0 55 40 94.5t105 58.5
l17 -95q-45 -16 -61.5 -35.5t-16.5 -49.5q0 -33 18 -66z" />
    <glyph glyph-name="uni1F26" unicode="&#x1f26;" horiz-adv-x="545" 
d="M363 493q91 0 121.5 -57t14.5 -150l-76 -436h-115l77 433q9 49 -4.5 83.5t-60.5 34.5q-60 0 -97.5 -43.5t-47.5 -101.5l-46 -256h-114l85 486h91q11 -27 2 -86h4q61 93 166 93zM306 532l-42 29q41 38 41 67q0 23 -49 39l44 78q45 -12 69 -32t24 -58q0 -31 -24 -66
t-63 -57zM397 763q-25 0 -67.5 17t-62.5 17q-37 0 -78 -37l-40 37q23 42 56.5 65t68.5 23q22 0 62 -18t65 -18q34 0 75 37l43 -36q-20 -40 -54 -63.5t-68 -23.5z" />
    <glyph glyph-name="uni1F27" unicode="&#x1f27;" horiz-adv-x="545" 
d="M363 493q91 0 121.5 -57t14.5 -150l-76 -436h-115l77 433q9 49 -4.5 83.5t-60.5 34.5q-60 0 -97.5 -43.5t-47.5 -101.5l-46 -256h-114l85 486h91q11 -27 2 -86h4q61 93 166 93zM337 552l-50 -22q-54 37 -54 93q0 45 36.5 76.5t102.5 42.5l15 -84q-71 -5 -71 -51
q0 -23 21 -55zM412 761q-25 0 -67.5 17t-62.5 17q-37 0 -78 -37l-40 37q23 42 56.5 65t68.5 23q21 0 62 -18t65 -18q34 0 75 37l43 -36q-20 -40 -54 -63.5t-68 -23.5z" />
    <glyph glyph-name="uni1F28" unicode="&#x1f28;" horiz-adv-x="673" 
d="M455 0l53 303h-318l-52 -303h-116l119 676h116l-50 -276h318l49 276h116l-119 -676h-116zM-72 445l-40 24q47 55 47 95q0 34 -55 56l52 95q98 -32 98 -111q0 -37 -27 -82t-75 -77z" />
    <glyph glyph-name="uni1F29" unicode="&#x1f29;" horiz-adv-x="673" 
d="M455 0l53 303h-318l-52 -303h-116l119 676h116l-50 -276h318l49 276h116l-119 -676h-116zM-13 470l-48 -24q-28 24 -42 57.5t-12 65.5q3 53 42 91t103 56l17 -95q-43 -14 -59.5 -33t-17.5 -47q-2 -37 17 -71z" />
    <glyph glyph-name="uni1F2A" unicode="&#x1f2a;" horiz-adv-x="673" 
d="M455 0l53 303h-318l-52 -303h-116l119 676h116l-50 -276h318l49 276h116l-119 -676h-116zM-229 432l-39 25q48 53 48 96q0 32 -55 54l48 100q101 -38 101 -114q0 -37 -27.5 -82.5t-75.5 -78.5zM54 467l-68 -24l-104 227l106 43z" />
    <glyph glyph-name="uni1F2B" unicode="&#x1f2b;" horiz-adv-x="673" 
d="M455 0l53 303h-318l-52 -303h-116l119 676h116l-50 -276h318l49 276h116l-119 -676h-116zM51 479l-64 -23l-101 220l107 41zM-187 464l-48 -25q-55 48 -55 117q0 55 40 95t106 59l17 -96q-45 -15 -61.5 -34.5t-16.5 -49.5q0 -33 18 -66z" />
    <glyph glyph-name="uni1F2C" unicode="&#x1f2c;" horiz-adv-x="673" 
d="M455 0l53 303h-318l-52 -303h-116l119 676h116l-50 -276h318l49 276h116l-119 -676h-116zM-79 436l-58 31l115 235l94 -42zM-236 442l-39 25q47 53 47 95q0 33 -55 56l52 95q98 -33 98 -112q0 -35 -27.5 -81t-75.5 -78z" />
    <glyph glyph-name="uni1F2D" unicode="&#x1f2d;" horiz-adv-x="673" 
d="M455 0l53 303h-318l-52 -303h-116l119 676h116l-50 -276h318l49 276h116l-119 -676h-116zM-83 436l-58 34l118 231l94 -42zM-182 462l-48 -25q-54 47 -54 118q0 55 40 94.5t105 58.5l17 -95q-45 -16 -61.5 -35.5t-16.5 -49.5q0 -33 18 -66z" />
    <glyph glyph-name="uni1F2E" unicode="&#x1f2e;" horiz-adv-x="673" 
d="M455 0l53 303h-318l-52 -303h-116l119 676h116l-50 -276h318l49 276h116l-119 -676h-116zM-133 376l-42 29q41 38 41 67q0 23 -49 39l44 78q45 -12 69 -32t24 -58q0 -31 -24 -66t-63 -57zM-42 607q-25 0 -67.5 17t-62.5 17q-37 0 -78 -37l-40 37q23 42 56.5 65t68.5 23
q21 0 61.5 -18t65.5 -18q34 0 75 37l43 -36q-20 -40 -54 -63.5t-68 -23.5z" />
    <glyph glyph-name="uni1F2F" unicode="&#x1f2f;" horiz-adv-x="673" 
d="M455 0l53 303h-318l-52 -303h-116l119 676h116l-50 -276h318l49 276h116l-119 -676h-116zM-107 391l-50 -22q-54 37 -54 93q0 45 36.5 76.5t102.5 42.5l15 -84q-71 -5 -71 -51q0 -24 21 -55zM-32 600q-25 0 -67.5 17t-62.5 17q-37 0 -78 -37l-40 37q23 42 56.5 65
t68.5 23q21 0 62 -18t65 -18q34 0 75 37l43 -36q-20 -40 -54 -63.5t-68 -23.5z" />
    <glyph glyph-name="uni1F30" unicode="&#x1f30;" horiz-adv-x="286" 
d="M124 485h114l-65 -349q-5 -28 7.5 -37.5t45.5 -11.5l-10 -88q-29 -5 -61 -5q-122 0 -98 132zM186 538l-40 24q47 55 47 95q0 34 -55 56l52 95q98 -32 98 -111q0 -37 -27 -82t-75 -77z" />
    <glyph glyph-name="uni1F31" unicode="&#x1f31;" horiz-adv-x="286" 
d="M124 485h114l-65 -349q-5 -28 7.5 -37.5t45.5 -11.5l-10 -88q-29 -5 -61 -5q-122 0 -98 132zM228 562l-48 -24q-28 24 -42 57.5t-12 65.5q3 53 42 91t103 56l17 -95q-43 -14 -59.5 -33t-17.5 -47q-2 -37 17 -71z" />
    <glyph glyph-name="uni1F32" unicode="&#x1f32;" horiz-adv-x="286" 
d="M124 485h114l-65 -349q-5 -28 7.5 -37.5t45.5 -11.5l-10 -88q-29 -5 -61 -5q-122 0 -98 132zM82 540l-39 25q48 53 48 96q0 32 -55 54l48 100q101 -38 101 -114q0 -37 -27.5 -82.5t-75.5 -78.5zM365 575l-68 -24l-104 227l106 43z" />
    <glyph glyph-name="uni1F33" unicode="&#x1f33;" horiz-adv-x="286" 
d="M124 485h114l-65 -349q-5 -28 7.5 -37.5t45.5 -11.5l-10 -88q-29 -5 -61 -5q-122 0 -98 132zM364 579l-64 -23l-101 220l107 41zM126 564l-48 -25q-55 48 -55 117q0 55 40 95t106 59l17 -96q-45 -15 -61.5 -34.5t-16.5 -49.5q0 -33 18 -66z" />
    <glyph glyph-name="uni1F34" unicode="&#x1f34;" horiz-adv-x="286" 
d="M124 485h114l-65 -349q-5 -28 7.5 -37.5t45.5 -11.5l-10 -88q-29 -5 -61 -5q-122 0 -98 132zM281 536l-58 31l115 235l94 -42zM124 542l-39 25q47 53 47 95q0 33 -55 56l52 95q98 -33 98 -112q0 -35 -27.5 -81t-75.5 -78z" />
    <glyph glyph-name="uni1F35" unicode="&#x1f35;" horiz-adv-x="286" 
d="M124 485h114l-65 -349q-5 -28 7.5 -37.5t45.5 -11.5l-10 -88q-29 -5 -61 -5q-122 0 -98 132zM260 537l-58 34l118 231l94 -42zM161 563l-48 -25q-54 47 -54 118q0 55 40 94.5t105 58.5l17 -95q-45 -16 -61.5 -35.5t-16.5 -49.5q0 -33 18 -66z" />
    <glyph glyph-name="uni1F36" unicode="&#x1f36;" horiz-adv-x="286" 
d="M124 485h114l-65 -349q-5 -28 7.5 -37.5t45.5 -11.5l-10 -88q-29 -5 -61 -5q-122 0 -98 132zM194 532l-42 29q41 38 41 67q0 23 -49 39l44 78q45 -12 69 -32t24 -58q0 -31 -24 -66t-63 -57zM285 763q-25 0 -67.5 17t-62.5 17q-37 0 -78 -37l-40 37q23 42 56.5 65t68.5 23
q21 0 61.5 -18t65.5 -18q34 0 75 37l43 -36q-20 -40 -54 -63.5t-68 -23.5z" />
    <glyph glyph-name="uni1F37" unicode="&#x1f37;" horiz-adv-x="286" 
d="M124 485h114l-65 -349q-5 -28 7.5 -37.5t45.5 -11.5l-10 -88q-29 -5 -61 -5q-122 0 -98 132zM222 554l-50 -22q-54 38 -54 93q0 45 36.5 76.5t102.5 42.5l15 -84q-71 -5 -71 -51q0 -23 21 -55zM297 763q-25 0 -67.5 17t-62.5 17q-37 0 -78 -37l-40 37q23 42 56.5 65
t68.5 23q22 0 62 -18t65 -18q34 0 75 37l43 -36q-20 -40 -54 -63.5t-68 -23.5z" />
    <glyph glyph-name="uni1F38" unicode="&#x1f38;" horiz-adv-x="274" 
d="M38 0l119 676h118l-119 -676h-118zM-50 445l-40 24q47 55 47 95q0 34 -55 56l52 95q98 -32 98 -111q0 -37 -27 -82t-75 -77z" />
    <glyph glyph-name="uni1F39" unicode="&#x1f39;" horiz-adv-x="274" 
d="M38 0l119 676h118l-119 -676h-118zM8 469l-48 -24q-28 24 -42 57.5t-12 65.5q3 53 42 91t103 56l17 -95q-43 -14 -59.5 -33t-17.5 -47q-2 -37 17 -71z" />
    <glyph glyph-name="uni1F3A" unicode="&#x1f3a;" horiz-adv-x="274" 
d="M38 0l119 676h118l-119 -676h-118zM-205 433l-39 25q48 53 48 96q0 32 -55 54l48 100q101 -38 101 -114q0 -37 -27.5 -82.5t-75.5 -78.5zM78 468l-68 -24l-104 227l106 43z" />
    <glyph glyph-name="uni1F3B" unicode="&#x1f3b;" horiz-adv-x="274" 
d="M38 0l119 676h118l-119 -676h-118zM71 478l-64 -23l-101 220l107 41zM-167 463l-48 -25q-55 48 -55 117q0 55 40 95t106 59l17 -96q-45 -15 -61.5 -34.5t-16.5 -49.5q0 -33 18 -66z" />
    <glyph glyph-name="uni1F3C" unicode="&#x1f3c;" horiz-adv-x="274" 
d="M38 0l119 676h118l-119 -676h-118zM-51 435l-58 31l115 235l94 -42zM-208 441l-39 25q47 53 47 95q0 33 -55 56l52 95q98 -33 98 -112q0 -35 -27.5 -81t-75.5 -78z" />
    <glyph glyph-name="uni1F3D" unicode="&#x1f3d;" horiz-adv-x="274" 
d="M38 0l119 676h118l-119 -676h-118zM-47 434l-58 34l118 231l94 -42zM-146 460l-48 -25q-54 47 -54 118q0 55 40 94.5t105 58.5l17 -95q-45 -16 -61.5 -35.5t-16.5 -49.5q0 -33 18 -66z" />
    <glyph glyph-name="uni1F3E" unicode="&#x1f3e;" horiz-adv-x="274" 
d="M38 0l119 676h118l-119 -676h-118zM-99 377l-42 29q41 38 41 67q0 23 -49 39l44 78q45 -12 69 -32t24 -58q0 -31 -24 -66t-63 -57zM-8 608q-25 0 -67.5 17t-62.5 17q-37 0 -78 -37l-40 37q23 42 56.5 65t68.5 23q21 0 62 -18t65 -18q34 0 75 37l43 -36q-20 -40 -54 -63.5
t-68 -23.5z" />
    <glyph glyph-name="uni1F3F" unicode="&#x1f3f;" horiz-adv-x="274" 
d="M38 0l119 676h118l-119 -676h-118zM-73 387l-50 -22q-54 38 -54 93q0 45 36.5 76.5t102.5 42.5l15 -84q-71 -5 -71 -51q0 -24 21 -55zM2 596q-25 0 -67.5 17t-62.5 17q-37 0 -78 -37l-40 37q23 42 56.5 65t68.5 23q21 0 62 -18t65 -18q34 0 75 37l43 -36
q-20 -40 -54 -63.5t-68 -23.5z" />
    <glyph glyph-name="uni1F40" unicode="&#x1f40;" horiz-adv-x="557" 
d="M316 494q105 0 152.5 -54.5t47.5 -142.5q0 -54 -14 -105t-43.5 -97.5t-84 -74.5t-126.5 -28q-203 0 -203 188q0 135 70 224.5t201 89.5zM307 404q-72 0 -110.5 -63t-38.5 -154q0 -108 99 -108q62 0 103.5 58t41.5 159q0 108 -95 108zM330 538l-40 24q47 55 47 95
q0 34 -55 56l52 95q98 -32 98 -111q0 -37 -27 -82t-75 -77z" />
    <glyph glyph-name="uni1F41" unicode="&#x1f41;" horiz-adv-x="557" 
d="M316 494q105 0 152.5 -54.5t47.5 -142.5q0 -54 -14 -105t-43.5 -97.5t-84 -74.5t-126.5 -28q-203 0 -203 188q0 135 70 224.5t201 89.5zM307 404q-72 0 -110.5 -63t-38.5 -154q0 -108 99 -108q62 0 103.5 58t41.5 159q0 108 -95 108zM382 562l-48 -24q-28 24 -42 57.5
t-12 65.5q3 53 42 91t103 56l17 -95q-43 -14 -59.5 -33t-17.5 -47q-2 -37 17 -71z" />
    <glyph glyph-name="uni1F42" unicode="&#x1f42;" horiz-adv-x="557" 
d="M316 494q105 0 152.5 -54.5t47.5 -142.5q0 -54 -14 -105t-43.5 -97.5t-84 -74.5t-126.5 -28q-203 0 -203 188q0 135 70 224.5t201 89.5zM307 404q-72 0 -110.5 -63t-38.5 -154q0 -108 99 -108q62 0 103.5 58t41.5 159q0 108 -95 108zM232 540l-39 25q48 53 48 96
q0 32 -55 54l48 100q101 -38 101 -114q0 -37 -27.5 -82.5t-75.5 -78.5zM515 575l-68 -24l-104 227l106 43z" />
    <glyph glyph-name="uni1F43" unicode="&#x1f43;" horiz-adv-x="557" 
d="M316 494q105 0 152.5 -54.5t47.5 -142.5q0 -54 -14 -105t-43.5 -97.5t-84 -74.5t-126.5 -28q-203 0 -203 188q0 135 70 224.5t201 89.5zM307 404q-72 0 -110.5 -63t-38.5 -154q0 -108 99 -108q62 0 103.5 58t41.5 159q0 108 -95 108zM520 577l-64 -23l-101 220l107 41z
M282 562l-48 -25q-55 48 -55 117q0 55 40 95t106 59l17 -96q-45 -15 -61.5 -34.5t-16.5 -49.5q0 -33 18 -66z" />
    <glyph glyph-name="uni1F44" unicode="&#x1f44;" horiz-adv-x="557" 
d="M316 494q105 0 152.5 -54.5t47.5 -142.5q0 -54 -14 -105t-43.5 -97.5t-84 -74.5t-126.5 -28q-203 0 -203 188q0 135 70 224.5t201 89.5zM307 404q-72 0 -110.5 -63t-38.5 -154q0 -108 99 -108q62 0 103.5 58t41.5 159q0 108 -95 108zM424 536l-58 31l115 235l94 -42z
M267 542l-39 25q47 53 47 95q0 33 -55 56l52 95q98 -33 98 -112q0 -35 -27.5 -81t-75.5 -78z" />
    <glyph glyph-name="uni1F45" unicode="&#x1f45;" horiz-adv-x="557" 
d="M316 494q105 0 152.5 -54.5t47.5 -142.5q0 -54 -14 -105t-43.5 -97.5t-84 -74.5t-126.5 -28q-203 0 -203 188q0 135 70 224.5t201 89.5zM307 404q-72 0 -110.5 -63t-38.5 -154q0 -108 99 -108q62 0 103.5 58t41.5 159q0 108 -95 108zM422 537l-58 34l118 231l94 -42z
M323 563l-48 -25q-54 47 -54 118q0 55 40 94.5t105 58.5l17 -95q-45 -16 -61.5 -35.5t-16.5 -49.5q0 -33 18 -66z" />
    <glyph glyph-name="uni1F48" unicode="&#x1f48;" horiz-adv-x="703" 
d="M429 683q128 0 187 -70t59 -185q0 -62 -10.5 -120.5t-37 -116.5t-66 -101.5t-103 -70.5t-142.5 -27q-133 0 -194 64t-61 177q0 199 97 324.5t271 125.5zM416 584q-61 0 -108.5 -31.5t-74 -82.5t-39.5 -107.5t-13 -114.5q0 -81 35 -120t113 -39q96 0 162 91t66 239
q0 165 -141 165zM-50 441l-40 24q47 55 47 95q0 34 -55 56l52 95q98 -32 98 -111q0 -37 -27 -82t-75 -77z" />
    <glyph glyph-name="uni1F49" unicode="&#x1f49;" horiz-adv-x="703" 
d="M429 683q128 0 187 -70t59 -185q0 -62 -10.5 -120.5t-37 -116.5t-66 -101.5t-103 -70.5t-142.5 -27q-133 0 -194 64t-61 177q0 199 97 324.5t271 125.5zM416 584q-61 0 -108.5 -31.5t-74 -82.5t-39.5 -107.5t-13 -114.5q0 -81 35 -120t113 -39q96 0 162 91t66 239
q0 165 -141 165zM17 465l-48 -24q-28 24 -42 57.5t-12 65.5q3 53 42 91t103 56l17 -95q-43 -14 -59.5 -33t-17.5 -47q-2 -37 17 -71z" />
    <glyph glyph-name="uni1F4A" unicode="&#x1f4a;" horiz-adv-x="703" 
d="M429 683q128 0 187 -70t59 -185q0 -62 -10.5 -120.5t-37 -116.5t-66 -101.5t-103 -70.5t-142.5 -27q-133 0 -194 64t-61 177q0 199 97 324.5t271 125.5zM416 584q-61 0 -108.5 -31.5t-74 -82.5t-39.5 -107.5t-13 -114.5q0 -81 35 -120t113 -39q96 0 162 91t66 239
q0 165 -141 165zM-219 429l-39 25q48 53 48 96q0 32 -55 54l48 100q101 -38 101 -114q0 -37 -27.5 -82.5t-75.5 -78.5zM64 464l-68 -24l-104 227l106 43z" />
    <glyph glyph-name="uni1F4B" unicode="&#x1f4b;" horiz-adv-x="703" 
d="M429 683q128 0 187 -70t59 -185q0 -62 -10.5 -120.5t-37 -116.5t-66 -101.5t-103 -70.5t-142.5 -27q-133 0 -194 64t-61 177q0 199 97 324.5t271 125.5zM416 584q-61 0 -108.5 -31.5t-74 -82.5t-39.5 -107.5t-13 -114.5q0 -81 35 -120t113 -39q96 0 162 91t66 239
q0 165 -141 165zM59 477l-64 -23l-101 220l107 41zM-179 462l-48 -25q-55 48 -55 117q0 55 40 95t106 59l17 -96q-45 -15 -61.5 -34.5t-16.5 -49.5q0 -33 18 -66z" />
    <glyph glyph-name="uni1F4C" unicode="&#x1f4c;" horiz-adv-x="703" 
d="M429 683q128 0 187 -70t59 -185q0 -62 -10.5 -120.5t-37 -116.5t-66 -101.5t-103 -70.5t-142.5 -27q-133 0 -194 64t-61 177q0 199 97 324.5t271 125.5zM416 584q-61 0 -108.5 -31.5t-74 -82.5t-39.5 -107.5t-13 -114.5q0 -81 35 -120t113 -39q96 0 162 91t66 239
q0 165 -141 165zM-37 436l-58 31l115 235l94 -42zM-194 442l-39 25q47 53 47 95q0 33 -55 56l52 95q98 -33 98 -112q0 -35 -27.5 -81t-75.5 -78z" />
    <glyph glyph-name="uni1F4D" unicode="&#x1f4d;" horiz-adv-x="703" 
d="M429 683q128 0 187 -70t59 -185q0 -62 -10.5 -120.5t-37 -116.5t-66 -101.5t-103 -70.5t-142.5 -27q-133 0 -194 64t-61 177q0 199 97 324.5t271 125.5zM416 584q-61 0 -108.5 -31.5t-74 -82.5t-39.5 -107.5t-13 -114.5q0 -81 35 -120t113 -39q96 0 162 91t66 239
q0 165 -141 165zM-33 436l-58 34l118 231l94 -42zM-132 462l-48 -25q-54 47 -54 118q0 55 40 94.5t105 58.5l17 -95q-45 -16 -61.5 -35.5t-16.5 -49.5q0 -33 18 -66z" />
    <glyph glyph-name="uni1F50" unicode="&#x1f50;" horiz-adv-x="535" 
d="M314 538l-40 24q47 55 47 95q0 34 -55 56l52 95q98 -32 98 -111q0 -37 -27 -82t-75 -77zM525 486l-53 -295q-36 -198 -244 -198q-101 0 -148 55.5t-30 154.5l50 283h115l-51 -289q-21 -115 77 -115q101 0 120 115l51 289h113z" />
    <glyph glyph-name="uni1F51" unicode="&#x1f51;" horiz-adv-x="535" 
d="M360 562l-48 -24q-28 24 -42 57.5t-12 65.5q3 53 42 91t103 56l17 -95q-43 -14 -59.5 -33t-17.5 -47q-2 -37 17 -71zM525 486l-53 -295q-36 -198 -244 -198q-101 0 -148 55.5t-30 154.5l50 283h115l-51 -289q-21 -115 77 -115q101 0 120 115l51 289h113z" />
    <glyph glyph-name="uni1F52" unicode="&#x1f52;" horiz-adv-x="535" 
d="M218 540l-39 25q48 53 48 96q0 32 -55 54l48 100q101 -38 101 -114q0 -37 -27.5 -82.5t-75.5 -78.5zM501 575l-68 -24l-104 227l106 43zM525 486l-53 -295q-36 -198 -244 -198q-101 0 -148 55.5t-30 154.5l50 283h115l-51 -289q-21 -115 77 -115q101 0 120 115l51 289
h113z" />
    <glyph glyph-name="uni1F53" unicode="&#x1f53;" horiz-adv-x="535" 
d="M500 577l-64 -23l-101 220l107 41zM262 562l-48 -25q-55 48 -55 117q0 55 40 95t106 59l17 -96q-45 -15 -61.5 -34.5t-16.5 -49.5q0 -33 18 -66zM525 486l-53 -295q-36 -198 -244 -198q-101 0 -148 55.5t-30 154.5l50 283h115l-51 -289q-21 -115 77 -115q101 0 120 115
l51 289h113z" />
    <glyph glyph-name="uni1F54" unicode="&#x1f54;" horiz-adv-x="535" 
d="M390 536l-58 31l115 235l94 -42zM233 542l-39 25q47 53 47 95q0 33 -55 56l52 95q98 -33 98 -112q0 -35 -27.5 -81t-75.5 -78zM525 486l-53 -295q-36 -198 -244 -198q-101 0 -148 55.5t-30 154.5l50 283h115l-51 -289q-21 -115 77 -115q101 0 120 115l51 289h113z" />
    <glyph glyph-name="uni1F55" unicode="&#x1f55;" horiz-adv-x="535" 
d="M389 537l-58 34l118 231l94 -42zM290 563l-48 -25q-54 47 -54 118q0 55 40 94.5t105 58.5l17 -95q-45 -16 -61.5 -35.5t-16.5 -49.5q0 -33 18 -66zM525 486l-53 -295q-36 -198 -244 -198q-101 0 -148 55.5t-30 154.5l50 283h115l-51 -289q-21 -115 77 -115q101 0 120 115
l51 289h113z" />
    <glyph glyph-name="uni1F56" unicode="&#x1f56;" horiz-adv-x="535" 
d="M324 521l-42 29q41 38 41 67q0 23 -49 39l44 78q45 -12 69 -32t24 -58q0 -31 -24 -66t-63 -57zM415 752q-25 0 -67.5 17t-62.5 17q-37 0 -78 -37l-40 37q23 42 56.5 65t68.5 23q22 0 62 -18t65 -18q34 0 75 37l43 -36q-20 -40 -54 -63.5t-68 -23.5zM525 486l-53 -295
q-36 -198 -244 -198q-101 0 -148 55.5t-30 154.5l50 283h115l-51 -289q-21 -115 77 -115q101 0 120 115l51 289h113z" />
    <glyph glyph-name="uni1F57" unicode="&#x1f57;" horiz-adv-x="535" 
d="M360 545l-50 -22q-54 37 -54 93q0 45 36.5 76.5t102.5 42.5l15 -84q-71 -5 -71 -51q0 -24 21 -55zM435 754q-25 0 -67.5 17t-62.5 17q-37 0 -78 -37l-40 37q23 42 56.5 65t68.5 23q21 0 61.5 -18t65.5 -18q34 0 75 37l43 -36q-20 -40 -54 -63.5t-68 -23.5zM525 486
l-53 -295q-36 -198 -244 -198q-101 0 -148 55.5t-30 154.5l50 283h115l-51 -289q-21 -115 77 -115q101 0 120 115l51 289h113z" />
    <glyph glyph-name="uni1F59" unicode="&#x1f59;" horiz-adv-x="586" 
d="M306 360h8q47 86 109 174l99 141h129l-301 -425l-44 -250h-116q15 83 43 249l-147 426h124l54 -160q28 -84 42 -155zM-10 464l-48 -24q-28 24 -42 57.5t-12 65.5q3 53 42 91t103 56l17 -95q-43 -14 -59.5 -33t-17.5 -47q-2 -37 17 -71z" />
    <glyph glyph-name="uni1F5B" unicode="&#x1f5b;" horiz-adv-x="586" 
d="M306 360h8q47 86 109 174l99 141h129l-301 -425l-44 -250h-116q15 83 43 249l-147 426h124l54 -160q28 -84 42 -155zM64 474l-64 -23l-101 220l107 41zM-174 459l-48 -25q-55 48 -55 117q0 55 40 95t106 59l17 -96q-45 -15 -61.5 -34.5t-16.5 -49.5q0 -33 18 -66z" />
    <glyph glyph-name="uni1F5D" unicode="&#x1f5d;" horiz-adv-x="586" 
d="M306 360h8q47 86 109 174l99 141h129l-301 -425l-44 -250h-116q15 83 43 249l-147 426h124l54 -160q28 -84 42 -155zM-99 439l-58 34l118 231l94 -42zM-198 465l-48 -25q-54 47 -54 118q0 55 40 94.5t105 58.5l17 -95q-45 -16 -61.5 -35.5t-16.5 -49.5q0 -33 18 -66z" />
    <glyph glyph-name="uni1F5F" unicode="&#x1f5f;" horiz-adv-x="586" 
d="M306 360h8q47 86 109 174l99 141h129l-301 -425l-44 -250h-116q15 83 43 249l-147 426h124l54 -160q28 -84 42 -155zM-141 378l-50 -22q-54 38 -54 93q0 45 36.5 76.5t102.5 42.5l15 -84q-71 -5 -71 -51q0 -23 21 -55zM-66 587q-25 0 -67.5 17t-62.5 17q-37 0 -78 -37
l-40 37q23 42 56.5 65t68.5 23q21 0 62 -18t65 -18q34 0 75 37l43 -36q-20 -40 -54 -63.5t-68 -23.5z" />
    <glyph glyph-name="uni1F60" unicode="&#x1f60;" horiz-adv-x="770" 
d="M729 309q0 -56 -13 -108.5t-40.5 -101t-78 -77.5t-117.5 -29q-44 0 -79 20t-47 56h-6q-59 -76 -155 -76q-153 0 -153 167q0 147 69 240t204 93l-10 -91q-73 -2 -112 -69t-39 -168q0 -77 63 -77q44 0 75.5 33.5t39.5 86.5l19 119h104l-24 -138q-19 -106 59 -106
q58 0 93.5 63t35.5 156q0 41 -21.5 69.5t-72.5 31.5l9 90q105 -1 151 -53t46 -131zM427 533l-40 24q47 55 47 95q0 34 -55 56l52 95q98 -32 98 -111q0 -37 -27 -82t-75 -77z" />
    <glyph glyph-name="uni1F61" unicode="&#x1f61;" horiz-adv-x="770" 
d="M729 309q0 -56 -13 -108.5t-40.5 -101t-78 -77.5t-117.5 -29q-44 0 -79 20t-47 56h-6q-59 -76 -155 -76q-153 0 -153 167q0 147 69 240t204 93l-10 -91q-73 -2 -112 -69t-39 -168q0 -77 63 -77q44 0 75.5 33.5t39.5 86.5l19 119h104l-24 -138q-19 -106 59 -106
q58 0 93.5 63t35.5 156q0 41 -21.5 69.5t-72.5 31.5l9 90q105 -1 151 -53t46 -131zM483 556l-48 -24q-28 24 -42 57.5t-12 65.5q3 53 42 91t103 56l17 -95q-43 -14 -59.5 -33t-17.5 -47q-2 -37 17 -71z" />
    <glyph glyph-name="uni1F62" unicode="&#x1f62;" horiz-adv-x="770" 
d="M729 309q0 -56 -13 -108.5t-40.5 -101t-78 -77.5t-117.5 -29q-44 0 -79 20t-47 56h-6q-59 -76 -155 -76q-153 0 -153 167q0 147 69 240t204 93l-10 -91q-73 -2 -112 -69t-39 -168q0 -77 63 -77q44 0 75.5 33.5t39.5 86.5l19 119h104l-24 -138q-19 -106 59 -106
q58 0 93.5 63t35.5 156q0 41 -21.5 69.5t-72.5 31.5l9 90q105 -1 151 -53t46 -131zM326 540l-39 25q48 53 48 96q0 32 -55 54l48 100q101 -38 101 -114q0 -37 -27.5 -82.5t-75.5 -78.5zM609 575l-68 -24l-104 227l106 43z" />
    <glyph glyph-name="uni1F63" unicode="&#x1f63;" horiz-adv-x="770" 
d="M729 309q0 -56 -13 -108.5t-40.5 -101t-78 -77.5t-117.5 -29q-44 0 -79 20t-47 56h-6q-59 -76 -155 -76q-153 0 -153 167q0 147 69 240t204 93l-10 -91q-73 -2 -112 -69t-39 -168q0 -77 63 -77q44 0 75.5 33.5t39.5 86.5l19 119h104l-24 -138q-19 -106 59 -106
q58 0 93.5 63t35.5 156q0 41 -21.5 69.5t-72.5 31.5l9 90q105 -1 151 -53t46 -131zM624 577l-64 -23l-101 220l107 41zM386 562l-48 -25q-55 48 -55 117q0 55 40 95t106 59l17 -96q-45 -15 -61.5 -34.5t-16.5 -49.5q0 -33 18 -66z" />
    <glyph glyph-name="uni1F64" unicode="&#x1f64;" horiz-adv-x="770" 
d="M729 309q0 -56 -13 -108.5t-40.5 -101t-78 -77.5t-117.5 -29q-44 0 -79 20t-47 56h-6q-59 -76 -155 -76q-153 0 -153 167q0 147 69 240t204 93l-10 -91q-73 -2 -112 -69t-39 -168q0 -77 63 -77q44 0 75.5 33.5t39.5 86.5l19 119h104l-24 -138q-19 -106 59 -106
q58 0 93.5 63t35.5 156q0 41 -21.5 69.5t-72.5 31.5l9 90q105 -1 151 -53t46 -131zM496 536l-58 31l115 235l94 -42zM339 542l-39 25q47 53 47 95q0 33 -55 56l52 95q98 -33 98 -112q0 -35 -27.5 -81t-75.5 -78z" />
    <glyph glyph-name="uni1F65" unicode="&#x1f65;" horiz-adv-x="770" 
d="M729 309q0 -56 -13 -108.5t-40.5 -101t-78 -77.5t-117.5 -29q-44 0 -79 20t-47 56h-6q-59 -76 -155 -76q-153 0 -153 167q0 147 69 240t204 93l-10 -91q-73 -2 -112 -69t-39 -168q0 -77 63 -77q44 0 75.5 33.5t39.5 86.5l19 119h104l-24 -138q-19 -106 59 -106
q58 0 93.5 63t35.5 156q0 41 -21.5 69.5t-72.5 31.5l9 90q105 -1 151 -53t46 -131zM490 537l-58 34l118 231l94 -42zM391 563l-48 -25q-54 47 -54 118q0 55 40 94.5t105 58.5l17 -95q-45 -16 -61.5 -35.5t-16.5 -49.5q0 -33 18 -66z" />
    <glyph glyph-name="uni1F66" unicode="&#x1f66;" horiz-adv-x="770" 
d="M729 309q0 -56 -13 -108.5t-40.5 -101t-78 -77.5t-117.5 -29q-44 0 -79 20t-47 56h-6q-59 -76 -155 -76q-153 0 -153 167q0 147 69 240t204 93l-10 -91q-73 -2 -112 -69t-39 -168q0 -77 63 -77q44 0 75.5 33.5t39.5 86.5l19 119h104l-24 -138q-19 -106 59 -106
q58 0 93.5 63t35.5 156q0 41 -21.5 69.5t-72.5 31.5l9 90q105 -1 151 -53t46 -131zM444 517l-42 29q41 38 41 67q0 23 -49 39l44 78q45 -12 69 -32t24 -58q0 -31 -24 -66t-63 -57zM535 748q-25 0 -67.5 17t-62.5 17q-37 0 -78 -37l-40 37q23 42 56.5 65t68.5 23q22 0 62 -18
t65 -18q34 0 75 37l43 -36q-20 -40 -54 -63.5t-68 -23.5z" />
    <glyph glyph-name="uni1F67" unicode="&#x1f67;" horiz-adv-x="770" 
d="M729 309q0 -56 -13 -108.5t-40.5 -101t-78 -77.5t-117.5 -29q-44 0 -79 20t-47 56h-6q-59 -76 -155 -76q-153 0 -153 167q0 147 69 240t204 93l-10 -91q-73 -2 -112 -69t-39 -168q0 -77 63 -77q44 0 75.5 33.5t39.5 86.5l19 119h104l-24 -138q-19 -106 59 -106
q58 0 93.5 63t35.5 156q0 41 -21.5 69.5t-72.5 31.5l9 90q105 -1 151 -53t46 -131zM474 535l-50 -22q-54 37 -54 93q0 45 36.5 76.5t102.5 42.5l15 -84q-71 -5 -71 -51q0 -24 21 -55zM549 744q-25 0 -67.5 17t-62.5 17q-37 0 -78 -37l-40 37q23 42 56.5 65t68.5 23
q22 0 62 -18t65 -18q34 0 75 37l43 -36q-20 -40 -54 -63.5t-68 -23.5z" />
    <glyph glyph-name="uni1F68" unicode="&#x1f68;" horiz-adv-x="718" 
d="M419 584q-102 0 -167.5 -85.5t-65.5 -230.5q0 -134 96 -167l-18 -101h-253l17 98h96q0 2 2 4q-59 56 -59 177q0 77 24 148.5t68.5 129.5t115 92.5t156.5 34.5q131 0 195.5 -74.5t64.5 -190.5q0 -86 -35 -175.5t-109 -141.5l3 -4h104l-17 -98h-266q13 73 17 101
q68 19 125.5 107.5t57.5 210.5q0 79 -39 122t-113 43zM-46 446l-40 24q47 55 47 95q0 34 -55 56l52 95q98 -32 98 -111q0 -37 -27 -82t-75 -77z" />
    <glyph glyph-name="uni1F69" unicode="&#x1f69;" horiz-adv-x="718" 
d="M419 584q-102 0 -167.5 -85.5t-65.5 -230.5q0 -134 96 -167l-18 -101h-253l17 98h96q0 2 2 4q-59 56 -59 177q0 77 24 148.5t68.5 129.5t115 92.5t156.5 34.5q131 0 195.5 -74.5t64.5 -190.5q0 -86 -35 -175.5t-109 -141.5l3 -4h104l-17 -98h-266q13 73 17 101
q68 19 125.5 107.5t57.5 210.5q0 79 -39 122t-113 43zM15 470l-48 -24q-28 24 -42 57.5t-12 65.5q3 53 42 91t103 56l17 -95q-43 -14 -59.5 -33t-17.5 -47q-2 -37 17 -71z" />
    <glyph glyph-name="uni1F6A" unicode="&#x1f6a;" horiz-adv-x="718" 
d="M419 584q-102 0 -167.5 -85.5t-65.5 -230.5q0 -134 96 -167l-18 -101h-253l17 98h96q0 2 2 4q-59 56 -59 177q0 77 24 148.5t68.5 129.5t115 92.5t156.5 34.5q131 0 195.5 -74.5t64.5 -190.5q0 -86 -35 -175.5t-109 -141.5l3 -4h104l-17 -98h-266q13 73 17 101
q68 19 125.5 107.5t57.5 210.5q0 79 -39 122t-113 43zM-219 435l-39 25q48 53 48 96q0 32 -55 54l48 100q101 -38 101 -114q0 -37 -27.5 -82.5t-75.5 -78.5zM64 470l-68 -24l-104 227l106 43z" />
    <glyph glyph-name="uni1F6B" unicode="&#x1f6b;" horiz-adv-x="718" 
d="M419 584q-102 0 -167.5 -85.5t-65.5 -230.5q0 -134 96 -167l-18 -101h-253l17 98h96q0 2 2 4q-59 56 -59 177q0 77 24 148.5t68.5 129.5t115 92.5t156.5 34.5q131 0 195.5 -74.5t64.5 -190.5q0 -86 -35 -175.5t-109 -141.5l3 -4h104l-17 -98h-266q13 73 17 101
q68 19 125.5 107.5t57.5 210.5q0 79 -39 122t-113 43zM61 480l-64 -23l-101 220l107 41zM-177 465l-48 -25q-55 48 -55 117q0 55 40 95t106 59l17 -96q-45 -15 -61.5 -34.5t-16.5 -49.5q0 -33 18 -66z" />
    <glyph glyph-name="uni1F6C" unicode="&#x1f6c;" horiz-adv-x="718" 
d="M419 584q-102 0 -167.5 -85.5t-65.5 -230.5q0 -134 96 -167l-18 -101h-253l17 98h96q0 2 2 4q-59 56 -59 177q0 77 24 148.5t68.5 129.5t115 92.5t156.5 34.5q131 0 195.5 -74.5t64.5 -190.5q0 -86 -35 -175.5t-109 -141.5l3 -4h104l-17 -98h-266q13 73 17 101
q68 19 125.5 107.5t57.5 210.5q0 79 -39 122t-113 43zM-31 435l-58 31l115 235l94 -42zM-188 441l-39 25q47 53 47 95q0 33 -55 56l52 95q98 -33 98 -112q0 -35 -27.5 -81t-75.5 -78z" />
    <glyph glyph-name="uni1F6D" unicode="&#x1f6d;" horiz-adv-x="718" 
d="M419 584q-102 0 -167.5 -85.5t-65.5 -230.5q0 -134 96 -167l-18 -101h-253l17 98h96q0 2 2 4q-59 56 -59 177q0 77 24 148.5t68.5 129.5t115 92.5t156.5 34.5q131 0 195.5 -74.5t64.5 -190.5q0 -86 -35 -175.5t-109 -141.5l3 -4h104l-17 -98h-266q13 73 17 101
q68 19 125.5 107.5t57.5 210.5q0 79 -39 122t-113 43zM-30 434l-58 34l118 231l94 -42zM-129 460l-48 -25q-54 47 -54 118q0 55 40 94.5t105 58.5l17 -95q-45 -16 -61.5 -35.5t-16.5 -49.5q0 -33 18 -66z" />
    <glyph glyph-name="uni1F6E" unicode="&#x1f6e;" horiz-adv-x="718" 
d="M419 584q-102 0 -167.5 -85.5t-65.5 -230.5q0 -134 96 -167l-18 -101h-253l17 98h96q0 2 2 4q-59 56 -59 177q0 77 24 148.5t68.5 129.5t115 92.5t156.5 34.5q131 0 195.5 -74.5t64.5 -190.5q0 -86 -35 -175.5t-109 -141.5l3 -4h104l-17 -98h-266q13 73 17 101
q68 19 125.5 107.5t57.5 210.5q0 79 -39 122t-113 43zM-82 372l-42 29q41 38 41 67q0 23 -49 39l44 78q45 -12 69 -32t24 -58q0 -31 -24 -66t-63 -57zM9 603q-25 0 -67.5 17t-62.5 17q-37 0 -78 -37l-40 37q23 42 56.5 65t68.5 23q21 0 61.5 -18t65.5 -18q34 0 75 37l43 -36
q-20 -40 -54 -63.5t-68 -23.5z" />
    <glyph glyph-name="uni1F6F" unicode="&#x1f6f;" horiz-adv-x="718" 
d="M419 584q-102 0 -167.5 -85.5t-65.5 -230.5q0 -134 96 -167l-18 -101h-253l17 98h96q0 2 2 4q-59 56 -59 177q0 77 24 148.5t68.5 129.5t115 92.5t156.5 34.5q131 0 195.5 -74.5t64.5 -190.5q0 -86 -35 -175.5t-109 -141.5l3 -4h104l-17 -98h-266q13 73 17 101
q68 19 125.5 107.5t57.5 210.5q0 79 -39 122t-113 43zM-53 389l-50 -22q-54 37 -54 93q0 45 36.5 76.5t102.5 42.5l15 -84q-71 -5 -71 -51q0 -24 21 -55zM22 598q-25 0 -67.5 17t-62.5 17q-37 0 -78 -37l-40 37q23 42 56.5 65t68.5 23q21 0 62 -18t65 -18q34 0 75 37l43 -36
q-20 -40 -54 -63.5t-68 -23.5z" />
    <glyph glyph-name="uni1F70" unicode="&#x1f70;" horiz-adv-x="561" 
d="M245 80q69 0 110 66t41 155q0 47 -24 74t-71 27q-58 0 -101.5 -58.5t-43.5 -163.5q0 -100 89 -100zM541 486l-85 -486h-91q-10 35 -4 71h-6q-57 -79 -156 -79q-158 0 -158 177q0 130 66 227.5t179 97.5q100 0 137 -71h4q5 41 26 63h88zM406 575l-58 -32l-149 200l86 52z
" />
    <glyph glyph-name="uni1F71" unicode="&#x1f71;" horiz-adv-x="561" 
d="M245 80q69 0 110 66t41 155q0 47 -24 74t-71 27q-58 0 -101.5 -58.5t-43.5 -163.5q0 -100 89 -100zM541 486l-85 -486h-91q-10 35 -4 71h-6q-57 -79 -156 -79q-158 0 -158 177q0 130 66 227.5t179 97.5q100 0 137 -71h4q5 41 26 63h88zM314 537l-57 33l121 211l91 -45z
" />
    <glyph glyph-name="uni1F72" unicode="&#x1f72;" horiz-adv-x="473" 
d="M218 -8q-97 0 -144.5 33.5t-47.5 88.5q0 38 22 76t80 57v2q1 2 1 3q-59 23 -59 80q0 70 56 116t156 46q70 0 120 -30.5t51 -92.5q0 -20 -4 -39h-96v7q0 63 -81 63q-37 0 -62 -20t-25 -51q0 -39 52 -39h77l-15 -81h-77q-35 0 -56.5 -22t-21.5 -55q0 -24 21.5 -39t58.5 -15
q104 0 113 90h99v-13q0 -79 -60.5 -122t-157.5 -43zM372 575l-58 -32l-149 200l86 52z" />
    <glyph glyph-name="uni1F73" unicode="&#x1f73;" horiz-adv-x="473" 
d="M218 -8q-97 0 -144.5 33.5t-47.5 88.5q0 38 22 76t80 57v2q1 2 1 3q-59 23 -59 80q0 70 56 116t156 46q70 0 120 -30.5t51 -92.5q0 -20 -4 -39h-96v7q0 63 -81 63q-37 0 -62 -20t-25 -51q0 -39 52 -39h77l-15 -81h-77q-35 0 -56.5 -22t-21.5 -55q0 -24 21.5 -39t58.5 -15
q104 0 113 90h99v-13q0 -79 -60.5 -122t-157.5 -43zM281 537l-57 33l121 211l91 -45z" />
    </font>
</defs>
</svg>
