<svg version="1.1" id="Layer_1" xmlns="http://www.w3.org/2000/svg" x="0" y="0" width="33" height="19" viewBox="0 0 33 19" xml:space="preserve"><path fill="#FCFCFC" d="M13.671 952.672c-2.108 0-3.543 1.234-4.706 2.397-.86.769-1.612 1.888-2.717 2.154v-1.37a.367.367 0 0 0-.354-.353H.526a.364.364 0 0 0-.287.353v12.725c0 .186.169.354.353.354h5.303c.433-.184.354-.426.354-.86 1.522 2.123 3.775 2.981 6.01 2.981h5.655c1.168 0 2.12-.952 2.12-2.121 0-.547-.222-1.036-.563-1.413h.563c1.17 0 2.12-.951 2.12-2.121 0-.547-.221-1.037-.562-1.414.717.014 1.567-.062 2.045-.441.536-.729.877-1.445.42-2.187-.367-.392-.867-.667-1.304-.906h7.181c1.569-.048 2.805-1.019 2.826-2.475-.13-1.658-1.391-2.46-2.826-2.474h-8.131c0-.775-.279-1.505-.828-2.022-.552-.516-1.357-.806-2.354-.806h-4.95zm0 .707h4.948c.857 0 1.467.243 1.867.619.4.375.606.894.606 1.502h-.706c-.188-.003-.359.167-.359.353s.173.356.359.354h9.545c1.188.025 2.104.706 2.119 1.767-.07 1.258-1.095 1.758-2.119 1.768a718.96 718.96 0 0 0-8.353.022.405.405 0 0 0-.31.276c-.041.253.092.373.242.519.68.424 1.348.592 2.012 1.249.131.428-.131.901-.342 1.193-.961.469-2.033.275-3.149.275-.183.004-.349.17-.349.354s.166.352.349.354c.79 0 1.413.625 1.413 1.414s-.623 1.414-1.413 1.414h-2.12c-.184.004-.35.17-.35.354s.166.352.35.354c.789 0 1.414.625 1.414 1.414s-.625 1.414-1.414 1.414h-5.655c-2.374 0-4.649-.983-6.01-3.655V957.9c1.418-.289 2.317-1.43 3.215-2.331 1.383-1.134 2.444-2.195 4.21-2.19zM.946 956.206h4.596v12.018H.946v-12.018zm4.791 12.275H.667v-12.596h5.07v12.596z" transform="translate(0 -952.362)"/></svg>