<svg version="1.1" xmlns="http://www.w3.org/2000/svg" x="0" y="0" width="425.197" height="283.465" viewBox="0 0 425.197 283.465" xml:space="preserve"><g id="Layer_1"><path fill="#00AEEF" d="M133.25 187.421c0 6.816-2.312 12.578-6.943 17.279-4.632 4.697-10.343 7.055-17.139 7.055H23.559v-19.93H109c3.04 0 4.561-1.518 4.561-4.553v-12.048c0-5.491-6.627-11.898-19.879-15.17-3.515-.824-27.417-6.328-43.596-10.228-16.179-3.898-26.528-16.057-26.528-29.822V96.002c0-6.821 2.344-12.59 7.034-17.294 4.686-4.706 10.431-7.059 17.225-7.059h85.432v19.927H47.817c-3.048 0-4.572 1.521-4.572 4.567v23.897c0 5.508 6.683 9.9 20.044 13.181 1.989.466 25.568 5.704 43.593 10.188 18.025 4.485 26.367 16.047 26.367 29.802v14.21z"/><path d="M139.085 173.212c0-13.755 8.341-25.316 26.367-29.802 18.025-4.484 41.604-9.722 43.593-10.188 13.361-3.281 20.043-7.673 20.043-13.181V96.143c0-3.046-1.523-4.567-4.571-4.567h-85.432V71.648h85.432c6.795 0 12.54 2.353 17.226 7.059 4.689 4.705 7.033 10.473 7.033 17.294v24.003c0 13.765-10.349 25.924-26.527 29.822-16.179 3.899-40.081 9.403-43.596 10.228-13.252 3.271-19.879 9.679-19.879 15.17v36.467l-19.688.005v-38.484z"/><path fill-rule="evenodd" clip-rule="evenodd" fill="#00AEEF" d="M138.102 157.184c5.632-9.428 16.246-16.17 26.565-18.889 10.498-2.763 20.265-2.73 20.346-10.763.081-8.035-13.063-5.412-18.684-.552-9.176 7.934-22.717 12.417-28.227 30.204zm-.939-1.026s3.151-10.21 6.771-17.793c3.618-7.588 4.508-12.3.166-14.231-4.343-1.93-9.301 1.779-8.104 8.499 1.199 6.723 2.034 9.607 1.167 23.525zm9.9-17.814c-.171.247 5.614-6.101 12.457-10.143 6.844-4.049 6.912-8.503 5.245-10.587-1.668-2.087-8.745-6.021-12.768 2.938-4.024 8.959-4.934 17.792-4.934 17.792z"/><path d="M198.104 211.673h-8.826v-9.617h-13.845v9.617h-8.834v-30.634c0-6.016 2.794-9.021 8.381-9.021h23.125v39.655zm-8.827-17.698v-12.936l-11.136.049c-1.807 0-2.709 1.222-2.709 3.669v9.218h13.845zm41.909-12.936H220.42v30.634h-8.828v-30.634h-10.763v-9.02h30.357zm2.726-9.02h8.833v39.654h-8.833zm43.064 39.654h-8.83V184.86c0-1.49-.343-2.514-1.028-3.08-.576-.491-1.52-.741-2.834-.741h-9.981v30.634h-8.832v-39.654h22.676c2.707 0 4.846.842 6.407 2.528 1.616 1.784 2.423 4.312 2.423 7.581v29.545zm2.726-39.654h8.831v39.654h-8.831zm43.269 29.522c0 3.15-.821 5.619-2.466 7.424-1.641 1.807-3.768 2.708-6.365 2.708h-14.048c-2.604 0-4.728-.901-6.37-2.708-1.643-1.805-2.464-4.273-2.464-7.424v-20.502c0-3.324.781-5.686 2.34-7.1 1.401-1.282 3.563-1.921 6.494-1.921h14.048c2.928 0 5.091.639 6.489 1.921 1.562 1.414 2.342 3.775 2.342 7.1v20.502zm-8.831-2.359v-15.17c0-1.949-.769-2.924-2.302-2.924h-9.45c-1.532 0-2.296.975-2.296 2.924v15.17c0 2.51.832 3.765 2.505 3.765h9.039c1.668-.001 2.504-1.256 2.504-3.765zm41.29-18.143h-10.766v30.634h-8.832v-30.634h-10.761v-9.02h30.359zm2.726-9.02h8.835v39.654h-8.835zm43.481 9.036v-9.046h-23.755c-2.271 0-4.221.8-5.795 2.382-1.574 1.578-2.372 3.53-2.372 5.809v6.117c0 4.428 2.725 7.617 8.149 9.49l11.23 2.642c2.977.736 3.51 1.506 3.556 1.43l-.003 2.755h-22.933v9.048h23.802c2.274 0 4.219-.804 5.78-2.391 1.552-1.573 2.34-3.523 2.34-5.794v-3.62c0-4.429-2.707-7.615-8.106-9.486l-11.231-2.636c-3.011-.737-3.542-1.467-3.595-1.437l.005-5.263h22.928z"/></g></svg>