<svg version="1.1" id="Layer_1" xmlns="http://www.w3.org/2000/svg" x="0" y="0" width="38" height="38" viewBox="0 0 38 38" xml:space="preserve"><circle fill="#FFF" cx="19" cy="19" r="19"/><path fill="#D2001D" d="M21.602 9.896a11.8 11.8 0 0 0-11.49 9.118l-.208.889.03.228 4.228 7.805c.058.104.167.17.286.17H27.78a.326.326 0 0 0 .325-.325v-17.56a.324.324 0 0 0-.325-.325h-6.178zm0 .65h5.853v16.908H14.641l-4.077-7.524.182-.769a11.143 11.143 0 0 1 10.856-8.615z"/><path fill="#D2001D" d="M22.252 20.301c-.535 0-.976.44-.976.976s.44.975.976.975h3.252c.535 0 .975-.439.975-.975s-.439-.976-.975-.976h-3.252zm0 .65h3.252c.186 0 .324.141.324.326s-.139.325-.324.325h-3.252c-.187 0-.326-.14-.326-.325s.139-.326.326-.326z"/><path fill="#D2001D" d="M24.527 20.626h.65v1.301h-.65zm-2.946-9.104a9.56 9.56 0 0 0-9.249 7.146l-.15.576a.325.325 0 0 0 .232.396l.082.011h13.658c.18 0 .324-.146.324-.325v-7.154a.655.655 0 0 0-.65-.65h-4.247zm0 .65h4.247V19H12.917l.044-.169a8.905 8.905 0 0 1 8.62-6.659zm-8.76 12.031H27.78v.65H12.821zm7.155 1.3h7.805v.65h-7.805z"/></svg>