<svg version="1.1" xmlns="http://www.w3.org/2000/svg" x="0" y="0" width="38" height="38" viewBox="0 0 38 38" xml:space="preserve"><g id="Layer_6"><circle fill="#FFF" cx="19" cy="19" r="19"/><path fill="#D2001D" d="M19.784 14.335h-2.315v9.19a3.434 3.434 0 0 0 1.157 6.673 3.445 3.445 0 0 0 3.444-3.443 3.433 3.433 0 0 0-2.286-3.23v-9.19z"/><path fill="#D2001D" d="M24.91 11.964v-1.016h-3.309V8.703a2.979 2.979 0 0 0-2.976-2.976 2.98 2.98 0 0 0-2.976 2.976v13.368a5.553 5.553 0 0 0-2.561 4.666 5.543 5.543 0 0 0 5.536 5.537 5.543 5.543 0 0 0 5.537-5.537 5.554 5.554 0 0 0-2.562-4.666v-3.302h3.309v-1.017h-3.309v-2.4h3.309v-1.016h-3.309v-2.372h3.311zm-1.65 14.773a4.638 4.638 0 0 1-4.634 4.633 4.638 4.638 0 0 1-4.633-4.633c0-1.654.896-3.195 2.333-4.02l.228-.131V8.703c0-1.142.931-2.072 2.072-2.072 1.143 0 2.073.93 2.073 2.072v13.884l.227.131a4.648 4.648 0 0 1 2.334 4.019z"/></g></svg>