<svg version="1.1" xmlns="http://www.w3.org/2000/svg" x="0" y="0" width="38" height="38" viewBox="0 0 38 38" xml:space="preserve"><g id="Layer_4"><circle fill="#FFF" cx="19" cy="19" r="19"/><path fill="#D2001D" d="M27.641 16.926h-4.84v-1.382c0-.763-.619-1.382-1.381-1.382h-2.766c-.763 0-1.382.619-1.382 1.382v1.382h-2.388l-3.141-6.911a.68.68 0 0 0 .691-.691c0-.464-.31-.691-.691-.691H9.669a.69.69 0 1 0 0 1.382h.69l3.143 6.911h-1.067c-.765 0-1.383.62-1.383 1.383v8.293c0 .764.618 1.383 1.383 1.383 0-.9.579-1.66 1.382-1.945v-8.422h1.382v8.422a2.067 2.067 0 0 1 1.382 1.945h6.912c0-.9.58-1.66 1.383-1.945v-8.422h1.381v8.422a2.07 2.07 0 0 1 1.385 1.945c.762 0 1.381-.619 1.381-1.383v-8.293a1.386 1.386 0 0 0-1.382-1.383zm-6.221 0h-2.766v-1.382h2.766v1.382z"/><circle fill="#D2001D" cx="14.507" cy="27.985" r="1.383"/><circle fill="#D2001D" cx="25.564" cy="27.985" r="1.383"/></g></svg>