<svg version="1.1" id="Layer_1" xmlns="http://www.w3.org/2000/svg" x="0" y="0" width="17.21" height="17.21" viewBox="0 0 17.21 17.21" xml:space="preserve"><path d="M15.958 1.642h-1.162V.478c0-.231-.156-.383-.386-.383-.233 0-.387.151-.387.383v1.164h-1.551V.478c0-.231-.152-.383-.386-.383S11.7.246 11.7.478v1.164h-1.548V.478c0-.231-.154-.383-.385-.383-.232 0-.391.151-.391.383v1.164H7.833V.478c0-.231-.159-.383-.391-.383-.229 0-.384.151-.384.383v1.164H5.51V.478c0-.231-.153-.383-.387-.383-.232 0-.386.151-.386.383v1.164H3.188V.478c0-.231-.156-.383-.388-.383-.228 0-.386.151-.386.383v1.164H1.251C.594 1.642.095 2.145.095 2.8v13.158c0 .658.499 1.157 1.156 1.157h14.707c.658 0 1.157-.499 1.157-1.157V2.8c0-.655-.499-1.158-1.157-1.158zm-14.707.772h1.163V2.8c0 .233.158.39.386.39.232 0 .388-.156.388-.39v-.386h1.549V2.8c0 .233.153.39.386.39.234 0 .387-.156.387-.39v-.386h1.549V2.8c0 .233.155.39.384.39.232 0 .391-.156.391-.39v-.386h1.543V2.8c0 .233.158.39.391.39.23 0 .385-.156.385-.39v-.386H11.7V2.8c0 .233.153.39.387.39s.386-.156.386-.39v-.386h1.551V2.8c0 .233.153.39.387.39.229 0 .386-.156.386-.39v-.386h1.162c.231 0 .385.158.385.386v2.71H.869V2.8c0-.228.154-.386.382-.386zm14.707 13.929H1.251c-.228 0-.382-.153-.382-.385V6.285h15.474v9.673c0 .231-.154.385-.385.385zm-6.19-8.511H7.442c-.229 0-.384.154-.384.388v2.322c0 .229.155.383.384.383h2.325c.23 0 .385-.153.385-.383V8.22c0-.234-.154-.388-.384-.388zm-.391 2.319H7.833V8.606h1.543v1.545zm.391 1.549H7.442c-.229 0-.384.154-.384.387v2.323c0 .229.155.386.384.386h2.325c.23 0 .385-.157.385-.386v-2.323c0-.233-.154-.387-.384-.387zm-.391 2.324H7.833v-1.551h1.543v1.551zM5.123 7.832H2.8c-.228 0-.386.154-.386.388v2.322c0 .229.158.383.386.383h2.323c.234 0 .387-.153.387-.383V8.22c0-.234-.153-.388-.387-.388zm-.386 2.319H3.188V8.606h1.549v1.545zm.386 1.549H2.8a.367.367 0 0 0-.386.387v2.323c0 .229.158.386.386.386h2.323c.234 0 .387-.157.387-.386v-2.323c0-.233-.153-.387-.387-.387zm-.386 2.324H3.188v-1.551h1.549v1.551zm9.673-6.192h-2.323c-.233 0-.387.154-.387.388v2.322c0 .229.153.383.387.383h2.323c.229 0 .386-.153.386-.383V8.22c0-.234-.156-.388-.386-.388zm-.387 2.319h-1.551V8.606h1.551v1.545zm.387 1.549h-2.323c-.233 0-.387.154-.387.387v2.323c0 .229.153.386.387.386h2.323a.367.367 0 0 0 .386-.386v-2.323c0-.233-.156-.387-.386-.387zm-.387 2.324h-1.551v-1.551h1.551v1.551z"/></svg>