<svg version="1.1" id="Layer_1" xmlns="http://www.w3.org/2000/svg" x="0" y="0" width="17.01" height="17.01" viewBox="0 0 17.01 17.01" xml:space="preserve"><path d="M8.504-.001c-4.691 0-8.506 3.814-8.506 8.506s3.815 8.506 8.506 8.506c4.69 0 8.507-3.813 8.507-8.506.001-4.692-3.817-8.506-8.507-8.506zm0 1.135a7.364 7.364 0 0 1 7.373 7.371c0 4.078-3.294 7.375-7.373 7.375s-7.372-3.297-7.372-7.375a7.364 7.364 0 0 1 7.372-7.371zm0 1.701a.567.567 0 0 0-.567.567v5.103c0 .313.254.567.567.567h4.537a.566.566 0 0 0 0-1.132h-3.97V3.402a.567.567 0 0 0-.567-.567z"/></svg>