<svg version="1.1" id="Layer_1" xmlns="http://www.w3.org/2000/svg" x="0" y="0" width="222" height="82" viewBox="0 0 222 82" xml:space="preserve"><path fill="#F00" d="M85.358 12.23H96.9c1.764 0 3.268.62 4.506 1.858 1.24 1.239 1.859 2.742 1.859 4.507 0 1.766-.619 3.26-1.859 4.483-1.238 1.223-2.742 1.834-4.506 1.834H85.358V12.23zm0 30.346V29.894h8.649l7.678 12.683h5.758l-7.848-12.999c2.527-.599 4.602-1.911 6.221-3.936 1.619-2.024 2.43-4.373 2.43-7.046 0-2.041-.51-3.932-1.531-5.673a11.406 11.406 0 0 0-4.143-4.143A11.016 11.016 0 0 0 96.9 7.249H80.377v35.327h4.981zM56.363 13.712l5.686 14.529H50.653l5.71-14.529zM45.09 42.576l3.62-9.354h15.282l3.668 9.354h5.321L59.157 7.25h-5.564L39.745 42.576h5.345zM9.632 37.984c1.652 1.652 3.616 2.964 5.892 3.936a18.084 18.084 0 0 0 7.179 1.458c2.446 0 4.762-.458 6.949-1.372a19.21 19.21 0 0 0 5.88-3.852l-3.475-3.547c-2.64 2.527-5.758 3.791-9.354 3.791-1.831 0-3.58-.356-5.248-1.069-1.668-.712-3.102-1.668-4.3-2.867S11 31.829 10.288 30.161a13.214 13.214 0 0 1-1.069-5.248c0-1.814.356-3.555 1.069-5.224.712-1.668 1.668-3.106 2.867-4.313 1.199-1.206 2.632-2.166 4.3-2.879a13.231 13.231 0 0 1 5.248-1.069c1.782 0 3.475.332 5.078.996s3.028 1.596 4.276 2.794l3.475-3.547c-3.645-3.482-7.921-5.224-12.829-5.224-2.511 0-4.904.486-7.179 1.458-2.276.972-4.24 2.284-5.892 3.936-1.652 1.652-2.964 3.616-3.936 5.892-.972 2.276-1.458 4.669-1.458 7.18s.486 4.904 1.458 7.179c.972 2.276 2.284 4.24 3.936 5.892zM220 44.722c0 2.026-2.84 4.278-5.126 4.278h-97.725c-2.286 0-3.149-2.252-3.149-4.278V5.058c0-2.027.863-4.058 3.149-4.058h97.725C217.16 1 220 3.031 220 5.058v39.664z"/><path fill="#FFF" d="M191.078 14.947h10.91c1.216 0 2.25.425 3.101 1.276.851.85 1.275 1.884 1.275 3.101s-.425 2.244-1.275 3.08c-.851.837-1.885 1.255-3.101 1.255h-10.91v-8.712zm0 12.943h12.652c1.216 0 2.25.425 3.101 1.276.851.85 1.275 1.884 1.275 3.101s-.425 2.244-1.275 3.08c-.851.837-1.885 1.255-3.101 1.255h-12.652V27.89zm12.652 12.963c2.378 0 4.41-.836 6.098-2.51 1.687-1.673 2.53-3.699 2.53-6.077 0-1.493-.353-2.873-1.058-4.138s-1.667-2.292-2.883-3.08c1.465-1.646 2.198-3.554 2.198-5.725 0-2.378-.844-4.411-2.53-6.098-1.688-1.687-3.72-2.531-6.098-2.531h-15.162v30.158h16.905zm-47.725-5.642a12.592 12.592 0 0 0 4.615 4.625c1.942 1.133 4.055 1.701 6.336 1.701 2.282 0 4.394-.567 6.337-1.701a12.622 12.622 0 0 0 4.615-4.625 12.414 12.414 0 0 0 1.7-6.347V10.695h-4.231v18.169c0 2.309-.826 4.29-2.479 5.942s-3.633 2.479-5.942 2.479-4.286-.826-5.932-2.479-2.468-3.633-2.468-5.942V10.695h-4.252v18.169c.001 2.282.567 4.398 1.701 6.347zm-30.033 5.642V27.89h16.821v12.963h4.252V10.695h-4.252v12.963h-16.821V10.695h-4.252v30.158h4.252z"/><path fill="#F10009" d="M216.344 76.397h.891V59.69h-.891v16.707zm-6.528-5.924v2.739a2.232 2.232 0 0 1-.322.991c-.187.305-.438.568-.758.791s-.687.4-1.103.535a4.363 4.363 0 0 1-1.337.199c-.49 0-.946-.07-1.37-.211a3.915 3.915 0 0 1-1.113-.568c-.319-.237-.572-.516-.758-.835s-.278-.657-.278-1.014.104-.694.312-1.014c.207-.319.489-.598.846-.835.356-.238.776-.428 1.259-.568s.999-.211 1.549-.211h3.073zm-6.437-3.7c.326-.207.728-.4 1.203-.578.475-.179 1.047-.268 1.715-.268.49 0 .947.056 1.37.167.424.111.795.29 1.114.534.319.246.571.557.757.936s.278.828.278 1.348v.669h-3.073c-.669 0-1.296.093-1.883.278s-1.103.438-1.548.758a3.687 3.687 0 0 0-1.047 1.113c-.253.424-.379.88-.379 1.37s.114.946.345 1.37.546.795.947 1.113c.4.32.868.572 1.403.758a5.179 5.179 0 0 0 1.715.278c.356 0 .709-.044 1.059-.134.349-.089.676-.207.98-.355.304-.148.582-.324.835-.524.252-.2.468-.404.646-.612v1.403h.892v-7.485c0-.638-.115-1.202-.346-1.692s-.546-.895-.946-1.214a4.218 4.218 0 0 0-1.403-.725 5.854 5.854 0 0 0-1.716-.244c-.772 0-1.459.111-2.061.334s-1.103.482-1.503.779l.646.623zm-10.047-.623h2.005v7.129c0 .43.082.835.245 1.213a3.133 3.133 0 0 0 1.66 1.66c.378.164.783.245 1.214.245v-.892c-.624 0-1.151-.215-1.582-.646s-.646-.958-.646-1.581V66.15h2.228v-.89h-2.228v-4.678l-.892.223v4.455h-2.005v.89zm-3.876 3.075c0-.579-.111-1.121-.334-1.627a4.293 4.293 0 0 0-2.227-2.226 3.996 3.996 0 0 0-1.626-.334c-.832 0-1.567.196-2.205.59a4.573 4.573 0 0 0-1.537 1.549V65.26h-.892v11.138h.892V69.67c0-.52.1-1.006.301-1.459.2-.453.471-.85.812-1.191s.739-.609 1.192-.803a3.642 3.642 0 0 1 1.437-.289 3.277 3.277 0 0 1 3.041 2.005c.17.401.256.831.256 1.292v7.173h.891v-7.173zm-16.941-2.952c.482.23.902.545 1.259.946s.638.872.847 1.415c.207.541.334 1.125.378 1.748h-8.22a5.85 5.85 0 0 1 .39-1.748 4.755 4.755 0 0 1 .858-1.415c.355-.401.775-.716 1.258-.946s1.021-.346 1.615-.346 1.132.116 1.615.346zm-3.231 9.111a3.928 3.928 0 0 1-1.258-.946 4.747 4.747 0 0 1-.858-1.415 5.857 5.857 0 0 1-.39-1.749h9.111v-.445c0-.802-.123-1.555-.367-2.261a5.757 5.757 0 0 0-1.022-1.838 4.839 4.839 0 0 0-1.578-1.236 4.525 4.525 0 0 0-2.033-.456c-.741 0-1.419.152-2.034.456a4.866 4.866 0 0 0-1.578 1.236 5.738 5.738 0 0 0-1.022 1.838 6.871 6.871 0 0 0-.366 2.261c0 .803.122 1.557.367 2.262s.587 1.318 1.024 1.838c.438.52.966.932 1.582 1.236a4.544 4.544 0 0 0 2.038.456c.98 0 1.812-.196 2.495-.591a5.94 5.94 0 0 0 1.782-1.592l-.69-.602a5.628 5.628 0 0 1-1.481 1.369c-.558.35-1.259.523-2.105.523a3.699 3.699 0 0 1-1.617-.344zm-5.958-10.347c-1.129 0-2.031.244-2.706.734-.677.49-1.17 1.145-1.481 1.961V65.26h-.892v11.138h.892V70.45c0-.652.089-1.254.267-1.804.179-.55.442-1.024.791-1.426s.783-.716 1.304-.946c.52-.23 1.128-.346 1.826-.346v-.891zm-16.841 0c-1.129 0-2.031.244-2.706.734-.677.49-1.17 1.145-1.481 1.961V65.26h-.892v11.138h.892V70.45c0-.652.089-1.254.267-1.804.179-.55.442-1.024.791-1.426s.783-.716 1.304-.946c.52-.23 1.128-.346 1.826-.346v-.891zm-11.539 5.436v2.739a2.232 2.232 0 0 1-.322.991c-.187.305-.438.568-.758.791s-.687.4-1.103.535a4.363 4.363 0 0 1-1.337.199c-.49 0-.946-.07-1.37-.211a3.915 3.915 0 0 1-1.113-.568c-.319-.237-.572-.516-.758-.835s-.278-.657-.278-1.014.104-.694.312-1.014c.207-.319.489-.598.846-.835.356-.238.776-.428 1.259-.568s.999-.211 1.549-.211h3.073zm-6.437-3.7c.326-.207.728-.4 1.203-.578.475-.179 1.047-.268 1.715-.268.49 0 .947.056 1.37.167.424.111.795.29 1.114.534.319.246.571.557.757.936s.278.828.278 1.348v.669h-3.073c-.669 0-1.296.093-1.883.278s-1.103.438-1.548.758a3.687 3.687 0 0 0-1.047 1.113c-.253.424-.379.88-.379 1.37s.114.946.345 1.37.546.795.947 1.113c.4.32.868.572 1.403.758a5.179 5.179 0 0 0 1.715.278c.356 0 .709-.044 1.059-.134.349-.089.676-.207.98-.355.304-.148.582-.324.835-.524.252-.2.468-.404.646-.612v1.403h.892v-7.485c0-.638-.115-1.202-.346-1.692s-.546-.895-.946-1.214a4.218 4.218 0 0 0-1.403-.725 5.854 5.854 0 0 0-1.716-.244c-.772 0-1.459.111-2.061.334s-1.103.482-1.503.779l.646.623zm-5.815 7.642a4.43 4.43 0 0 1-3.186 1.314 4.478 4.478 0 0 1-1.771-.355 4.408 4.408 0 0 1-1.459-1.003c-.416-.431-.743-.946-.98-1.548s-.356-1.266-.356-1.994c0-.727.119-1.393.356-1.994a4.65 4.65 0 0 1 .98-1.547c.415-.432.902-.766 1.459-1.003s1.147-.356 1.771-.356c1.277 0 2.339.438 3.186 1.314l.646-.624a5.127 5.127 0 0 0-1.716-1.169 5.394 5.394 0 0 0-2.116-.412 5.36 5.36 0 0 0-2.127.423c-.661.282-1.236.679-1.727 1.191s-.88 1.122-1.17 1.827c-.289.705-.434 1.488-.434 2.35s.145 1.645.434 2.351c.29.706.68 1.313 1.17 1.827.49.512 1.065.909 1.727 1.191.66.281 1.37.423 2.127.423.758 0 1.463-.138 2.116-.412s1.226-.665 1.716-1.169l-.646-.625zM99.951 62.809h.891v-2.227h-.891v2.227zm0 13.588h.891V65.26h-.891v11.137zm-5.636-7.172c0-.579-.111-1.121-.334-1.627a4.293 4.293 0 0 0-2.227-2.226 3.996 3.996 0 0 0-1.626-.334c-.832 0-1.567.196-2.205.59a4.573 4.573 0 0 0-1.537 1.549V65.26h-.892v11.138h.892V69.67c0-.52.1-1.006.301-1.459.2-.453.471-.85.812-1.191s.739-.609 1.192-.803a3.642 3.642 0 0 1 1.437-.289 3.277 3.277 0 0 1 3.041 2.005c.17.401.256.831.256 1.292v7.173h.891v-7.173zm-15.481-6.416h.891v-2.227h-.891v2.227zm0 13.588h.891V65.26h-.891v11.137zm-4.188-11.36c-1.128 0-2.031.244-2.707.734s-1.169 1.145-1.481 1.961V65.26h-.891v11.138h.891V70.45c0-.652.089-1.254.268-1.804s.441-1.024.791-1.426.783-.716 1.303-.946 1.128-.346 1.827-.346v-.891zm-19.692 3.797a4.65 4.65 0 0 1 .98-1.547 4.389 4.389 0 0 1 1.459-1.003 4.475 4.475 0 0 1 1.771-.356c.624 0 1.214.119 1.771.356a4.389 4.389 0 0 1 1.459 1.003c.416.43.742.946.98 1.547.237.602.356 1.268.356 1.994 0 .729-.119 1.393-.356 1.994a4.67 4.67 0 0 1-.98 1.548 4.418 4.418 0 0 1-1.459 1.003 4.475 4.475 0 0 1-1.771.355 4.475 4.475 0 0 1-1.771-.355 4.418 4.418 0 0 1-1.459-1.003 4.654 4.654 0 0 1-.98-1.548 5.376 5.376 0 0 1-.356-1.994c0-.726.118-1.392.356-1.994zm-.813 4.345c.29.706.679 1.313 1.169 1.827.49.512 1.065.909 1.727 1.191.661.281 1.37.423 2.127.423s1.466-.142 2.127-.423a5.186 5.186 0 0 0 1.726-1.191c.49-.514.88-1.121 1.169-1.827s.435-1.489.435-2.351-.145-1.645-.435-2.35-.679-1.314-1.169-1.827a5.157 5.157 0 0 0-1.726-1.191c-.661-.282-1.37-.423-2.127-.423s-1.467.141-2.127.423c-.661.282-1.236.679-1.727 1.191s-.88 1.122-1.169 1.827-.435 1.488-.435 2.35.146 1.645.435 2.351zm-9.099-7.029h2.005v7.129c0 .43.081.835.245 1.213.164.379.386.71.668.992.282.282.613.505.991.668a3.02 3.02 0 0 0 1.214.245v-.892c-.624 0-1.151-.215-1.582-.646s-.646-.958-.646-1.581V66.15h2.228v-.89h-2.228v-4.678l-.891.223v4.455h-2.005v.89zm-3.877 3.075c0-.579-.111-1.121-.334-1.627a4.31 4.31 0 0 0-2.228-2.226 3.996 3.996 0 0 0-1.626-.334c-.832 0-1.567.196-2.206.59s-1.151.91-1.537 1.549V65.26h-.891v11.138h.891V69.67c0-.52.101-1.006.301-1.459.201-.453.471-.85.813-1.191s.739-.609 1.192-.803a3.645 3.645 0 0 1 1.437-.289 3.277 3.277 0 0 1 3.041 2.005c.17.401.256.831.256 1.292v7.173h.891v-7.173zm-15.281 1.248v2.739c-.03.356-.138.687-.323.991s-.438.568-.757.791-.687.4-1.103.535a4.36 4.36 0 0 1-1.336.199c-.49 0-.947-.07-1.37-.211s-.795-.33-1.114-.568a2.758 2.758 0 0 1-.757-.835c-.186-.319-.279-.657-.279-1.014s.104-.694.312-1.014.49-.598.847-.835c.356-.238.776-.428 1.258-.568s.999-.211 1.548-.211h3.074zm-6.438-3.7c.327-.207.728-.4 1.203-.578.475-.179 1.047-.268 1.715-.268.49 0 .947.056 1.37.167.423.111.794.29 1.114.534.319.246.572.557.758.936.186.379.278.828.278 1.348v.669H22.81a6.22 6.22 0 0 0-1.882.278 5.447 5.447 0 0 0-1.548.758c-.445.319-.794.689-1.047 1.113s-.378.88-.378 1.37.115.946.345 1.37c.23.424.545.795.947 1.113.401.32.869.572 1.403.758s1.106.278 1.715.278c.356 0 .709-.044 1.058-.134.349-.089.675-.207.98-.355.304-.148.583-.324.835-.524s.468-.404.646-.612v1.403h.891v-7.485c0-.638-.115-1.202-.345-1.692a3.337 3.337 0 0 0-.947-1.214 4.218 4.218 0 0 0-1.403-.725 5.857 5.857 0 0 0-1.715-.244c-.772 0-1.459.111-2.061.334-.602.223-1.103.482-1.504.779l.646.623zM1.714 72.276c0 .624.16 1.206.479 1.749a4.631 4.631 0 0 0 1.314 1.414c.557.4 1.207.721 1.949.958a7.791 7.791 0 0 0 2.383.356 8.5 8.5 0 0 0 2.384-.323 6.662 6.662 0 0 0 1.949-.901 4.338 4.338 0 0 0 1.314-1.415c.319-.558.479-1.169.479-1.838s-.16-1.255-.479-1.76-.757-.936-1.314-1.292a8.043 8.043 0 0 0-1.949-.88 17.226 17.226 0 0 0-2.384-.546 11.843 11.843 0 0 1-1.827-.4 6.714 6.714 0 0 1-1.526-.669 3.38 3.38 0 0 1-1.046-.968 2.248 2.248 0 0 1-.39-1.304c0-.504.126-.965.378-1.381s.594-.769 1.025-1.059c.431-.289.936-.512 1.515-.668s1.203-.234 1.871-.234c.668 0 1.292.09 1.872.268a5.542 5.542 0 0 1 1.515.713c.431.298.772.65 1.024 1.059s.379.843.379 1.303h.891c0-.578-.148-1.128-.446-1.648-.297-.52-.702-.969-1.214-1.348s-1.114-.68-1.804-.902c-.691-.223-1.43-.334-2.217-.334s-1.526.101-2.216.301a5.82 5.82 0 0 0-1.804.857 4.237 4.237 0 0 0-1.214 1.336c-.297.52-.445 1.098-.445 1.737s.148 1.195.445 1.671c.297.476.705.884 1.225 1.226s1.121.62 1.805.835c.683.216 1.418.383 2.205.501.728.119 1.407.271 2.039.457a7 7 0 0 1 1.66.713c.475.289.85.631 1.125 1.025.275.393.412.857.412 1.392s-.137 1.024-.412 1.47-.649.824-1.125 1.137a5.746 5.746 0 0 1-1.66.724c-.631.171-1.311.257-2.039.257s-1.407-.094-2.038-.279a5.794 5.794 0 0 1-1.66-.768 3.919 3.919 0 0 1-1.125-1.148 2.572 2.572 0 0 1-.412-1.392h-.891z"/></svg>