<svg version="1.1" id="Layer_1" xmlns="http://www.w3.org/2000/svg" x="0" y="0" width="222" height="49" viewBox="0 0 222 49" xml:space="preserve"><path fill="#D1001C" d="M85.358 12.23H96.9c1.764 0 3.268.62 4.506 1.858 1.24 1.239 1.859 2.742 1.859 4.507 0 1.766-.619 3.26-1.859 4.483-1.238 1.223-2.742 1.834-4.506 1.834H85.358V12.23zm0 30.346V29.894h8.649l7.678 12.683h5.758l-7.848-12.999c2.527-.599 4.602-1.911 6.221-3.936 1.619-2.024 2.43-4.373 2.43-7.046 0-2.041-.51-3.932-1.531-5.673a11.406 11.406 0 0 0-4.143-4.143A11.016 11.016 0 0 0 96.9 7.249H80.377v35.327h4.981zM56.363 13.712l5.686 14.529H50.653l5.71-14.529zM45.09 42.576l3.62-9.354h15.282l3.668 9.354h5.321L59.157 7.25h-5.564L39.745 42.576h5.345zM9.632 37.984c1.652 1.652 3.616 2.964 5.892 3.936a18.066 18.066 0 0 0 7.179 1.458c2.446 0 4.762-.458 6.949-1.372a19.21 19.21 0 0 0 5.88-3.852l-3.475-3.547c-2.64 2.527-5.758 3.791-9.354 3.791-1.831 0-3.58-.356-5.248-1.069-1.668-.712-3.102-1.668-4.3-2.867S11 31.829 10.288 30.161a13.214 13.214 0 0 1-1.069-5.248c0-1.814.356-3.555 1.069-5.224.712-1.668 1.668-3.106 2.867-4.313 1.199-1.206 2.632-2.166 4.3-2.879a13.231 13.231 0 0 1 5.248-1.069c1.782 0 3.475.332 5.078.996a13.683 13.683 0 0 1 4.276 2.794l3.475-3.547c-3.645-3.482-7.921-5.224-12.829-5.224-2.511 0-4.904.486-7.179 1.458-2.276.972-4.24 2.284-5.892 3.936-1.652 1.652-2.964 3.616-3.936 5.892a18.092 18.092 0 0 0-1.458 7.18c0 2.511.486 4.904 1.458 7.179.972 2.276 2.284 4.24 3.936 5.892zM220 44.723c0 2.025-2.84 4.277-5.126 4.277h-97.726c-2.285 0-3.148-2.252-3.148-4.277V5.058c0-2.027.863-4.058 3.148-4.058h97.726C217.16 1 220 3.031 220 5.058v39.665z"/><path fill="#FFF" d="M191.078 14.947h10.91c1.216 0 2.25.425 3.101 1.276.851.85 1.274 1.884 1.274 3.101s-.424 2.244-1.274 3.08c-.851.837-1.885 1.255-3.101 1.255h-10.91v-8.712zm0 12.943h12.652c1.215 0 2.25.425 3.101 1.276.851.85 1.274 1.884 1.274 3.101s-.424 2.244-1.274 3.08c-.851.837-1.886 1.255-3.101 1.255h-12.652V27.89zm12.652 12.963c2.377 0 4.41-.836 6.098-2.51 1.688-1.673 2.529-3.699 2.529-6.077a8.362 8.362 0 0 0-1.059-4.138 8.6 8.6 0 0 0-2.883-3.08c1.465-1.646 2.198-3.554 2.198-5.725 0-2.378-.845-4.411-2.53-6.098-1.688-1.687-3.72-2.531-6.1-2.531h-15.16v30.158l16.907.001zm-47.725-5.642a12.592 12.592 0 0 0 4.615 4.625c1.942 1.133 4.055 1.701 6.336 1.701 2.282 0 4.394-.567 6.337-1.701a12.63 12.63 0 0 0 4.615-4.625c1.133-1.95 1.699-4.065 1.699-6.347V10.695h-4.23v18.169c0 2.309-.826 4.29-2.479 5.942-1.653 1.652-3.633 2.479-5.942 2.479s-4.286-.826-5.933-2.479c-1.646-1.653-2.467-3.633-2.467-5.942V10.695h-4.252v18.169c.001 2.282.567 4.398 1.701 6.347zm-30.032 5.642V27.89h16.82v12.963h4.252V10.695h-4.252v12.963h-16.82V10.695h-4.252v30.158h4.252z"/></svg>