<svg version="1.1" id="Layer_1" xmlns="http://www.w3.org/2000/svg" x="0" y="0" width="222" height="82" viewBox="0 0 222 82" xml:space="preserve"><path fill="#D1001C" d="M85.358 12.23H96.9c1.764 0 3.268.62 4.506 1.858 1.24 1.239 1.859 2.742 1.859 4.507 0 1.766-.619 3.26-1.859 4.483-1.238 1.223-2.742 1.834-4.506 1.834H85.358V12.23zm0 30.346V29.894h8.649l7.678 12.683h5.758l-7.848-12.999c2.527-.599 4.602-1.911 6.221-3.936 1.619-2.024 2.43-4.373 2.43-7.046 0-2.041-.51-3.932-1.531-5.673a11.406 11.406 0 0 0-4.143-4.143A11.016 11.016 0 0 0 96.9 7.249H80.377v35.327h4.981zM56.363 13.712l5.686 14.529H50.653l5.71-14.529zM45.09 42.576l3.62-9.354h15.282l3.668 9.354h5.321L59.157 7.25h-5.564L39.745 42.576h5.345zM9.632 37.984c1.652 1.652 3.616 2.964 5.892 3.936a18.066 18.066 0 0 0 7.179 1.458c2.446 0 4.762-.458 6.949-1.372a19.21 19.21 0 0 0 5.88-3.852l-3.475-3.547c-2.64 2.527-5.758 3.791-9.354 3.791-1.831 0-3.58-.356-5.248-1.069-1.668-.712-3.102-1.668-4.3-2.867S11 31.829 10.288 30.161a13.214 13.214 0 0 1-1.069-5.248c0-1.814.356-3.555 1.069-5.224.712-1.668 1.668-3.106 2.867-4.313 1.199-1.206 2.632-2.166 4.3-2.879a13.231 13.231 0 0 1 5.248-1.069c1.782 0 3.475.332 5.078.996a13.683 13.683 0 0 1 4.276 2.794l3.475-3.547c-3.645-3.482-7.921-5.224-12.829-5.224-2.511 0-4.904.486-7.179 1.458-2.276.972-4.24 2.284-5.892 3.936-1.652 1.652-2.964 3.616-3.936 5.892a18.092 18.092 0 0 0-1.458 7.18c0 2.511.486 4.904 1.458 7.179.972 2.276 2.284 4.24 3.936 5.892zM220 44.723c0 2.025-2.84 4.277-5.126 4.277h-97.726c-2.285 0-3.148-2.252-3.148-4.277V5.058c0-2.027.863-4.058 3.148-4.058h97.726C217.16 1 220 3.031 220 5.058v39.665z"/><path fill="#FFF" d="M191.078 14.947h10.91c1.216 0 2.25.425 3.101 1.276.851.85 1.274 1.884 1.274 3.101s-.424 2.244-1.274 3.08c-.851.837-1.885 1.255-3.101 1.255h-10.91v-8.712zm0 12.943h12.652c1.215 0 2.25.425 3.101 1.276.851.85 1.274 1.884 1.274 3.101s-.424 2.244-1.274 3.08c-.851.837-1.886 1.255-3.101 1.255h-12.652V27.89zm12.652 12.963c2.377 0 4.41-.836 6.098-2.51 1.688-1.673 2.529-3.699 2.529-6.077a8.36 8.36 0 0 0-1.058-4.138 8.61 8.61 0 0 0-2.883-3.08c1.465-1.646 2.198-3.554 2.198-5.725 0-2.378-.844-4.411-2.53-6.098-1.688-1.687-3.72-2.531-6.099-2.531h-15.161v30.158l16.906.001zm-47.725-5.642a12.592 12.592 0 0 0 4.615 4.625c1.942 1.133 4.055 1.701 6.336 1.701 2.282 0 4.394-.567 6.337-1.701a12.63 12.63 0 0 0 4.615-4.625c1.133-1.95 1.699-4.065 1.699-6.347V10.695h-4.23v18.169c0 2.309-.826 4.29-2.479 5.942-1.653 1.652-3.633 2.479-5.942 2.479s-4.286-.826-5.933-2.479c-1.646-1.653-2.467-3.633-2.467-5.942V10.695h-4.252v18.169c.001 2.282.567 4.398 1.701 6.347zm-30.032 5.642V27.89h16.82v12.963h4.252V10.695h-4.252v12.963h-16.82V10.695h-4.252v30.158h4.252z"/><path fill="#D1001C" d="M216.344 76.396h.891V59.689h-.891v16.707zm-6.528-5.923v2.739a2.232 2.232 0 0 1-.322.991c-.188.305-.438.568-.758.791s-.688.4-1.104.535a4.363 4.363 0 0 1-1.337.199c-.489 0-.946-.07-1.37-.211a3.941 3.941 0 0 1-1.113-.568 2.815 2.815 0 0 1-.758-.835 1.98 1.98 0 0 1-.277-1.015c0-.356.104-.693.312-1.014.207-.318.489-.598.847-.835a4.49 4.49 0 0 1 1.258-.567c.483-.141 1-.211 1.55-.211h3.072v.001zm-6.437-3.7c.326-.207.729-.4 1.203-.578.475-.18 1.047-.269 1.715-.269.49 0 .947.056 1.37.167.424.111.795.29 1.114.534.318.246.57.558.757.937s.278.828.278 1.348v.669h-3.073c-.669 0-1.296.093-1.884.278a5.415 5.415 0 0 0-1.547.758 3.676 3.676 0 0 0-1.047 1.113c-.254.424-.379.879-.379 1.369s.113.946.344 1.371c.231.424.547.795.947 1.112.4.319.868.571 1.403.758a5.153 5.153 0 0 0 1.715.278c.356 0 .709-.044 1.06-.135.349-.088.676-.207.979-.354s.582-.323.835-.524c.252-.199.469-.403.646-.611v1.402h.892v-7.484c0-.639-.115-1.202-.347-1.691a3.346 3.346 0 0 0-.945-1.215 4.231 4.231 0 0 0-1.402-.725 5.856 5.856 0 0 0-1.717-.244c-.771 0-1.459.111-2.061.334-.603.223-1.104.482-1.504.779l.648.623zm-10.047-.623h2.005v7.129c0 .43.082.835.245 1.213a3.133 3.133 0 0 0 1.66 1.66c.378.164.783.244 1.214.244v-.892a2.15 2.15 0 0 1-1.582-.646 2.154 2.154 0 0 1-.646-1.582V66.15h2.228v-.89h-2.228v-4.678l-.893.223v4.455h-2.005l.002.89zm-3.876 3.075c0-.578-.11-1.121-.334-1.627a4.277 4.277 0 0 0-2.227-2.225 3.991 3.991 0 0 0-1.625-.334c-.832 0-1.567.196-2.205.59-.64.394-1.151.91-1.537 1.549V65.26h-.893v11.139h.893V69.67c0-.52.1-1.006.301-1.459.199-.453.471-.85.812-1.191.34-.34.738-.608 1.191-.803a3.66 3.66 0 0 1 1.438-.289 3.272 3.272 0 0 1 3.041 2.006c.17.4.256.83.256 1.291v7.174h.891l-.002-7.174zm-16.94-2.952c.481.229.901.545 1.258.945.357.401.639.872.848 1.415.207.541.334 1.125.378 1.748h-8.22a5.85 5.85 0 0 1 .39-1.748 4.755 4.755 0 0 1 .858-1.415c.354-.4.774-.716 1.258-.945.482-.23 1.021-.347 1.615-.347s1.131.117 1.615.347zm-3.232 9.111a3.943 3.943 0 0 1-1.259-.946 4.74 4.74 0 0 1-.857-1.414 5.895 5.895 0 0 1-.391-1.75h9.111v-.444c0-.802-.123-1.556-.367-2.261s-.584-1.317-1.021-1.838-.963-.933-1.578-1.236c-.615-.305-1.293-.456-2.033-.456s-1.418.151-2.033.456-1.142.717-1.578 1.236c-.438.521-.778 1.133-1.022 1.838s-.366 1.459-.366 2.261c0 .803.122 1.557.367 2.262s.587 1.318 1.023 1.839c.438.52.967.932 1.582 1.235a4.55 4.55 0 0 0 2.039.456c.979 0 1.812-.196 2.494-.592a5.928 5.928 0 0 0 1.782-1.592l-.69-.602a5.624 5.624 0 0 1-1.48 1.369c-.559.35-1.259.523-2.105.523a3.707 3.707 0 0 1-1.618-.344zm-5.958-10.347c-1.129 0-2.031.244-2.706.734-.677.489-1.17 1.145-1.481 1.961V65.26h-.892v11.139h.892V70.45c0-.652.09-1.255.268-1.804a4.036 4.036 0 0 1 .791-1.426 3.648 3.648 0 0 1 1.304-.947c.521-.229 1.128-.346 1.826-.346l-.002-.89zm-16.842 0c-1.129 0-2.03.244-2.705.734-.678.489-1.17 1.145-1.481 1.961V65.26h-.892v11.139h.892V70.45c0-.652.089-1.255.267-1.804.18-.551.442-1.024.791-1.426.35-.402.783-.717 1.305-.947.52-.229 1.128-.346 1.826-.346v-.891h-.003zm-11.539 5.436v2.739a2.23 2.23 0 0 1-.321.991 2.646 2.646 0 0 1-.758.791c-.32.223-.687.4-1.103.535a4.365 4.365 0 0 1-1.338.199c-.49 0-.945-.07-1.369-.211a3.915 3.915 0 0 1-1.113-.568 2.788 2.788 0 0 1-.758-.835 1.972 1.972 0 0 1-.278-1.015c0-.356.104-.693.312-1.014.207-.318.489-.598.846-.835s.776-.428 1.26-.567a5.491 5.491 0 0 1 1.549-.211h3.071v.001zm-6.436-3.7c.326-.207.728-.4 1.203-.578.476-.18 1.047-.269 1.715-.269.49 0 .947.056 1.37.167.424.111.795.29 1.114.534.319.246.571.558.757.937s.277.828.277 1.348v.669h-3.072c-.669 0-1.296.093-1.883.278a5.414 5.414 0 0 0-1.549.758c-.445.318-.795.689-1.047 1.113s-.379.879-.379 1.369.114.946.346 1.371a3.6 3.6 0 0 0 .947 1.112c.399.319.867.571 1.402.758a5.149 5.149 0 0 0 1.715.278 4.19 4.19 0 0 0 1.059-.135c.35-.088.677-.207.98-.354.305-.147.582-.323.835-.524.253-.199.468-.403.646-.611v1.402h.893v-7.484c0-.639-.115-1.202-.346-1.691a3.36 3.36 0 0 0-.946-1.215 4.227 4.227 0 0 0-1.403-.725 5.847 5.847 0 0 0-1.715-.244c-.773 0-1.46.111-2.062.334-.603.223-1.103.482-1.503.779l.646.623zm-5.816 7.642a4.43 4.43 0 0 1-3.186 1.314 4.477 4.477 0 0 1-1.771-.354 4.418 4.418 0 0 1-1.459-1.003 4.662 4.662 0 0 1-.979-1.548c-.237-.603-.356-1.267-.356-1.994s.119-1.394.356-1.994.563-1.117.979-1.547a4.36 4.36 0 0 1 1.459-1.003 4.478 4.478 0 0 1 1.771-.355c1.277 0 2.34.438 3.186 1.313l.646-.624a5.127 5.127 0 0 0-1.716-1.169 5.394 5.394 0 0 0-2.116-.412c-.757 0-1.467.142-2.127.423a5.21 5.21 0 0 0-1.727 1.191c-.491.512-.881 1.121-1.17 1.826s-.435 1.488-.435 2.351.146 1.646.435 2.351a5.8 5.8 0 0 0 1.17 1.827c.49.513 1.064.909 1.727 1.191.66.28 1.37.423 2.127.423.758 0 1.463-.139 2.116-.412s1.226-.665 1.716-1.169l-.646-.626zM99.951 62.809h.891v-2.227h-.891v2.227zm0 13.587h.891V65.26h-.891v11.136zm-5.636-7.171c0-.578-.111-1.121-.334-1.627a4.33 4.33 0 0 0-.902-1.324c-.378-.379-.82-.68-1.325-.901s-1.047-.334-1.626-.334c-.832 0-1.567.196-2.205.59a4.573 4.573 0 0 0-1.537 1.549V65.26h-.892v11.139h.892V69.67c0-.52.1-1.006.301-1.459a3.8 3.8 0 0 1 2.004-1.994 3.66 3.66 0 0 1 1.437-.289 3.277 3.277 0 0 1 3.041 2.006c.17.4.256.83.256 1.291v7.174h.891l-.001-7.174zm-15.481-6.416h.891v-2.227h-.891v2.227zm0 13.587h.891V65.26h-.891v11.136zm-4.188-11.359c-1.128 0-2.031.244-2.707.734-.676.489-1.169 1.145-1.481 1.961V65.26h-.891v11.139h.891V70.45a5.8 5.8 0 0 1 .268-1.804 4.036 4.036 0 0 1 .791-1.426c.35-.402.783-.717 1.303-.947.52-.229 1.128-.346 1.827-.346l-.001-.89zm-19.692 3.797a4.64 4.64 0 0 1 .98-1.547c.416-.432.902-.766 1.459-1.003s1.147-.356 1.771-.356 1.214.119 1.771.356 1.043.571 1.459 1.003c.416.43.742.945.98 1.547.237.602.356 1.268.356 1.994 0 .729-.119 1.393-.356 1.994-.238.602-.564 1.117-.98 1.548s-.902.765-1.459 1.003c-.557.236-1.147.355-1.771.355s-1.214-.119-1.771-.355c-.557-.238-1.043-.572-1.459-1.003s-.743-.946-.98-1.548a5.376 5.376 0 0 1-.356-1.994c0-.726.118-1.392.356-1.994zm-.813 4.346c.29.705.679 1.312 1.169 1.826.49.512 1.065.909 1.727 1.191.661.281 1.37.423 2.127.423s1.466-.142 2.127-.423a5.186 5.186 0 0 0 1.726-1.191c.49-.514.88-1.121 1.169-1.826.289-.707.435-1.49.435-2.352 0-.862-.145-1.645-.435-2.35s-.679-1.314-1.169-1.828c-.49-.512-1.065-.908-1.726-1.19s-1.37-.423-2.127-.423-1.467.141-2.127.423a5.197 5.197 0 0 0-1.727 1.19c-.491.513-.88 1.123-1.169 1.828s-.435 1.487-.435 2.35c0 .861.146 1.645.435 2.352zm-9.099-7.03h2.005v7.129c0 .43.081.835.245 1.213.164.379.386.71.668.992.282.281.613.504.991.668a3.02 3.02 0 0 0 1.214.244v-.892a2.15 2.15 0 0 1-1.582-.646 2.154 2.154 0 0 1-.646-1.582V66.15h2.228v-.89h-2.228v-4.678l-.891.223v4.455h-2.005l.001.89zm-3.877 3.075c0-.578-.111-1.121-.334-1.627a4.29 4.29 0 0 0-2.228-2.225 4.012 4.012 0 0 0-1.626-.334c-.832 0-1.567.196-2.206.59s-1.151.91-1.537 1.549V65.26h-.891v11.139h.891V69.67c0-.52.101-1.006.301-1.459a3.812 3.812 0 0 1 2.005-1.994 3.663 3.663 0 0 1 1.437-.289 3.277 3.277 0 0 1 3.041 2.006c.17.4.256.83.256 1.291v7.174h.891v-7.174zm-15.281 1.248v2.739c-.03.356-.138.687-.323.991a2.642 2.642 0 0 1-.757.791c-.319.223-.687.4-1.103.535a4.36 4.36 0 0 1-1.336.199c-.49 0-.947-.07-1.37-.211a3.947 3.947 0 0 1-1.114-.568 2.758 2.758 0 0 1-.757-.835 1.983 1.983 0 0 1-.279-1.015c0-.356.104-.693.312-1.014s.49-.598.847-.835a4.517 4.517 0 0 1 1.258-.567 5.494 5.494 0 0 1 1.548-.211h3.074v.001zm-6.438-3.7c.327-.207.728-.4 1.203-.578.475-.18 1.047-.269 1.715-.269.49 0 .947.056 1.37.167.423.111.794.29 1.114.534.319.246.572.558.758.937s.278.828.278 1.348v.669H22.81a6.22 6.22 0 0 0-1.882.278 5.447 5.447 0 0 0-1.548.758c-.445.318-.794.689-1.047 1.113s-.378.879-.378 1.369.115.946.345 1.371c.23.424.545.795.947 1.112.401.319.869.571 1.403.758a5.153 5.153 0 0 0 1.715.278c.356 0 .709-.044 1.058-.135a5.15 5.15 0 0 0 .98-.354c.304-.147.583-.323.835-.524.252-.199.468-.403.646-.611v1.402h.891v-7.484c0-.639-.115-1.202-.345-1.691a3.34 3.34 0 0 0-.947-1.215 4.236 4.236 0 0 0-1.403-.725 5.857 5.857 0 0 0-1.715-.244c-.772 0-1.459.111-2.061.334s-1.103.482-1.504.779l.646.623zM1.714 72.275c0 .625.16 1.207.479 1.75a4.643 4.643 0 0 0 1.314 1.414 6.932 6.932 0 0 0 1.949.957 7.791 7.791 0 0 0 2.383.356c.847 0 1.641-.106 2.384-.323a6.686 6.686 0 0 0 1.949-.9 4.338 4.338 0 0 0 1.314-1.415 3.636 3.636 0 0 0 .479-1.839c0-.668-.16-1.254-.479-1.76a4.18 4.18 0 0 0-1.314-1.291 8.082 8.082 0 0 0-1.949-.881 17.226 17.226 0 0 0-2.384-.546 11.961 11.961 0 0 1-1.827-.399 6.715 6.715 0 0 1-1.526-.67 3.38 3.38 0 0 1-1.046-.968 2.246 2.246 0 0 1-.39-1.304c0-.504.126-.965.378-1.381.252-.416.594-.77 1.025-1.059a5.04 5.04 0 0 1 1.515-.668c.579-.156 1.203-.234 1.871-.234s1.292.09 1.872.268c.579.18 1.083.416 1.515.713.431.299.772.65 1.024 1.059.252.41.379.844.379 1.304h.891c0-.578-.148-1.128-.446-1.647a4.355 4.355 0 0 0-1.214-1.349 6.171 6.171 0 0 0-1.804-.901c-.691-.224-1.43-.334-2.217-.334s-1.526.101-2.216.301a5.84 5.84 0 0 0-1.804.856 4.23 4.23 0 0 0-1.214 1.337c-.297.52-.445 1.098-.445 1.736s.148 1.195.445 1.671.705.884 1.225 1.226 1.121.621 1.805.836c.683.215 1.418.383 2.205.5.728.119 1.407.271 2.039.457a7.04 7.04 0 0 1 1.66.713c.475.289.85.632 1.125 1.025.275.393.412.857.412 1.393s-.137 1.023-.412 1.47-.649.823-1.125 1.137a5.72 5.72 0 0 1-1.66.724c-.631.172-1.311.258-2.039.258s-1.407-.094-2.038-.279a5.794 5.794 0 0 1-1.66-.768 3.919 3.919 0 0 1-1.125-1.148 2.57 2.57 0 0 1-.412-1.393h-.891v-.004z"/></svg>