<svg version="1.1" id="Layer_1" xmlns="http://www.w3.org/2000/svg" x="0" y="0" width="129" height="128" viewBox="0 0 129 128" xml:space="preserve"><path fill="#DEDF39" d="M100.653 3.492c2.123 0 6.138 1.55 6.138 7.416 0 1.082.004 4.002.01 8.232.003 1.09.752 3.153 3.568 3.153.275 0 .628-.016 1.046-.038a32.032 32.032 0 0 1 1.71-.055c1.981 0 6.544 0 9.588 5.03a14.71 14.71 0 0 0-7.715-2.222c-2.95 0-5.741.886-7.111 2.258-.889.89-1.074 1.837-1.073 2.477.03 19.053.085 47.166.122 66.122.022 11.447.038 19.554.038 20.308 0 .27.013.6.029.977.069 1.63.187 4.356-1.233 5.839-.967 1.009-2.688 1.521-5.115 1.521H8.361c-3.721 0-5.042-4.783-5.042-8.879V9.996c0-2.208 1.779-6.504 5.042-6.504h92.292m0-3H8.361C3.243.492.319 6.158.319 9.996v105.633c0 7.127 3.106 11.879 8.042 11.879h92.293c10.783 0 9.319-8.777 9.319-11.336 0-2.002-.111-55.874-.16-86.434-.001-.589 2.21-1.73 5.184-1.73 4.483 0 10.699 2.593 13.684 13.572 0-20.511-10.138-22.38-15.556-22.38-1.208 0-2.182.093-2.756.093-.364 0-.568-.038-.568-.16-.006-4.225-.01-7.144-.01-8.225 0-7.676-5.483-10.416-9.138-10.416z"/><path fill="#2C323B" d="M29.845 49.841v-5.945H10.523v23.782h19.322v-5.946H17.211v-2.973h11.147v-5.945H17.211v-2.973h12.634m70.512-32.47v-5.946H81.035v23.782h6.689v-8.918h11.147v-5.946H87.724v-2.972h12.633"/><path fill="#2B313A" d="M72.308 26.614c3.079-1.044 5.299-3.952 5.299-7.385a7.804 7.804 0 0 0-7.803-7.804c-.127 0-.248.014-.372.019v-.019H56.798v23.781H78.35l-6.042-8.592m-3.248-5.527h-5.574V17.37h5.574a1.859 1.859 0 0 1 0 3.717zM48.556 59.083a7.799 7.799 0 0 0 5.299-7.385 7.804 7.804 0 0 0-7.803-7.803c-.127 0-.248.013-.372.019v-.019H33.046v23.782h21.55l-6.04-8.594m-3.248-5.526h-5.573v-3.716h5.573a1.857 1.857 0 1 1 0 3.716z"/><path fill="#2C323B" d="M27.913 23.316c-1.762-1.805-4.013-2.229-7.729-2.973-1.609-.321-2.973-.831-2.973-1.857 0-1.025 1.331-1.857 2.973-1.857s2.973.832 2.973 1.857h6.675c-.251-3.932-4.475-7.061-9.648-7.061-5.335 0-9.661 3.328-9.661 7.432 0 1.674.72 3.217 1.933 4.459 1.762 1.805 4.756 2.23 7.729 2.973 1.593.398 2.973.832 2.973 1.858s-1.332 1.858-2.973 1.858-2.973-.832-2.973-1.858c0-.128.021-.251.061-.372h-6.749c0 4.105 4.326 7.432 9.661 7.432 5.336 0 9.661-3.326 9.661-7.432-.001-1.673-.72-3.217-1.933-4.459m46.391 32.607c-1.762-1.805-4.012-2.229-7.728-2.973-1.61-.322-2.974-.832-2.974-1.857 0-1.026 1.332-1.857 2.974-1.857s2.972.831 2.972 1.857h6.676c-.25-3.932-4.475-7.061-9.647-7.061-5.336 0-9.661 3.328-9.661 7.432 0 1.674.719 3.217 1.932 4.459 1.764 1.805 4.756 2.229 7.729 2.973 1.593.398 2.972.832 2.972 1.858s-1.33 1.858-2.972 1.858-2.974-.832-2.974-1.858c0-.128.021-.252.061-.372h-6.748c0 4.105 4.325 7.432 9.661 7.432 5.335 0 9.661-3.327 9.661-7.432-.001-1.674-.72-3.216-1.934-4.459M46.909 11.425v13.377a4.088 4.088 0 1 1-8.176 0V11.425h-6.688v13.006c0 5.951 4.824 10.775 10.775 10.775s10.775-4.824 10.775-10.775V11.425h-6.686"/><path fill="#010101" d="M26.985 111.422a12.423 12.423 0 0 0-8.819-3.657 12.439 12.439 0 0 0-8.817 3.647l-.01.01.707.707.01-.01a11.434 11.434 0 0 1 8.11-3.354c2.938 0 5.871 1.121 8.111 3.364l.708-.707z"/><path fill="#010101" d="M24.164 114.242a8.454 8.454 0 0 0-5.999-2.486 8.45 8.45 0 0 0-5.992 2.48l.354.354-.312-.391-.007.006.625.781.007-.006.021-.018.02-.02a7.448 7.448 0 0 1 5.285-2.188c1.917 0 3.83.73 5.292 2.193l.706-.705zm-8.47 3.533a3.48 3.48 0 0 1 2.47-1.023c.895.001 1.785.34 2.468 1.021l.02.02.024.02.625-.781-.002-.002-.312.391.354-.354a4.476 4.476 0 0 0-3.175-1.314 4.481 4.481 0 0 0-3.177 1.316l.705.706z"/><path fill="#0095DA" d="M56.798 11.425h6.555v23.781h-6.555zm24.287 0h6.555v23.781h-6.555zM33.046 44.033h6.555v23.782h-6.555z"/></svg>