<svg version="1.1" id="Layer_1" xmlns="http://www.w3.org/2000/svg" x="0" y="0" width="129" height="128" viewBox="0 0 129 128" xml:space="preserve"><path fill="#DEDF39" d="M100.653 3.492c2.123 0 6.138 1.55 6.138 7.416 0 1.082.004 4.002.01 8.232.003 1.09.752 3.153 3.568 3.153.275 0 .628-.016 1.046-.038a32.032 32.032 0 0 1 1.71-.055c1.981 0 6.544 0 9.588 5.03a14.71 14.71 0 0 0-7.715-2.222c-2.95 0-5.741.886-7.111 2.258-.889.89-1.074 1.837-1.073 2.477.03 19.053.085 47.166.122 66.122.022 11.447.038 19.554.038 20.308 0 .27.013.6.029.977.069 1.63.187 4.356-1.233 5.839-.967 1.009-2.688 1.521-5.115 1.521H8.361c-3.721 0-5.042-4.783-5.042-8.879V9.996c0-2.208 1.779-6.504 5.042-6.504h92.292m0-3H8.361C3.243.492.319 6.158.319 9.996v105.633c0 7.127 3.106 11.879 8.042 11.879h92.293c10.783 0 9.319-8.777 9.319-11.336 0-2.002-.111-55.874-.16-86.434-.001-.589 2.21-1.73 5.184-1.73 4.483 0 10.699 2.593 13.684 13.572 0-20.511-10.138-22.38-15.556-22.38-1.208 0-2.182.093-2.756.093-.364 0-.568-.038-.568-.16-.006-4.225-.01-7.144-.01-8.225 0-7.676-5.483-10.416-9.138-10.416z"/></svg>