<svg version="1.1" id="Layer_1" xmlns="http://www.w3.org/2000/svg" x="0" y="0" width="221" height="177" viewBox="0 0 221 177" xml:space="preserve"><path fill-rule="evenodd" clip-rule="evenodd" fill="#231F20" d="M119.673 74.864c.079 1 .925 1.377 1.557 1.783 4.049 2.604 8.482 4.299 13.171 5.365 1.309.297 1.824-.627 2.386-1.418.968-1.367 1.863-2.752 3.448-3.539 3.286-1.631 7.776-.314 10.094 2.223 1.707 1.867 2.341 4.046 2.063 6.531-.029.261-.061.554.268.942.471-1.836.98-3.542 1.341-5.278 1.219-5.875 2.237-11.782 2.653-17.775.158-2.279.255-4.564.356-6.848.045-1.017-.394-1.246-1.567-.91 0 0-.146-1.977 1.101-1.811 1.247.168 3.713 1.014 5.398 1.945.586.324.398 1.123.644 2.016-1.425-.85-2.518-1.692-4.007-1.963-.076 1.526-.17 3.077-.226 4.629-.191 5.322-.847 10.591-1.83 15.82-.885 4.699-1.846 9.38-3.193 13.977-.467 1.593.034 3.238-.002 4.864-.093 4.202-.855 8.229-2.531 12.11-1.144 2.65-2.562 5.078-4.421 7.289-.485.578-.514 1.523-.812 2.275-2.447 6.148-4.544 12.42-6.671 18.684-1.074 3.162-2.224 6.301-3.323 9.457-.033.094.222 1.1-.628.652-.548-.287-1.135-.369-.763-1.35.973-2.566 1.755-5.203 2.646-7.801 1.602-4.664 3.219-9.323 4.847-13.978.317-.907 1-1.673.963-2.747.641.226.438.904.947 1.186.306-.867-.444-1.525-.358-2.357.197-1.917 1.048-3.617 1.638-5.387 1.95-5.854 3.184-11.846 4.044-17.945.354-2.517 1.143-4.971 1.681-7.464.44-2.044.615-4.089-.338-6.073-1.679-3.496-7.659-6.016-10.962-2.22-1.74 1.999-2.769 4.394-3.345 6.935-1.031 4.549-2.002 9.115-2.84 13.703a72.293 72.293 0 0 0-1.123 10.859c-.09 3.01-.268 6.02-.452 9.025-.194 3.182-.354 6.367-.69 9.535-.411 3.873-.861 7.748-1.739 11.553-.045.195.097.783-.446.521-.488-.236-1.178-.361-1.008-1.217.206-1.033.336-2.084.521-3.123.75-4.189 1.149-8.416 1.285-12.666.011-.324.175-.699.291-.701.358-.011.539.387.786.626.076-.091.157-.179.152-.184-1.443-1.498-.93-3.378-.915-5.121.005-.601-.097-.708-.601-.839-4.704-1.232-9.367-2.621-13.705-4.85-3.019-1.549-5.771-3.529-8.253-5.877-3.099-2.927-5.93-6.113-8.967-9.098-1.531-1.506-3.001-3.086-4.633-4.474-.555-.472-1.164-.962-1.82-1.37-1.458-.91-1.585-2.515-1.597-4.082-.022-3.176.952-6.156 1.829-9.153.186-.634-.803-2.327-1.445-2.433-.654-.106-.455.494-.492.729-.307 1.897-.853 3.727-1.48 5.535a56.02 56.02 0 0 1-3.162 7.389c-2.318 4.475-4.934 8.777-7.516 13.102-1.384 2.315-2.536 4.77-3.764 7.176-.302.591-.544.801-1.256.467-.73-.342-.424-.621-.211-1.066 1.912-4.008 4.216-7.797 6.481-11.607 2.448-4.117 4.894-8.246 6.737-12.672 1.698-4.08 2.875-8.324 3.123-12.772.023-.409.096-.802.246-1.14.134-.3.562-.271.863-.176.455.147.57.553.479.966-.246 1.122-.113 1.917.921 2.787 2.459 2.068 4.181 4.811 6.033 7.415.19.267.269.758.704.67.309-.062.38-.457.508-.754 1.57-3.635 3.045-7.301 3.898-11.185.453-2.06.734-4.143.751-6.251.003-.453-.22-.88-.71-1.158-3.604-2.044-7.244-4.028-10.807-6.15a9.372 9.372 0 0 0-3.433-1.193c-1.761-.257-3.073.498-4.231 1.611-1.713 1.646-2.725 3.746-3.562 5.932-1.803 4.697-2.815 9.65-4.736 14.318-2.65 6.447-4.371 13.214-6.521 19.834-1.019 3.137-2.146 6.238-3.228 9.363-1.371-.672-1.338-.661-.713-2.443 1.551-4.428 2.847-8.938 4.238-13.417 1.479-4.759 3.261-9.415 4.982-14.092 1.518-4.123 2.354-8.461 3.828-12.604.88-2.473 1.934-4.833 3.654-6.864 3.159-3.734 5.758-3.631 9.621-1.885a98.324 98.324 0 0 1 14.037 7.793c3.867 2.574 7.231 5.666 10.37 9.049.578.621 1.306 1.095 1.816 1.84.16-1.648-.181-3.197-.447-4.754-.676-3.939-1.65-7.777-3.756-11.238-.547-.898-1.134-1.762-1.914-2.479-1.846-1.7-2.448-3.958-2.818-6.313-.208-1.324-.38-2.65-.69-3.961-.432-1.823-.566-1.908-2.237-1.223-3.549 1.455-7.12 2.865-10.788 3.986-2.91.891-5.901 1.516-8.81 2.412-2.189.674-4.196 1.824-5.971 3.268-2.854 2.322-5.972 4.202-9.308 5.699-3.824 1.715-7.669 3.379-11.442 5.203-.435.209-.793.63-1.187-.186-.379-.783.141-.855.561-1.092 3.807-2.141 7.836-3.811 11.802-5.613 3.28-1.492 6.257-3.449 9.021-5.744 2.133-1.771 4.723-2.611 7.306-3.315 4.665-1.271 9.301-2.593 13.791-4.403 2.006-.811 4.079-1.452 6.095-2.238 1.049-.41 1.58-.049 1.994.904.794 1.824.917 3.777 1.162 5.701.477 3.74 2.483 6.418 5.557 8.439.001.002 3.319 10.348 3.712 15.947zm-14.704-8.449c-.09 3.113-.711 6.012-1.72 8.818-1.323 3.686-2.612 7.387-4.087 11.012-.991 2.436-1.762 5.098-4.359 6.5-.367.197-.356.394.046.674.727.506 1.346 1.181 1.968 1.791 3.619 3.552 6.986 7.348 10.684 10.832 3.137 2.957 6.655 5.285 10.535 7.095 3.514 1.64 7.182 2.851 10.917 3.884.947.263 1.023-.078 1.042-.82.026-1.082.141-2.161.174-3.242.039-1.278.07-2.422-.727-3.693-2.803-4.477-2.811-9.436-1.598-14.383.976-3.982 2.986-7.513 5.592-10.683.475-.578.535-.73-.318-.944-2.502-.631-4.984-1.333-7.364-2.386-1.864-.825-3.544-1.985-5.412-2.843-.154.474.111.687.355.954.897.983 1.815 1.937 2.854 2.78.39.316.863.767.29 1.388-.579.628-.965.179-1.346-.21-1.203-1.227-2.57-2.281-3.599-3.696-.791-1.089-1.73-2.075-2.66-3.055-1.723-1.815-3.418-3.666-5.254-5.362-1.796-1.66-3.71-3.201-6.013-4.411zM91.684 89.138c-.012.197-.042.395-.028.59.008.109.106.21.134.322.432 1.814 1.053 2.092 2.512.961 1.327-1.027 1.967-2.579 2.776-3.998.396-.693.315-1.218-.134-1.83-.977-1.33-1.896-2.703-2.857-4.047-.125-.177-.354-.281-.533-.419-.158.218-.395.414-.461.657-.7 2.545-1.247 5.121-1.409 7.764zm40.333.161c-1.548 2.048-2.227 4.438-2.788 6.82-.824 3.493-.857 7.009.611 10.403.12.276.08.725.525.65.457-.076.209-.527.269-.799.35-1.59.263-3.232.635-4.834.324-1.4.4-2.83.21-4.314a14.133 14.133 0 0 1-.035-3c.147-1.644.344-3.281.573-4.926zm16.314 19.313c2.757-3.265 4.18-13.158 3.003-16.697-1.115 5.727-1.441 11.325-3.003 16.697z"/><path fill-rule="evenodd" clip-rule="evenodd" fill="#231F20" d="M37.584 72.747c-3.902.48-7.396-.629-10.643-2.722-.734-.474-1.252-1.161-1.828-1.79-.543-.594-.299-.984.381-1.193.958-.296 1.95-.244 2.934-.25 4.14-.026 8.291.145 12.414-.123 4.318-.279 8.4-1.477 12.008-4.108 3.506-2.559 6.742-5.438 10.146-8.116 2.8-2.205 5.733-4.218 8.827-5.973 2.98-1.691 5.935-3.403 8.695-5.441a65.332 65.332 0 0 1 12.368-7.21c2.831-1.255 5.34-3.06 8.052-4.515 1.859-.996 3.747-1.861 5.811-2.398 2.691-.699 5.389-.443 8.094-.359 1.571.049 1.527.066 1.254-1.532-.352-2.047-.737-4.095-.801-6.178-.039-1.306-.747-2.423-.958-3.681-.588-3.502.255-6.631 2.321-9.485 3.07-4.238 7.414-6.196 12.41-6.999a29.926 29.926 0 0 1 4.261-.398c.659-.011 1.228-.09 1.141.87-.035.385.237.454.642.411a44.77 44.77 0 0 1 3.695-.236c.585-.014 1.479-.082 1.707.244.908 1.299 2.363.978 3.54 1.42.514.193.648.558.756.96.111.419-.218.601-.554.777-.661.348-1.301.737-1.947 1.112-.272.158-.56.418-.525.684.039.299.439.258.712.293.313.041.635.059.938.139.438.117 1.037.56.928.786-.711 1.483 1.596 2.481.572 3.952.902 1.468.195 2.843-.209 4.252-.148.519.318.378.618.398.919.061 1.175.516.765 1.352-.778 1.584-1.514 3.182-1.914 4.913-.035.15-.201.308-.173.431.608 2.594-.78 4.397-2.402 6.104-.488.514-.054.502.287.658 1.619.74 3.372 1.031 5.067 1.495 3.147.86 5.994 2.376 8.853 3.855 3.513 1.818 6.877 3.911 10.127 6.157 2.637 1.823 5.104 3.893 7.533 5.992 1.638 1.416 3.362 2.74 4.908 4.248.929.908 5.116 5.048 5.598 5.559 4.207 4.466 7.918 9.327 11.18 14.511 1.98 3.147 3.287 6.646 4.51 10.147 2.313 6.637 4.533 13.314 7.462 19.706 2.288 4.993 4.929 9.826 7.07 14.89 1.251 2.96 2.885 5.783 3.847 8.817.573 1.804 1.348 3.497 1.985 5.256.067.187.09.411.21.55.824.951-.247 1.461-.515 2.141-.085.215-.371.197-.44-.176-.559-3.02-1.994-5.709-3.186-8.494-1.669-3.903-3.554-7.707-5.131-11.656-1.062-2.657-2.665-5.094-3.899-7.689-1.908-4.016-3.664-8.104-5.204-12.274-1.188-3.216-2.256-6.476-3.355-9.724-1.673-4.945-3.756-9.707-6.775-13.978-2.959-4.185-6.152-8.199-9.635-11.968-.988-1.07-2.087-2.037-3.136-3.05-.17-.164-2.323-2.349-3.075-2.901-1.122-.825-2.114-1.824-3.193-2.711-2.787-2.288-5.618-4.521-8.597-6.559a96.394 96.394 0 0 0-10.95-6.477c-1.967-.994-4.087-1.621-6.187-2.258-2.112-.641-4.204-1.33-6.258-2.135-.252-.098-.544-.4-.728-.117-.749 1.152-2.022 1.802-2.724 3.017-1.714 2.97-3.509 5.913-6.635 7.64-1.661.916-3.406 1.59-5.355 1.845-2.125.278-3.322-.888-4.367-2.309-1.599-2.175-2.542-4.677-3.214-7.284-.305-1.18-.253-2.718-1.176-3.389-.854-.621-2.271-.311-3.458-.338-2.897-.066-5.7.146-8.426 1.24-2.177.874-4.127 2.156-6.205 3.203-2.999 1.511-5.98 3.055-8.971 4.582-3.082 1.574-5.8 3.707-8.648 5.637-3.4 2.303-6.93 4.371-10.582 6.246-2.202 1.131-4.152 2.663-6.057 4.243-3.824 3.172-7.33 6.733-11.594 9.363-3.418 2.106-7.119 3.105-11.123 3.433-3.049.25-6.092.135-9.134.318-.716.044-1.449-.164-2.469.154 3.007.428 5.767.42 8.459.983-3.262.358-6.481-.039-9.948-.66 1.379 1.313 2.919 1.71 4.395 2.075 1.76.437 3.586.63 5.393.846 1.54.185 1.729.342 1.775 2.109-.527-.135-.545-.613-.723-.962-.479-.933-.783-.963-1.656-.164l.034-.034zM142.292 8.306a5.612 5.612 0 0 0-2.722.152c-.46.14-.811-.051-.987-.4-.169-.332-.137-.656.174-1.055.739-.947 1.763-1.543 2.578-2.374.15-.153.524.06.457-.318-.054-.302-.376-.347-.546-.37-1.071-.152-2.338.07-3.178-.434-.969-.581-1.762-.516-2.715-.374-.992.147-2 .186-2.996.308-.586.07-1.006-.192-.894-.723.178-.842-.318-.703-.785-.716-1.065-.029-2.08.276-3.104.488-5.48 1.132-9.354 4.215-11.33 9.509-.706 1.893-.648 3.831-.113 5.908.588-.468.984-.846 1.468-1.127.64-.372 1.017-.594 1.396.366.328.831 1.055 1.554 2.041 1.606 2.658.139 5.313.674 7.883-.815 1.716-.995 3.218-.183 4.132 1.614.952 1.875 1.668 3.845 3.368 5.352.898.797.922.22 1.288-.182.13-.144.191-.346.311-.501.942-1.22 2.541-1.048 3.199.353.244.521.431 1.07.685 1.709.493-.782.933-1.42.43-2.263-.168-.28-.072-.612.034-.927.509-1.49.725-3.084 1.68-4.434-1.863-.373-2.066-.771-1.394-2.523.196-.51.416-1.016.551-1.542.069-.271.475-.502.142-.852-.497-.521-.322-1.075-.085-1.648.313-.754.216-1.204-.761-1.347-.581-.084-1.029-.57-.634-1.32.177-.337.277-.716.427-1.12zM116.698 20.06c.222 1.957.445 3.857.7 5.756.614 4.577 1.848 8.967 4.019 13.029 1.418 2.655 3.969 3.605 6.888 2.17 2.648-1.303 4.48-3.506 6.285-5.733 1.126-1.391 1.756-3.071 3.27-4.29 1.304-1.051 2.253-2.766 2.103-4.705-.024-.314.131-.813-.383-.875-.399-.049-.706.211-.868.601-.245.589-.78.981-1.036 1.584-.14.327-.546.554-1.001.495-.534-.068-.688-.652-.619-.865.22-.684-.27-1.088-.538-1.467-1.08-1.52-2.377-2.886-3.124-4.635-.7-1.639-1.455-2.076-3.152-1.416-2.951 1.147-5.935.668-8.905.363-.896-.093-2.004-.297-2.377-1.453-.107-.334-.297-.456-.623-.286-.306.158-.658.271-.64.726.013.349.001.701.001 1.001z"/><path fill-rule="evenodd" clip-rule="evenodd" fill="#231F20" d="M197.528 125.243c1.385-.93 1.543-2.412 2.235-3.559 1.27-2.104 2.606-2.355 4.512-.692 1.731 1.511 3.093 3.377 4.758 4.948 1.373 1.297 2.693 2.66 4.391 3.573.785.423 1.302 1.126 1.557 2.001.059.199.124.408-.095.52-.186.094-.394.029-.542-.125-.108-.113-.222-.236-.281-.377-.584-1.375-1.529-1.883-3.09-1.812-.937.043-1.528-1.107-2.145-1.822-1.668-1.934-3.264-3.932-5.223-5.588-.382-.322-.864-.537-1.323-.755-.497-.237-.896-.083-1.133.427-.49 1.055-.956 2.121-1.47 3.163-.542 1.101-1.34 1.895-2.583 2.239-.904.252-1.267-.029-1.238-.918.06-1.901.732-3.668 1.191-5.484.904-3.581 2.207-7.035 3.313-10.551.419-1.331.054-2.315-.483-3.33-2.146-4.059-4.405-8.054-6.841-11.951-2.511-4.017-4.741-8.178-6.518-12.59-.857-2.133-1.389-4.346-2.126-6.504-.854-2.508-2.22-4.42-4.851-5.445-3.249-1.266-6.467-2.672-9.186-4.965-2.192-1.851-5.75-5.537-7.774-7.555-.202-.203-1.03-2.146-.644-2.016 1.18.398 6.905 6.037 7.068 6.17 2.978 2.43 6.136 4.58 9.61 6.242.708.338 1.424.664 2.154.948 2.639 1.028 4.095 3.095 4.811 5.692 1.772 6.441 4.758 12.332 8.119 18.047 2.669 4.538 5.55 8.949 7.896 13.682.854 1.723.521 3.3.067 4.964-.918 3.374-2.439 6.541-3.396 9.901-.313 1.11-.614 2.223-.74 3.522zM37.549 72.781c1.463.166 1.611.687.84 3.129 1.504.044 2.623-.858 3.859-1.41 1.485-.662 3.005-1.248 4.65-1.224 1.631.023 3.104-.572 4.063-1.699.794-.934 2.216-1.191 2.566-2.585.118-.469 1.123-.933 1.374-1.204.381-.41 3.774-2.516 4.018-2.354.351.234 1.046.936.406 1.307-1.404.812-3.424 2.387-3.949 2.671-1.271.687-1.994 1.964-2.873 3.032-1.096 1.33-2.381 2.193-4.073 2.223-2.441.045-4.675.63-6.716 1.985-.869.577-1.902.753-2.914.87-1.375.16-2.115-.679-1.9-1.98.055-.328-.112-.693.121-1.02.521-.035.381.853 1.071.637l-.508-2.412-.035.034zm88.07-28.839c1.134-.051 1.952.62 2.8 1.137 1.222.745 2.511.941 3.522.076 1.844-1.576 3.932-1.735 6.211-1.598 1.729.104 3.503.053 5.139-.717.686-.322 1.322-.69 1.702-1.41.13-.245.231-.758.74-.49.446.234.554.562.456 1.104-.297 1.646-1.212 2.113-2.62 2.392-1.793.353-3.645.503-5.47.315-1.884-.193-3.536.367-5.18 1.149-.86.41-1.716.823-2.637 1.12-1.138.368-1.884-.067-2.558-.867-.383-.455-.783-.867-1.307-1.187-.328-.199-.848-.346-.798-1.024z"/><path fill-rule="evenodd" clip-rule="evenodd" fill="#231F20" d="M210.31 124.028c1.702 1.508 3.257 3.151 5.2 4.496l-2.655-5.707c2.429 2.639 4.327 5.588 5.456 8.994.13.393.363.973-.294 1.053-.698.088-1.51.145-1.895-.705a49.57 49.57 0 0 1-1.165-2.729c-.179-.468-.389-.737-.943-.659-.208.029-.552-.059-.646-.209-.962-1.549-2.556-2.665-3.058-4.534zM42.256 72.032c-.338-.471-.774-1.059-.441-1.493.459-.599 1.2-.989 2.012-1.081.268-.029.491.111.447.41-.07.482-.34.063-.5.062-.42-.002-.787.053-1.027.441-.113.182-.45.325-.223.578.232.26.395.041.529-.183.153-.254.393-.501.629-.149.181.271-.208.353-.355.494-.332.318-.695.601-1.071.921zm-.679.244c.012.455-.418.547-.698.624-.519.142-.491-.382-.569-.673-.127-.479.255-.602.611-.653.501-.073.497.384.656.702zm79.119-61.268c.743-3.105 5.196-6.72 8.92-7.036-3.509 1.951-6.855 3.689-8.92 7.036zm8.187 2.163c2.161-2.082 4.33-4.133 6.408-6.281-1.279 2.957-3.598 4.877-6.408 6.281zm-3.942-3.717c1.399-2.642 3.623-4.099 6.624-4.412-2.453 1.109-4.64 2.599-6.624 4.412zm3.57 5.399c2.331-1.423 4.198-3.381 6.308-5.045-1.536 2.377-3.763 3.92-6.308 5.045zm12.259 4.596c-.454 1.786-1.686 2.976-3.13 4.001.963-1.391 2.351-2.463 3.13-4.001zm-2.023-2.149c-.234 1.115-.775 1.986-1.917 2.361l1.917-2.361z"/><path fill="#FFF" d="M155.345 176.731C79.949 166.06 20.038 110.98.438 62.505c0 0 109.08 7.578 169.861 96.455-3.409 4.539-9.584 5.949-14.246 6.498 0 0 1.408 6.176-.708 11.273z"/><path fill="#231F20" d="M155.002 176.046l.075.043c.244.218.573.729-.148 1.155l-.104.034-1.889-.305-2.933-.472c-1.764-.254-3.52-.639-5.298-.986-1.776-.357-3.574-.688-5.36-1.142-7.195-1.603-14.505-3.767-21.869-6.368-14.731-5.198-29.639-12.395-43.901-21.616-14.268-9.198-27.941-20.351-40.165-33.277-6.094-6.476-11.817-13.396-17.02-20.733-2.625-3.652-5.041-7.46-7.377-11.316-2.247-3.91-4.458-7.852-6.337-11.961-.49-1.017-.976-2.036-1.405-3.082l-1.654-3.877c-.021-.104-.182-.309-.088-.33l.416.033.759.062 1.29.113 1.684.178c1.121.125 2.239.263 3.354.414 4.465.593 8.897 1.348 13.298 2.208 8.805 1.712 17.473 3.898 25.949 6.459 8.477 2.56 16.76 5.51 24.783 8.806a241.391 241.391 0 0 1 23.203 10.948c7.42 3.986 14.55 8.23 21.223 12.837 3.4 2.21 6.563 4.681 9.776 6.997l4.624 3.671 2.286 1.822c.753.614 1.471 1.265 2.203 1.892 11.737 10.03 21.751 20.747 29.938 31.434 2.049 2.67 3.917 5.387 5.818 7.986l.353.489.303.421.172.238c.038.079.176.16.059.235l-.656.799c-.135.159-.26.328-.41.472a13.47 13.47 0 0 1-1.845 1.648c-1.312.98-2.749 1.722-4.212 2.295-1.468.568-2.963.97-4.447 1.273-.742.157-1.484.274-2.222.383l-.448.062.076.452c.224 1.47.273 2.934.261 4.376l-.024.447-.047.59-.041.513s-.043.485-.241 1.123c-.183.637-.366 1.443-.711 2.051-.966 2.096-.92 1.076-.645-.241.047.149.48-3.209.376-3.217l.038-.476.02-.251.012-.143.006-.075.001-.009a3.56 3.56 0 0 0 .018-.475l-.004-.961c.02-.644-.073-1.291-.104-1.944l-.121-.978c-.018-.165-.048-.326-.075-.488l-.174-.927-.052-.253c.003-.069-.093-.211.039-.188l.508-.064.873-.111 1.009-.149a30.715 30.715 0 0 0 4.029-.915c2.65-.806 5.288-2.093 7.247-4.199.227-.231.556-.666.463-.541l-.339-.471-1.343-1.863-2.735-3.796c-.897-1.299-1.898-2.542-2.91-3.8l-3.053-3.826c-1.004-1.31-2.112-2.555-3.228-3.815l-3.366-3.83c-1.104-1.314-2.361-2.512-3.56-3.783l-3.673-3.808-3.897-3.709c-1.331-1.225-2.598-2.541-4.012-3.716-2.791-2.39-5.542-4.915-8.546-7.219-1.484-1.172-2.957-2.381-4.479-3.546-1.546-1.134-3.103-2.274-4.668-3.423-1.549-1.172-3.17-2.263-4.803-3.356-1.636-1.088-3.248-2.234-4.93-3.293-6.692-4.294-13.761-8.312-21.113-12.088-14.754-7.455-30.742-13.718-47.47-18.45-8.365-2.357-16.904-4.38-25.57-5.901-4.332-.764-8.694-1.424-13.074-1.896l-1.24-.125-.088-.008.002.006 1.262 2.945a157.43 157.43 0 0 0 2.848 5.97c4.02 7.855 8.733 15.36 13.963 22.444 5.25 7.072 10.983 13.746 17.062 19.99 12.164 12.491 25.704 23.26 39.802 32.108 14.109 8.831 28.747 15.835 43.249 20.762 7.247 2.472 14.432 4.503 21.482 6.071 3.539.712 7.011 1.48 10.465 1.981l1.595.256c1.078.176 1.812.294 1.852.3z"/><path fill="#231F20" d="M1.477 63.041l-.068-.053c-.213-.25-.444-.794.341-1.113l.107-.02c.041.007.747.243 1.809.548l1.175.333 3.991 1.071 8.405 2.181c5.764 1.506 11.818 3.151 18.031 4.996 12.427 3.679 25.482 8.181 38.179 13.514 12.682 5.361 25.011 11.523 36.031 18.197 5.544 3.278 10.69 6.789 15.525 10.167 4.767 3.474 9.21 6.849 13.124 10.189l2.888 2.435 2.68 2.412 2.539 2.297 1.338 1.286.412.401.359.35c-.001 0 1.271 1.417 2.09 2.478 1.429 1.76.585 1.322-.517.457.084.119-2.55-2.155-2.55-2.155l-.352-.342-1.302-1.268-4.834-4.379c-1.726-1.515-3.595-3.047-5.516-4.68-7.792-6.403-17.447-13.199-28.303-19.668a299.292 299.292 0 0 0-17.14-9.283 319.328 319.328 0 0 0-18.359-8.326c-12.481-5.215-25.339-9.56-37.562-13.162-6.113-1.801-12.071-3.413-17.751-4.889l-8.291-2.151c-1.34-.358-2.66-.699-3.954-1.072l-.707-.2-1.818-.551z"/><path fill="#030100" d="M63.735 100.652l.062.897.177 2.503a4583.625 4583.625 0 0 1 .434 6.118c.012.188.02.377.04.562.013.122.021.25.052.369.056.226.117.447.228.658.21.4.499.757.871 1.023.239.171.487.302.761.405.309.116.643.171.97.177.493.01.987-.006 1.481-.008.775-.003 1.549-.008 2.324-.012.498-.002.998-.016 1.496-.001a6.474 6.474 0 0 1 3.427 1.11c.618.42 1.185.95 1.614 1.562.206.292.396.595.588.896l2.26 3.523c.066.103.125.219.202.314l-.017-.023c.073.1.139.203.211.301.178.242.396.459.629.646a3.777 3.777 0 0 0 1.672.762c.318.059.646.084.969.121.658.076 1.315.15 1.975.227 1.271.146 2.545.291 3.817.438 1.165.133 2.329.268 3.495.4l3.626.416 3.003.344 2.039.234c.296.033.592.065.888.102l.173.057c.199.131.205.439-.02.541-.086.04-.182.027-.274.023l-1.198-.053-2.311-.102-3.25-.144c-1.197-.054-2.395-.105-3.591-.158l-3.605-.158-3.906-.173-1.466-.064a7.146 7.146 0 0 1-1.09-.123c-1.209-.241-2.322-.881-3.179-1.764a7.399 7.399 0 0 1-.599-.722l-.941-1.265c-.633-.853-1.268-1.705-1.901-2.559-.212-.283-.419-.569-.683-.811a3.367 3.367 0 0 0-1.689-.838 3.275 3.275 0 0 0-.585-.047c-.099.002-.198.02-.296.014h.049c-.684.061-1.37.103-2.055.155l-2.362.181c-.282.021-.564.048-.849.052-.186.002-.369.007-.555-.007a7.333 7.333 0 0 1-1.092-.15 7.073 7.073 0 0 1-2.746-1.328 6.88 6.88 0 0 1-1.535-1.703 6.688 6.688 0 0 1-.869-2.059c-.076-.315-.121-.635-.168-.956-.104-.708-.205-1.415-.307-2.124l-.577-3.982c-.126-.873-.253-1.746-.378-2.62-.047-.317-.094-.636-.139-.953a2.219 2.219 0 0 1 .352-1.557 2.206 2.206 0 0 1 1.322-.894c1.122-.259 2.327.353 2.811 1.398.121.264.193.545.215.829"/></svg>