<svg version="1.1" id="Layer_1" xmlns="http://www.w3.org/2000/svg" x="0" y="0" width="66" height="24" viewBox="0 0 66 24" xml:space="preserve"><path fill="#2C323B" d="M19.465 5.986V.041H.143v23.781h19.322v-5.945H6.831v-2.973h11.148V8.959H6.831V5.986h12.634"/><path fill="#2B313A" d="M38.176 15.229a7.799 7.799 0 0 0 5.299-7.385A7.804 7.804 0 0 0 35.672.041c-.127 0-.248.013-.372.019V.041H22.666v23.781h21.551l-6.041-8.593m-3.248-5.527h-5.573V5.986h5.573a1.857 1.857 0 1 1 0 3.716z"/><path fill="#2C323B" d="M63.924 12.068c-1.762-1.805-4.012-2.229-7.728-2.973-1.61-.322-2.974-.832-2.974-1.857 0-1.026 1.332-1.857 2.974-1.857s2.972.831 2.972 1.857h6.676c-.25-3.932-4.475-7.061-9.647-7.061-5.336 0-9.661 3.328-9.661 7.432 0 1.674.719 3.217 1.932 4.459 1.764 1.805 4.756 2.229 7.729 2.973 1.593.398 2.972.832 2.972 1.858s-1.33 1.858-2.972 1.858-2.974-.832-2.974-1.858c0-.128.021-.252.061-.372h-6.748c0 4.105 4.325 7.432 9.661 7.432 5.335 0 9.661-3.326 9.661-7.432-.001-1.673-.72-3.216-1.934-4.459"/><path fill="#0095DA" d="M22.666.041h6.678v23.781h-6.678z"/></svg>