<svg version="1.1" id="Layer_1" xmlns="http://www.w3.org/2000/svg" x="0" y="0" width="90" height="24" viewBox="0 0 90 24" xml:space="preserve"><path fill="#2C323B" d="M89.917 6.055V.109H70.595v23.782h6.688v-8.918h11.148V9.027H77.283V6.055h12.634"/><path fill="#2B313A" d="M61.867 15.298c3.079-1.044 5.299-3.952 5.299-7.385A7.804 7.804 0 0 0 59.363.109c-.127 0-.248.014-.372.019V.109H46.357V23.89h21.552l-6.042-8.592m-3.248-5.527h-5.574V6.055h5.574a1.859 1.859 0 0 1 0 3.716z"/><path fill="#2C323B" d="M17.473 12c-1.762-1.805-4.013-2.229-7.729-2.973-1.609-.321-2.973-.831-2.973-1.857 0-1.025 1.331-1.857 2.973-1.857s2.973.832 2.973 1.857h6.676C19.141 3.238 14.917.109 9.745.109 4.409.109.084 3.437.084 7.541c0 1.674.72 3.217 1.933 4.459 1.762 1.805 4.756 2.23 7.729 2.973 1.593.398 2.973.832 2.973 1.858s-1.331 1.858-2.973 1.858-2.973-.832-2.973-1.858c0-.128.021-.251.061-.372H.083c0 4.105 4.325 7.432 9.661 7.432s9.661-3.326 9.661-7.432c0-1.673-.719-3.217-1.932-4.459M36.469.109v13.377a4.088 4.088 0 1 1-8.176 0V.109h-6.688v13.006c0 5.951 4.824 10.775 10.775 10.775s10.775-4.824 10.775-10.775V.109h-6.686"/><path fill="#0095DA" d="M46.357.109h6.689V23.89h-6.689zm24.238 0h6.687V23.89h-6.687z"/></svg>