<svg version="1.1" id="Layer_1" xmlns="http://www.w3.org/2000/svg" x="0" y="0" width="235" height="210" viewBox="0 0 235 210" xml:space="preserve"><path fill="#231F20" d="M67.815 90.428c8.253-1.375 16.516-2.754 24.684-4.583 4.159-.931 8.104-2.062 11.644-4.49 4.714-3.232 6.139-9.295 6.968-14.597.435-2.778 1.994-8.501-.042-10.799-1.637-1.847-4.104-3.145-6.177-4.416-6.562-4.021-13.481-7.487-20.354-10.938-4.699-2.36-9.848-4.312-14.31-7.104-8.196-5.132-14.8-11.799-24.286-14.78-4.695-1.476-11.6-1.85-14.958-5.987-.441-.544-.362-1.203-.153-1.816-.057.168 4.745 2.6 5.727 3.183.254.151 1.837-.147 1.689-.525-1.854-4.762-5.661-8.029-10.406-9.786-1.151-.426-2.44-.312-2.964-1.584-1.135-2.756 5.197-1.222 6.259-.94 8.16 2.165 13.229 8.909 20.472 12.605 11.343 5.789 22.418 12.762 34.214 17.554 13.7 5.566 27.696 10.615 41.727 15.288 2.612.87 3.818.573 4.038-2.386.24-3.241.395-6.428 1.479-9.528 2.604-7.44 11.043-5.765 14.831-.406 2.193 3.105 3.604 7.667 3.443 11.486-.068 1.612.277 2.053 1.418 3.153 1.94 1.872 2.565 4.615 4.048 6.818 5.159 7.666 13.179 16.087 21.246 20.677 5.656 3.218 11.149 6.27 16.342 10.263 4.03 3.1 7.464 6.915 11.156 10.399 9.705 9.157 19.363 19.879 20.749 33.73l1.738-.467c-3.335-5.63-8.253-.259-10.602 3.389l1.726-.391c-3.12-20.263-20.86-31.373-37.281-40.33-5.156-2.812-11.665-6.698-17.774-5.124-8.536 2.199-16.551 7.071-23.752 12-1.59 1.088-14.948 11.257-12.371 12.466 3.896 1.827 9.027 1.792 13.178 2.915 5.002 1.354 11.572 4.211 9.688 10.521-2.753 9.214-14.25 13.03-22.178 16.228-.733.296-1.47.585-2.205.878-1.11.441.447.424.97.161.124-.062.483-.213.322-.394-4.355-4.896-8.513-10.259-13.327-14.708-4.317-3.989-8.982-7.648-13.486-11.423a10860.205 10860.205 0 0 0-32.144-26.811c-.355-.295-1.88.385-1.641.584 10.729 8.92 21.449 17.853 32.145 26.813 4.51 3.778 9.116 7.479 13.486 11.422 2.454 2.215 4.567 4.925 6.772 7.378a1802.61 1802.61 0 0 1 4.515 5.043c.68.761 2.115 2.017 1.775 2.188-1.04.521.614.37.996.203 6.166-2.684 12.552-4.881 18.23-8.566 3.972-2.577 9.311-8.667 7.524-13.815-1.467-4.226-7.573-5.744-11.356-6.713-2.515-.645-5.08-1.084-7.631-1.554-1.099-.202-3.807-.297-4.544-1.298-.847-1.149 8.47-8.434 9.454-9.197 4.844-3.748 10.159-6.938 15.599-9.736 4.068-2.093 9.239-4.984 13.937-4.069 4.269.832 8.38 3.168 12.179 5.193 16.395 8.742 34.099 20.182 37.183 40.212.063.415 1.572-.152 1.726-.391 1.688-2.622 4.555-6.989 7.15-2.607.205.347 1.779-.06 1.738-.467-1.082-10.817-7.301-19.76-14.501-27.539-6.031-6.515-12.763-13.22-19.882-18.507-7.484-5.557-15.772-9.011-22.668-15.371a117.54 117.54 0 0 1-9.628-10.033c-1.312-1.535-2.545-3.141-3.616-4.854-1.022-1.634-1.368-3.589-2.723-5.037-2.357-2.521-1.707-4.164-2.301-7.375-.695-3.759-2.354-7.363-4.991-10.14-3.902-4.11-11.228-3.505-14.791.664-1.777 2.08-2.327 5.019-2.7 7.644-.201 1.422-.268 2.865-.353 4.298a41.006 41.006 0 0 1-.123 1.606c-.147 1.539-.064.506.724.723-5.753-1.583-11.39-3.901-16.996-5.919-10.342-3.723-20.99-7.194-30.948-11.881-9.152-4.308-17.963-9.645-26.981-14.263-2.833-1.451-5.515-2.676-7.947-4.76C41.957 4.86 35.296-.208 27.469-.164c-1.56.009-4.3.586-4.383 2.54-.039.917 1 1.432 1.717 1.642 5.332 1.558 9.637 4.705 11.708 10.022l1.689-.525c-.738-.438-8.324-5.588-9.17-1.973-1.282 5.475 16.78 8.178 19.466 9.292 8.206 3.405 14.026 10.434 21.86 14.209 5.736 2.765 11.452 5.568 17.123 8.465 6.64 3.393 13.419 6.797 19.55 11.066 2.979 2.074 3.065 2.875 2.909 6.619-.214 5.119-.927 10.375-3.068 15.071-2.309 5.066-7.207 7.264-12.299 8.551-8.677 2.194-17.602 3.526-26.424 4.997-.685.116-1.556.82-.332.616z"/><path fill="#231F20" d="M115.056 128.248c4.059-1.536 8.269-3.657 12.737-2.952.765.12 1.805-.943.639-1.127-4.932-.777-9.62 1.51-14.104 3.208-1.127.426-.114 1.19.728.871zM94.317 85.051c-.924 5.093 1.602 11.201 4.24 15.361 6.225 9.816 18.375 12.355 29.21 12.177.615-.011 1.861-.958.689-.939-11.314.188-22.896-2.78-28.997-13.066-2.189-3.691-4.208-9.364-3.409-13.765.116-.634-1.631-.331-1.733.232zm35.099-38.128c.06 3.891 1.086 8.817 5.431 9.786 6.397 1.426 14.812-3.742 19.66-7.28.954-.696-.512-1.033-1.102-.603-4.736 3.456-10.805 6.782-16.807 6.914-4.359.096-5.386-5.665-5.437-9.008-.012-.793-1.755-.44-1.745.191z"/><path fill="#231F20" d="M114.058 40.798c-2.256-2.397-4.335-4.756-7.057-6.657-3.941-2.752-8.803-3.732-12.914-6.228-5.703-3.462-10.81-7.969-13.347-14.181a17.309 17.309 0 0 1-1.111-4.211 6.224 6.224 0 0 1 .163-2.284c.451-2.167 4.59-2.06 4.796-2.364-1.003 1.482-2.586 2.222-3.303 3.98-.879 2.158 2.003 4.058 3.118 5.423 2.238 2.739 3.665 5.499 6.636 7.602 2.189 1.55 11.145 6.374 13.718 3.495 1.458-1.63-4.786-4.208-5.92-4.671-4.9-2 3.553-.076 4.922.634 2.505 1.297 3.521 3.563 6.675 3.127 4.128-.57 7.869-.794 12.05-.15 2.592.399 5.051 1.421 7.06 3.089.599.498 1.064.731 1.829.848.336.051 1.454-.136 1.421-.633-.604-9.125 11.471-8.333 17.688-6.942 3.401.761 6.588 2.254 9.65 3.875 2.685 1.421 3.348 3.687 3.96 6.536.656 3.051.75 6.379.159 9.438-.431 2.229-2.503 2.58-3.674 3.89-.271.302-.174.535-.077.883.13.195.272.381.426.559.413.533 3.605 5.18-1.023 4.063-1.929-.465-3.685-1.841-5.72-1.761-.527.021-1.885.857-.723.811 2.853-.113 5.243 2.68 8.286 1.865 2.931-.785 2.399-3.774.809-5.604-1.032-1.187-.379-.353.643-1.132 1.406-1.073 2.293-2.142 2.777-3.845 1.183-4.159.295-9.559-1.281-13.475-1.102-2.738-4.606-3.788-7.09-4.906-5.246-2.363-11.082-3.213-16.797-2.917-4.974.258-10.114 3.644-9.751 9.128l1.421-.633c-1.089-.165-2.13-1.346-3.029-1.913-1.779-1.123-3.825-1.63-5.859-2.024-3.625-.701-7.31-.715-10.942-.125-4.342.706-7.177-2.944-11.334-3.987-1.62-.406-3.82-1.071-5.424-.23-2.051 1.075 4.429 3.537 4.841 3.805.879.574 1.867 1.271 2.418 2.187-.027-.045-3.409-.851-3.808-.967-1.959-.569-3.823-1.367-5.631-2.311-3.541-1.85-5.376-5.158-7.674-8.233-2.41-3.228-4.417-4.576-.855-7.887.674-.626 2.007-1.613.469-1.894-5.298-.97-8.481 3.013-7.456 7.828 1.361 6.394 5.812 10.497 10.766 14.393 4.01 3.153 8.261 4.82 12.904 6.758 4.427 1.848 7.378 5.188 10.568 8.577.343.365 1.976-.259 1.627-.629zm19.701 20.449c1.354.287 2.606.641 3.746 1.462.48.345.44.761 1.056.808 1.133.087 2.242-.221 3.323-.526 3.217-.907 6.839-2.247 9.586-4.197.74-.526-1.009-.357-1.35-.116-1.991 1.414-4.455 2.277-6.726 3.121-1.271.473-3.24 1.519-4.258.293-.831-1.002-2.8-1.319-3.962-1.565-.437-.093-1.968.603-1.415.72zm-6.462-3.865c2.444 2.866 3.333 7.638 2.887 11.271-.063.519 1.666.179 1.723-.28.468-3.809-.417-8.606-2.979-11.608-.311-.365-1.957.236-1.631.617z"/><path fill-rule="evenodd" clip-rule="evenodd" fill="#231F20" d="M112.638 27.927c2.764-1.599 8.452-.859 11.245 1.624-3.831-1.201-7.396-2.431-11.245-1.624zm5.468 4.982c2.637.71 5.343.716 8.002 1.1-2.781.524-5.433-.029-8.002-1.1zm-13.47-3.386c2.637.71 5.343.716 8.002 1.1-2.781.523-5.433-.029-8.002-1.1zm49.32 12.028c2.912.188 5.749-.375 8.616-.533-2.804 1.134-5.699 1.113-8.616.533zm-8.61-17.213c-2.915-.127-5.739.498-8.603.717 2.78-1.194 5.674-1.235 8.603-.717zM119.57 40.174c2.876.492 5.756.229 8.624.373-2.908.834-5.784.51-8.624-.373zm33.399-14.116c-2.861-.572-5.748-.388-8.61-.611 2.929-.754 5.795-.35 8.61.611zm6.833 20.409c-1.608.9-3.318.826-5.057.484 1.672-.26 3.405.01 5.057-.484zm66.359 78.105c1.476 5.291 3.325 10.479 4.646 15.814.771 3.12 1.94 6.165 2.414 9.312.283 1.871.782 3.666 1.136 5.502.037.195.024.421.121.576.664 1.069-.474 1.404-.845 2.033-.117.199-.397.137-.407-.242-.077-3.07-1.073-5.951-1.812-8.889-1.035-4.117-2.3-8.17-3.237-12.318m-9.049-2.421c-1.437 3.188-3.437 6.077-4.909 9.246-.486 1.045-.959 2.098-1.287 3.36 1.514-.7 1.902-2.14 2.767-3.163 1.584-1.879 2.944-1.918 4.564.024 1.473 1.764 2.524 3.82 3.922 5.634 1.152 1.496 2.242 3.05 3.775 4.219.709.541 1.108 1.316 1.223 2.221.027.205.059.422-.175.498-.198.062-.394-.033-.516-.209-.089-.129-.182-.268-.219-.416-.36-1.45-1.215-2.1-2.767-2.275-.932-.105-1.336-1.334-1.832-2.137-1.344-2.172-2.605-4.395-4.28-6.338-.326-.379-.77-.666-1.188-.953-.454-.312-.871-.223-1.186.243-.65.964-1.277 1.944-1.948 2.894-.708 1.001-1.621 1.66-2.902 1.805-.933.107-1.246-.227-1.079-1.101.357-1.868 1.299-3.507 2.038-5.229 1.455-3.395 3.284-6.602 4.929-9.899"/><path fill-rule="evenodd" clip-rule="evenodd" fill="#231F20" d="M225.745 147.354c1.444 1.756 2.722 3.623 4.43 5.256l-1.726-6.053c1.984 2.987 3.396 6.198 3.976 9.739.067.408.206 1.018-.455.993-.703-.022-1.514-.094-1.761-.994a49 49 0 0 1-.722-2.878c-.104-.489-.269-.789-.828-.799-.21-.004-.536-.145-.604-.308-.707-1.681-2.108-3.033-2.31-4.956z"/><path fill="#FFF" d="M137.653 209.83C60.88 181.965 10.175 110.914.319 55.703c0 0 112.812 32.064 156.958 138.783-4.582 4.008-11.376 4.121-16.388 3.668.001 0 .112 6.793-3.236 11.676z"/><path fill="#231F20" d="M137.459 209.089l.064.058c.194.263.411.83-.383 1.099l-.108.013-1.786-.688-2.966-1.14c-1.796-.658-3.562-1.438-5.351-2.203-1.785-.773-3.606-1.507-5.383-2.38-7.208-3.268-14.409-7.162-21.576-11.517a224.927 224.927 0 0 1-21.202-14.651c-6.929-5.409-13.671-11.352-20.156-17.759-12.96-12.819-24.861-27.562-34.843-43.85-4.97-8.153-9.451-16.692-13.292-25.553-1.947-4.419-3.645-8.954-5.242-13.524l-1.111-3.459-.555-1.73-.494-1.749-.985-3.499-.86-3.533a58.814 58.814 0 0 1-.791-3.549l-.884-4.462c-.094-.217.037-.189.207-.118l.431.126.86.257 1.088.334 1.729.561c1.15.378 2.293.775 3.433 1.179 4.56 1.612 9.049 3.389 13.482 5.27 8.872 3.75 17.492 7.974 25.831 12.543a292.107 292.107 0 0 1 24.083 14.754c1.906 1.337 3.844 2.619 5.708 3.99l5.572 4.099 5.407 4.233c1.812 1.386 3.51 2.898 5.259 4.332 6.902 5.846 13.459 11.878 19.44 18.205l2.264 2.34c.741.788 1.448 1.604 2.169 2.402l4.282 4.78 4.038 4.888 1.999 2.421 1.886 2.484c10.1 13.146 18.231 26.635 24.449 39.685 1.528 3.273 2.914 6.531 4.329 9.687l.366.827c.396.439-.235.635-.503.916-.414.342-.72.574-1.114.823-.734.507-1.527.905-2.325 1.262-1.604.706-3.287 1.115-4.951 1.361-1.667.245-3.323.318-4.948.292a42.647 42.647 0 0 1-2.414-.114l-.118-.009-.002.001-.002.055-.012.301c-.004.202-.03.398-.044.598-.11 1.589-.391 3.135-.767 4.637l-.135.456-.167.565-.146.492s-.033.117-.123.302l-.373.735-.501.951c-.171.33-.435.62-.634.896-1.375 1.848-1.122.863-.579-.373.007.153 1.168-3.031 1.08-3.058l.135-.459.071-.242.041-.137.021-.073.147-.498c.091-.33.145-.672.22-1.01.157-.674.26-1.365.348-2.064.094-.697.151-1.408.179-2.118l.019-1.115c-.08-.275.207-.146.369-.154l.551.045.75.06.548.032c1.464.083 2.952.095 4.447-.013 2.977-.213 6.057-.925 8.639-2.643.328-.204.636-.438.934-.687l.005-.008-.11-.249-.999-2.256-2.035-4.596-1.04-2.335-1.161-2.312-2.362-4.697-1.207-2.383c-.439-.779-.882-1.562-1.325-2.351-.889-1.574-1.785-3.165-2.69-4.771-.873-1.625-1.9-3.179-2.891-4.773l-3.018-4.815c-1.04-1.603-2.17-3.165-3.265-4.771-1.123-1.584-2.177-3.238-3.383-4.802l-3.603-4.755c-.612-.792-1.195-1.612-1.838-2.39l-1.935-2.343-3.914-4.727a9557.347 9557.347 0 0 1-4.148-4.631c-.699-.773-1.386-1.562-2.101-2.33l-2.196-2.269c-1.476-1.51-2.927-3.061-4.446-4.56-6.087-5.99-12.611-11.798-19.501-17.398-13.854-11.107-29.26-21.249-45.792-29.931-8.269-4.328-16.793-8.352-25.566-11.873-4.382-1.765-8.822-3.424-13.32-4.895l-1.536-.487.002.007.67 3.354c.212 1.165.538 2.306.801 3.461.292 1.148.525 2.311.864 3.447 2.483 9.149 5.775 18.083 9.7 26.689 3.952 8.597 8.5 16.882 13.507 24.792 10.02 15.823 21.871 30.138 34.734 42.557 12.879 12.404 26.724 22.995 40.879 31.381a220.508 220.508 0 0 0 21.244 11.124c3.565 1.525 7.046 3.098 10.566 4.388l1.607.617 1.754.675z"/><path fill="#231F20" d="M1.286 56.441l-.056-.066c-.157-.289-.271-.869.563-1.019l.109.003 1.656.912 1.154.605 3.963 2.016 8.368 4.162c5.736 2.864 11.748 5.938 17.881 9.257 12.271 6.628 25.02 14.266 37.207 22.699 12.161 8.464 23.778 17.688 33.889 27.171 5.104 4.69 9.749 9.523 14.075 14.166 2.094 2.386 4.217 4.63 6.097 6.951l2.822 3.376c.919 1.109 1.766 2.242 2.624 3.327l2.498 3.206 2.278 3.14 2.163 2.983 1.109 1.653.321.478.278.416s.953 1.647 1.535 2.854c1.035 2.016.3 1.414-.601.34.059.135-2.052-2.635-2.052-2.635l-.273-.407-1.069-1.593c-1.262-1.806-2.663-3.688-4.107-5.693-1.461-1.995-3.105-4.012-4.762-6.161-6.758-8.499-15.426-17.796-25.415-27.028a316.808 316.808 0 0 0-15.985-13.592 341.875 341.875 0 0 0-17.485-12.85C58.084 86.85 45.505 79.421 33.429 72.917c-6.04-3.252-11.958-6.271-17.613-9.084l-8.254-4.105c-1.332-.675-2.646-1.329-3.924-2.01l-.688-.361-1.664-.916zm101.033 116.291l-.039-.075c-.078-.306-.119-.941.719-.917l.108.028.807.715.403.357.352.414.78.939c.246.323.43.692.647 1.038l.312.526c.091.182.16.374.24.561.149.377.325.748.45 1.13.493 1.543.722 3.112.938 4.646.201 1.531.433 3.026.811 4.472.448 1.412.961 2.817 1.827 4.023.212.303.377.638.627.914l.727.846c.451.592 1.045 1.061 1.593 1.569.286.243.536.523.85.735l.77.555v-.003l-.081-.492c-.058-.392-.11-.785-.15-1.181a15.157 15.157 0 0 1-.062-2.416c.063-.814.173-1.671.657-2.498.143-.191.275-.418.441-.57l.167-.161c.078-.076.158-.152.258-.219a2.47 2.47 0 0 1 .875-.44c.001.01.162-.054.44-.046a2.18 2.18 0 0 1 1.014.264c.701.376 1.241 1.04 1.64 1.582 1.38 1.795.553 1.354-.524.448.04.074-.569-.536-1.214-.898-.677-.398-1.133-.122-1.133-.123a1.338 1.338 0 0 0-.35.205l-.167.143-.116.111c-.121.107-.169.232-.266.342-.31.51-.437 1.232-.483 1.945-.045.721-.013 1.465.059 2.208.038.372.087.744.142 1.116l.111.653c.083.389.144.757.243 1.162l.3 1.222.076.307.043.254-.468-.337-1.882-1.357-1.11-.801c-.326-.223-.599-.521-.9-.778-.583-.541-1.207-1.037-1.7-1.676l-.782-.912c-.268-.299-.454-.663-.684-.992-.938-1.315-1.507-2.852-1.984-4.371-.405-1.545-.644-3.105-.845-4.636-.213-1.521-.438-3.02-.887-4.423-.115-.35-.274-.679-.407-1.019-.072-.168-.133-.342-.214-.504l-.281-.468c-.194-.307-.354-.637-.574-.927l-.702-.84-.314-.373-.37-.325-.738-.652zm15.879-16.445l-.039-.075c-.077-.306-.118-.941.719-.917l.108.028.808.715.402.357.352.414.781.939c.245.323.43.692.646 1.038l.312.526c.09.182.159.374.24.561.149.377.324.748.45 1.131.493 1.543.722 3.111.938 4.645.2 1.531.433 3.026.81 4.472.448 1.412.961 2.817 1.827 4.024.212.302.377.638.627.914l.727.845c.451.593 1.046 1.061 1.593 1.57.285.243.536.523.85.735l.77.555.001-.002-.081-.493c-.058-.392-.11-.785-.149-1.182a15.145 15.145 0 0 1-.062-2.415c.062-.814.173-1.671.655-2.498.144-.191.275-.418.441-.57l.166-.161c.078-.077.158-.152.258-.22.244-.186.537-.353.875-.439.001.01.162-.054.44-.047.278-.003.666.075 1.013.264.701.376 1.242 1.04 1.641 1.582 1.38 1.795.553 1.354-.524.448.04.074-.569-.536-1.214-.898-.677-.398-1.133-.122-1.133-.122a1.295 1.295 0 0 0-.351.204l-.167.143-.115.111c-.121.108-.169.232-.266.343-.31.51-.437 1.232-.482 1.945-.045.721-.014 1.465.059 2.208.037.372.086.744.142 1.116l.11.653c.082.389.144.757.243 1.162l.3 1.222.075.307.044.253-.468-.337-1.882-1.356-1.109-.802c-.327-.222-.6-.521-.9-.777-.583-.541-1.207-1.038-1.7-1.677l-.781-.912c-.269-.298-.454-.663-.684-.992-.938-1.314-1.507-2.852-1.984-4.371-.404-1.545-.644-3.105-.845-4.636-.212-1.521-.438-3.02-.886-4.423-.115-.35-.274-.679-.407-1.019-.072-.168-.134-.342-.215-.504l-.28-.468c-.194-.307-.354-.637-.574-.927l-.701-.84-.314-.373-.37-.325-.74-.652z"/></svg>