<svg version="1.1" id="Layer_1" xmlns="http://www.w3.org/2000/svg" x="0" y="0" width="17.953" height="10.188" viewBox="0 0 17.953 10.188" xml:space="preserve"><g fill="#010101"><path d="M17.808 3.673A12.433 12.433 0 0 0 8.989.015 12.44 12.44 0 0 0 .172 3.663l-.01.01a.5.5 0 0 0 .707.707l.01-.01a11.439 11.439 0 0 1 8.11-3.355 11.43 11.43 0 0 1 8.112 3.365.5.5 0 0 0 .707-.707z"/><path d="M14.985 6.493a8.458 8.458 0 0 0-5.999-2.487 8.46 8.46 0 0 0-5.993 2.481l.354.354-.325-.38-.006.006a.5.5 0 1 0 .651.76l.007-.006.028-.026a7.458 7.458 0 0 1 5.286-2.188 7.458 7.458 0 0 1 5.292 2.194.5.5 0 1 0 .705-.708zm-8.468 3.533a3.484 3.484 0 0 1 2.469-1.023c.895.001 1.785.34 2.468 1.021l.002.002a.5.5 0 0 0 .707-.707l-.002-.002a4.474 4.474 0 0 0-3.175-1.314A4.477 4.477 0 0 0 5.81 9.319a.5.5 0 0 0 .707.707z"/></g></svg>