<svg version="1.1" id="Layer_1" xmlns="http://www.w3.org/2000/svg" x="0" y="0" width="90" height="22" viewBox="0 0 90 22" xml:space="preserve"><path d="M31.847.352h-2.889c-.695 0-1.412.548-1.607 1.219l-3.857 12.327-3.846-9.689c-.232-.659-.995-1.201-1.692-1.201h-2.637c-.696 0-1.462.542-1.705 1.191l-3.889 9.699L5.987 1.57C5.799.899 5.074.352 4.378.352H1.393C.697.352.296.893.503 1.56l5.889 18.876c.213.667.95 1.214 1.645 1.214h3.06c.693 0 1.456-.539 1.688-1.197l3.798-10.641c.02 0 .228.537.465 1.193l3.398 9.451c.232.654.998 1.193 1.698 1.193h2.949c.698 0 1.438-.547 1.652-1.212l5.985-18.88c.213-.664-.188-1.205-.883-1.205m6.801 0h-2.995c-.697 0-1.27.567-1.27 1.27v18.757c0 .699.572 1.271 1.27 1.271h2.995a1.27 1.27 0 0 0 1.265-1.271V1.621c0-.702-.565-1.269-1.265-1.269m24.432 0h-2.665a1.27 1.27 0 0 0-1.266 1.27V14.62L49.327 1.37C48.916.808 48.007.351 47.314.351h-2.979c-.69 0-1.267.567-1.267 1.27v18.757c0 .699.576 1.271 1.267 1.271H47c.695 0 1.264-.572 1.264-1.271V8.654c0-.69.017-1.267.035-1.267.027 0 .371.463.787 1.022l8.973 12.22c.408.559 1.318 1.02 2.008 1.02h3.013c.688 0 1.263-.572 1.263-1.271V1.621c0-.702-.575-1.269-1.263-1.269m18.864 15.393a5.25 5.25 0 0 1-1.958.976c-.728.2-1.485.298-2.265.298h-3.576c-.678 0-1.23-.51-1.23-1.129V6.16c0-.619.553-1.127 1.23-1.127h1.381c.682 0 1.785.037 2.463.076 0 0 1.213.07 2.118.363.903.291 1.632.715 2.183 1.269.549.55.943 1.208 1.182 1.974.244.781.362 1.646.362 2.602 0 1.051-.171 1.936-.517 2.664-.343.73-.804 1.317-1.373 1.764m6.743-9.49c-.57-1.315-1.365-2.406-2.394-3.287-1.025-.875-2.233-1.527-3.628-1.969-1.402-.434-2.904-.656-4.528-.656h-9.591c-.693 0-1.265.57-1.265 1.27v18.775c0 .697.571 1.27 1.265 1.27h8.32c.701 0 1.84-.042 2.529-.097 0 0 2.338-.179 3.762-.722 1.424-.551 2.612-1.297 3.564-2.254a9.315 9.315 0 0 0 2.134-3.402c.462-1.315.696-2.75.696-4.302.001-1.773-.284-3.312-.864-4.626" fill="#0095DA"/></svg>