<svg version="1.1" id="Layer_1" xmlns="http://www.w3.org/2000/svg" x="0" y="0" width="14.027" height="14.027" viewBox="0 0 14.027 14.027" xml:space="preserve"><path fill="#99894E" d="M13.522 11.362h-.5c0 .527-.146.946-.379 1.218-.234.271-.548.434-1.043.438H3.074a2.364 2.364 0 0 1-1.427-.506c-.395-.317-.625-.718-.624-1.15V2.835c-.003-.434.24-.893.642-1.246.398-.353.938-.574 1.409-.571h8.527c.47.005.778.185 1.028.5.244.316.395.791.394 1.317v8.527h.999V2.835c-.001-.709-.193-1.392-.601-1.926A2.246 2.246 0 0 0 11.6.018H3.074c-.764.003-1.5.323-2.069.819-.565.497-.98 1.197-.983 1.998v8.527c0 .803.429 1.48 1.001 1.933a3.356 3.356 0 0 0 2.05.724H11.6c.741.005 1.389-.292 1.806-.792.42-.497.616-1.156.616-1.864h-.5z"/></svg>