<svg version="1.1" id="Layer_1" xmlns="http://www.w3.org/2000/svg" x="0" y="0" width="14.027" height="14.027" viewBox="0 0 14.027 14.027" xml:space="preserve"><g fill="#99894E"><path d="M13.522 11.282h-.5a1.738 1.738 0 0 1-1.736 1.736H2.759a1.739 1.739 0 0 1-1.736-1.736V2.755a1.738 1.738 0 0 1 1.736-1.736h8.527a1.739 1.739 0 0 1 1.736 1.736v8.527h1V2.755A2.736 2.736 0 0 0 11.286.019H2.759A2.736 2.736 0 0 0 .023 2.755v8.527a2.735 2.735 0 0 0 2.736 2.736h8.527a2.735 2.735 0 0 0 2.736-2.736h-.5z"/><path d="M12.022 10.338c0 .928-.753 1.681-1.682 1.681H3.704a1.682 1.682 0 0 1-1.682-1.681V3.699c0-.928.753-1.681 1.682-1.681h6.637c.929 0 1.682.752 1.682 1.681v6.639z"/></g></svg>