<svg version="1.1" id="Layer_2" xmlns="http://www.w3.org/2000/svg" x="0" y="0" width="19.873" height="21.187" viewBox="0 0 19.873 21.187" xml:space="preserve"><g fill="#FFF"><path d="M9.935 19.4l-.387-.742C9.364 18.304 5.02 9.95 4.353 6.693c-.313-1.532.09-3.082 1.137-4.366C6.605.962 8.309.112 9.935.112c1.628 0 3.333.85 4.448 2.217 1.045 1.282 1.449 2.832 1.135 4.364-.668 3.257-5.01 11.611-5.195 11.965l-.388.742zm0-18.414c-1.371 0-2.814.725-3.769 1.895-.877 1.074-1.217 2.367-.957 3.637.529 2.584 3.625 8.815 4.726 10.979 1.101-2.164 4.198-8.395 4.728-10.979.26-1.271-.08-2.562-.957-3.638C12.752 1.711 11.309.986 9.935.986z"/><path d="M15.793 21.076H4.08l1.511-4.508.828.279-1.126 3.356h9.286l-1.127-3.356.83-.279zM9.935 8.87a2.647 2.647 0 0 1-2.644-2.644c0-1.458 1.186-2.644 2.644-2.644s2.646 1.186 2.646 2.644A2.648 2.648 0 0 1 9.935 8.87zm0-4.414a1.772 1.772 0 0 0 0 3.542c.978 0 1.772-.794 1.772-1.771s-.794-1.771-1.772-1.771z"/></g></svg>