<svg version="1.1" id="Layer_1" xmlns="http://www.w3.org/2000/svg" x="0" y="0" width="25.406" height="24.469" viewBox="0 0 25.406 24.469" xml:space="preserve"><path fill="#99894E" d="M12.704 22.971l.728.674c.654-.707 1.727-1.752 2.949-2.979 1.84-1.845 4.029-4.105 5.789-6.406.879-1.151 1.652-2.313 2.221-3.461.564-1.148.938-2.287.941-3.426A7.337 7.337 0 0 0 17.996.037a7.32 7.32 0 0 0-6.12 3.298l.828.548.828-.548A7.323 7.323 0 0 0 7.412.037 7.336 7.336 0 0 0 .075 7.373c.01 1.519.656 3.037 1.574 4.577 1.388 2.304 3.462 4.662 5.45 6.746 1.983 2.077 3.893 3.884 4.877 4.948l.728.787.728-.787-.728-.673.728-.674c-.718-.775-1.786-1.814-3.001-3.032-1.82-1.823-3.96-4.04-5.617-6.21-.829-1.083-1.535-2.155-2.019-3.135-.487-.981-.74-1.867-.736-2.547 0-1.487.6-2.818 1.571-3.788a5.334 5.334 0 0 1 3.781-1.563c1.872 0 3.501.955 4.464 2.408l.828 1.252.828-1.252a5.334 5.334 0 0 1 4.465-2.408c1.475 0 2.807.595 3.779 1.562a5.328 5.328 0 0 1 1.572 3.789c.01.906-.457 2.179-1.291 3.555-1.242 2.07-3.24 4.366-5.184 6.398-1.947 2.04-3.824 3.812-4.897 4.971l.729.674.728-.674-.728.674z"/></svg>