<svg version="1.1" id="Layer_1" xmlns="http://www.w3.org/2000/svg" x="0" y="0" width="14.661" height="18.997" viewBox="0 0 14.661 18.997" xml:space="preserve"><path d="M13.856 1.806h-2.273A2.623 2.623 0 0 0 9.094 0c-1.163 0-2.15.76-2.493 1.806H.815a.815.815 0 1 0 0 1.629H6.6a2.622 2.622 0 1 0 4.982 0h2.273a.815.815 0 1 0 .001-1.629zM10.49 3.438c-.282.48-.804.803-1.398.803a1.623 1.623 0 0 1-1.619-1.618 1.618 1.618 0 1 1 3.017.815zm3.366 5.596H6.317a2.627 2.627 0 0 0-2.492-1.806c-1.16 0-2.148.76-2.491 1.806H.815a.814.814 0 1 0 0 1.628h.519a2.627 2.627 0 0 0 2.491 1.807c1.161 0 2.148-.76 2.492-1.807h7.539a.814.814 0 1 0 0-1.628zm-8.633 1.629a1.62 1.62 0 0 1-1.397.805 1.62 1.62 0 0 1-.001-3.238 1.615 1.615 0 0 1 1.618 1.617c0 .298-.079.575-.22.816zm8.633 4.974h-2.273a2.623 2.623 0 0 0-2.489-1.807c-1.163 0-2.15.76-2.493 1.807H.815a.816.816 0 0 0 0 1.629H6.6a2.627 2.627 0 0 0 2.493 1.807c1.161 0 2.147-.76 2.489-1.807h2.273a.813.813 0 1 0 .001-1.629zm-4.762 2.436a1.617 1.617 0 1 1-.003-3.234 1.617 1.617 0 0 1 .003 3.234z" fill="#99894E"/></svg>