<svg version="1.1" id="Layer_1" xmlns="http://www.w3.org/2000/svg" x="0" y="0" width="35.001" height="45.535" viewBox="0 0 35.001 45.535" xml:space="preserve"><path fill="#E7C900" d="M17.5 0C7.851 0 0 7.849 0 17.5c0 7.574 5.796 11.869 11.4 16.02l.857.637c1.344 1 3.809 8.565 4.645 10.205l.598 1.174.599-1.174c.836-1.64 3.3-9.205 4.646-10.205l.856-.637c5.606-4.15 11.4-8.445 11.4-16.02C35.001 7.849 27.152 0 17.5 0z"/><path fill="#B92900" d="M22.801 32.439l-.859.638c-1.41 1.052-3.43 7.665-4.441 9.536-1.012-1.871-3.032-8.486-4.439-9.536l-.859-.638C6.617 28.306 1.344 24.396 1.344 17.5c0-8.909 7.248-16.158 16.156-16.158 8.909 0 16.158 7.249 16.158 16.158 0 6.896-5.275 10.806-10.857 14.939z"/><path fill="#FFF" d="M11.366 23.466h5.555c4.622 0 7.702-2.837 7.702-7.092 0-4.243-3.08-7.072-7.702-7.072h-5.555v.178h.689c.946 0 1.044.275 1.044 1.222v11.543c0 .946-.098 1.044-1.044 1.044h-.689v.177zm2.935-.355v-.02c.237-.236.335-.473.335-.926V10.603c0-.453-.098-.689-.335-.926v-.02h2.088c4.251 0 6.541 2.351 6.541 6.717 0 4.379-2.289 6.737-6.541 6.737h-2.088z"/></svg>