<svg version="1.1" id="Layer_1" xmlns="http://www.w3.org/2000/svg" x="0" y="0" width="19.873" height="21.187" viewBox="0 0 19.873 21.187" xml:space="preserve"><g fill="#99894E"><path d="M12.859 20.672v-.5H1.45a.44.44 0 0 1-.438-.438V1.452a.44.44 0 0 1 .438-.438h11.409a.44.44 0 0 1 .438.438v18.283a.44.44 0 0 1-.438.438v.999a1.438 1.438 0 0 0 1.438-1.438V1.452A1.44 1.44 0 0 0 12.859.014H1.45C.656.014.013.658.012 1.452v18.283c0 .794.644 1.438 1.438 1.438h11.409v-.501zM16.1 8.234l2.358 2.359-2.358 2.359.707.707 3.066-3.066-3.066-3.066z"/><path d="M8.428 11.093h10.738v-1H8.428M.512 16.637h13.285v-1H.512m5.921 3.03h1.442v-1H6.433"/></g></svg>