<svg version="1.1" id="Layer_1" xmlns="http://www.w3.org/2000/svg" x="0" y="0" width="61.336" height="61.339" viewBox="0 0 61.336 61.339" xml:space="preserve"><path fill="#B92900" d="M30.668 0C13.729 0 0 13.728 0 30.668 0 47.61 13.729 61.339 30.668 61.339S61.336 47.61 61.336 30.668C61.336 13.728 47.607 0 30.668 0z"/><path fill="#FFF" d="M20.179 19.675a.565.565 0 0 0-.335.969l10.03 10.031-10.03 10.022a.563.563 0 1 0 .775.817l.017-.017 10.03-10.03 10.03 10.03a.566.566 0 0 0 .799.014.567.567 0 0 0 .011-.798l-.017-.016-10.03-10.022 10.03-10.031a.563.563 0 1 0-.793-.802l-10.03 10.031-10.03-10.031a.562.562 0 0 0-.457-.167z"/></svg>