<svg version="1.1" id="Layer_1" xmlns="http://www.w3.org/2000/svg" x="0" y="0" width="61.336" height="61.339" viewBox="0 0 61.336 61.339" xml:space="preserve"><path fill="#99894E" d="M30.668 0C13.729 0 0 13.728 0 30.668 0 47.61 13.729 61.339 30.668 61.339S61.336 47.61 61.336 30.668C61.336 13.728 47.607 0 30.668 0z"/><path fill="#FFF" d="M40.801 29.892h-2.283a7.897 7.897 0 0 0-7.072-7.074v-2.281a.764.764 0 0 0-.778-.777.763.763 0 0 0-.776.777v2.281a7.898 7.898 0 0 0-7.076 7.074h-2.278c-.441 0-.778.337-.778.777s.337.778.778.778h2.278a7.898 7.898 0 0 0 7.076 7.074v2.281c0 .441.336.776.776.776a.762.762 0 0 0 .778-.776v-2.281a7.897 7.897 0 0 0 7.072-7.074h2.283c.439 0 .777-.337.777-.778s-.338-.777-.777-.777zm-10.134 7.101c-3.497 0-6.323-2.825-6.323-6.324s2.826-6.323 6.323-6.323c3.499 0 6.322 2.825 6.322 6.323s-2.823 6.324-6.322 6.324z"/><path fill="#FFF" d="M30.902 33.973v-.5A2.811 2.811 0 0 1 28.1 30.67a2.811 2.811 0 0 1 2.802-2.803 2.813 2.813 0 0 1 2.805 2.803 2.813 2.813 0 0 1-2.805 2.803v1a3.808 3.808 0 0 0 3.805-3.803 3.808 3.808 0 0 0-3.805-3.803A3.806 3.806 0 0 0 27.1 30.67a3.806 3.806 0 0 0 3.802 3.803v-.5z"/></svg>