<svg version="1.1" id="Layer_1" xmlns="http://www.w3.org/2000/svg" x="0" y="0" width="27.596" height="27.601" viewBox="0 0 27.596 27.601" xml:space="preserve"><g fill="#99894E"><path d="M13.795 0C6.174 0-.006 6.178-.006 13.8c0 7.621 6.18 13.801 13.801 13.801s13.801-6.18 13.801-13.801c0-7.622-6.18-13.8-13.801-13.8zm0 26.401c-6.959 0-12.6-5.641-12.6-12.602 0-6.959 5.641-12.601 12.6-12.601s12.6 5.642 12.6 12.601c0 6.962-5.641 12.602-12.6 12.602z"/><path d="M18.596 7.403a.6.6 0 0 0-.721.96c3.01 2.254 3.625 6.522 1.371 9.534s-6.521 3.625-9.533 1.371a6.81 6.81 0 0 1 2.797-12.14l-1.037 1.038a.6.6 0 0 0 .756.931L12.326 9l2.303-2.305a.601.601 0 0 0 0-.846l-2.303-2.304a.602.602 0 0 0-.914.781l.066.065 1.445 1.446a8.016 8.016 0 1 0 1.701 15.942 8.015 8.015 0 0 0 7.119-8.821 8.01 8.01 0 0 0-3.147-5.555z"/></g></svg>