<svg version="1.1" id="Layer_1" xmlns="http://www.w3.org/2000/svg" x="0" y="0" width="26" height="26" viewBox="0 0 26 26" xml:space="preserve"><path d="M13 26C5.833 26 0 20.168 0 13 0 5.833 5.833 0 13 0c7.169 0 13 5.833 13 13 0 7.168-5.831 13-13 13M13 .634C6.182.634.635 6.181.635 13c0 6.818 5.547 12.366 12.365 12.366 6.818 0 12.365-5.548 12.365-12.366C25.365 6.181 19.818.634 13 .634"/><path d="M10.247 11.067h1.18V9.921c0-.507.012-1.287.378-1.769.389-.513.919-.859 1.833-.859 1.489 0 2.116.213 2.116.213l-.294 1.747s-.493-.143-.951-.143c-.46 0-.871.164-.871.623v1.333h1.882l-.13 1.708h-1.752v5.932h-2.211v-5.932h-1.18v-1.707z"/></svg>