<svg version="1.1" id="Layer_1" xmlns="http://www.w3.org/2000/svg" x="0" y="0" width="26" height="26" viewBox="0 0 26 26" xml:space="preserve"><path d="M13.011 26C5.843 26 .01 20.168.01 13S5.843 0 13.011 0C20.179 0 26.01 5.832 26.01 13s-5.831 13-12.999 13m0-25.367C6.191.633.644 6.181.644 13c0 6.818 5.548 12.366 12.368 12.366 6.818 0 12.365-5.548 12.365-12.366C25.376 6.181 19.829.633 13.011.633"/><path d="M11.123 18.107c-1.357 0-2.336-.858-2.336-1.889 0-1.012 1.215-1.854 2.571-1.839.317.004.612.054.879.142.736.513 1.265.801 1.415 1.385.027.118.042.239.042.364 0 1.034-.664 1.837-2.571 1.837m.356-6.049c-.91-.027-1.776-1.018-1.933-2.214-.158-1.196.453-2.112 1.364-2.085.909.027 1.775.986 1.933 2.183.157 1.196-.454 2.143-1.364 2.116m1.888 1.772c-.32-.226-.929-.775-.929-1.099 0-.38.108-.566.677-1.011.585-.458.998-1.1.998-1.846 0-.891-.395-1.757-1.138-2.042h1.12l.79-.572h-3.533c-1.584 0-3.075 1.201-3.075 2.591 0 1.421 1.08 2.568 2.692 2.568a5 5 0 0 0 .327-.009 1.443 1.443 0 0 0-.178.66c0 .395.212.716.479.976-.203 0-.399.006-.611.006-1.963 0-3.474 1.251-3.474 2.548 0 1.276 1.656 2.075 3.618 2.075 2.237 0 3.472-1.271 3.472-2.547 0-1.025-.301-1.639-1.235-2.298m5.14-1.667h-1.375v-1.377h-1.107v1.377H14.65v1.107h1.374v1.376h1.107V13.27h1.375v-1.107z"/></svg>