<svg version="1.1" id="Layer_1" xmlns="http://www.w3.org/2000/svg" x="0" y="0" width="21" height="21" viewBox="0 0 21 21" xml:space="preserve"><path fill="#99894E" d="M17.879 17.828a.647.647 0 0 1-1.132-.431.65.65 0 0 1 .19-.461l-.002-.002A9.065 9.065 0 0 0 19.6 10.5c0-5.026-4.074-9.1-9.1-9.1s-9.1 4.074-9.1 9.1a9.1 9.1 0 0 0 9.1 9.1.65.65 0 1 1 0 1.3C4.756 20.9.1 16.244.1 10.5.1 4.756 4.756.1 10.5.1s10.4 4.656 10.4 10.4c0 2.859-1.154 5.447-3.021 7.328zM11.15 5.3a.65.65 0 0 0-.65.65.65.65 0 1 1-1.3 0l.013-.131A1.943 1.943 0 0 1 11.15 4a.65.65 0 1 1 0 1.3zm-1.149 11.636a1.34 1.34 0 0 1-.948-1.643l1.482-5.532a.325.325 0 0 0-.229-.398l-.253.037.002-.003-.537.31a.651.651 0 0 1-.651-1.126l1.149-.663a1.34 1.34 0 0 1 1.954 1.513l-1.482 5.532a.325.325 0 0 0 .229.398l.254-.037-.002.004 1.334-.77a.65.65 0 1 1 .651 1.125l-1.946 1.123a1.336 1.336 0 0 1-1.007.13zm5.374 1.365a.65.65 0 1 1 0 1.3.65.65 0 0 1 0-1.3z"/></svg>