<svg version="1.1" id="Layer_1" xmlns="http://www.w3.org/2000/svg" x="0" y="0" width="26" height="26" viewBox="0 0 26 26" xml:space="preserve"><path d="M13.008 26c-7.169 0-13-5.832-13-13s5.831-13 13-13c7.168 0 13 5.832 13 13s-5.832 13-13 13m0-25.366C6.19.634.642 6.181.642 13c0 6.82 5.548 12.368 12.366 12.368S25.375 19.82 25.375 13c0-6.819-5.549-12.366-12.367-12.366"/><path d="M9.813 17.727H7.587v-7.126h2.227v7.126zM8.644 9.708h-.017c-.804 0-1.327-.545-1.327-1.235 0-.703.538-1.237 1.36-1.237.819 0 1.323.534 1.34 1.235 0 .691-.52 1.237-1.356 1.237m10.072 8.019h-2.523v-3.688c0-.966-.396-1.625-1.264-1.625-.662 0-1.03.444-1.204.874-.065.154-.054.367-.054.582v3.856h-2.499s.033-6.533 0-7.126h2.499v1.117c.147-.488.947-1.186 2.222-1.186 1.581 0 2.823 1.024 2.823 3.232v3.964z"/></svg>