<svg version="1.1" id="Layer_2" xmlns="http://www.w3.org/2000/svg" x="0" y="0" width="26" height="26" viewBox="0 0 26 26" xml:space="preserve"><path d="M12.999 0c-7.172 0-13 5.821-13 13s5.828 13 13 13 13-5.821 13-13-5.828-13-13-13zm0 .578C19.866.578 25.415 6.139 25.415 13c0 6.862-5.549 12.423-12.416 12.423S.583 19.862.583 13 6.132.578 12.999.578zm-6.187 6.75c-.997 0-1.813.81-1.813 1.802v7.74c0 .992.816 1.802 1.813 1.802h12.375c.997 0 1.813-.81 1.813-1.802V9.13c0-.992-.816-1.802-1.813-1.802H6.812zm0 .516h12.375c.726 0 1.292.566 1.292 1.286v7.74c0 .72-.566 1.286-1.292 1.286H6.812A1.275 1.275 0 0 1 5.52 16.87V9.13c0-.72.566-1.286 1.292-1.286zm1.236 2.051c-.182.034-.262.317-.126.448l2.8 2.771-2.789 2.532a.273.273 0 0 0-.021.369c.09.102.271.102.373.006l2.8-2.545.952.941c.52.521 1.404.516 1.924 0l.965-.941 2.811 2.545c.09.096.271.096.362-.006s.091-.277-.013-.369l-2.785-2.543 2.785-2.76c.104-.097.091-.272 0-.363-.101-.096-.271-.096-.362 0l-4.125 4.074c-.293.301-.895.301-1.199 0L8.295 9.98l-.247-.085z"/></svg>