<svg version="1.1" id="Layer_1" xmlns="http://www.w3.org/2000/svg" x="0" y="0" width="26" height="26" viewBox="0 0 26 26" xml:space="preserve"><path d="M13.005 26c-7.167 0-13-5.832-13-13s5.833-13 13-13 13 5.832 13 13-5.832 13-13 13m0-25.366C6.187.634.639 6.181.639 13c0 6.818 5.547 12.366 12.366 12.366 6.818 0 12.365-5.548 12.365-12.366C25.37 6.181 19.823.634 13.005.634"/><path d="M13.005 7.259a5.702 5.702 0 0 0-5.696 5.708 5.71 5.71 0 0 0 3.409 5.228c-.016-.398-.003-.877.099-1.312l.732-3.11s-.181-.365-.181-.903c0-.847.489-1.478 1.099-1.478.517 0 .767.39.767.856 0 .522-.331 1.303-.502 2.025-.143.605.302 1.101.898 1.101 1.08 0 1.806-1.39 1.806-3.036 0-1.25-.841-2.186-2.369-2.186-1.729 0-2.804 1.289-2.804 2.731 0 .499.144.85.374 1.121.106.125.119.174.082.317l-.117.457c-.037.145-.153.198-.284.144-.795-.325-1.167-1.198-1.167-2.18 0-1.622 1.364-3.566 4.07-3.566 2.175 0 3.607 1.578 3.607 3.27 0 2.24-1.243 3.913-3.074 3.913-.615 0-1.195-.334-1.392-.712 0 0-.331 1.314-.4 1.57-.121.438-.357.878-.575 1.221.513.15 1.054.234 1.615.234 3.145 0 5.695-2.556 5.695-5.708a5.696 5.696 0 0 0-5.692-5.705"/></svg>