<svg version="1.1" id="Layer_1" xmlns="http://www.w3.org/2000/svg" x="0" y="0" width="26" height="26" viewBox="0 0 26 26" xml:space="preserve"><path d="M13.006 26c-7.168 0-13-5.832-13-13s5.831-13 13-13c7.168 0 13 5.832 13 13s-5.832 13-13 13m0-25.365C6.188.635.64 6.182.64 13c0 6.818 5.547 12.365 12.366 12.365S25.373 19.818 25.373 13c0-6.818-5.548-12.365-12.367-12.365"/><path d="M13.096 7.293v2.885h2.708v1.792h-2.708v2.926c0 .663.035 1.088.104 1.275a.87.87 0 0 0 .392.449c.252.152.54.229.865.229.577 0 1.154-.189 1.726-.565v1.802c-.489.229-.93.391-1.325.482-.396.094-.822.14-1.283.14-.522 0-.982-.065-1.384-.197a2.951 2.951 0 0 1-1.025-.564c-.284-.244-.48-.503-.59-.778-.109-.273-.164-.673-.164-1.193V11.97H9.151v-1.614c.45-.147.833-.356 1.153-.627.319-.271.576-.599.769-.98.195-.381.329-.866.4-1.455h1.623z"/></svg>