<svg version="1.1" id="Layer_1" xmlns="http://www.w3.org/2000/svg" x="0" y="0" width="26" height="26" viewBox="0 0 26 26" xml:space="preserve"><path d="M13.002 26c-7.168 0-13-5.832-13-13s5.832-13 13-13 13 5.832 13 13-5.831 13-13 13m0-25.367C6.184.633.637 6.181.637 13c0 6.819 5.547 12.366 12.366 12.366 6.818 0 12.365-5.547 12.365-12.366C25.367 6.181 19.82.633 13.002.633"/><path d="M18.71 10.078a4.766 4.766 0 0 1-1.346.368 2.35 2.35 0 0 0 1.03-1.295 4.681 4.681 0 0 1-1.489.567 2.34 2.34 0 0 0-3.988 2.136 6.65 6.65 0 0 1-4.828-2.447 2.344 2.344 0 0 0 .725 3.127 2.356 2.356 0 0 1-1.061-.292v.028c0 1.135.808 2.082 1.879 2.297a2.39 2.39 0 0 1-1.058.041 2.346 2.346 0 0 0 2.188 1.626 4.699 4.699 0 0 1-2.907 1.002c-.189 0-.377-.011-.56-.031a6.646 6.646 0 0 0 3.59 1.05c4.308 0 6.662-3.567 6.662-6.662 0-.103-.002-.205-.007-.303a4.797 4.797 0 0 0 1.17-1.212"/></svg>