<svg version="1.1" id="Layer_1" xmlns="http://www.w3.org/2000/svg" x="0" y="0" width="24" height="24" viewBox="0 0 24 24" xml:space="preserve"><path fill="#292B2C" d="M24 18.961l-7.439-7.439 3.897-3.897.601-.603.319-.318-.026-.028a2.889 2.889 0 0 0-.293-3.735 2.886 2.886 0 0 0-3.734-.292l-.027-.028-.319.32-.442.441-4.058 4.058L5.039 0 0 5.039l7.439 7.439-3.536 3.538.041.041L2.098 21.9l5.845-1.844.041.041 3.537-3.537 7.44 7.44L24 18.961zM20.294 3.706c.593.592.68 1.496.272 2.187l-2.461-2.46a1.804 1.804 0 0 1 2.189.273zM7.667 11.174l1.085-1.083-.536-.537-1.085 1.084-.938-.937 2.168-2.169-.535-.536-2.168 2.169-.939-.939 1.085-1.084-.537-.536-1.085 1.085-.937-.939 1.083-1.084-.535-.536-1.084 1.085L1.57 5.078 5.078 1.57l6.635 6.635-3.507 3.508-.539-.539zm-3.909 9.068l.682-2.16 1.478 1.48-2.16.68zm1.675-4.226L17.297 4.153l1.02 1.021L6.455 17.035l-1.022-1.019zm1.53 1.531L18.828 5.684l1.02 1.02L7.984 18.566l-1.021-1.019zm11.021 3.945l1.084-1.084-.537-.535-1.083 1.084-.937-.939 1.083-1.084-.535-.535-1.086 1.084-.938-.938 2.169-2.168-.534-.537-2.17 2.168-.938-.938 1.084-1.084-.535-.537-1.085 1.084-.739-.738 3.507-3.508 6.637 6.635-3.509 3.508-.938-.938z"/></svg>