<svg version="1.1" id="Layer_1" xmlns="http://www.w3.org/2000/svg" x="0" y="0" width="46" height="38" viewBox="0 0 46 38" xml:space="preserve"><path fill="gray" d="M45.476 11.636L40.734 1.404A1.417 1.417 0 0 0 39.431.55H6.609c-.535 0-1.07.311-1.302.854L.564 11.636c-.687 1.55-.687 3.333.155 4.805.763 1.396 2.141 2.326 3.671 2.482h.537c.304 0 .611 0 .917-.078v17.832c0 .464.306.772.764.772h32.668c.461 0 .766-.309.766-.772V18.846c.307.078.611.078.921.078h.536c1.525-.156 2.905-1.086 3.67-2.482.918-1.473.994-3.255.307-4.806zM20.611 35.9h-9.184V24.038h9.184V35.9zm17.979 0H22.142V23.264c0-.463-.306-.774-.766-.774H10.663c-.458 0-.763.312-.763.774V35.9H7.373V18.303c.843-.466 1.531-1.164 2.068-1.938a5.219 5.219 0 0 0 4.513 2.558 5.227 5.227 0 0 0 4.516-2.558 5.22 5.22 0 0 0 4.511 2.558 5.225 5.225 0 0 0 4.517-2.558 5.222 5.222 0 0 0 4.515 2.558 5.228 5.228 0 0 0 4.513-2.558c.459.851 1.223 1.471 2.065 1.938V35.9zm5.358-20.233c-.54 1.008-1.455 1.629-2.528 1.706h-.382a3.72 3.72 0 0 1-3.671-3.101c-.078-.388-.384-.698-.843-.698s-.766.31-.842.698a3.717 3.717 0 0 1-3.671 3.101 3.717 3.717 0 0 1-3.674-3.101c-.077-.388-.382-.698-.841-.698a.839.839 0 0 0-.844.698 3.718 3.718 0 0 1-3.673 3.101 3.718 3.718 0 0 1-3.671-3.101.832.832 0 0 0-.839-.698c-.459 0-.765.31-.843.698a3.718 3.718 0 0 1-3.673 3.101 3.719 3.719 0 0 1-3.672-3.101c-.076-.388-.381-.698-.84-.698a.896.896 0 0 0-.842.698 3.717 3.717 0 0 1-3.672 3.101h-.383c-1.073-.077-1.992-.698-2.523-1.706-.613-1.086-.613-2.326-.153-3.411L6.611 2.103h32.667l4.745 10.231c.536 1.007.456 2.325-.075 3.333zm-8.265 6.822H27.65c-.462 0-.766.312-.766.774v4.187c0 .466.304.774.766.774h8.032c.46 0 .765-.309.765-.774v-4.187c0-.384-.382-.774-.764-.774zm-.765 4.187h-6.504v-2.638h6.504v2.638z"/></svg>