<svg version="1.1" id="Layer_1" xmlns="http://www.w3.org/2000/svg" x="0" y="0" width="25" height="27" viewBox="0 0 25 27" xml:space="preserve"><path d="M.424 26.538l.045.002h24.062c.253 0 .46-.207.46-.459l-.002-.047L22.521.875a.46.46 0 0 0-.459-.416H2.938a.462.462 0 0 0-.457.416L.012 26.034a.457.457 0 0 0 .412.504zM3.356 1.38h18.291l2.376 24.24H.977L3.356 1.38z"/><path d="M18.302 3.705a.461.461 0 0 0-.466.454v5.44c0 3.075-2.411 5.566-5.336 5.566-2.926 0-5.334-2.49-5.334-5.566V4.172a.46.46 0 0 0-.453-.467h-.014a.46.46 0 0 0-.453.467v5.427c0 3.558 2.807 6.488 6.254 6.488 3.446 0 6.256-2.93 6.256-6.488V4.172a.46.46 0 0 0-.454-.467z"/></svg>