<svg version="1.1" xmlns="http://www.w3.org/2000/svg" x="0" y="0" width="46" height="38" viewBox="0 0 46 38" xml:space="preserve"><g fill="gray" id="Layer_2"><path d="M5.446 37.953l.065.002h34.977a.669.669 0 0 0 .669-.666l-.002-.068L37.567.648A.668.668 0 0 0 36.9.044H9.1a.67.67 0 0 0-.665.604L4.846 37.221a.667.667 0 0 0 .6.732zM9.708 1.382h26.588l3.453 35.235H6.25L9.708 1.382z"/><path d="M31.433 4.762a.672.672 0 0 0-.677.661v7.909c0 4.468-3.505 8.09-7.756 8.09-4.252 0-7.753-3.621-7.753-8.09v-7.89a.67.67 0 0 0-.659-.68h-.02a.67.67 0 0 0-.659.68v7.889c0 5.17 4.081 9.428 9.091 9.428 5.01 0 9.094-4.258 9.094-9.428V5.442a.67.67 0 0 0-.661-.68z"/></g></svg>