<svg version="1.1" xmlns="http://www.w3.org/2000/svg" x="0" y="0" width="97.333" height="97.333" viewBox="0 0 97.333 97.333" xml:space="preserve"><g id="Layer_1"><path fill="#FFF" d="M48.572 96.223v-1c-12.796 0-24.393-5.203-32.8-13.608-8.405-8.407-13.608-20.003-13.608-32.8 0-12.796 5.203-24.393 13.608-32.8 8.407-8.405 20.004-13.608 32.8-13.608 12.796 0 24.393 5.203 32.8 13.608 8.405 8.407 13.608 20.004 13.608 32.8s-5.203 24.393-13.608 32.799c-8.407 8.405-20.004 13.608-32.8 13.608v2.001c26.695-.002 48.407-21.712 48.409-48.408C96.979 22.12 75.268.409 48.572.407 21.877.409.166 22.12.164 48.815c.002 26.696 21.713 48.406 48.409 48.408v-1z"/><circle fill="#FFF" cx="48.572" cy="48.815" r="40.681"/><path d="M42.015 75.583h10.442V49.435h7.285l.777-8.755h-8.062v-4.986c0-2.064.415-2.88 2.411-2.88h5.651v-9.086h-7.23c-7.771 0-11.274 3.422-11.274 9.973v6.98h-5.432v8.865h5.432v26.037z"/></g></svg>