<svg version="1.1" xmlns="http://www.w3.org/2000/svg" x="0" y="0" width="97.333" height="97.333" viewBox="0 0 97.333 97.333" xml:space="preserve"><g id="Layer_4"><path fill="#FFF" d="M48.667 96.075v-1c-12.796 0-24.393-5.203-32.8-13.608-8.406-8.408-13.608-20.004-13.609-32.8 0-12.796 5.203-24.393 13.608-32.8 8.407-8.405 20.003-13.608 32.8-13.608 12.797 0 24.394 5.203 32.801 13.608 8.405 8.407 13.608 20.004 13.608 32.8s-5.203 24.392-13.608 32.799c-8.407 8.405-20.004 13.608-32.801 13.608v2.001c26.696-.002 48.407-21.713 48.409-48.408C97.074 21.972 75.363.26 48.667.258 21.972.26.26 21.972.258 48.667.26 75.362 21.972 97.073 48.667 97.075v-1z"/><circle fill="#FFF" cx="48.667" cy="48.667" r="40.681"/><path d="M56.565 42.841c.82 0 1.958-.426 3.135-1.821v1.61h2.709V28.051H59.7v11.064c-.331.415-1.066 1.093-1.595 1.093-.582 0-.723-.395-.723-.98V28.049h-2.711v12.188c0 1.439.442 2.604 1.894 2.604zm-12.064-3.848c0 2.569 1.345 3.907 3.973 3.907 2.181 0 3.896-1.456 3.896-3.907v-7.145c0-2.283-1.698-3.918-3.896-3.918-2.389 0-3.973 1.577-3.973 3.918v7.145zm2.791-6.906c0-.799.369-1.391 1.13-1.391.832 0 1.188.574 1.188 1.391v6.783c0 .794-.404 1.38-1.135 1.38-.748 0-1.183-.612-1.183-1.38v-6.783zM38.035 42.63h3.053v-8.017l3.551-11.748H41.54l-1.957 7.899-2.106-7.899h-3.073l3.631 11.748zm28.024 3.317H34.108a6.216 6.216 0 0 0-6.215 6.218v15.701a6.213 6.213 0 0 0 6.215 6.215h31.951a6.214 6.214 0 0 0 6.215-6.215V52.165a6.216 6.216 0 0 0-6.215-6.218zM38.366 69.428H35.46V53.336h-3.01v-2.732h8.924v2.732h-3.008v16.092zm10.341 0h-2.582v-1.531c-.476.564-.972.994-1.485 1.289-1.391.797-3.301.781-3.301-2.037V55.543h2.582v10.643c0 .559.136.936.687.936.502 0 1.204-.645 1.518-1.039v-10.54h2.582v13.885zm9.937-2.877c0 1.719-.643 3.053-2.359 3.053-.946 0-1.734-.346-2.453-1.242v1.066h-2.605V50.604h2.605v6.061c.581-.711 1.373-1.297 2.295-1.297 1.891 0 2.518 1.598 2.518 3.48v7.703zm9.543-3.74H63.25v2.619c0 1.043.088 1.941 1.127 1.941 1.09 0 1.154-.732 1.154-1.941v-.965h2.656v1.045c0 2.674-1.149 4.295-3.869 4.295-2.467 0-3.726-1.797-3.726-4.295v-6.232c0-2.414 1.591-4.084 3.92-4.084 2.478 0 3.675 1.572 3.675 4.084v3.533z"/><path d="M64.403 57.624c-.956 0-1.153.674-1.153 1.627v1.404h2.281V59.25c0-.939-.202-1.626-1.128-1.626zm-10.038.085a1.894 1.894 0 0 0-.533.424v8.65c.211.227.414.391.611.49.42.213 1.036.23 1.318-.143.152-.195.227-.514.227-.957v-7.17c0-.469-.094-.826-.276-1.066-.312-.411-.896-.456-1.347-.228z"/></g></svg>