<svg version="1.1" id="Layer_1" xmlns="http://www.w3.org/2000/svg" x="0" y="0" width="97.333" height="97.333" viewBox="0 0 97.333 97.333" xml:space="preserve"><g fill="#FFF" id="Layer_4"><path d="M56.565 42.841c.82 0 1.958-.426 3.135-1.821v1.61h2.709V28.051H59.7v11.064c-.33.415-1.066 1.093-1.595 1.093-.582 0-.724-.395-.724-.98V28.049H54.67v12.188c0 1.439.443 2.604 1.895 2.604zm-12.064-3.848c0 2.569 1.345 3.907 3.973 3.907 2.181 0 3.896-1.456 3.896-3.907v-7.145c0-2.283-1.697-3.918-3.896-3.918-2.389 0-3.973 1.577-3.973 3.918v7.145zm2.791-6.906c0-.799.369-1.391 1.13-1.391.833 0 1.188.574 1.188 1.391v6.783c0 .794-.404 1.38-1.135 1.38-.748 0-1.183-.612-1.183-1.38v-6.783zM38.035 42.63h3.053v-8.017l3.551-11.748H41.54l-1.957 7.899-2.106-7.899h-3.073l3.631 11.748zm28.024 3.317H34.108a6.216 6.216 0 0 0-6.215 6.217v15.701a6.213 6.213 0 0 0 6.215 6.215h31.951a6.213 6.213 0 0 0 6.215-6.215v-15.7a6.216 6.216 0 0 0-6.215-6.218zM38.366 69.428H35.46V53.336h-3.01v-2.732h8.924v2.732h-3.008v16.092zm10.341 0h-2.582v-1.531c-.476.564-.972.994-1.485 1.289-1.391.797-3.301.781-3.301-2.037V55.543h2.582v10.643c0 .559.136.936.687.936.502 0 1.204-.645 1.518-1.039v-10.54h2.582l-.001 13.885zm9.937-2.877c0 1.719-.644 3.053-2.358 3.053-.947 0-1.734-.346-2.453-1.242v1.066h-2.605V50.604h2.605v6.061c.58-.711 1.373-1.297 2.295-1.297 1.891 0 2.518 1.598 2.518 3.48l-.002 7.703zm9.543-3.74H63.25v2.619c0 1.043.088 1.941 1.127 1.941 1.09 0 1.153-.732 1.153-1.941v-.965h2.656v1.045c0 2.674-1.149 4.295-3.869 4.295-2.467 0-3.726-1.797-3.726-4.295v-6.232c0-2.414 1.591-4.084 3.92-4.084 2.478 0 3.675 1.572 3.675 4.084v3.533z"/><path d="M64.403 57.624c-.956 0-1.152.674-1.152 1.627v1.404h2.28V59.25c0-.939-.202-1.626-1.128-1.626zm-10.037.085a1.862 1.862 0 0 0-.533.424v8.65c.211.227.414.391.61.489.42.213 1.036.229 1.318-.144.151-.194.227-.514.227-.957v-7.17c0-.469-.094-.826-.276-1.065-.312-.41-.896-.455-1.346-.227z"/></g></svg>