<svg version="1.1" xmlns="http://www.w3.org/2000/svg" x="0" y="0" width="97.333" height="97.333" viewBox="0 0 97.333 97.333" xml:space="preserve"><g id="Layer_3"><path fill="#FFF" d="M48.667 96.075v-1c-12.797 0-24.394-5.202-32.801-13.607C7.461 73.06 2.259 61.464 2.258 48.667c0-12.796 5.203-24.393 13.608-32.8C24.274 7.461 35.871 2.259 48.667 2.258c12.796 0 24.393 5.203 32.8 13.608 8.405 8.407 13.608 20.004 13.608 32.8 0 12.797-5.203 24.393-13.608 32.8-8.407 8.405-20.004 13.607-32.8 13.607v2.002c26.694-.002 48.406-21.711 48.408-48.408C97.074 21.972 75.363.26 48.667.258 21.972.26.26 21.972.258 48.667.26 75.364 21.972 97.073 48.667 97.075v-1z"/><circle fill="#FFF" cx="48.667" cy="48.667" r="40.682"/><path d="M29.401 40.35h8.878v28.682h-8.878z"/><ellipse cx="33.797" cy="31.302" rx="5.25" ry="5.292"/><path d="M52.47 53.975c0-4.031 1.855-6.434 5.41-6.434 3.264 0 4.832 2.305 4.832 6.434v15.057h8.836v-18.16c0-7.683-4.354-11.397-10.436-11.397s-8.643 4.739-8.643 4.739V40.35h-8.517v28.682h8.517l.001-15.057z"/></g></svg>