<svg version="1.1" xmlns="http://www.w3.org/2000/svg" x="0" y="0" width="97.333" height="97.333" viewBox="0 0 97.333 97.333" xml:space="preserve"><g id="Layer_5"><path fill="#FFF" d="M48.667 96.075v-1c-12.796 0-24.393-5.202-32.8-13.607C7.461 73.06 2.259 61.463 2.258 48.667c0-12.796 5.203-24.392 13.608-32.799C24.273 7.463 35.869 2.26 48.666 2.26c12.797 0 24.394 5.203 32.801 13.608 8.405 8.407 13.608 20.003 13.608 32.799 0 12.797-5.203 24.394-13.608 32.801-8.407 8.405-20.004 13.607-32.801 13.607v2c26.695-.002 48.407-21.711 48.409-48.408C97.074 21.972 75.363.261 48.667.259 21.972.261.26 21.972.258 48.667.26 75.364 21.972 97.073 48.667 97.075v-1z"/><circle fill="#FFF" cx="48.667" cy="48.667" r="40.681"/><path d="M34.451 36.538c-5.747 0-10.491 4.217-11.235 9.681-.068.492-.105.994-.105 1.503 0 6.177 5.078 11.183 11.341 11.183 6.265 0 11.339-5.006 11.339-11.183 0-1.668-.371-3.25-1.035-4.673a11.36 11.36 0 0 0-10.305-6.511zm39.746 10.296c-.457-5.761-5.34-10.296-11.297-10.296-4.606 0-8.568 2.711-10.341 6.6a11.025 11.025 0 0 0-.997 4.584c0 6.177 5.076 11.183 11.338 11.183 6.261 0 11.338-5.006 11.338-11.183 0-.298-.017-.593-.041-.888z"/></g></svg>