<svg version="1.1" id="Layer_1" xmlns="http://www.w3.org/2000/svg" x="0" y="0" width="512" height="512" viewBox="0 0 512 512" xml:space="preserve"><path fill="#83C7E4" d="M294.928 190.896a70.032 70.032 0 0 0 6.847 4.04l.74-.769a69.131 69.131 0 0 1-7.587-3.271m-39.29-50.981a68.504 68.504 0 0 1-11.16 28.261l12.183 21.235 11.035-19.079-.066-.104c-6.311-8.98-10.391-19.474-11.992-30.313m139.243-13.445a69.312 69.312 0 0 1-1 14.855 74.169 74.169 0 0 1-.893 4.294l.183-.03c.271-1.184.509-2.369.71-3.558a67.13 67.13 0 0 0 1-15.561m-1.284-16.889c2.987 10.36 3.619 21.395 1.654 31.97a74.128 74.128 0 0 1-.773 3.801c2.821-.49 5.654-.91 8.492-1.254l-.007-2.702.065.624c-.828-9.887-4.469-21.375-9.431-32.439m-140.864-4.094c.301 1.319.567 2.653.792 3.972a69.035 69.035 0 0 1 2.146 9.557c.101-.66.213-1.313.338-1.976.119-.694.253-1.393.39-2.088a67.827 67.827 0 0 0-3.666-9.465m134.725 213.716l-73.453 39.75-6.688 21.681 2.489-27.351 77.652-34.08m-7.273-40.935l-79.096 44.363-7.995 22.731 3.809-28.407 83.282-38.687m7.657-52.59l-96.327 58.397-11.951 25.973 7.843-31.71 100.435-52.66M121.816 101.056c-10.077 20.376-15.736 43.367-15.736 67.744 0 56.002 48.491 124.453 82.697 166.745 42.063 51.972 87.936 94.958 132.359 126.248a538.791 538.791 0 0 1-17.6-13.283c-22.074-17.41-42.838-36.422-62.413-56.535C194.949 344.324 110 242.278 110.597 168.744c.302 77.214 95.358 185.757 145.565 233.89 22.406 21.366 46.239 41.289 71.686 58.863 23.855 16.43 49.177 30.986 76.098 41.278l-.065-25.079c-19.025-2.585-39.67-8.511-56.399-17.149-18.131-9.322-34.518-22.011-48.106-37.191-13.602-15.177-24.418-32.845-31.693-51.858-7.303-19.01-11.016-39.386-11.052-59.709.147 20.323 4.004 40.649 11.402 59.573 7.374 18.949 18.266 36.47 31.898 51.484 13.624 15.044 29.994 27.558 48.071 36.707 16.6 8.438 37.049 14.198 55.879 16.66l-.888-328.506c-18.782 2.436-37.115 8.156-53.909 16.854-17.403 8.979-33.164 21.114-46.298 35.593-13.158 14.474-23.695 31.297-30.929 49.434a163.392 163.392 0 0 0-11.625 57.049c-.308-13.264.969-26.641 3.902-39.744-5.009 14.323-8.049 29.474-9.007 44.896-.028-20.532 3.667-41.065 10.97-60.25a168.615 168.615 0 0 1 31.757-52.32 159.713 159.713 0 0 1 2.809-3.084c-12.453-4.79-23.548-13.11-31.521-23.797l-12.494 21.738-13.614-23.834c-12.554 17.016-32.742 28.048-55.506 28.048-4.919 0-9.722-.515-14.351-1.492-12.62-2.588-24.542-8.74-33.875-17.745-13.104-12.389-21.041-30.139-21.448-48.293a68.337 68.337 0 0 1 1.52-16.671c-.095.247-.184.489-.284.733-6.629 17.167-9.959 35.57-9.994 53.985-.768-21.154 2.939-42.613 11.012-62.519.473-1.065.952-2.132 1.449-3.186l-.03.029.289-2.075m14.477-78.242l-9.817 70.678c11.207-20.025 26.991-37.517 45.845-50.662l-36.028-20.016m121.006-3.642c-4.417 0-8.847.198-13.253.604-36.671 3.097-71.697 20.88-96.268 48.271a148.043 148.043 0 0 0-8.611 10.464c12.254-11.892 29.024-19.142 46.223-19.687a68.31 68.31 0 0 1 2.902-.062c17.409 0 34.783 6.742 47.641 18.658 10.254 9.332 17.611 21.808 20.981 35.311 4.04-16.701 14.335-31.718 28.438-41.438 11.78-8.267 26.146-12.688 40.496-12.693 4.164 0 8.332.376 12.438 1.138 14.655 2.556 28.326 9.997 38.573 20.704a149.72 149.72 0 0 0-29.549-30.494c-14.513-11.247-31.131-19.767-48.753-24.89a147.945 147.945 0 0 0-41.258-5.886m96.339-13.468l-34.217 23.234c15.647 6.993 30.137 16.646 42.555 28.498a138.962 138.962 0 0 1 4.311 4.253L353.638 5.704"/><path d="M355.902 0l-.419.308-39.863 26.99c.739.307 1.483.624 2.217.937L355.683.586l14.459 65.196c.361.387.711.78 1.059 1.174L355.902 0"/><path d="M355.683.585l-37.846 27.649c.525.23 1.053.462 1.579.699l34.217-23.235 12.646 55.98a166.535 166.535 0 0 1 3.856 4.103L355.683.585m51.835 401.504l.288 74.576c.308.03.616.064.924.101l-1.212-74.677M101.551 168.854c.875 81.632 96.02 188.516 149.445 239.183 22.777 21.479 46.994 41.518 72.89 59.185 25.896 17.613 53.483 33.128 83.211 43.609l3.353 1.17-.036-3.531-.246-30.041-1.545-.16c-.266-.027-.536-.058-.81-.088l.118 30.295c-27.167-9.604-56.64-25.452-86.794-46.688 16.835 12.169 34.436 23.33 52.909 32.92-25.287-12.466-49.072-27.863-71.573-44.807-22.507-17.002-43.748-35.654-63.832-55.447-49.238-48.748-135.956-148.9-137.09-225.6m268.84-101.97a153.063 153.063 0 0 1 34.826 68.107c.485 2.111.898 4.255 1.289 6.398l.005 2.315.385-.044v2.296l2.923 289.731-2.401-294.381c-.597-22.112-16.27-51.951-36.217-74.347l.267 1.144c-.361-.409-.716-.815-1.077-1.219M258.156 15.885c-26.181 0-52.33 6.884-74.939 20.029a148.06 148.06 0 0 0-7.657 4.72l.065.035C199.309 25.347 227.5 16.47 257.747 16.47c2.373 0 4.695-.035 7.009-.035 3.501 0 6.954.083 10.448.502a148.886 148.886 0 0 1 42.331 11.452c-.717-.315-1.431-.623-2.146-.923l.236-.156c-12.643-5.245-25.99-8.762-39.586-10.338a146.078 146.078 0 0 0-17.883-1.087"/><path d="M110.598 168.732c-.602 73.531 84.353 175.581 130.526 223.226 19.575 20.116 40.339 39.131 62.413 56.541a547.172 547.172 0 0 0 17.6 13.283c30.154 21.234 59.627 37.082 86.794 46.687l-.118-30.295c-1.307-.142-2.62-.318-3.938-.492l.065 25.082c-26.92-10.291-52.241-24.856-76.098-41.278-25.445-17.572-49.277-37.494-71.686-58.865-50.2-48.136-145.257-156.674-145.558-233.889m292.779-21.085c-.136.017-.26.029-.396.046l.888 328.505c1.319.171 2.631.331 3.933.467l-.29-74.576-4.135-254.442M264.756 16.435c-2.313 0-4.636.035-7.009.035-30.247 0-58.438 8.877-82.122 24.199l.053.03c-1.1.714-2.175 1.447-3.252 2.187l-.112-.063c-18.865 13.148-34.643 30.638-45.843 50.664l-.106.751a152.47 152.47 0 0 0-4.825 8.854 140.395 140.395 0 0 0-1.448 3.184c-8.072 19.905-11.781 41.366-11.013 62.518.043-18.413 3.372-36.811 9.994-53.983.101-.249.189-.491.284-.734 2.661-12.276 8.658-23.863 17.333-33.051.799-.86 1.62-1.703 2.467-2.52a150.962 150.962 0 0 1 8.609-10.464c24.571-27.385 59.598-45.168 96.263-48.271 4.411-.406 8.829-.604 13.258-.604 13.934 0 27.872 1.99 41.249 5.885 17.635 5.124 34.245 13.637 48.758 24.888a149.738 149.738 0 0 1 29.55 30.496 68.475 68.475 0 0 1 6.9 8.472c4.419 6.287 7.725 13.305 9.848 20.668 4.963 11.063 8.604 22.552 9.431 32.445l-.063-.624.005 2.702c.545-.067 1.089-.126 1.633-.189l1.91-.209-.007-2.315a140.839 140.839 0 0 0-1.288-6.398 153.017 153.017 0 0 0-34.825-68.102v-.006a170.796 170.796 0 0 0-3.88-4.21l-.227-.989a159.258 159.258 0 0 0-4.309-4.248c-12.425-11.855-26.907-21.505-42.555-28.497l-.249.174a70.692 70.692 0 0 0-1.632-.724 148.912 148.912 0 0 0-42.331-11.452c-3.495-.416-6.955-.499-10.449-.499"/><path d="M315.62 27.305l-.236.155c.721.299 1.435.613 2.146.924l.07.028.237-.172a97.279 97.279 0 0 0-2.217-.935"/><path d="M317.837 28.24l-.237.172-.07-.028c.545.239 1.088.481 1.632.724l.255-.174c-.522-.232-1.048-.469-1.58-.694m52.305 37.541l.249 1.097c.367.405.723.816 1.082 1.227l-.259-1.144c-.361-.394-.711-.793-1.072-1.18m-3.856-4.102l.226.989a170.76 170.76 0 0 1 3.879 4.21l-.249-1.097a160.834 160.834 0 0 0-3.856-4.102M244.478 168.176a82.7 82.7 0 0 1-1.461 2.058l13.619 23.835 12.497-21.738a62.047 62.047 0 0 1-1.438-1.998l-11.035 19.079-12.182-21.236"/><path fill="#FEFEFE" d="M255.183 136.079c-1.39 15.394-8.186 30.272-19.085 41.367-12.366 12.82-29.964 20.479-47.894 20.697a67.061 67.061 0 0 1-15.039-1.363 69.139 69.139 0 0 0 14.346 1.496c22.769 0 42.957-11.038 55.506-28.048.502-.679.988-1.362 1.461-2.059a68.498 68.498 0 0 0 11.16-28.262 64.483 64.483 0 0 1-.455-3.828m-67.672 19.71c-14.601 0-26.434-11.835-26.434-26.437 0-14.601 11.839-26.44 26.434-26.44 14.601 0 26.44 11.84 26.44 26.44 0 14.607-11.84 26.437-26.44 26.437m-.603-93.227c-17.274 0-34.501 7.131-46.759 19.423-12.52 12.336-19.834 29.717-19.811 47.387-.149 17.577 7.037 35.142 19.544 47.612 12.366 12.567 29.828 19.918 47.51 19.918h.698c17.528 0 34.902-7.213 47.314-19.647 11.171-10.99 18.238-25.974 19.729-41.592-.479-5.553-.314-11.155.537-16.646a68.035 68.035 0 0 0-2.146-9.557 67.26 67.26 0 0 1 .396 19.887c.153-17.421-6.955-34.747-19.32-47.086-12.234-12.429-29.468-19.693-47.002-19.693h-.124c-.176-.002-.37-.006-.566-.006"/><path d="M122.124 107.476a155.371 155.371 0 0 0-2.762 6.606 68.13 68.13 0 0 0-1.52 16.669c.407 18.155 8.344 35.898 21.449 48.294 9.331 9.003 21.253 15.15 33.873 17.741-31.184-6.599-54.59-34.279-54.59-67.434a68.967 68.967 0 0 1 3.55-21.876m66.162-48.715c-.964 0-1.934.021-2.904.062-17.197.545-33.969 7.795-46.221 19.687a145.672 145.672 0 0 0-5.375 7.654c12.631-15.696 32.005-25.734 53.72-25.734 31.153 0 57.48 20.664 66.02 49.035a72.393 72.393 0 0 0-.792-3.971 69.132 69.132 0 0 1 3.666 9.465c.153-.745.325-1.49.503-2.229-3.365-13.503-10.722-25.979-20.977-35.311-12.856-11.916-30.231-18.658-47.64-18.658"/><path d="M139.161 78.51a64.407 64.407 0 0 0-2.466 2.52c-8.681 9.187-14.672 20.777-17.333 33.053a145.792 145.792 0 0 1 2.762-6.606 68.77 68.77 0 0 1 11.667-21.312 144.312 144.312 0 0 1 5.37-7.655"/><path d="M187.511 60.42c-21.714 0-41.088 10.048-53.72 25.736a68.817 68.817 0 0 0-11.667 21.319 68.94 68.94 0 0 0-3.542 21.877c0 33.154 23.399 60.835 54.588 67.434a66.995 66.995 0 0 0 15.039 1.364c17.931-.219 35.529-7.884 47.896-20.698 10.898-11.101 17.693-25.974 19.083-41.366a18.581 18.581 0 0 1-.035-.418c-1.496 15.619-8.569 30.601-19.733 41.59-12.413 12.438-29.794 19.648-47.315 19.648h-.698c-17.682 0-35.145-7.351-47.51-19.915-12.52-12.479-19.706-30.043-19.552-47.615-.028-17.67 7.286-35.056 19.812-47.383 12.259-12.301 29.485-19.427 46.758-19.427h.698c17.534 0 34.761 7.271 47.003 19.693 12.365 12.339 19.474 29.665 19.319 47.086a67.26 67.26 0 0 0-.396-19.887c-8.547-28.371-34.875-49.038-66.028-49.038"/><path fill="#FEFEFE" d="M291.682 188.574a66.863 66.863 0 0 0 3.246 2.321 69.833 69.833 0 0 0 7.58 3.271c.444-.456.888-.911 1.337-1.363a66.38 66.38 0 0 1-12.163-4.229m34.339-32.779c-1.519 0-3.062-.129-4.611-.403-14.377-2.538-23.981-16.255-21.449-30.632 2.259-12.822 13.418-21.853 26.008-21.853 1.521 0 3.063.126 4.624.404 14.383 2.54 23.981 16.254 21.448 30.631-2.259 12.832-13.425 21.853-26.02 21.853m.61-94.532c-13.501 0-26.955 4.063-38.072 11.647-14.671 9.819-25.133 25.547-28.445 42.761-3.507 17.201.137 35.592 9.811 50.075 8.131 12.403 20.496 21.835 34.471 26.492 12.229-12.263 26.346-22.635 41.721-30.598a166.873 166.873 0 0 1 46.873-16.027c.342-1.412.638-2.848.893-4.294a68.912 68.912 0 0 0 1-14.855c-.646-12.712-4.834-25.209-12.093-35.612-10.09-14.764-26.129-25.197-43.603-28.389a66.127 66.127 0 0 0-12.556-1.2"/><path d="M270.408 170.101l-1.275 2.224c7.971 10.686 19.06 19.008 31.519 23.797.373-.394.745-.793 1.123-1.186a70.032 70.032 0 0 1-6.847-4.04c-9.828-4.953-18.18-12.144-24.52-20.795m-14.175-35.34a66.982 66.982 0 0 1-.596 5.159c1.602 10.84 5.682 21.328 11.991 30.313l.066.103 1.288-2.233a68.895 68.895 0 0 1-11.72-33.336h-1.03m.888-2.307l-.75.012c-.024.491-.048.979-.083 1.471l.924.026c-.03-.504-.066-1.006-.091-1.509m-.721-17.501a79.944 79.944 0 0 0-.39 2.087 55.392 55.392 0 0 0-.338 1.975 69.157 69.157 0 0 1 .709 13.136l.729-.007a68.849 68.849 0 0 1 .616-12.238 71.611 71.611 0 0 0-1.326-4.953m69.445-56.36c-14.346 0-28.711 4.42-40.496 12.693-14.104 9.715-24.406 24.736-28.445 41.438.438 1.75.811 3.52 1.111 5.298l.107-.636c5.9-33.443 34.985-56.978 67.812-56.978 3.973 0 8.001.346 12.044 1.062 32.485 5.728 55.614 33.342 56.909 65a66.634 66.634 0 0 1-1.005 15.556 60.159 60.159 0 0 1-.71 3.558c.432-.079.87-.16 1.307-.237.296-1.261.556-2.524.773-3.801 1.965-10.58 1.333-21.609-1.654-31.97a172.726 172.726 0 0 0-9.871-18.78 148.837 148.837 0 0 0-6.876-10.36c-10.244-10.713-23.916-18.154-38.575-20.704a67.992 67.992 0 0 0-12.431-1.139"/><path d="M376.85 80.44a148.837 148.837 0 0 1 6.876 10.36 173.226 173.226 0 0 1 9.871 18.78c-2.124-7.363-5.429-14.383-9.847-20.669a68.25 68.25 0 0 0-6.9-8.471m-107.867 87.657l-1.288 2.235c.467.67.945 1.337 1.438 1.998l1.275-2.223c-.484-.667-.958-1.339-1.425-2.01m-12.69-34.155c-.018.272-.035.542-.06.812h1.036c-.019-.261-.042-.526-.054-.786l-.922-.026m.816-1.803l-.729.005c0 .11-.005.214-.011.322l.75-.012c.001-.097-.005-.207-.01-.315"/><path d="M255.672 119.016c-.852 5.491-1.017 11.094-.537 16.646.2-2.102.308-4.208.301-6.321a67.466 67.466 0 0 1-.261 6.745c.118 1.276.272 2.558.456 3.834.26-1.697.461-3.421.597-5.159.02-.271.042-.539.06-.813.03-.49.059-.979.083-1.469 0-.11.006-.219.011-.322a68.73 68.73 0 0 0-.71-13.141m1.23-6.293c-.171.741-.343 1.485-.503 2.229.496 1.63.94 3.276 1.326 4.941.081-.63.176-1.248.283-1.877a67.87 67.87 0 0 0-1.106-5.293"/><path d="M255.442 129.341a67.92 67.92 0 0 1-.297 6.321l.037.417c.195-2.24.283-4.485.26-6.738m70.485-68.934c-32.827 0-61.91 23.528-67.812 56.979l-.105.636a49.043 49.043 0 0 0-.283 1.878 68.784 68.784 0 0 0-.616 12.239c0 .108.005.212.011.315.024.503.055 1.003.091 1.515.011.26.035.525.053.786.946 12.129 5.091 23.58 11.72 33.335.461.678.936 1.351 1.42 2.011 6.34 8.651 14.689 15.843 24.517 20.795a66.091 66.091 0 0 1-3.246-2.321 67.83 67.83 0 0 0 12.159 4.229c.184-.19.373-.375.557-.559-13.975-4.657-26.34-14.096-34.471-26.493-9.676-14.483-13.318-32.875-9.812-50.075 3.312-17.22 13.773-32.942 28.446-42.76 11.116-7.585 24.57-11.648 38.071-11.648 4.199 0 8.414.393 12.562 1.2 17.474 3.19 33.513 13.626 43.603 28.389 7.259 10.408 11.446 22.906 12.093 35.612-1.297-31.659-24.424-59.272-56.909-65a68.996 68.996 0 0 0-12.049-1.063m-139.084 89.431c-5.044 0-10.124-1.955-13.902-5.461-4.033-3.658-6.563-9.005-6.796-14.571-.295-5.554 1.721-11.246 5.548-15.447 3.779-4.234 9.338-6.934 15.127-7.224.433-.023.87-.038 1.302-.038 5.362 0 10.779 2.025 14.848 5.677 4.442 3.892 7.306 9.65 7.659 15.685a21.337 21.337 0 0 0-3.33-6.316c-.04.942-.159 1.861-.331 2.749.326 1.434.503 2.932.503 4.468a19.88 19.88 0 0 1-5.091 13.313c-.22.265-.449.524-.687.773-3.536 3.825-8.675 6.206-14.003 6.374-.28.012-.563.018-.847.018m.668-46.926c-14.601 0-26.434 11.84-26.434 26.44 0 14.606 11.839 26.437 26.434 26.437 14.601 0 26.44-11.835 26.44-26.437 0-14.6-11.84-26.44-26.44-26.44"/><path fill="#83C7E4" d="M187.511 136.958a7.608 7.608 0 0 1-7.605-7.605c0-4.196 3.413-7.599 7.605-7.599a7.599 7.599 0 0 1 7.605 7.599 7.6 7.6 0 0 1-7.605 7.605m-.371-25.946c-4.626 0-9.398 1.902-12.779 5.242-3.514 3.392-5.589 8.2-5.631 13.127-.089 4.925 1.863 9.848 5.358 13.402 3.459 3.579 8.372 5.701 13.399 5.748h.313c4.914 0 9.817-1.994 13.365-5.467a19.421 19.421 0 0 0 5.861-13.712c.159 4.802-1.509 9.604-4.648 13.313a19.886 19.886 0 0 0 5.091-13.313c0-1.53-.177-3.028-.503-4.468a18.689 18.689 0 0 1-1.495 4.496c.082-4.715-1.786-9.446-5.134-12.85a18.266 18.266 0 0 0-12.903-5.52c-.094.002-.201.002-.294.002"/><path d="M188.121 107.097c-.438 0-.875.015-1.302.038-5.789.29-11.348 2.989-15.127 7.224-3.827 4.196-5.843 9.894-5.548 15.447.232 5.566 2.768 10.913 6.796 14.571 3.778 3.506 8.852 5.461 13.902 5.461.284 0 .567-.006.847-.019 5.328-.168 10.467-2.549 14.003-6.374.237-.255.467-.509.687-.773a19.9 19.9 0 0 1-14.868 6.645c-11.016 0-19.957-8.938-19.957-19.958s8.941-19.958 19.957-19.958c9.486 0 17.428 6.616 19.456 15.49.166-.883.285-1.807.331-2.749a21.35 21.35 0 0 1 3.33 6.316c-.361-6.034-3.217-11.793-7.659-15.685-4.069-3.651-9.486-5.676-14.848-5.676"/><path d="M187.511 109.395c-11.016 0-19.957 8.938-19.957 19.958 0 11.02 8.941 19.958 19.957 19.958a19.892 19.892 0 0 0 14.868-6.645 19.759 19.759 0 0 0 4.648-13.313 19.45 19.45 0 0 1-5.861 13.712c-3.542 3.479-8.444 5.467-13.365 5.467h-.313c-5.027-.043-9.94-2.16-13.399-5.748-3.495-3.549-5.44-8.478-5.358-13.402.042-4.922 2.123-9.735 5.631-13.127 3.381-3.34 8.153-5.242 12.779-5.242h.295a18.235 18.235 0 0 1 12.903 5.52c3.348 3.403 5.216 8.135 5.134 12.85a18.689 18.689 0 0 0 1.495-4.496c-2.03-8.875-9.971-15.492-19.457-15.492"/><path d="M187.511 121.754c-4.192 0-7.605 3.402-7.605 7.599a7.608 7.608 0 0 0 7.605 7.605 7.6 7.6 0 0 0 7.605-7.605c0-4.197-3.4-7.599-7.605-7.599m134.595 29.737c-5.801-1.054-11.088-4.521-14.359-9.352-3.322-4.777-4.594-10.988-3.519-16.566a21.985 21.985 0 0 1 9.21-14.158c3.606-2.506 8.029-3.828 12.376-3.828 1.318 0 2.631.121 3.908.37a21.627 21.627 0 0 1 13.909 9.054c3.204 4.64 4.447 10.562 3.389 16.046-1.013 5.507-4.294 10.521-8.888 13.626-3.478 2.409-7.723 3.685-11.923 3.685-1.288 0-2.571-.125-3.826-.365 1.006.152 2.022.229 3.034.229 4.394 0 8.8-1.416 12.271-4.007 4.322-3.144 7.273-8.013 8.054-13.184.235-1.435.302-2.896.207-4.329a19.85 19.85 0 0 1-.295 4.104c-1.71 9.691-10.131 16.502-19.64 16.502-1.147 0-2.313-.096-3.483-.301a20.128 20.128 0 0 1-5.517-1.831 20.523 20.523 0 0 0 5.092 4.305m3.869-48.584c-12.592 0-23.749 9.03-26.009 21.853-2.538 14.384 7.066 28.094 21.448 30.632 1.55.274 3.093.403 4.613.403 12.596 0 23.755-9.021 26.019-21.853 2.532-14.382-7.066-28.091-21.447-30.631a27.03 27.03 0 0 0-4.624-.404"/><path fill="#83C7E4" d="M326.01 136.958c-.433 0-.882-.035-1.325-.115-4.141-.729-6.896-4.675-6.169-8.812.646-3.692 3.856-6.283 7.482-6.283a7.598 7.598 0 0 1 7.491 8.924 7.596 7.596 0 0 1-7.479 6.286m.56-26.703c-3.92 0-7.799 1.221-10.945 3.468-4.003 2.809-6.771 7.2-7.563 11.904-.852 4.713.261 9.643 2.939 13.463 2.648 3.847 6.807 6.511 11.283 7.304-.787.115-1.591.167-2.408.167a18.29 18.29 0 0 1-3.631-.368c.25.334.503.667.775.992a19.968 19.968 0 0 0 9 2.132c9.51 0 17.93-6.811 19.641-16.502.242-1.38.342-2.755.295-4.104-.225-3.744-1.521-7.389-3.695-10.379-2.982-4.169-7.594-7.025-12.549-7.817a18.755 18.755 0 0 0-3.142-.26"/><path d="M325.82 107.581c-4.353 0-8.77 1.321-12.377 3.829a21.985 21.985 0 0 0-9.208 14.157c-1.076 5.577.195 11.79 3.52 16.568 3.269 4.824 8.556 8.296 14.357 9.35-2.01-1.21-3.726-2.688-5.08-4.307-7.676-3.855-12.242-12.406-10.68-21.297 1.709-9.682 10.13-16.5 19.627-16.5 1.153 0 2.318.102 3.495.308 9.474 1.665 16.196 9.767 16.486 19.016.097 1.439.03 2.896-.206 4.328-.775 5.172-3.731 10.043-8.056 13.186-3.476 2.584-7.875 4.006-12.27 4.006-1.011 0-2.028-.077-3.034-.227a20.6 20.6 0 0 0 3.826.36c4.199 0 8.445-1.271 11.922-3.681 4.595-3.104 7.884-8.121 8.89-13.626 1.063-5.484-.18-11.408-3.391-16.046-3.174-4.675-8.213-8.012-13.909-9.055a20.602 20.602 0 0 0-3.912-.369"/><path d="M325.975 109.395c-9.498 0-17.919 6.812-19.628 16.503-1.568 8.887 3.005 17.432 10.681 21.295a17.512 17.512 0 0 1-.775-.994 18.41 18.41 0 0 0 3.631.368c.815 0 1.627-.058 2.407-.167-4.478-.794-8.635-3.457-11.283-7.305-2.68-3.819-3.792-8.748-2.938-13.462.791-4.704 3.559-9.095 7.562-11.904 3.146-2.247 7.02-3.468 10.946-3.468 1.048 0 2.1.082 3.141.267 4.949.792 9.567 3.646 12.548 7.816 2.176 2.99 3.471 6.636 3.695 10.379-.283-9.246-7.007-17.345-16.486-19.015a19.346 19.346 0 0 0-3.501-.313"/><path d="M325.998 121.748a7.6 7.6 0 0 0-7.482 6.283 7.607 7.607 0 0 0 7.494 8.927c3.625 0 6.83-2.59 7.479-6.286a7.6 7.6 0 0 0-6.161-8.809 8.185 8.185 0 0 0-1.33-.115m83.826 313.94l.348 42.74.066.004v-1.62l-.414-41.124M256.625 311.787c.023 20.318 3.749 40.699 11.052 59.704 7.274 19.019 18.09 36.687 31.691 51.85 13.596 15.188 29.982 27.876 48.108 37.195 16.729 8.638 37.373 14.567 56.397 17.153v-1.491c-18.823-2.46-39.272-8.22-55.883-16.66-18.066-9.147-34.442-21.659-48.067-36.704-13.631-15.01-24.523-32.538-31.898-51.483-7.391-18.925-11.248-39.246-11.4-59.564M402.97 144.105c-2.838.345-5.671.756-8.492 1.252a128.45 128.45 0 0 1-.538 2.138l-1.302.231c.189-.711.368-1.419.533-2.133l-.183.03c-.179.717-.368 1.428-.557 2.139-33.43 6.09-62.885 22.217-85.783 45.197h.006l-.391.388h-.005c-.515.52-1.029 1.046-1.538 1.576a78.752 78.752 0 0 1-2.213-.757c-.247.254-.496.508-.738.769.663.336 1.331.67 2 .993l-.948 1a90.006 90.006 0 0 1-2.175-.802 129.54 129.54 0 0 0-2.81 3.084c-13.643 15.301-24.477 33.128-31.757 52.315-7.303 19.186-10.999 39.723-10.97 60.261.958-15.422 4.003-30.572 9.007-44.896-2.939 13.092-4.211 26.48-3.903 39.738a163.5 163.5 0 0 1 11.627-57.05c7.232-18.137 17.77-34.958 30.928-49.432 13.134-14.486 28.895-26.621 46.298-35.596 16.795-8.695 35.127-14.411 53.909-16.853l-.005-3.592"/><path d="M406.902 143.661l-.386.044 1.007 258.384 1.219 74.677c-.309-.036-.615-.07-.924-.101l.006 1.515c.272.03.544.061.811.088l1.543.16-.349-42.739-2.921-289.731-.006-2.297m-3.028 332.537v1.491c1.318.177 2.632.343 3.938.49l-.007-1.515a152.124 152.124 0 0 1-3.931-.466m2.637-332.493l-1.908.211c-.54.06-1.082.126-1.633.189l.011 3.588c.131-.017.261-.029.396-.046l4.141 254.441-1.007-258.383m-102.666 49.099c-.449.445-.893.901-1.337 1.363.734.26 1.474.516 2.213.757.509-.53 1.023-1.057 1.538-1.576a98.58 98.58 0 0 1-2.414-.544m89.143-47.185a167.032 167.032 0 0 0-46.873 16.028c-15.375 7.956-29.491 18.336-41.721 30.598a75.73 75.73 0 0 0 2.26.709c22.897-22.98 52.353-39.106 85.783-45.199.183-.709.373-1.42.551-2.136m-91.218 49.317c-.373.393-.752.792-1.123 1.186.721.278 1.448.544 2.175.797l.948-.995a132.49 132.49 0 0 1-2-.988m4.884-1.982c-.13.129-.255.255-.391.388h.006l.385-.388m87.824-47.602c-.437.077-.881.151-1.307.237a64.906 64.906 0 0 1-.533 2.129l1.302-.229c.183-.708.366-1.425.538-2.137"/><path d="M304.395 192.245a16.08 16.08 0 0 0-.55.559 74.6 74.6 0 0 0 2.419.538c.129-.133.261-.259.391-.388a73.938 73.938 0 0 1-2.26-.709m83.063 126.958l-77.657 34.086-2.49 27.345 6.694-21.681 73.453-39.75m-7.273-40.935l-83.277 38.687-3.814 28.407 7.995-22.731 79.096-44.363m7.657-52.59l-100.431 52.66-7.848 31.71 11.958-25.973 96.321-58.397M133.515 17.349l-11.698 83.707a154.402 154.402 0 0 1 4.606-8.612l7.647-74.403 39.982 23.598c.502-.339 1.004-.674 1.507-1.004l-41.59-23.019-.454-.267"/><path d="M134.07 18.04l-7.653 74.403a155.782 155.782 0 0 0-4.606 8.612l-.289 2.075.018-.035a148.789 148.789 0 0 1 4.932-9.604l9.822-70.678L172.32 42.83c.578-.398 1.152-.799 1.732-1.186L134.07 18.04m41.49 22.594c-.503.33-1.012.665-1.507 1.004l.053.03c.502-.341 1.011-.667 1.52-.999l-.066-.035"/><path d="M126.476 93.492a151.407 151.407 0 0 0-4.932 9.604 152.035 152.035 0 0 1 4.825-8.854l.107-.75m49.149-52.823c-.509.332-1.018.658-1.52.999l-.053-.03c-.58.388-1.154.787-1.732 1.185l.111.063a124.693 124.693 0 0 1 3.253-2.187l-.059-.03"/></svg>