<svg version="1.1" xmlns="http://www.w3.org/2000/svg" x="0" y="0" width="38" height="38" viewBox="0 0 38 38" xml:space="preserve"><g id="Layer_5"><circle fill="#FFF" cx="19" cy="19" r="19"/><path fill="#D2001D" d="M26.131 9.492a2.377 2.377 0 0 0-1.188 4.435v3.886h-4.754v-3.886c.225-.13.425-.295.595-.488.369-.419.595-.967.595-1.568a2.378 2.378 0 0 0-4.755 0c0 .879.479 1.645 1.189 2.057v3.886h-4.755v-3.886a2.376 2.376 0 0 0-1.189-4.435 2.378 2.378 0 0 0-1.189 4.435v10.148a2.374 2.374 0 0 0 1.189 4.434 2.377 2.377 0 0 0 1.189-4.434V20.19h4.755v3.886a2.374 2.374 0 0 0 1.188 4.434 2.378 2.378 0 0 0 2.378-2.377c0-.602-.226-1.149-.595-1.568a2.399 2.399 0 0 0-.595-.488v-3.886h5.943c.657 0 1.189-.532 1.189-1.188v-5.074a2.378 2.378 0 0 0-1.19-4.437z"/></g></svg>