<svg version="1.1" xmlns="http://www.w3.org/2000/svg" x="0" y="0" width="38" height="38" viewBox="0 0 38 38" xml:space="preserve"><g id="Layer_2"><circle fill="#FFF" cx="19" cy="19" r="19"/><path fill="#D2001D" d="M20.081 27.702l-3.878-.246c-3.184-.202-3.505-.52-4.029-3.879-.232-1.484-.837-5.952-.837-5.952-.16-1.347 1.788-1.668 1.984-.288 0 0 .554 4.276.791 5.693.318 1.915.587 2.246 2.525 2.368l3.56.227c1.402.089 1.262 2.165-.116 2.077zm-5.394-14.764a2.341 2.341 0 1 0-.002-4.682 2.341 2.341 0 0 0 .002 4.682zm11.615 14.52l-3.091-5.607a1.756 1.756 0 0 0-1.331-.713l-1.711-.164-1.119-.107c-.14-.014-.289-.043-.429-.024l-.526-2.259-.046-.229-.055-.195-.646-3.022a1.622 1.622 0 0 0-.462-.832l-.003-.01-.225-.17-.089-.052-.089-.054-.017-.008-.031-.012-.174-.067-.109-.032-.146-.032a1.712 1.712 0 0 0-.634.003l-.225.066-.006.001-.016.005-.061.019a1.635 1.635 0 0 0-1.181 1.914l.956 4.486c.11.771.393 2.585.685 3.105l.067.099c.391.469.788.828 1.435.859l4.571.223 2.742 4.674c.251.264.581.404.917.42a1.354 1.354 0 0 0 1.049-2.285z"/></g></svg>