<svg version="1.1" id="Layer_1" xmlns="http://www.w3.org/2000/svg" x="0" y="0" width="13" height="17.333" viewBox="0 0 13 17.333" xml:space="preserve"><path d="M6.514 3.607A2.6 2.6 0 1 0 9.099 6.22v-.014a2.598 2.598 0 0 0-2.585-2.599zm0 4.598A2.001 2.001 0 0 1 4.501 6.22a1.998 1.998 0 1 1 3.998-.029v.014a2 2 0 0 1-1.985 2.001v-.001z"/><path d="M6.5 0C3.101 0 .242 2.736.01 6.229a6.756 6.756 0 0 0 1.38 4.466l4.869 6.517c.101.132.288.16.42.062l.06-.062 4.871-6.517a6.747 6.747 0 0 0 1.381-4.466C12.759 2.736 9.899 0 6.5 0zm4.629 10.338L6.5 16.532l-4.629-6.196A6.15 6.15 0 0 1 .607 6.268C.794 3.483 3.049.6 6.5.6s5.706 2.884 5.894 5.668a6.167 6.167 0 0 1-1.265 4.07z"/></svg>