<svg version="1.1" xmlns="http://www.w3.org/2000/svg" x="0" y="0" width="185.138" height="184.997" viewBox="0 0 185.138 184.997" xml:space="preserve"><g id="Layer_2"><path d="M185 92h-.5c0 25.269-10.24 48.141-26.8 64.7s-39.431 26.8-64.7 26.8c-25.269 0-48.141-10.24-64.7-26.8C11.741 140.141 1.5 117.269 1.5 92s10.241-48.141 26.8-64.7C44.86 10.741 67.731.5 93 .5c25.269 0 48.141 10.241 64.701 26.8 16.56 16.56 26.8 39.431 26.8 64.7h.999C185.5 40.913 144.087-.5 93-.5 41.914-.5.5 40.913.5 92s41.414 92.5 92.5 92.5c51.087 0 92.5-41.413 92.5-92.5h-.5z"/><path d="M55.118 90.229c0-10.057 3.901-19.593 11.097-26.701 7.11-7.197 16.646-11.186 26.79-11.186 9.97 0 19.419 3.902 26.615 10.924.26.434.781.695 1.389.695.865 0 1.646-.695 1.646-1.648V50.607c0-.865-.781-1.646-1.646-1.646-.867 0-1.648.781-1.648 1.646v7.891c-7.369-6.156-16.561-9.537-26.269-9.537-11.01 0-21.327 4.335-29.131 12.137-7.801 7.803-12.049 18.12-12.049 29.044 0 5.635 1.125 11.185 3.38 16.3.26.606.868.953 1.475.953.259 0 .434-.088.692-.173.867-.349 1.215-1.301.867-2.168-2.167-4.595-3.208-9.623-3.208-14.825z"/><path fill="#FFF" d="M55.118 90.229h.5c.001-9.927 3.849-19.331 10.948-26.346l.002-.002.002-.002c7.019-7.104 16.421-11.036 26.435-11.037 9.839 0 19.16 3.849 26.265 10.782l.35-.358-.429.257c.371.615 1.071.939 1.817.938.567 0 1.101-.227 1.495-.607.395-.379.652-.926.651-1.542V50.607a2.144 2.144 0 0 0-.646-1.501 2.141 2.141 0 0 0-1.501-.645 2.143 2.143 0 0 0-1.503.645 2.14 2.14 0 0 0-.646 1.501v7.891h.5l.32-.384c-7.456-6.23-16.765-9.654-26.589-9.653-11.14-.001-21.589 4.39-29.483 12.283-7.894 7.894-12.196 18.344-12.195 29.397 0 5.701 1.139 11.32 3.422 16.501l.458-.201-.459.197a2.102 2.102 0 0 0 1.934 1.256c.187.001.354-.034.49-.076.138-.041.246-.085.358-.122l.016-.005.015-.006a2.08 2.08 0 0 0 1.314-1.954c0-.288-.056-.582-.169-.864l-.005-.014-.006-.013c-2.132-4.523-3.159-9.477-3.159-14.612h-1.002c0 5.269 1.055 10.372 3.255 15.038l.452-.213-.464.187c.066.166.097.332.097.491-.006.457-.237.841-.687 1.026l.187.464-.156-.475c-.147.048-.255.091-.334.114l-.202.033c-.421 0-.845-.245-1.015-.65l-.001-.002-.001-.002c-2.225-5.05-3.337-10.53-3.337-16.099.001-10.794 4.194-20.979 11.902-28.69 7.714-7.71 17.899-11.989 28.777-11.99 9.592 0 18.667 3.338 25.949 9.421l.82.686v-8.96c-.001-.28.131-.573.353-.794.221-.221.515-.354.796-.353.279-.001.573.131.794.353.222.221.354.514.353.794v11.705a1.126 1.126 0 0 1-.346.822 1.161 1.161 0 0 1-.801.327c-.469-.001-.812-.2-.96-.452l-.033-.056-.046-.045c-7.285-7.11-16.863-11.066-26.964-11.066-10.276-.001-19.943 4.043-27.146 11.334l.355.352-.352-.355c-7.291 7.202-11.246 16.871-11.245 27.057h.5z"/><path d="M130.458 73.149a1.548 1.548 0 0 0-2.168-.779 1.545 1.545 0 0 0-.779 2.166c2.254 4.942 3.381 10.23 3.381 15.692 0 10.143-3.988 19.593-11.098 26.789-7.195 7.108-16.645 11.097-26.789 11.097-9.884 0-19.161-3.728-26.27-10.576a1.714 1.714 0 0 0-1.561-1.041c-.866 0-1.648.781-1.648 1.648v11.615c0 .868.782 1.648 1.648 1.648.867 0 1.648-.78 1.648-1.648v-7.715c7.368 6.068 16.471 9.363 26.095 9.363 11.01 0 21.327-4.247 29.129-12.051 7.803-7.803 12.051-18.12 12.051-29.13.089-5.981-1.126-11.704-3.639-17.078z"/><path fill="#FFF" d="M130.458 73.149l.464-.186a2.049 2.049 0 0 0-2.875-1.03l.243.437-.186-.464a2.044 2.044 0 0 0-1.031 2.873l.438-.243-.455.208c2.224 4.877 3.336 10.092 3.336 15.485-.001 10.011-3.933 19.33-10.953 26.438l.355.352-.352-.355c-7.106 7.02-16.425 10.951-26.437 10.952-9.758-.001-18.905-3.677-25.923-10.437l-.347.36.459-.197a2.212 2.212 0 0 0-2.02-1.344 2.14 2.14 0 0 0-1.502.646 2.143 2.143 0 0 0-.646 1.503v11.615c.001.587.26 1.117.646 1.504.387.386.917.644 1.502.645a2.14 2.14 0 0 0 1.503-.646c.386-.386.644-.916.646-1.503v-7.715h-.5l-.318.386c7.455 6.142 16.674 9.479 26.413 9.478 11.139.001 21.589-4.301 29.483-12.197 7.896-7.894 12.198-18.345 12.197-29.483h-.5l.5.007c.003-.205.005-.408.005-.612 0-5.833-1.233-11.428-3.692-16.686l-.453.209.464-.186-.464.186-.453.212c2.398 5.127 3.598 10.569 3.599 16.262 0 .199-.002.398-.005.598v.007c-.001 10.881-4.194 21.064-11.904 28.776-7.712 7.711-17.895 11.903-28.776 11.904-9.51-.001-18.496-3.254-25.777-9.249l-.818-.674v8.774a1.15 1.15 0 0 1-.353.796 1.15 1.15 0 0 1-.796.353 1.147 1.147 0 0 1-.795-.353 1.15 1.15 0 0 1-.353-.796v-11.615c-.001-.28.131-.575.353-.796a1.15 1.15 0 0 1 .795-.353c.48-.003.917.308 1.101.738l.04.093.073.07c7.199 6.938 16.606 10.717 26.616 10.716 10.276.001 19.856-4.044 27.14-11.241l.002-.002.002-.002c7.198-7.285 11.243-16.866 11.242-27.141 0-5.531-1.142-10.892-3.426-15.9l-.009-.018-.009-.017a1.047 1.047 0 0 1 .527-1.459l.029-.012.028-.016a.993.993 0 0 1 .483-.124c.411.001.814.241.978.652l.005.013.006.013.455-.209z"/><path fill="#F10009" d="M96.698 77.992c4.064 0 6.373 1.479 8.959 4.064.555.555 1.385.555 1.939 0 .275-.277.369-.555.369-.924s-.094-.74-.369-1.016c-2.402-2.402-5.635-4.895-10.898-4.895-6.649 0-12.56 4.434-14.407 10.898h-2.863c-.737 0-1.385.646-1.385 1.385s.647 1.385 1.385 1.385h2.31c0 .461-.093.922-.093 1.385 0 .74.093 1.479.185 2.217h-2.401c-.737 0-1.385.646-1.385 1.385 0 .74.647 1.387 1.385 1.387h3.14a14.942 14.942 0 0 0 14.13 9.973c5.264 0 8.496-2.492 10.898-4.986.275-.277.369-.646.369-1.016s-.186-.738-.369-.924c-.555-.553-1.385-.553-1.939 0-2.586 2.586-4.895 4.156-8.959 4.156-4.894 0-9.142-2.771-11.174-7.203H97.53c.738 0 1.385-.646 1.385-1.387 0-.738-.646-1.385-1.385-1.385H84.6c-.091-.738-.185-1.477-.185-2.217 0-.463 0-.83.094-1.385H97.53c.738 0 1.385-.646 1.385-1.385s-.646-1.385-1.385-1.385H85.245c1.664-4.803 6.374-8.127 11.453-8.127z"/><path d="M93.005 119.879c16.384 0 29.65-13.265 29.65-29.65S109.389 60.58 93.005 60.58c-16.386 0-29.651 13.264-29.651 29.649s13.265 29.65 29.651 29.65zm0-56.006c14.566 0 26.355 11.791 26.355 26.355s-11.789 26.355-26.355 26.355-26.356-11.791-26.356-26.355c-.001-14.478 11.789-26.355 26.356-26.355z"/><path fill="#FFF" d="M93.005 119.879v.5c16.661 0 30.15-13.488 30.15-30.15S109.666 60.08 93.005 60.08c-16.662 0-30.151 13.488-30.151 30.149 0 16.662 13.49 30.15 30.151 30.15v-1a29.06 29.06 0 0 1-20.617-8.534 29.058 29.058 0 0 1-8.535-20.616c0-8.057 3.26-15.341 8.535-20.616a29.062 29.062 0 0 1 20.617-8.534c8.056 0 15.34 3.259 20.616 8.534 5.274 5.275 8.534 12.559 8.534 20.616s-3.26 15.341-8.534 20.616a29.058 29.058 0 0 1-20.616 8.534v.5zm0-56.006v.5a25.771 25.771 0 0 1 18.287 7.57 25.771 25.771 0 0 1 7.568 18.286 25.777 25.777 0 0 1-7.568 18.286c-4.68 4.678-11.14 7.569-18.287 7.569s-13.608-2.892-18.287-7.569a25.772 25.772 0 0 1-7.569-18.286c0-7.102 2.891-13.563 7.57-18.254 4.68-4.69 11.141-7.602 18.287-7.602v-1c-14.845.001-26.855 12.1-26.856 26.855 0 14.841 12.014 26.855 26.856 26.855s26.855-12.015 26.855-26.855-12.013-26.855-26.855-26.855v.5z"/></g></svg>