<svg version="1.1" id="Layer_1" xmlns="http://www.w3.org/2000/svg" x="0" y="0" width="185.138" height="184.997" viewBox="0 0 185.138 184.997" xml:space="preserve"><path d="M184.569 92.516h-.5c0 25.269-10.24 48.141-26.8 64.7s-39.432 26.8-64.7 26.8-48.141-10.24-64.7-26.8c-16.559-16.56-26.8-39.432-26.8-64.7s10.241-48.141 26.8-64.7c16.56-16.559 39.432-26.8 64.7-26.8s48.141 10.241 64.7 26.8c16.56 16.56 26.8 39.431 26.8 64.7h1c0-51.087-41.413-92.5-92.5-92.5-51.086 0-92.5 41.413-92.5 92.5s41.414 92.5 92.5 92.5c51.087 0 92.5-41.413 92.5-92.5h-.5z"/><path d="M131.821 86.327h-4.745c-1.536-2.805-3.353-5.631-5.435-8.454 5.848-1.542 10.18-6.861 10.18-13.188 0-7.528-6.126-13.654-13.652-13.654-7.529 0-13.654 6.125-13.654 13.654 0 1.238.182 2.434.492 3.576H76.463c-3.15 0-6.181 1.391-8.314 3.821-2.984 3.397-6.874 8.364-10.092 14.245h-4.742a4.271 4.271 0 0 0-4.267 4.267v1.887a4.272 4.272 0 0 0 4.267 4.267h.323c-1.018 3.451-1.542 6.791-1.542 9.973v11.258c0 3.945 2.992 7.203 6.826 7.629v4.092a4.274 4.274 0 0 0 4.267 4.268h6.827a4.273 4.273 0 0 0 4.268-4.268v-4.041h36.571v4.041a4.274 4.274 0 0 0 4.268 4.268h6.827a4.272 4.272 0 0 0 4.267-4.268v-4.092c3.834-.426 6.828-3.684 6.828-7.629v-11.258c0-3.184-.524-6.521-1.543-9.973h.323a4.27 4.27 0 0 0 4.266-4.267v-1.887a4.279 4.279 0 0 0-4.27-4.267zm-13.653-33.588c6.586 0 11.946 5.358 11.946 11.946 0 6.587-5.358 11.946-11.946 11.946s-11.947-5.358-11.947-11.946 5.36-11.946 11.947-11.946zM69.432 73.207c1.808-2.06 4.371-3.24 7.031-3.24h29.115c2.068 4.912 6.932 8.371 12.588 8.371.549 0 1.086-.041 1.617-.104 3.141 4.175 5.692 8.355 7.593 12.451H57.759c3.377-7.287 8.166-13.483 11.673-17.478zM53.315 95.041a2.561 2.561 0 0 1-2.561-2.56v-1.887a2.562 2.562 0 0 1 2.561-2.561h3.839c-.44.867-.86 1.751-1.262 2.65h-.011l-.222.515-.519 1.192h.029c-.36.889-.697 1.773-.995 2.65h-.859zm19.262 34.658a2.562 2.562 0 0 1-2.561 2.559h-6.827a2.562 2.562 0 0 1-2.56-2.559v-4.041h11.947v4.041zm7.624-5.748l2.721-1.773a5.97 5.97 0 0 1 3.263-.967h12.768a5.97 5.97 0 0 1 3.262.967l2.721 1.773H80.201zm41.745 8.307h-6.827a2.563 2.563 0 0 1-2.56-2.559v-4.041h11.946v4.041a2.56 2.56 0 0 1-2.559 2.559zm9.387-14.279a5.98 5.98 0 0 1-5.972 5.973h-17.302l-4.916-3.205a7.661 7.661 0 0 0-4.191-1.244H86.184a7.683 7.683 0 0 0-4.192 1.244l-4.915 3.205H59.776a5.98 5.98 0 0 1-5.974-5.973v-4.594h77.53v4.594zm-77.531-6.303v-4.955c0-4.475 1.077-9.293 3.202-14.33h71.127c2.125 5.035 3.201 9.855 3.201 14.33v4.955h-77.53zm80.578-19.195a2.56 2.56 0 0 1-2.56 2.56h-.859a47.96 47.96 0 0 0-.995-2.65h.028l-.518-1.192-.223-.515h-.011a57.256 57.256 0 0 0-1.266-2.65h3.841a2.564 2.564 0 0 1 2.562 2.561v1.886z"/><path d="M123.731 97.768h-13.809a2.483 2.483 0 0 0-2.481 2.482v.932H77.696v-.932a2.485 2.485 0 0 0-2.482-2.482h-13.81a2.485 2.485 0 0 0-2.481 2.482v3.568a2.486 2.486 0 0 0 2.481 2.482h13.809a2.485 2.485 0 0 0 2.481-2.482v-.932h29.746v.932a2.485 2.485 0 0 0 2.481 2.482h13.729a2.56 2.56 0 0 0 2.56-2.561v-3.49a2.48 2.48 0 0 0-2.479-2.481zm-47.742 6.048a.778.778 0 0 1-.776.777H61.404a.777.777 0 0 1-.774-.777v-3.568c0-.426.349-.773.774-.773h13.809c.428 0 .776.348.776.773v3.568zm48.516-.076a.855.855 0 0 1-.853.854h-13.73a.778.778 0 0 1-.775-.777v-3.568c0-.426.349-.773.775-.773h13.809c.426 0 .775.348.775.773l-.001 3.491z"/><path fill="#F10009" d="M117.823 70.572a.858.858 0 0 0 .725.012c2.849-1.282 5.575-4.378 6.207-7.046.327-1.385.097-2.613-.668-3.552-.687-.844-1.611-1.272-2.669-1.206-1.282.063-2.454.795-3.194 1.589-.691-.799-1.797-1.544-3.026-1.646-.771-.06-1.894.101-2.876 1.245-.787.914-1.057 2.106-.781 3.441.534 2.595 3.235 5.674 6.282 7.163zm-4.207-9.491c.382-.445.807-.662 1.299-.662l.141.005c.875.072 1.748.774 2.127 1.399a1.2 1.2 0 0 0 1.005.58 1.15 1.15 0 0 0 1.024-.542c.422-.643 1.395-1.331 2.291-1.377.51-.037.922.164 1.26.579.425.521.534 1.221.331 2.083-.479 2.025-2.665 4.553-4.885 5.706-2.431-1.317-4.587-3.794-4.999-5.788-.166-.811-.029-1.477.406-1.983z"/></svg>