<svg version="1.1" xmlns="http://www.w3.org/2000/svg" x="0" y="0" width="185.138" height="184.997" viewBox="0 0 185.138 184.997" xml:space="preserve"><g id="Layer_3"><path d="M114.26 45.363c-7.021 0-12.977 4.469-15.254 10.711a29.13 29.13 0 0 0-15.114-4.202c-16.16 0-29.283 13.123-29.283 29.283 0 4.882 1.283 9.454 3.389 13.489 8.254 14.491 16.624 28.977 24.945 43.451.398.767 1.557.675 1.898 0 8.111-14.588 16.968-28.811 24.944-43.451 2.105-4.035 3.389-8.607 3.389-13.489 0-1.127-.076-2.231-.203-3.321.428.034.854.067 1.289.067 8.973 0 16.268-7.296 16.268-16.27 0-8.97-7.295-16.268-16.268-16.268zm0 2.17c7.799 0 14.1 6.3 14.1 14.1a14.085 14.085 0 0 1-14.1 14.101c-7.801 0-14.1-6.3-14.1-14.101.001-7.8 6.299-14.1 14.1-14.1zM83.892 54.04c5.331 0 10.283 1.55 14.472 4.204a16.306 16.306 0 0 0-.373 3.389c0 7.765 5.459 14.251 12.744 15.862.166 1.199.271 2.413.271 3.66 0 4.494-1.168 8.728-3.119 12.474-7.969 13.913-15.993 27.819-23.995 41.722-7.896-13.961-16.172-27.736-23.996-41.722-1.95-3.746-3.119-7.979-3.119-12.474 0-14.988 12.127-27.115 27.115-27.115zm0 14.102c-7.175 0-13.015 5.838-13.015 13.014 0 7.175 5.84 13.017 13.015 13.017s13.015-5.842 13.015-13.017c0-7.177-5.84-13.014-13.015-13.014zm0 2.168c6.003 0 10.847 4.843 10.847 10.846s-4.844 10.847-10.847 10.847-10.847-4.844-10.847-10.847S77.889 70.31 83.892 70.31z"/><path fill="#F10009" d="M112.092 55.125a1.14 1.14 0 0 0-.781.305l-5.422 5.458a1.082 1.082 0 0 0-.307.745c0 .289.121.551.307.745 1.799 1.812 3.615 3.641 5.422 5.457.424.388 1.135.423 1.559 0s.424-1.135 0-1.56l-3.592-3.559h12.574a1.084 1.084 0 1 0 0-2.169h-12.574l3.592-3.558c.402-.399.424-1.136 0-1.561a1.08 1.08 0 0 0-.778-.303z"/><path d="M184.569 92h-.5c0 25.269-10.24 48.141-26.799 64.7-16.561 16.56-39.432 26.8-64.701 26.8-25.269 0-48.141-10.24-64.7-26.8-16.559-16.56-26.8-39.432-26.8-64.7s10.241-48.141 26.8-64.7C44.428 10.741 67.3.5 92.569.5c25.27 0 48.141 10.241 64.701 26.8 16.559 16.56 26.799 39.431 26.799 64.7h1c0-51.087-41.412-92.5-92.5-92.5C41.482-.5.069 40.913.069 92s41.413 92.5 92.5 92.5c51.088 0 92.5-41.413 92.5-92.5h-.5z"/></g></svg>