<svg version="1.1" id="Layer_1" xmlns="http://www.w3.org/2000/svg" x="0" y="0" width="20.397" height="441.716" viewBox="0 0 20.397 441.716" xml:space="preserve"><path fill="#AE3D63" d="M0 11.022v-.062C0 4.938 4.28 0 10.169 0c5.891 0 10.117 4.875 10.117 10.9v.06c0 6.025-4.281 10.96-10.17 10.96S0 17.047 0 11.022m15.897 0v-.062c0-3.632-2.401-6.66-5.781-6.66S4.39 7.269 4.39 10.9v.06c0 3.634 2.399 6.663 5.778 6.663 3.384 0 5.729-2.969 5.729-6.601"/><path fill="#FFF" d="M3.133 40.131h7.881c2.153 0 3.898.697 4.961 1.876.79.878 1.227 2 1.227 3.331v.059c0 2.879-1.688 4.332-3.244 5.026 2.292.668 4.309 2.121 4.309 5.056v.062c0 3.541-2.728 5.782-6.844 5.782h-8.29V40.131zm7.717 9.78c2.861 0 4.906-1.544 4.906-4.359v-.063c0-2.328-1.716-3.903-4.771-3.903H4.55v8.325h6.3zm.626 9.96c3.272 0 5.345-1.666 5.345-4.329v-.062c0-2.603-2.045-4.116-5.807-4.116H4.55v8.507h6.926zM3.025 98.004l.926-1.181c2.1 2.15 4.037 3.15 6.845 3.15 2.863 0 4.826-1.787 4.826-4.21v-.059c0-2.241-1.064-3.544-5.398-4.512-4.58-1.029-6.437-2.754-6.437-5.963v-.063c0-3.147 2.592-5.569 6.137-5.569 2.78 0 4.607.847 6.544 2.572l-.901 1.244c-1.799-1.728-3.598-2.394-5.697-2.394-2.81 0-4.662 1.788-4.662 3.997v.059c0 2.241 1.037 3.604 5.561 4.632 4.419 1 6.271 2.756 6.271 5.844v.062c0 3.419-2.642 5.782-6.324 5.782-3.056.001-5.402-1.122-7.691-3.391m.817 21.663h13.576v1.453H5.258v8.326h10.934v1.453H5.258v8.507h12.297v1.453H3.842zm-.721 39.766h8.017c2.347 0 4.228.816 5.371 2.088.901 1 1.444 2.422 1.444 3.938v.061c0 3.541-2.371 5.568-5.588 6.053l6.297 9.054h-1.798l-6.08-8.778H4.538v8.778H3.121v-21.194zm7.854 10.988c3.188 0 5.562-1.785 5.562-4.844v-.059c0-2.848-2.019-4.633-5.48-4.633H4.538v9.535h6.437zm-9.859 28.781h1.583l7.47 19.498 7.498-19.498h1.499l-8.395 21.342H9.516zm8.343 39.613h1.362l8.89 21.346h-1.554l-2.427-5.936H4.471l-2.428 5.936H.572l8.887-21.346zm5.671 13.989l-5.018-12.264-5.042 12.264h10.06zM9.431 280.19H2.779v-1.453H17.5v1.453h-6.65v19.739H9.431zM.547 329.161v-.062c0-5.783 3.844-10.957 9.622-10.957 5.783 0 9.573 5.115 9.573 10.896v.061c0 5.785-3.845 10.959-9.626 10.959-5.782 0-9.569-5.116-9.569-10.897m17.722 0v-.062c0-5.238-3.437-9.535-8.152-9.535-4.717 0-8.099 4.238-8.099 9.475v.061c0 5.236 3.436 9.539 8.151 9.539 4.717-.001 8.1-4.242 8.1-9.478m-15.148 29.11h8.017c2.347 0 4.228.814 5.371 2.088.901 1 1.444 2.42 1.444 3.936v.061c0 3.541-2.371 5.568-5.588 6.053l6.297 9.055h-1.798l-6.08-8.777H4.538v8.777H3.121v-21.193zm7.854 10.986c3.188 0 5.562-1.783 5.562-4.844v-.059c0-2.848-2.019-4.631-5.48-4.631H4.538v9.533h6.437zm-1.541 41.588l-8.182-12.807h1.773l7.142 11.383 7.172-11.383h1.692l-8.18 12.777v8.416H9.434z"/><path fill="#AE3D63" d="M2.963 440.075h14.36v1.641H2.963z"/></svg>