<svg version="1.1" id="Layer_1" xmlns="http://www.w3.org/2000/svg" x="0" y="0" width="46" height="38" viewBox="0 0 46 38" xml:space="preserve"><path d="M45.477 11.636L40.734 1.404A1.418 1.418 0 0 0 39.431.55H6.609c-.535 0-1.07.311-1.302.854L.564 11.636c-.687 1.55-.687 3.333.155 4.805.763 1.396 2.141 2.326 3.671 2.482h.537c.304 0 .611 0 .917-.078v17.832c0 .464.306.772.764.772h32.667c.461 0 .767-.309.767-.772V18.846c.308.078.61.078.921.078h.536c1.524-.156 2.905-1.086 3.67-2.482.918-1.473.994-3.255.308-4.806zM20.611 35.9h-9.184V24.038h9.184V35.9zm17.979 0H22.142V23.264c0-.463-.306-.773-.766-.773H10.663c-.458 0-.763.312-.763.773V35.9H7.373V18.303c.843-.466 1.531-1.164 2.068-1.938a5.219 5.219 0 0 0 4.513 2.558 5.227 5.227 0 0 0 4.516-2.558 5.22 5.22 0 0 0 4.511 2.558 5.223 5.223 0 0 0 4.517-2.558 5.224 5.224 0 0 0 4.516 2.558 5.227 5.227 0 0 0 4.512-2.558c.459.851 1.224 1.471 2.065 1.938L38.59 35.9zm5.358-20.233c-.54 1.008-1.455 1.629-2.528 1.706h-.382a3.72 3.72 0 0 1-3.671-3.101c-.078-.388-.385-.698-.844-.698s-.766.31-.842.698a3.716 3.716 0 0 1-3.671 3.101 3.717 3.717 0 0 1-3.674-3.101c-.077-.388-.382-.698-.841-.698a.838.838 0 0 0-.844.698 3.719 3.719 0 0 1-3.673 3.101 3.718 3.718 0 0 1-3.671-3.101.832.832 0 0 0-.839-.698c-.459 0-.765.31-.843.698a3.718 3.718 0 0 1-3.673 3.101 3.719 3.719 0 0 1-3.672-3.101c-.076-.388-.381-.698-.84-.698a.896.896 0 0 0-.842.698 3.717 3.717 0 0 1-3.672 3.101h-.383c-1.073-.077-1.992-.698-2.523-1.706-.613-1.086-.613-2.326-.153-3.411L6.611 2.103h32.667l4.746 10.231c.535 1.007.455 2.325-.076 3.333zm-8.264 6.822H27.65c-.463 0-.767.312-.767.774v4.187c0 .466.304.774.767.774h8.031c.461 0 .766-.31.766-.774v-4.187c0-.384-.383-.774-.763-.774zm-.766 4.187h-6.504v-2.638h6.504v2.638z"/></svg>