<svg version="1.1" id="Layer_1" xmlns="http://www.w3.org/2000/svg" x="0" y="0" width="108" height="14" viewBox="0 0 108 14" xml:space="preserve"><path d="M.654.066v3.095H4.38v10.86h3.864V3.161h3.764V.066zm105.778 11.142c0-.646-.146-1.169-.441-1.573s-.645-.713-1.049-.925a12.233 12.233 0 0 0-1.531-.647c-.562-.193-.973-.369-1.235-.524-.262-.156-.393-.373-.393-.648 0-.221.06-.386.179-.497.12-.11.285-.166.497-.166.248 0 .448.074.601.221.151.147.246.373.282.676h2.912c-.063-.957-.431-1.699-1.099-2.228-.666-.529-1.562-.793-2.684-.793-.688 0-1.306.113-1.849.338-.543.226-.972.557-1.283.994-.313.437-.47.959-.47 1.566 0 .635.146 1.153.436 1.56a2.85 2.85 0 0 0 1.034.91c.4.203.908.41 1.525.621.579.193 1.002.37 1.269.531.268.161.4.389.4.684 0 .221-.066.392-.2.51-.133.121-.319.181-.56.181a.978.978 0 0 1-.676-.248c-.185-.166-.289-.419-.316-.759h-2.885c.063 1.002.463 1.775 1.193 2.316.73.543 1.662.814 2.794.814.745 0 1.386-.129 1.918-.387.533-.258.938-.606 1.214-1.049.278-.444.417-.936.417-1.478zM88.631 4.253v5.575c0 .929.176 1.716.523 2.359.35.643.836 1.127 1.457 1.447.621.322 1.336.483 2.146.483s1.536-.163 2.181-.49a3.626 3.626 0 0 0 1.524-1.455c.372-.646.56-1.426.56-2.346V4.253h-2.705v5.575c0 .543-.127.966-.379 1.27-.254.303-.629.455-1.125.455s-.867-.148-1.11-.447-.365-.726-.365-1.276V4.253h-2.707zm-6.926 2.291h1.338c.377 0 .66.092.85.276.188.184.282.437.282.759 0 .681-.378 1.021-1.132 1.021h-1.338V6.544zm5.243 7.477l-2.222-3.795c.707-.201 1.25-.554 1.627-1.056.377-.501.565-1.092.565-1.772 0-.598-.138-1.136-.413-1.615-.275-.478-.688-.853-1.234-1.125-.549-.271-1.213-.407-1.994-.407h-4.291v9.77h2.719v-3.603h.275l1.974 3.603h2.994zM72.115 6.613c.689 0 1.23.223 1.621.669.392.446.587 1.056.587 1.829 0 .754-.198 1.355-.595 1.808-.396.45-.934.677-1.613.677-.689 0-1.232-.227-1.629-.677-.396-.451-.594-1.054-.594-1.808 0-.772.198-1.383.594-1.829.397-.446.94-.669 1.629-.669zm0-2.511c-.91 0-1.748.214-2.512.642a4.723 4.723 0 0 0-1.808 1.787c-.442.764-.663 1.623-.663 2.58s.221 1.816.663 2.58a4.696 4.696 0 0 0 1.808 1.787c.764.429 1.602.643 2.512.643s1.746-.214 2.505-.643a4.733 4.733 0 0 0 1.801-1.787c.44-.764.662-1.623.662-2.58s-.219-1.816-.655-2.58a4.694 4.694 0 0 0-1.794-1.787 5.04 5.04 0 0 0-2.519-.642zm-9.603.151V7.91H59.2V4.253h-2.72v9.769h2.72v-3.945h3.312v3.945h2.704V4.253h-2.704zm-11.715 4.36h-1.035V6.447h1.035c.791 0 1.187.359 1.187 1.077 0 .726-.396 1.089-1.187 1.089zm.304 2.139c.773 0 1.433-.141 1.98-.421s.958-.664 1.235-1.151a3.302 3.302 0 0 0 .415-1.656c0-.994-.312-1.787-.932-2.379-.621-.593-1.521-.89-2.698-.89h-4.057v9.77h2.718v-3.271h1.339zm-5.934.456c0-.646-.147-1.169-.442-1.573a3.044 3.044 0 0 0-1.048-.925 12.254 12.254 0 0 0-1.532-.647c-.561-.193-.973-.369-1.235-.524-.262-.156-.394-.373-.394-.648 0-.221.06-.386.18-.497.119-.11.285-.166.497-.166.249 0 .449.074.6.221.152.147.246.373.283.676h2.911c-.064-.957-.43-1.699-1.097-2.228s-1.562-.793-2.684-.793c-.69 0-1.306.113-1.849.338-.543.226-.971.557-1.283.994-.313.437-.469.959-.469 1.566 0 .635.145 1.153.435 1.56.29.404.635.709 1.035.91.4.203.909.41 1.525.621.58.193 1.002.37 1.27.531.267.161.4.389.4.684 0 .221-.067.392-.2.51-.134.121-.32.181-.559.181a.976.976 0 0 1-.676-.248c-.184-.166-.29-.419-.317-.759h-2.884c.064 1.002.462 1.775 1.194 2.316.731.543 1.663.814 2.794.814.745 0 1.384-.129 1.918-.387s.938-.606 1.214-1.049a2.75 2.75 0 0 0 .413-1.478zM35.95 6.419V4.253h-6.292v9.769h6.292v-2.166h-3.574V10.09h3.16V8.034h-3.16V6.419h3.574zM24.898 4.253H22.18v9.769h5.768v-2.056h-3.049l-.001-7.713zm-4.65 2.166V4.253h-6.292v9.769h6.292v-2.166h-3.574V10.09h3.16V8.034h-3.16V6.419h3.574z"/></svg>