<svg xmlns="http://www.w3.org/2000/svg" width="25.2" height="20.62" viewBox="0 0 25.2 20.62"><path fill="#3CBBEB" d="M.859.001A.864.864 0 0 0 0 .86v18.9c0 .472.388.858.859.858H24.34a.863.863 0 0 0 .859-.858V.86a.864.864 0 0 0-.859-.859H.859zm0 .572H24.34c.164 0 .285.123.285.287v4.868H.572V.86A.28.28 0 0 1 .859.573zm5.154 1.146c-.787 0-1.431.645-1.431 1.433 0 .787.644 1.432 1.431 1.432.788 0 1.433-.645 1.433-1.432 0-.789-.645-1.433-1.433-1.433zm13.174 0c-.787 0-1.432.645-1.432 1.433 0 .787.645 1.432 1.432 1.432s1.432-.645 1.432-1.432a1.437 1.437 0 0 0-1.432-1.433zm-13.174.573c.479 0 .859.381.859.859a.854.854 0 0 1-.859.858.853.853 0 0 1-.858-.858c0-.478.381-.859.858-.859zm13.174 0c.478 0 .859.381.859.859a.854.854 0 0 1-.859.858.855.855 0 0 1-.859-.858.854.854 0 0 1 .859-.859zM.572 6.301h24.054v13.46a.278.278 0 0 1-.285.286H.859a.28.28 0 0 1-.287-.286V6.301zm2.864 2.291v4.01h3.723v-4.01H3.436zm4.868 0v4.01h3.723v-4.01H8.304zm4.868 0v4.01h3.723v-4.01h-3.723zm4.868 0v4.01h3.725v-4.01H18.04zM3.436 13.746v4.01h3.723v-4.01H3.436zm4.868 0v4.01h3.723v-4.01H8.304zm4.868 0v4.01h3.723v-4.01h-3.723z"/></svg>