<svg xmlns="http://www.w3.org/2000/svg" width="80.98" height="34.58" viewBox="0 0 80.98 34.58"><path fill="#6D6E71" d="M18.042 32.315a6.977 6.977 0 0 1-6.97-6.97 6.978 6.978 0 0 1 6.97-6.97c3.844 0 6.971 3.127 6.971 6.97.001 3.845-3.126 6.97-6.971 6.97zm0-12.127c-2.843 0-5.156 2.314-5.156 5.157s2.313 5.156 5.156 5.156c2.844 0 5.157-2.313 5.157-5.156s-2.312-5.157-5.157-5.157zm48.655 12.127a6.978 6.978 0 0 1-6.97-6.97c0-3.843 3.128-6.97 6.97-6.97 3.844 0 6.971 3.127 6.971 6.97a6.977 6.977 0 0 1-6.971 6.97zm0-12.127c-2.843 0-5.156 2.314-5.156 5.157s2.313 5.156 5.156 5.156c2.844 0 5.157-2.313 5.157-5.156s-2.313-5.157-5.157-5.157z"/><path fill="#6D6E71" d="M60.73 27.045H24.239a.906.906 0 1 1 0-1.812H60.73a.906.906 0 0 1 0 1.812z"/><path fill="#6D6E71" d="M73.005 26.403a.907.907 0 0 1-.185-1.795l6.041-1.263c.164-2.352-.316-6.744-2-8.428-1.357-1.355-13.447-3.271-21.6-4.196a.93.93 0 0 1-.312-.097L42.301 4.079H8.293C1.99 10.456 2.1 18.255 2.102 18.334v4.395l1.798 1.71h8.08a.907.907 0 1 1 0 1.813H3.538a.91.91 0 0 1-.626-.25L.57 23.774a.905.905 0 0 1-.281-.658v-4.759C.279 18.022.134 9.52 7.286 2.523a.906.906 0 0 1 .634-.258h34.602c.144 0 .287.036.416.102l12.695 6.572c3.738.428 20.244 2.435 22.508 4.699 2.493 2.491 2.759 8.508 2.447 10.596a.907.907 0 0 1-.711.755l-6.687 1.397a.965.965 0 0 1-.185.017z"/><path fill="#6D6E71" d="M53.778 12.691H2.631c-.503 0-.907-.406-.907-.907s.404-.907.907-.907h50.715l1.312-1.627a.906.906 0 1 1 1.412 1.14l-1.587 1.965a.905.905 0 0 1-.705.336z"/><path fill="#6D6E71" d="M20.462 12.615a.908.908 0 0 1-.898-1.045l1.286-8.31a.91.91 0 0 1 1.034-.758.91.91 0 0 1 .758 1.036l-1.286 8.31a.906.906 0 0 1-.894.767zm16.77-.151a.906.906 0 0 1-.902-.826l-.756-8.31a.907.907 0 0 1 .822-.984.913.913 0 0 1 .985.82l.753 8.312a.906.906 0 0 1-.82.985l-.082.003zM25.146 15.75h-2.873a.906.906 0 0 1 0-1.814h2.873a.908.908 0 0 1 0 1.814zm16.847 0h-2.871c-.501 0-.909-.406-.909-.907s.408-.907.909-.907h2.871a.907.907 0 0 1 0 1.814zM5.501 25.762a.904.904 0 0 1-.905-.906v-6.423H1.611a.908.908 0 0 1 0-1.814h3.89c.5 0 .907.406.907.907v7.33c0 .5-.407.906-.907.906zm73.626-7.518h-4.364a.911.911 0 0 1-.85-.588l-1.7-4.533a.908.908 0 0 1 1.699-.636l1.479 3.944h3.736a.906.906 0 0 1 0 1.813z"/></svg>