<svg xmlns="http://www.w3.org/2000/svg" width="80.98" height="34.58" viewBox="0 0 80.98 34.58"><path fill="none" d="M31.591 9.51V1.917H18.032L15.629 9.51zM20.754 22.419a5.127 5.127 0 0 0-4.75 3.216c.002.012.006.019.006.03a.843.843 0 0 1-.19.518 5.127 5.127 0 0 0-.187 1.357 5.126 5.126 0 0 0 5.121 5.12 5.128 5.128 0 0 0 5.121-5.12 5.128 5.128 0 0 0-5.121-5.121zM7.681 13.007a.84.84 0 0 1 .039-.26l.935-2.949H4.38v11h3.301v-7.791zM48.9 21.715V11.242H33.323v1.713h2.378a.865.865 0 1 1 0 1.73h-2.378v4.053l2.267 2.977H48.9zm25.356-.525l-1.489-2.937H61.915l-6.319 7.411h4.444c.821-2.869 3.457-4.977 6.587-4.977a6.86 6.86 0 0 1 6.051 3.644h3.919v-2.058l-1.858-.66a.867.867 0 0 1-.483-.423z"/><path fill="none" d="M15.252 18.254l-2.343 3.857a.865.865 0 0 1-.741.416H7.627v2.271h6.849c1.062-2.415 3.474-4.11 6.278-4.11 3.126 0 5.766 2.107 6.583 4.977h4.11l-6.314-7.411h-9.881z"/><path fill="none" d="M61.514 16.524h10.359c-.537-.974-1.194-1.963-1.883-2.292-.897-.428-1.928-.539-3.021-.657a33.5 33.5 0 0 1-.798-.093L50.63 11.503v11.08a.864.864 0 0 1-.863.867H35.16a.866.866 0 0 1-.688-.342l-2.704-3.553a.857.857 0 0 1-.177-.522v-7.791H14.447a.867.867 0 0 1-.826-1.125l2.598-8.199h-3.252L9.412 13.141v7.656h2.271l2.345-3.857a.866.866 0 0 1 .739-.416h10.767c.252 0 .494.111.657.303l7.531 8.838h19.6l7.536-8.838a.856.856 0 0 1 .656-.303zm9.775 8.913a5.124 5.124 0 0 0-4.662-3.018 5.128 5.128 0 0 0-5.121 5.121 5.128 5.128 0 0 0 5.121 5.12 5.124 5.124 0 0 0 4.748-7.031.72.72 0 0 1-.086-.192z"/><path fill="none" d="M44.596 1.917H33.323V9.51h15.328z"/><path fill="#6D6E71" d="M77.752 20.846l-2.107-.748-1.575-3.101c-.008-.014-.016-.021-.023-.037-.004-.008-.004-.02-.012-.027-.699-1.405-1.761-3.528-3.301-4.261-1.159-.554-2.388-.688-3.577-.819-.257-.027-.514-.054-.763-.087L50.751 9.772 45.879.644a.87.87 0 0 0-.766-.457H12.332a.87.87 0 0 0-.825.604L9.202 8.067H3.515a.863.863 0 0 0-.865.865v12.73c0 .479.385.865.865.865h2.379v3.138c0 .479.387.867.865.867h7.225a6.83 6.83 0 0 0-.083 1.008c0 3.779 3.076 6.853 6.853 6.853s6.851-3.073 6.851-6.853c0-.047-.006-.094-.008-.145H59.78c0 .051-.004.098-.004.145 0 3.779 3.071 6.853 6.851 6.853s6.852-3.073 6.852-6.853a6.67 6.67 0 0 0-.167-1.478h4.152a.866.866 0 0 0 .867-.865v-3.535a.868.868 0 0 0-.579-.816zM33.323 1.917h11.273l4.056 7.592H33.323V1.917zm0 12.768h2.378a.866.866 0 1 0 0-1.73h-2.378v-1.713H48.9v10.473H35.59l-2.267-2.977v-4.053zM31.591 1.917V9.51H15.629l2.403-7.592h13.559zM4.38 20.797v-11h4.275l-.935 2.95a.84.84 0 0 0-.039.26v7.79H4.38zM20.754 32.66a5.126 5.126 0 0 1-5.121-5.12c0-.471.068-.922.187-1.357a.835.835 0 0 0 .19-.518c0-.012-.004-.019-.006-.03a5.125 5.125 0 0 1 4.75-3.216 5.128 5.128 0 0 1 5.121 5.121 5.128 5.128 0 0 1-5.121 5.12zm6.583-6.995c-.817-2.869-3.457-4.977-6.583-4.977-2.804 0-5.216 1.695-6.278 4.11H7.627v-2.271h4.541a.867.867 0 0 0 .741-.416l2.343-3.857h9.88l6.314 7.411h-4.109zm6.384 0l-7.531-8.838a.866.866 0 0 0-.657-.303H14.766a.866.866 0 0 0-.739.416l-2.345 3.857h-2.27v-7.656l3.554-11.224h3.252l-2.598 8.199a.87.87 0 0 0 .126.771.874.874 0 0 0 .7.354H31.59v7.791c0 .188.062.373.177.522l2.704 3.553a.869.869 0 0 0 .688.342h14.607a.864.864 0 0 0 .863-.867v-11.08l15.541 1.979c.265.035.529.064.798.093 1.093.119 2.123.229 3.021.657.688.329 1.346 1.318 1.883 2.292H61.514a.856.856 0 0 0-.656.303l-7.536 8.838H33.721zm32.906 6.995a5.128 5.128 0 0 1-5.121-5.12 5.128 5.128 0 0 1 5.121-5.121 5.122 5.122 0 0 1 4.662 3.018c.02.069.047.132.086.192a5.124 5.124 0 0 1-4.748 7.031zm9.97-8.328h-3.919a6.86 6.86 0 0 0-6.051-3.644c-3.13 0-5.766 2.107-6.587 4.977h-4.444l6.319-7.411h10.852l1.489 2.937a.881.881 0 0 0 .482.424l1.858.66v2.057h.001z"/></svg>