<svg xmlns="http://www.w3.org/2000/svg" width="70" height="30.166" viewBox="0 0 70 30.166"><g fill="#3CBBEB"><path d="M67.005 13.895c-1.561-.872-3.571-1.583-5.98-2.116-2.363-.522-4.783-.855-6.918-1.152-1.283-.177-4.725-2.325-6.627-3.66-.244-.153-6.014-3.741-12.507-4.834-6.441-1.083-19.947.206-20.564.268l-7.015 1.08a.806.806 0 0 0-.677.921.813.813 0 0 0 .923.679l6.97-1.075c.014-.003.134-.013.342-.033-1.852 1.486-2.882 2.463-3.06 2.907-.327.816-.216 2.147-.189 2.405a.81.81 0 0 0 .764.729c.178.009 8.295.427 17.256.901.139 2.2.398 7.371.165 12.428l-13.846-.366.008-.18a5.674 5.674 0 0 0-5.666-5.667 5.674 5.674 0 0 0-5.667 5.667l.005.102-1.246-.113c-.549-.379-1.478-1.18-1.653-1.845-.227-.866-.217-2.847-.187-3.813.313-.408.909-1.276 1.167-2.239.966-.177 2.587-.889 3.46-3.614a.81.81 0 0 0-1.542-.494c-.471 1.469-1.177 2.093-1.723 2.357.072-.934.173-2.024.227-2.592l4.667-3.059a.808.808 0 0 0 .233-1.119.806.806 0 0 0-1.12-.236L2.014 9.403a.817.817 0 0 0-.363.6c-.011.115-.272 2.798-.339 4.084-.044.816-.801 1.874-1.089 2.213a.808.808 0 0 0-.194.49c-.013.322-.13 3.199.229 4.561.407 1.544 2.296 2.771 2.511 2.908.107.066.23.107.357.121l1.872.17a5.673 5.673 0 0 0 5.387 3.914c2.498 0 4.621-1.629 5.372-3.879l14.54.389a.82.82 0 0 0 .312.082h.047a.772.772 0 0 0 .313-.065l22.657.601a5.662 5.662 0 0 0 4.924 2.873 5.665 5.665 0 0 0 5.063-3.137c.189.006.375.01.552.01 4.247 0 5.275-1.407 5.445-1.701l.092-.255c.006-.032.143-.816.279-2.997.145-2.256-.566-5.149-2.976-6.49zM10.384 26.846a4.051 4.051 0 0 1-4.048-4.049 4.051 4.051 0 0 1 4.048-4.047 4.05 4.05 0 0 1 4.046 4.047 4.051 4.051 0 0 1-4.046 4.049zm2.899-18.412c-.001-.366.021-.731.083-.895.281-.435 2.556-2.305 4.52-3.8 2.849-.206 7.114-.451 10.961-.411.268 2.05.619 4.799.749 5.961-7.34-.389-14.075-.738-16.313-.855zM30.484 3.36c1.58.056 3.036.17 4.22.37 6.165 1.038 11.858 4.573 11.877 4.586.275.189 1.648 1.146 3.203 2.07a4876.81 4876.81 0 0 0-18.551-1.012c-.109-1.071-.496-4.081-.749-6.014zM58.55 26.846a4.052 4.052 0 0 1-4.049-4.049 4.051 4.051 0 0 1 4.049-4.047 4.051 4.051 0 0 1 4.048 4.047 4.052 4.052 0 0 1-4.048 4.049zm9.819-6.563a40.379 40.379 0 0 1-.228 2.593c-.281.231-1.281.843-4.006.839.049-.297.081-.604.081-.918a5.673 5.673 0 0 0-5.667-5.667 5.675 5.675 0 0 0-5.668 5.667c0 .399.043.784.121 1.16l-21.496-.572c.227-4.99-.015-10.087-.158-12.382 10.281.545 21.099 1.129 22.017 1.234l.091.003.245-.046.186.04c2.103.291 4.485.617 6.791 1.126 2.22.493 4.136 1.166 5.539 1.949 1.755.978 2.257 3.294 2.152 4.974z"/><path d="M16.939 13.859h.022a.81.81 0 0 0 .02-1.619l-2.631-.065c-.463-.03-.819.339-.829.787a.806.806 0 0 0 .789.829l2.629.068zm19.787-.777h-2.36a.81.81 0 1 0 0 1.62h2.36a.81.81 0 1 0 0-1.62z"/></g></svg>