<svg xmlns="http://www.w3.org/2000/svg" width="70" height="30.166" viewBox="0 0 70 30.166"><g fill="#3CBBEB"><path d="M69.54 16.119l-.773-.373.81-1.322a.824.824 0 0 0-.093-.975c-.178-.194-.711-.78-6.312-1.537a.816.816 0 1 0-.218 1.619c1.712.23 3.694.577 4.733.854l-.78 1.28a.801.801 0 0 0-.089.653.826.826 0 0 0 .428.505l1.015.49c-.408 1.775-1.195 3.555-1.883 3.691-1.14.22-2.884.296-3.971.324a5.349 5.349 0 0 0 .263-1.668 5.465 5.465 0 0 0-5.457-5.459 5.466 5.466 0 0 0-5.459 5.459c0 .534.079 1.043.221 1.53h-31.16c.144-.487.223-.996.223-1.53a5.465 5.465 0 0 0-5.459-5.459 5.466 5.466 0 0 0-5.459 5.459c0 .592.099 1.165.275 1.698-2.868-.243-5.861-.605-6.355-.846-.543-.273-1.605-1.541-2.303-4.59.431-.312.979-.851 1.248-1.678.233-.723.205-1.497-.081-2.324 3.828-.449 9.175-1.09 9.6-1.23.19-.063.798-.343 2.48-1.12 1.955-.901 5.228-2.417 5.846-2.591.262-.065 1.35-.129 2.869-.181-1.234.908-2.541 1.898-2.825 2.215a.814.814 0 0 0 .413 1.337c.195.05 4.808 1.182 5.97 1.39.25.046 1.696.062 3.731.062 5.396 0 14.939-.118 17.455-.15l5.365.454a.814.814 0 0 0 .487-.109c.02-.013 1.948-1.142 3.915-1.01 2.194.147 5.382.552 5.414.556.451.06.856-.26.908-.707a.809.809 0 0 0-.703-.912c-.133-.018-3.267-.416-5.508-.567-2.051-.138-3.961.754-4.619 1.104l-4.977-.422c-1.285-.751-7.532-4.354-10.078-4.753-2.682-.426-17.07-.219-18.258.12-.693.198-3.168 1.334-6.09 2.684-1.056.486-2.147.991-2.275 1.041-.53.127-6.682.864-10.435 1.302a.816.816 0 0 0-.609 1.224c.479.811.632 1.51.456 2.068-.225.717-.944 1.054-.944 1.054a.817.817 0 0 0-.476.909c.656 3.273 1.856 5.565 3.293 6.283 1.071.537 6.354.975 8.016 1.104a5.453 5.453 0 0 0 4.254 2.044 5.451 5.451 0 0 0 4.441-2.294h32.751a5.453 5.453 0 0 0 4.441 2.294 5.448 5.448 0 0 0 4.326-2.144c.582-.003 3.42-.036 5.148-.372 2.271-.441 3.146-4.746 3.301-5.606a.818.818 0 0 0-.447-.878zM29.835 6.678c3.656-.025 7.308.022 8.558.218 1.399.22 4.566 1.812 7.039 3.16-6.169.071-13.48.138-16.509.111l.912-3.489zm-1.693.019l-.884 3.38c-.866-.177-2.66-.602-3.985-.921.884-.671 2.125-1.582 3.31-2.433.507-.009 1.028-.02 1.559-.026zM15.579 23.486a3.83 3.83 0 0 1-3.827-3.825 3.831 3.831 0 0 1 3.827-3.826 3.832 3.832 0 0 1 3.827 3.826 3.83 3.83 0 0 1-3.827 3.825zm41.633 0a3.828 3.828 0 0 1-3.826-3.825 3.83 3.83 0 0 1 3.826-3.826 3.831 3.831 0 0 1 3.826 3.826 3.829 3.829 0 0 1-3.826 3.825z"/><path d="M29.694 12.875a.816.816 0 1 0 0 1.633h1.734a.817.817 0 0 0 0-1.633h-1.734z"/></g></svg>