<svg xmlns="http://www.w3.org/2000/svg" width="70" height="30.166" viewBox="0 0 70 30.166"><path fill="#3CBBEB" d="M69.153 18.005l-.047-.167c-.266-.965-.611-1.837-1.068-2.477-2.514-3.53-8.567-5.148-13.275-5.884-1.502-.965-12.82-8.152-18.099-8.854-5.441-.726-18.504-.762-26.587.836a.824.824 0 1 0 .32 1.618c2.125-.419 4.644-.72 7.282-.923-3.131 2.741-5.08 5.961-5.176 6.124a.827.827 0 0 0-.035.779c.118.25.354.423.627.459 2.997.429 39.164 1.508 41.291 1.572 2.221.342 4.769.882 7.033 1.731-.023.775.083 2.611 1.342 4.112 1.252 1.491 3.736 1.908 4.935 2.024.46 2.041.62 4.545.646 6.121h-6.605a6.2 6.2 0 0 0-6.067-7.433 6.202 6.202 0 0 0-6.194 6.194c0 .427.044.843.127 1.242-12.576.003-27.533.013-33.083.033.087-.413.135-.839.135-1.275a6.2 6.2 0 0 0-6.194-6.194 6.199 6.199 0 0 0-6.192 6.194c0 .106.01.206.015.313-1.237-.257-2.163-.547-2.419-.856-.115-.427-.597-2.647.526-6.004l.126.007c3.375 0 5.811-4.718 6.085-5.274a.823.823 0 0 0-.619-1.183c-.536-.08-1.23-.113-1.854-.13 1.344-1.678 3.073-3.469 5.31-5.334a.825.825 0 0 0 .104-1.162.828.828 0 0 0-1.163-.106C-2.517 14.875.197 23.532.318 23.896l.04.097c.43.885 2.159 1.488 4.267 1.901.849 2.407 3.141 4.139 5.834 4.139a6.198 6.198 0 0 0 5.455-3.263c4.988-.023 21.077-.034 34.282-.037a6.197 6.197 0 0 0 5.472 3.3 6.202 6.202 0 0 0 5.474-3.304h8.032c.45 0 .819-.362.826-.814 0-.241.04-4.591-.847-7.91zM6.5 12.378c-.794 1.242-2.076 2.82-3.426 3.187a21.774 21.774 0 0 1 1.836-3.209 29.44 29.44 0 0 1 1.59.022zm3.959 16.003a4.547 4.547 0 0 1-4.542-4.542 4.548 4.548 0 0 1 4.542-4.542 4.548 4.548 0 0 1 4.542 4.542 4.546 4.546 0 0 1-4.542 4.542zm45.209 0a4.546 4.546 0 0 1-4.542-4.542 4.547 4.547 0 0 1 4.542-4.542 4.548 4.548 0 0 1 4.542 4.542 4.547 4.547 0 0 1-4.542 4.542zM36.446 2.262c3.711.493 11.07 4.712 14.982 7.085-5.55-.169-17.548-.546-26.645-.892.173-1.185.679-4.016 1.17-6.643 4.285-.037 8.171.14 10.493.45zm-15.837-.297a126.14 126.14 0 0 1 3.66-.13c-.33 1.765-.948 5.135-1.141 6.553-3.673-.143-6.733-.28-8.457-.393 1.063-1.497 3.188-4.179 5.938-6.03zm43.416 13.906c-.64-.759-.853-1.668-.925-2.331 1.512.736 2.787 1.648 3.593 2.781.177.246.333.553.476.895-1.102-.18-2.49-.57-3.144-1.345z"/></svg>