<svg xmlns="http://www.w3.org/2000/svg" width="70" height="30.166" viewBox="0 0 70 30.166"><g fill="#3CBBEB"><path d="M64.217 12.604L55.41 9.98c-.777-.487-6.117-3.804-9.844-5.695-4.15-2.111-11.318-1.938-11.602-1.928H7.624a.812.812 0 0 0-.636.307l-5.65 7.01-.062.119-.067.105-.004.028-.026.166-.016.15-.001.022.478 5.034-1.4 1.807a.809.809 0 0 0-.163.381c-.04.263-.361 2.628.704 4.021.897 1.173 5.527 1.681 8.651 1.894a5.19 5.19 0 0 0 5.124 4.415 5.186 5.186 0 0 0 5.113-4.368h32.975c.393 2.472 2.533 4.368 5.113 4.368a5.194 5.194 0 0 0 5.085-4.17c5.515-.31 5.731-.484 5.962-.689.58-.489 1.146-2.861 1.189-3.636.181-3.288-3.331-5.95-5.776-6.717zm-27.821-8.57c2.391.111 6.044.493 8.433 1.708 2.28 1.159 5.185 2.868 7.24 4.11-4.285-.093-9.915-.219-15.673-.349V4.034zM22.62 3.993h11.372c.013 0 .3-.007.771-.004v5.475c-4.599-.108-9.204-.22-13.19-.326l1.047-5.145zm-10.838 0h9.17l-1.041 5.099c-5.614-.154-9.698-.294-10.241-.376-.337-.052-.574-.155-.617-.271-.203-.533.607-1.899 2.406-4.062l.323-.39zm2.773 22.189c-1.96 0-3.554-1.592-3.554-3.551s1.594-3.555 3.554-3.555c1.957 0 3.552 1.596 3.552 3.555s-1.595 3.551-3.552 3.551zm43.201 0a3.555 3.555 0 0 1-3.549-3.505l.011-.046-.011-.05a3.554 3.554 0 0 1 3.549-3.505c1.959 0 3.553 1.596 3.553 3.555s-1.594 3.551-3.553 3.551zm9.988-4.555c-.752.107-2.848.263-4.844.378-.311-2.565-2.498-4.562-5.145-4.562a5.186 5.186 0 0 0-5.113 4.371H19.668a5.186 5.186 0 0 0-5.113-4.371c-2.562 0-4.693 1.871-5.109 4.318-3.287-.237-6.849-.771-7.367-1.247-.486-.634-.473-1.954-.411-2.588l4.557-5.877a.82.82 0 0 0-.355-1.265L3.317 9.82l4.696-5.827h1.656c-1.461 1.811-2.674 3.64-2.145 5.032.186.49.666 1.117 1.897 1.305.634.096 5.166.251 11.155.414 12.847.353 32.372.76 34.364.802l8.799 2.618c1.971.619 4.748 2.778 4.622 5.063-.035.641-.401 1.878-.617 2.4zM2.911 11.414l1.348.508-1.158 1.492-.19-2z"/><path d="M9.019 11.718l11.594.475-.067 1.633-11.594-.476zm29.426 2.399h-2.867a.812.812 0 0 1-.816-.815c0-.452.362-.817.816-.817h2.867a.816.816 0 1 1 0 1.632z"/></g></svg>