<svg xmlns="http://www.w3.org/2000/svg" width="70" height="30.166" viewBox="0 0 70 30.166"><path fill="#3CBBEB" d="M69.877 18.52c-.142-1.302-.468-3.182-1.7-4.453-.682-.708-1.616-1.096-2.434-1.405-2.547-.963-5.24-1.402-8.007-1.805-1.821-.268-3.657-.443-5.478-.591l.103-.176-.673-.398c-5.994-3.584-12.189-7.285-19.354-7.814a61.781 61.781 0 0 0-3.563-.144c-3.278-.049-6.747.062-10.929.336-1.818.124-3.816.316-5.746.506-2.732.264-5.557.538-8.081.631l.062 1.704a71.593 71.593 0 0 0 2.314-.126C5.015 6.053 3.177 7.836 2.189 9.184c-1.796 2.439-1.183 5.611-.853 6.817-.713.563-1.074.986-1.105 1.021l-.152.186-.037.237c-.014.09-.309 2.209.863 4.553 1.223 2.45 5.851 3.285 6.375 3.371l.022-.134a5.968 5.968 0 0 0 5.283 3.21 5.97 5.97 0 0 0 5.284-3.207h33.603a5.968 5.968 0 0 0 5.281 3.207 5.968 5.968 0 0 0 5.107-2.896c.893-.031 3.33-.111 4.539-.169 1.337-.062 2.619-1.065 3.195-2.021.396-.656.399-1.495.402-2.166v-.273a18.83 18.83 0 0 0-.119-2.4zm-2.925-3.268c.131.13.24.278.344.433-1.333-.195-2.91-.471-3.402-.56-.474-.31-1.146-1.011-1.786-1.753 1.038.236 2.056.516 3.031.883.68.255 1.374.543 1.813.997zm-18.055-5.24l-.275-.022A5357.097 5357.097 0 0 0 34.4 8.98c-.34-.021-.68-.049-1.021-.075a44.62 44.62 0 0 0-1.587-.107c-.021-1.37-.275-3.883-.426-5.274.287.017.568.034.845.055 6.02.442 11.456 3.346 16.686 6.433zm-20.15-6.574c.311.004.608.01.897.017.193 1.743.417 4.114.447 5.265-1.965-.154-7.447-.7-11.286-1.113.53-1.697 1.167-3.419 1.511-3.976 3.114-.166 5.84-.228 8.431-.193zm-10.792.333c.145-.011.282-.017.424-.023-.464 1.038-.917 2.398-1.301 3.67-1.114-.128-1.921-.224-2.187-.271-.418-.117-1.564-1.375-2.66-2.873h.029c2.008-.198 3.903-.383 5.695-.503zM2.74 12.286c.527-.056 1.316-.031 1.998.021l-.04 1.763c-.708.289-1.319.602-1.854.914-.14-.691-.257-1.68-.104-2.698zm9.845 14.453c-2.349 0-4.261-1.91-4.261-4.261s1.913-4.261 4.261-4.261c2.349 0 4.262 1.91 4.262 4.261s-1.912 4.261-4.262 4.261zm44.168 0c-2.35 0-4.261-1.91-4.261-4.261s1.911-4.261 4.261-4.261c2.352 0 4.262 1.91 4.262 4.261s-1.911 4.261-4.262 4.261zm11.539-5.552c-.003.439-.003 1.037-.157 1.292-.368.612-1.216 1.172-1.817 1.199-.945.044-2.64.104-3.756.141.1-.433.158-.88.158-1.34a5.975 5.975 0 0 0-5.967-5.966 5.975 5.975 0 0 0-5.966 5.966c0 .36.042.711.104 1.055H18.452c.062-.344.099-.694.099-1.055 0-3.288-2.677-5.966-5.965-5.966S6.62 19.19 6.62 22.479c0 .351.038.694.096 1.03-1.435-.35-3.711-1.123-4.287-2.274a6.857 6.857 0 0 1-.718-3.299c.443-.443 1.766-1.615 4.12-2.478l.544-.199.104-4.481-.771-.09a21.509 21.509 0 0 0-2.378-.137c.072-.12.146-.24.231-.357 1.458-1.986 5.141-5.206 5.636-5.636.359-.03.718-.062 1.077-.096.899 1.322 2.941 4.12 4.311 4.36 1.228.217 14.934 1.646 16.196 1.646.806 0 1.646.069 2.46.135.349.027.696.055 1.043.079 2.326.157 4.651.323 6.977.487 2.413.172 4.825.347 7.237.522l.742.055c2.715.196 5.52.398 8.248.795.677.099 1.348.198 2.01.309.45.602 2.371 3.106 3.674 3.832l.123.068.142.024c.13.023 2.894.519 4.56.729.09.422.147.838.186 1.199.086.797.121 1.512.109 2.189v.296z"/></svg>