<svg xmlns="http://www.w3.org/2000/svg" width="80.98" height="34.58" viewBox="0 0 80.98 34.58"><path fill="none" d="M18.661 19.486a4.436 4.436 0 0 0-4.431 4.428 4.438 4.438 0 0 0 4.431 4.432 4.435 4.435 0 0 0 4.428-4.432 4.434 4.434 0 0 0-4.428-4.428zm49.133 0a4.436 4.436 0 0 0-4.43 4.428 4.436 4.436 0 0 0 4.43 4.432 4.435 4.435 0 0 0 4.431-4.432 4.434 4.434 0 0 0-4.431-4.428z"/><path fill="none" d="M73.381 17.959a.936.936 0 0 1 .022-1.32.928.928 0 0 1 1.315.02c.056.055 1.442 1.347 4.046.951-.047-.296-.117-.539-.208-.696-.073-.083-.428-.24-.598-.314l-.17-.075c-.755-.345-1.552-.617-2.3-.868-2.092-.7-4.215-1.281-6.196-1.806-1.37-.366-2.8-.656-4.182-.937a145.58 145.58 0 0 1-2.205-.466c-.076.01-.148.026-.225.016-1.708-.224-8.437-.226-8.504-.226-.351-.018-29.948-1.634-35.807-1.75C13.531 10.385 6 11.531 3.583 11.922v3.327h3.03a.934.934 0 0 1 0 1.866H3.292l-1.165 1.21v3.135c2.405 1.716 7.653 2.468 10.251 2.68-.003-.076-.01-.149-.01-.226a6.302 6.302 0 0 1 6.293-6.295 6.304 6.304 0 0 1 6.296 6.295c0 .311-.031.613-.075.91l36.667-.165a6.093 6.093 0 0 1-.048-.745 6.302 6.302 0 0 1 6.293-6.295 6.304 6.304 0 0 1 6.296 6.295c0 .154-.012.305-.021.454 1.625-.308 3.774-1.195 4.354-1.529.206-.548.394-1.994.431-3.341a8.424 8.424 0 0 1-1.06.073c-2.806 0-4.335-1.533-4.413-1.612zm-33.487-2.457h-.032l-3.262-.116a.936.936 0 0 1-.901-.965.92.92 0 0 1 .966-.898l3.265.116a.932.932 0 0 1-.036 1.863z"/><path fill="#6D6E71" d="M39.929 13.638l-3.265-.116a.922.922 0 0 0-.966.898.936.936 0 0 0 .901.965l3.262.117h.032a.93.93 0 0 0 .933-.899.93.93 0 0 0-.897-.965z"/><path fill="#6D6E71" d="M80.153 15.955c-.35-.583-.981-.861-1.446-1.064l-.144-.065c-.841-.382-1.725-.685-2.481-.938-2.146-.715-4.3-1.309-6.31-1.841-1.425-.379-2.881-.675-4.291-.962-1.921-.392-3.907-.796-5.78-1.404-1.558-.511-3.121-1.151-4.629-1.77-.783-.321-1.57-.644-2.36-.95a159.394 159.394 0 0 0-7.039-2.543.934.934 0 0 0-1.183.587.934.934 0 0 0 .588 1.18c2.409.81 4.749 1.656 6.958 2.514.781.302 1.554.621 2.327.937.608.251 1.232.501 1.858.75-1.103-.01-1.915-.01-1.994-.012-.163-.008-8.955-.489-17.908-.944.012-.805-.067-1.885-.1-2.279a.925.925 0 0 0-1.006-.854.93.93 0 0 0-.852 1.004c.056.697.097 1.518.095 2.034-4.06-.205-8.019-.396-11.108-.53l-.066-1.057a.936.936 0 0 0-.992-.87.932.932 0 0 0-.87.99l.056.858a167.931 167.931 0 0 0-3.068-.101c-5.951-.104-15.514 1.517-15.915 1.587a.93.93 0 0 0-.773.919v4.927L.521 17.304a.936.936 0 0 0-.259.646v3.966c0 .272.119.53.324.707 3.15 2.689 10.729 3.317 12.154 3.413.875 2.43 3.193 4.175 5.92 4.175 2.475 0 4.61-1.438 5.643-3.519l37.77-.173a6.29 6.29 0 0 0 5.721 3.691 6.3 6.3 0 0 0 5.818-3.892c2.078-.198 5.452-1.543 6.124-2.13.955-.834 1.427-6.553.417-8.233zM18.661 28.346a4.437 4.437 0 0 1-4.431-4.432c0-2.44 1.99-4.428 4.431-4.428a4.434 4.434 0 0 1 4.428 4.428 4.435 4.435 0 0 1-4.428 4.432zm49.133 0a4.436 4.436 0 0 1-4.43-4.432 4.436 4.436 0 0 1 4.43-4.428 4.434 4.434 0 0 1 4.431 4.428 4.435 4.435 0 0 1-4.431 4.432zm10.628-5.507c-.579.334-2.729 1.222-4.354 1.529.01-.149.021-.3.021-.454a6.303 6.303 0 0 0-6.296-6.295c-3.47 0-6.293 2.826-6.293 6.295 0 .254.018.5.048.745l-36.667.165c.044-.297.075-.6.075-.91a6.304 6.304 0 0 0-6.296-6.295c-3.47 0-6.293 2.826-6.293 6.295 0 .076.007.149.01.226-2.598-.212-7.846-.964-10.251-2.68v-3.135l1.165-1.21h3.323a.934.934 0 0 0 0-1.866h-3.03v-3.327c2.417-.391 9.948-1.537 14.786-1.434 5.859.115 35.457 1.732 35.807 1.75.067 0 6.796.001 8.504.226.076.01.148-.006.225-.016.739.164 1.477.317 2.205.466 1.382.281 2.812.571 4.182.937 1.981.524 4.104 1.106 6.196 1.806.748.25 1.545.522 2.3.868l.17.075c.17.074.524.231.598.314.091.157.161.4.208.696-2.604.396-3.99-.896-4.046-.951a.928.928 0 0 0-1.315-.019.934.934 0 0 0-.022 1.319c.078.079 1.607 1.612 4.412 1.612.336 0 .691-.026 1.06-.073-.039 1.347-.226 2.793-.432 3.341z"/></svg>