<svg xmlns="http://www.w3.org/2000/svg" width="46.5" height="46.5" viewBox="0 0 46.5 46.5"><path fill="#49B8AF" d="M38.672 15.894l-.1.049a6550.388 6550.388 0 0 1-19.106 18.466c-.493.495-1.037.593-1.58.296-.1-.05-.197-.147-.296-.198l-7.752-7.456c-.493-.492-.493-1.182-.048-1.626.789-.791 1.58-1.532 2.37-2.273.248-.198.493-.296.839-.345.345 0 .641.147.937.394 1.186 1.186 2.419 2.321 3.605 3.507.396.394.84.542 1.333.343.199-.047.396-.194.543-.343a4381.253 4381.253 0 0 0 15.108-14.616c.196-.197.444-.394.789-.444.396-.05.742 0 .987.296.592.543 1.187 1.087 1.729 1.679.196.198.444.396.641.642.545.493.496 1.135.001 1.629z"/></svg>