<svg xmlns="http://www.w3.org/2000/svg" width="22.7" height="22.7" viewBox="0 0 22.7 22.7"><path fill="#2CB9ED" d="M16.607 14.615c1.127-1.562 1.842-3.407 1.842-5.393A9.207 9.207 0 0 0 9.221-.005 9.211 9.211 0 0 0-.005 9.222a9.215 9.215 0 0 0 9.226 9.227c1.986 0 3.978-.711 5.394-1.848l5.676 5.678c.576.566 1.422.566 1.992 0a1.378 1.378 0 0 0 0-1.984l-5.676-5.68zm-7.386 1.962a7.33 7.33 0 0 1-7.358-7.354 7.333 7.333 0 0 1 7.358-7.359 7.331 7.331 0 0 1 7.359 7.359 7.327 7.327 0 0 1-7.359 7.354z"/></svg>