<svg xmlns="http://www.w3.org/2000/svg" width="62.094" height="27.516" viewBox="0 0 62.094 27.516"><g fill="#3CBBEB"><path d="M6.076 22.251v-.5H.337v.5c0 .711.283 1.359.748 1.823a2.56 2.56 0 0 0 1.823.748H7.4l-.322-.707a5.623 5.623 0 0 1-.504-1.905l-.038-.459h-.46v.5l-.499.041c.065.788.265 1.521.591 2.237l.455-.207v-.5H2.908a1.554 1.554 0 0 1-1.571-1.571h-.5v.5h5.238v-.5l-.499.041.5-.041zm46.41-.366h-.5c0 1.276-.516 2.428-1.353 3.265s-1.988 1.353-3.265 1.353c-1.275 0-2.426-.516-3.263-1.353s-1.353-1.988-1.353-3.265.516-2.427 1.353-3.264a4.595 4.595 0 0 1 3.263-1.352c1.276 0 2.428.516 3.265 1.352a4.594 4.594 0 0 1 1.353 3.264h1a5.616 5.616 0 0 0-11.232 0 5.616 5.616 0 1 0 11.232 0h-.5z"/><path d="M17.039 21.885h-.5a4.602 4.602 0 0 1-1.352 3.265 4.596 4.596 0 0 1-3.264 1.353 4.596 4.596 0 0 1-3.264-1.353 4.6 4.6 0 0 1-1.352-3.265 4.6 4.6 0 0 1 1.352-3.264c.837-.836 1.988-1.352 3.264-1.352s2.427.516 3.264 1.352a4.598 4.598 0 0 1 1.352 3.264h1a5.615 5.615 0 0 0-5.616-5.615 5.615 5.615 0 1 0 0 11.232 5.616 5.616 0 0 0 5.616-5.617h-.5z"/><path d="M17.831 22.189l-.498-.042c-.056.677-.228 1.354-.498 1.89l-.362.724H42.88l-.362-.724c-.27-.536-.44-1.212-.496-1.889l-.038-.459H17.371l-.038.458.498.042v.5h23.693v-.5l-.498.041c.065.786.258 1.573.598 2.254l.447-.224v-.5H17.282v.5l.447.224c.34-.681.533-1.467.599-2.253l-.497-.042v.5-.5zm35.446 0l-.498-.041c-.056.676-.229 1.353-.496 1.89l-.36.723h7.263a2.562 2.562 0 0 0 1.823-.748 2.563 2.563 0 0 0 .747-1.823v-.5h-8.938l-.038.459.497.04v.5h7.979v-.5h-.5a1.55 1.55 0 0 1-1.57 1.571H52.73v.5l.447.223c.338-.68.532-1.466.598-2.253l-.498-.041v.5-.5z"/><path d="M.837 11.835h-.5v10.55h6.238v-.5c0-1.504.624-2.833 1.621-3.797a5.543 5.543 0 0 1 3.848-1.55 5.33 5.33 0 0 1 3.781 1.566 5.33 5.33 0 0 1 1.566 3.78v.5h24.692v-.5c0-1.478.598-2.811 1.566-3.78a5.325 5.325 0 0 1 3.779-1.566c1.478 0 2.812.598 3.781 1.566a5.326 5.326 0 0 1 1.566 3.78v.5h8.979v-2.996a8.457 8.457 0 0 0-6.344-8.22h-.001l-3.837-.975h.001a13.015 13.015 0 0 1-5.571-3.049l-.001-.001c-3.01-2.776-9.2-7.128-18.256-7.129C22.434.013 16.152 1.517 8.992 5.678H8.99a6.145 6.145 0 0 1-3.158.845H5.71C2.752 6.526.342 8.932.337 11.835h1c0-1.168.489-2.245 1.283-3.033a4.389 4.389 0 0 1 3.09-1.279h.122a7.183 7.183 0 0 0 3.665-.982l-.003.001c7.034-4.085 13.13-5.527 18.253-5.528 8.721-.001 14.678 4.191 17.578 6.864l-.001-.001a14.025 14.025 0 0 0 6.003 3.285l3.837.975h-.002c3.312.857 5.593 3.823 5.594 7.252v1.997h-7.479v.5h.5a6.349 6.349 0 0 0-6.348-6.347 6.35 6.35 0 0 0-6.346 6.347h.5v-.5H17.892v.5h.5a6.349 6.349 0 0 0-6.347-6.347 6.536 6.536 0 0 0-4.542 1.83 6.248 6.248 0 0 0-1.927 4.517h.5v-.5H1.337v-9.551h-.5zm52.075 2.741v.5h3.473c1.032 0 2.091.569 2.737 1.646l.006.011.372.557.416-.277-.424.265.046.164-.062.193-.046.035h-.184c-2.255 0-4.456-.808-6.323-2.323l-.315.388.326-.379-.062-.154.033-.121.006-.006-.008-.009.004.011.004-.002-.008-.009.004.011h.005v-1.001a1 1 0 0 0-.789.382c-.173.22-.25.48-.251.743-.001.318.122.665.409.912l.006.005.005.004c2.031 1.65 4.459 2.548 6.954 2.548h.184c.348.001.646-.18.826-.409a1.316 1.316 0 0 0 .084-1.512l-.004-.007-.369-.554-.416.277.429-.257c-.814-1.361-2.193-2.132-3.595-2.132h-3.473v.5zm-24.057-4.142h.5V2.272h-.5l-.024.5c8.709.414 14.458 5.262 16.419 7.224l.001-.001h-.001l.001-.001h-.001l.057-.038h-.067l.011.038.057-.038h-.067.03l-.023-.024-.007.024h.03l-.023-.024.002.002-.001-.003-.001.001.002.002-.001-.003-.009.001H28.855v.502h.5-.5v.5h16.383a.99.99 0 0 0 1.001-.976.943.943 0 0 0-.282-.669c-2.06-2.058-8.005-7.077-17.078-7.516l-.524-.025v9.186h.5v-.5zM10.521 7.389l.253.431c6.27-3.676 11.78-4.986 16.503-5.047l-.006-.5h-.5v7.662H12.653a1.117 1.117 0 0 1-.489-.105 2.011 2.011 0 0 1-.558-.418l-.354.354.365-.342-.914-.975-.364.341.38-.325a.52.52 0 0 1-.115-.329l.046-.203.095-.097.015-.008.014-.008-.253-.431-.224-.447c-.238.118-.419.31-.53.521a1.508 1.508 0 0 0 .192 1.652l.007.009.927.988.006.006c.272.272.547.479.843.617.294.139.606.2.912.199h15.118V1.766l-.506.006c-4.9.061-10.597 1.431-16.996 5.185l.251.432-.224-.447.224.447zm-8.587 4.629h.5-.076l.07.033.005-.033h-.075l.07.033.021-.022.004-.003-.032-.062v.066l.032-.005-.032-.062v.066h1.036v-.036l-.015.033.015.003v-.036l-.015.033.007.009.004.008h.015l-.014-.003v.003h.015l-.014-.003-.001.003-.862 4.617v.046h.333l-.186-.279c-.062.031-.154.166-.147.279h.333l-.186-.279.109.165v-.203l-.109.038.109.165v-.203h-.61v.195l.132-.133-.132-.062v.195l.132-.133-.132.133h.195l-.063-.133-.132.133h.195v-4.568h-.999v4.568a.804.804 0 0 0 .231.575.805.805 0 0 0 .574.229h.609a.8.8 0 0 0 .445-.129.669.669 0 0 0 .299-.554h-.5l.491.095.853-4.568-.492-.092.49.098.019-.192a1.021 1.021 0 0 0-.997-1.015H2.421a.977.977 0 0 0-.688.298.982.982 0 0 0-.299.688h.5z"/></g></svg>