<svg xmlns="http://www.w3.org/2000/svg" width="78.9" height="72.109" viewBox="0 0 78.9 72.109"><path d="M2.5 37.677l10.311 8.725c.53.394 1.192.527 1.851.265l23.464-8.658-5.881 19.497c-.199.727-.066 1.521.529 1.982.529.528 1.256.595 1.981.265l10.312-5.024c.264-.131.398-.266.528-.396.198-.199.33-.331.396-.529L56.898 31l17.252-7.997c4.164-2.052 5.947-7.14 3.898-11.303-.989-2.049-2.645-3.571-4.823-4.296-2.181-.729-4.429-.596-6.477.395l-18.972 8.129-19.498-4.559c-.396-.132-.794 0-1.189.132l-8.527 4.165c-.595.329-1.125.991-1.06 1.72.068.727.465 1.386 1.124 1.653l12.625 5.618-14.077 7.203-6.94-4.56c-1.918-1.256-4.299-1.387-6.346-.398C1.906 27.961.581 29.813.317 31.924c-.329 2.183.597 4.298 2.183 5.753zm74.532 30.691H28.423a1.874 1.874 0 0 0-1.867 1.868c0 1.029.842 1.87 1.867 1.87h48.609a1.875 1.875 0 0 0 1.869-1.87c0-1.12-.841-1.868-1.869-1.868z" fill="#2CB9ED"/></svg>