<svg xmlns="http://www.w3.org/2000/svg" width="78.9" height="72.109" viewBox="0 0 78.9 72.109"><path d="M.006 6.955l1.122 13.46c.096.653.469 1.216 1.122 1.496l22.714 10.47-17.946 9.627c-.654.374-1.122 1.028-1.027 1.776 0 .748.467 1.309 1.214 1.589l10.844 3.738c.279.094.469.094.653.094.281 0 .468 0 .654-.094l23.836-8.412 17.854 6.544c4.395 1.494 9.254-.843 10.749-5.235.75-2.149.655-4.395-.373-6.449-1.026-2.057-2.71-3.552-4.859-4.3L47.4 23.592 36.837 6.581c-.187-.374-.561-.562-.934-.748l-8.975-3.085c-.653-.188-1.496-.095-1.965.467-.466.562-.652 1.309-.374 1.963l4.955 12.9-15.049-4.86-1.684-8.132c-.467-2.244-2.058-4.021-4.205-4.769C6.456-.336 4.21.037 2.53 1.344.754 2.654-.087 4.805.006 6.955zm77.026 61.413H28.423a1.875 1.875 0 0 0-1.868 1.868c0 1.029.842 1.87 1.868 1.87h48.609a1.875 1.875 0 0 0 1.869-1.87c0-1.12-.841-1.868-1.869-1.868z" fill="#2CB9ED"/></svg>