<svg xmlns="http://www.w3.org/2000/svg" width="15.8" height="21.362" viewBox="0 0 15.8 21.362"><path fill="#3CBBEB" d="M7.9.005C3.629.005.17 3.584.16 7.729c-.025 2.156.587 3.657 1.444 4.938.952 1.394 2.23 2.603 3.423 3.795.745.971 1.361 2.083 1.829 3.103.214.47.384.879.518 1.177.123.331.276.519.526.617.322-.063.444-.392.576-.626.176-.316.398-.751.66-1.251.646-1.164 1.265-2.347 1.921-3.312 1.178-1.306 2.312-2.31 3.164-3.536.858-1.237 1.419-2.708 1.419-4.888A7.745 7.745 0 0 0 7.9.005zm0 .534a7.202 7.202 0 0 1 7.205 7.206c0 2.091-.511 3.422-1.319 4.587s-1.935 2.165-3.147 3.512c-.742 1.092-1.406 2.308-1.97 3.386-.242.469-.506.967-.751 1.393-.2-.436-.401-.917-.567-1.283-.618-1.19-1.216-2.355-1.929-3.236-1.204-1.205-2.461-2.402-3.373-3.736C1.166 10.753.67 9.352.695 7.745.695 3.891 3.924.539 7.9.539zm-.008 5.338c-1.325 0-2.405 1.079-2.405 2.402s1.08 2.401 2.405 2.401 2.404-1.078 2.404-2.401-1.079-2.402-2.404-2.402z"/></svg>