<svg xmlns="http://www.w3.org/2000/svg" width="712.57" height="196.39" viewBox="0 0 712.57 196.39"><path d="M414.773 147.729h24.545L466.353 20.74h-24.545l-27.035 126.989zm-34.767-28.991c-2.312 10.493-11.738 14.762-18.32 14.762-6.58 0-8.003-6.047-6.402-13.339 1.779-8.537 6.758-13.34 17.074-15.474 3.201-.712 7.648-2.312 11.561-4.803l-3.913 18.854zm-14.94-37.35l.533-2.668c1.6-7.47 6.58-12.45 14.051-12.45 8.182 0 10.492 4.446 8.893 11.738-1.246 6.403-4.447 9.249-12.094 11.205l-14.764 3.735c-17.785 4.625-26.678 11.917-30.413 29.88-2.846 12.805.178 27.39 17.252 27.39 11.739 0 19.208-2.49 27.034-12.45h.355c0 3.201 0 6.937.891 9.96h23.477c-1.246-5.514-1.066-9.604.889-18.497l10.672-50.333c3.734-17.252.711-29.346-28.457-29.346-18.498 0-35.216 7.47-39.84 29.524l-.534 2.312h22.055zm-62.48-29.346h-12.45l-3.557 16.718h12.45l-11.561 54.78c-4.091 19.387-1.778 25.256 17.43 25.256 5.691 0 10.671-.534 16.185-1.067l3.557-17.074c-1.601.178-3.557.355-5.513.355-7.114 0-8.003-3.023-6.403-10.493l10.849-51.756h14.229l3.557-16.718H327.13L333 24.652h-24.544l-5.87 27.39zm-112.885 95.687h24.544l13.517-63.495c2.312-10.671 8.003-15.83 16.363-15.83 7.292 0 9.604 3.735 7.648 13.339l-14.051 65.985h24.544l15.118-70.965c3.913-18.853-3.379-27.212-18.675-27.212-10.316 0-20.098 4.269-27.212 13.695h-.355l2.312-11.205h-23.477l-20.276 95.688zM140.08 89.036l.889-3.735c1.778-8.893 6.758-19.03 16.541-19.03 10.138 0 10.315 8.181 7.648 22.766H140.08zm45.531 14.584l1.067-5.514c6.225-29.346 3.913-48.555-24.722-48.555-33.081 0-43.041 23.833-48.555 49.444-4.98 23.833-9.426 51.223 26.145 51.223 23.121 0 36.46-12.45 41.974-34.683h-22.054c-3.913 11.739-8.537 17.964-16.719 17.964-9.071 0-9.782-11.027-7.292-22.232l1.601-7.647h48.555zM9.284 147.729h25.611l11.383-53.713h13.695c10.315 0 13.517 6.048 11.738 16.007l-4.446 24.367c-.889 4.979-1.423 9.781.355 13.339h27.746l.178-1.067c-4.269-2.49-3.379-9.426-.89-22.766 5.514-26.856 4.802-36.46-12.094-38.772v-.355c15.118-3.024 24.188-14.407 27.923-31.303 4.624-21.699-5.87-32.726-26.856-32.726h-47.31L9.284 147.729zM57.839 39.592h12.094c11.561 0 16.541 5.869 14.051 17.608-2.846 13.695-11.027 19.03-23.299 19.03H50.013l7.826-36.638zm618.593 94.086c-2.312 10.85 2.312 14.051 10.494 14.051 1.957 0 4.625 0 7.291-.533l.535-3.202c-2.312.534-4.27.534-6.938.534-7.826 0-9.604-2.668-7.826-11.205l15.83-74.166h15.652l.711-3.202h-15.652l6.047-28.457h-3.557l-6.047 28.457h-11.916l-.711 3.202h11.916l-15.829 74.521zm-70.342-31.836c7.293-34.327 20.811-44.82 35.572-44.82 18.318 0 22.766 15.118 16.541 44.82-6.404 29.702-17.252 44.819-35.572 44.819-14.584 0-23.832-10.671-16.541-44.819zm15.83 48.02c16.541 0 31.836-10.493 39.84-48.021 8.004-37.528-2.846-48.021-19.387-48.021-20.275 0-33.438 17.608-39.84 48.021-6.402 30.058-1.244 48.021 19.387 48.021zm-88.75-48.02c6.402-30.236 19.207-44.82 34.326-44.82 20.275 0 20.098 22.232 14.939 46.421-5.158 23.833-14.584 43.219-34.148 43.219-14.939-.001-21.699-14.052-15.117-44.82zm-19.92 77.189h3.557l10.494-49.8h.533c1.244 10.672 5.869 20.631 19.742 20.631 21.697 0 32.725-20.098 38.594-47.132 7.293-34.682 0-48.91-18.141-48.91-11.916 0-22.055 8.003-28.812 21.876h-.533l4.268-19.742h-3.557L513.25 179.031zm-36.477-29.169c16.184 0 27.389-11.916 30.234-25.255 6.76-32.192-40.906-19.742-34.859-48.021 2.49-11.383 11.383-19.564 23.832-19.564 13.873 0 17.609 8.715 14.941 21.165l-.713 3.023h3.559l.533-2.49c2.49-11.561.533-24.9-17.43-24.9-6.938 0-13.162 1.778-19.209 7.114-3.023 2.668-7.648 8.893-8.893 14.94-6.938 32.547 40.906 19.386 34.504 48.911-1.957 9.96-10.316 21.876-26.145 21.876-17.074 0-19.209-11.561-16.541-24.366l.711-3.379h-3.557l-.533 2.846c-3.912 18.675 2.492 28.1 19.566 28.1z" fill="#3CBBEB"/></svg>