<svg xmlns="http://www.w3.org/2000/svg" width="618.792" height="156.376" viewBox="0 0 618.792 156.376"><path d="M322.698 122.05h18.819l20.727-97.367h-18.818l-20.728 97.367zM294.06 99.822c-1.772 8.045-9 11.318-14.046 11.318-5.045 0-6.136-4.637-4.909-10.229 1.364-6.545 5.182-10.227 13.091-11.863 2.455-.545 5.864-1.773 8.864-3.682l-3 14.456zm-11.455-28.637l.409-2.045c1.227-5.728 5.045-9.546 10.773-9.546 6.273 0 8.045 3.409 6.818 9-.955 4.909-3.409 7.091-9.273 8.591l-11.319 2.863c-13.637 3.545-20.455 9.137-23.319 22.91-2.182 9.818.137 21 13.228 21 9 0 14.728-1.908 20.728-9.545h.273c0 2.453 0 5.318.682 7.637h18c-.955-4.229-.818-7.365.682-14.184l8.182-38.591c2.864-13.228.545-22.5-21.819-22.5-14.183 0-27.001 5.728-30.546 22.637l-.409 1.773h16.91zm-49.639-22.501h-9.545l-2.728 12.818h9.546l-8.864 42.001c-3.137 14.863-1.364 19.365 13.364 19.365 4.364 0 8.182-.41 12.41-.818l2.727-13.092c-1.227.137-2.727.273-4.227.273-5.455 0-6.137-2.318-4.91-8.047l8.319-39.683h10.909l2.728-12.818h-10.91l4.5-21.001h-18.819l-4.5 21.002zm-89.187 73.366h18.819l10.364-48.684c1.773-8.182 6.137-12.137 12.546-12.137 5.591 0 7.364 2.863 5.864 10.228l-10.773 50.593h18.819l11.591-54.411c3-14.455-2.591-20.864-14.319-20.864-7.909 0-15.41 3.273-20.864 10.5h-.273l1.773-8.591h-18l-15.547 73.366zm-38.867-45.002l.682-2.864c1.364-6.818 5.182-14.591 12.682-14.591 7.773 0 7.91 6.273 5.864 17.455h-19.228zm34.91 11.182l.818-4.227c4.772-22.501 3-37.229-18.956-37.229-25.364 0-33.001 18.273-37.228 37.91-3.818 18.273-7.228 39.273 20.046 39.273 17.728 0 27.956-9.545 32.183-26.592h-16.91c-3 9-6.545 13.773-12.818 13.773-6.955 0-7.5-8.455-5.591-17.047l1.228-5.863h37.228zM2.633 122.05H22.27l8.728-41.184h10.5c7.91 0 10.364 4.637 9 12.273l-3.409 18.682c-.682 3.818-1.091 7.5.272 10.229h21.273l.136-.818c-3.272-1.91-2.591-7.229-.682-17.455 4.228-20.592 3.682-27.956-9.273-29.729v-.273c11.591-2.318 18.546-11.045 21.41-24 3.545-16.637-4.5-25.092-20.591-25.092H23.361L2.633 122.05zm37.229-82.912h9.273c8.864 0 12.682 4.5 10.773 13.5-2.182 10.5-8.455 14.591-17.864 14.591h-8.182l6-28.091zm541.032 69.051c-2.281 10.703 2.281 13.861 10.352 13.861 1.93 0 4.561 0 7.193-.527l.525-3.158c-2.279.527-4.211.527-6.842.527-7.719 0-9.475-2.633-7.719-11.053l15.613-73.162h15.439l.703-3.158H600.72l5.965-28.071h-3.51L597.21 31.52h-11.754l-.703 3.158h11.756l-15.615 73.511zm-72.809-31.404c7.193-33.861 20.527-44.212 35.088-44.212 18.072 0 22.457 14.913 16.316 44.212-6.316 29.298-17.018 44.212-35.088 44.212-14.386.001-23.509-10.527-16.316-44.212zm15.614 47.371c16.316 0 31.406-10.352 39.301-47.371 7.895-37.02-2.807-47.371-19.123-47.371-20.002 0-32.984 17.369-39.301 47.371-6.317 29.65-1.229 47.371 19.123 47.371zM434.75 76.785c6.316-29.826 18.947-44.212 33.861-44.212 20 0 19.824 21.931 14.736 45.79-5.088 23.51-14.387 42.635-33.686 42.635-14.736 0-21.404-13.862-14.911-44.213zm-19.651 76.142h3.51l10.35-49.123h.527c1.229 10.525 5.789 20.352 19.475 20.352 21.404 0 32.281-19.826 38.072-46.494 7.191-34.211 0-48.247-17.896-48.247-11.754 0-21.756 7.895-28.422 21.58h-.527l4.211-19.474h-3.508l-25.792 121.406zm-36.141-28.771c15.965 0 27.02-11.756 29.826-24.914 6.666-31.755-40.354-19.475-34.387-47.37 2.455-11.229 11.229-19.299 23.51-19.299 13.684 0 17.369 8.597 14.736 20.878l-.701 2.982h3.508l.527-2.456c2.455-11.404.525-24.562-17.193-24.562-6.844 0-12.984 1.754-18.949 7.018-2.982 2.631-7.543 8.772-8.771 14.737-6.842 32.107 40.352 19.124 34.035 48.248-1.93 9.824-10.176 21.58-25.789 21.58-16.844 0-18.949-11.404-16.316-24.037l.701-3.334h-3.51l-.525 2.809c-3.86 18.421 2.457 27.72 19.298 27.72z" fill="#FFF"/></svg>