<svg xmlns="http://www.w3.org/2000/svg" width="46.71" height="46.054" viewBox="0 0 46.71 46.054"><path fill="#FFF" d="M23.355.417C10.875.417.745 10.546.745 23.026c0 12.481 10.13 22.61 22.61 22.61 12.481 0 22.61-10.129 22.61-22.61 0-12.48-10.129-22.609-22.61-22.609zm0 1.051c11.913 0 21.559 9.646 21.559 21.559s-9.646 21.559-21.559 21.559c-11.912 0-21.559-9.646-21.559-21.559S11.443 1.468 23.355 1.468zM12.74 14.614a.528.528 0 1 0 .099 1.051h21.032a.526.526 0 1 0 .014-1.051H12.74zm0 7.887a.529.529 0 0 0 .099 1.052h21.032a.526.526 0 1 0 .014-1.052H12.74zm0 7.887a.529.529 0 0 0 .099 1.052h21.032a.525.525 0 1 0 .014-1.052H12.74z"/></svg>