<?xml version="1.0" encoding="utf-8"?>
<!-- Generator: Adobe Illustrator 16.0.0, SVG Export Plug-In . SVG Version: 6.00 Build 0)  -->
<!DOCTYPE svg PUBLIC "-//W3C//DTD SVG 1.1//EN" "http://www.w3.org/Graphics/SVG/1.1/DTD/svg11.dtd">
<svg version="1.1" xmlns="http://www.w3.org/2000/svg" xmlns:xlink="http://www.w3.org/1999/xlink" x="0px" y="0px" width="24px"
	 height="24px" viewBox="0 0 24 24" enable-background="new 0 0 24 24" xml:space="preserve">
<metadata><?xpacket begin="﻿" id="W5M0MpCehiHzreSzNTczkc9d"?>
<x:xmpmeta xmlns:x="adobe:ns:meta/" x:xmptk="Adobe XMP Core 5.3-c011 66.145661, 2012/02/06-14:56:27        ">
   <rdf:RDF xmlns:rdf="http://www.w3.org/1999/02/22-rdf-syntax-ns#">
      <rdf:Description rdf:about=""
            xmlns:dc="http://purl.org/dc/elements/1.1/">
         <dc:format>image/svg+xml</dc:format>
         <dc:title>
            <rdf:Alt>
               <rdf:li xml:lang="x-default">Print</rdf:li>
            </rdf:Alt>
         </dc:title>
      </rdf:Description>
      <rdf:Description rdf:about=""
            xmlns:xmp="http://ns.adobe.com/xap/1.0/"
            xmlns:xmpGImg="http://ns.adobe.com/xap/1.0/g/img/">
         <xmp:MetadataDate>2017-09-24T17:11:47+03:00</xmp:MetadataDate>
         <xmp:ModifyDate>2017-09-24T17:11:47+03:00</xmp:ModifyDate>
         <xmp:CreateDate>2017-09-24T17:11:46+03:00</xmp:CreateDate>
         <xmp:CreatorTool>Adobe Illustrator CS6 (Macintosh)</xmp:CreatorTool>
         <xmp:Thumbnails>
            <rdf:Alt>
               <rdf:li rdf:parseType="Resource">
                  <xmpGImg:width>256</xmpGImg:width>
                  <xmpGImg:height>256</xmpGImg:height>
                  <xmpGImg:format>JPEG</xmpGImg:format>
                  <xmpGImg:image>/9j/4AAQSkZJRgABAgEASABIAAD/7QAsUGhvdG9zaG9wIDMuMAA4QklNA+0AAAAAABAASAAAAAEA&#xA;AQBIAAAAAQAB/+4ADkFkb2JlAGTAAAAAAf/bAIQABgQEBAUEBgUFBgkGBQYJCwgGBggLDAoKCwoK&#xA;DBAMDAwMDAwQDA4PEA8ODBMTFBQTExwbGxscHx8fHx8fHx8fHwEHBwcNDA0YEBAYGhURFRofHx8f&#xA;Hx8fHx8fHx8fHx8fHx8fHx8fHx8fHx8fHx8fHx8fHx8fHx8fHx8fHx8fHx8f/8AAEQgBAAEAAwER&#xA;AAIRAQMRAf/EAaIAAAAHAQEBAQEAAAAAAAAAAAQFAwIGAQAHCAkKCwEAAgIDAQEBAQEAAAAAAAAA&#xA;AQACAwQFBgcICQoLEAACAQMDAgQCBgcDBAIGAnMBAgMRBAAFIRIxQVEGE2EicYEUMpGhBxWxQiPB&#xA;UtHhMxZi8CRygvElQzRTkqKyY3PCNUQnk6OzNhdUZHTD0uIIJoMJChgZhJRFRqS0VtNVKBry4/PE&#xA;1OT0ZXWFlaW1xdXl9WZ2hpamtsbW5vY3R1dnd4eXp7fH1+f3OEhYaHiImKi4yNjo+Ck5SVlpeYmZ&#xA;qbnJ2en5KjpKWmp6ipqqusra6voRAAICAQIDBQUEBQYECAMDbQEAAhEDBCESMUEFURNhIgZxgZEy&#xA;obHwFMHR4SNCFVJicvEzJDRDghaSUyWiY7LCB3PSNeJEgxdUkwgJChgZJjZFGidkdFU38qOzwygp&#xA;0+PzhJSktMTU5PRldYWVpbXF1eX1RlZmdoaWprbG1ub2R1dnd4eXp7fH1+f3OEhYaHiImKi4yNjo&#xA;+DlJWWl5iZmpucnZ6fkqOkpaanqKmqq6ytrq+v/aAAwDAQACEQMRAD8A9U4q7FXYqwj8xPzl8geQ&#xA;ISNe1EHUCvOLSrYCW7cHp+7BAQHszlR74q+avOn/ADmb531F5IfKthb6Ha7hLmYC7uvZvjAhX5GN&#xA;vnirx/XPzR/MbXXZtW8y6jdK1axG5kSLfrSJCsY+hcVYy7vI5d2LuxqzMaknxJOKrcVdirsVdirs&#xA;VdirsVdirsVdirsVdirsVdirsVdirsVTbSfNvmrR2VtJ1m+09k+ybW5lhpSn8jL4Yq9O8o/85W/m&#xA;3oLol7exa9ZrQGHUIwXp34zxenJX3Yt8sVfQ/wCXH/OVX5eebGistVY+W9XkoohvHDWzse0dzRV/&#xA;5GBfauKvaQQwBBqDuCOhGKuxV2KuxV2KuxV2KvmL8+P+cqf0dNc+WPIEyyXsZMV/r4o6RkbNHag1&#xA;Vm7GQ7D9mp+IKvlGefUdU1Bpp5Jr7ULySryOWlmllc9yaszMTir238vf+cRvP/mKOK91+RPLWnSU&#xA;ZUnUy3jKd9rcFQn/AD0cMP5cVe7eXf8AnEf8n9KjX69a3WtzjcyXlw6LX2S29BaezVxVmlr+S35S&#xA;WvH0vKGktxBA9W0im6+Pqq9cVRX/ACqf8rP+pN0P/uG2f/VPFXf8qn/Kz/qTdD/7htn/ANU8Vd/y&#xA;qf8AKz/qTdD/AO4bZ/8AVPFXf8qn/Kz/AKk3Q/8AuG2f/VPFXf8AKp/ys/6k3Q/+4bZ/9U8Vd/yq&#xA;f8rP+pN0P/uG2f8A1TxV3/Kp/wArP+pN0P8A7htn/wBU8Vd/yqf8rP8AqTdD/wC4bZ/9U8Vd/wAq&#xA;n/Kz/qTdD/7htn/1TxV3/Kp/ys/6k3Q/+4bZ/wDVPFXf8qn/ACs/6k3Q/wDuG2f/AFTxV3/Kp/ys&#xA;/wCpN0P/ALhtn/1TxV3/ACqf8rP+pN0P/uG2f/VPFXf8qn/Kz/qTdD/7htn/ANU8Vd/yqf8AKz/q&#xA;TdD/AO4bZ/8AVPFXf8qn/Kz/AKk3Q/8AuG2f/VPFVOf8oPyomQK/k7RQAa/BYW0Z+9EU4qxzW/8A&#xA;nGX8ltWVuXl9bGU1pNZTTQEV8EV/S+9MVeP+eP8AnCm6hjkufJWtfWeIJXTtTARzTstxEAhJ7Bo1&#xA;Hvir5z8z+UvMvlbVH0vzDp02m3yf7qmWgYfzI4qjr/lKSMVenfkv/wA5JeZvIk0Glau0mr+VKhWt&#xA;HblPbKf2rZ27Dr6bHie3Hrir7d8ueY9F8yaLa61ot0l5pt4nOCdPuKsDurKdmU7g7HFUyxV2KuxV&#xA;2KvmL/nKn8+JtO9byB5YuTHeyLTX7+I0MaOKi1jYftMprIR0Hw9S1FXy95W8ra75q1210PQ7VrvU&#xA;btuMca9AP2nduioo3Zj0xV91fk1/zj95W/Lq0jvJVTVPNLr/AKRqsi7RkjeO1Vq+mo6cvtN32+EK&#xA;vVMVdirsVdirsVdirsVdirsVdirsVdirsVdirsVdirsVdirsVdirsVdiqQedfInlbzro0mkeYrFL&#xA;y1apic/DLC5/3ZDIPiRh7dehqNsVfC/51/kdr35aaqrlmvvLd45XTtUoAeVOXozKPsyKPoYbjuAq&#xA;rfkL+deo/lx5iWK6eSfyrfuBqlkKt6ZNALmJf9+IOoH2l268SFX33ZXtpfWcF7ZzLcWlzGs1vPGe&#xA;SPG4DKykdQQa4qrYq7FWEfnL+YkPkDyBqOvAqdQIFtpUT7h7uUER7dwgBdh4KcVfnXPPqGqajJPM&#xA;0l5qF9MXkc1eWWaVqk9yzMxxV97/APOP35NWn5deVllvI1fzTqiLJqtxsTGPtLaxnssdfip9pt+n&#xA;Gir1TFXYq7FXYq7FXYq7FWndERndgqKCWYmgAG5JJxVC6drGk6nG8um3tvfRxtwke2lSVVYfskoW&#xA;ocVReKuxV2KuxV2KuxV2KuxV2KuxV2KuxV2KuxV2KpX5n8s6L5n0G80LWrdbrTr6MxzRnqPB0P7L&#xA;qfiVh0OKvzt/NP8ALrVPy/8AOV55eviZI46TWF3SgntXJ9OQDsdirDswIxV9Ff8AOHH5oyXljc/l&#xA;/qUvKaxVrvRGbqYC37+Cv+Q7c1HgW7Lir6cxV2KvjP8A5zN86PqPnew8qwyf6LoduJrlAf8Aj6uw&#xA;H+If5MIjI/1jiqW/84jfl7H5i8/ya/exepp3lpFnRWFVa8lJFuN/5AryezBcVfb2KuxV2KuxV2Ku&#xA;xV2KuxV8b/8AOT35+nzBdTeSfK9z/uCtX46rfRMQLuVP91IQd4UPX+Zh/KASqx7/AJxFXzCfzgtT&#xA;pplGmLbXJ1vgaRmD0WEXqdj/AKQY+Pf8cVfdOKuxV2KuxV2KuxV2KuxV2KuxV2KuxV2KuxV2KuxV&#xA;4Z/zlv8Al7H5h/L3/ENtHXVPLTGeqipezkIW4U/6lFk9gp8cVfH3kHzZdeUfOej+Y7Ytz025SWRF&#xA;NC8NeM0f/PSNmX6cVfphbXMF1bxXNu4kgnRZIpF6MjjkrD5g4qqYq/NP80dcfXfzG8y6szclutRu&#xA;TEa1/dJIUiFfaNVGKvsT/nEfy7HpX5P2t9xpPrd1cXkhPXij/VkHy4wch88Ve0Yq7FXYq7FXYq7F&#xA;XYq+Z/8AnKP8/RpkNx5D8rXP+5GZTHrt/EQfQjYUNtGR/uxwf3h/ZG32ieKr5a8p+Vdb81+YLPQd&#xA;EtzcaheuEjXfio/akkIB4og+Jm7DFX6EflL+Vuiflz5Vi0ewAmvZaS6pqBFHuJ6dfZFrRF7D3JJV&#xA;ZrirsVdirsVdirsVdirsVdirsVdirsVdirsVdirsVQ2p6da6lpt3p14nqWl7DJb3Ef8ANHKpRx9K&#xA;tir8wNZ0yfStXvtLnNZ7C4ltZSNhzhco34rir9Bf+cfNdfW/yb8r3cjcpYrT6k9TU/6FI1sK+5WI&#xA;HFXoeKvytd3kdnclnclmY9STuScVfo9+S1r9V/KTyhFxC8tJtJaA1/vollr9PPFWaYq7FXhP5t/8&#xA;5U6R5E81P5bsNGbWryz4fpKU3At442dQ4jQiOYu3FhXoB033oqz78rvzh8n/AJjaZ9Y0ef0dQhUG&#xA;90mcgXEJ6Vp+2lejrt40O2Ks4xV2KvFf+cjvz2h8haQdD0SVX83ajHWIjcWcDbeu46czQiNfH4js&#xA;KMq+ILa31TWNUjt4ElvtTv5gqIKyTTTSt71LMzHFX3n+QP5JWX5ceX/rF6qT+atSRTqV0KMIV+0L&#xA;aJt/hU/aI+22/QLRV6tirsVdiqWeY/Mug+WtHn1jXb2PT9NtgDLcSk0BJoFUAFmYnoqgk4q8zP8A&#xA;zlh+SVf+OxOff6ndf9U8Vd/0Nh+SX/V3n/6Q7n/mjFXf9DYfkl/1d5/+kO5/5oxV3/Q2H5Jf9Xef&#xA;/pDuf+aMVd/0Nh+SX/V3n/6Q7n/mjFXf9DYfkl/1d5/+kO5/5oxV3/Q2H5Jf9Xef/pDuf+aMVd/0&#xA;Nh+SX/V3n/6Q7n/mjFXf9DYfkl/1d5/+kO5/5oxV3/Q2H5Jf9Xef/pDuf+aMVZJ5H/PD8s/O2pNp&#xA;fl/VxNqQUutpNFLBI6qKsY/VVQ9AKkKajr0xVneKuxV2Kvzj/O+0Fr+b3m6IUHLVLiXbp++cy/8A&#xA;G++Kvq//AJw/ujN+TsUdWP1bULqIVO2/CT4fb959+KvbcVflXir9Kvyn/wDJWeTf+2Hpv/UHHirK&#xA;sVdir5Q/5yW/5x38w3et6h588rodQhuqTarpUYrcRuiBWlhUf3qtxqyj4gelR0VfNOia5rGg6pBq&#xA;mkXcthqNq3KG5hYq6nw9wehB2PfFX2N+SX/OUukeafq+g+cGj0vzC1I4L3ZLW7boBvtFIf5T8J7f&#xA;y4qzv87Pzh0r8tfLJu24XOu3oaPSNOJ+24G8sgBDCKP9qnU0HeoVfn9ret6trur3Wr6rcPealfSG&#xA;W5uH+07t7DYAdABsBsMVfYv/ADjL+QY8p2Ufm7zLb08z3iH6jayDexgkWm4I+GeRT8X8q/D1LYq+&#xA;gMVdirsVdirxz/nKXyB5m85fl7BB5eiN3eabepeyWCH45oxFJGfTHRnX1K8e4rTfYqvjn/lU/wCa&#xA;f/Um65/3Dbz/AKp4q7/lU/5p/wDUm65/3Dbz/qnirv8AlU/5p/8AUm65/wBw28/6p4q7/lU/5p/9&#xA;Sbrn/cNvP+qeKu/5VP8Amn/1Juuf9w28/wCqeKu/5VP+af8A1Juuf9w28/6p4q7/AJVP+af/AFJu&#xA;uf8AcNvP+qeKu/5VP+af/Um65/3Dbz/qnirv+VT/AJp/9Sbrn/cNvP8Aqnirv+VT/mn/ANSbrn/c&#xA;NvP+qeKvR/yA/Jn8yj+ZujatfaLfaLpukXAuru7voJLWqoD+7RZQjOZD8J4jYHfFX3FirsVdir86&#xA;/wA/v/JyebP+Y5v+Irir6f8A+cNv/JRzf9tW5/5NQ4q91xV+VeKv0q/Kf/yVnk3/ALYem/8AUHHi&#xA;rKsVdirsVeG/nZ/zjFoPnQT635b9LSPNBq8qgcbW8bqfVVR8Eh/34o3/AGgeoVfGHmPy1r3lrV59&#xA;H12ylsNRtjSW3mFDTsykbMrfsspIPbFVHVNa1jVpIZdUvZ76S3hS3ge4kaUpDH9iNSxNFXsMVfS/&#xA;/OLX5B+u1t+YHmm2/crSTy/p8q/aYH4byRT+yKfugRv9vpxqq+sMVdirsVdirsVdirsVdirsVdir&#xA;sVdirsVdirsVdirsVdirsVdir86/z+/8nJ5s/wCY5v8AiK4q+n/+cNv/ACUc3/bVuf8Ak1Dir3XF&#xA;X5V4q/Sr8p//ACVnk3/th6b/ANQceKsqxV2KuxV2KsP/ADK/Kryh+YWkfUNetv38YP1LUYqLc27H&#xA;uj03U90aqnwrQ4q8Y8of84X6ZpnmmK/17W11fRrWQSxaetv6JnKmoWcl5AEr9pRXkPDFX0siJGix&#xA;xqERAFRFFAANgABireKuxV2KuxV2KuxV2KuxV2KuxV2KuxV2KuxV2KuxV2KuxV2KuxV+df5/f+Tk&#xA;82f8xzf8RXFX0/8A84bf+Sjm/wC2rc/8mocVe64q/KvFX6VflP8A+Ss8m/8AbD03/qDjxVlWKuxV&#xA;2KuxV2KuxV2KuxV2KuxV2KuxV2KuxV2KuxV2KuxV2KuxV2KuxV2KuxV2KuxV2Kvzr/P7/wAnJ5s/&#xA;5jm/4iuKvp//AJw2/wDJRzf9tW5/5NQ4q91xV+VeKv0q/Kf/AMlZ5N/7Yem/9QceKsqxV2KuxV2K&#xA;uxV2KuxV2KoTV9Y0rR9On1PVbuKx0+2XnPdTuI40HTdm8TsPHFUi8n/mf5B84yzQ+Wtbt9Rntxym&#xA;t0LJKF2HP05AjlakDkBTFWUYq7FXYq7FXYq7FXYq7FXYq7FXYq7FXYq7FXYq7FXYq/Ov8/v/ACcn&#xA;mz/mOb/iK4q+n/8AnDb/AMlHN/21bn/k1Dir3XFX5V4q/Sr8p/8AyVnk3/th6b/1Bx4qyrFXYq7F&#xA;XYq7FXYq7FVlxcQW8ElxcSLFBCrSSyuQqqiirMxOwAA3xV8K/wDORX563Hn/AFk6Po0rR+UdOkPo&#xA;AVU3ky7fWJFNPh/32p6Dc7mgVRX/ADiJ5X8wX/5p22vWcbLo+jRT/pO4JKoTcW8kUUP+Uxdg9PBa&#xA;+GKvuPFXYq7FXYq7FXYq7FXYq7FXYq7FXYq7FXYq7FXYq7FX51/n9/5OTzZ/zHN/xFcVfT//ADht&#xA;/wCSjm/7atz/AMmocVe64q/KvFX6VflP/wCSs8m/9sPTf+oOPFWVYq7FXYq7FXYq7FXYq+Pv+cov&#xA;z8/TM8/kXyvc10iBuGtX8RBFzKh/uI2B/ukP2j+0232R8Srxb8tfy617z/5pt9B0hKF/3l5dsCY7&#xA;eBSOcr0+dFHc0GKv0L8i+SNB8k+WrTy9okPp2lsKvI1PUmlIHOaVgByd6b/cNgBiqf4q7FXYq7FX&#xA;Yq7FXYq7FXYq7FXYq7FXYq7FXYq7FXYq/Ov8/v8Aycnmz/mOb/iK4q+n/wDnDb/yUc3/AG1bn/k1&#xA;Dir3XFX5V4q/Sr8p/wDyVnk3/th6b/1Bx4qyrFXYq+Yvzs/5yo8y+VvPF35Z8r2Nm0Wlskd7d3qS&#xA;StJMVDsqKkkYVF5cTXckdhir0D8mP+ci/LH5hRRabe8NI81Bfj052/d3BA3e1dvtePpn4h/lAcsV&#xA;eu4q7FXzf/zlD+fn6Dt5/I/le5prNwnHWL+Jt7WJx/coR0lkU7kH4B/lH4VXyf5Z8ta15m12z0PR&#xA;bZrrUr6QRwRL08SzHoqqN2Y9Bir9Bvyg/KjRfy38rR6XZ8Z9SuKS6tqNKNPMB2ruI0rRF+nqTirO&#xA;sVdirsVYz+Yf5h+W/IPluTX9fkdbVXWGCCFQ800zglYolJUFiFJ3IFBirxv/AKHa8g/9WLVfutv+&#xA;quKu/wCh2vIP/Vi1X7rb/qrirv8AodryD/1YtV+62/6q4q7/AKHa8g/9WLVfutv+quKu/wCh2vIP&#xA;/Vi1X7rb/qrirv8AodryD/1YtV+62/6q4q7/AKHa8g/9WLVfutv+quKu/wCh2vIP/Vi1X7rb/qri&#xA;rv8AodryD/1YtV+62/6q4q7/AKHa8g/9WLVfutv+quKsr/Lf/nJ3yF558xR+Xre3vNM1G5VjZi8W&#xA;P05mUFjGrxu9H4gkBuvjWgxV6/irsVdir86/z+/8nJ5s/wCY5v8AiK4q+n/+cNv/ACUc3/bVuf8A&#xA;k1Dir3XFX5V4q/Sr8p//ACVnk3/th6b/ANQceKsqxV2Kvnf/AJyE/wCcaJvNt9deb/KbhdflVTfa&#xA;ZIQsd0Y0CB4mOyS8VAIPwt7GtVXx9dWup6RqT29zHNY6lZS8ZI3DRTRSxnwNGVlIxV9Nfkl/zlnJ&#xA;F9X8v/mJKZI9o7XzFSrL2VbxR9of8Wjf+YHdsVej/wDOQH5+ad5I8ux2Xl+5iu/MusQepp8kbLLH&#xA;BbyCguyQSDX/AHV2J36DdV8PImp6vqgRBLfanqE1APikmmnmb6WZ3dvpOKvu3/nHz8j7T8u9C+va&#xA;kiTebNSjH1+YUYW8Z+IW0TeA25kfab2AxV65irsVdirsVeXf85D/AJV6p+Y3kiLTtImji1XT7pb2&#xA;1jmPGOWkbxtGWAPEkPVT0qKGlahV8pN/zi1+eoYgeWgwBoGF9p9D773AOKtf9Cufnt/1LP8A0/af&#xA;/wBlGKu/6Fc/Pb/qWf8Ap+0//soxV3/Qrn57f9Sz/wBP2n/9lGKu/wChXPz2/wCpZ/6ftP8A+yjF&#xA;Xf8AQrn57f8AUs/9P2n/APZRirv+hXPz2/6ln/p+0/8A7KMVd/0K5+e3/Us/9P2n/wDZRirv+hXP&#xA;z2/6ln/p+0//ALKMVd/0K5+e3/Us/wDT9p//AGUYq9E/I7/nGP8AMLS/PumeYfNdtHpNhpEoukhE&#xA;8M800qf3aj0HkVV5ULEnptTfZV9d4q7FXYq/Ov8AP7/ycnmz/mOb/iK4q+n/APnDb/yUc3/bVuf+&#xA;TUOKvdcVflXir9Kvyn/8lZ5N/wC2Hpv/AFBx4qyrFXYq7FXm35vfkT5S/MizMtwg0/zDEnG01mFA&#xA;X26JOu3qx+xNR+yRvVV8PfmH+Wfm3yDrJ0vzDaGLlU2l7HVra4QftRSUFfdTRh3AxVi1WYgbk9Bi&#xA;r7M/5xi/IP8Aw1aRedPM1vTzDdJXTLKQEGzhdftup6TSKen7C7dSQFX0PirsVdirsVdirsVdirsV&#xA;dirsVdirsVdirsVdirsVdirsVdirsVfnX+f3/k5PNn/Mc3/EVxV9P/8AOG3/AJKOb/tq3P8Ayahx&#xA;V7rir8q8VfpV+U//AJKzyb/2w9N/6g48VZVirsVdirsVSjzV5S8u+a9Gm0bzBYx3+nz/AGopBurd&#xA;njcUZHFdmUg4q8w8pf8AOKP5ZeW/M8WvRteaibVxLZ2N68UkEcg3ViFjQvxO68j864q9mxV2KuxV&#xA;2KuxV2KuxV2KuxV2KuxV2KuxVTuLi3toJLi4lSGCJS8s0jBEVRuWZjQADFXk/m7/AJyl/KHy67wx&#xA;6jJrd0lQYdLQTLX/AIzOY4T/ALFziry7V/8AnOGcuy6P5UVUFeM15dliR2rHHGtP+DOKsel/5zY/&#xA;Mguhi0bR0QfbDR3TEj2IuFp9xxVMNP8A+c3/ADRG9dR8s2Nylfs2881uabd3Fx79sVZ95b/5zO/L&#xA;m/dItbsL7RXb7U3FbuBfm0VJfuixV7N5Y86+UvNVp9a8u6tbanCAC/oSBnSv+/I9nQ+zAYqnWKvz&#xA;r/P7/wAnJ5s/5jm/4iuKvp//AJw2/wDJRzf9tW5/5NQ4q91xV+VeKv0q/Kf/AMlZ5N/7Yem/9Qce&#xA;KsqxV2KuxV2KuxV2KuxV2KuxV2KuxV2KuxV2KuxV2KuxV2KvIPzj/wCckfKv5fmXS7JV1nzQBQ2E&#xA;b0ityehuZBXie/pj4j34g1xV8d+f/wA2vPnny6aXzDqbyWoblDpsNYrSLw4Qg0JH8z1b3xVJvLfk&#xA;/wA0+Z7s2nl/SrrVJ1p6gtomkCA9DIwHFB7sRir1jQv+cPvzd1FFe+Ww0dSKlLu49R/utlnWvzbF&#xA;WUwf84P+YWQmfzTaRvT4VjtpXBPuS6U+7FUs1P8A5wp/MOBC+n6xpd5QVMcjTwOT4L+7kX72GKvN&#xA;PNv5Hfmr5UjefV/L1z9TjqXvLbjdQhR+0zwGTgP9emKsP0vV9V0m+jv9LvJrC9hNYrm2kaKRfk6E&#xA;HFX0n+U3/OYN/bSwaT+YSfWbQ0RNegSk0fatxEgpIPFkAb2Y4q8Y/OzUtP1P81fMmoadcR3djdXZ&#xA;ltrmFg8boyKQysOuKvqj/nDb/wAlHN/21bn/AJNQ4q91xV+VeKv0q/Kf/wAlZ5N/7Yem/wDUHHir&#xA;KsVdirsVdirsVdirsVdirsVdirsVdirsVdirsVdirsVfN/8Azkh/zke2gNceTfJ1wP02Q0erarGd&#xA;7OuxhhI/3d15N+x2+L7Kr5HsLDVdZ1SKysYJr/U72TjFDGGkllkc12AqST1OKvqz8pv+cP8ATrWO&#xA;DVvzCf63dmjpoUD0gjPhcSoeUh/yUIX3YYq+ktL0nS9Jso7DS7OGxsoRSK2to1ijUeyIAMVRWKux&#xA;V2KuxV5d+Zf/ADjp+XfnlJrlrQaPrklSurWKhGZvGaIUjl9yaN/lDFXxp+aH5P8AnH8udSFvrUAl&#xA;sJ2IsdVgq1vMBU0qR8D0G6Nv4VG+KsHxV9v/APOG3/ko5v8Atq3P/JqHFXuuKvyrxV+lX5T/APkr&#xA;PJv/AGw9N/6g48VZVirsVdirsVdirsVdirsVeGf85G/85A/4FtR5e8tyxv5tuVDSykLItlCwqHZT&#xA;UGVxTgrClPiPaqrzr/nG38+vzE1v8xrTyt5iv21ew1dbgpJMqCSCWGB7jkjIq1VhEVKnbfandV9c&#xA;Yq7FXYq7FXYq7FXkP/OSH5wn8v8AykLTS5QvmfWQ0WnkbmCIbS3JHitaJX9rxAOKvhWwsNU1nVYL&#xA;GyikvdTv5hHDEtXkllkagG/UknqcVfeX5FfkVo/5c6Ol3dpHd+bbuMG/vyAwhDCpt7cnog/abq53&#xA;O1AFXq2KuxV2KuxV2KuxV2Kpb5j8uaL5k0W60XWrVLzTbxOE8D/eGUjdWU7qw3B3GKvgf88fyZ1P&#xA;8tfMfpAtdeXr9nfSb8jfiDUwS9hKgP8AshuO4CrIv+cZPzlk8k+Z10HVp6eV9alVJS5+G1umoqTi&#xA;uwVtlk9qH9nFX3Rir8q8VfpV+U//AJKzyb/2w9N/6g48VZVirsVdirsVdirsVdirzD8+Pzp0/wDL&#xA;by5SApceZtQRl0qybcLTY3EoH+60PQftnYdyFXwNqGoaprWqzX17NJfanfymSaVqvJLLIfbqST0G&#xA;Kvtf/nGz8iF8j6WPMevQg+bNRioIm3+pQPQ+kO3qtQeoe32R35KvccVdirsVdirsVWXE8NvBJcTu&#xA;sUEKtJLIxoqooqzEnoABir84Pzc8/wB1588+6n5glZjau5g0yI1/d2cRIhWh6VHxt/lMcVfQ3/OH&#xA;/wCU0drpz/mFq0Fbu75waEjjeOAVSW4HvI1UX/JB7Nir6cxV2KuxV2KuxV2KuxV4/wDn/wDn7D+W&#xA;tra2GlwQ6h5lvgZI7ect6UEA29WVUKs3NvhVQwrua7bqpR/zjx/zkRqf5i6neeX/ADBZW9tq9tbm&#xA;7tri0DpFNEjKjqySNIVcF1OzUO+wpir1H8x/Iek+evKF95c1McUuV5W1xQFoLhN4pl91PXxFR3xV&#xA;+cPmDQtS0DXL7RNTj9K/06d7e5TqOcbcSVO1VPVT3GKvuf8A5xi/MeTzl+W8FveymTWNBZbC9ZjV&#xA;5IwtbeU9/ij+Ek9WUnFXwRir9Kvyn/8AJWeTf+2Hpv8A1Bx4qyrFXYqxPzj+a/5eeTbuCz8y63Bp&#xA;93cgNFbkSSycSaB2SJZCikj7TUGKsi0rVtM1bT4NR0u6ivbC5UPBcwOJI3U9wy1GKorFXYqw/wDN&#xA;P8zNC/LzyrPrept6k5rHp1gpAkuJyPhRfBR1duw96Aqvz285ecNd84eY7zzBrc/r394/IgVCRoPs&#xA;RRqSeKINlH3774q+mP8AnFr8g/qqW3n/AM023+kuFl8vWEoH7tTut3IpH2j1i8B8XUrRV9Q4q7FX&#xA;Yq7FXYq7FXk3/OUPm5/Ln5QaokL8LvWmTSoCD+zPVp/vgjkX6cVfDnk/y3d+Z/NOleX7Q8Z9Uuor&#xA;YSUqEEjANIR4ItWPyxV+mWk6XZaTpdnpdhGIbKxhjtraIdFjiUIg+4YqisVdirsVdirsVdirHPzD&#xA;89aP5G8pX3mPVWrDarSCAGjzzttFCnu7fcKnoMVfnP5v816z5s8yX3mDWJfWv7+QySEfZVRskaDs&#xA;iKAqjwGKvrr/AJxO/KCXyxoL+cdXjMes67AEs4G2MNgxWRSw/mmKqx8FC964q+gcVfIH/OaXkWOy&#xA;8waV5ytY+MerIbLUWUbfWLcVidj/ADPF8PyTFWM/84i+bn0X81E0mSTjZ+YbeS1dSfh9eIGaFvn8&#xA;DIP9bFXiGKv0m/KCdJvyo8nOoIA0WwTfxjtkQ/iuKsuxV2KvhP8A5yo8leadK/M3U/MF/DLNo2sv&#xA;G+n6ju0fwwqnoMw2Rk4EBT1UVGKsX/Kj86vN/wCXGo89Nl+t6PMwa90eZj6MniyHf05KftL9II2x&#xA;V9xflp+a/lD8w9I+vaFc0uYgPrumzUW5t2P86g7r4Oux+e2Kp15t82aF5T8v3eva5cC20+zTk7dW&#xA;djssca7cnc7KMVfnt+a/5oa5+YvmmXWdRJhtY6xaZp4aqW0FahRsOTN1dqbn2AAVeof84yfkGfNN&#xA;7F5x8y25/wAN2clbC0kBAvZ0P2iD1hjbr2Zvh6Bhir7RAAFBsB0GKuxV2KuxV4h/zl1rnmfSfyxh&#xA;OiTTW0F3fR2+qXFvVXFu0bkIXXdEeQKD4/Z70Kr4bJJNTuTirWKuxV7h/wA4faEmo/m6t86gro9h&#xA;cXaE/wA8nG2H08Z2OKvuTFXYq7FXYq7FXYq07oiM7sFRQSzE0AA3JJOKvgr/AJyO/OJ/P/m02emy&#xA;k+V9HZotOA6TydJLk/61KJ/k+BJxVF/84zfk0fPPmj9M6vBz8r6K6vOrj4Lm5FGjt99mUfak9qA/&#xA;axV91gACg2A6DFXYq8k/5yn0JNW/JfWJOPKbS5Le/g2rQpKI3P8AyKlfFXxJ5C1d9G88eX9WU0+o&#xA;6jaztTuqTKWG3itRiqH826S+j+adY0l14tp97cWpWlAPRlZNv+BxV92/84y62urfkt5fblWWxWay&#xA;mFa0MEzqg/5FcDir1HFXYqg9Y0bSta0y40vVrSK90+6XhcWsyh0dfcHwO4PY7jFXx5+dv/OK2q+W&#xA;/rGveSkl1PQFrJcabvJd2i9SV7zRL4/bUda7tirwzy75j1zy5q8Gr6HeyWGo2xrFcRGh91YdGU91&#xA;Ox74qy780/zs84/mQNPi1po4LTT4xxs7UMkLz0o9w6sW+Mg0HZRsOpqqnP8Azj/+SN5+Y+vm5v1e&#xA;Dyppzg6jcj4TM+xFtEevJhuzD7K+5XFX3pY2NlYWUFjYwJbWdsixW9vEoRERBRVVRsABiqvirsVd&#xA;irsVUL6wsb+0lsr+3iu7OdSk9tOiyROp6q6OCrD2IxViP/KlPyj/AOpQ0r/pFi/pirv+VKflH/1K&#xA;Glf9IsX9MVfKP/OW3ljy35b8+6Vp+gaTb6VavpSXEq2saxI8j3EyEkKAOQWMYqyj/nB+BG8w+aZy&#xA;RzjtLaNV7kPK5J+jgMVfXeKuxV8q/wDOVX5zefNA832/lby9fTaPZRWkd1PcwfBNO8rN0k+0EUJT&#xA;4ab1riq38j/+csJfVi8v/mLcBlkYJZ+YSAvEk0CXYUAcf+LB0/a/mxV9VRSxSxJLE6yRSKGjkUhl&#xA;ZWFQQRsQRiq7FXzd/wA5a/nKNI0xvIGiTU1PUYwdbmQ7w2jiohqP2px9r/I/1sVfLXkbyZrPnPzR&#xA;Y+XdIj5Xd69GkIJSKIbyTSU6Ki7n7hucVfoz5I8m6N5N8r2Hl3SI+FpZRhS5A5yyHeSWQjq7tufu&#xA;G2Kp7irsVYZ+c8SS/lL5wV2VQNIvGBbpVIWYD5kig98Vfm9ir2T/AJyt8ovoP5t3t6icbPXoo9Qh&#xA;IG3Mj0p1r4+pGWP+sMVZ/wD84U+eI4brWvJVzIF+s01PTlJpV0AiuFHiSgjYDwU4q+scVdirsVdi&#xA;rwX87f8AnF3RfN31jXfKgi0nzK1ZJ7anC0vG6nkB/dSt/OBQn7Q35BV4F5Q/5xh/NPWPNMWlavpM&#xA;2i6dHIP0hqc5jMaRA/F6JVmWZyNlCEivUgb4q+4vKvlfRPK2gWeg6Lbi206xThDGNyTWrO5/ad2J&#xA;Zj3OKprirsVdirsVdirsVdirsVfIP/Ob+nyR+afLOomvp3FjNbqe1YJg5/5PjFUv/wCcKdTSD8w9&#xA;Y09yB9c0tpIyepeCeP4R/sZGP0Yq+zsVdirzv84vyT8tfmXpard/6FrlohXTtXjFWQHf05VqPUiL&#xA;b8eo/ZIqaqvhPz7+X3mnyLrr6N5htDBOKtBOtWhnjrQSQvQcl/EdCAcVejfkb/zkhrfkOSHRdbMm&#xA;p+Umagiryns69Wtyx3TuYyadxQ1qq+pPP353eU/Lv5anznp15Dqcd8np6HHG1RcXLAgKRsyiPcyg&#xA;0K0I+1QYq/P7WdY1PW9Wu9V1OdrrUb6Vprmd92Z3NT/YB06Yq+4f+caPybHkXyv+l9Vh4+aNbjV7&#xA;oMPitrc0aO236N+1J/lUH7IxV7NirsVdirzz/nITU49O/JnzVO5A9Wz+qrXu11IsA/5OYq/PnSLC&#xA;TUdVstPjBMl5PFboF6lpXCCn34q+4P8AnKr8uG82fl42q2UXqav5bL3kIUVZ7ZgPrMY/2KiT/Y07&#xA;4q+K/KXmfVPK3mXTvMOlvwvtNmWaLwYDZ0b/ACXQlW9jir9HvInnXRvOvlax8xaRJytbxKvETV4Z&#xA;V2khk8GRtvfqNiMVT/FXYq7FXYq7FXYq7FXYq7FXYq7FXYq7FXYq+f8A/nM7y29/+XNhrcScn0W+&#xA;X1m/lgu19Jj/AMjREMVfM35HebY/Kn5q+XtXnf07P6z9WvHJoohulMDs3snqc/oxV+jOKuxV2Ksd&#xA;89eQfLHnjQZdF8w2guLd6mGYfDNBJTaWF+qsPuPQgjbFXwv+cf5GeZ/y21EvMDf+XZ342OrxrRST&#xA;uI5lFfTkoOnQ9u9FXnBmmMKwl2MKMXWKp4hmADMF6VIUVPtir6E/5xP/ACa/xBrI8761Dy0XSZaa&#xA;ZC42uL1KEPQ9Ug6+708Dir7NxV2KuxV2KvnH/nNTzaln5Q0jyvE9LjVro3VwoP8Ax72goAw/ypZF&#xA;I/1TirwH/nHfy0/mD84fLlvxrDZXH6RnbqFWzHrLX/WkVV+nFX6GEBgQRUHYg9CMVfCH/OSX5Lze&#xA;RPMzavpUB/wpq8jPaMoqttO3xPbN4Dq0deq7fsnFUn/I7869V/LTXmLq955bvmH6U05SOVQKLNDy&#xA;2WRfuYbHsQq+8/LPmfQfM+i2+taFeR32nXS1jmjPQ90cdVdejK24xVNMVdirsVdirsVdirsVdirs&#xA;VdirsVdirsVSXzr5YtfNPlLVvL11QRanayW/M78HZf3cn+wejfRir80NX0u+0nVbzS7+Mw3thNJb&#xA;XMR/ZkiYo4+8Yq++P+cdPzMTz1+Xdq91N6mu6QFstWBNXZkFIpz4+tGKk/zBvDFXqOKuxV2KoXVd&#xA;K03VtOuNN1O2jvLC6Qx3FtMoeN1PZlOKvnLV/wDnCXQLjzE1zpvmGax0GSTmdOaATTxrWpjjuGkA&#xA;I6hWdCR35Yq+h/L+g6V5f0Sy0XSYBbadp8SwW0K9lUdSe7Md2J3J3xVMMVdirsVWTTRQQyTTOscM&#xA;Sl5JGICqqipYk9ABir87Pzx/MU+fvzE1DWYWY6XDS00lG7W0NQrU7eoxaSn+Vir3v/nCzyG9tpWq&#xA;+druIrJfn9H6YxHWCJg1w6+zSqq/NDir6bxVLfMflzRfMmi3Wi61apeabeJwngf7wykbqyndWG4O&#xA;4xV8IfnX+QvmL8uNRe6iV7/yrPJSy1QCpj5H4YrkAUSTsD9lu29VCrGvy6/NPzl+X+qG+8vXnpxy&#xA;EfW7CYF7WcDoJI6jcdmUhh2OKvrP8vf+ct/y98wxx23mHl5a1Q0U+uTJZuT3W4UDh/z0VQPE4q9q&#xA;07U9N1K1S8067hvbST+7uLeRZY2+ToWU4qicVdirsVdirsVdirsVdirsVdirsVdir5J/5zA/KWS2&#xA;v0/MPSYK2l1wg15EG0cwokVwafsyCiMf5gO7Yq8a/J780tT/AC584QazbBp9PlpBq1iDQTW5O9Kk&#xA;Dmn2kPjt0JxV+hPlzzHovmTRbTW9FukvNNvU9S3nToR0IIO6spFGU7g7HFUyxV2KuxV2KuxV2Kux&#xA;V2Kvl7/nK388ooba4/Lzy7ccriX4PMV3Gf7tOv1RT/M3+7KdB8PdqKvm/wDL3yNq/njzbYeXNLU+&#xA;rduPXnpyWCBT+9mfp8KL77mg6nFX6QeXPL+meXdBsND0uL0dP06FLe3TqeKClWPdmO7HucVTHFXY&#xA;qo3tlZ31pNZ3sEdzaXCmOe3mUPG6NsVZWBBB98VfNP5o/wDOHFjeSS6l+X9ytjM3xNol2zGAnv6E&#xA;/wATp7K9R/lKMVfM/mzyD5z8o3RtvMej3OmvyKpJKh9FyP8Afcy8o5P9ixxVK9M1nV9KnM+l31xY&#xA;TnYy2srwvQf5SFTirLLT87/zetRSLzdqjUFP3tw823/PUv8AfiqI/wCV/fnJ/wBTZff8Ev8AzTir&#xA;v+V/fnJ/1Nl9/wAEv/NOKu/5X9+cn/U2X3/BL/zTirv+V/fnJ/1Nl9/wS/8ANOKu/wCV/fnJ/wBT&#xA;Zff8Ev8AzTirv+V/fnJ/1Nl9/wAEv/NOKu/5X9+cn/U2X3/BL/zTirv+V/fnJ/1Nl9/wS/8ANOKu&#xA;/wCV/fnJ/wBTZff8Ev8AzTirv+V/fnJ/1Nl9/wAEv/NOKu/5X9+cn/U2X3/BL/zTiqG1L87PzV1P&#xA;T7jTtQ8yXd1Y3cbQ3NtKUZHjcUZWBXvirCMVelfkz+ePmP8ALXUyIuV/5eumBv8ASXcha/79gJqE&#xA;lA+huh7EKvuTyH+Y/lDz1pI1Py5fLcotPrFs3wXEDEfZmiO6n36HsTirJsVdirsVdirsVWTTQwRP&#xA;NNIsUMalpJHIVVUCpLE7ADFXzD+eX/OVttDFceXfy8uPVuGrHd+Yk+xH4raV+03b1Og/Zr9oKvlj&#xA;T9P1XWtVhsbGGW+1O+lCQwoC8ssrn7ySepxV97fkJ+Stn+W3l1mu+Fx5n1FQ2qXa7qijdbeIn9hO&#xA;5/abfpQBV6lirsVdirsVdiqnc21vdQPb3MSTwSDjJFIodGHgytUHFWAa7/zj5+Tetu0l35XtIpWq&#xA;edl6llue9LZolJ+YxVit1/zh/wDk7MT6cWoW1WJpFdV2/l/eJJt+OKof/oTb8o/9/ar/ANJMX/VH&#xA;FXf9CbflH/v7Vf8ApJi/6o4q7/oTb8o/9/ar/wBJMX/VHFXf9CbflH/v7Vf+kmL/AKo4q7/oTb8o&#xA;/wDf2q/9JMX/AFRxV3/Qm35R/wC/tV/6SYv+qOKu/wChNvyj/wB/ar/0kxf9UcVd/wBCbflH/v7V&#xA;f+kmL/qjirv+hNvyj/39qv8A0kxf9UcVd/0Jt+Uf+/tV/wCkmL/qjirv+hNvyj/39qv/AEkxf9Uc&#xA;Vd/0Jt+Uf+/tV/6SYv8Aqjirv+hNvyj/AN/ar/0kxf8AVHFXhn5y/wDOMnmfyTJPq2grLrXlcVcy&#xA;ovK6tV60nRR8Sgf7sUU8QuKvI9C8wa5oGpR6nol9Pp1/F9i5t3aN6HqpK9VNN1OxxV9C+Rf+c0vM&#xA;FlHHa+ctKTVo1orajZEW9xTuzxH907f6vAYq9l0H/nKf8mNWRfU1iTS5mFfQv7eWMj5vGJYv+HxV&#xA;k8P50flLLGXXzhpAVV5EPeQoaeyswJPt1xVL9T/5yE/JnToy8/mqzloK8bX1Lpj9ECyYq8082/8A&#xA;OanlCzR4vK+kXWrXAqFuLoi0t/ZgB6krfIqvzxV87/mL+eP5iefi0Os6h6OlluSaTaD0bYeHJQS0&#xA;lO3qM2KpJ5G/L3zb541ddL8uWD3ctR689CsECt+3NL9lF2PuewJxV9v/AJK/kJ5d/Laz+tsy6j5n&#xA;uE43eqMKKincxW6n7CeJ+03fagCr1LFXYq7FXYq7FXYq7FXYq7FXYq7FXYq7FXYq7FXYq7FXYq7F&#xA;XYq7FXYq7FXkX5j/APOMX5b+cpJb23gbQdYkJZr2wVRHI57y25/dtvuSvFj3OKvnfzd/ziL+amiv&#xA;JJpKW/mGzWpV7WQRT8f8qGYpv7IzYq8u1fyF540ZyureX9Rsabcp7WZFPbZivE/QcVSHFUXYaRqu&#xA;oyCPT7Ke8kJ4hLeJ5WJ8KIDirPfLX/OO/wCcPmB1+r+XLiyhP2p9RpZqoPfjNxkb/YqcVe4+Q/8A&#xA;nCzSrZ4rvztqpv5FILaZp/KKA/5L3DBZWH+qqH3xV9FeX/Lmg+XdMi0vQ7CHTtPh+xb26BFqerGm&#xA;7Me7Hc4qmOKuxV2Kv//Z</xmpGImg:image>
               </rdf:li>
            </rdf:Alt>
         </xmp:Thumbnails>
      </rdf:Description>
      <rdf:Description rdf:about=""
            xmlns:xmpMM="http://ns.adobe.com/xap/1.0/mm/"
            xmlns:stRef="http://ns.adobe.com/xap/1.0/sType/ResourceRef#"
            xmlns:stEvt="http://ns.adobe.com/xap/1.0/sType/ResourceEvent#">
         <xmpMM:InstanceID>xmp.iid:01801174072068118083ACAE3646A7CD</xmpMM:InstanceID>
         <xmpMM:DocumentID>xmp.did:01801174072068118083ACAE3646A7CD</xmpMM:DocumentID>
         <xmpMM:OriginalDocumentID>uuid:5D20892493BFDB11914A8590D31508C8</xmpMM:OriginalDocumentID>
         <xmpMM:RenditionClass>proof:pdf</xmpMM:RenditionClass>
         <xmpMM:DerivedFrom rdf:parseType="Resource">
            <stRef:instanceID>xmp.iid:02801174072068118A6DB2CE190AA88A</stRef:instanceID>
            <stRef:documentID>xmp.did:02801174072068118A6DB2CE190AA88A</stRef:documentID>
            <stRef:originalDocumentID>uuid:5D20892493BFDB11914A8590D31508C8</stRef:originalDocumentID>
            <stRef:renditionClass>proof:pdf</stRef:renditionClass>
         </xmpMM:DerivedFrom>
         <xmpMM:History>
            <rdf:Seq>
               <rdf:li rdf:parseType="Resource">
                  <stEvt:action>saved</stEvt:action>
                  <stEvt:instanceID>xmp.iid:01801174072068118A6DB2CE190AA88A</stEvt:instanceID>
                  <stEvt:when>2017-08-14T14:14:13+03:00</stEvt:when>
                  <stEvt:softwareAgent>Adobe Illustrator CS6 (Macintosh)</stEvt:softwareAgent>
                  <stEvt:changed>/</stEvt:changed>
               </rdf:li>
               <rdf:li rdf:parseType="Resource">
                  <stEvt:action>saved</stEvt:action>
                  <stEvt:instanceID>xmp.iid:01801174072068118083ACAE3646A7CD</stEvt:instanceID>
                  <stEvt:when>2017-09-24T17:11:47+03:00</stEvt:when>
                  <stEvt:softwareAgent>Adobe Illustrator CS6 (Macintosh)</stEvt:softwareAgent>
                  <stEvt:changed>/</stEvt:changed>
               </rdf:li>
            </rdf:Seq>
         </xmpMM:History>
      </rdf:Description>
      <rdf:Description rdf:about=""
            xmlns:illustrator="http://ns.adobe.com/illustrator/1.0/">
         <illustrator:StartupProfile>Print</illustrator:StartupProfile>
      </rdf:Description>
      <rdf:Description rdf:about=""
            xmlns:xmpTPg="http://ns.adobe.com/xap/1.0/t/pg/"
            xmlns:stDim="http://ns.adobe.com/xap/1.0/sType/Dimensions#"
            xmlns:xmpG="http://ns.adobe.com/xap/1.0/g/">
         <xmpTPg:HasVisibleOverprint>False</xmpTPg:HasVisibleOverprint>
         <xmpTPg:HasVisibleTransparency>False</xmpTPg:HasVisibleTransparency>
         <xmpTPg:NPages>1</xmpTPg:NPages>
         <xmpTPg:MaxPageSize rdf:parseType="Resource">
            <stDim:w>24.000000</stDim:w>
            <stDim:h>24.000000</stDim:h>
            <stDim:unit>Pixels</stDim:unit>
         </xmpTPg:MaxPageSize>
         <xmpTPg:PlateNames>
            <rdf:Seq>
               <rdf:li>Cyan</rdf:li>
               <rdf:li>Magenta</rdf:li>
               <rdf:li>Yellow</rdf:li>
               <rdf:li>Black</rdf:li>
            </rdf:Seq>
         </xmpTPg:PlateNames>
         <xmpTPg:SwatchGroups>
            <rdf:Seq>
               <rdf:li rdf:parseType="Resource">
                  <xmpG:groupName>Default Swatch Group</xmpG:groupName>
                  <xmpG:groupType>0</xmpG:groupType>
               </rdf:li>
            </rdf:Seq>
         </xmpTPg:SwatchGroups>
      </rdf:Description>
      <rdf:Description rdf:about=""
            xmlns:pdf="http://ns.adobe.com/pdf/1.3/">
         <pdf:Producer>Adobe PDF library 10.01</pdf:Producer>
      </rdf:Description>
   </rdf:RDF>
</x:xmpmeta>
                                                                                                    
                                                                                                    
                                                                                                    
                                                                                                    
                                                                                                    
                                                                                                    
                                                                                                    
                                                                                                    
                                                                                                    
                                                                                                    
                                                                                                    
                                                                                                    
                                                                                                    
                                                                                                    
                                                                                                    
                                                                                                    
                                                                                                    
                                                                                                    
                                                                                                    
                                                                                                    
                           
<?xpacket end="w"?>
	</metadata>
<g id="Layer_1" display="none">
	<g display="inline">
		<path fill="#292B2C" d="M24,18.961l-7.439-7.439l3.897-3.897l0.601-0.603l0.319-0.318l-0.026-0.028
			c0.818-1.127,0.726-2.719-0.293-3.735c-1.016-1.017-2.606-1.112-3.733-0.292l-0.027-0.028l-0.319,0.32l-0.441,0.441L12.479,7.44
			L5.039,0L0,5.039l7.439,7.439l-3.536,3.538l0.041,0.041L2.098,21.9l5.845-1.844l0.041,0.041l3.537-3.537L18.961,24L24,18.961z
			 M20.294,3.706c0.593,0.592,0.681,1.496,0.272,2.187l-2.461-2.46C18.799,3.027,19.701,3.113,20.294,3.706z M7.667,11.174
			l1.085-1.083L8.216,9.554l-1.085,1.084L6.193,9.701l2.168-2.169L7.826,6.996L5.658,9.165L4.719,8.226l1.085-1.084L5.267,6.606
			L4.182,7.691L3.245,6.752l1.083-1.084L3.793,5.132L2.709,6.217L1.57,5.078L5.078,1.57l6.635,6.635l-3.507,3.508L7.667,11.174z
			 M3.758,20.242l0.682-2.16l1.478,1.48L3.758,20.242z M5.433,16.016L17.297,4.153l1.02,1.021L6.455,17.035L5.433,16.016z
			 M6.963,17.547L18.828,5.684l1.02,1.02L7.984,18.566L6.963,17.547z M17.984,21.492l1.084-1.084l-0.537-0.535l-1.083,1.084
			l-0.937-0.939l1.082-1.084l-0.535-0.535l-1.086,1.084l-0.938-0.938l2.169-2.168L16.67,15.84l-2.17,2.168l-0.938-0.938l1.084-1.084
			l-0.535-0.537l-1.086,1.084l-0.738-0.738l3.507-3.508l6.638,6.635l-3.51,3.508L17.984,21.492z"/>
	</g>
</g>
<g id="Layer_2">
	<g>
		<path d="M20.571,16.145l-2.319,3.333l-1.637-1.344c-0.177-0.146-0.438-0.119-0.584,0.058s-0.12,0.438,0.058,0.583l1.984,1.628
			c0.073,0.062,0.167,0.095,0.263,0.095c0.019,0,0.037-0.002,0.057-0.005c0.114-0.015,0.217-0.078,0.283-0.173l2.576-3.701
			c0.13-0.188,0.084-0.446-0.104-0.577C20.96,15.909,20.702,15.956,20.571,16.145z"/>
		<path d="M22.569,14.986V5.234c0-2.783-2.265-5.047-5.047-5.047H5.234c-2.783,0-5.047,2.264-5.047,5.047v12.288
			c0,2.782,2.264,5.047,5.047,5.047h9.752c0.934,0.775,2.132,1.243,3.438,1.243c2.971,0,5.388-2.417,5.388-5.388
			C23.812,17.118,23.345,15.92,22.569,14.986z M5.234,21.74c-2.326,0-4.218-1.892-4.218-4.218V5.234
			c0-2.326,1.892-4.218,4.218-4.218h12.288c2.326,0,4.218,1.892,4.218,4.218v8.949c-0.031-0.024-0.064-0.045-0.096-0.069
			c-0.087-0.064-0.174-0.13-0.266-0.19c-0.01-0.006-0.02-0.012-0.029-0.018c-0.213-0.139-0.438-0.261-0.67-0.368
			c-0.031-0.015-0.062-0.031-0.093-0.045c-0.092-0.04-0.185-0.074-0.278-0.11c-0.06-0.022-0.119-0.045-0.179-0.065
			c-0.086-0.028-0.173-0.054-0.261-0.078c-0.073-0.021-0.148-0.04-0.224-0.058c-0.079-0.019-0.157-0.036-0.238-0.051
			c-0.095-0.019-0.191-0.031-0.288-0.044c-0.064-0.009-0.129-0.019-0.194-0.025c-0.166-0.016-0.333-0.025-0.5-0.025
			c-2.543,0-4.675,1.772-5.238,4.146h-1.808c-0.229,0-0.415,0.185-0.415,0.414c0,0.229,0.186,0.414,0.415,0.414h1.679
			c-0.011,0.137-0.021,0.274-0.021,0.415c0,0.167,0.01,0.334,0.025,0.5c0.007,0.066,0.017,0.131,0.024,0.195
			c0.013,0.096,0.026,0.191,0.045,0.286c0.014,0.081,0.032,0.161,0.051,0.24c0.018,0.074,0.036,0.147,0.057,0.221
			c0.025,0.089,0.051,0.177,0.08,0.264c0.02,0.059,0.042,0.115,0.063,0.173c0.035,0.096,0.07,0.19,0.111,0.283
			c0.012,0.027,0.026,0.055,0.039,0.081c0.11,0.241,0.236,0.473,0.38,0.692c0.004,0.006,0.008,0.012,0.011,0.018
			c0.061,0.092,0.127,0.179,0.191,0.267c0.024,0.031,0.045,0.064,0.069,0.096H5.234z M18.425,22.983
			c-1.17,0-2.234-0.446-3.042-1.173c-0.101-0.09-0.196-0.184-0.287-0.281c-0.021-0.021-0.04-0.044-0.061-0.065
			c-0.086-0.097-0.168-0.196-0.246-0.299c-0.018-0.023-0.036-0.047-0.054-0.071c-0.076-0.106-0.148-0.215-0.216-0.327
			c-0.014-0.022-0.027-0.044-0.041-0.067c-0.068-0.117-0.13-0.237-0.187-0.36c-0.009-0.02-0.02-0.038-0.028-0.059
			c-0.058-0.128-0.108-0.259-0.153-0.392c-0.005-0.017-0.012-0.032-0.018-0.049c-0.044-0.135-0.081-0.272-0.113-0.412
			c-0.004-0.016-0.009-0.031-0.013-0.048c-0.029-0.138-0.051-0.277-0.067-0.417c-0.002-0.02-0.007-0.039-0.009-0.059
			c-0.017-0.158-0.025-0.318-0.025-0.479c0-2.515,2.045-4.56,4.56-4.56c0.161,0,0.321,0.009,0.48,0.026
			c0.019,0.002,0.036,0.006,0.056,0.008c0.141,0.018,0.281,0.039,0.419,0.069c0.017,0.003,0.031,0.008,0.047,0.012
			c0.14,0.032,0.278,0.069,0.414,0.113c0.016,0.005,0.03,0.012,0.046,0.017c0.134,0.046,0.267,0.098,0.396,0.155
			c0.019,0.008,0.036,0.018,0.055,0.026c0.124,0.058,0.245,0.12,0.363,0.188c0.022,0.013,0.043,0.025,0.064,0.039
			c0.113,0.068,0.224,0.141,0.331,0.218c0.022,0.017,0.045,0.034,0.066,0.051c0.105,0.079,0.206,0.162,0.304,0.25
			c0.021,0.019,0.042,0.037,0.062,0.056c0.1,0.093,0.194,0.19,0.286,0.292c0.725,0.808,1.17,1.87,1.17,3.039
			C22.983,20.938,20.938,22.983,18.425,22.983z"/>
		<path d="M11.378,5.99h7.46c0.229,0,0.414-0.186,0.414-0.415c0-0.229-0.186-0.415-0.414-0.415h-7.46
			c-0.229,0-0.415,0.185-0.415,0.415C10.964,5.805,11.149,5.99,11.378,5.99z"/>
		<path d="M11.378,11.793h7.46c0.229,0,0.414-0.186,0.414-0.415c0-0.229-0.186-0.414-0.414-0.414h-7.46
			c-0.229,0-0.415,0.186-0.415,0.414C10.964,11.607,11.149,11.793,11.378,11.793z"/>
		<path d="M8.133,3.234l-2.59,3.021L3.959,5.066c-0.183-0.137-0.443-0.101-0.58,0.083c-0.138,0.183-0.1,0.443,0.083,0.58L5.356,7.15
			c0.075,0.056,0.162,0.083,0.249,0.083c0.117,0,0.233-0.049,0.315-0.145l2.842-3.315c0.149-0.174,0.129-0.436-0.045-0.584
			C8.544,3.04,8.282,3.06,8.133,3.234z"/>
		<path d="M8.133,9.037l-2.59,3.021l-1.584-1.188c-0.183-0.138-0.443-0.101-0.58,0.083c-0.138,0.183-0.1,0.442,0.083,0.579
			l1.895,1.422c0.075,0.056,0.162,0.082,0.249,0.082c0.117,0,0.233-0.049,0.315-0.145l2.842-3.316
			C8.911,9.401,8.891,9.14,8.717,8.991C8.544,8.843,8.282,8.862,8.133,9.037z"/>
		<path d="M8.133,15.254l-2.59,3.021l-1.584-1.188c-0.183-0.137-0.443-0.101-0.58,0.083c-0.138,0.183-0.1,0.442,0.083,0.58
			l1.895,1.421c0.075,0.056,0.162,0.083,0.249,0.083c0.117,0,0.233-0.05,0.315-0.145l2.842-3.316
			c0.149-0.173,0.129-0.435-0.045-0.584C8.544,15.06,8.282,15.08,8.133,15.254z"/>
	</g>
</g>
</svg>
