<?xml version="1.0" standalone="no"?>
<!DOCTYPE svg PUBLIC "-//W3C//DTD SVG 1.1//EN" "http://www.w3.org/Graphics/SVG/1.1/DTD/svg11.dtd" >
<svg xmlns="http://www.w3.org/2000/svg" xmlns:xlink="http://www.w3.org/1999/xlink" version="1.1">
<metadata>
Created by FontForge 20170731 at Wed Mar 11 20:18:52 2009
 By Aleksey,,,
Copyright (c) 2005-2009 Parachute :, www.parachute.gr.  All rights reserved.
</metadata>
<defs>
<font id="PFEncoreSansPro-UltraBlackItalic" horiz-adv-x="1818" >
  <font-face 
    font-family="PF Encore Sans Pro UltraBlack"
    font-weight="1000"
    font-style="italic"
    font-stretch="normal"
    units-per-em="1000"
    panose-1="2 0 5 3 4 0 0 9 0 4"
    ascent="750"
    descent="-250"
    x-height="492"
    cap-height="683"
    bbox="-408 -384 1760 1028"
    underline-thickness="100"
    underline-position="-325"
    unicode-range="U+0020-FB05"
  />
<missing-glyph horiz-adv-x="465" 
d="M5 0v700h455v-700h-455zM133 86h198l-99 179zM232 435l99 179h-199zM90 513v-327l92 164zM284 350l89 -164v326z" />
    <glyph glyph-name="fj" unicode="fj" horiz-adv-x="665" 
d="M262 0h-221l62 342h-66l23 129l69 19l11 65q37 206 299 206q90 0 187 -22l-30 -169q-96 12 -143 12t-69 -15.5t-30 -55.5l-4 -19h321l-90 -532q-27 -162 -206 -162q-35 0 -97 13l22 169q35 0 50.5 14.5t20.5 47.5l50 300h-97z" />
    <glyph glyph-name="ffj" unicode="ffj" horiz-adv-x="994" 
d="M569 -113h-222l83 455h-106l-62 -342h-225l62 342h-66l23 129l69 19l10 58q17 99 71.5 140t151.5 41q58 0 113 -12l-30 -171q-8 1 -18 1q-63 0 -72 -49l-1 -6h106l11 63q37 206 299 206q90 0 187 -22l-30 -169q-96 12 -143 12t-69 -15.5t-30 -55.5l-4 -19h321l-90 -532
q-27 -162 -206 -162q-35 0 -97 13l22 169q35 0 50.5 14.5t20.5 47.5l50 300h-97z" />
    <glyph glyph-name="fb" unicode="fb" horiz-adv-x="1011" 
d="M221 -189h-221l93 531h-72l23 131l73 17l9 45q45 226 306 226q81 0 167 -16h121l-31 -188q-15 -86 -33 -123h6q69 75 167 75q162 0 162 -186q0 -43 -8.5 -87t-28.5 -89t-49 -80t-75 -57t-101 -22q-51 0 -86.5 24t-46.5 60h-5q-11 -46 -28 -72h-199l101 573q-20 2 -35 2
q-40 0 -59.5 -15t-25.5 -49l-4 -19h81l-26 -150h-80zM677 144q34 0 60.5 41.5t26.5 103.5q0 65 -49 65q-30 0 -51.5 -29.5t-29 -62.5t-7.5 -63q0 -55 50 -55z" />
    <glyph glyph-name="ffb" unicode="ffb" horiz-adv-x="1338" 
d="M562 -113h-221l79 455h-96l-94 -531h-225l94 531h-66l23 129l69 19l10 58q17 98 71 139.5t149 41.5q61 0 116 -12l-30 -171q-8 1 -18 1q-63 0 -72 -49l-1 -6h94l9 43q45 226 306 226q81 0 167 -16h121l-31 -188q-15 -86 -33 -123h6q69 75 167 75q162 0 162 -186
q0 -43 -8.5 -87t-28.5 -89t-49 -80t-75 -57t-101 -22q-51 0 -86.5 24t-46.5 60h-5q-11 -46 -28 -72h-199l101 573q-20 2 -35 2q-40 0 -59.5 -15t-25.5 -49l-4 -19h81l-26 -150h-80zM1004 144q34 0 60.5 41.5t26.5 103.5q0 65 -49 65q-30 0 -51.5 -29.5t-29 -62.5t-7.5 -63
q0 -55 50 -55z" />
    <glyph glyph-name="fh" unicode="fh" horiz-adv-x="992" 
d="M220 -189h-221l94 531h-72l23 131l73 17l9 45q45 226 306 226q81 0 167 -16h118l-32 -183q-15 -90 -43 -154h6q40 52 91 75.5t91 23.5q174 0 141 -187l-56 -320h-225l49 278q12 67 -37 67q-51 0 -65 -84l-46 -261h-226l100 573q-20 2 -35 2q-40 0 -59.5 -15t-25.5 -49
l-4 -19h81l-26 -150h-80z" />
    <glyph glyph-name="ffh" unicode="ffh" horiz-adv-x="1319" 
d="M563 -113h-221l78 455h-96l-92 -531h-225l92 531h-66l23 129l69 19l10 58q17 98 71 139.5t149 41.5q61 0 116 -12l-30 -171q-8 1 -18 1q-63 0 -72 -49l-1 -6h94l9 43q45 226 306 226q81 0 167 -16h118l-32 -183q-15 -90 -43 -154h6q40 52 91 75.5t91 23.5q174 0 141 -187
l-56 -320h-225l49 278q12 67 -37 67q-51 0 -65 -84l-46 -261h-226l100 573q-20 2 -35 2q-40 0 -59.5 -15t-25.5 -49l-4 -19h81l-26 -150h-80z" />
    <glyph glyph-name="fk" unicode="fk" horiz-adv-x="993" 
d="M223 -189h-221l91 531h-72l23 131l73 17l9 45q45 226 306 226q81 0 167 -16h121l-68 -399h22l114 146h245l-198 -228l115 -264h-233l-68 181h-27l-31 -181h-227l101 573q-20 2 -35 2q-40 0 -59.5 -15t-25.5 -49l-4 -19h81l-26 -150h-80z" />
    <glyph glyph-name="ffk" unicode="ffk" horiz-adv-x="1320" 
d="M562 -113h-221l79 455h-96l-93 -531h-225l93 531h-66l23 129l69 19l10 58q17 98 71 139.5t149 41.5q61 0 116 -12l-30 -171q-8 1 -18 1q-63 0 -72 -49l-1 -6h94l9 43q45 226 306 226q81 0 167 -16h121l-68 -399h22l114 146h245l-198 -228l115 -264h-233l-68 181h-27
l-31 -181h-227l101 573q-20 2 -35 2q-40 0 -59.5 -15t-25.5 -49l-4 -19h81l-26 -150h-80z" />
    <glyph glyph-name="r_y" unicode="ry" horiz-adv-x="1006" 
d="M670 -205h-224l110 206l-85 -2l-61 298q-65 -4 -106.5 -48.5t-53.5 -109.5l-25 -139h-226l86 492h200q14 -32 1 -111h5q28 48 65 78t76 40t82.5 12t85.5 -6l18 -174q13 -128 4 -194h6l69 159q36 82 56 195h227q-1 -8 -5 -32.5t-5.5 -31.5t-5.5 -27t-7.5 -30t-9.5 -27.5
t-13.5 -34t-17.5 -35.5z" />
    <glyph glyph-name="ff" unicode="ff" horiz-adv-x="760" 
d="M576 -113h-220l78 455h-110l-92 -531h-225l92 531h-66l23 129l69 19l10 58q32 181 232 181q55 0 110 -12l-30 -171q-8 1 -24 1q-63 0 -72 -49l-1 -6h110l14 78q17 94 70.5 138t159.5 44q85 0 141 -15l-29 -163q-30 3 -52 3q-67 0 -77 -51l-6 -34h108l-26 -150h-108z" />
    <glyph glyph-name="fi" unicode="fi" horiz-adv-x="665" 
d="M232 -189h-221l92 531h-66l23 129l69 19l11 65q37 206 299 206q90 0 187 -22l-30 -169q-96 12 -143 12t-69 -15.5t-30 -55.5l-4 -19h323l-86 -492h-225l60 342h-98z" />
    <glyph glyph-name="fl" unicode="fl" horiz-adv-x="667" 
d="M223 -189h-221l91 531h-72l23 131l73 17l9 45q45 226 306 226q81 0 167 -16h121l-123 -745h-225l93 573q-20 2 -35 2q-40 0 -59.5 -15t-25.5 -49l-4 -19h81l-26 -150h-80z" />
    <glyph glyph-name="ffi" unicode="ffi" horiz-adv-x="994" 
d="M571 -113h-222l81 455h-106l-94 -531h-225l94 531h-66l23 129l69 19l10 58q17 99 71.5 140t151.5 41q58 0 113 -12l-30 -171q-8 1 -18 1q-63 0 -72 -49l-1 -6h106l11 63q37 206 299 206q90 0 187 -22l-30 -169q-96 12 -143 12t-69 -15.5t-30 -55.5l-4 -19h323l-86 -492
h-225l60 342h-98z" />
    <glyph glyph-name="ffl" unicode="ffl" horiz-adv-x="997" 
d="M563 -113h-221l78 455h-96l-92 -531h-225l92 531h-66l23 129l69 19l10 58q17 98 71 139.5t149 41.5q61 0 116 -12l-30 -171q-8 1 -18 1q-63 0 -72 -49l-1 -6h94l9 43q45 226 306 226q81 0 167 -16h121l-123 -745h-225l93 573q-20 2 -35 2q-40 0 -59.5 -15t-25.5 -49
l-4 -19h81l-26 -150h-80z" />
    <glyph glyph-name="ft" unicode="ft" horiz-adv-x="769" 
d="M228 -189h-220l95 531h-74l23 129l77 19l12 67q17 94 70.5 139t159.5 45q66 0 126 -16l-29 -160q-12 2 -34 2q-69 0 -80 -54l-4 -21h116l65 143h175l-25 -144h103l-26 -149h-102l-17 -95q-4 -19 -4 -35q0 -23 14 -31.5t50 -8.5q15 0 41 3l-30 -173q-53 -13 -140 -13
q-174 0 -174 136q0 19 5 47l30 170h-107z" />
    <glyph glyph-name=".notdef" horiz-adv-x="465" 
d="M5 0v700h455v-700h-455zM133 86h198l-99 179zM232 435l99 179h-199zM90 513v-327l92 164zM284 350l89 -164v326z" />
    <glyph glyph-name=".null" horiz-adv-x="0" 
 />
    <glyph glyph-name="nonmarkingreturn" horiz-adv-x="333" 
 />
    <glyph glyph-name="space" unicode=" " horiz-adv-x="310" 
 />
    <glyph glyph-name="exclam" unicode="!" horiz-adv-x="355" 
d="M143 700h237l-101 -449h-194zM176 210q40 0 66 -26.5t26 -65.5q0 -54 -37.5 -94t-94.5 -40q-39 0 -65 27t-26 66q0 55 37.5 94t93.5 39z" />
    <glyph glyph-name="quotedbl" unicode="&#x22;" horiz-adv-x="452" 
d="M227 400h-134l37 292h162zM421 400h-134l37 292h162z" />
    <glyph glyph-name="numbersign" unicode="#" horiz-adv-x="698" 
d="M655 370h-104l-25 -69h106l-38 -109h-104l-65 -192h-130l67 192h-91l-63 -192h-129l65 192h-101l36 109h103l23 69h-102l35 102h103l62 180h129l-63 -180h90l59 180h128l-60 -180h104zM334 370l-24 -69h88l26 69h-90z" />
    <glyph glyph-name="dollar" unicode="$" horiz-adv-x="698" 
d="M303 -72l141 798h44l-14 -77q84 -8 136.5 -47.5t52.5 -107.5q0 -34 -12 -68h-188q0 2 0.5 6.5t0.5 6.5q0 30 -19 46l-14 -80q110 -25 157.5 -67t47.5 -109q0 -91 -73 -154.5t-203 -71.5l-13 -75h-44zM415 726l-141 -798h-44l13 76q-88 10 -140.5 50t-52.5 112q0 43 14 74
h183q-1 -5 -1 -16q0 -42 27 -50l16 90q-93 21 -137.5 56t-44.5 108q0 28 11.5 59.5t37 67.5t78 61.5t123.5 31.5l14 78h44zM401 235l-13 -76q37 11 37 47q0 18 -24 29zM329 492q-13 -3 -24.5 -12.5t-11.5 -23.5q0 -19 26 -23z" />
    <glyph glyph-name="percent" unicode="%" horiz-adv-x="989" 
d="M282 -28h-109l493 734h111zM277 690q91 0 132 -45.5t41 -119.5q0 -37 -7.5 -72t-26 -69t-46 -59.5t-70.5 -41t-97 -15.5q-176 0 -176 154q0 123 64.5 195.5t185.5 72.5zM253 566q-27 0 -45.5 -37t-18.5 -90q0 -49 33 -49q26 0 46 34t20 92q0 50 -35 50zM760 417
q91 0 132 -45.5t41 -119.5q0 -37 -7.5 -72t-26 -69t-46 -59.5t-70.5 -41t-97 -15.5q-176 0 -176 154q0 123 64.5 195.5t185.5 72.5zM736 293q-27 0 -45.5 -37t-18.5 -90q0 -49 33 -49q26 0 46 34t20 92q0 50 -35 50z" />
    <glyph glyph-name="ampersand" unicode="&#x26;" horiz-adv-x="792" 
d="M435 369q40 -76 107 -155q56 59 56 117q0 44 -48 71l69 113q144 -21 144 -158q0 -54 -30.5 -122.5t-89.5 -125.5q48 -43 96 -76l-104 -122q-71 44 -137 104q-108 -42 -231 -42q-119 0 -179 49.5t-60 129.5q0 147 174 244q-29 43 -29 96q0 93 65 160.5t176 67.5
q84 0 130.5 -39.5t46.5 -105.5q0 -121 -156 -206zM325 130q29 0 61 5q-49 61 -100 145q-49 -37 -49 -87q0 -63 88 -63zM389 589q-18 0 -28 -15.5t-11 -31.5l-2 -16q0 -24 11 -54q51 51 51 92q0 25 -21 25z" />
    <glyph glyph-name="quotesingle" unicode="'" horiz-adv-x="258" 
d="M227 400h-134l37 292h162z" />
    <glyph glyph-name="parenleft" unicode="(" horiz-adv-x="344" 
d="M320 740l95 -72q-90 -101 -137.5 -236t-47.5 -270q0 -130 46 -222l-113 -71q-120 155 -120 343q0 131 76.5 273.5t200.5 254.5z" />
    <glyph glyph-name="parenright" unicode=")" horiz-adv-x="344" 
d="M84 668l120 72q121 -160 121 -356q0 -131 -73.5 -268t-198.5 -247l-87 71q82 96 127 228t45 260q0 139 -54 240z" />
    <glyph glyph-name="asterisk" unicode="*" horiz-adv-x="509" 
d="M385 456l62 -99l-122 -79l-46 101l-78 -101l-99 78l96 102l-115 37l63 119l105 -48l16 118h131l-28 -118l121 48l26 -119z" />
    <glyph glyph-name="plus" unicode="+" horiz-adv-x="698" 
d="M428 232l-29 -167h-156l29 167h-161l26 144h161l27 156h156l-27 -156h159l-26 -144h-159z" />
    <glyph glyph-name="comma" unicode="," horiz-adv-x="313" 
d="M154 223q46 0 73.5 -27.5t27.5 -70.5q0 -47 -31 -92l-176 -252l-60 22l84 181q-59 26 -59 90q0 62 39.5 105.5t101.5 43.5z" />
    <glyph glyph-name="hyphen" unicode="-" horiz-adv-x="457" 
d="M51 189l26 150h341l-26 -150h-341z" />
    <glyph glyph-name="period" unicode="." horiz-adv-x="308" 
d="M153 223q42 0 69.5 -28t27.5 -70q0 -58 -40 -99t-99 -41q-42 0 -69 27.5t-27 69.5q0 56 42 98.5t96 42.5z" />
    <glyph glyph-name="slash" unicode="/" horiz-adv-x="621" 
d="M142 -44h-188l563 762h189z" />
    <glyph glyph-name="zero" unicode="0" horiz-adv-x="698" 
d="M414 665q146 0 210 -68.5t64 -183.5q0 -57 -11 -113.5t-38 -113.5t-67 -100t-104.5 -70t-144.5 -27q-275 0 -275 241q0 82 22.5 158t66 139t115.5 100.5t162 37.5zM397 489q-54 0 -87.5 -69.5t-33.5 -177.5q0 -80 63 -80q49 0 85.5 60t36.5 182q0 85 -64 85z" />
    <glyph glyph-name="one" unicode="1" horiz-adv-x="698" 
d="M624 170l-29 -170h-548l29 170h160l51 286l-137 -19l27 158l175 56h194l-85 -481h163z" />
    <glyph glyph-name="two" unicode="2" horiz-adv-x="698" 
d="M310 412h-194q5 81 52.5 140t117 86t150.5 27q123 0 180.5 -46t57.5 -123q0 -55 -27.5 -99.5t-72 -75t-91 -53.5t-95 -49t-72.5 -49h307l-29 -170h-571l13 75q17 98 89.5 166t207.5 134q61 30 83 46.5t22 38.5q0 34 -44 34q-22 0 -47.5 -21t-36.5 -61z" />
    <glyph glyph-name="three" unicode="3" horiz-adv-x="698" 
d="M140 481l30 170h505l-27 -152l-161 -92q65 -12 103 -51.5t38 -98.5q0 -124 -93.5 -196t-246.5 -72q-63 0 -114 13.5t-88 49.5t-37 91q0 39 21 95h195q-1 -6 -1 -16q0 -64 64 -64q30 0 51.5 20.5t21.5 48.5q0 30 -27.5 47t-74.5 17q-20 0 -50 -5l-30 115l136 80h-215z" />
    <glyph glyph-name="four" unicode="4" horiz-adv-x="698" 
d="M417 651h219l-63 -360h93l-30 -170h-93l-21 -121h-219l21 121h-282l26 151zM265 291h89l21 120z" />
    <glyph glyph-name="five" unicode="5" horiz-adv-x="698" 
d="M294 -12q-64 0 -115 13.5t-88 49.5t-37 91q0 37 21 95h196q-1 -6 -1 -16q0 -63 56 -63q45 0 64 26.5t19 53.5q0 35 -25.5 51t-65.5 16q-43 0 -94 -23l-109 68l106 300h448l-30 -169h-278l-18 -42q29 3 58 3q109 0 170 -43t61 -133q0 -126 -93 -202t-245 -76z" />
    <glyph glyph-name="six" unicode="6" horiz-adv-x="698" 
d="M444 665q112 0 173 -37.5t61 -102.5q0 -29 -13 -65h-198q-4 43 -56 43q-31 0 -55 -22t-35 -61q42 18 98 18q231 0 231 -178q0 -121 -88.5 -196t-243.5 -75q-119 0 -185 61t-66 169q0 82 22.5 159t66.5 142.5t118.5 105t169.5 39.5zM365 279q-30 0 -51.5 -21.5
t-21.5 -50.5q0 -43 52 -43q38 0 57.5 21t19.5 48q0 46 -56 46z" />
    <glyph glyph-name="seven" unicode="7" horiz-adv-x="698" 
d="M336 0h-226l317 480h-280l30 171h520l-24 -139z" />
    <glyph glyph-name="eight" unicode="8" horiz-adv-x="698" 
d="M428 665q44 0 84 -8t77 -26t59.5 -52.5t22.5 -81.5q0 -12 -2.5 -25t-11 -36.5t-32 -46t-58.5 -38.5q79 -38 79 -121q0 -99 -91 -170.5t-247 -71.5q-120 0 -189 46t-69 128q0 15 3.5 32.5t14.5 47.5t40 59t72 48q-58 30 -58 100q0 30 16.5 64.5t49.5 70t96 58.5t144 23z
M365 273q-40 -6 -63 -27t-23 -46q0 -21 17.5 -32t42.5 -11q37 0 58.5 18t21.5 43q0 40 -54 55zM401 496q-25 0 -39.5 -13t-14.5 -30q0 -14 11.5 -25t33.5 -13q22 4 36.5 19.5t14.5 30.5q0 13 -10.5 22t-31.5 9z" />
    <glyph glyph-name="nine" unicode="9" horiz-adv-x="698" 
d="M284 -11q-112 0 -173.5 37.5t-61.5 101.5q0 34 14 66h198q3 -43 55 -43q31 0 55.5 22t34.5 61q-43 -18 -98 -18q-113 0 -172 44t-59 128q0 123 87 200t241 77q118 0 183 -66t65 -189q0 -91 -20.5 -165t-63.5 -132.5t-115.5 -91t-169.5 -32.5zM358 375q36 0 53.5 21.5
t17.5 48.5q0 21 -13.5 33t-37.5 12q-37 0 -56.5 -20.5t-19.5 -49.5q0 -45 56 -45z" />
    <glyph glyph-name="colon" unicode=":" horiz-adv-x="300" 
d="M146 214q41 0 67.5 -27t26.5 -68q0 -55 -39 -94.5t-95 -39.5q-40 0 -66 26.5t-26 66.5q0 55 40.5 95.5t91.5 40.5zM194 487q41 0 67.5 -27t26.5 -68q0 -53 -41 -93.5t-93 -40.5q-40 0 -66 26.5t-26 66.5q0 55 40.5 95.5t91.5 40.5z" />
    <glyph glyph-name="semicolon" unicode=";" horiz-adv-x="300" 
d="M194 487q41 0 67.5 -27t26.5 -68q0 -53 -41 -93.5t-93 -40.5q-40 0 -66 26.5t-26 66.5q0 55 40.5 95.5t91.5 40.5zM147 207q44 0 70 -26.5t26 -67.5q0 -43 -31 -89l-168 -243l-58 22l81 174q-56 24 -56 87q0 59 39.5 101t96.5 42z" />
    <glyph glyph-name="less" unicode="&#x3c;" horiz-adv-x="698" 
d="M111 227l26 152l512 201l-29 -168l-335 -116l294 -116l-29 -158z" />
    <glyph glyph-name="equal" unicode="=" horiz-adv-x="698" 
d="M605 326h-477l25 140h477zM570 129h-477l25 139h477z" />
    <glyph glyph-name="greater" unicode="&#x3e;" horiz-adv-x="698" 
d="M613 379l-26 -152l-513 -205l29 169l336 116l-295 116l29 157z" />
    <glyph glyph-name="question" unicode="?" horiz-adv-x="645" 
d="M424 721q113 0 175.5 -39t62.5 -115q0 -44 -22 -81t-55.5 -64.5t-68 -53.5t-65 -60t-41.5 -73h-202q9 51 32 92.5t49 66t51 45t41.5 39.5t16.5 39q0 28 -35 28q-51 0 -70 -79h-210q11 128 104.5 191.5t236.5 63.5zM304 208q41 0 67 -26.5t26 -67.5q0 -54 -37.5 -93
t-95.5 -39q-39 0 -64.5 26.5t-25.5 65.5q0 53 40 93.5t90 40.5z" />
    <glyph glyph-name="at" unicode="@" horiz-adv-x="990" 
d="M395 106q-130 0 -130 144q0 46 11.5 92.5t35 89.5t66 70t97.5 27q80 0 109 -57h4q6 27 21 43h152l-46 -264q-2 -8 -2 -12q0 -14 21 -14q35 0 62 49t27 135q0 96 -58.5 153t-177.5 57q-167 0 -275.5 -111t-108.5 -264q0 -107 63.5 -171t187.5 -64q99 0 184 27l20 -113
q-94 -47 -229 -47q-187 0 -281.5 95t-94.5 256q0 224 154 374t392 150q176 0 272.5 -87t96.5 -240q0 -155 -81.5 -241.5t-213.5 -86.5q-48 0 -85.5 23t-40.5 68h-5q-27 -41 -69 -61t-78 -20zM488 236q29 0 48.5 36.5t19.5 85.5q0 46 -36 46q-28 0 -49.5 -32.5t-21.5 -85.5
q0 -50 39 -50z" />
    <glyph glyph-name="A" unicode="A" horiz-adv-x="760" 
d="M477 0l-12 124h-202l-54 -124h-244l349 684h309l92 -684h-238zM370 354l-35 -73h119l-4 53q-10 116 -5 173h-9q-23 -58 -66 -153z" />
    <glyph glyph-name="B" unicode="B" horiz-adv-x="680" 
d="M360 277h-66l-18 -103h65q35 0 53.5 19.5t18.5 42.5q0 41 -53 41zM382 510h-47l-15 -88h46q32 0 47.5 16.5t15.5 38.5q0 33 -47 33zM499 684q83 0 131.5 -35t48.5 -107q0 -25 -9 -55.5t-40 -66t-79 -51.5l-1 -6q54 -12 80 -54t26 -88q0 -97 -68.5 -159t-179.5 -62h-400
l120 684h371z" />
    <glyph glyph-name="C" unicode="C" horiz-adv-x="727" 
d="M464 270h234q0 -2 -4 -42q-12 -65 -46.5 -113t-84.5 -75t-104.5 -39.5t-115.5 -12.5q-292 0 -292 264q0 110 34.5 197.5t92.5 140.5t129.5 81t149.5 28q129 0 201.5 -54t72.5 -147q0 -43 -15 -84h-229q1 7 1 21q0 38 -17 59t-44 21q-42 0 -73 -45.5t-43 -100.5t-12 -106
q0 -91 67 -91q73 0 98 98z" />
    <glyph glyph-name="D" unicode="D" horiz-adv-x="717" 
d="M279 177h15q25 0 51 11.5t51 35t41 65.5t16 96q0 67 -34 95t-78 28h-4zM8 0l120 684h277q62 0 113.5 -14t95 -44.5t67.5 -85.5t24 -131q0 -187 -116.5 -298t-292.5 -111h-288z" />
    <glyph glyph-name="E" unicode="E" horiz-adv-x="633" 
d="M8 0l120 684h533l-31 -177h-294l-12 -69h259l-30 -170h-259l-16 -91h330l-31 -177h-569z" />
    <glyph glyph-name="F" unicode="F" horiz-adv-x="618" 
d="M8 0l120 684h546l-31 -178h-307l-15 -85h261l-30 -170h-261l-44 -251h-239z" />
    <glyph glyph-name="G" unicode="G" horiz-adv-x="738" 
d="M427 515q-43 0 -74 -48t-42.5 -103.5t-11.5 -105.5q0 -45 17 -66.5t57 -21.5q32 0 55.5 17.5t27.5 39.5h-58l24 136h299l-16 -98q-46 -277 -362 -277q-293 0 -293 254q0 131 46 233t141 163t226 61q128 0 197.5 -53.5t69.5 -145.5q0 -43 -12 -70h-228q1 7 1 19
q0 66 -64 66z" />
    <glyph glyph-name="H" unicode="H" horiz-adv-x="760" 
d="M433 0l46 261h-185l-46 -261h-240l120 683h240l-44 -248h185l44 248h238l-120 -683h-238z" />
    <glyph glyph-name="I" unicode="I" horiz-adv-x="355" 
d="M18 0l120 683h239l-120 -683h-239z" />
    <glyph glyph-name="J" unicode="J" horiz-adv-x="685" 
d="M280 -12q-133 0 -206.5 44.5t-73.5 132.5q0 50 17 90h209q-1 -5 -1 -15q0 -73 73 -73q39 0 64 21t33.5 45.5t15.5 62.5l68 387h237l-74 -421q-11 -59 -32.5 -105t-62 -86t-108 -61.5t-159.5 -21.5z" />
    <glyph glyph-name="K" unicode="K" horiz-adv-x="735" 
d="M367 683l-43 -241h25l195 241h263l-277 -324l168 -359h-255l-116 269h-33l-47 -269h-239l120 683h239z" />
    <glyph glyph-name="L" unicode="L" horiz-adv-x="599" 
d="M8 0l120 683h239l-89 -506h305l-31 -177h-544z" />
    <glyph glyph-name="M" unicode="M" horiz-adv-x="926" 
d="M662 297h-6q-24 -43 -64 -101l-87 -127h-140l-39 124q-11 35 -24 94h-7l-59 -287h-228l145 684h230l58 -201q1 -3 16 -51t22 -78h9q19 35 79 127l131 203h244l-94 -684h-239z" />
    <glyph glyph-name="N" unicode="N" horiz-adv-x="766" 
d="M505 372h9l53 312h231l-121 -684h-209l-95 188q-34 66 -67 146l-7 -1l-58 -333h-233l121 684h221l82 -164q57 -109 73 -148z" />
    <glyph glyph-name="O" unicode="O" horiz-adv-x="791" 
d="M478 699q150 0 224.5 -76t74.5 -207q0 -187 -114 -307.5t-312 -120.5q-152 0 -226.5 70t-74.5 194q0 196 115.5 321.5t312.5 125.5zM446 518q-35 0 -62.5 -20.5t-42.5 -49.5t-25 -65.5t-13.5 -64.5t-3.5 -51q0 -100 84 -100q68 0 106.5 74.5t38.5 172.5q0 104 -82 104z
" />
    <glyph glyph-name="P" unicode="P" horiz-adv-x="647" 
d="M360 218h-76l-38 -218h-238l120 684h314q118 0 174.5 -52t56.5 -140q0 -45 -16 -89.5t-50 -87.5t-98 -70t-149 -27zM369 507h-33l-22 -123h33q26 0 50.5 19t24.5 56q0 23 -15.5 35.5t-37.5 12.5z" />
    <glyph glyph-name="Q" unicode="Q" horiz-adv-x="791" 
d="M478 699q148 0 224 -75.5t76 -204.5q0 -124 -59 -226t-155 -154q79 -29 126 -41l-84 -153q-79 22 -164 63t-136 82q-129 10 -191.5 79.5t-62.5 186.5q0 195 115 319t311 124zM446 518q-35 0 -62.5 -20.5t-42.5 -49.5t-25 -65.5t-13.5 -64.5t-3.5 -51q0 -100 84 -100
q68 0 106.5 74.5t38.5 172.5q0 104 -82 104z" />
    <glyph glyph-name="R" unicode="R" horiz-adv-x="684" 
d="M456 684q116 0 172 -47t56 -131q0 -68 -36.5 -129t-114.5 -91l106 -286h-254l-80 247h-14l-43 -247h-240l120 684h328zM387 507h-51l-19 -106h51q25 0 44.5 17.5t19.5 46.5q0 20 -13 31t-32 11z" />
    <glyph glyph-name="S" unicode="S" horiz-adv-x="685" 
d="M424 699q110 0 182.5 -44t72.5 -128q0 -38 -14 -75h-206q2 14 2 20q0 52 -61 52q-25 0 -40 -13t-17.5 -22.5t-2.5 -14.5q0 -25 51 -35q138 -26 198 -74.5t60 -126.5q0 -110 -88 -180t-269 -70q-118 0 -192 45t-74 135q0 48 15 81h201q-1 -5 -1 -15q0 -71 84 -71
q38 0 57 18.5t19 37.5q0 17 -18.5 28.5t-67.5 21.5q-115 23 -170 61t-55 117q0 41 17 82.5t53 81t104.5 64t159.5 24.5z" />
    <glyph glyph-name="T" unicode="T" horiz-adv-x="620" 
d="M477 506l-89 -506h-239l89 506h-181l31 177h604l-31 -177h-184z" />
    <glyph glyph-name="U" unicode="U" horiz-adv-x="759" 
d="M790 683l-70 -399q-24 -134 -118 -214.5t-255 -80.5q-149 0 -223 58t-74 164q0 25 7 67l71 405h238l-72 -407q-3 -18 -3 -33q0 -77 75 -77q94 0 114 111l72 406h238z" />
    <glyph glyph-name="V" unicode="V" horiz-adv-x="758" 
d="M361 185h11q31 94 72 190l131 308h258l-341 -687h-312l-95 687h252l21 -303q6 -87 3 -195z" />
    <glyph glyph-name="W" unicode="W" horiz-adv-x="1062" 
d="M563 402h-6q-19 -59 -68 -188l-83 -218h-283l-38 687h257l-5 -222q-1 -78 -10 -194h8q18 55 74 197l86 219h246l-2 -205v-111.5t-1 -91.5h8q9 33 65 201l69 207h257l-280 -687h-283l-8 216q-1 22 -3.5 74.5t-2 58t2.5 57.5z" />
    <glyph glyph-name="X" unicode="X" horiz-adv-x="729" 
d="M366 198l-133 -198h-268l287 354l-145 329h251l54 -182l119 182h270l-275 -329l159 -354h-248z" />
    <glyph glyph-name="Y" unicode="Y" horiz-adv-x="707" 
d="M380 405h10q21 48 67 131l82 147h243l-307 -458l-39 -225h-237l36 208l-150 475h245l31 -153q17 -80 19 -125z" />
    <glyph glyph-name="Z" unicode="Z" horiz-adv-x="654" 
d="M312 177h318l-31 -177h-624l28 161l355 349h-265l31 174h579l-27 -153z" />
    <glyph glyph-name="bracketleft" unicode="[" horiz-adv-x="363" 
d="M-15 -131l149 850h286l-23 -130h-86l-103 -589h86l-24 -131h-285z" />
    <glyph glyph-name="backslash" unicode="\" horiz-adv-x="621" 
d="M572 -44h-189l-296 762h189z" />
    <glyph glyph-name="bracketright" unicode="]" horiz-adv-x="363" 
d="M400 719l-151 -850h-284l24 131h84l103 589h-84l23 130h285z" />
    <glyph glyph-name="asciicircum" unicode="^" horiz-adv-x="658" 
d="M321 683h180l115 -452h-170l-62 285l-163 -285h-179z" />
    <glyph glyph-name="underscore" unicode="_" horiz-adv-x="485" 
d="M-72 -185l23 130h484l-23 -130h-484z" />
    <glyph glyph-name="grave" unicode="`" horiz-adv-x="646" 
d="M502 641l-82 -94l-215 133l111 137z" />
    <glyph glyph-name="a" unicode="a" horiz-adv-x="646" 
d="M303 143q37 0 61.5 45.5t24.5 106.5q0 58 -45 58q-36 0 -63 -41t-27 -106q0 -63 49 -63zM288 509q100 0 136 -70h5q7 30 25 53h199l-86 -492h-199q-9 31 -3 67h-5q-70 -79 -173 -79q-162 0 -162 172q0 58 14.5 116t43.5 112t82.5 87.5t122.5 33.5z" />
    <glyph glyph-name="b" unicode="b" horiz-adv-x="646" 
d="M231 72h-5q-11 -46 -28 -72h-199l127 721h227l-29 -164q-15 -86 -33 -123h6q69 75 167 75q162 0 162 -186q0 -43 -8.5 -87t-28.5 -89t-49 -80t-75 -57t-101 -22q-51 0 -86.5 24t-46.5 60zM312 144q34 0 60.5 41.5t26.5 103.5q0 65 -49 65q-30 0 -51.5 -29.5t-29 -62.5
t-7.5 -63q0 -55 50 -55z" />
    <glyph glyph-name="c" unicode="c" horiz-adv-x="582" 
d="M354 509q103 0 160 -39.5t57 -107.5q0 -33 -11 -62h-184q0 50 -42 50t-63.5 -48t-21.5 -99q0 -56 48 -56q45 0 63 48h188q0 -54 -25 -95.5t-66.5 -65t-88.5 -35t-97 -11.5q-246 0 -246 189q0 82 28 147.5t75 104.5t105 59.5t121 20.5z" />
    <glyph glyph-name="d" unicode="d" horiz-adv-x="645" 
d="M366 75h-5q-66 -86 -173 -86q-86 0 -125 45.5t-39 122.5q0 93 27.5 170.5t90 129t150.5 51.5q90 0 125 -45h5l46 258h225l-127 -721h-195q-8 12 -8 42q0 16 3 33zM302 144q23 0 41 16t27.5 40.5t14 47.5t4.5 42q0 64 -47 64q-36 0 -62 -42t-26 -103q0 -65 48 -65z" />
    <glyph glyph-name="e" unicode="e" horiz-adv-x="595" 
d="M247 200q-5 -26 8 -43t40 -17q51 0 65 39h187q1 -7 1 -24q0 -81 -72.5 -124t-199.5 -43q-250 0 -250 196q0 148 90 237t241 89q95 0 151.5 -38t56.5 -103q0 -78 -70.5 -123t-247.5 -46zM326 371q-55 0 -65 -64h11q85 0 85 39q0 25 -31 25z" />
    <glyph glyph-name="f" unicode="f" horiz-adv-x="425" 
d="M232 -189h-220l91 531h-74l23 129l77 19l12 67q17 94 70.5 138t159.5 44q85 0 141 -15l-29 -163q-30 3 -52 3q-67 0 -77 -51l-4 -21h111l-26 -150h-111z" />
    <glyph glyph-name="g" unicode="g" horiz-adv-x="646" 
d="M285 509q51 0 88 -26t48 -63h5q8 41 28 72h199l-72 -410q-7 -42 -17 -76t-35 -80t-58.5 -77t-91 -53t-130.5 -22q-132 0 -203 38.5t-71 108.5q0 35 19 78h195q-1 -38 18.5 -52t49.5 -14q67 0 89 92q12 49 17 61l-4 3q-68 -68 -167 -68q-163 0 -163 179q0 135 63.5 222
t192.5 87zM341 353q-32 0 -57.5 -33.5t-25.5 -81.5q0 -62 49 -62q43 0 63 38.5t20 79.5q0 59 -49 59z" />
    <glyph glyph-name="h" unicode="h" horiz-adv-x="626" 
d="M276 408h6q40 52 91 75.5t91 23.5q174 0 141 -187l-56 -320h-225l49 278q12 67 -37 67q-51 0 -65 -84l-46 -261h-226l127 721h220l-28 -159q-16 -93 -42 -154z" />
    <glyph glyph-name="i" unicode="i" horiz-adv-x="316" 
d="M6 0l86 492h225l-86 -492h-225zM252 757q40 0 66 -26.5t26 -66.5q0 -52 -41 -92t-91 -40q-40 0 -65.5 26t-25.5 66q0 52 40.5 92.5t90.5 40.5z" />
    <glyph glyph-name="j" unicode="j" horiz-adv-x="334" 
d="M108 492h225l-98 -556q-29 -162 -206 -162q-51 0 -113 13l22 169q46 0 63.5 14t23.5 48zM268 757q40 0 66 -26.5t26 -66.5q0 -52 -41 -92t-91 -40q-40 0 -65.5 26t-25.5 66q0 52 40.5 92.5t90.5 40.5z" />
    <glyph glyph-name="k" unicode="k" horiz-adv-x="628" 
d="M257 181l-31 -181h-227l127 721h227l-66 -375h22l114 146h245l-198 -228l115 -264h-233l-68 181h-27z" />
    <glyph glyph-name="l" unicode="l" horiz-adv-x="329" 
d="M29 161l100 560h225l-89 -502q-3 -15 -3 -27q0 -27 40 -28l-26 -172q-47 -5 -87 -5q-165 0 -165 126q0 18 5 48z" />
    <glyph glyph-name="m" unicode="m" horiz-adv-x="922" 
d="M290 414h6q72 95 166 95q121 0 134 -101q39 54 88 77.5t89 23.5q87 0 116.5 -48t12.5 -141l-56 -320h-225l50 286q10 59 -31 59q-45 0 -58 -78l-47 -267h-225l50 286q10 59 -31 59q-44 0 -57 -78l-47 -267h-226l86 492h200q14 -29 5 -78z" />
    <glyph glyph-name="n" unicode="n" horiz-adv-x="626" 
d="M290 414h6q72 95 168 95q174 0 141 -187l-56 -322h-225l49 278q12 67 -37 67q-51 0 -65 -84l-46 -261h-226l86 492h200q14 -29 5 -78z" />
    <glyph glyph-name="o" unicode="o" horiz-adv-x="636" 
d="M362 509q70 0 121 -18.5t78 -50.5t39 -69t12 -81q0 -40 -9 -79t-33 -80t-60.5 -72t-96 -51t-135.5 -20q-251 0 -251 201q0 138 85 229t250 91zM338 350q-41 0 -64.5 -44.5t-23.5 -98.5q0 -60 51 -60q39 0 63.5 40t24.5 102q0 61 -51 61z" />
    <glyph glyph-name="p" unicode="p" horiz-adv-x="645" 
d="M285 417h5q65 92 175 92q81 0 120.5 -49t39.5 -133q0 -142 -68.5 -241t-197.5 -99q-90 0 -125 45h-5l-44 -251h-225l125 711h195q8 -14 8 -42q0 -18 -3 -33zM346 347q-31 0 -52 -29.5t-28 -63t-7 -64.5q0 -21 12 -35t38 -14q37 0 61.5 40t24.5 98q0 68 -49 68z" />
    <glyph glyph-name="q" unicode="q" horiz-adv-x="646" 
d="M421 420h5q8 41 28 72h199l-125 -710h-227l28 158q16 91 33 123h-6q-67 -75 -168 -75q-163 0 -163 179q0 87 25.5 162t86.5 127.5t148 52.5q51 0 88 -26t48 -63zM341 353q-34 0 -60.5 -39.5t-26.5 -108.5q0 -62 49 -62q30 0 51 27.5t28.5 59.5t7.5 64q0 59 -49 59z" />
    <glyph glyph-name="r" unicode="r" horiz-adv-x="443" 
d="M480 510l-30 -213q-104 -4 -144 -32.5t-52 -94.5l-29 -170h-226l86 492h200q14 -32 1 -111h5q33 60 85.5 94t103.5 35z" />
    <glyph glyph-name="s" unicode="s" horiz-adv-x="554" 
d="M228 -12q-99 0 -159.5 33t-60.5 100q0 28 10 51h185q0 -2 -0.5 -4t-0.5 -3q0 -41 50 -41q15 0 28 7.5t13 19.5q0 13 -25 23t-60 20.5t-70.5 25t-60.5 42.5t-25 67q0 29 12 57t40 57.5t86 48t139 18.5q89 0 148.5 -33.5t59.5 -95.5q0 -27 -10 -49h-184v7q0 37 -41 37
q-16 0 -26 -7.5t-10 -17.5q0 -13 25.5 -22.5t62 -19t73 -23.5t62 -45.5t25.5 -76.5q0 -83 -73 -129.5t-213 -46.5z" />
    <glyph glyph-name="t" unicode="t" horiz-adv-x="447" 
d="M422 342h-102l-17 -95q-8 -45 4.5 -60t54.5 -15q17 0 41 3l-30 -173q-52 -13 -140 -13q-201 0 -168 183l30 170h-65l23 131l76 18l67 154h176l-27 -154h103z" />
    <glyph glyph-name="u" unicode="u" horiz-adv-x="616" 
d="M332 75h-6q-67 -87 -170 -87q-87 0 -116 47t-13 140l56 317h225l-50 -283q-12 -67 32 -67q46 0 60 84l47 266h226l-86 -492h-199q-13 23 -6 75z" />
    <glyph glyph-name="v" unicode="v" horiz-adv-x="659" 
d="M311 160h11l53 127q36 88 59 204h246q-10 -57 -27 -99t-58 -120l-145 -274h-313l-85 494h233l20 -176q6 -54 6 -156z" />
    <glyph glyph-name="w" unicode="w" horiz-adv-x="925" 
d="M639 200h5l41 105q17 43 27 77.5t13.5 53t9.5 56.5h222q-10 -77 -21 -117t-46 -106l-142 -273h-260l-9 123q-7 91 -7 133h-8q-20 -64 -46 -130l-49 -126h-262l-67 496h223l8 -145q4 -89 5 -147h5q23 77 41 126l38 104h265l9 -115q4 -54 5 -115z" />
    <glyph glyph-name="x" unicode="x" horiz-adv-x="616" 
d="M299 134h-5l-89 -134h-240l206 257l-109 235h229l36 -118h6l83 118h238l-195 -234l115 -258h-225z" />
    <glyph glyph-name="y" unicode="y" horiz-adv-x="636" 
d="M338 -205h-224l110 206l-85 -2l-101 493h234l14 -161q11 -111 4 -194h6l69 159q36 82 56 195h227q-1 -8 -5 -32.5t-5.5 -31.5t-5.5 -27t-7.5 -30t-9.5 -27.5t-13.5 -34t-17.5 -35.5z" />
    <glyph glyph-name="z" unicode="z" horiz-adv-x="532" 
d="M307 162l1 -4h186l-27 -158h-488l20 116l218 213l-1 4h-159l28 159h458l-20 -113z" />
    <glyph glyph-name="braceleft" unicode="{" horiz-adv-x="367" 
d="M293 -134h-116q-85 0 -112 52t-12 131l22 115q15 74 -61 83l20 111q29 2 56 24t33 57l21 123q14 76 53.5 117t129.5 41h105l-23 -135h-19q-34 0 -47 -17t-19 -48l-19 -115q-7 -38 -34 -62.5t-65 -30.5l-1 -4q78 -19 62 -112l-20 -115q-7 -41 2 -61t41 -20h27z" />
    <glyph glyph-name="bar" unicode="|" horiz-adv-x="344" 
d="M70 -106v822h204v-822h-204z" />
    <glyph glyph-name="braceright" unicode="}" horiz-adv-x="367" 
d="M94 720h116q85 0 112 -52t12 -131l-20 -100q-15 -74 61 -83l-20 -111q-29 -2 -56 -24t-33 -57l-23 -138q-14 -76 -53.5 -117t-129.5 -41h-105l23 135h19q34 0 48 22.5t20 57.5l19 115q7 38 34 62.5t65 30.5l1 4q-78 19 -62 112l18 100q7 41 -2 61t-41 20h-27z" />
    <glyph glyph-name="asciitilde" unicode="~" horiz-adv-x="698" 
d="M452 190q-40 0 -100 24.5t-96 24.5t-105 -58l-66 72q37 62 85.5 98.5t92.5 36.5q38 0 103 -23t105 -23q39 0 87 52l77 -70q-35 -61 -85 -97.5t-98 -36.5z" />
    <glyph glyph-name="exclamdown" unicode="&#xa1;" horiz-adv-x="355" 
d="M219 -211h-237l100 449h194zM228 505q41 0 67 -26.5t26 -65.5q0 -53 -40.5 -93.5t-92.5 -40.5q-39 0 -64.5 26.5t-25.5 66.5q0 52 40 92.5t90 40.5z" />
    <glyph glyph-name="cent" unicode="&#xa2;" horiz-adv-x="698" 
d="M384 577l26 145h78l-26 -145q83 -7 127.5 -45.5t44.5 -97.5q0 -28 -9 -59h-181q-3 48 -39 48q-41 0 -60.5 -42t-19.5 -90q0 -51 47 -51q41 0 58 46h185q0 -63 -37.5 -109t-89 -66.5t-113.5 -25.5l-26 -152h-78l27 153q-190 15 -190 192q0 140 77 213t199 86z" />
    <glyph glyph-name="sterling" unicode="&#xa3;" horiz-adv-x="698" 
d="M32 0l29 170h60q31 46 31 102h-69l22 124h40q0 130 82 200t219 70q105 0 169 -39t64 -119q0 -30 -12 -71h-196q0 27 -13 42t-35 15q-73 0 -73 -98h162l-22 -124h-135q-5 -63 -26 -102h295l-29 -170h-563z" />
    <glyph glyph-name="currency" unicode="&#xa4;" horiz-adv-x="720" 
d="M275 305q0 -36 25.5 -61.5t61.5 -25.5q37 0 63 25t26 62t-25.5 63t-63.5 26q-36 0 -61.5 -26t-25.5 -63zM169 406l-66 67l91 93l66 -66q48 24 103 24q59 0 105 -26l64 68l92 -93l-66 -66q24 -48 24 -102q0 -48 -25 -102l67 -64l-92 -93l-66 66q-46 -25 -103 -25t-103 25
l-66 -66l-91 93l66 65q-24 44 -24 101q0 53 24 101z" />
    <glyph glyph-name="yen" unicode="&#xa5;" horiz-adv-x="698" 
d="M96 252h515l-13 -74h-139l-31 -178h-231l31 178h-145zM617 287h-515l13 74h57l-89 289h234l32 -149q14 -65 16 -128h9q32 71 67 134l80 143h241l-192 -289h60z" />
    <glyph glyph-name="brokenbar" unicode="&#xa6;" horiz-adv-x="344" 
d="M274 376h-204v340h204v-340zM70 294h204v-400h-204v400z" />
    <glyph glyph-name="section" unicode="&#xa7;" horiz-adv-x="585" 
d="M254 305q-1 -2 -1 -6q0 -38 86 -53q24 18 24 35q0 35 -82 56q-24 -15 -27 -32zM229 -133q-97 0 -156 39.5t-59 104.5q0 40 19 71h180q-1 -5 -1 -13q0 -26 14.5 -36.5t28.5 -10.5q26 0 39.5 11.5t13.5 23.5q0 17 -25.5 31t-62 27.5t-73.5 31t-62.5 49.5t-25.5 75
q0 38 18.5 75.5t58.5 61.5q-30 28 -30 84q0 33 14 67.5t43.5 68t84.5 54.5t128 21q101 0 157 -37t56 -103q0 -45 -17 -74h-181q1 5 1 14q0 21 -11 33.5t-31 12.5q-18 0 -31 -11t-13 -26q0 -23 51 -33q90 -19 146 -61t56 -109q0 -32 -19 -72.5t-60 -65.5q45 -38 45 -99
q0 -36 -17.5 -71t-51.5 -65.5t-93 -49.5t-134 -19z" />
    <glyph glyph-name="dieresis" unicode="&#xa8;" horiz-adv-x="571" 
d="M256 748q33 0 54 -22t21 -55q0 -43 -33 -75.5t-74 -32.5q-33 0 -54 21.5t-21 53.5q0 43 33 76.5t74 33.5zM483 748q33 0 54 -22t21 -55q0 -43 -33 -75.5t-74 -32.5q-33 0 -54 21.5t-21 53.5q0 43 33 76.5t74 33.5z" />
    <glyph glyph-name="copyright" unicode="&#xa9;" horiz-adv-x="888" 
d="M445 -48q-175 0 -280 110.5t-105 284.5q0 170 112 280.5t273 110.5q160 0 271.5 -110.5t111.5 -280.5t-111.5 -282.5t-271.5 -112.5zM445 641q-120 0 -200 -86t-80 -208q0 -127 77 -212.5t203 -85.5q124 0 200 86t76 212q0 123 -77 208.5t-199 85.5zM445 572
q88 0 137.5 -42.5t49.5 -113.5q0 -14 -2 -26h-141q-6 43 -38 43q-45 0 -45 -89q0 -43 8 -65.5t36 -22.5q34 0 41 41h144q2 -8 2 -26q0 -80 -54.5 -116.5t-135.5 -36.5q-213 0 -213 222q0 112 60 172t151 60z" />
    <glyph glyph-name="ordfeminine" unicode="&#xaa;" horiz-adv-x="456" 
d="M247 384q24 0 34 27.5t10 57.5q0 26 -22 26q-18 0 -31.5 -21.5t-13.5 -57.5q0 -32 23 -32zM319 571h4q7 20 15 31h151l-58 -327h-151q-5 15 -5 33h-4q-43 -41 -106 -41q-117 0 -117 121q0 39 10 76t31 71.5t58.5 55.5t87.5 21q63 0 84 -41z" />
    <glyph glyph-name="guillemotleft" unicode="&#xab;" horiz-adv-x="644" 
d="M234 241l84 -174l-112 -74l-168 233l6 30l247 226l84 -71zM494 241l83 -174l-107 -76l-173 235l6 30l246 223l85 -68z" />
    <glyph glyph-name="logicalnot" unicode="&#xac;" horiz-adv-x="698" 
d="M613 376l-56 -311h-156l29 167h-319l26 144h476z" />
    <glyph glyph-name="sfthyphen" unicode="&#xad;" horiz-adv-x="457" 
d="M51 189l26 150h341l-26 -150h-341z" />
    <glyph glyph-name="registered" unicode="&#xae;" horiz-adv-x="590" 
d="M299 174q-116 0 -186 73.5t-70 189.5q0 113 74.5 186.5t181.5 73.5t180.5 -73.5t73.5 -186.5t-74 -188t-180 -75zM299 637q-82 0 -136.5 -59t-54.5 -141q0 -86 52.5 -144t138.5 -58q84 0 136 58.5t52 143.5q0 83 -53 141.5t-135 58.5zM316 577q105 0 105 -87
q0 -53 -43 -73l55 -113h-100l-44 98h-13v-98h-98v273h138zM296 506h-20v-42h20q9 0 16 6t7 15q0 21 -23 21z" />
    <glyph glyph-name="macron" unicode="&#xaf;" horiz-adv-x="569" 
d="M160 585l23 131h372l-23 -131h-372z" />
    <glyph glyph-name="degree" unicode="&#xb0;" horiz-adv-x="438" 
d="M210 379q-80 0 -126 47.5t-46 117.5q0 69 50 116.5t122 47.5q68 0 118 -47.5t50 -116.5q0 -67 -50 -116t-118 -49zM208 605q-26 0 -45.5 -18t-19.5 -43q0 -27 17.5 -46t47.5 -19q25 0 44 19.5t19 45.5q0 25 -18.5 43t-44.5 18z" />
    <glyph glyph-name="plusminus" unicode="&#xb1;" horiz-adv-x="698" 
d="M439 291l-23 -128h-156l23 128h-161l23 132h161l23 132h156l-23 -132h159l-23 -132h-159zM93 126h476l-24 -133h-476z" />
    <glyph glyph-name="twosuperior" unicode="&#xb2;" horiz-adv-x="461" 
d="M273 490l-1 -5h173l-21 -120h-381l10 54q11 62 58 104.5t135 82.5q35 16 46.5 24t11.5 17q0 12 -20 12q-32 0 -41 -34h-141q7 76 63.5 115.5t140.5 39.5q86 0 126.5 -28.5t40.5 -76.5q0 -33 -12.5 -58.5t-36 -43.5t-46 -30t-55.5 -27.5t-50 -25.5z" />
    <glyph glyph-name="threesuperior" unicode="&#xb3;" horiz-adv-x="461" 
d="M371 625l-1 -4q37 -7 58 -33.5t21 -62.5q0 -74 -62 -120.5t-160 -46.5q-64 0 -115 23t-51 71q0 28 13 54h139q0 -28 29 -28q20 0 31.5 12t11.5 29q0 31 -49 31q-24 0 -52 -7l-18 75l65 32v4h-117l21 118h338l-19 -106z" />
    <glyph glyph-name="acute" unicode="&#xb4;" horiz-adv-x="571" 
d="M315 537l-68 79l206 198l98 -115z" />
    <glyph glyph-name="mu" unicode="&#xb5;" horiz-adv-x="616" 
d="M-42 -219l125 711h225l-50 -283q-12 -67 32 -67q46 0 60 84l47 266h226l-86 -492h-199q-13 23 -6 75h-6q-43 -56 -104 -76l-38 -218h-226z" />
    <glyph glyph-name="mu" unicode="&#x3bc;" horiz-adv-x="616" 
d="M-42 -219l125 711h225l-50 -283q-12 -67 32 -67q46 0 60 84l47 266h226l-86 -492h-199q-13 23 -6 75h-6q-43 -56 -104 -76l-38 -218h-226z" />
    <glyph glyph-name="paragraph" unicode="&#xb6;" horiz-adv-x="613" 
d="M634 684l-118 -668q-8 -43 -24 -78.5t-44 -67.5t-74 -50t-106 -18q-30 0 -71 7l23 126q79 4 110.5 24.5t40.5 67.5l116 657h147zM358 206h-89q-95 0 -147 58t-52 148q0 121 82.5 196.5t200.5 75.5h89z" />
    <glyph glyph-name="periodcentered" unicode="&#xb7;" horiz-adv-x="308" 
d="M180 375q42 0 69.5 -28t27.5 -70q0 -56 -43 -98t-96 -42q-42 0 -69 27.5t-27 69.5q0 56 42 98.5t96 42.5z" />
    <glyph glyph-name="cedilla" unicode="&#xb8;" horiz-adv-x="570" 
d="M182 -299q-68 0 -129 23l31 76q35 -7 69 -7q76 0 76 42q0 25 -35 25q-22 0 -38 -8l-50 38l103 149l83 -7l-62 -88q77 0 108 -28t31 -69q0 -24 -10.5 -48t-31.5 -46.5t-59 -37t-86 -14.5z" />
    <glyph glyph-name="onesuperior" unicode="&#xb9;" horiz-adv-x="461" 
d="M446 485l-21 -120h-367l21 120h102l27 151q-13 -2 -43 -5.5t-44 -5.5l20 113l117 35h135l-51 -288h104z" />
    <glyph glyph-name="ordmasculine" unicode="&#xba;" horiz-adv-x="449" 
d="M288 616q96 0 137 -41t41 -104q0 -35 -12 -68.5t-38 -65t-74 -51t-112 -19.5q-95 0 -137 38t-42 99q0 84 59.5 148t177.5 64zM268 496q-21 0 -33 -24t-12 -53q0 -31 25 -31q18 0 30.5 20t12.5 55q0 33 -23 33z" />
    <glyph glyph-name="guillemotright" unicode="&#xbb;" horiz-adv-x="645" 
d="M10 67l145 174l-80 170l109 68l168 -223l-6 -30l-255 -235zM269 67l146 174l-81 170l108 71l169 -226l-6 -30l-250 -233z" />
    <glyph glyph-name="onequarter" unicode="&#xbc;" horiz-adv-x="989" 
d="M400 395l-21 -120h-367l21 120h102l27 151q-13 -2 -43 -5.5t-44 -5.5l20 113l117 35h135l-51 -288h104zM315 -28h-109l493 734h111zM727 407h150l-38 -215h59l-21 -120h-59l-12 -72h-155l12 72h-181l19 104zM632 192h52l11 63z" />
    <glyph glyph-name="onehalf" unicode="&#xbd;" horiz-adv-x="989" 
d="M382 395l-21 -120h-367l21 120h102l27 151q-13 -2 -43 -5.5t-44 -5.5l20 113l117 35h135l-51 -288h104zM293 -28h-109l493 734h111zM731 125l-1 -5h173l-21 -120h-381l10 54q11 62 58 104.5t135 82.5q35 16 46.5 24t11.5 17q0 12 -20 12q-32 0 -41 -34h-141
q7 76 63.5 115.5t140.5 39.5q86 0 126.5 -28.5t40.5 -76.5q0 -33 -12.5 -58.5t-36 -43.5t-46 -30t-55.5 -27.5t-50 -25.5z" />
    <glyph glyph-name="threequarters" unicode="&#xbe;" horiz-adv-x="989" 
d="M341 535l-1 -4q37 -7 58 -33.5t21 -62.5q0 -74 -62 -120.5t-160 -46.5q-64 0 -115 23t-51 71q0 28 13 54h139q0 -28 29 -28q20 0 31.5 12t11.5 29q0 31 -49 31q-24 0 -52 -7l-18 75l65 32v4h-117l21 118h338l-19 -106zM301 -28h-109l493 734h111zM725 407h150l-38 -215
h59l-21 -120h-59l-12 -72h-155l12 72h-181l19 104zM630 192h52l11 63z" />
    <glyph glyph-name="questiondown" unicode="&#xbf;" horiz-adv-x="645" 
d="M231 -235q-113 0 -175.5 39t-62.5 115q0 44 22 81t55.5 64.5t68 53.5t65 60t41.5 73h202q-9 -51 -32 -92.5t-49 -66t-51 -45t-41.5 -39.5t-16.5 -39q0 -28 35 -28q51 0 70 79h210q-11 -128 -104.5 -191.5t-236.5 -63.5zM393 504q39 0 65 -27t26 -67q0 -52 -40.5 -92
t-89.5 -40q-40 0 -66 26.5t-26 66.5q0 53 39.5 93t91.5 40z" />
    <glyph glyph-name="Agrave" unicode="&#xc0;" horiz-adv-x="760" 
d="M477 0l-12 124h-202l-54 -124h-244l349 684h309l92 -684h-238zM370 354l-35 -73h119l-4 53q-10 116 -5 173h-9q-23 -58 -66 -153zM590 829l-74 -95l-238 119l100 138z" />
    <glyph glyph-name="Aacute" unicode="&#xc1;" horiz-adv-x="760" 
d="M477 0l-12 124h-202l-54 -124h-244l349 684h309l92 -684h-238zM370 354l-35 -73h119l-4 53q-10 116 -5 173h-9q-23 -58 -66 -153zM431 724l-48 104l256 160l64 -148z" />
    <glyph glyph-name="Acircumflex" unicode="&#xc2;" horiz-adv-x="760" 
d="M477 0l-12 124h-202l-54 -124h-244l349 684h309l92 -684h-238zM370 354l-35 -73h119l-4 53q-10 116 -5 173h-9q-23 -58 -66 -153zM703 780l-61 -56l-154 105l-192 -105l-41 58l184 165h139z" />
    <glyph glyph-name="Atilde" unicode="&#xc3;" horiz-adv-x="760" 
d="M477 0l-12 124h-202l-54 -124h-244l349 684h309l92 -684h-238zM370 354l-35 -73h119l-4 53q-10 116 -5 173h-9q-23 -58 -66 -153zM528 754q-26 0 -72 17t-65 17q-52 0 -89 -39l-73 57q66 120 160 120q22 0 71.5 -18.5t73.5 -18.5q38 0 82 40l73 -50q-24 -57 -68.5 -91
t-92.5 -34z" />
    <glyph glyph-name="Adieresis" unicode="&#xc4;" horiz-adv-x="760" 
d="M477 0l-12 124h-202l-54 -124h-244l349 684h309l92 -684h-238zM370 354l-35 -73h119l-4 53q-10 116 -5 173h-9q-23 -58 -66 -153zM392 930q33 0 54 -22t21 -55q0 -43 -33 -75.5t-74 -32.5q-34 0 -55 21.5t-21 53.5q0 43 33 76.5t75 33.5zM619 930q33 0 54 -22t21 -55
q0 -43 -33 -75.5t-74 -32.5q-33 0 -54.5 21.5t-21.5 53.5q0 43 33 76.5t75 33.5z" />
    <glyph glyph-name="Aring" unicode="&#xc5;" horiz-adv-x="760" 
d="M505 923q55 0 88 -34t33 -86q0 -71 -53 -119h50l92 -684h-238l-12 124h-202l-54 -124h-244l349 684h43q-21 27 -21 68q0 69 48 120t121 51zM370 354l-35 -73h119l-4 53q-10 116 -5 173h-9q-23 -58 -66 -153zM487 825q-18 0 -34 -16.5t-16 -38.5q0 -15 9.5 -25t24.5 -10
q21 0 36 15.5t15 36.5q0 17 -9.5 27.5t-25.5 10.5z" />
    <glyph glyph-name="AE" unicode="&#xc6;" horiz-adv-x="1101" 
d="M535 0l14 128h-230l-84 -128h-255l481 684h637l-18 -178h-254l-9 -69h230l-19 -169h-230l-9 -91h277l-18 -177h-513zM593 512l-4 1l-153 -220h131z" />
    <glyph glyph-name="Ccedilla" unicode="&#xc7;" horiz-adv-x="727" 
d="M272 -309q-68 0 -129 23l31 76q35 -7 69 -7q76 0 76 42q0 25 -35 25q-22 0 -38 -8l-50 38l77 113q-222 29 -222 259q0 110 34.5 197.5t92.5 140.5t129.5 81t149.5 28q129 0 201.5 -54t72.5 -147q0 -43 -15 -84h-229q1 7 1 21q0 38 -17 59t-44 21q-42 0 -73 -45.5
t-43 -100.5t-12 -106q0 -91 67 -91q73 0 98 98h234q0 -2 -4 -42q-11 -63 -44 -110t-80.5 -74t-100 -40.5t-111.5 -15.5l-38 -54q77 0 108 -28t31 -69q0 -24 -10.5 -48t-31.5 -46.5t-59 -37t-86 -14.5z" />
    <glyph glyph-name="Egrave" unicode="&#xc8;" horiz-adv-x="633" 
d="M8 0l120 684h533l-31 -177h-294l-12 -69h259l-30 -170h-259l-16 -91h330l-31 -177h-569zM538 829l-74 -95l-238 119l100 138z" />
    <glyph glyph-name="Eacute" unicode="&#xc9;" horiz-adv-x="633" 
d="M8 0l120 684h533l-31 -177h-294l-12 -69h259l-30 -170h-259l-16 -91h330l-31 -177h-569zM326 724l-48 104l256 160l64 -148z" />
    <glyph glyph-name="Ecircumflex" unicode="&#xca;" horiz-adv-x="633" 
d="M8 0l120 684h533l-31 -177h-294l-12 -69h259l-30 -170h-259l-16 -91h330l-31 -177h-569zM643 779l-61 -56l-154 105l-192 -105l-41 58l184 165h139z" />
    <glyph glyph-name="Edieresis" unicode="&#xcb;" horiz-adv-x="633" 
d="M8 0l120 684h533l-31 -177h-294l-12 -69h259l-30 -170h-259l-16 -91h330l-31 -177h-569zM329 930q33 0 54 -22t21 -55q0 -43 -33 -75.5t-74 -32.5q-33 0 -54.5 21.5t-21.5 53.5q0 43 33 76.5t75 33.5zM556 930q33 0 54 -22t21 -55q0 -43 -33 -75.5t-74 -32.5
q-34 0 -55 21.5t-21 53.5q0 43 33 76.5t75 33.5z" />
    <glyph glyph-name="Igrave" unicode="&#xcc;" horiz-adv-x="355" 
d="M18 0l120 683h239l-120 -683h-239zM366 829l-74 -95l-238 119l100 138z" />
    <glyph glyph-name="Iacute" unicode="&#xcd;" horiz-adv-x="355" 
d="M18 0l120 683h239l-120 -683h-239zM198 724l-48 104l256 160l64 -148z" />
    <glyph glyph-name="Icircumflex" unicode="&#xce;" horiz-adv-x="355" 
d="M18 0l120 683h239l-120 -683h-239zM497 780l-61 -56l-154 105l-192 -105l-41 58l184 165h139z" />
    <glyph glyph-name="Idieresis" unicode="&#xcf;" horiz-adv-x="355" 
d="M18 0l120 683h239l-120 -683h-239zM183 930q33 0 54 -22t21 -55q0 -43 -33 -75.5t-74 -32.5q-33 0 -54.5 21.5t-21.5 53.5q0 43 33 76.5t75 33.5zM410 930q33 0 54 -22t21 -55q0 -43 -33 -75.5t-74 -32.5q-34 0 -55 21.5t-21 53.5q0 43 33 76.5t75 33.5z" />
    <glyph glyph-name="Eth" unicode="&#xd0;" horiz-adv-x="717" 
d="M79 403l49 281h277q62 0 113.5 -14t95 -44.5t67.5 -85.5t24 -131q0 -187 -116.5 -298t-292.5 -111h-288l50 287h-45l21 116h45zM279 177h15q25 0 51 11.5t51 35t41 65.5t16 96q0 67 -34 95t-78 28h-4l-19 -105h68l-21 -116h-67z" />
    <glyph glyph-name="Ntilde" unicode="&#xd1;" horiz-adv-x="766" 
d="M505 372h9l53 312h231l-121 -684h-209l-95 188q-34 66 -67 146l-7 -1l-58 -333h-233l121 684h221l82 -164q57 -109 73 -148zM564 756q-26 0 -72 17t-65 17q-52 0 -89 -39l-73 57q66 120 160 120q22 0 71.5 -18.5t73.5 -18.5q38 0 82 40l73 -50q-24 -57 -68.5 -91
t-92.5 -34z" />
    <glyph glyph-name="Ograve" unicode="&#xd2;" horiz-adv-x="791" 
d="M478 699q150 0 224.5 -76t74.5 -207q0 -187 -114 -307.5t-312 -120.5q-152 0 -226.5 70t-74.5 194q0 196 115.5 321.5t312.5 125.5zM446 518q-35 0 -62.5 -20.5t-42.5 -49.5t-25 -65.5t-13.5 -64.5t-3.5 -51q0 -100 84 -100q68 0 106.5 74.5t38.5 172.5q0 104 -82 104z
M595 829l-74 -95l-238 119l100 138z" />
    <glyph glyph-name="Oacute" unicode="&#xd3;" horiz-adv-x="791" 
d="M478 699q150 0 224.5 -76t74.5 -207q0 -187 -114 -307.5t-312 -120.5q-152 0 -226.5 70t-74.5 194q0 196 115.5 321.5t312.5 125.5zM446 518q-35 0 -62.5 -20.5t-42.5 -49.5t-25 -65.5t-13.5 -64.5t-3.5 -51q0 -100 84 -100q68 0 106.5 74.5t38.5 172.5q0 104 -82 104z
M457 724l-48 104l256 160l64 -148z" />
    <glyph glyph-name="Ocircumflex" unicode="&#xd4;" horiz-adv-x="791" 
d="M478 699q150 0 224.5 -76t74.5 -207q0 -187 -114 -307.5t-312 -120.5q-152 0 -226.5 70t-74.5 194q0 196 115.5 321.5t312.5 125.5zM446 518q-35 0 -62.5 -20.5t-42.5 -49.5t-25 -65.5t-13.5 -64.5t-3.5 -51q0 -100 84 -100q68 0 106.5 74.5t38.5 172.5q0 104 -82 104z
M720 780l-61 -56l-154 105l-192 -105l-41 58l184 165h139z" />
    <glyph glyph-name="Otilde" unicode="&#xd5;" horiz-adv-x="791" 
d="M478 699q150 0 224.5 -76t74.5 -207q0 -187 -114 -307.5t-312 -120.5q-152 0 -226.5 70t-74.5 194q0 196 115.5 321.5t312.5 125.5zM446 518q-35 0 -62.5 -20.5t-42.5 -49.5t-25 -65.5t-13.5 -64.5t-3.5 -51q0 -100 84 -100q68 0 106.5 74.5t38.5 172.5q0 104 -82 104z
M548 758q-26 0 -72 17t-65 17q-52 0 -89 -39l-73 57q66 120 160 120q22 0 71.5 -18.5t73.5 -18.5q38 0 82 40l73 -50q-24 -57 -68.5 -91t-92.5 -34z" />
    <glyph glyph-name="Odieresis" unicode="&#xd6;" horiz-adv-x="791" 
d="M478 699q150 0 224.5 -76t74.5 -207q0 -187 -114 -307.5t-312 -120.5q-152 0 -226.5 70t-74.5 194q0 196 115.5 321.5t312.5 125.5zM446 518q-35 0 -62.5 -20.5t-42.5 -49.5t-25 -65.5t-13.5 -64.5t-3.5 -51q0 -100 84 -100q68 0 106.5 74.5t38.5 172.5q0 104 -82 104z
M406 936q33 0 54 -22t21 -55q0 -43 -33 -75.5t-74 -32.5q-34 0 -55 21.5t-21 53.5q0 43 33 76.5t75 33.5zM633 936q33 0 54 -22t21 -55q0 -43 -33 -75.5t-74 -32.5q-33 0 -54.5 21.5t-21.5 53.5q0 43 33 76.5t75 33.5z" />
    <glyph glyph-name="multiply" unicode="&#xd7;" horiz-adv-x="698" 
d="M465 281l95 -121l-120 -105l-96 121l-137 -120l-87 113l137 120l-94 118l121 105l95 -118l135 118l86 -113z" />
    <glyph glyph-name="Oslash" unicode="&#xd8;" horiz-adv-x="791" 
d="M478 699q129 0 204 -58l57 53l46 -50l-56 -52q48 -70 48 -176q0 -187 -114 -307.5t-312 -120.5q-135 0 -211 56l-70 -65l-44 53l67 62q-43 62 -43 158q0 196 115.5 321.5t312.5 125.5zM383 167q66 0 104.5 70.5t40.5 167.5l-217 -202q19 -36 72 -36zM446 518
q-40 0 -69.5 -25t-45 -64t-23 -74t-9.5 -69l214 198q-21 34 -67 34z" />
    <glyph glyph-name="Ugrave" unicode="&#xd9;" horiz-adv-x="759" 
d="M790 683l-70 -399q-24 -134 -118 -214.5t-255 -80.5q-149 0 -223 58t-74 164q0 25 7 67l71 405h238l-72 -407q-3 -18 -3 -33q0 -77 75 -77q94 0 114 111l72 406h238zM578 829l-74 -95l-238 119l100 138z" />
    <glyph glyph-name="Uacute" unicode="&#xda;" horiz-adv-x="759" 
d="M790 683l-70 -399q-24 -134 -118 -214.5t-255 -80.5q-149 0 -223 58t-74 164q0 25 7 67l71 405h238l-72 -407q-3 -18 -3 -33q0 -77 75 -77q94 0 114 111l72 406h238zM401 724l-48 104l256 160l64 -148z" />
    <glyph glyph-name="Ucircumflex" unicode="&#xdb;" horiz-adv-x="759" 
d="M790 683l-70 -399q-24 -134 -118 -214.5t-255 -80.5q-149 0 -223 58t-74 164q0 25 7 67l71 405h238l-72 -407q-3 -18 -3 -33q0 -77 75 -77q94 0 114 111l72 406h238zM703 780l-61 -56l-154 105l-192 -105l-41 58l184 165h139z" />
    <glyph glyph-name="Udieresis" unicode="&#xdc;" horiz-adv-x="759" 
d="M790 683l-70 -399q-24 -134 -118 -214.5t-255 -80.5q-149 0 -223 58t-74 164q0 25 7 67l71 405h238l-72 -407q-3 -18 -3 -33q0 -77 75 -77q94 0 114 111l72 406h238zM389 931q33 0 54 -22t21 -55q0 -43 -33 -75.5t-74 -32.5q-33 0 -54.5 21t-21.5 54q0 43 33 76.5
t75 33.5zM616 931q33 0 54 -22t21 -55q0 -43 -33 -75.5t-74 -32.5q-34 0 -55 21t-21 54q0 43 33 76.5t75 33.5z" />
    <glyph glyph-name="Yacute" unicode="&#xdd;" horiz-adv-x="707" 
d="M380 405h10q21 48 67 131l82 147h243l-307 -458l-39 -225h-237l36 208l-150 475h245l31 -153q17 -80 19 -125zM405 724l-48 104l256 160l64 -148z" />
    <glyph glyph-name="Thorn" unicode="&#xde;" horiz-adv-x="647" 
d="M365 683l-19 -107h74q118 0 174.5 -52t56.5 -140q0 -45 -16 -89.5t-50 -87.5t-98 -70t-149 -27h-75l-19 -110h-239l121 683h239zM347 399h-33l-21 -123h32q26 0 50.5 19t24.5 56q0 23 -15.5 35.5t-37.5 12.5z" />
    <glyph glyph-name="germandbls" unicode="&#xdf;" horiz-adv-x="645" 
d="M16 55l74 438q21 124 100 186t194 62q112 0 179 -53t67 -125q0 -91 -111 -153q-19 -12 -19 -24q0 -17 29 -40q90 -73 90 -153q0 -102 -70 -152t-169 -50q-57 0 -117 20l24 155q35 -11 61 -11q24 0 40.5 13.5t16.5 33.5t-21 41q-78 75 -78 131q0 58 96 139q18 16 18 36
q0 15 -11.5 26t-33.5 11q-50 0 -69 -106l-84 -480q-18 -99 -69.5 -152t-161.5 -53q-75 0 -127 15l28 157q34 -5 53 -5q30 0 46 22.5t25 70.5z" />
    <glyph glyph-name="agrave" unicode="&#xe0;" horiz-adv-x="646" 
d="M303 143q37 0 61.5 45.5t24.5 106.5q0 58 -45 58q-36 0 -63 -41t-27 -106q0 -63 49 -63zM288 509q100 0 136 -70h5q7 30 25 53h199l-86 -492h-199q-9 31 -3 67h-5q-70 -79 -173 -79q-162 0 -162 172q0 58 14.5 116t43.5 112t82.5 87.5t122.5 33.5zM489 641l-82 -94
l-215 133l111 137z" />
    <glyph glyph-name="aacute" unicode="&#xe1;" horiz-adv-x="646" 
d="M303 143q37 0 61.5 45.5t24.5 106.5q0 58 -45 58q-36 0 -63 -41t-27 -106q0 -63 49 -63zM288 509q100 0 136 -70h5q7 30 25 53h199l-86 -492h-199q-9 31 -3 67h-5q-70 -79 -173 -79q-162 0 -162 172q0 58 14.5 116t43.5 112t82.5 87.5t122.5 33.5zM354 537l-68 79
l206 198l98 -115z" />
    <glyph glyph-name="acircumflex" unicode="&#xe2;" horiz-adv-x="646" 
d="M303 143q37 0 61.5 45.5t24.5 106.5q0 58 -45 58q-36 0 -63 -41t-27 -106q0 -63 49 -63zM288 509q100 0 136 -70h5q7 30 25 53h199l-86 -492h-199q-9 31 -3 67h-5q-70 -79 -173 -79q-162 0 -162 172q0 58 14.5 116t43.5 112t82.5 87.5t122.5 33.5zM617 597l-66 -56
l-148 110l-187 -110l-47 58l188 185h138z" />
    <glyph glyph-name="atilde" unicode="&#xe3;" horiz-adv-x="646" 
d="M303 143q37 0 61.5 45.5t24.5 106.5q0 58 -45 58q-36 0 -63 -41t-27 -106q0 -63 49 -63zM288 509q100 0 136 -70h5q7 30 25 53h199l-86 -492h-199q-9 31 -3 67h-5q-70 -79 -173 -79q-162 0 -162 172q0 58 14.5 116t43.5 112t82.5 87.5t122.5 33.5zM471 578q-26 0 -72 17
t-65 17q-52 0 -89 -39l-73 57q66 120 160 120q22 0 71.5 -18.5t73.5 -18.5q38 0 82 40l73 -50q-24 -57 -68.5 -91t-92.5 -34z" />
    <glyph glyph-name="adieresis" unicode="&#xe4;" horiz-adv-x="646" 
d="M303 143q37 0 61.5 45.5t24.5 106.5q0 58 -45 58q-36 0 -63 -41t-27 -106q0 -63 49 -63zM288 509q100 0 136 -70h5q7 30 25 53h199l-86 -492h-199q-9 31 -3 67h-5q-70 -79 -173 -79q-162 0 -162 172q0 58 14.5 116t43.5 112t82.5 87.5t122.5 33.5zM297 748q33 0 54 -22
t21 -55q0 -43 -33 -75.5t-74 -32.5q-33 0 -54 21.5t-21 53.5q0 43 33 76.5t74 33.5zM524 748q33 0 54 -22t21 -55q0 -43 -33 -75.5t-74 -32.5q-33 0 -54 21.5t-21 53.5q0 43 33 76.5t74 33.5z" />
    <glyph glyph-name="aring" unicode="&#xe5;" horiz-adv-x="646" 
d="M303 143q37 0 61.5 45.5t24.5 106.5q0 58 -45 58q-36 0 -63 -41t-27 -106q0 -63 49 -63zM288 509q100 0 136 -70h5q7 30 25 53h199l-86 -492h-199q-9 31 -3 67h-5q-70 -79 -173 -79q-162 0 -162 172q0 58 14.5 116t43.5 112t82.5 87.5t122.5 33.5zM434 823q55 0 88 -34
t33 -86q0 -69 -49.5 -116.5t-121.5 -47.5q-53 0 -86 32t-33 81q0 69 48 120t121 51zM416 725q-18 0 -34 -16.5t-16 -38.5q0 -15 9.5 -25t24.5 -10q21 0 36 15.5t15 36.5q0 17 -9.5 27.5t-25.5 10.5z" />
    <glyph glyph-name="ae" unicode="&#xe6;" horiz-adv-x="916" 
d="M573 200q-2 -10 -2 -14q0 -21 13.5 -33.5t36.5 -12.5q51 0 65 39h187q1 -7 1 -24q0 -81 -72.5 -124t-199.5 -43q-144 0 -204 65q-62 -40 -115.5 -53.5t-122.5 -13.5q-72 0 -112.5 30.5t-40.5 88.5q0 45 17.5 80t45.5 56t66.5 34.5t76.5 18.5t80 5h76q5 18 5 30
q0 42 -46 42q-42 0 -56 -41h-188q0 52 24 88.5t66.5 55.5t88 27t98.5 8q98 0 149 -39q77 40 173 40q95 0 151.5 -38t56.5 -103q0 -78 -70.5 -123t-247.5 -46zM353 207h-41q-72 0 -72 -47q0 -27 33 -27q23 0 46 12t33 26v5q0 19 1 31zM652 371q-55 0 -65 -64h11q85 0 85 39
q0 25 -31 25z" />
    <glyph glyph-name="ccedilla" unicode="&#xe7;" horiz-adv-x="582" 
d="M203 -299q-68 0 -129 23l31 76q35 -7 69 -7q76 0 76 42q0 25 -35 25q-22 0 -38 -8l-50 38l71 103q-173 26 -173 184q0 82 28 147.5t75 104.5t105 59.5t121 20.5q103 0 160 -39.5t57 -107.5q0 -33 -11 -62h-184q0 50 -42 50t-63.5 -48t-21.5 -99q0 -56 48 -56q45 0 63 48
h188q0 -53 -23.5 -93.5t-63 -64t-85 -36t-94.5 -13.5l-31 -44q77 0 108 -28t31 -69q0 -24 -10.5 -48t-31.5 -46.5t-59 -37t-86 -14.5z" />
    <glyph glyph-name="egrave" unicode="&#xe8;" horiz-adv-x="595" 
d="M247 200q-5 -26 8 -43t40 -17q51 0 65 39h187q1 -7 1 -24q0 -81 -72.5 -124t-199.5 -43q-250 0 -250 196q0 148 90 237t241 89q95 0 151.5 -38t56.5 -103q0 -78 -70.5 -123t-247.5 -46zM489 641l-82 -94l-215 133l111 137zM326 371q-55 0 -65 -64h11q85 0 85 39
q0 25 -31 25z" />
    <glyph glyph-name="eacute" unicode="&#xe9;" horiz-adv-x="595" 
d="M247 200q-5 -26 8 -43t40 -17q51 0 65 39h187q1 -7 1 -24q0 -81 -72.5 -124t-199.5 -43q-250 0 -250 196q0 148 90 237t241 89q95 0 151.5 -38t56.5 -103q0 -78 -70.5 -123t-247.5 -46zM359 537l-68 79l206 198l98 -115zM326 371q-55 0 -65 -64h11q85 0 85 39
q0 25 -31 25z" />
    <glyph glyph-name="ecircumflex" unicode="&#xea;" horiz-adv-x="595" 
d="M247 200q-5 -26 8 -43t40 -17q51 0 65 39h187q1 -7 1 -24q0 -81 -72.5 -124t-199.5 -43q-250 0 -250 196q0 148 90 237t241 89q95 0 151.5 -38t56.5 -103q0 -78 -70.5 -123t-247.5 -46zM596 597l-66 -56l-148 110l-187 -110l-47 58l188 185h138zM326 371q-55 0 -65 -64
h11q85 0 85 39q0 25 -31 25z" />
    <glyph glyph-name="edieresis" unicode="&#xeb;" horiz-adv-x="595" 
d="M247 200q-5 -26 8 -43t40 -17q51 0 65 39h187q1 -7 1 -24q0 -81 -72.5 -124t-199.5 -43q-250 0 -250 196q0 148 90 237t241 89q95 0 151.5 -38t56.5 -103q0 -78 -70.5 -123t-247.5 -46zM508 748q33 0 54 -22t21 -55q0 -43 -33 -75.5t-74 -32.5q-33 0 -54 21.5t-21 53.5
q0 43 33 76.5t74 33.5zM281 748q33 0 54 -22t21 -55q0 -43 -33 -75.5t-74 -32.5q-33 0 -54 21.5t-21 53.5q0 43 33 76.5t74 33.5zM326 371q-55 0 -65 -64h11q85 0 85 39q0 25 -31 25z" />
    <glyph glyph-name="igrave" unicode="&#xec;" horiz-adv-x="316" 
d="M311 641l-82 -94l-215 133l111 137zM6 0l86 492h225l-86 -492h-225z" />
    <glyph glyph-name="iacute" unicode="&#xed;" horiz-adv-x="316" 
d="M210 537l-68 79l206 198l98 -115zM6 0l86 492h225l-86 -492h-225z" />
    <glyph glyph-name="icircumflex" unicode="&#xee;" horiz-adv-x="316" 
d="M6 0l86 492h225l-86 -492h-225zM451 597l-66 -56l-148 110l-187 -110l-47 58l188 185h138z" />
    <glyph glyph-name="idieresis" unicode="&#xef;" horiz-adv-x="316" 
d="M6 0l86 492h225l-86 -492h-225zM141 748q33 0 54 -22t21 -55q0 -43 -33 -75.5t-74 -32.5q-33 0 -54 21.5t-21 53.5q0 43 33 76.5t74 33.5zM368 748q33 0 54 -22t21 -55q0 -43 -33 -75.5t-74 -32.5q-33 0 -54 21.5t-21 53.5q0 43 33 76.5t74 33.5z" />
    <glyph glyph-name="eth" unicode="&#xf0;" horiz-adv-x="636" 
d="M295 537l37 34q-35 15 -89 21l49 154q108 -6 182 -44l67 62l44 -46l-56 -51q105 -96 105 -260q0 -55 -9.5 -109t-35.5 -111.5t-65.5 -100.5t-106 -70.5t-150.5 -27.5q-125 0 -183.5 53.5t-58.5 141.5q0 55 18.5 105t54.5 91t97 65.5t138 24.5q72 0 108 -19q-6 50 -51 89
l-53 -48zM333 314q-40 0 -62 -34t-22 -80q0 -55 53 -55q35 0 59 27t24 80q0 62 -52 62z" />
    <glyph glyph-name="ntilde" unicode="&#xf1;" horiz-adv-x="626" 
d="M290 414h6q72 95 168 95q174 0 141 -187l-56 -322h-225l49 278q12 67 -37 67q-51 0 -65 -84l-46 -261h-226l86 492h200q14 -29 5 -78zM445 578q-26 0 -72 17t-65 17q-52 0 -89 -39l-73 57q66 120 160 120q22 0 71.5 -18.5t73.5 -18.5q38 0 82 40l73 -50
q-24 -57 -68.5 -91t-92.5 -34z" />
    <glyph glyph-name="ograve" unicode="&#xf2;" horiz-adv-x="636" 
d="M362 509q70 0 121 -18.5t78 -50.5t39 -69t12 -81q0 -40 -9 -79t-33 -80t-60.5 -72t-96 -51t-135.5 -20q-251 0 -251 201q0 138 85 229t250 91zM338 350q-41 0 -64.5 -44.5t-23.5 -98.5q0 -60 51 -60q39 0 63.5 40t24.5 102q0 61 -51 61zM474 641l-82 -94l-215 133
l111 137z" />
    <glyph glyph-name="oacute" unicode="&#xf3;" horiz-adv-x="636" 
d="M362 509q70 0 121 -18.5t78 -50.5t39 -69t12 -81q0 -40 -9 -79t-33 -80t-60.5 -72t-96 -51t-135.5 -20q-251 0 -251 201q0 138 85 229t250 91zM338 350q-41 0 -64.5 -44.5t-23.5 -98.5q0 -60 51 -60q39 0 63.5 40t24.5 102q0 61 -51 61zM370 537l-68 79l206 198l98 -115z
" />
    <glyph glyph-name="ocircumflex" unicode="&#xf4;" horiz-adv-x="636" 
d="M362 509q70 0 121 -18.5t78 -50.5t39 -69t12 -81q0 -40 -9 -79t-33 -80t-60.5 -72t-96 -51t-135.5 -20q-251 0 -251 201q0 138 85 229t250 91zM338 350q-41 0 -64.5 -44.5t-23.5 -98.5q0 -60 51 -60q39 0 63.5 40t24.5 102q0 61 -51 61zM606 597l-66 -56l-148 110
l-187 -110l-47 58l188 185h138z" />
    <glyph glyph-name="otilde" unicode="&#xf5;" horiz-adv-x="636" 
d="M362 509q70 0 121 -18.5t78 -50.5t39 -69t12 -81q0 -40 -9 -79t-33 -80t-60.5 -72t-96 -51t-135.5 -20q-251 0 -251 201q0 138 85 229t250 91zM338 350q-41 0 -64.5 -44.5t-23.5 -98.5q0 -60 51 -60q39 0 63.5 40t24.5 102q0 61 -51 61zM452 578q-26 0 -72 17t-65 17
q-52 0 -89 -39l-73 57q66 120 160 120q22 0 71.5 -18.5t73.5 -18.5q38 0 82 40l73 -50q-24 -57 -68.5 -91t-92.5 -34z" />
    <glyph glyph-name="odieresis" unicode="&#xf6;" horiz-adv-x="636" 
d="M362 509q70 0 121 -18.5t78 -50.5t39 -69t12 -81q0 -40 -9 -79t-33 -80t-60.5 -72t-96 -51t-135.5 -20q-251 0 -251 201q0 138 85 229t250 91zM338 350q-41 0 -64.5 -44.5t-23.5 -98.5q0 -60 51 -60q39 0 63.5 40t24.5 102q0 61 -51 61zM295 748q33 0 54 -22t21 -55
q0 -43 -33 -75.5t-74 -32.5q-33 0 -54 21.5t-21 53.5q0 43 33 76.5t74 33.5zM522 748q33 0 54 -22t21 -55q0 -43 -33 -75.5t-74 -32.5q-33 0 -54 21.5t-21 53.5q0 43 33 76.5t74 33.5z" />
    <glyph glyph-name="divide" unicode="&#xf7;" horiz-adv-x="698" 
d="M582 202h-476l26 144h476zM411 557q33 0 54 -22t21 -55q0 -44 -33 -77.5t-75 -33.5q-34 0 -55.5 22t-21.5 55q0 44 34 77.5t76 33.5zM344 179q33 0 54.5 -21.5t21.5 -54.5q0 -45 -33 -78.5t-76 -33.5q-34 0 -55.5 22t-21.5 55q0 44 34.5 77.5t75.5 33.5z" />
    <glyph glyph-name="oslash" unicode="&#xf8;" horiz-adv-x="636" 
d="M362 509q102 0 163 -40l60 50l41 -54l-52 -43q38 -55 38 -132q0 -40 -9 -79t-33 -80t-60.5 -72t-96 -51t-135.5 -20q-112 0 -174 40l-58 -48l-41 54l51 42q-29 44 -29 113q0 138 85 229t250 91zM301 147q35 0 58.5 33t28.5 86l-125 -105q12 -14 38 -14zM338 350
q-34 0 -56.5 -31.5t-29.5 -77.5l118 98q-13 11 -32 11z" />
    <glyph glyph-name="ugrave" unicode="&#xf9;" horiz-adv-x="616" 
d="M332 75h-6q-67 -87 -170 -87q-87 0 -116 47t-13 140l56 317h225l-50 -283q-12 -67 32 -67q46 0 60 84l47 266h226l-86 -492h-199q-13 23 -6 75zM459 641l-82 -94l-215 133l111 137z" />
    <glyph glyph-name="uacute" unicode="&#xfa;" horiz-adv-x="616" 
d="M332 75h-6q-67 -87 -170 -87q-87 0 -116 47t-13 140l56 317h225l-50 -283q-12 -67 32 -67q46 0 60 84l47 266h226l-86 -492h-199q-13 23 -6 75zM338 537l-68 79l206 198l98 -115z" />
    <glyph glyph-name="ucircumflex" unicode="&#xfb;" horiz-adv-x="616" 
d="M332 75h-6q-67 -87 -170 -87q-87 0 -116 47t-13 140l56 317h225l-50 -283q-12 -67 32 -67q46 0 60 84l47 266h226l-86 -492h-199q-13 23 -6 75zM599 597l-66 -56l-148 110l-187 -110l-47 58l188 185h138z" />
    <glyph glyph-name="udieresis" unicode="&#xfc;" horiz-adv-x="616" 
d="M332 75h-6q-67 -87 -170 -87q-87 0 -116 47t-13 140l56 317h225l-50 -283q-12 -67 32 -67q46 0 60 84l47 266h226l-86 -492h-199q-13 23 -6 75zM288 748q33 0 54 -22t21 -55q0 -43 -33 -75.5t-74 -32.5q-33 0 -54 21.5t-21 53.5q0 43 33 76.5t74 33.5zM515 748
q33 0 54 -22t21 -55q0 -43 -33 -75.5t-74 -32.5q-33 0 -54 21.5t-21 53.5q0 43 33 76.5t74 33.5z" />
    <glyph glyph-name="yacute" unicode="&#xfd;" horiz-adv-x="636" 
d="M338 -205h-224l110 206l-85 -2l-101 493h234l14 -161q11 -111 4 -194h6l69 159q36 82 56 195h227q-1 -8 -5 -32.5t-5.5 -31.5t-5.5 -27t-7.5 -30t-9.5 -27.5t-13.5 -34t-17.5 -35.5zM337 537l-68 79l206 198l98 -115z" />
    <glyph glyph-name="thorn" unicode="&#xfe;" horiz-adv-x="645" 
d="M286 417h4q65 92 175 92q81 0 120.5 -49t39.5 -133q0 -142 -68.5 -241t-197.5 -99q-90 0 -125 45h-5l-44 -251h-225l168 941h226l-29 -164q-15 -86 -39 -141zM346 347q-31 0 -52 -29.5t-28 -63t-7 -64.5q0 -21 12 -35t38 -14q37 0 61.5 40t24.5 98q0 68 -49 68z" />
    <glyph glyph-name="ydieresis" unicode="&#xff;" horiz-adv-x="636" 
d="M338 -205h-224l110 206l-85 -2l-101 493h234l14 -161q11 -111 4 -194h6l69 159q36 82 56 195h227q-1 -8 -5 -32.5t-5.5 -31.5t-5.5 -27t-7.5 -30t-9.5 -27.5t-13.5 -34t-17.5 -35.5zM273 748q33 0 54 -22t21 -55q0 -43 -33 -75.5t-74 -32.5q-33 0 -54 21.5t-21 53.5
q0 43 33 76.5t74 33.5zM500 748q33 0 54 -22t21 -55q0 -43 -33 -75.5t-74 -32.5q-33 0 -54 21.5t-21 53.5q0 43 33 76.5t74 33.5z" />
    <glyph glyph-name="Amacron" unicode="&#x100;" horiz-adv-x="760" 
d="M477 0l-12 124h-202l-54 -124h-244l349 684h309l92 -684h-238zM370 354l-35 -73h119l-4 53q-10 116 -5 173h-9q-23 -58 -66 -153zM297 783l23 131h371l-23 -131h-371z" />
    <glyph glyph-name="amacron" unicode="&#x101;" horiz-adv-x="646" 
d="M303 143q37 0 61.5 45.5t24.5 106.5q0 58 -45 58q-36 0 -63 -41t-27 -106q0 -63 49 -63zM288 509q100 0 136 -70h5q7 30 25 53h199l-86 -492h-199q-9 31 -3 67h-5q-70 -79 -173 -79q-162 0 -162 172q0 58 14.5 116t43.5 112t82.5 87.5t122.5 33.5zM201 585l23 131h372
l-23 -131h-372z" />
    <glyph glyph-name="Abreve" unicode="&#x102;" horiz-adv-x="760" 
d="M477 0l-12 124h-202l-54 -124h-244l349 684h309l92 -684h-238zM370 354l-35 -73h119l-4 53q-10 116 -5 173h-9q-23 -58 -66 -153zM475 726q-98 0 -137 60.5t-27 148.5h103q-4 -48 18 -70t60 -22q34 0 65 25.5t47 66.5h108q-21 -84 -81 -146.5t-156 -62.5z" />
    <glyph glyph-name="abreve" unicode="&#x103;" horiz-adv-x="646" 
d="M303 143q37 0 61.5 45.5t24.5 106.5q0 58 -45 58q-36 0 -63 -41t-27 -106q0 -63 49 -63zM288 509q100 0 136 -70h5q7 30 25 53h199l-86 -492h-199q-9 31 -3 67h-5q-70 -79 -173 -79q-162 0 -162 172q0 58 14.5 116t43.5 112t82.5 87.5t122.5 33.5zM377 552
q-98 0 -137 60.5t-27 148.5h103q-4 -48 18 -70t60 -22q34 0 65 25.5t47 66.5h108q-21 -84 -81 -146.5t-156 -62.5z" />
    <glyph glyph-name="Aogonek" unicode="&#x104;" horiz-adv-x="760" 
d="M715 0h-178q-94 -90 -94 -157q0 -57 93 -57q31 0 62 8l4 -71q-86 -38 -162 -38q-68 0 -102 26t-34 70q0 50 45 119t126 122l-10 102h-202l-54 -124h-244l349 684h309zM370 354l-35 -73h119l-4 53q-10 116 -5 173h-9q-23 -58 -66 -153z" />
    <glyph glyph-name="aogonek" unicode="&#x105;" horiz-adv-x="646" 
d="M288 509q100 0 136 -70h5q7 30 25 53h199l-86 -492h-134q-94 -90 -94 -157q0 -57 93 -57q31 0 62 8l4 -71q-86 -38 -162 -38q-68 0 -102 26t-34 70q0 50 43 116.5t121 119.5q-4 21 1 50h-5q-70 -79 -173 -79q-162 0 -162 172q0 58 14.5 116t43.5 112t82.5 87.5
t122.5 33.5zM303 143q37 0 61.5 45.5t24.5 106.5q0 58 -45 58q-36 0 -63 -41t-27 -106q0 -63 49 -63z" />
    <glyph glyph-name="Cacute" unicode="&#x106;" horiz-adv-x="727" 
d="M464 270h234q0 -2 -4 -42q-12 -65 -46.5 -113t-84.5 -75t-104.5 -39.5t-115.5 -12.5q-292 0 -292 264q0 110 34.5 197.5t92.5 140.5t129.5 81t149.5 28q129 0 201.5 -54t72.5 -147q0 -43 -15 -84h-229q1 7 1 21q0 38 -17 59t-44 21q-42 0 -73 -45.5t-43 -100.5t-12 -106
q0 -91 67 -91q73 0 98 98zM423 724l-48 104l256 160l64 -148z" />
    <glyph glyph-name="cacute" unicode="&#x107;" horiz-adv-x="582" 
d="M354 509q103 0 160 -39.5t57 -107.5q0 -33 -11 -62h-184q0 50 -42 50t-63.5 -48t-21.5 -99q0 -56 48 -56q45 0 63 48h188q0 -54 -25 -95.5t-66.5 -65t-88.5 -35t-97 -11.5q-246 0 -246 189q0 82 28 147.5t75 104.5t105 59.5t121 20.5zM340 537l-68 79l206 198l98 -115z
" />
    <glyph glyph-name="Ccircumflex" unicode="&#x108;" horiz-adv-x="727" 
d="M464 270h234q0 -2 -4 -42q-12 -65 -46.5 -113t-84.5 -75t-104.5 -39.5t-115.5 -12.5q-292 0 -292 264q0 110 34.5 197.5t92.5 140.5t129.5 81t149.5 28q129 0 201.5 -54t72.5 -147q0 -43 -15 -84h-229q1 7 1 21q0 38 -17 59t-44 21q-42 0 -73 -45.5t-43 -100.5t-12 -106
q0 -91 67 -91q73 0 98 98zM701 782l-61 -56l-154 105l-192 -105l-41 58l184 165h139z" />
    <glyph glyph-name="ccircumflex" unicode="&#x109;" horiz-adv-x="582" 
d="M354 509q103 0 160 -39.5t57 -107.5q0 -33 -11 -62h-184q0 50 -42 50t-63.5 -48t-21.5 -99q0 -56 48 -56q45 0 63 48h188q0 -54 -25 -95.5t-66.5 -65t-88.5 -35t-97 -11.5q-246 0 -246 189q0 82 28 147.5t75 104.5t105 59.5t121 20.5zM597 597l-66 -56l-148 110
l-187 -110l-47 58l188 185h138z" />
    <glyph glyph-name="Cdotaccent" unicode="&#x10a;" horiz-adv-x="727" 
d="M464 270h234q0 -2 -4 -42q-12 -65 -46.5 -113t-84.5 -75t-104.5 -39.5t-115.5 -12.5q-292 0 -292 264q0 110 34.5 197.5t92.5 140.5t129.5 81t149.5 28q129 0 201.5 -54t72.5 -147q0 -43 -15 -84h-229q1 7 1 21q0 38 -17 59t-44 21q-42 0 -73 -45.5t-43 -100.5t-12 -106
q0 -91 67 -91q73 0 98 98zM499 934q36 0 59.5 -24t23.5 -60q0 -47 -37 -83t-82 -36q-36 0 -59 23t-23 59q0 48 36 84.5t82 36.5z" />
    <glyph glyph-name="cdotaccent" unicode="&#x10b;" horiz-adv-x="582" 
d="M354 509q103 0 160 -39.5t57 -107.5q0 -33 -11 -62h-184q0 50 -42 50t-63.5 -48t-21.5 -99q0 -56 48 -56q45 0 63 48h188q0 -54 -25 -95.5t-66.5 -65t-88.5 -35t-97 -11.5q-246 0 -246 189q0 82 28 147.5t75 104.5t105 59.5t121 20.5zM396 764q36 0 59.5 -24t23.5 -60
q0 -47 -37 -83t-82 -36q-36 0 -59 23t-23 59q0 48 36 84.5t82 36.5z" />
    <glyph glyph-name="Ccaron" unicode="&#x10c;" horiz-adv-x="727" 
d="M464 270h234q0 -2 -4 -42q-12 -65 -46.5 -113t-84.5 -75t-104.5 -39.5t-115.5 -12.5q-292 0 -292 264q0 110 34.5 197.5t92.5 140.5t129.5 81t149.5 28q129 0 201.5 -54t72.5 -147q0 -43 -15 -84h-229q1 7 1 21q0 38 -17 59t-44 21q-42 0 -73 -45.5t-43 -100.5t-12 -106
q0 -91 67 -91q73 0 98 98zM680 956l41 -56l-184 -167h-139l-126 165l62 58l158 -99z" />
    <glyph glyph-name="ccaron" unicode="&#x10d;" horiz-adv-x="582" 
d="M354 509q103 0 160 -39.5t57 -107.5q0 -33 -11 -62h-184q0 50 -42 50t-63.5 -48t-21.5 -99q0 -56 48 -56q45 0 63 48h188q0 -54 -25 -95.5t-66.5 -65t-88.5 -35t-97 -11.5q-246 0 -246 189q0 82 28 147.5t75 104.5t105 59.5t121 20.5zM574 784l46 -56l-188 -187h-138
l-122 185l67 58l148 -110z" />
    <glyph glyph-name="Dcaron" unicode="&#x10e;" horiz-adv-x="717" 
d="M279 177h15q25 0 51 11.5t51 35t41 65.5t16 96q0 67 -34 95t-78 28h-4zM8 0l120 684h277q62 0 113.5 -14t95 -44.5t67.5 -85.5t24 -131q0 -187 -116.5 -298t-292.5 -111h-288zM600 953l41 -56l-184 -167h-139l-126 165l62 58l158 -99z" />
    <glyph glyph-name="dcaron" unicode="&#x10f;" horiz-adv-x="896" 
d="M852 735q35 0 56 -22t21 -56q0 -39 -24 -73l-128 -181l-50 23l58 119q-47 21 -47 71q0 48 34.5 83.5t79.5 35.5zM378 75h-5q-66 -86 -173 -86q-86 0 -125 45.5t-39 122.5q0 93 27.5 170.5t90 129t150.5 51.5q90 0 125 -45h5l46 258h225l-127 -721h-195q-8 12 -8 42
q0 16 3 33zM314 144q23 0 41 16t27.5 40.5t14 47.5t4.5 42q0 64 -47 64q-36 0 -62 -42t-26 -103q0 -65 48 -65z" />
    <glyph glyph-name="Dcroat" unicode="&#x110;" horiz-adv-x="717" 
d="M79 403l49 281h277q62 0 113.5 -14t95 -44.5t67.5 -85.5t24 -131q0 -187 -116.5 -298t-292.5 -111h-288l50 287h-45l21 116h45zM279 177h15q25 0 51 11.5t51 35t41 65.5t16 96q0 67 -34 95t-78 28h-4l-19 -105h68l-21 -116h-67z" />
    <glyph glyph-name="dcroat" unicode="&#x111;" horiz-adv-x="645" 
d="M366 75h-5q-67 -86 -178 -86q-88 0 -123.5 42.5t-35.5 123.5q0 91 26.5 165.5t88.5 124.5t151 50q90 0 125 -45h5l17 98h-121l15 87h121l16 86h225l-16 -86h39l-15 -87h-39l-96 -548h-195q-8 12 -8 42q0 16 3 33zM302 144q31 0 51.5 25t27 52.5t6.5 55.5q0 29 -13.5 46.5
t-39.5 17.5q-32 0 -56 -37t-24 -99q0 -61 48 -61z" />
    <glyph glyph-name="Emacron" unicode="&#x112;" horiz-adv-x="633" 
d="M8 0l120 684h533l-31 -177h-294l-12 -69h259l-30 -170h-259l-16 -91h330l-31 -177h-569zM230 783l23 131h371l-23 -131h-371z" />
    <glyph glyph-name="emacron" unicode="&#x113;" horiz-adv-x="595" 
d="M247 200q-5 -26 8 -43t40 -17q51 0 65 39h187q1 -7 1 -24q0 -81 -72.5 -124t-199.5 -43q-250 0 -250 196q0 148 90 237t241 89q95 0 151.5 -38t56.5 -103q0 -78 -70.5 -123t-247.5 -46zM183 585l23 131h372l-23 -131h-372zM326 371q-55 0 -65 -64h11q85 0 85 39
q0 25 -31 25z" />
    <glyph glyph-name="Ebreve" unicode="&#x114;" horiz-adv-x="633" 
d="M8 0l120 684h533l-31 -177h-294l-12 -69h259l-30 -170h-259l-16 -91h330l-31 -177h-569zM409 732q-98 0 -137 60.5t-27 148.5h103q-4 -48 18 -70t60 -22q34 0 65 25.5t47 66.5h108q-21 -84 -81 -146.5t-156 -62.5z" />
    <glyph glyph-name="ebreve" unicode="&#x115;" horiz-adv-x="595" 
d="M247 200q-5 -26 8 -43t40 -17q51 0 65 39h187q1 -7 1 -24q0 -81 -72.5 -124t-199.5 -43q-250 0 -250 196q0 148 90 237t241 89q95 0 151.5 -38t56.5 -103q0 -78 -70.5 -123t-247.5 -46zM362 549q-98 0 -137 60.5t-27 148.5h103q-4 -48 18 -70t60 -22q34 0 65 25.5
t47 66.5h108q-21 -84 -81 -146.5t-156 -62.5zM326 371q-55 0 -65 -64h11q85 0 85 39q0 25 -31 25z" />
    <glyph glyph-name="Edotaccent" unicode="&#x116;" horiz-adv-x="633" 
d="M8 0l120 684h533l-31 -177h-294l-12 -69h259l-30 -170h-259l-16 -91h330l-31 -177h-569zM420 934q36 0 59.5 -24t23.5 -60q0 -47 -37 -83t-82 -36q-36 0 -59 23t-23 59q0 48 36 84.5t82 36.5z" />
    <glyph glyph-name="edotaccent" unicode="&#x117;" horiz-adv-x="595" 
d="M247 200q-5 -26 8 -43t40 -17q51 0 65 39h187q1 -7 1 -24q0 -81 -72.5 -124t-199.5 -43q-250 0 -250 196q0 148 90 237t241 89q95 0 151.5 -38t56.5 -103q0 -78 -70.5 -123t-247.5 -46zM403 764q36 0 59.5 -24t23.5 -60q0 -47 -37 -83t-82 -36q-36 0 -59 23t-23 59
q0 48 36 84.5t82 36.5zM326 371q-55 0 -65 -64h11q85 0 85 39q0 25 -31 25z" />
    <glyph glyph-name="Eogonek" unicode="&#x118;" horiz-adv-x="633" 
d="M8 0l120 684h533l-31 -177h-294l-12 -69h259l-30 -170h-259l-16 -91h330l-31 -177h-49q-94 -90 -94 -157q0 -57 93 -57q31 0 62 8l4 -71q-85 -38 -162 -38q-68 0 -102 26t-34 70q0 45 37 106t103 113h-427z" />
    <glyph glyph-name="eogonek" unicode="&#x119;" horiz-adv-x="595" 
d="M247 200q-5 -26 8 -43t40 -17q51 0 65 39h187q1 -7 1 -24q0 -113 -139 -151q-41 -39 -69.5 -82.5t-28.5 -78.5q0 -57 93 -57q31 0 62 8l4 -71q-85 -38 -162 -38q-68 0 -102 26t-34 70q0 42 33 100t93 108q-4 0 -11 -0.5t-11 -0.5q-250 0 -250 196q0 148 90 237t241 89
q95 0 151.5 -38t56.5 -103q0 -78 -70.5 -123t-247.5 -46zM326 371q-55 0 -65 -64h11q85 0 85 39q0 25 -31 25z" />
    <glyph glyph-name="Ecaron" unicode="&#x11a;" horiz-adv-x="633" 
d="M8 0l120 684h533l-31 -177h-294l-12 -69h259l-30 -170h-259l-16 -91h330l-31 -177h-569zM624 953l41 -56l-184 -167h-139l-126 165l62 58l158 -99z" />
    <glyph glyph-name="ecaron" unicode="&#x11b;" horiz-adv-x="595" 
d="M247 200q-5 -26 8 -43t40 -17q51 0 65 39h187q1 -7 1 -24q0 -81 -72.5 -124t-199.5 -43q-250 0 -250 196q0 148 90 237t241 89q95 0 151.5 -38t56.5 -103q0 -78 -70.5 -123t-247.5 -46zM575 784l46 -56l-188 -187h-138l-122 185l67 58l148 -110zM326 371q-55 0 -65 -64
h11q85 0 85 39q0 25 -31 25z" />
    <glyph glyph-name="Gcircumflex" unicode="&#x11c;" horiz-adv-x="738" 
d="M427 515q-43 0 -74 -48t-42.5 -103.5t-11.5 -105.5q0 -45 17 -66.5t57 -21.5q32 0 55.5 17.5t27.5 39.5h-58l24 136h299l-16 -98q-46 -277 -362 -277q-293 0 -293 254q0 131 46 233t141 163t226 61q128 0 197.5 -53.5t69.5 -145.5q0 -43 -12 -70h-228q1 7 1 19
q0 66 -64 66zM698 779l-61 -56l-154 105l-192 -105l-41 58l184 165h139z" />
    <glyph glyph-name="gcircumflex" unicode="&#x11d;" horiz-adv-x="646" 
d="M285 509q51 0 88 -26t48 -63h5q8 41 28 72h199l-72 -410q-7 -42 -17 -76t-35 -80t-58.5 -77t-91 -53t-130.5 -22q-132 0 -203 38.5t-71 108.5q0 35 19 78h195q-1 -38 18.5 -52t49.5 -14q67 0 89 92q12 49 17 61l-4 3q-68 -68 -167 -68q-163 0 -163 179q0 135 63.5 222
t192.5 87zM341 353q-32 0 -57.5 -33.5t-25.5 -81.5q0 -62 49 -62q43 0 63 38.5t20 79.5q0 59 -49 59zM607 597l-66 -56l-148 110l-187 -110l-47 58l188 185h138z" />
    <glyph glyph-name="Gbreve" unicode="&#x11e;" horiz-adv-x="738" 
d="M427 515q-43 0 -74 -48t-42.5 -103.5t-11.5 -105.5q0 -45 17 -66.5t57 -21.5q32 0 55.5 17.5t27.5 39.5h-58l24 136h299l-16 -98q-46 -277 -362 -277q-293 0 -293 254q0 131 46 233t141 163t226 61q128 0 197.5 -53.5t69.5 -145.5q0 -43 -12 -70h-228q1 7 1 19
q0 66 -64 66zM464 734q-98 0 -137 60.5t-27 148.5h103q-4 -48 18 -70t60 -22q34 0 65 25.5t47 66.5h108q-21 -84 -81 -146.5t-156 -62.5z" />
    <glyph glyph-name="gbreve" unicode="&#x11f;" horiz-adv-x="646" 
d="M285 509q51 0 88 -26t48 -63h5q8 41 28 72h199l-72 -410q-7 -42 -17 -76t-35 -80t-58.5 -77t-91 -53t-130.5 -22q-132 0 -203 38.5t-71 108.5q0 35 19 78h195q-1 -38 18.5 -52t49.5 -14q67 0 89 92q12 49 17 61l-4 3q-68 -68 -167 -68q-163 0 -163 179q0 135 63.5 222
t192.5 87zM341 353q-32 0 -57.5 -33.5t-25.5 -81.5q0 -62 49 -62q43 0 63 38.5t20 79.5q0 59 -49 59zM406 547q-98 0 -137 60.5t-27 148.5h103q-4 -48 18 -70t60 -22q34 0 65 25.5t47 66.5h108q-21 -84 -81 -146.5t-156 -62.5z" />
    <glyph glyph-name="Gdotaccent" unicode="&#x120;" horiz-adv-x="738" 
d="M427 515q-43 0 -74 -48t-42.5 -103.5t-11.5 -105.5q0 -45 17 -66.5t57 -21.5q32 0 55.5 17.5t27.5 39.5h-58l24 136h299l-16 -98q-46 -277 -362 -277q-293 0 -293 254q0 131 46 233t141 163t226 61q128 0 197.5 -53.5t69.5 -145.5q0 -43 -12 -70h-228q1 7 1 19
q0 66 -64 66zM515 939q36 0 59.5 -24t23.5 -60q0 -47 -37 -83t-82 -36q-36 0 -59 23t-23 59q0 48 36 84.5t82 36.5z" />
    <glyph glyph-name="gdotaccent" unicode="&#x121;" horiz-adv-x="646" 
d="M285 509q51 0 88 -26t48 -63h5q8 41 28 72h199l-72 -410q-7 -42 -17 -76t-35 -80t-58.5 -77t-91 -53t-130.5 -22q-132 0 -203 38.5t-71 108.5q0 35 19 78h195q-1 -38 18.5 -52t49.5 -14q67 0 89 92q12 49 17 61l-4 3q-68 -68 -167 -68q-163 0 -163 179q0 135 63.5 222
t192.5 87zM341 353q-32 0 -57.5 -33.5t-25.5 -81.5q0 -62 49 -62q43 0 63 38.5t20 79.5q0 59 -49 59zM425 764q36 0 59.5 -24t23.5 -60q0 -47 -37 -83t-82 -36q-36 0 -59 23t-23 59q0 48 36 84.5t82 36.5z" />
    <glyph glyph-name="Gcommaaccent" unicode="&#x122;" horiz-adv-x="738" 
d="M427 515q-43 0 -74 -48t-42.5 -103.5t-11.5 -105.5q0 -45 17 -66.5t57 -21.5q32 0 55.5 17.5t27.5 39.5h-58l24 136h299l-16 -98q-46 -277 -362 -277q-293 0 -293 254q0 131 46 233t141 163t226 61q128 0 197.5 -53.5t69.5 -145.5q0 -43 -12 -70h-228q1 7 1 19
q0 66 -64 66zM340 -46q35 0 56 -22t21 -56q0 -39 -24 -73l-128 -181l-50 23l58 119q-47 21 -47 71q0 48 34.5 83.5t79.5 35.5z" />
    <glyph glyph-name="gcommaaccent" unicode="&#x123;" horiz-adv-x="646" 
d="M338 549q-37 0 -57.5 20t-20.5 54q0 42 25 78l122 169l54 -23l-56 -108q47 -21 47 -72q0 -48 -33.5 -83t-80.5 -35zM285 509q51 0 88 -26t48 -63h5q8 41 28 72h199l-72 -410q-7 -42 -17 -76t-35 -80t-58.5 -77t-91 -53t-130.5 -22q-132 0 -203 38.5t-71 108.5q0 35 19 78
h195q-1 -38 18.5 -52t49.5 -14q67 0 89 92q12 49 17 61l-4 3q-68 -68 -167 -68q-163 0 -163 179q0 135 63.5 222t192.5 87zM341 353q-32 0 -57.5 -33.5t-25.5 -81.5q0 -62 49 -62q43 0 63 38.5t20 79.5q0 59 -49 59z" />
    <glyph glyph-name="Hcircumflex" unicode="&#x124;" horiz-adv-x="760" 
d="M433 0l46 261h-185l-46 -261h-240l120 683h240l-44 -248h185l44 248h238l-120 -683h-238zM706 783l-61 -56l-154 105l-192 -105l-41 58l184 165h139z" />
    <glyph glyph-name="hcircumflex" unicode="&#x125;" horiz-adv-x="626" 
d="M276 408h6q40 52 91 75.5t91 23.5q174 0 141 -187l-56 -320h-225l49 278q12 67 -37 67q-51 0 -65 -84l-46 -261h-226l127 721h220l-28 -159q-16 -93 -42 -154zM467 798l-61 -56l-154 105l-192 -105l-41 58l184 165h139z" />
    <glyph glyph-name="Hbar" unicode="&#x126;" horiz-adv-x="760" 
d="M433 0l46 261h-185l-46 -261h-240l89 506h-33l16 95h33l15 82h240l-15 -82h185l15 82h238l-15 -82h33l-16 -95h-33l-89 -506h-238zM324 435h185l13 71h-185z" />
    <glyph glyph-name="hbar" unicode="&#x127;" horiz-adv-x="626" 
d="M272 382h6q39 52 90 75.5t91 23.5q174 0 141 -187l-51 -294h-225l44 252q12 67 -36 67q-52 0 -66 -84l-41 -235h-226l93 531h-38l17 94h38l17 96h220l-17 -96h143l-17 -94h-143q-19 -101 -40 -149z" />
    <glyph glyph-name="Itilde" unicode="&#x128;" horiz-adv-x="355" 
d="M18 0l120 683h239l-120 -683h-239zM348 748q-26 0 -72 17t-65 17q-52 0 -89 -39l-73 57q66 120 160 120q22 0 71.5 -18.5t73.5 -18.5q38 0 82 40l73 -50q-24 -57 -68.5 -91t-92.5 -34z" />
    <glyph glyph-name="itilde" unicode="&#x129;" horiz-adv-x="316" 
d="M293 578q-26 0 -72 17t-65 17q-52 0 -89 -39l-73 57q66 120 160 120q22 0 71.5 -18.5t73.5 -18.5q38 0 82 40l73 -50q-24 -57 -68.5 -91t-92.5 -34zM6 0l86 492h225l-86 -492h-225z" />
    <glyph glyph-name="Imacron" unicode="&#x12a;" horiz-adv-x="355" 
d="M18 0l120 683h239l-120 -683h-239zM87 783l23 131h371l-23 -131h-371z" />
    <glyph glyph-name="imacron" unicode="&#x12b;" horiz-adv-x="316" 
d="M32 585l23 131h372l-23 -131h-372zM6 0l86 492h225l-86 -492h-225z" />
    <glyph glyph-name="Ibreve" unicode="&#x12c;" horiz-adv-x="308" 
d="M252 734q-98 0 -137 60.5t-27 148.5h103q-4 -48 18 -70t60 -22q34 0 65 25.5t47 66.5h108q-21 -84 -81 -146.5t-156 -62.5zM5 0l120 683h239l-120 -683h-239z" />
    <glyph glyph-name="ibreve" unicode="&#x12d;" horiz-adv-x="316" 
d="M215 553q-98 0 -137 60.5t-27 148.5h103q-4 -48 18 -70t60 -22q34 0 65 25.5t47 66.5h108q-21 -84 -81 -146.5t-156 -62.5zM6 0l86 492h225l-86 -492h-225z" />
    <glyph glyph-name="Iogonek" unicode="&#x12e;" horiz-adv-x="355" 
d="M257 0h-162q-94 -90 -94 -157q0 -57 93 -57q31 0 62 8l4 -71q-86 -38 -162 -38q-68 0 -102 26t-34 70q0 49 41.5 114.5t116.5 117.5l118 670h239z" />
    <glyph glyph-name="iogonek" unicode="&#x12f;" horiz-adv-x="316" 
d="M231 0h-163q-94 -90 -94 -157q0 -57 93 -57q31 0 62 8l4 -71q-86 -38 -162 -38q-68 0 -102 26t-34 70q0 51 46.5 120.5t128.5 122.5l82 468h225zM252 757q40 0 66 -26.5t26 -66.5q0 -52 -41 -92t-91 -40q-40 0 -65.5 26t-25.5 66q0 52 40.5 92.5t90.5 40.5z" />
    <glyph glyph-name="Idotaccent" unicode="&#x130;" horiz-adv-x="355" 
d="M18 0l120 683h239l-120 -683h-239zM306 934q36 0 59.5 -24t23.5 -60q0 -47 -37 -83t-82 -36q-36 0 -59 23t-23 59q0 48 36 84.5t82 36.5z" />
    <glyph glyph-name="dotlessi" unicode="&#x131;" horiz-adv-x="316" 
d="M6 0l86 492h225l-86 -492h-225z" />
    <glyph glyph-name="IJ" unicode="&#x132;" horiz-adv-x="1028" 
d="M18 0l120 683h239l-120 -683h-239zM623 -12q-133 0 -206.5 44.5t-73.5 132.5q0 50 17 90h209q-1 -5 -1 -15q0 -73 73 -73q39 0 64 21t33.5 45.5t15.5 62.5l68 387h237l-74 -421q-11 -59 -32.5 -105t-62 -86t-108 -61.5t-159.5 -21.5z" />
    <glyph glyph-name="ij" unicode="&#x133;" horiz-adv-x="644" 
d="M6 0l86 492h225l-86 -492h-225zM252 757q40 0 66 -26.5t26 -66.5q0 -52 -41 -92t-91 -40q-40 0 -65.5 26t-25.5 66q0 52 40.5 92.5t90.5 40.5zM418 492h225l-98 -556q-29 -162 -206 -162q-51 0 -113 13l22 169q46 0 63.5 14t23.5 48zM578 757q40 0 66 -26.5t26 -66.5
q0 -52 -41 -92t-91 -40q-40 0 -65.5 26t-25.5 66q0 52 40.5 92.5t90.5 40.5z" />
    <glyph glyph-name="Jcircumflex" unicode="&#x134;" horiz-adv-x="706" 
d="M845 782l-61 -56l-154 105l-192 -105l-41 58l184 165h139zM280 -12q-133 0 -206.5 44.5t-73.5 132.5q0 50 17 90h209q-1 -5 -1 -15q0 -73 73 -73q39 0 64 21t33.5 45.5t15.5 62.5l68 387h237l-74 -421q-11 -59 -32.5 -105t-62 -86t-108 -61.5t-159.5 -21.5z" />
    <glyph glyph-name="jcircumflex" unicode="&#x135;" horiz-adv-x="334" 
d="M108 492h225l-98 -556q-29 -162 -206 -162q-51 0 -113 13l22 169q46 0 63.5 14t23.5 48zM468 597l-66 -56l-148 110l-187 -110l-47 58l188 185h138z" />
    <glyph glyph-name="Kcommaaccent" unicode="&#x136;" horiz-adv-x="735" 
d="M367 683l-43 -241h25l195 241h263l-277 -324l168 -359h-255l-116 269h-33l-47 -269h-239l120 683h239zM340 -30q35 0 56 -22t21 -56q0 -39 -24 -73l-128 -181l-50 23l58 119q-47 21 -47 71q0 48 34.5 83.5t79.5 35.5z" />
    <glyph glyph-name="kcommaaccent" unicode="&#x137;" horiz-adv-x="628" 
d="M257 181l-31 -181h-227l127 721h227l-66 -375h22l114 146h245l-198 -228l115 -264h-233l-68 181h-27zM278 -45q35 0 56 -22t21 -56q0 -39 -24 -73l-128 -181l-50 23l58 119q-47 21 -47 71q0 48 34.5 83.5t79.5 35.5z" />
    <glyph glyph-name="kgreenlandic" unicode="&#x138;" horiz-adv-x="628" 
d="M256 175l-30 -175h-227l87 494h227l-28 -154h26l101 152h256l-195 -232l112 -260h-240l-62 175h-27z" />
    <glyph glyph-name="Lacute" unicode="&#x139;" horiz-adv-x="599" 
d="M8 0l120 683h239l-89 -506h305l-31 -177h-544zM219 724l-48 104l256 160l64 -148z" />
    <glyph glyph-name="lacute" unicode="&#x13a;" horiz-adv-x="329" 
d="M29 161l100 560h225l-89 -502q-3 -15 -3 -27q0 -27 40 -28l-26 -172q-47 -5 -87 -5q-165 0 -165 126q0 18 5 48zM207 764l-48 104l256 160l64 -148z" />
    <glyph glyph-name="Lcommaaccent" unicode="&#x13b;" horiz-adv-x="599" 
d="M8 0l120 683h239l-89 -506h305l-31 -177h-544zM288 -45q35 0 56 -22t21 -56q0 -39 -24 -73l-128 -181l-50 23l58 119q-47 21 -47 71q0 48 34.5 83.5t79.5 35.5z" />
    <glyph glyph-name="lcommaaccent" unicode="&#x13c;" horiz-adv-x="329" 
d="M29 161l100 560h225l-89 -502q-3 -15 -3 -27q0 -27 40 -28l-26 -172q-47 -5 -87 -5q-165 0 -165 126q0 18 5 48zM125 -45q35 0 56 -22t21 -56q0 -39 -24 -73l-128 -181l-50 23l58 119q-47 21 -47 71q0 48 34.5 83.5t79.5 35.5z" />
    <glyph glyph-name="Lcaron" unicode="&#x13d;" horiz-adv-x="599" 
d="M8 0l120 683h239l-89 -506h305l-31 -177h-544zM558 670q35 0 56 -22t21 -56q0 -39 -24 -73l-128 -181l-50 23l58 119q-47 21 -47 71q0 48 34.5 83.5t79.5 35.5z" />
    <glyph glyph-name="lcaron" unicode="&#x13e;" horiz-adv-x="507" 
d="M485 722q35 0 56 -22t21 -56q0 -39 -24 -73l-128 -181l-50 23l58 119q-47 21 -47 71q0 48 34.5 83.5t79.5 35.5zM22 161l100 560h225l-89 -502q-3 -15 -3 -27q0 -27 40 -28l-26 -172q-47 -5 -87 -5q-165 0 -165 126q0 18 5 48z" />
    <glyph glyph-name="Ldot" unicode="&#x13f;" horiz-adv-x="599" 
d="M8 0l120 683h239l-89 -506h305l-31 -177h-544zM524 493q36 0 59.5 -24t23.5 -60q0 -47 -37 -83t-82 -36q-36 0 -59 23t-23 59q0 48 36 84.5t82 36.5z" />
    <glyph glyph-name="ldot" unicode="&#x140;" horiz-adv-x="521" 
d="M471 475q36 0 59.5 -24t23.5 -60q0 -47 -37 -83t-82 -36q-36 0 -59 23t-23 59q0 48 36 84.5t82 36.5zM48 161l100 560h225l-89 -502q-3 -15 -3 -27q0 -27 40 -28l-26 -172q-47 -5 -87 -5q-165 0 -165 126q0 18 5 48z" />
    <glyph glyph-name="Lslash" unicode="&#x141;" horiz-adv-x="599" 
d="M8 0l37 211l-46 -21l-20 92l85 38l64 363h239l-43 -246l103 47l22 -91l-145 -65l-26 -151h305l-31 -177h-544z" />
    <glyph glyph-name="lslash" unicode="&#x142;" horiz-adv-x="386" 
d="M60 152l12 64l-46 -23l-27 88l92 45l70 395h225l-48 -271l62 31l28 -88l-110 -54l-21 -120q-7 -25 -1 -39.5t38 -15.5l-29 -169q-59 -8 -104 -8q-33 0 -56 3.5t-44.5 14t-30.5 28.5t-14.5 47.5t4.5 71.5z" />
    <glyph glyph-name="Nacute" unicode="&#x143;" horiz-adv-x="766" 
d="M505 372h9l53 312h231l-121 -684h-209l-95 188q-34 66 -67 146l-7 -1l-58 -333h-233l121 684h221l82 -164q57 -109 73 -148zM420 724l-48 104l256 160l64 -148z" />
    <glyph glyph-name="nacute" unicode="&#x144;" horiz-adv-x="626" 
d="M290 414h6q72 95 168 95q174 0 141 -187l-56 -322h-225l49 278q12 67 -37 67q-51 0 -65 -84l-46 -261h-226l86 492h200q14 -29 5 -78zM318 537l-68 79l206 198l98 -115z" />
    <glyph glyph-name="Ncommaaccent" unicode="&#x145;" horiz-adv-x="766" 
d="M505 372h9l53 312h231l-121 -684h-209l-95 188q-34 66 -67 146l-7 -1l-58 -333h-233l121 684h221l82 -164q57 -109 73 -148zM335 -25q35 0 56 -22t21 -56q0 -39 -24 -73l-128 -181l-50 23l58 119q-47 21 -47 71q0 48 34.5 83.5t79.5 35.5z" />
    <glyph glyph-name="ncommaaccent" unicode="&#x146;" horiz-adv-x="626" 
d="M290 414h6q72 95 168 95q174 0 141 -187l-56 -322h-225l49 278q12 67 -37 67q-51 0 -65 -84l-46 -261h-226l86 492h200q14 -29 5 -78zM268 -45q35 0 56 -22t21 -56q0 -39 -24 -73l-128 -181l-50 23l58 119q-47 21 -47 71q0 48 34.5 83.5t79.5 35.5z" />
    <glyph glyph-name="Ncaron" unicode="&#x147;" horiz-adv-x="766" 
d="M505 372h9l53 312h231l-121 -684h-209l-95 188q-34 66 -67 146l-7 -1l-58 -333h-233l121 684h221l82 -164q57 -109 73 -148zM692 953l41 -56l-184 -167h-139l-126 165l62 58l158 -99z" />
    <glyph glyph-name="ncaron" unicode="&#x148;" horiz-adv-x="626" 
d="M290 414h6q72 95 168 95q174 0 141 -187l-56 -322h-225l49 278q12 67 -37 67q-51 0 -65 -84l-46 -261h-226l86 492h200q14 -29 5 -78zM557 784l46 -56l-188 -187h-138l-122 185l67 58l148 -110z" />
    <glyph glyph-name="napostrophe" unicode="&#x149;" horiz-adv-x="782" 
d="M446 414h6q72 95 168 95q174 0 141 -187l-56 -322h-225l49 278q12 67 -37 67q-51 0 -65 -84l-46 -261h-226l86 492h200q14 -29 5 -78zM207 785q35 0 56 -22t21 -56q0 -39 -24 -73l-128 -181l-50 23l58 119q-47 21 -47 71q0 48 34.5 83.5t79.5 35.5z" />
    <glyph glyph-name="Eng" unicode="&#x14a;" horiz-adv-x="766" 
d="M505 384h9l53 300h231l-123 -690q-8 -46 -17.5 -78.5t-28.5 -67t-46 -55.5t-70.5 -34.5t-101.5 -13.5q-90 0 -164 40l50 139q52 -13 76 -13q38 0 56 22t27 77l3 18l-85 168q-43 88 -66 146l-7 -1l-60 -341h-233l121 684h221l82 -152q46 -83 73 -148z" />
    <glyph glyph-name="eng" unicode="&#x14b;" horiz-adv-x="626" 
d="M290 414h6q72 95 168 95q174 0 141 -187l-60 -341q-9 -54 -25 -93t-45.5 -73.5t-79 -52t-118.5 -17.5q-92 0 -164 39l53 140q52 -13 76 -13q40 0 56 19t26 70l49 278q11 67 -37 67q-51 0 -65 -84l-46 -261h-226l86 492h200q14 -29 5 -78z" />
    <glyph glyph-name="Omacron" unicode="&#x14c;" horiz-adv-x="791" 
d="M478 699q150 0 224.5 -76t74.5 -207q0 -187 -114 -307.5t-312 -120.5q-152 0 -226.5 70t-74.5 194q0 196 115.5 321.5t312.5 125.5zM446 518q-35 0 -62.5 -20.5t-42.5 -49.5t-25 -65.5t-13.5 -64.5t-3.5 -51q0 -100 84 -100q68 0 106.5 74.5t38.5 172.5q0 104 -82 104z
M311 783l23 131h371l-23 -131h-371z" />
    <glyph glyph-name="omacron" unicode="&#x14d;" horiz-adv-x="636" 
d="M362 509q70 0 121 -18.5t78 -50.5t39 -69t12 -81q0 -40 -9 -79t-33 -80t-60.5 -72t-96 -51t-135.5 -20q-251 0 -251 201q0 138 85 229t250 91zM338 350q-41 0 -64.5 -44.5t-23.5 -98.5q0 -60 51 -60q39 0 63.5 40t24.5 102q0 61 -51 61zM195 585l23 131h372l-23 -131
h-372z" />
    <glyph glyph-name="Obreve" unicode="&#x14e;" horiz-adv-x="791" 
d="M478 699q150 0 224.5 -76t74.5 -207q0 -187 -114 -307.5t-312 -120.5q-152 0 -226.5 70t-74.5 194q0 196 115.5 321.5t312.5 125.5zM446 518q-35 0 -62.5 -20.5t-42.5 -49.5t-25 -65.5t-13.5 -64.5t-3.5 -51q0 -100 84 -100q68 0 106.5 74.5t38.5 172.5q0 104 -82 104z
M485 732q-98 0 -137 60.5t-27 148.5h103q-4 -48 18 -70t60 -22q34 0 65 25.5t47 66.5h108q-21 -84 -81 -146.5t-156 -62.5z" />
    <glyph glyph-name="obreve" unicode="&#x14f;" horiz-adv-x="636" 
d="M362 509q70 0 121 -18.5t78 -50.5t39 -69t12 -81q0 -40 -9 -79t-33 -80t-60.5 -72t-96 -51t-135.5 -20q-251 0 -251 201q0 138 85 229t250 91zM338 350q-41 0 -64.5 -44.5t-23.5 -98.5q0 -60 51 -60q39 0 63.5 40t24.5 102q0 61 -51 61zM374 547q-98 0 -137 60.5
t-27 148.5h103q-4 -48 18 -70t60 -22q34 0 65 25.5t47 66.5h108q-21 -84 -81 -146.5t-156 -62.5z" />
    <glyph glyph-name="Ohungarumlaut" unicode="&#x150;" horiz-adv-x="791" 
d="M478 699q150 0 224.5 -76t74.5 -207q0 -187 -114 -307.5t-312 -120.5q-152 0 -226.5 70t-74.5 194q0 196 115.5 321.5t312.5 125.5zM446 518q-35 0 -62.5 -20.5t-42.5 -49.5t-25 -65.5t-13.5 -64.5t-3.5 -51q0 -100 84 -100q68 0 106.5 74.5t38.5 172.5q0 104 -82 104z
M322 725l-52 85l242 190l73 -125zM582 725l-52 85l241 190l74 -125z" />
    <glyph glyph-name="ohungarumlaut" unicode="&#x151;" horiz-adv-x="636" 
d="M362 509q70 0 121 -18.5t78 -50.5t39 -69t12 -81q0 -40 -9 -79t-33 -80t-60.5 -72t-96 -51t-135.5 -20q-251 0 -251 201q0 138 85 229t250 91zM338 350q-41 0 -64.5 -44.5t-23.5 -98.5q0 -60 51 -60q39 0 63.5 40t24.5 102q0 61 -51 61zM223 537l-67 79l205 198l98 -115z
M464 537l-68 79l206 198l97 -115z" />
    <glyph glyph-name="OE" unicode="&#x152;" horiz-adv-x="997" 
d="M919 0h-458q-58 -12 -119 -12q-143 0 -215 70t-72 192q0 210 109.5 329.5t304.5 119.5q75 0 127 -15h409l-31 -177h-263l-12 -69h228l-30 -170h-228l-16 -91h297zM383 167q17 0 30 4l60 344q-12 3 -27 3q-52 0 -87 -43t-47 -95.5t-12 -108.5q0 -50 18.5 -77t64.5 -27z
" />
    <glyph glyph-name="oe" unicode="&#x153;" horiz-adv-x="954" 
d="M623 200q-5 -26 8 -43t40 -17q51 0 65 39h187q1 -7 1 -24q0 -81 -72.5 -124t-199.5 -43q-132 0 -179 60q-66 -60 -195 -60q-251 0 -251 201q0 138 85 229t250 91q106 0 175 -62q72 63 196 63q95 0 151.5 -38t56.5 -103q0 -78 -70.5 -123t-247.5 -46zM338 350
q-41 0 -64.5 -44.5t-23.5 -98.5q0 -60 51 -60q39 0 63.5 40t24.5 102q0 61 -51 61zM702 371q-55 0 -65 -64h11q85 0 85 39q0 25 -31 25z" />
    <glyph glyph-name="Racute" unicode="&#x154;" horiz-adv-x="684" 
d="M456 684q116 0 172 -47t56 -131q0 -68 -36.5 -129t-114.5 -91l106 -286h-254l-80 247h-14l-43 -247h-240l120 684h328zM387 507h-51l-19 -106h51q25 0 44.5 17.5t19.5 46.5q0 20 -13 31t-32 11zM342 724l-48 104l256 160l64 -148z" />
    <glyph glyph-name="racute" unicode="&#x155;" horiz-adv-x="443" 
d="M480 510l-30 -213q-104 -4 -144 -32.5t-52 -94.5l-29 -170h-226l86 492h200q14 -32 1 -111h5q33 60 85.5 94t103.5 35zM240 537l-68 79l206 198l98 -115z" />
    <glyph glyph-name="Rcommaaccent" unicode="&#x156;" horiz-adv-x="684" 
d="M456 684q116 0 172 -47t56 -131q0 -68 -36.5 -129t-114.5 -91l106 -286h-254l-80 247h-14l-43 -247h-240l120 684h328zM387 507h-51l-19 -106h51q25 0 44.5 17.5t19.5 46.5q0 20 -13 31t-32 11zM291 -25q35 0 56 -22t21 -56q0 -39 -24 -73l-128 -181l-50 23l58 119
q-47 21 -47 71q0 48 34.5 83.5t79.5 35.5z" />
    <glyph glyph-name="rcommaaccent" unicode="&#x157;" horiz-adv-x="443" 
d="M480 510l-30 -213q-104 -4 -144 -32.5t-52 -94.5l-29 -170h-226l86 492h200q14 -32 1 -111h5q33 60 85.5 94t103.5 35zM103 -45q35 0 56 -22t21 -56q0 -39 -24 -73l-128 -181l-50 23l58 119q-47 21 -47 71q0 48 34.5 83.5t79.5 35.5z" />
    <glyph glyph-name="Rcaron" unicode="&#x158;" horiz-adv-x="684" 
d="M456 684q116 0 172 -47t56 -131q0 -68 -36.5 -129t-114.5 -91l106 -286h-254l-80 247h-14l-43 -247h-240l120 684h328zM387 507h-51l-19 -106h51q25 0 44.5 17.5t19.5 46.5q0 20 -13 31t-32 11zM614 953l41 -56l-184 -167h-139l-126 165l62 58l158 -99z" />
    <glyph glyph-name="rcaron" unicode="&#x159;" horiz-adv-x="443" 
d="M480 510l-30 -213q-104 -4 -144 -32.5t-52 -94.5l-29 -170h-226l86 492h200q14 -32 1 -111h5q33 60 85.5 94t103.5 35zM474 793l46 -56l-188 -187h-138l-122 185l67 58l148 -110z" />
    <glyph glyph-name="Sacute" unicode="&#x15a;" horiz-adv-x="685" 
d="M424 699q110 0 182.5 -44t72.5 -128q0 -38 -14 -75h-206q2 14 2 20q0 52 -61 52q-25 0 -40 -13t-17.5 -22.5t-2.5 -14.5q0 -25 51 -35q138 -26 198 -74.5t60 -126.5q0 -110 -88 -180t-269 -70q-118 0 -192 45t-74 135q0 48 15 81h201q-1 -5 -1 -15q0 -71 84 -71
q38 0 57 18.5t19 37.5q0 17 -18.5 28.5t-67.5 21.5q-115 23 -170 61t-55 117q0 41 17 82.5t53 81t104.5 64t159.5 24.5zM377 724l-48 104l256 160l64 -148z" />
    <glyph glyph-name="sacute" unicode="&#x15b;" horiz-adv-x="554" 
d="M228 -12q-99 0 -159.5 33t-60.5 100q0 28 10 51h185q0 -2 -0.5 -4t-0.5 -3q0 -41 50 -41q15 0 28 7.5t13 19.5q0 13 -25 23t-60 20.5t-70.5 25t-60.5 42.5t-25 67q0 29 12 57t40 57.5t86 48t139 18.5q89 0 148.5 -33.5t59.5 -95.5q0 -27 -10 -49h-184v7q0 37 -41 37
q-16 0 -26 -7.5t-10 -17.5q0 -13 25.5 -22.5t62 -19t73 -23.5t62 -45.5t25.5 -76.5q0 -83 -73 -129.5t-213 -46.5zM317 537l-68 79l206 198l98 -115z" />
    <glyph glyph-name="Scircumflex" unicode="&#x15c;" horiz-adv-x="685" 
d="M424 699q110 0 182.5 -44t72.5 -128q0 -38 -14 -75h-206q2 14 2 20q0 52 -61 52q-25 0 -40 -13t-17.5 -22.5t-2.5 -14.5q0 -25 51 -35q138 -26 198 -74.5t60 -126.5q0 -110 -88 -180t-269 -70q-118 0 -192 45t-74 135q0 48 15 81h201q-1 -5 -1 -15q0 -71 84 -71
q38 0 57 18.5t19 37.5q0 17 -18.5 28.5t-67.5 21.5q-115 23 -170 61t-55 117q0 41 17 82.5t53 81t104.5 64t159.5 24.5zM670 780l-61 -56l-154 105l-192 -105l-41 58l184 165h139z" />
    <glyph glyph-name="scircumflex" unicode="&#x15d;" horiz-adv-x="554" 
d="M228 -12q-99 0 -159.5 33t-60.5 100q0 28 10 51h185q0 -2 -0.5 -4t-0.5 -3q0 -41 50 -41q15 0 28 7.5t13 19.5q0 13 -25 23t-60 20.5t-70.5 25t-60.5 42.5t-25 67q0 29 12 57t40 57.5t86 48t139 18.5q89 0 148.5 -33.5t59.5 -95.5q0 -27 -10 -49h-184v7q0 37 -41 37
q-16 0 -26 -7.5t-10 -17.5q0 -13 25.5 -22.5t62 -19t73 -23.5t62 -45.5t25.5 -76.5q0 -83 -73 -129.5t-213 -46.5zM560 597l-66 -56l-148 110l-187 -110l-47 58l188 185h138z" />
    <glyph glyph-name="Scedilla" unicode="&#x15e;" horiz-adv-x="685" 
d="M424 699q110 0 182.5 -44t72.5 -128q0 -38 -14 -75h-206q2 14 2 20q0 52 -61 52q-25 0 -40 -13t-17.5 -22.5t-2.5 -14.5q0 -25 51 -35q138 -26 198 -74.5t60 -126.5q0 -103 -77 -171t-234 -77l-32 -46q77 0 108 -28t31 -69q0 -24 -10.5 -48t-31.5 -46.5t-59 -37
t-86 -14.5q-68 0 -129 23l31 76q35 -7 69 -7q76 0 76 42q0 25 -35 25q-22 0 -38 -8l-50 38l68 100q-102 7 -163 51.5t-61 126.5q0 48 15 81h201q-1 -5 -1 -15q0 -71 84 -71q38 0 57 18.5t19 37.5q0 17 -18.5 28.5t-67.5 21.5q-115 23 -170 61t-55 117q0 41 17 82.5t53 81
t104.5 64t159.5 24.5z" />
    <glyph glyph-name="scedilla" unicode="&#x15f;" horiz-adv-x="554" 
d="M182 -299q-68 0 -129 23l31 76q35 -7 69 -7q76 0 76 42q0 25 -35 25q-22 0 -38 -8l-50 38l69 101q-77 7 -122 39.5t-45 90.5q0 28 10 51h185q0 -2 -0.5 -4t-0.5 -3q0 -41 50 -41q15 0 28 7.5t13 19.5q0 13 -25 23t-60 20.5t-70.5 25t-60.5 42.5t-25 67q0 29 12 57
t40 57.5t86 48t139 18.5q89 0 148.5 -33.5t59.5 -95.5q0 -27 -10 -49h-184v7q0 37 -41 37q-16 0 -26 -7.5t-10 -17.5q0 -13 25.5 -22.5t62 -19t73 -23.5t62 -45.5t25.5 -76.5q0 -78 -64.5 -124t-188.5 -51l-31 -45q77 0 108 -28t31 -69q0 -24 -10.5 -48t-31.5 -46.5t-59 -37
t-86 -14.5z" />
    <glyph glyph-name="Scaron" unicode="&#x160;" horiz-adv-x="685" 
d="M424 699q110 0 182.5 -44t72.5 -128q0 -38 -14 -75h-206q2 14 2 20q0 52 -61 52q-25 0 -40 -13t-17.5 -22.5t-2.5 -14.5q0 -25 51 -35q138 -26 198 -74.5t60 -126.5q0 -110 -88 -180t-269 -70q-118 0 -192 45t-74 135q0 48 15 81h201q-1 -5 -1 -15q0 -71 84 -71
q38 0 57 18.5t19 37.5q0 17 -18.5 28.5t-67.5 21.5q-115 23 -170 61t-55 117q0 41 17 82.5t53 81t104.5 64t159.5 24.5zM648 953l41 -56l-184 -167h-139l-126 165l62 58l158 -99z" />
    <glyph glyph-name="scaron" unicode="&#x161;" horiz-adv-x="554" 
d="M228 -12q-99 0 -159.5 33t-60.5 100q0 28 10 51h185q0 -2 -0.5 -4t-0.5 -3q0 -41 50 -41q15 0 28 7.5t13 19.5q0 13 -25 23t-60 20.5t-70.5 25t-60.5 42.5t-25 67q0 29 12 57t40 57.5t86 48t139 18.5q89 0 148.5 -33.5t59.5 -95.5q0 -27 -10 -49h-184v7q0 37 -41 37
q-16 0 -26 -7.5t-10 -17.5q0 -13 25.5 -22.5t62 -19t73 -23.5t62 -45.5t25.5 -76.5q0 -83 -73 -129.5t-213 -46.5zM543 784l46 -56l-188 -187h-138l-122 185l67 58l148 -110z" />
    <glyph glyph-name="Tcommaaccent" unicode="&#x162;" horiz-adv-x="620" 
d="M477 506l-89 -506h-239l89 506h-181l31 177h604l-31 -177h-184zM263 -45q35 0 56 -22t21 -56q0 -39 -24 -73l-128 -181l-50 23l58 119q-47 21 -47 71q0 48 34.5 83.5t79.5 35.5z" />
    <glyph glyph-name="tcommaaccent" unicode="&#x163;" horiz-adv-x="447" 
d="M422 342h-102l-17 -95q-8 -45 4.5 -60t54.5 -15q17 0 41 3l-30 -173q-52 -13 -140 -13q-201 0 -168 183l30 170h-65l23 131l76 18l67 154h176l-27 -154h103zM170 -44q35 0 56 -22t21 -56q0 -39 -24 -73l-128 -181l-50 23l58 119q-47 21 -47 71q0 48 34.5 83.5t79.5 35.5z
" />
    <glyph glyph-name="Tcaron" unicode="&#x164;" horiz-adv-x="620" 
d="M477 506l-89 -506h-239l89 506h-181l31 177h604l-31 -177h-184zM621 953l41 -56l-184 -167h-139l-126 165l62 58l158 -99z" />
    <glyph glyph-name="tcaron" unicode="&#x165;" horiz-adv-x="511" 
d="M534 851q35 0 56 -22t21 -56q0 -39 -24 -73l-128 -181l-50 23l58 119q-47 21 -47 71q0 48 34.5 83.5t79.5 35.5zM419 342h-102l-17 -95q-8 -45 4.5 -60t54.5 -15q17 0 41 3l-30 -173q-52 -13 -140 -13q-201 0 -168 183l30 170h-65l23 131l76 18l67 154h176l-27 -154h103z
" />
    <glyph glyph-name="Tbar" unicode="&#x166;" horiz-adv-x="620" 
d="M477 506l-20 -113h114l-19 -104h-114l-50 -289h-239l50 289h-107l19 104h107l20 113h-181l31 177h604l-31 -177h-184z" />
    <glyph glyph-name="tbar" unicode="&#x167;" horiz-adv-x="447" 
d="M422 342h-102l-7 -38h83l-15 -87h-81q-1 -26 13.5 -35.5t48.5 -9.5q17 0 41 3l-30 -173q-52 -13 -140 -13q-201 0 -168 183l8 45h-63l15 87h63l7 38h-65l23 131l76 18l67 154h176l-27 -154h103z" />
    <glyph glyph-name="Utilde" unicode="&#x168;" horiz-adv-x="759" 
d="M790 683l-70 -399q-24 -134 -118 -214.5t-255 -80.5q-149 0 -223 58t-74 164q0 25 7 67l71 405h238l-72 -407q-3 -18 -3 -33q0 -77 75 -77q94 0 114 111l72 406h238zM549 748q-26 0 -72 17t-65 17q-52 0 -89 -39l-73 57q66 120 160 120q22 0 71.5 -18.5t73.5 -18.5
q38 0 82 40l73 -50q-24 -57 -68.5 -91t-92.5 -34z" />
    <glyph glyph-name="utilde" unicode="&#x169;" horiz-adv-x="616" 
d="M332 75h-6q-67 -87 -170 -87q-87 0 -116 47t-13 140l56 317h225l-50 -283q-12 -67 32 -67q46 0 60 84l47 266h226l-86 -492h-199q-13 23 -6 75zM455 578q-26 0 -72 17t-65 17q-52 0 -89 -39l-73 57q66 120 160 120q22 0 71.5 -18.5t73.5 -18.5q38 0 82 40l73 -50
q-24 -57 -68.5 -91t-92.5 -34z" />
    <glyph glyph-name="Umacron" unicode="&#x16a;" horiz-adv-x="759" 
d="M790 683l-70 -399q-24 -134 -118 -214.5t-255 -80.5q-149 0 -223 58t-74 164q0 25 7 67l71 405h238l-72 -407q-3 -18 -3 -33q0 -77 75 -77q94 0 114 111l72 406h238zM288 783l23 131h371l-23 -131h-371z" />
    <glyph glyph-name="umacron" unicode="&#x16b;" horiz-adv-x="616" 
d="M332 75h-6q-67 -87 -170 -87q-87 0 -116 47t-13 140l56 317h225l-50 -283q-12 -67 32 -67q46 0 60 84l47 266h226l-86 -492h-199q-13 23 -6 75zM181 585l23 131h372l-23 -131h-372z" />
    <glyph glyph-name="Ubreve" unicode="&#x16c;" horiz-adv-x="759" 
d="M790 683l-70 -399q-24 -134 -118 -214.5t-255 -80.5q-149 0 -223 58t-74 164q0 25 7 67l71 405h238l-72 -407q-3 -18 -3 -33q0 -77 75 -77q94 0 114 111l72 406h238zM470 726q-98 0 -137 60.5t-27 148.5h103q-4 -48 18 -70t60 -22q34 0 65 25.5t47 66.5h108
q-21 -84 -81 -146.5t-156 -62.5z" />
    <glyph glyph-name="ubreve" unicode="&#x16d;" horiz-adv-x="616" 
d="M332 75h-6q-67 -87 -170 -87q-87 0 -116 47t-13 140l56 317h225l-50 -283q-12 -67 32 -67q46 0 60 84l47 266h226l-86 -492h-199q-13 23 -6 75zM362 547q-98 0 -137 60.5t-27 148.5h103q-4 -48 18 -70t60 -22q34 0 65 25.5t47 66.5h108q-21 -84 -81 -146.5t-156 -62.5z
" />
    <glyph glyph-name="Uring" unicode="&#x16e;" horiz-adv-x="759" 
d="M790 683l-70 -399q-24 -134 -118 -214.5t-255 -80.5q-149 0 -223 58t-74 164q0 25 7 67l71 405h238l-72 -407q-3 -18 -3 -33q0 -77 75 -77q94 0 114 111l72 406h238zM512 988q55 0 88 -34t33 -86q0 -69 -49.5 -116.5t-121.5 -47.5q-53 0 -86 32t-33 81q0 69 48 120
t121 51zM494 890q-18 0 -34 -16.5t-16 -38.5q0 -15 9.5 -25t24.5 -10q21 0 36 15.5t15 36.5q0 17 -9.5 27.5t-25.5 10.5z" />
    <glyph glyph-name="uring" unicode="&#x16f;" horiz-adv-x="616" 
d="M332 75h-6q-67 -87 -170 -87q-87 0 -116 47t-13 140l56 317h225l-50 -283q-12 -67 32 -67q46 0 60 84l47 266h226l-86 -492h-199q-13 23 -6 75zM408 823q55 0 88 -34t33 -86q0 -69 -49.5 -116.5t-121.5 -47.5q-53 0 -86 32t-33 81q0 69 48 120t121 51zM390 725
q-18 0 -34 -16.5t-16 -38.5q0 -15 9.5 -25t24.5 -10q21 0 36 15.5t15 36.5q0 17 -9.5 27.5t-25.5 10.5z" />
    <glyph glyph-name="Uhungarumlaut" unicode="&#x170;" horiz-adv-x="759" 
d="M790 683l-70 -399q-24 -134 -118 -214.5t-255 -80.5q-149 0 -223 58t-74 164q0 25 7 67l71 405h238l-72 -407q-3 -18 -3 -33q0 -77 75 -77q94 0 114 111l72 406h238zM271 725l-52 85l242 190l73 -125zM531 725l-52 85l241 190l74 -125z" />
    <glyph glyph-name="uhungarumlaut" unicode="&#x171;" horiz-adv-x="616" 
d="M332 75h-6q-67 -87 -170 -87q-87 0 -116 47t-13 140l56 317h225l-50 -283q-12 -67 32 -67q46 0 60 84l47 266h226l-86 -492h-199q-13 23 -6 75zM196 537l-67 79l205 198l98 -115zM437 537l-68 79l206 198l97 -115z" />
    <glyph glyph-name="Uogonek" unicode="&#x172;" horiz-adv-x="759" 
d="M790 683l-70 -399q-23 -128 -110.5 -208t-237.5 -86q-83 -85 -83 -147q0 -57 93 -57q31 0 62 8l4 -71q-86 -38 -162 -38q-68 0 -102 26t-34 70q0 43 34.5 102t96.5 110q-116 12 -173.5 68t-57.5 150q0 25 7 67l71 405h238l-72 -407q-3 -18 -3 -33q0 -77 75 -77
q94 0 114 111l72 406h238z" />
    <glyph glyph-name="uogonek" unicode="&#x173;" horiz-adv-x="616" 
d="M332 75h-6q-67 -87 -170 -87q-87 0 -116 47t-13 140l56 317h225l-50 -283q-12 -67 32 -67q46 0 60 84l47 266h226l-86 -492h-130q-94 -90 -94 -157q0 -57 93 -57q31 0 62 8l4 -71q-86 -38 -162 -38q-68 0 -102 26t-34 70q0 49 41.5 114.5t116.5 117.5q-6 22 0 62z" />
    <glyph glyph-name="Wcircumflex" unicode="&#x174;" horiz-adv-x="1062" 
d="M563 402h-6q-19 -59 -68 -188l-83 -218h-283l-38 687h257l-5 -222q-1 -78 -10 -194h8q18 55 74 197l86 219h246l-2 -205v-111.5t-1 -91.5h8q9 33 65 201l69 207h257l-280 -687h-283l-8 216q-1 22 -3.5 74.5t-2 58t2.5 57.5zM857 780l-61 -56l-154 105l-192 -105l-41 58
l184 165h139z" />
    <glyph glyph-name="wcircumflex" unicode="&#x175;" horiz-adv-x="925" 
d="M639 200h5l41 105q17 43 27 77.5t13.5 53t9.5 56.5h222q-10 -77 -21 -117t-46 -106l-142 -273h-260l-9 123q-7 91 -7 133h-8q-20 -64 -46 -130l-49 -126h-262l-67 496h223l8 -145q4 -89 5 -147h5q23 77 41 126l38 104h265l9 -115q4 -54 5 -115zM738 597l-66 -56l-148 110
l-187 -110l-47 58l188 185h138z" />
    <glyph glyph-name="Ycircumflex" unicode="&#x176;" horiz-adv-x="707" 
d="M380 405h10q21 48 67 131l82 147h243l-307 -458l-39 -225h-237l36 208l-150 475h245l31 -153q17 -80 19 -125zM657 780l-61 -56l-154 105l-192 -105l-41 58l184 165h139z" />
    <glyph glyph-name="ycircumflex" unicode="&#x177;" horiz-adv-x="636" 
d="M338 -205h-224l110 206l-85 -2l-101 493h234l14 -161q11 -111 4 -194h6l69 159q36 82 56 195h227q-1 -8 -5 -32.5t-5.5 -31.5t-5.5 -27t-7.5 -30t-9.5 -27.5t-13.5 -34t-17.5 -35.5zM583 597l-66 -56l-148 110l-187 -110l-47 58l188 185h138z" />
    <glyph glyph-name="Ydieresis" unicode="&#x178;" horiz-adv-x="707" 
d="M380 405h10q21 48 67 131l82 147h243l-307 -458l-39 -225h-237l36 208l-150 475h245l31 -153q17 -80 19 -125zM364 930q33 0 54 -22t21 -55q0 -43 -33 -75.5t-74 -32.5q-34 0 -55 21.5t-21 53.5q0 43 33 76.5t75 33.5zM591 930q33 0 54 -22t21 -55q0 -43 -33 -75.5
t-74 -32.5q-33 0 -54.5 21.5t-21.5 53.5q0 43 33 76.5t75 33.5z" />
    <glyph glyph-name="Zacute" unicode="&#x179;" horiz-adv-x="654" 
d="M312 177h318l-31 -177h-624l28 161l355 349h-265l31 174h579l-27 -153zM375 724l-48 104l256 160l64 -148z" />
    <glyph glyph-name="zacute" unicode="&#x17a;" horiz-adv-x="532" 
d="M307 162l1 -4h186l-27 -158h-488l20 116l218 213l-1 4h-159l28 159h458l-20 -113zM317 537l-68 79l206 198l98 -115z" />
    <glyph glyph-name="Zdotaccent" unicode="&#x17b;" horiz-adv-x="654" 
d="M312 177h318l-31 -177h-624l28 161l355 349h-265l31 174h579l-27 -153zM447 934q36 0 59.5 -24t23.5 -60q0 -47 -37 -83t-82 -36q-36 0 -59 23t-23 59q0 48 36 84.5t82 36.5z" />
    <glyph glyph-name="zdotaccent" unicode="&#x17c;" horiz-adv-x="532" 
d="M307 162l1 -4h186l-27 -158h-488l20 116l218 213l-1 4h-159l28 159h458l-20 -113zM380 764q36 0 59.5 -24t23.5 -60q0 -47 -37 -83t-82 -36q-36 0 -59 23t-23 59q0 48 36 84.5t82 36.5z" />
    <glyph glyph-name="Zcaron" unicode="&#x17d;" horiz-adv-x="654" 
d="M312 177h318l-31 -177h-624l28 161l355 349h-265l31 174h579l-27 -153zM646 953l41 -56l-184 -167h-139l-126 165l62 58l158 -99z" />
    <glyph glyph-name="zcaron" unicode="&#x17e;" horiz-adv-x="532" 
d="M307 162l1 -4h186l-27 -158h-488l20 116l218 213l-1 4h-159l28 159h458l-20 -113zM539 784l46 -56l-188 -187h-138l-122 185l67 58l148 -110z" />
    <glyph glyph-name="florin" unicode="&#x192;" horiz-adv-x="698" 
d="M164 260l8 139h95l9 51q19 110 69 165t141 55q59 0 148 -23l-36 -165q-23 5 -44 5q-58 0 -66 -53l-5 -35h103l-8 -139h-120l-13 -86q-18 -124 -50 -189.5t-75 -86.5t-117 -21q-60 0 -136 23l40 162q23 -5 39 -5q33 0 52.5 29t34.5 120l9 54h-78z" />
    <glyph glyph-name="Ohorn" unicode="&#x1a0;" horiz-adv-x="856" 
d="M478 699q164 0 240 -93q45 4 63 27.5t24 77.5l10 82h139l-14 -114q-3 -24 -7 -41.5t-15.5 -44.5t-28 -46t-47.5 -36.5t-72 -24.5q7 -38 7 -70q0 -187 -114 -307.5t-312 -120.5q-152 0 -226.5 70t-74.5 194q0 196 115.5 321.5t312.5 125.5zM446 518q-35 0 -62.5 -20.5
t-42.5 -49.5t-25 -65.5t-13.5 -64.5t-3.5 -51q0 -100 84 -100q68 0 106.5 74.5t38.5 172.5q0 104 -82 104z" />
    <glyph glyph-name="ohorn" unicode="&#x1a1;" horiz-adv-x="742" 
d="M362 509q146 0 208 -81q46 3 64 27t24 78l10 82h139l-14 -114q-4 -32 -11 -55t-24.5 -55.5t-55 -54.5t-91.5 -29q1 -6 1 -17q0 -40 -9 -79t-33 -80t-60.5 -72t-96 -51t-135.5 -20q-251 0 -251 201q0 138 85 229t250 91zM338 350q-41 0 -64.5 -44.5t-23.5 -98.5
q0 -60 51 -60q39 0 63.5 40t24.5 102q0 61 -51 61z" />
    <glyph glyph-name="Uhorn" unicode="&#x1af;" horiz-adv-x="916" 
d="M790 683l-14 -78q38 1 56 25t28 81l15 85h142l-21 -117q-34 -202 -243 -206l-33 -189q-24 -134 -118 -214.5t-255 -80.5q-149 0 -223 58t-74 164q0 25 7 67l71 405h238l-72 -407q-3 -18 -3 -33q0 -77 75 -77q94 0 114 111l72 406h238z" />
    <glyph glyph-name="uhorn" unicode="&#x1b0;" horiz-adv-x="775" 
d="M332 75h-6q-67 -87 -170 -87q-87 0 -116 47t-13 140l56 317h225l-50 -283q-12 -67 32 -67q46 0 60 84l47 266h226l-13 -70q34 3 50 27t26 79l15 85h142l-21 -117q-34 -197 -235 -206l-50 -290h-199q-13 23 -6 75z" />
    <glyph glyph-name="AEacute" unicode="&#x1fc;" horiz-adv-x="1101" 
d="M535 0l14 128h-230l-84 -128h-255l481 684h637l-18 -178h-254l-9 -69h230l-19 -169h-230l-9 -91h277l-18 -177h-513zM593 512l-4 1l-153 -220h131zM725 724l-48 104l256 160l64 -148z" />
    <glyph glyph-name="aeacute" unicode="&#x1fd;" horiz-adv-x="916" 
d="M505 537l-68 79l206 198l98 -115zM573 200q-2 -10 -2 -14q0 -21 13.5 -33.5t36.5 -12.5q51 0 65 39h187q1 -7 1 -24q0 -81 -72.5 -124t-199.5 -43q-144 0 -204 65q-62 -40 -115.5 -53.5t-122.5 -13.5q-72 0 -112.5 30.5t-40.5 88.5q0 45 17.5 80t45.5 56t66.5 34.5
t76.5 18.5t80 5h76q5 18 5 30q0 42 -46 42q-42 0 -56 -41h-188q0 52 24 88.5t66.5 55.5t88 27t98.5 8q98 0 149 -39q77 40 173 40q95 0 151.5 -38t56.5 -103q0 -78 -70.5 -123t-247.5 -46zM353 207h-41q-72 0 -72 -47q0 -27 33 -27q23 0 46 12t33 26v5q0 19 1 31zM652 371
q-55 0 -65 -64h11q85 0 85 39q0 25 -31 25z" />
    <glyph glyph-name="Oslashacute" unicode="&#x1fe;" horiz-adv-x="791" 
d="M441 724l-48 104l256 160l64 -148zM478 699q129 0 204 -58l57 53l46 -50l-56 -52q48 -70 48 -176q0 -187 -114 -307.5t-312 -120.5q-135 0 -211 56l-70 -65l-44 53l67 62q-43 62 -43 158q0 196 115.5 321.5t312.5 125.5zM383 167q66 0 104.5 70.5t40.5 167.5l-217 -202
q19 -36 72 -36zM446 518q-40 0 -69.5 -25t-45 -64t-23 -74t-9.5 -69l214 198q-21 34 -67 34z" />
    <glyph glyph-name="oslashacute" unicode="&#x1ff;" horiz-adv-x="636" 
d="M343 537l-68 79l206 198l98 -115zM362 509q102 0 163 -40l60 50l41 -54l-52 -43q38 -55 38 -132q0 -40 -9 -79t-33 -80t-60.5 -72t-96 -51t-135.5 -20q-112 0 -174 40l-58 -48l-41 54l51 42q-29 44 -29 113q0 138 85 229t250 91zM301 147q35 0 58.5 33t28.5 86l-125 -105
q12 -14 38 -14zM338 350q-34 0 -56.5 -31.5t-29.5 -77.5l118 98q-13 11 -32 11z" />
    <glyph glyph-name="Scommaaccent" unicode="&#x218;" horiz-adv-x="685" 
d="M424 699q110 0 182.5 -44t72.5 -128q0 -38 -14 -75h-206q2 14 2 20q0 52 -61 52q-25 0 -40 -13t-17.5 -22.5t-2.5 -14.5q0 -25 51 -35q138 -26 198 -74.5t60 -126.5q0 -110 -88 -180t-269 -70q-118 0 -192 45t-74 135q0 48 15 81h201q-1 -5 -1 -15q0 -71 84 -71
q38 0 57 18.5t19 37.5q0 17 -18.5 28.5t-67.5 21.5q-115 23 -170 61t-55 117q0 41 17 82.5t53 81t104.5 64t159.5 24.5zM300 -45q35 0 56 -22t21 -56q0 -39 -24 -73l-128 -181l-50 23l58 119q-47 21 -47 71q0 48 34.5 83.5t79.5 35.5z" />
    <glyph glyph-name="scommaaccent" unicode="&#x219;" horiz-adv-x="554" 
d="M228 -12q-99 0 -159.5 33t-60.5 100q0 28 10 51h185q0 -2 -0.5 -4t-0.5 -3q0 -41 50 -41q15 0 28 7.5t13 19.5q0 13 -25 23t-60 20.5t-70.5 25t-60.5 42.5t-25 67q0 29 12 57t40 57.5t86 48t139 18.5q89 0 148.5 -33.5t59.5 -95.5q0 -27 -10 -49h-184v7q0 37 -41 37
q-16 0 -26 -7.5t-10 -17.5q0 -13 25.5 -22.5t62 -19t73 -23.5t62 -45.5t25.5 -76.5q0 -83 -73 -129.5t-213 -46.5zM237 -45q35 0 56 -22t21 -56q0 -39 -24 -73l-128 -181l-50 23l58 119q-47 21 -47 71q0 48 34.5 83.5t79.5 35.5z" />
    <glyph glyph-name="schwa" unicode="&#x259;" horiz-adv-x="610" 
d="M356 298q1 5 1 14q0 21 -13 33.5t-36 12.5q-39 0 -53 -39h-187v9q0 51 23.5 88.5t63 57t82 28t90.5 8.5q127 0 190 -58.5t63 -153.5q0 -148 -88 -229t-246 -81q-95 0 -151.5 38t-56.5 103q0 78 70.5 123t247.5 46zM277 127q55 0 65 64q-96 0 -96 -39q0 -25 31 -25z" />
    <glyph glyph-name="primemod" unicode="&#x2b9;" horiz-adv-x="276" 
d="M176 368l-111 48l179 353l158 -64z" />
    <glyph glyph-name="circumflex" unicode="&#x2c6;" horiz-adv-x="571" 
d="M594 597l-66 -56l-148 110l-187 -110l-47 58l188 185h138z" />
    <glyph glyph-name="caron" unicode="&#x2c7;" horiz-adv-x="571" 
d="M571 784l46 -56l-188 -187h-138l-122 185l67 58l148 -110z" />
    <glyph glyph-name="breve" unicode="&#x2d8;" horiz-adv-x="577" 
d="M356 547q-98 0 -137 60.5t-27 148.5h103q-4 -48 18 -70t60 -22q34 0 65 25.5t47 66.5h108q-21 -84 -81 -146.5t-156 -62.5z" />
    <glyph glyph-name="dotaccent" unicode="&#x2d9;" horiz-adv-x="569" 
d="M396 764q36 0 59.5 -24t23.5 -60q0 -47 -37 -83t-82 -36q-36 0 -59 23t-23 59q0 48 36 84.5t82 36.5z" />
    <glyph glyph-name="ring" unicode="&#x2da;" horiz-adv-x="531" 
d="M390 823q55 0 88 -34t33 -86q0 -69 -49.5 -116.5t-121.5 -47.5q-53 0 -86 32t-33 81q0 69 48 120t121 51zM372 725q-18 0 -34 -16.5t-16 -38.5q0 -15 9.5 -25t24.5 -10q21 0 36 15.5t15 36.5q0 17 -9.5 27.5t-25.5 10.5z" />
    <glyph glyph-name="ogonek" unicode="&#x2db;" horiz-adv-x="538" 
d="M360 52l29 -35q-46 -40 -79.5 -88t-33.5 -86q0 -57 93 -57q31 0 62 8l4 -71q-85 -38 -162 -38q-68 0 -102 26t-34 70q0 59 59.5 138.5t163.5 132.5z" />
    <glyph glyph-name="tilde" unicode="&#x2dc;" horiz-adv-x="558" 
d="M439 578q-26 0 -72 17t-65 17q-52 0 -89 -39l-73 57q66 120 160 120q22 0 71.5 -18.5t73.5 -18.5q38 0 82 40l73 -50q-24 -57 -68.5 -91t-92.5 -34z" />
    <glyph glyph-name="hungarumlaut" unicode="&#x2dd;" horiz-adv-x="611" 
d="M209 537l-67 79l205 198l98 -115zM450 537l-68 79l206 198l97 -115z" />
    <glyph glyph-name="tonos" unicode="&#x384;" horiz-adv-x="571" 
d="M342 541l-83 62l172 227l120 -90z" />
    <glyph glyph-name="dieresistonos" unicode="&#x385;" horiz-adv-x="571" 
d="M352 543l-92 39l117 256l134 -53zM199 751q32 0 52.5 -21.5t20.5 -53.5q0 -41 -32.5 -73t-72.5 -32q-32 0 -52.5 20.5t-20.5 52.5q0 42 32.5 74.5t72.5 32.5zM563 751q32 0 52.5 -21.5t20.5 -53.5q0 -41 -32.5 -73t-72.5 -32q-32 0 -52.5 20.5t-20.5 52.5q0 42 32.5 74.5
t72.5 32.5z" />
    <glyph glyph-name="Alphatonos" unicode="&#x386;" horiz-adv-x="760" 
d="M477 0l-12 124h-202l-54 -124h-244l349 684h309l92 -684h-238zM370 354l-35 -73h119l-4 53q-10 116 -5 173h-9q-23 -58 -66 -153zM27 471l-83 62l172 227l120 -90z" />
    <glyph glyph-name="anoteleia" unicode="&#x387;" horiz-adv-x="300" 
d="M194 487q41 0 67.5 -27t26.5 -68q0 -53 -41 -93.5t-93 -40.5q-40 0 -66 26.5t-26 66.5q0 55 40.5 95.5t91.5 40.5z" />
    <glyph glyph-name="Epsilontonos" unicode="&#x388;" horiz-adv-x="633" 
d="M8 0l120 684h533l-31 -177h-294l-12 -69h259l-30 -170h-259l-16 -91h330l-31 -177h-569zM-114 471l-83 62l172 227l120 -90z" />
    <glyph glyph-name="Etatonos" unicode="&#x389;" horiz-adv-x="760" 
d="M433 0l46 261h-185l-46 -261h-240l120 683h240l-44 -248h185l44 248h238l-120 -683h-238zM-111 470l-83 62l172 227l120 -90z" />
    <glyph glyph-name="Iotatonos" unicode="&#x38a;" horiz-adv-x="355" 
d="M18 0l120 683h239l-120 -683h-239zM-107 471l-83 62l172 227l120 -90z" />
    <glyph glyph-name="Omicrontonos" unicode="&#x38c;" horiz-adv-x="791" 
d="M478 699q150 0 224.5 -76t74.5 -207q0 -187 -114 -307.5t-312 -120.5q-152 0 -226.5 70t-74.5 194q0 196 115.5 321.5t312.5 125.5zM446 518q-35 0 -62.5 -20.5t-42.5 -49.5t-25 -65.5t-13.5 -64.5t-3.5 -51q0 -100 84 -100q68 0 106.5 74.5t38.5 172.5q0 104 -82 104z
M-56 471l-83 62l172 227l120 -90z" />
    <glyph glyph-name="Upsilontonos" unicode="&#x38e;" horiz-adv-x="707" 
d="M380 405h10q21 48 67 131l82 147h243l-307 -458l-39 -225h-237l36 208l-150 475h245l31 -153q17 -80 19 -125zM-140 471l-83 62l172 227l120 -90z" />
    <glyph glyph-name="Omegatonos" unicode="&#x38f;" horiz-adv-x="813" 
d="M494 701q81 0 141.5 -22t95 -60.5t51.5 -85.5t17 -101q0 -74 -29 -145.5t-86 -119.5h93l-29 -167h-344l29 165q48 28 80.5 88t32.5 149q0 117 -85 117q-44 0 -76.5 -27t-48.5 -68t-23 -78.5t-7 -69.5q0 -82 54 -111l-29 -165h-333l29 167h80q-39 48 -39 145
q0 80 29 150.5t82 123.5t134.5 84t180.5 31zM-48 471l-83 62l172 227l120 -90z" />
    <glyph glyph-name="iotadieresistonos" unicode="&#x390;" horiz-adv-x="343" 
d="M92 492h225l-48 -273q-3 -15 -3 -27q0 -27 40 -28l-26 -172q-47 -5 -87 -5q-165 0 -165 126q0 18 5 48zM222 543l-92 39l117 256l134 -53zM69 751q32 0 52.5 -21.5t20.5 -53.5q0 -41 -32.5 -73t-72.5 -32q-32 0 -52.5 20.5t-20.5 52.5q0 42 32.5 74.5t72.5 32.5zM433 751
q32 0 52.5 -21.5t20.5 -53.5q0 -41 -32.5 -73t-72.5 -32q-32 0 -52.5 20.5t-20.5 52.5q0 42 32.5 74.5t72.5 32.5z" />
    <glyph glyph-name="Alpha" unicode="&#x391;" horiz-adv-x="760" 
d="M477 0l-12 124h-202l-54 -124h-244l349 684h309l92 -684h-238zM370 354l-35 -73h119l-4 53q-10 116 -5 173h-9q-23 -58 -66 -153z" />
    <glyph glyph-name="Beta" unicode="&#x392;" horiz-adv-x="680" 
d="M360 277h-66l-18 -103h65q35 0 53.5 19.5t18.5 42.5q0 41 -53 41zM382 510h-47l-15 -88h46q32 0 47.5 16.5t15.5 38.5q0 33 -47 33zM499 684q83 0 131.5 -35t48.5 -107q0 -25 -9 -55.5t-40 -66t-79 -51.5l-1 -6q54 -12 80 -54t26 -88q0 -97 -68.5 -159t-179.5 -62h-400
l120 684h371z" />
    <glyph glyph-name="Gamma" unicode="&#x393;" horiz-adv-x="618" 
d="M8 0l120 684h550l-31 -178h-311l-89 -506h-239z" />
    <glyph glyph-name="Delta" unicode="&#x394;" horiz-adv-x="760" 
d="M715 0h-750l349 684h309zM355 329l-70 -152h169l-9 150q-7 103 -5 180h-9q-35 -86 -76 -178z" />
    <glyph glyph-name="Delta" unicode="&#x2206;" horiz-adv-x="760" 
d="M715 0h-750l349 684h309zM355 329l-70 -152h169l-9 150q-7 103 -5 180h-9q-35 -86 -76 -178z" />
    <glyph glyph-name="Epsilon" unicode="&#x395;" horiz-adv-x="633" 
d="M8 0l120 684h533l-31 -177h-294l-12 -69h259l-30 -170h-259l-16 -91h330l-31 -177h-569z" />
    <glyph glyph-name="Zeta" unicode="&#x396;" horiz-adv-x="654" 
d="M312 177h318l-31 -177h-624l28 161l355 349h-265l31 174h579l-27 -153z" />
    <glyph glyph-name="Eta" unicode="&#x397;" horiz-adv-x="760" 
d="M433 0l46 261h-185l-46 -261h-240l120 683h240l-44 -248h185l44 248h238l-120 -683h-238z" />
    <glyph glyph-name="Theta" unicode="&#x398;" horiz-adv-x="807" 
d="M485 699q152 0 229.5 -78t77.5 -211q0 -186 -119.5 -304t-312.5 -118q-153 0 -229.5 75t-76.5 203q0 191 117 312t314 121zM455 518q-44 0 -76.5 -27.5t-48.5 -69.5t-23 -79t-7 -67q0 -108 92 -108q71 0 111.5 73.5t40.5 170.5q0 107 -89 107zM333 270l25 143h152
l-25 -143h-152z" />
    <glyph glyph-name="Iota" unicode="&#x399;" horiz-adv-x="355" 
d="M18 0l120 683h239l-120 -683h-239z" />
    <glyph glyph-name="Kappa" unicode="&#x39a;" horiz-adv-x="735" 
d="M367 683l-43 -241h25l195 241h263l-277 -324l168 -359h-255l-116 269h-33l-47 -269h-239l120 683h239z" />
    <glyph glyph-name="Lambda" unicode="&#x39b;" horiz-adv-x="760" 
d="M470 0l-24 268q-11 119 -10 229h-9q-43 -105 -88 -202l-137 -295h-237l349 684h309l92 -684h-245z" />
    <glyph glyph-name="Mu" unicode="&#x39c;" horiz-adv-x="926" 
d="M662 297h-6q-24 -43 -64 -101l-87 -127h-140l-39 124q-11 35 -24 94h-7l-59 -287h-228l145 684h230l58 -201q1 -3 16 -51t22 -78h9q19 35 79 127l131 203h244l-94 -684h-239z" />
    <glyph glyph-name="Nu" unicode="&#x39d;" horiz-adv-x="766" 
d="M505 372h9l53 312h231l-121 -684h-209l-95 188q-34 66 -67 146l-7 -1l-58 -333h-233l121 684h221l82 -164q57 -109 73 -148z" />
    <glyph glyph-name="Xi" unicode="&#x39e;" horiz-adv-x="637" 
d="M25 177h579l-31 -177h-579zM126 437h461l-30 -169h-461zM636 506h-541l31 177h541z" />
    <glyph glyph-name="Omicron" unicode="&#x39f;" horiz-adv-x="791" 
d="M478 699q150 0 224.5 -76t74.5 -207q0 -187 -114 -307.5t-312 -120.5q-152 0 -226.5 70t-74.5 194q0 196 115.5 321.5t312.5 125.5zM446 518q-35 0 -62.5 -20.5t-42.5 -49.5t-25 -65.5t-13.5 -64.5t-3.5 -51q0 -100 84 -100q68 0 106.5 74.5t38.5 172.5q0 104 -82 104z
" />
    <glyph glyph-name="Pi" unicode="&#x3a0;" horiz-adv-x="746" 
d="M421 0l89 506h-172l-89 -506h-241l120 683h649l-120 -683h-236z" />
    <glyph glyph-name="Rho" unicode="&#x3a1;" horiz-adv-x="647" 
d="M360 218h-76l-38 -218h-238l120 684h314q118 0 174.5 -52t56.5 -140q0 -45 -16 -89.5t-50 -87.5t-98 -70t-149 -27zM369 507h-33l-22 -123h33q26 0 50.5 19t24.5 56q0 23 -15.5 35.5t-37.5 12.5z" />
    <glyph glyph-name="Sigma" unicode="&#x3a3;" horiz-adv-x="663" 
d="M20 152l181 212l-109 169l27 150h575l-31 -174h-292l89 -143l-157 -189h336l-31 -177h-614z" />
    <glyph glyph-name="Tau" unicode="&#x3a4;" horiz-adv-x="620" 
d="M477 506l-89 -506h-239l89 506h-181l31 177h604l-31 -177h-184z" />
    <glyph glyph-name="Upsilon" unicode="&#x3a5;" horiz-adv-x="707" 
d="M380 405h10q21 48 67 131l82 147h243l-307 -458l-39 -225h-237l36 208l-150 475h245l31 -153q17 -80 19 -125z" />
    <glyph glyph-name="Phi" unicode="&#x3a6;" horiz-adv-x="925" 
d="M389 481q-47 -20 -75 -68t-28 -106q0 -70 56 -96zM550 51l-8 -51h-237l8 51q-132 12 -195 77t-63 164q0 141 97 236t266 114l7 42h237l-7 -42q128 -15 192 -81t64 -167q0 -139 -93.5 -233t-267.5 -110zM626 481l-47 -270q50 21 76 69t26 106q0 72 -55 95z" />
    <glyph glyph-name="Chi" unicode="&#x3a7;" horiz-adv-x="729" 
d="M366 198l-133 -198h-268l287 354l-145 329h251l54 -182l119 182h270l-275 -329l159 -354h-248z" />
    <glyph glyph-name="Psi" unicode="&#x3a8;" horiz-adv-x="937" 
d="M308 0l26 151q-151 10 -213.5 89.5t-39.5 207.5l43 235h233l-44 -249q-9 -49 4 -74t48 -33l63 358h241l-62 -356q75 20 89 106l44 248h233l-42 -236q-22 -128 -109.5 -209t-246.5 -87l-26 -151h-241z" />
    <glyph glyph-name="Omega" unicode="&#x3a9;" horiz-adv-x="813" 
d="M494 701q81 0 141.5 -22t95 -60.5t51.5 -85.5t17 -101q0 -74 -29 -145.5t-86 -119.5h93l-29 -167h-344l29 165q48 28 80.5 88t32.5 149q0 117 -85 117q-44 0 -76.5 -27t-48.5 -68t-23 -78.5t-7 -69.5q0 -82 54 -111l-29 -165h-333l29 167h80q-39 48 -39 145
q0 80 29 150.5t82 123.5t134.5 84t180.5 31z" />
    <glyph glyph-name="Iotadieresis" unicode="&#x3aa;" horiz-adv-x="355" 
d="M18 0l120 683h239l-120 -683h-239zM193 930q33 0 54 -22t21 -55q0 -43 -33 -75.5t-74 -32.5q-33 0 -54.5 21.5t-21.5 53.5q0 43 33 76.5t75 33.5zM420 930q33 0 54 -22t21 -55q0 -43 -33 -75.5t-74 -32.5q-34 0 -55 21.5t-21 53.5q0 43 33 76.5t75 33.5z" />
    <glyph glyph-name="Upsilondieresis" unicode="&#x3ab;" horiz-adv-x="707" 
d="M380 405h10q21 48 67 131l82 147h243l-307 -458l-39 -225h-237l36 208l-150 475h245l31 -153q17 -80 19 -125zM365 930q33 0 54 -22t21 -55q0 -43 -33 -75.5t-74 -32.5q-33 0 -54.5 21.5t-21.5 53.5q0 43 33 76.5t75 33.5zM592 930q33 0 54 -22t21 -55q0 -43 -33 -75.5
t-74 -32.5q-34 0 -55 21.5t-21 53.5q0 43 33 76.5t75 33.5z" />
    <glyph glyph-name="alphatonos" unicode="&#x3ac;" horiz-adv-x="646" 
d="M303 143q37 0 61.5 45.5t24.5 106.5q0 58 -45 58q-36 0 -63 -41t-27 -106q0 -63 49 -63zM288 509q100 0 136 -70h5q9 28 25 53h199l-86 -492h-199q-8 28 -3 67h-5q-70 -79 -173 -79q-162 0 -162 172q0 58 14.5 116t43.5 112t82.5 87.5t122.5 33.5zM376 541l-83 62
l172 227l120 -90z" />
    <glyph glyph-name="epsilontonos" unicode="&#x3ad;" horiz-adv-x="568" 
d="M112 257l1 6q-56 23 -56 77q0 69 72.5 119t203.5 50q99 0 159.5 -31.5t60.5 -96.5q0 -26 -10 -49h-186q0 29 -38 29q-16 0 -28 -9t-12 -23q0 -19 33 -19h34l-20 -113h-32q-50 0 -50 -34q0 -25 38 -25q44 0 58 40h191q2 -55 -23 -94.5t-68.5 -59t-89 -28t-96.5 -8.5
q-117 0 -179.5 41t-62.5 103q0 11 3 24t12 32.5t31 38t54 30.5zM344 541l-83 62l172 227l120 -90z" />
    <glyph glyph-name="etatonos" unicode="&#x3ae;" horiz-adv-x="626" 
d="M355 541l-83 62l172 227l120 -90zM290 414h6q72 95 168 95q174 0 141 -187l-84 -483h-225l77 439q11 67 -37 67q-51 0 -65 -84l-46 -261h-226l86 492h200q14 -29 5 -78z" />
    <glyph glyph-name="iotatonos" unicode="&#x3af;" horiz-adv-x="343" 
d="M222 541l-83 62l172 227l120 -90zM92 492h225l-48 -273q-3 -15 -3 -27q0 -27 40 -28l-26 -172q-47 -5 -87 -5q-165 0 -165 126q0 18 5 48z" />
    <glyph glyph-name="upsilondieresistonos" unicode="&#x3b0;" horiz-adv-x="620" 
d="M627 492l-50 -287q-19 -109 -96.5 -162.5t-201.5 -53.5q-133 0 -197 60.5t-45 167.5l48 275h226l-50 -286q-11 -60 32 -60q46 0 57 60l50 286h227zM364 543l-92 39l117 256l134 -53zM211 751q32 0 52.5 -21.5t20.5 -53.5q0 -41 -32.5 -73t-72.5 -32q-32 0 -52.5 20.5
t-20.5 52.5q0 42 32.5 74.5t72.5 32.5zM575 751q32 0 52.5 -21.5t20.5 -53.5q0 -41 -32.5 -73t-72.5 -32q-32 0 -52.5 20.5t-20.5 52.5q0 42 32.5 74.5t72.5 32.5z" />
    <glyph glyph-name="alpha" unicode="&#x3b1;" horiz-adv-x="646" 
d="M303 143q37 0 61.5 45.5t24.5 106.5q0 58 -45 58q-36 0 -63 -41t-27 -106q0 -63 49 -63zM288 509q100 0 136 -70h5q9 28 25 53h199l-86 -492h-199q-8 28 -3 67h-5q-70 -79 -173 -79q-162 0 -162 172q0 58 14.5 116t43.5 112t82.5 87.5t122.5 33.5z" />
    <glyph glyph-name="beta" unicode="&#x3b2;" horiz-adv-x="646" 
d="M395 735q111 0 170 -41.5t59 -116.5q0 -49 -23.5 -87.5t-68.5 -58.5v-4q89 -35 89 -145q0 -123 -70 -208.5t-192 -85.5q-86 0 -123 43l-7 -2l-34 -188h-225l115 652q19 107 100 174.5t210 67.5zM312 334l25 142q59 3 59 67q0 35 -29 35q-46 0 -57 -69l-48 -276
q-3 -18 -3 -34q0 -59 48 -59q40 0 64 39t24 88q0 67 -83 67z" />
    <glyph glyph-name="gamma" unicode="&#x3b3;" horiz-adv-x="660" 
d="M327 221h5q62 170 111 271h255l-302 -537l-30 -174h-226l29 165l-60 318q-5 31 -17 41t-47 10l10 158q90 33 150 33q72 0 96 -29.5t27 -81.5q4 -57 -1 -174z" />
    <glyph glyph-name="delta" unicode="&#x3b4;" horiz-adv-x="636" 
d="M605 556h-136q74 -59 109 -118.5t35 -136.5q0 -80 -27 -141.5t-74.5 -98t-106.5 -55t-129 -18.5q-121 0 -184 53.5t-63 146.5q0 46 13.5 90.5t41.5 86.5t80 71t121 38q-63 56 -149 106l24 135h473zM303 148q35 0 60 36.5t25 95.5q0 42 -21 74q-57 0 -86 -41t-29 -105
q0 -60 51 -60z" />
    <glyph glyph-name="epsilon" unicode="&#x3b5;" horiz-adv-x="568" 
d="M112 257l1 6q-56 23 -56 77q0 69 72.5 119t203.5 50q99 0 159.5 -31.5t60.5 -96.5q0 -26 -10 -49h-186q0 29 -38 29q-16 0 -28 -9t-12 -23q0 -19 33 -19h34l-20 -113h-32q-50 0 -50 -34q0 -25 38 -25q44 0 58 40h191q2 -55 -23 -94.5t-68.5 -59t-89 -28t-96.5 -8.5
q-117 0 -179.5 41t-62.5 103q0 11 3 24t12 32.5t31 38t54 30.5z" />
    <glyph glyph-name="zeta" unicode="&#x3b6;" horiz-adv-x="523" 
d="M306 553l-1 4h-183l28 158h476l-24 -135q-176 -124 -259 -204.5t-83 -126.5q0 -22 23.5 -40.5t57 -32t66.5 -29.5t56.5 -41t23.5 -58q0 -6 -2 -18q-17 -85 -174 -226l-139 76l56 78q18 26 18 35q0 19 -33 31q-98 37 -140 76.5t-42 104.5q0 89 71 182.5t204 165.5z" />
    <glyph glyph-name="eta" unicode="&#x3b7;" horiz-adv-x="626" 
d="M290 414h6q72 95 168 95q174 0 141 -187l-84 -483h-225l77 439q11 67 -37 67q-51 0 -65 -84l-46 -261h-226l86 492h200q14 -29 5 -78z" />
    <glyph glyph-name="theta" unicode="&#x3b8;" horiz-adv-x="651" 
d="M405 734q248 0 248 -262q0 -88 -17 -167t-55.5 -153.5t-112.5 -119t-176 -44.5q-249 0 -249 258q0 60 12 126q15 84 40 147.5t65.5 113t102 75.5t142.5 26zM309 146q70 0 96 154h-135q-9 -51 -9 -85q0 -69 48 -69zM385 577q-61 0 -87 -129h130q5 32 5 52q0 77 -48 77z
" />
    <glyph glyph-name="iota" unicode="&#x3b9;" horiz-adv-x="343" 
d="M92 492h225l-48 -273q-3 -15 -3 -27q0 -27 40 -28l-26 -172q-47 -5 -87 -5q-165 0 -165 126q0 18 5 48z" />
    <glyph glyph-name="kappa" unicode="&#x3ba;" horiz-adv-x="628" 
d="M256 175l-30 -175h-227l87 494h227l-28 -154h26l101 152h256l-195 -232l112 -260h-240l-62 175h-27z" />
    <glyph glyph-name="lambda" unicode="&#x3bb;" horiz-adv-x="616" 
d="M309 245h-5q-15 -43 -35 -83l-74 -162h-225l243 459h58l-6 50q-3 25 -13 36t-36 11h-40l23 159h120q52 0 86.5 -13t53 -42t27 -62.5t13.5 -87.5l30 -320q2 -21 12 -28.5t42 -7.5l-12 -142q-65 -22 -144 -22q-51 0 -80 23t-33 77q-7 116 -5 155z" />
    <glyph glyph-name="nu" unicode="&#x3bd;" horiz-adv-x="659" 
d="M311 160h11l53 127q36 88 59 204h246q-10 -57 -27 -99t-58 -120l-145 -274h-313l-85 494h233l20 -176q6 -54 6 -156z" />
    <glyph glyph-name="xi" unicode="&#x3be;" horiz-adv-x="531" 
d="M169 383l1 4q-80 36 -80 120q0 71 44.5 124t110 78t138.5 25q94 0 154.5 -34.5t60.5 -107.5q0 -33 -11 -67h-182q-1 27 -10 38t-27 11q-24 0 -40.5 -19t-16.5 -51q0 -44 69 -44h82l-28 -156h-109q-67 0 -67 -53q0 -29 36.5 -54.5t81 -42.5t81 -46.5t36.5 -65.5
q0 -86 -150 -232l-149 74l37 55q18 27 18 37q0 9 -6.5 15t-24.5 15q-52 25 -79 40t-57.5 39t-43 51.5t-12.5 62.5q0 141 143 184z" />
    <glyph glyph-name="omicron" unicode="&#x3bf;" horiz-adv-x="636" 
d="M362 509q70 0 121 -18.5t78 -50.5t39 -69t12 -81q0 -40 -9 -79t-33 -80t-60.5 -72t-96 -51t-135.5 -20q-251 0 -251 201q0 138 85 229t250 91zM338 350q-41 0 -64.5 -44.5t-23.5 -98.5q0 -60 51 -60q39 0 63.5 40t24.5 102q0 61 -51 61z" />
    <glyph glyph-name="pi" unicode="&#x3c0;" horiz-adv-x="628" 
d="M383 332h-101l-58 -332h-225l86 492h550l-86 -492h-224z" />
    <glyph glyph-name="rho" unicode="&#x3c1;" horiz-adv-x="644" 
d="M235 32l-6 -2l-44 -248h-225l74 419q16 89 49 151.5t80 95.5t97.5 47t112.5 14q119 0 183 -60.5t64 -160.5q0 -137 -75.5 -219t-193.5 -82q-37 0 -69.5 12t-46.5 33zM344 351q-40 0 -62 -51.5t-22 -102.5t47 -51q38 0 64.5 43t26.5 101q0 61 -54 61z" />
    <glyph glyph-name="sigma1" unicode="&#x3c2;" horiz-adv-x="582" 
d="M329 350q-26 0 -50 -26.5t-24 -74.5q0 -26 21.5 -47t52 -37l61 -32t52 -40t21.5 -53q0 -36 -30.5 -87.5t-118.5 -142.5l-150 72q52 75 57 96q0 12 -24 22q-95 37 -135 80.5t-40 115.5q0 147 90 230t240 83q57 0 104 -13.5t79.5 -47.5t32.5 -83q0 -41 -16 -77h-181
q1 6 1 16q0 46 -43 46z" />
    <glyph glyph-name="sigma" unicode="&#x3c3;" horiz-adv-x="645" 
d="M283 -12q-131 0 -193 53t-62 146q0 133 91 219t245 86h312l-28 -160h-69l-2 -3q21 -42 21 -88q0 -101 -84.5 -177t-230.5 -76zM335 337q-41 0 -64 -38.5t-23 -91.5q0 -60 53 -60q34 0 59 35.5t25 94.5q0 60 -50 60z" />
    <glyph glyph-name="tau" unicode="&#x3c4;" horiz-adv-x="473" 
d="M450 332h-113l-15 -85q-8 -45 5 -60t55 -15q20 0 44 3l-30 -173q-52 -13 -143 -13q-202 0 -169 183l28 160h-83l28 160h421z" />
    <glyph glyph-name="upsilon" unicode="&#x3c5;" horiz-adv-x="620" 
d="M627 492l-50 -287q-19 -109 -96.5 -162.5t-201.5 -53.5q-133 0 -197 60.5t-45 167.5l48 275h226l-50 -286q-11 -60 32 -60q46 0 57 60l50 286h227z" />
    <glyph glyph-name="phi" unicode="&#x3c6;" horiz-adv-x="846" 
d="M562 503q133 0 197 -57.5t64 -154.5q0 -134 -90.5 -216t-241.5 -87l-36 -207h-224l36 207q-130 12 -185.5 72t-55.5 143q0 44 14.5 88.5t46 88.5t90 76t137.5 42l3 -145q-36 -19 -54.5 -54t-18.5 -76q0 -64 50 -83l64 363h204zM556 353l-37 -211q33 5 62 39.5t29 97.5
q0 64 -54 74z" />
    <glyph glyph-name="chi" unicode="&#x3c7;" horiz-adv-x="616" 
d="M299 134h-5l-89 -134h-240l206 257l-109 235h229l36 -118h6l83 118h238l-195 -234l115 -258h-225z" />
    <glyph glyph-name="psi" unicode="&#x3c8;" horiz-adv-x="843" 
d="M229 -219l36 206q-130 10 -185.5 79t-35.5 186l41 240h216l-46 -260q-5 -31 3 -48.5t38 -23.5l58 332h225l-59 -336q56 6 66 67l47 269h217l-43 -243q-9 -52 -29.5 -95.5t-56 -82.5t-95 -61.5t-136.5 -23.5l-36 -205h-225z" />
    <glyph glyph-name="omega" unicode="&#x3c9;" horiz-adv-x="835" 
d="M525 308l-21 -124q-1 -5 -1 -12q0 -26 23 -26t43.5 38t20.5 98q0 65 -46 68l28 159q239 -4 239 -212q0 -127 -74 -218.5t-205 -91.5q-124 0 -149 76l-7 1q-66 -77 -172 -77q-180 0 -180 189q0 66 17 124t54 107.5t104.5 77t158.5 24.5l-28 -159q-40 -3 -62.5 -52
t-22.5 -107q0 -47 27 -47q12 0 24 10t15 30l21 124h193z" />
    <glyph glyph-name="iotadieresis" unicode="&#x3ca;" horiz-adv-x="343" 
d="M92 492h225l-48 -273q-3 -15 -3 -27q0 -27 40 -28l-26 -172q-47 -5 -87 -5q-165 0 -165 126q0 18 5 48zM139 748q33 0 54 -22t21 -55q0 -43 -33 -75.5t-74 -32.5q-33 0 -54 21.5t-21 53.5q0 43 33 76.5t74 33.5zM366 748q33 0 54 -22t21 -55q0 -43 -33 -75.5t-74 -32.5
q-33 0 -54 21.5t-21 53.5q0 43 33 76.5t74 33.5z" />
    <glyph glyph-name="upsilondieresis" unicode="&#x3cb;" horiz-adv-x="620" 
d="M627 492l-50 -287q-19 -109 -96.5 -162.5t-201.5 -53.5q-133 0 -197 60.5t-45 167.5l48 275h226l-50 -286q-11 -60 32 -60q46 0 57 60l50 286h227zM274 748q33 0 54 -22t21 -55q0 -43 -33 -75.5t-74 -32.5q-33 0 -54 21.5t-21 53.5q0 43 33 76.5t74 33.5zM501 748
q33 0 54 -22t21 -55q0 -43 -33 -75.5t-74 -32.5q-33 0 -54 21.5t-21 53.5q0 43 33 76.5t74 33.5z" />
    <glyph glyph-name="omicrontonos" unicode="&#x3cc;" horiz-adv-x="636" 
d="M362 509q70 0 121 -18.5t78 -50.5t39 -69t12 -81q0 -40 -9 -79t-33 -80t-60.5 -72t-96 -51t-135.5 -20q-251 0 -251 201q0 138 85 229t250 91zM338 350q-41 0 -64.5 -44.5t-23.5 -98.5q0 -60 51 -60q39 0 63.5 40t24.5 102q0 61 -51 61zM380 541l-83 62l172 227l120 -90z
" />
    <glyph glyph-name="upsilontonos" unicode="&#x3cd;" horiz-adv-x="620" 
d="M627 492l-50 -287q-19 -109 -96.5 -162.5t-201.5 -53.5q-133 0 -197 60.5t-45 167.5l48 275h226l-50 -286q-11 -60 32 -60q46 0 57 60l50 286h227zM358 541l-83 62l172 227l120 -90z" />
    <glyph glyph-name="omegatonos" unicode="&#x3ce;" horiz-adv-x="835" 
d="M525 308l-21 -124q-1 -5 -1 -12q0 -26 23 -26t43.5 38t20.5 98q0 65 -46 68l28 159q239 -4 239 -212q0 -127 -74 -218.5t-205 -91.5q-124 0 -149 76l-7 1q-66 -77 -172 -77q-180 0 -180 189q0 66 17 124t54 107.5t104.5 77t158.5 24.5l-28 -159q-40 -3 -62.5 -52
t-22.5 -107q0 -47 27 -47q12 0 24 10t15 30l21 124h193zM471 541l-83 62l172 227l120 -90z" />
    <glyph glyph-name="Sampigreek" unicode="&#x3e0;" horiz-adv-x="671" 
d="M90 559l41 118q245 -12 367 -124.5t122 -292.5q0 -146 -80 -335l-130 25q56 147 56 254v9l-267 -139l-45 106l297 152q-2 5 -6 16.5t-7 17.5l-294 -149l-45 108l269 137q-72 73 -278 97z" />
    <glyph glyph-name="sampigreek" unicode="&#x3e1;" horiz-adv-x="582" 
d="M60 398l33 104q209 -11 314 -104.5t105 -242.5q0 -117 -67 -277l-123 17q44 129 47 214l-217 -113l-33 95l231 119l-11 32l-235 -120l-37 91l211 110q-68 55 -218 75z" />
    <glyph glyph-name="afii10023" unicode="&#x401;" horiz-adv-x="633" 
d="M8 0l120 684h533l-31 -177h-294l-12 -69h259l-30 -170h-259l-16 -91h330l-31 -177h-569zM326 940q33 0 54 -22t21 -55q0 -43 -33 -75.5t-74 -32.5q-34 0 -55 21.5t-21 53.5q0 43 33 76.5t75 33.5zM553 940q33 0 54 -22t21 -55q0 -43 -33 -75.5t-74 -32.5
q-33 0 -54.5 21.5t-21.5 53.5q0 43 33 76.5t75 33.5z" />
    <glyph glyph-name="afii10051" unicode="&#x402;" horiz-adv-x="889" 
d="M455 375l4 -3q91 69 208 69q213 0 174 -264q-9 -59 -31 -108.5t-60 -92.5t-100.5 -67t-142.5 -24q-29 0 -53 4l29 165q46 4 70.5 30.5t34.5 81.5q6 37 -9.5 65.5t-57.5 28.5q-54 0 -95 -45l-37 -215h-239l89 506h-180l31 178h643l-31 -178h-224z" />
    <glyph glyph-name="afii10052" unicode="&#x403;" horiz-adv-x="618" 
d="M8 0l120 684h550l-31 -178h-311l-89 -506h-239zM344 724l-48 104l256 160l64 -148z" />
    <glyph glyph-name="afii10053" unicode="&#x404;" horiz-adv-x="727" 
d="M464 270h234q0 -2 -4 -42q-12 -65 -46.5 -113t-84.5 -75t-104.5 -39.5t-115.5 -12.5q-292 0 -292 264q0 110 34.5 197.5t92.5 140.5t129.5 81t149.5 28q129 0 201.5 -54t72.5 -147q0 -43 -15 -84h-229q1 7 1 21q0 38 -17 59t-44 21q-62 0 -100 -96h131l-26 -147h-133v-9
q0 -91 67 -91q73 0 98 98z" />
    <glyph glyph-name="afii10054" unicode="&#x405;" horiz-adv-x="685" 
d="M424 699q110 0 182.5 -44t72.5 -128q0 -38 -14 -75h-206q2 14 2 20q0 52 -61 52q-25 0 -40 -13t-17.5 -22.5t-2.5 -14.5q0 -25 51 -35q138 -26 198 -74.5t60 -126.5q0 -110 -88 -180t-269 -70q-118 0 -192 45t-74 135q0 48 15 81h201q-1 -5 -1 -15q0 -71 84 -71
q38 0 57 18.5t19 37.5q0 17 -18.5 28.5t-67.5 21.5q-115 23 -170 61t-55 117q0 41 17 82.5t53 81t104.5 64t159.5 24.5z" />
    <glyph glyph-name="afii10055" unicode="&#x406;" horiz-adv-x="355" 
d="M18 0l120 683h239l-120 -683h-239z" />
    <glyph glyph-name="afii10056" unicode="&#x407;" horiz-adv-x="355" 
d="M18 0l120 683h239l-120 -683h-239zM183 927q33 0 54 -22t21 -55q0 -43 -33 -75.5t-74 -32.5q-33 0 -54 21.5t-21 53.5q0 43 33 76.5t74 33.5zM410 927q33 0 54 -22t21 -55q0 -43 -33 -75.5t-74 -32.5q-33 0 -54 21.5t-21 53.5q0 43 33 76.5t74 33.5z" />
    <glyph glyph-name="afii10057" unicode="&#x408;" horiz-adv-x="685" 
d="M280 -12q-133 0 -206.5 44.5t-73.5 132.5q0 50 17 90h209q-1 -5 -1 -15q0 -73 73 -73q39 0 64 21t33.5 45.5t15.5 62.5l68 387h237l-74 -421q-11 -59 -32.5 -105t-62 -86t-108 -61.5t-159.5 -21.5z" />
    <glyph glyph-name="afii10058" unicode="&#x409;" horiz-adv-x="1097" 
d="M411 0l89 506h-81l-43 -178q-47 -196 -100.5 -268t-167.5 -72q-74 0 -118 14l35 180q38 2 59.5 16.5t43.5 66t46 155.5l61 264h536l-41 -231h103q100 0 163 -44t63 -145q0 -111 -76.5 -187.5t-201.5 -76.5h-370zM765 280h-65l-19 -106h65q25 0 46 17t21 49q0 40 -48 40z
" />
    <glyph glyph-name="afii10059" unicode="&#x40a;" horiz-adv-x="1099" 
d="M413 0l47 270h-165l-47 -270h-240l120 683h240l-43 -242h165l43 243h240l-43 -243h99q232 0 232 -181q0 -115 -76.5 -187.5t-201.5 -72.5h-370zM765 271h-65l-17 -97h65q25 0 45.5 14.5t20.5 46.5q0 36 -49 36z" />
    <glyph glyph-name="afii10060" unicode="&#x40b;" horiz-adv-x="878" 
d="M456 381l5 -2q98 68 203 68q95 0 145 -53t30 -166l-40 -228h-237l28 162q8 47 -9.5 70t-54.5 23q-53 0 -100 -45l-37 -210h-239l89 506h-180l31 177h651l-31 -177h-232z" />
    <glyph glyph-name="afii10061" unicode="&#x40c;" horiz-adv-x="735" 
d="M367 683l-43 -241h25l195 241h263l-277 -324l168 -359h-255l-116 269h-33l-47 -269h-239l120 683h239zM415 727l-48 104l256 160l64 -148z" />
    <glyph glyph-name="afii10062" unicode="&#x40e;" horiz-adv-x="736" 
d="M384 357h6l174 327h241l-291 -508q-36 -62 -67.5 -99.5t-67.5 -57t-70.5 -25.5t-88.5 -6h-99l30 166h59q37 0 49.5 7t32.5 38h-74l-126 485h227zM447 707q-98 0 -137 60.5t-27 148.5h103q-4 -48 18 -70t60 -22q34 0 65 25.5t47 66.5h108q-21 -84 -81 -146.5t-156 -62.5z
" />
    <glyph glyph-name="afii10145" unicode="&#x40f;" horiz-adv-x="760" 
d="M207 -195l35 195h-234l120 683h238l-89 -507h188l89 507h237l-120 -683h-230l-35 -195h-199z" />
    <glyph glyph-name="afii10017" unicode="&#x410;" horiz-adv-x="760" 
d="M477 0l-12 124h-202l-54 -124h-244l349 684h309l92 -684h-238zM370 354l-35 -73h119l-4 53q-10 116 -5 173h-9q-23 -58 -66 -153z" />
    <glyph glyph-name="afii10018" unicode="&#x411;" horiz-adv-x="704" 
d="M8 0l120 684h558l-31 -176h-318l-10 -59h106q234 0 234 -182q0 -112 -77 -189.5t-202 -77.5h-380zM372 280h-75l-19 -106h75q25 0 46 17t21 49q0 40 -48 40z" />
    <glyph glyph-name="afii10019" unicode="&#x412;" horiz-adv-x="680" 
d="M360 277h-66l-18 -103h65q35 0 53.5 19.5t18.5 42.5q0 41 -53 41zM382 510h-47l-15 -88h46q32 0 47.5 16.5t15.5 38.5q0 33 -47 33zM499 684q83 0 131.5 -35t48.5 -107q0 -25 -9 -55.5t-40 -66t-79 -51.5l-1 -6q54 -12 80 -54t26 -88q0 -97 -68.5 -159t-179.5 -62h-400
l120 684h371z" />
    <glyph glyph-name="afii10020" unicode="&#x413;" horiz-adv-x="618" 
d="M8 0l120 684h550l-31 -178h-311l-89 -506h-239z" />
    <glyph glyph-name="afii10021" unicode="&#x414;" horiz-adv-x="825" 
d="M798 174l-64 -363h-193l34 189h-405l-34 -189h-194l64 365h78q38 52 63.5 109t52.5 158l64 241h537l-90 -510h87zM318 176h156l58 331h-103l-22 -82q-44 -166 -89 -249z" />
    <glyph glyph-name="afii10022" unicode="&#x415;" horiz-adv-x="633" 
d="M8 0l120 684h533l-31 -177h-294l-12 -69h259l-30 -170h-259l-16 -91h330l-31 -177h-569z" />
    <glyph glyph-name="afii10024" unicode="&#x416;" horiz-adv-x="1098" 
d="M468 442l43 241h238l-43 -241h20l169 241h274l-257 -324l138 -359h-258l-89 269h-27l-47 -269h-238l47 269h-19l-183 -269h-266l263 359l-142 324h253l93 -241h31z" />
    <glyph glyph-name="afii10025" unicode="&#x417;" horiz-adv-x="726" 
d="M586 367l-1 -5q54 -19 78 -57t24 -79q0 -109 -97.5 -173t-258.5 -64q-293 0 -293 169q0 41 15 85h212q-1 -5 -1 -13q0 -65 79 -65q44 0 69.5 22.5t25.5 49.5q0 39 -58 39h-59l26 146h50q35 0 53.5 15.5t18.5 38.5q0 21 -16.5 33t-41.5 12q-31 0 -60.5 -20t-38.5 -64h-215
q0 69 30.5 121t82 81t111 43t126.5 14q123 0 198 -47.5t75 -124.5q0 -14 -3.5 -30t-14.5 -43t-41 -50t-75 -34z" />
    <glyph glyph-name="afii10026" unicode="&#x418;" horiz-adv-x="766" 
d="M301 356h9q80 105 127 157l140 171h220l-119 -684h-233l64 338l-7 1q-31 -41 -123 -151l-161 -188h-209l119 684h231z" />
    <glyph glyph-name="afii10027" unicode="&#x419;" horiz-adv-x="766" 
d="M301 356h9q80 105 127 157l140 171h220l-119 -684h-233l64 338l-7 1q-31 -41 -123 -151l-161 -188h-209l119 684h231zM475 727q-98 0 -137 60.5t-27 148.5h103q-4 -48 18 -70t60 -22q34 0 65 25.5t47 66.5h108q-21 -84 -81 -146.5t-156 -62.5z" />
    <glyph glyph-name="afii10028" unicode="&#x41a;" horiz-adv-x="735" 
d="M367 683l-43 -241h25l195 241h263l-277 -324l168 -359h-255l-116 269h-33l-47 -269h-239l120 683h239z" />
    <glyph glyph-name="afii10029" unicode="&#x41b;" horiz-adv-x="759" 
d="M670 0h-239l89 506h-101l-43 -178q-46 -194 -101.5 -267.5t-169.5 -73.5q-74 0 -118 14l37 180q39 2 60.5 17t44 66.5t46.5 155.5l61 263h554z" />
    <glyph glyph-name="afii10030" unicode="&#x41c;" horiz-adv-x="926" 
d="M662 297h-6q-24 -43 -64 -101l-87 -127h-140l-39 124q-11 35 -24 94h-7l-59 -287h-228l145 684h230l58 -201q1 -3 16 -51t22 -78h9q19 35 79 127l131 203h244l-94 -684h-239z" />
    <glyph glyph-name="afii10031" unicode="&#x41d;" horiz-adv-x="760" 
d="M433 0l46 261h-185l-46 -261h-240l120 683h240l-44 -248h185l44 248h238l-120 -683h-238z" />
    <glyph glyph-name="afii10032" unicode="&#x41e;" horiz-adv-x="791" 
d="M478 699q150 0 224.5 -76t74.5 -207q0 -187 -114 -307.5t-312 -120.5q-152 0 -226.5 70t-74.5 194q0 196 115.5 321.5t312.5 125.5zM446 518q-35 0 -62.5 -20.5t-42.5 -49.5t-25 -65.5t-13.5 -64.5t-3.5 -51q0 -100 84 -100q68 0 106.5 74.5t38.5 172.5q0 104 -82 104z
" />
    <glyph glyph-name="afii10033" unicode="&#x41f;" horiz-adv-x="746" 
d="M421 0l89 506h-172l-89 -506h-241l120 683h649l-120 -683h-236z" />
    <glyph glyph-name="afii10034" unicode="&#x420;" horiz-adv-x="647" 
d="M360 218h-76l-38 -218h-238l120 684h314q118 0 174.5 -52t56.5 -140q0 -45 -16 -89.5t-50 -87.5t-98 -70t-149 -27zM369 507h-33l-22 -123h33q26 0 50.5 19t24.5 56q0 23 -15.5 35.5t-37.5 12.5z" />
    <glyph glyph-name="afii10035" unicode="&#x421;" horiz-adv-x="727" 
d="M464 270h234q0 -2 -4 -42q-12 -65 -46.5 -113t-84.5 -75t-104.5 -39.5t-115.5 -12.5q-292 0 -292 264q0 110 34.5 197.5t92.5 140.5t129.5 81t149.5 28q129 0 201.5 -54t72.5 -147q0 -43 -15 -84h-229q1 7 1 21q0 38 -17 59t-44 21q-42 0 -73 -45.5t-43 -100.5t-12 -106
q0 -91 67 -91q73 0 98 98z" />
    <glyph glyph-name="afii10036" unicode="&#x422;" horiz-adv-x="620" 
d="M477 506l-89 -506h-239l89 506h-181l31 177h604l-31 -177h-184z" />
    <glyph glyph-name="afii10037" unicode="&#x423;" horiz-adv-x="736" 
d="M384 357h6l174 327h241l-291 -508q-36 -62 -67.5 -99.5t-67.5 -57t-70.5 -25.5t-88.5 -6h-99l30 166h59q37 0 49.5 7t32.5 38h-74l-126 485h227z" />
    <glyph glyph-name="afii10038" unicode="&#x424;" horiz-adv-x="925" 
d="M389 481q-47 -20 -75 -68t-28 -106q0 -70 56 -96zM550 51l-8 -51h-237l8 51q-132 12 -195 77t-63 164q0 141 97 236t266 114l7 42h237l-7 -42q128 -15 192 -81t64 -167q0 -139 -93.5 -233t-267.5 -110zM626 481l-47 -270q50 21 76 69t26 106q0 72 -55 95z" />
    <glyph glyph-name="afii10039" unicode="&#x425;" horiz-adv-x="729" 
d="M366 198l-133 -198h-268l287 354l-145 329h251l54 -182l119 182h270l-275 -329l159 -354h-248z" />
    <glyph glyph-name="afii10040" unicode="&#x426;" horiz-adv-x="835" 
d="M549 -189l34 189h-575l120 684h238l-89 -508h179l89 508h239l-90 -510h112l-64 -363h-193z" />
    <glyph glyph-name="afii10041" unicode="&#x427;" horiz-adv-x="741" 
d="M457 246l-6 2q-94 -34 -185 -34q-100 0 -153.5 51.5t-33.5 165.5l45 252h236l-34 -191q-15 -86 71 -86q38 0 91 17l46 260h239l-120 -683h-239z" />
    <glyph glyph-name="afii10042" unicode="&#x428;" horiz-adv-x="1068" 
d="M979 0h-971l120 683h237l-89 -506h132l89 506h228l-89 -506h136l89 506h238z" />
    <glyph glyph-name="afii10043" unicode="&#x429;" horiz-adv-x="1155" 
d="M869 -189l34 189h-895l120 683h238l-89 -507h133l89 507h230l-89 -507h136l89 507h240l-90 -509h111l-64 -363h-193z" />
    <glyph glyph-name="afii10044" unicode="&#x42a;" horiz-adv-x="880" 
d="M68 506l31 178h445l-41 -231h109q47 0 86 -9.5t72.5 -30t52.5 -58.5t19 -90q0 -114 -76.5 -189.5t-202.5 -75.5h-379l89 506h-205zM547 280h-74l-19 -106h74q25 0 46.5 17t21.5 49q0 40 -49 40z" />
    <glyph glyph-name="afii10045" unicode="&#x42b;" horiz-adv-x="991" 
d="M8 0l120 684h240l-41 -231h112q99 0 163.5 -42.5t64.5 -139.5q0 -115 -77 -193t-202 -78h-380zM372 280h-75l-19 -106h75q25 0 46 17t21 49q0 40 -48 40zM664 0l120 683h239l-120 -683h-239z" />
    <glyph glyph-name="afii10046" unicode="&#x42c;" horiz-adv-x="695" 
d="M8 0l120 684h240l-41 -231h109q103 0 167 -43t64 -140q0 -116 -78.5 -193t-204.5 -77h-376zM372 280h-75l-19 -106h75q25 0 46 17t21 49q0 40 -48 40z" />
    <glyph glyph-name="afii10047" unicode="&#x42d;" horiz-adv-x="732" 
d="M420 699q144 0 222 -69.5t78 -209.5q0 -207 -110.5 -319.5t-292.5 -112.5q-74 0 -132.5 18.5t-97.5 62.5t-39 109q0 34 12 78h213q-2 -38 16.5 -61t52.5 -23q40 0 67 27.5t38 76.5h-146l26 147h144q0 3 0.5 8.5t0.5 7.5q0 36 -17.5 56t-49.5 20q-80 0 -103 -89h-209
q0 69 28.5 123t76 86t104 48t118.5 16z" />
    <glyph glyph-name="afii10048" unicode="&#x42e;" horiz-adv-x="1085" 
d="M775 699q150 0 223 -77.5t73 -209.5q0 -87 -27.5 -164t-78 -135t-128 -91.5t-171.5 -33.5q-153 0 -227 66.5t-74 182.5q0 16 1 24h-73l-46 -261h-239l120 683h239l-44 -248h76q42 127 136.5 195.5t239.5 68.5zM747 518q-37 0 -65 -23.5t-42 -54.5t-23 -70.5t-11 -63.5
t-2 -40q0 -99 80 -99q38 0 67 27.5t43.5 69.5t21 81t6.5 73q0 100 -75 100z" />
    <glyph glyph-name="afii10049" unicode="&#x42f;" horiz-adv-x="684" 
d="M378 684h337l-120 -684h-239l43 247h-11l-163 -247h-254l200 286q-45 20 -67 62.5t-22 90.5q0 115 84.5 180t211.5 65zM446 507h-51q-25 0 -46 -16t-21 -46q0 -20 14 -32t34 -12h51z" />
    <glyph glyph-name="afii10065" unicode="&#x430;" horiz-adv-x="646" 
d="M303 143q37 0 61.5 45.5t24.5 106.5q0 58 -45 58q-36 0 -63 -41t-27 -106q0 -63 49 -63zM288 509q100 0 136 -70h5q7 30 25 53h199l-86 -492h-199q-9 31 -3 67h-5q-70 -79 -173 -79q-162 0 -162 172q0 58 14.5 116t43.5 112t82.5 87.5t122.5 33.5z" />
    <glyph glyph-name="afii10066" unicode="&#x431;" horiz-adv-x="636" 
d="M298 146q38 0 62.5 36.5t24.5 95.5q0 58 -52 58q-25 0 -43.5 -16.5t-26.5 -40.5t-11.5 -42t-3.5 -30q0 -61 50 -61zM420 483q98 0 145.5 -48t47.5 -136q0 -33 -7.5 -69t-30 -81t-58 -79.5t-98 -58t-143.5 -23.5q-128 0 -187 54t-59 140q0 130 45 260q13 38 29.5 70.5
t37.5 57.5t40.5 45.5t47.5 36t51 26.5t57 19t59 13.5t65 9.5t66 5.5t71 4.5l9 -145h-1h-1h-1h-1h-1l-1 -1h-1h-1h-1h-1h-1h-1h-1h-1h-1l-1 -1q-154 -14 -205 -32q-79 -29 -103 -106l-2 -8l5 -4q60 50 133 50z" />
    <glyph glyph-name="afii10067" unicode="&#x432;" horiz-adv-x="621" 
d="M358 513q90 0 152 -31t62 -94q0 -79 -68 -113v-4q48 -8 67.5 -37.5t19.5 -58.5q0 -81 -75.5 -134t-220.5 -53q-24 0 -45 1.5t-49 5.5t-49.5 12t-46 20.5t-38.5 30.5t-27 43.5t-12 58.5t7 75l9 43q51 235 314 235zM306 211l18 95q54 0 54 40q0 14 -11 22t-27 8
q-47 0 -61 -75l-18 -96q-7 -36 5.5 -51t43.5 -15q26 0 42 10.5t16 26.5q0 35 -62 35z" />
    <glyph glyph-name="afii10068" unicode="&#x433;" horiz-adv-x="592" 
d="M265 -12q-123 0 -181.5 37.5t-58.5 101.5q0 56 33.5 94.5t81.5 56t96.5 29t82 23t33.5 27.5q0 19 -28 19q-45 0 -58 -44h-187q0 47 24 82.5t64.5 55.5t87 30t98.5 10q117 0 165.5 -39.5t48.5 -93.5q0 -51 -32.5 -88t-78.5 -56t-92.5 -32.5t-79 -26.5t-32.5 -29
q0 -21 32 -21q56 0 67 48h190q1 -51 -23 -88.5t-65 -57.5t-87.5 -29t-100.5 -9z" />
    <glyph glyph-name="afii10069" unicode="&#x434;" horiz-adv-x="645" 
d="M323 739q310 0 310 -283q0 -17 -0.5 -32t-3.5 -50t-8.5 -65.5t-17.5 -71.5t-28 -73.5t-42 -66.5t-58.5 -57t-78 -37.5t-99.5 -14.5q-270 0 -270 206q0 126 73.5 212.5t201.5 86.5q80 0 120 -28q2 6 2 21q-1 44 -23.5 67t-74.5 23q-51 0 -136 -15l-24 149q93 28 157 29z
M307 149q31 0 57.5 36t26.5 97t-52 61q-41 0 -64 -37t-23 -94q0 -63 55 -63z" />
    <glyph glyph-name="afii10070" unicode="&#x435;" horiz-adv-x="595" 
d="M247 200q-5 -26 8 -43t40 -17q51 0 65 39h187q1 -7 1 -24q0 -81 -72.5 -124t-199.5 -43q-250 0 -250 196q0 148 90 237t241 89q95 0 151.5 -38t56.5 -103q0 -78 -70.5 -123t-247.5 -46zM326 371q-55 0 -65 -64h11q85 0 85 39q0 25 -31 25z" />
    <glyph glyph-name="afii10072" unicode="&#x436;" horiz-adv-x="939" 
d="M315 0l30 175h-16l-114 -175h-245l193 260l-104 232h230l53 -152h32l27 152h227l-27 -152h23l97 152h249l-186 -232l103 -260h-236l-54 175h-25l-30 -175h-227z" />
    <glyph glyph-name="afii10073" unicode="&#x437;" horiz-adv-x="587" 
d="M342 508q106 0 166.5 -34t60.5 -93q0 -5 -0.5 -12t-6.5 -23.5t-16 -30t-31 -28t-50 -21.5v-5q44 -13 62.5 -40.5t18.5 -56.5q0 -83 -87 -129.5t-220 -46.5q-39 0 -76 6t-73.5 19t-59 39.5t-22.5 63.5q0 28 13 61h191q0 -44 52 -44q30 0 45 12t15 26q0 22 -28 22h-47
l19 109h26q45 0 45 31q0 26 -33 26q-44 0 -61 -42h-190q0 65 45.5 110t108 63t133.5 18z" />
    <glyph glyph-name="afii10074" unicode="&#x438;" horiz-adv-x="616" 
d="M332 75h-6q-67 -87 -170 -87q-87 0 -116 47t-13 140l56 317h225l-50 -283q-12 -67 32 -67q46 0 60 84l47 266h226l-86 -492h-199q-13 23 -6 75z" />
    <glyph glyph-name="afii10075" unicode="&#x439;" horiz-adv-x="616" 
d="M332 75h-6q-67 -87 -170 -87q-87 0 -116 47t-13 140l56 317h225l-50 -283q-12 -67 32 -67q46 0 60 84l47 266h226l-86 -492h-199q-13 23 -6 75zM360 545q-98 0 -137 60.5t-27 148.5h103q-4 -48 18 -70t60 -22q34 0 65 25.5t47 66.5h108q-21 -84 -81 -146.5t-156 -62.5z
" />
    <glyph glyph-name="afii10076" unicode="&#x43a;" horiz-adv-x="628" 
d="M256 175l-30 -175h-227l87 494h227l-28 -154h26l101 152h256l-195 -232l112 -260h-240l-62 175h-27z" />
    <glyph glyph-name="afii10077" unicode="&#x43b;" horiz-adv-x="636" 
d="M558 0h-225l58 334h-54l-25 -99q-35 -139 -84 -193t-149 -54q-63 0 -101 10l28 138q35 1 52 10t35 44.5t36 111.5l47 190h468z" />
    <glyph glyph-name="afii10078" unicode="&#x43c;" horiz-adv-x="823" 
d="M560 215h-10q-5 -7 -15.5 -23.5t-22 -33.5t-21.5 -32l-45 -65h-129l-24 66q-26 71 -31 94h-7l-35 -221h-221l86 492h237l43 -108q33 -86 42 -119h8q23 36 85 121l77 106h253l-86 -492h-220z" />
    <glyph glyph-name="afii10079" unicode="&#x43d;" horiz-adv-x="631" 
d="M328 0l30 171h-103l-30 -171h-226l86 492h226l-28 -162h103l28 162h225l-86 -492h-225z" />
    <glyph glyph-name="afii10080" unicode="&#x43e;" horiz-adv-x="636" 
d="M362 509q70 0 121 -18.5t78 -50.5t39 -69t12 -81q0 -40 -9 -79t-33 -80t-60.5 -72t-96 -51t-135.5 -20q-251 0 -251 201q0 138 85 229t250 91zM338 350q-41 0 -64.5 -44.5t-23.5 -98.5q0 -60 51 -60q39 0 63.5 40t24.5 102q0 61 -51 61z" />
    <glyph glyph-name="afii10081" unicode="&#x43f;" horiz-adv-x="626" 
d="M290 414h6q72 95 168 95q174 0 141 -187l-56 -322h-225l49 278q12 67 -37 67q-51 0 -65 -84l-46 -261h-226l86 492h200q14 -29 5 -78z" />
    <glyph glyph-name="afii10082" unicode="&#x440;" horiz-adv-x="645" 
d="M285 417h5q65 92 175 92q81 0 120.5 -49t39.5 -133q0 -142 -68.5 -241t-197.5 -99q-90 0 -125 45h-5l-44 -251h-225l125 711h195q8 -14 8 -42q0 -18 -3 -33zM346 347q-31 0 -52 -29.5t-28 -63t-7 -64.5q0 -21 12 -35t38 -14q37 0 61.5 40t24.5 98q0 68 -49 68z" />
    <glyph glyph-name="afii10083" unicode="&#x441;" horiz-adv-x="582" 
d="M354 509q103 0 160 -39.5t57 -107.5q0 -33 -11 -62h-184q0 50 -42 50t-63.5 -48t-21.5 -99q0 -56 48 -56q45 0 63 48h188q0 -54 -25 -95.5t-66.5 -65t-88.5 -35t-97 -11.5q-246 0 -246 189q0 82 28 147.5t75 104.5t105 59.5t121 20.5z" />
    <glyph glyph-name="afii10084" unicode="&#x442;" horiz-adv-x="922" 
d="M290 414h6q72 95 166 95q121 0 134 -101q39 54 88 77.5t89 23.5q87 0 116.5 -48t12.5 -141l-56 -320h-225l50 286q10 59 -31 59q-45 0 -58 -78l-47 -267h-225l50 286q10 59 -31 59q-44 0 -57 -78l-47 -267h-226l86 492h200q14 -29 5 -78z" />
    <glyph glyph-name="afii10085" unicode="&#x443;" horiz-adv-x="636" 
d="M338 -205h-224l110 206l-85 -2l-101 493h234l14 -161q11 -111 4 -194h6l69 159q36 82 56 195h227q-1 -8 -5 -32.5t-5.5 -31.5t-5.5 -27t-7.5 -30t-9.5 -27.5t-13.5 -34t-17.5 -35.5z" />
    <glyph glyph-name="afii10086" unicode="&#x444;" horiz-adv-x="830" 
d="M223 -219l39 212q-128 10 -181 68.5t-53 140.5q0 134 87 213t237 87l39 219h222l-39 -219q110 -4 172 -60.5t62 -150.5q0 -129 -92 -209.5t-232 -89.5l-38 -211h-223zM325 351q-43 -10 -67 -50.5t-24 -84.5q0 -59 55 -74zM546 351l-36 -209q37 11 62.5 44t25.5 87
q0 64 -52 78z" />
    <glyph glyph-name="afii10087" unicode="&#x445;" horiz-adv-x="616" 
d="M299 134h-5l-89 -134h-240l206 257l-109 235h229l36 -118h6l83 118h238l-195 -234l115 -258h-225z" />
    <glyph glyph-name="afii10088" unicode="&#x446;" horiz-adv-x="638" 
d="M337 81h-5q-62 -93 -176 -93q-87 0 -116 47t-13 140l56 317h225l-50 -283q-12 -67 32 -67q46 0 60 84l47 266h226l-59 -332q-11 -46 -6 -71.5t41 -44.5l-52 -240h-180l24 182q-34 18 -45 40.5t-9 54.5z" />
    <glyph glyph-name="afii10089" unicode="&#x447;" horiz-adv-x="618" 
d="M319 0l32 182q-86 -44 -167 -44q-75 0 -115.5 43.5t-24.5 130.5l31 180h225l-28 -159q-7 -42 38 -42q32 0 57 17l32 184h226l-86 -492h-220z" />
    <glyph glyph-name="afii10090" unicode="&#x448;" horiz-adv-x="923" 
d="M639 78h-6q-72 -95 -166 -95q-121 0 -134 101q-39 -54 -88 -77.5t-89 -23.5q-87 0 -116.5 48t-12.5 141l56 320h225l-50 -286q-10 -59 31 -59q45 0 58 78l47 267h225l-50 -286q-10 -59 31 -59q44 0 57 78l47 267h226l-86 -492h-200q-14 29 -5 78z" />
    <glyph glyph-name="afii10091" unicode="&#x449;" horiz-adv-x="945" 
d="M930 492l-58 -332q-11 -46 -6 -71.5t41 -44.5l-52 -240h-180l24 182q-34 18 -45 40.5t-9 54.5h-5q-36 -54 -83.5 -76t-89.5 -22q-121 0 -134 101q-39 -54 -88 -77.5t-89 -23.5q-87 0 -116.5 48t-12.5 141l56 320h225l-50 -286q-10 -59 31 -59q45 0 58 78l47 267h225
l-50 -286q-10 -59 31 -59q44 0 57 78l47 267h226z" />
    <glyph glyph-name="afii10092" unicode="&#x44a;" horiz-adv-x="750" 
d="M33 334l28 158h377l-24 -134h116q89 0 140 -37t51 -111q0 -21 -5.5 -44.5t-24.5 -55.5t-49.5 -56.5t-87.5 -42t-131 -17.5q-134 0 -195.5 47.5t-61.5 146.5q0 31 6 67l13 79h-152zM431 148q32 0 47 13.5t15 29.5q0 24 -31 24h-68l-3 -19q-2 -8 -2 -15q0 -16 13 -24.5
t29 -8.5z" />
    <glyph glyph-name="afii10093" unicode="&#x44b;" horiz-adv-x="904" 
d="M601 0l86 492h225l-86 -492h-225zM303 148q32 0 47 13.5t15 29.5q0 24 -31 24h-68l-3 -19q-2 -8 -2 -15q0 -16 13 -24.5t29 -8.5zM85 492h223l-22 -134h116q89 0 140 -37t51 -111q0 -21 -5.5 -44.5t-24.5 -55.5t-49.5 -56.5t-87.5 -42t-131 -17.5q-134 0 -195.5 47.5
t-61.5 146.5q0 31 6 67z" />
    <glyph glyph-name="afii10094" unicode="&#x44c;" horiz-adv-x="621" 
d="M303 148q32 0 47 13.5t15 29.5q0 24 -31 24h-68l-3 -19q-2 -8 -2 -15q0 -16 13 -24.5t29 -8.5zM85 492h223l-22 -134h116q89 0 140 -37t51 -111q0 -21 -5.5 -44.5t-24.5 -55.5t-49.5 -56.5t-87.5 -42t-131 -17.5q-134 0 -195.5 47.5t-61.5 146.5q0 31 6 67z" />
    <glyph glyph-name="afii10095" unicode="&#x44d;" horiz-adv-x="585" 
d="M325 509q111 0 174.5 -53t63.5 -156q0 -148 -89.5 -230t-240.5 -82q-94 0 -157 36t-63 107q0 29 12 64h181q1 -48 50 -48q25 0 43 14t24 37h-88l19 103h86q0 49 -47 49q-49 0 -67 -50h-175q6 58 31 100t64.5 65t83.5 33.5t95 10.5z" />
    <glyph glyph-name="afii10096" unicode="&#x44e;" horiz-adv-x="895" 
d="M625 509q247 0 247 -209q0 -52 -15 -102t-48.5 -99.5t-98.5 -80t-154 -30.5q-124 0 -184 51.5t-63 135.5h-54l-30 -175h-226l86 492h226l-29 -165h58q78 182 285 182zM610 347q-36 0 -57 -45.5t-21 -100.5q0 -54 42 -54q29 0 53 40.5t24 104.5q0 55 -41 55z" />
    <glyph glyph-name="afii10097" unicode="&#x44f;" horiz-adv-x="617" 
d="M204 0h-222l146 196q-35 17 -53.5 48t-18.5 64q0 84 59.5 134t159.5 50h349l-86 -492h-228l34 174h-19zM305 293h60l12 68h-59q-16 0 -28.5 -12t-12.5 -30q0 -26 28 -26z" />
    <glyph glyph-name="afii10071" unicode="&#x451;" horiz-adv-x="595" 
d="M247 200q-5 -26 8 -43t40 -17q51 0 65 39h187q1 -7 1 -24q0 -81 -72.5 -124t-199.5 -43q-250 0 -250 196q0 148 90 237t241 89q95 0 151.5 -38t56.5 -103q0 -78 -70.5 -123t-247.5 -46zM505 755q33 0 54 -22t21 -55q0 -43 -33 -75.5t-74 -32.5q-33 0 -54 21.5t-21 53.5
q0 43 33 76.5t74 33.5zM278 755q33 0 54 -22t21 -55q0 -43 -33 -75.5t-74 -32.5q-33 0 -54 21.5t-21 53.5q0 43 33 76.5t74 33.5zM326 371q-55 0 -65 -64h11q85 0 85 39q0 25 -31 25z" />
    <glyph glyph-name="afii10099" unicode="&#x452;" horiz-adv-x="643" 
d="M469 474q70 0 109.5 -44.5t39.5 -136.5q0 -162 -76.5 -263t-234.5 -101q-13 0 -47 2l27 152q47 4 74 53.5t27 122.5q0 53 -41 53q-21 0 -36.5 -17t-21.5 -34t-9 -33l-40 -228h-226l93 531h-38l17 94h38l17 96h221l-17 -96h142l-17 -94h-142q-19 -98 -37 -145h6
q79 88 172 88z" />
    <glyph glyph-name="afii10100" unicode="&#x453;" horiz-adv-x="592" 
d="M265 -12q-123 0 -181.5 37.5t-58.5 101.5q0 56 33.5 94.5t81.5 56t96.5 29t82 23t33.5 27.5q0 19 -28 19q-45 0 -58 -44h-187q0 47 24 82.5t64.5 55.5t87 30t98.5 10q117 0 165.5 -39.5t48.5 -93.5q0 -51 -32.5 -88t-78.5 -56t-92.5 -32.5t-79 -26.5t-32.5 -29
q0 -21 32 -21q56 0 67 48h190q1 -51 -23 -88.5t-65 -57.5t-87.5 -29t-100.5 -9zM323 550l-68 79l206 198l98 -115z" />
    <glyph glyph-name="afii10101" unicode="&#x454;" horiz-adv-x="582" 
d="M354 509q103 0 160 -39.5t57 -107.5q0 -33 -11 -62h-184q0 50 -42 50q-41 0 -64 -49h87l-19 -103h-89q2 -51 48 -51q45 0 63 48h188q0 -54 -25 -95.5t-66.5 -65t-88.5 -35t-97 -11.5q-246 0 -246 189q0 82 28 147.5t75 104.5t105 59.5t121 20.5z" />
    <glyph glyph-name="afii10102" unicode="&#x455;" horiz-adv-x="554" 
d="M228 -12q-99 0 -159.5 33t-60.5 100q0 28 10 51h185q0 -2 -0.5 -4t-0.5 -3q0 -41 50 -41q15 0 28 7.5t13 19.5q0 13 -25 23t-60 20.5t-70.5 25t-60.5 42.5t-25 67q0 29 12 57t40 57.5t86 48t139 18.5q89 0 148.5 -33.5t59.5 -95.5q0 -27 -10 -49h-184v7q0 37 -41 37
q-16 0 -26 -7.5t-10 -17.5q0 -13 25.5 -22.5t62 -19t73 -23.5t62 -45.5t25.5 -76.5q0 -83 -73 -129.5t-213 -46.5z" />
    <glyph glyph-name="afii10103" unicode="&#x456;" horiz-adv-x="316" 
d="M6 0l86 492h225l-86 -492h-225zM252 757q40 0 66 -26.5t26 -66.5q0 -52 -41 -92t-91 -40q-40 0 -65.5 26t-25.5 66q0 52 40.5 92.5t90.5 40.5z" />
    <glyph glyph-name="afii10104" unicode="&#x457;" horiz-adv-x="316" 
d="M136 748q33 0 54 -22t21 -55q0 -43 -33 -75.5t-74 -32.5q-33 0 -54 21.5t-21 53.5q0 43 33 76.5t74 33.5zM363 748q33 0 54 -22t21 -55q0 -43 -33 -75.5t-74 -32.5q-33 0 -54 21.5t-21 53.5q0 43 33 76.5t74 33.5zM6 0l86 492h225l-86 -492h-225z" />
    <glyph glyph-name="afii10105" unicode="&#x458;" horiz-adv-x="334" 
d="M108 492h225l-98 -556q-29 -162 -206 -162q-51 0 -113 13l22 169q46 0 63.5 14t23.5 48zM268 757q40 0 66 -26.5t26 -66.5q0 -52 -41 -92t-91 -40q-40 0 -65.5 26t-25.5 66q0 52 40.5 92.5t90.5 40.5z" />
    <glyph glyph-name="afii10106" unicode="&#x459;" horiz-adv-x="935" 
d="M176 492h462l-21 -137h111q86 0 134.5 -37t48.5 -111q0 -20 -6.5 -44.5t-25.5 -56t-49 -56t-83 -42t-121 -17.5q-256 0 -256 194q0 31 6 67l14 82h-53l-25 -99q-36 -140 -83.5 -193.5t-147.5 -53.5q-63 0 -101 10l26 138q35 1 52 10t35 44.5t36 111.5zM633 145
q31 0 45.5 13.5t14.5 29.5q0 9 -6.5 16.5t-23.5 7.5h-65l-3 -17q-2 -10 -2 -17q0 -33 40 -33z" />
    <glyph glyph-name="afii10107" unicode="&#x45a;" horiz-adv-x="916" 
d="M403 492h225l-27 -155h104q183 0 183 -136q0 -20 -5 -42.5t-23.5 -53.5t-48 -54.5t-84 -40.5t-125.5 -17q-132 0 -192.5 47t-56.5 148h-95l-33 -188h-226l86 492h226l-28 -160h91zM610 142q31 0 45 12.5t14 28.5q0 23 -30 23h-65l-3 -18q-7 -46 39 -46z" />
    <glyph glyph-name="afii10108" unicode="&#x45b;" horiz-adv-x="626" 
d="M272 382h6q39 52 90 75.5t91 23.5q174 0 141 -187l-51 -294h-225l44 252q12 67 -36 67q-52 0 -66 -84l-41 -235h-226l93 531h-38l17 94h38l17 96h220l-17 -96h143l-17 -94h-143q-19 -101 -40 -149z" />
    <glyph glyph-name="afii10109" unicode="&#x45c;" horiz-adv-x="628" 
d="M336 537l-68 79l206 198l98 -115zM256 175l-30 -175h-227l87 494h227l-28 -154h26l101 152h256l-195 -232l112 -260h-240l-62 175h-27z" />
    <glyph glyph-name="afii10110" unicode="&#x45e;" horiz-adv-x="636" 
d="M338 -205h-224l110 206l-85 -2l-101 493h234l14 -161q11 -111 4 -194h6l69 159q36 82 56 195h227q-1 -8 -5 -32.5t-5.5 -31.5t-5.5 -27t-7.5 -30t-9.5 -27.5t-13.5 -34t-17.5 -35.5zM359 523q-52 0 -88.5 18.5t-54.5 50t-23.5 69t-0.5 80.5h105q-4 -50 18 -73t61 -23
q34 0 65.5 26.5t47.5 69.5h110q-21 -88 -82 -153t-158 -65z" />
    <glyph glyph-name="afii10193" unicode="&#x45f;" horiz-adv-x="616" 
d="M328 -250h-170l26 215h185zM332 75h-6q-67 -87 -170 -87q-87 0 -116 47t-13 140l56 317h225l-50 -283q-12 -67 32 -67q46 0 60 84l47 266h226l-86 -492h-199q-13 23 -6 75z" />
    <glyph glyph-name="afii10050" unicode="&#x490;" horiz-adv-x="618" 
d="M8 0l120 684h373l21 120h177l-52 -298h-311l-89 -506h-239z" />
    <glyph glyph-name="afii10098" unicode="&#x491;" horiz-adv-x="519" 
d="M-1 0l86 492h283l25 140h178l-53 -300h-235l-58 -332h-226z" />
    <glyph glyph-name="schwacyrillic" unicode="&#x4d9;" horiz-adv-x="610" 
d="M356 298q1 5 1 14q0 21 -13 33.5t-36 12.5q-39 0 -53 -39h-187v9q0 51 23.5 88.5t63 57t82 28t90.5 8.5q127 0 190 -58.5t63 -153.5q0 -148 -88 -229t-246 -81q-95 0 -151.5 38t-56.5 103q0 78 70.5 123t247.5 46zM277 127q55 0 65 64q-96 0 -96 -39q0 -25 31 -25z" />
    <glyph glyph-name="Wgrave" unicode="&#x1e80;" horiz-adv-x="1062" 
d="M563 402h-6q-19 -59 -68 -188l-83 -218h-283l-38 687h257l-5 -222q-1 -78 -10 -194h8q18 55 74 197l86 219h246l-2 -205v-111.5t-1 -91.5h8q9 33 65 201l69 207h257l-280 -687h-283l-8 216q-1 22 -3.5 74.5t-2 58t2.5 57.5zM727 829l-74 -95l-238 119l100 138z" />
    <glyph glyph-name="wgrave" unicode="&#x1e81;" horiz-adv-x="925" 
d="M639 200h5l41 105q17 43 27 77.5t13.5 53t9.5 56.5h222q-10 -77 -21 -117t-46 -106l-142 -273h-260l-9 123q-7 91 -7 133h-8q-20 -64 -46 -130l-49 -126h-262l-67 496h223l8 -145q4 -89 5 -147h5q23 77 41 126l38 104h265l9 -115q4 -54 5 -115zM630 641l-82 -94l-215 133
l111 137z" />
    <glyph glyph-name="Wacute" unicode="&#x1e82;" horiz-adv-x="1062" 
d="M563 402h-6q-19 -59 -68 -188l-83 -218h-283l-38 687h257l-5 -222q-1 -78 -10 -194h8q18 55 74 197l86 219h246l-2 -205v-111.5t-1 -91.5h8q9 33 65 201l69 207h257l-280 -687h-283l-8 216q-1 22 -3.5 74.5t-2 58t2.5 57.5zM579 724l-48 104l256 160l64 -148z" />
    <glyph glyph-name="wacute" unicode="&#x1e83;" horiz-adv-x="925" 
d="M639 200h5l41 105q17 43 27 77.5t13.5 53t9.5 56.5h222q-10 -77 -21 -117t-46 -106l-142 -273h-260l-9 123q-7 91 -7 133h-8q-20 -64 -46 -130l-49 -126h-262l-67 496h223l8 -145q4 -89 5 -147h5q23 77 41 126l38 104h265l9 -115q4 -54 5 -115zM471 537l-68 79l206 198
l98 -115z" />
    <glyph glyph-name="Wdieresis" unicode="&#x1e84;" horiz-adv-x="1062" 
d="M563 402h-6q-19 -59 -68 -188l-83 -218h-283l-38 687h257l-5 -222q-1 -78 -10 -194h8q18 55 74 197l86 219h246l-2 -205v-111.5t-1 -91.5h8q9 33 65 201l69 207h257l-280 -687h-283l-8 216q-1 22 -3.5 74.5t-2 58t2.5 57.5zM546 944q33 0 54 -22t21 -55q0 -43 -33 -75.5
t-74 -32.5q-34 0 -55 21.5t-21 53.5q0 43 33 76.5t75 33.5zM773 944q33 0 54 -22t21 -55q0 -43 -33 -75.5t-74 -32.5q-33 0 -54.5 21.5t-21.5 53.5q0 43 33 76.5t75 33.5z" />
    <glyph glyph-name="wdieresis" unicode="&#x1e85;" horiz-adv-x="925" 
d="M639 200h5l41 105q17 43 27 77.5t13.5 53t9.5 56.5h222q-10 -77 -21 -117t-46 -106l-142 -273h-260l-9 123q-7 91 -7 133h-8q-20 -64 -46 -130l-49 -126h-262l-67 496h223l8 -145q4 -89 5 -147h5q23 77 41 126l38 104h265l9 -115q4 -54 5 -115zM433 748q33 0 54 -22
t21 -55q0 -43 -33 -75.5t-74 -32.5q-33 0 -54 21.5t-21 53.5q0 43 33 76.5t74 33.5zM660 748q33 0 54 -22t21 -55q0 -43 -33 -75.5t-74 -32.5q-33 0 -54 21.5t-21 53.5q0 43 33 76.5t74 33.5z" />
    <glyph glyph-name="Ygrave" unicode="&#x1ef2;" horiz-adv-x="707" 
d="M380 405h10q21 48 67 131l82 147h243l-307 -458l-39 -225h-237l36 208l-150 475h245l31 -153q17 -80 19 -125zM555 814l-74 -95l-238 119l100 138z" />
    <glyph glyph-name="ygrave" unicode="&#x1ef3;" horiz-adv-x="636" 
d="M338 -205h-224l110 206l-85 -2l-101 493h234l14 -161q11 -111 4 -194h6l69 159q36 82 56 195h227q-1 -8 -5 -32.5t-5.5 -31.5t-5.5 -27t-7.5 -30t-9.5 -27.5t-13.5 -34t-17.5 -35.5zM473 641l-82 -94l-215 133l111 137z" />
    <glyph glyph-name="uni1F00" unicode="&#x1f00;" horiz-adv-x="646" 
d="M303 143q37 0 61.5 45.5t24.5 106.5q0 58 -45 58q-36 0 -63 -41t-27 -106q0 -63 49 -63zM288 509q100 0 136 -70h5q9 28 25 53h199l-86 -492h-199q-8 28 -3 67h-5q-70 -79 -173 -79q-162 0 -162 172q0 58 14.5 116t43.5 112t82.5 87.5t122.5 33.5zM404 536l-74 37
q53 52 53 98q0 37 -60 61l84 125q61 -10 93 -46.5t32 -85.5q0 -51 -34 -103t-94 -86z" />
    <glyph glyph-name="uni1F01" unicode="&#x1f01;" horiz-adv-x="646" 
d="M303 143q37 0 61.5 45.5t24.5 106.5q0 58 -45 58q-36 0 -63 -41t-27 -106q0 -63 49 -63zM288 509q100 0 136 -70h5q9 28 25 53h199l-86 -492h-199q-8 28 -3 67h-5q-70 -79 -173 -79q-162 0 -162 172q0 58 14.5 116t43.5 112t82.5 87.5t122.5 33.5zM469 573l-88 -37
q-71 50 -71 132q0 67 49 121.5t134 67.5l39 -125q-49 -18 -67.5 -39t-18.5 -49q0 -38 23 -71z" />
    <glyph glyph-name="uni1F02" unicode="&#x1f02;" horiz-adv-x="646" 
d="M303 143q37 0 61.5 45.5t24.5 106.5q0 58 -45 58q-36 0 -63 -41t-27 -106q0 -63 49 -63zM288 509q100 0 136 -70h5q9 28 25 53h199l-86 -492h-199q-8 28 -3 67h-5q-70 -79 -173 -79q-162 0 -162 172q0 58 14.5 116t43.5 112t82.5 87.5t122.5 33.5zM610 585l-116 -34
l-81 271l164 49zM265 541l-74 37q54 51 54 101q0 37 -60 62l83 125q61 -10 93 -46t32 -86q0 -51 -34 -104.5t-94 -88.5z" />
    <glyph glyph-name="uni1F03" unicode="&#x1f03;" horiz-adv-x="646" 
d="M303 143q37 0 61.5 45.5t24.5 106.5q0 58 -45 58q-36 0 -63 -41t-27 -106q0 -63 49 -63zM288 509q100 0 136 -70h5q9 28 25 53h199l-86 -492h-199q-8 28 -3 67h-5q-70 -79 -173 -79q-162 0 -162 172q0 58 14.5 116t43.5 112t82.5 87.5t122.5 33.5zM607 585l-116 -34
l-81 271l164 49zM334 578l-86 -37q-71 49 -71 137q0 66 49 120.5t133 67.5l39 -125q-50 -18 -67.5 -39t-17.5 -51q0 -41 21 -73z" />
    <glyph glyph-name="uni1F04" unicode="&#x1f04;" horiz-adv-x="646" 
d="M303 143q37 0 61.5 45.5t24.5 106.5q0 58 -45 58q-36 0 -63 -41t-27 -106q0 -63 49 -63zM288 509q100 0 136 -70h5q9 28 25 53h199l-86 -492h-199q-8 28 -3 67h-5q-70 -79 -173 -79q-162 0 -162 172q0 58 14.5 116t43.5 112t82.5 87.5t122.5 33.5zM497 535l-97 47
l160 271l140 -64zM295 545l-75 37q53 50 53 98q0 37 -59 61l83 125q61 -10 93 -46t32 -86q0 -51 -33.5 -103t-93.5 -86z" />
    <glyph glyph-name="uni1F05" unicode="&#x1f05;" horiz-adv-x="646" 
d="M303 143q37 0 61.5 45.5t24.5 106.5q0 58 -45 58q-36 0 -63 -41t-27 -106q0 -63 49 -63zM288 509q100 0 136 -70h5q9 28 25 53h199l-86 -492h-199q-8 28 -3 67h-5q-70 -79 -173 -79q-162 0 -162 172q0 58 14.5 116t43.5 112t82.5 87.5t122.5 33.5zM497 542l-103 37
l134 286l145 -49zM356 578l-86 -37q-71 49 -71 137q0 66 49 120.5t133 67.5l39 -125q-50 -18 -67.5 -39t-17.5 -51q0 -41 21 -73z" />
    <glyph glyph-name="uni1F06" unicode="&#x1f06;" horiz-adv-x="646" 
d="M303 143q37 0 61.5 45.5t24.5 106.5q0 58 -45 58q-36 0 -63 -41t-27 -106q0 -63 49 -63zM288 509q100 0 136 -70h5q9 28 25 53h199l-86 -492h-199q-8 28 -3 67h-5q-70 -79 -173 -79q-162 0 -162 172q0 58 14.5 116t43.5 112t82.5 87.5t122.5 33.5zM389 534l-71 37
q44 37 44 66q0 28 -61 45l85 101q58 -4 89 -32t31 -68q0 -42 -31 -83t-86 -66zM492 798q-26 0 -73.5 18t-75.5 18q-52 0 -87 -34l-69 58q71 114 161 114q22 0 78 -19.5t80 -19.5q40 0 84 38l71 -51q-29 -58 -75 -90t-94 -32z" />
    <glyph glyph-name="uni1F07" unicode="&#x1f07;" horiz-adv-x="646" 
d="M303 143q37 0 61.5 45.5t24.5 106.5q0 58 -45 58q-36 0 -63 -41t-27 -106q0 -63 49 -63zM288 509q100 0 136 -70h5q9 28 25 53h199l-86 -492h-199q-8 28 -3 67h-5q-70 -79 -173 -79q-162 0 -162 172q0 58 14.5 116t43.5 112t82.5 87.5t122.5 33.5zM470 571l-84 -37
q-73 39 -73 110q0 52 44 92.5t120 46.5l49 -101q-45 -11 -62 -25t-17 -37q0 -21 23 -49zM507 798q-26 0 -73.5 18t-75.5 18q-52 0 -87 -34l-69 58q71 114 161 114q22 0 78 -19.5t80 -19.5q40 0 84 38l71 -51q-29 -58 -75 -90t-94 -32z" />
    <glyph glyph-name="uni1F08" unicode="&#x1f08;" horiz-adv-x="760" 
d="M477 0l-12 124h-202l-54 -124h-244l349 684h309l92 -684h-238zM370 354l-35 -73h119l-4 53q-10 116 -5 173h-9q-23 -58 -66 -153zM21 418l-74 37q53 52 53 98q0 37 -60 61l84 125q61 -10 93 -46.5t32 -85.5q0 -51 -34 -103t-94 -86z" />
    <glyph glyph-name="uni1F09" unicode="&#x1f09;" horiz-adv-x="760" 
d="M477 0l-12 124h-202l-54 -124h-244l349 684h309l92 -684h-238zM370 354l-35 -73h119l-4 53q-10 116 -5 173h-9q-23 -58 -66 -153zM105 457l-88 -37q-71 50 -71 132q0 67 49 121.5t134 67.5l39 -125q-49 -18 -67.5 -39t-18.5 -49q0 -38 23 -71z" />
    <glyph glyph-name="uni1F0A" unicode="&#x1f0a;" horiz-adv-x="760" 
d="M477 0l-12 124h-202l-54 -124h-244l349 684h309l92 -684h-238zM370 354l-35 -73h119l-4 53q-10 116 -5 173h-9q-23 -58 -66 -153zM157 460l-116 -34l-81 271l164 49zM-188 416l-74 37q54 51 54 101q0 37 -60 62l83 125q61 -10 93 -46t32 -86q0 -51 -34 -104.5t-94 -88.5z
" />
    <glyph glyph-name="uni1F0B" unicode="&#x1f0b;" horiz-adv-x="760" 
d="M477 0l-12 124h-202l-54 -124h-244l349 684h309l92 -684h-238zM370 354l-35 -73h119l-4 53q-10 116 -5 173h-9q-23 -58 -66 -153zM168 466l-116 -34l-81 271l164 49zM-105 459l-86 -37q-71 49 -71 137q0 66 49 120.5t133 67.5l39 -125q-50 -18 -67.5 -39t-17.5 -51
q0 -41 21 -73z" />
    <glyph glyph-name="uni1F0C" unicode="&#x1f0c;" horiz-adv-x="760" 
d="M477 0l-12 124h-202l-54 -124h-244l349 684h309l92 -684h-238zM370 354l-35 -73h119l-4 53q-10 116 -5 173h-9q-23 -58 -66 -153zM12 414l-97 47l160 271l140 -64zM-190 424l-75 37q53 50 53 98q0 37 -59 61l83 125q61 -10 93 -46t32 -86q0 -51 -33.5 -103t-93.5 -86z
" />
    <glyph glyph-name="uni1F0D" unicode="&#x1f0d;" horiz-adv-x="760" 
d="M477 0l-12 124h-202l-54 -124h-244l349 684h309l92 -684h-238zM370 354l-35 -73h119l-4 53q-10 116 -5 173h-9q-23 -58 -66 -153zM36 411l-103 37l134 286l145 -49zM-105 447l-86 -37q-71 49 -71 137q0 66 49 120.5t133 67.5l39 -125q-50 -18 -67.5 -39t-17.5 -51
q0 -41 21 -73z" />
    <glyph glyph-name="uni1F0E" unicode="&#x1f0e;" horiz-adv-x="760" 
d="M477 0l-12 124h-202l-54 -124h-244l349 684h309l92 -684h-238zM370 354l-35 -73h119l-4 53q-10 116 -5 173h-9q-23 -58 -66 -153zM-41 318l-71 37q44 37 44 66q0 28 -61 45l85 101q58 -4 89 -32t31 -68q0 -42 -31 -83t-86 -66zM62 582q-26 0 -73.5 18t-75.5 18
q-52 0 -87 -34l-69 58q71 114 161 114q22 0 78 -19.5t80 -19.5q40 0 84 38l71 -51q-29 -58 -75 -90t-94 -32z" />
    <glyph glyph-name="uni1F0F" unicode="&#x1f0f;" horiz-adv-x="760" 
d="M477 0l-12 124h-202l-54 -124h-244l349 684h309l92 -684h-238zM370 354l-35 -73h119l-4 53q-10 116 -5 173h-9q-23 -58 -66 -153zM35 346l-84 -37q-73 39 -73 110q0 52 44 92.5t120 46.5l49 -101q-45 -11 -62 -25t-17 -37q0 -21 23 -49zM72 573q-26 0 -73.5 18t-75.5 18
q-52 0 -87 -34l-69 58q71 114 161 114q22 0 78 -19.5t80 -19.5q40 0 84 38l71 -51q-29 -58 -75 -90t-94 -32z" />
    <glyph glyph-name="uni1F10" unicode="&#x1f10;" horiz-adv-x="568" 
d="M112 257l1 6q-56 23 -56 77q0 69 72.5 119t203.5 50q99 0 159.5 -31.5t60.5 -96.5q0 -26 -10 -49h-186q0 29 -38 29q-16 0 -28 -9t-12 -23q0 -19 33 -19h34l-20 -113h-32q-50 0 -50 -34q0 -25 38 -25q44 0 58 40h191q2 -55 -23 -94.5t-68.5 -59t-89 -28t-96.5 -8.5
q-117 0 -179.5 41t-62.5 103q0 11 3 24t12 32.5t31 38t54 30.5zM342 536l-74 37q53 52 53 98q0 37 -60 61l84 125q61 -10 93 -46.5t32 -85.5q0 -51 -34 -103t-94 -86z" />
    <glyph glyph-name="uni1F11" unicode="&#x1f11;" horiz-adv-x="568" 
d="M112 257l1 6q-56 23 -56 77q0 69 72.5 119t203.5 50q99 0 159.5 -31.5t60.5 -96.5q0 -26 -10 -49h-186q0 29 -38 29q-16 0 -28 -9t-12 -23q0 -19 33 -19h34l-20 -113h-32q-50 0 -50 -34q0 -25 38 -25q44 0 58 40h191q2 -55 -23 -94.5t-68.5 -59t-89 -28t-96.5 -8.5
q-117 0 -179.5 41t-62.5 103q0 11 3 24t12 32.5t31 38t54 30.5zM415 573l-88 -37q-71 50 -71 132q0 67 49 121.5t134 67.5l39 -125q-49 -18 -67.5 -39t-18.5 -49q0 -38 23 -71z" />
    <glyph glyph-name="uni1F12" unicode="&#x1f12;" horiz-adv-x="568" 
d="M112 257l1 6q-56 23 -56 77q0 69 72.5 119t203.5 50q99 0 159.5 -31.5t60.5 -96.5q0 -26 -10 -49h-186q0 29 -38 29q-16 0 -28 -9t-12 -23q0 -19 33 -19h34l-20 -113h-32q-50 0 -50 -34q0 -25 38 -25q44 0 58 40h191q2 -55 -23 -94.5t-68.5 -59t-89 -28t-96.5 -8.5
q-117 0 -179.5 41t-62.5 103q0 11 3 24t12 32.5t31 38t54 30.5zM569 585l-116 -34l-81 271l164 49zM224 541l-74 37q54 51 54 101q0 37 -60 62l83 125q61 -10 93 -46t32 -86q0 -51 -34 -104.5t-94 -88.5z" />
    <glyph glyph-name="uni1F13" unicode="&#x1f13;" horiz-adv-x="568" 
d="M112 257l1 6q-56 23 -56 77q0 69 72.5 119t203.5 50q99 0 159.5 -31.5t60.5 -96.5q0 -26 -10 -49h-186q0 29 -38 29q-16 0 -28 -9t-12 -23q0 -19 33 -19h34l-20 -113h-32q-50 0 -50 -34q0 -25 38 -25q44 0 58 40h191q2 -55 -23 -94.5t-68.5 -59t-89 -28t-96.5 -8.5
q-117 0 -179.5 41t-62.5 103q0 11 3 24t12 32.5t31 38t54 30.5zM574 585l-116 -34l-81 271l164 49zM301 578l-86 -37q-71 49 -71 137q0 66 49 120.5t133 67.5l39 -125q-50 -18 -67.5 -39t-17.5 -51q0 -41 21 -73z" />
    <glyph glyph-name="uni1F14" unicode="&#x1f14;" horiz-adv-x="568" 
d="M112 257l1 6q-56 23 -56 77q0 69 72.5 119t203.5 50q99 0 159.5 -31.5t60.5 -96.5q0 -26 -10 -49h-186q0 29 -38 29q-16 0 -28 -9t-12 -23q0 -19 33 -19h34l-20 -113h-32q-50 0 -50 -34q0 -25 38 -25q44 0 58 40h191q2 -55 -23 -94.5t-68.5 -59t-89 -28t-96.5 -8.5
q-117 0 -179.5 41t-62.5 103q0 11 3 24t12 32.5t31 38t54 30.5zM428 535l-97 47l160 271l140 -64zM226 545l-75 37q53 50 53 98q0 37 -59 61l83 125q61 -10 93 -46t32 -86q0 -51 -33.5 -103t-93.5 -86z" />
    <glyph glyph-name="uni1F15" unicode="&#x1f15;" horiz-adv-x="568" 
d="M112 257l1 6q-56 23 -56 77q0 69 72.5 119t203.5 50q99 0 159.5 -31.5t60.5 -96.5q0 -26 -10 -49h-186q0 29 -38 29q-16 0 -28 -9t-12 -23q0 -19 33 -19h34l-20 -113h-32q-50 0 -50 -34q0 -25 38 -25q44 0 58 40h191q2 -55 -23 -94.5t-68.5 -59t-89 -28t-96.5 -8.5
q-117 0 -179.5 41t-62.5 103q0 11 3 24t12 32.5t31 38t54 30.5zM447 542l-103 37l134 286l145 -49zM306 578l-86 -37q-71 49 -71 137q0 66 49 120.5t133 67.5l39 -125q-50 -18 -67.5 -39t-17.5 -51q0 -41 21 -73z" />
    <glyph glyph-name="uni1F18" unicode="&#x1f18;" horiz-adv-x="633" 
d="M8 0l120 684h533l-31 -177h-294l-12 -69h259l-30 -170h-259l-16 -91h330l-31 -177h-569zM-103 410l-74 37q53 52 53 98q0 37 -60 61l84 125q61 -10 93 -46.5t32 -85.5q0 -51 -34 -103t-94 -86z" />
    <glyph glyph-name="uni1F19" unicode="&#x1f19;" horiz-adv-x="633" 
d="M8 0l120 684h533l-31 -177h-294l-12 -69h259l-30 -170h-259l-16 -91h330l-31 -177h-569zM-19 453l-88 -37q-71 50 -71 132q0 67 49 121.5t134 67.5l39 -125q-49 -18 -67.5 -39t-18.5 -49q0 -38 23 -71z" />
    <glyph glyph-name="uni1F1A" unicode="&#x1f1a;" horiz-adv-x="633" 
d="M8 0l120 684h533l-31 -177h-294l-12 -69h259l-30 -170h-259l-16 -91h330l-31 -177h-569zM36 448l-116 -34l-81 271l164 49zM-309 404l-74 37q54 51 54 101q0 37 -60 62l83 125q61 -10 93 -46t32 -86q0 -51 -34 -104.5t-94 -88.5z" />
    <glyph glyph-name="uni1F1B" unicode="&#x1f1b;" horiz-adv-x="633" 
d="M8 0l120 684h533l-31 -177h-294l-12 -69h259l-30 -170h-259l-16 -91h330l-31 -177h-569zM26 447l-116 -34l-81 271l164 49zM-247 440l-86 -37q-71 49 -71 137q0 66 49 120.5t133 67.5l39 -125q-50 -18 -67.5 -39t-17.5 -51q0 -41 21 -73z" />
    <glyph glyph-name="uni1F1C" unicode="&#x1f1c;" horiz-adv-x="633" 
d="M8 0l120 684h533l-31 -177h-294l-12 -69h259l-30 -170h-259l-16 -91h330l-31 -177h-569zM-104 408l-97 47l160 271l140 -64zM-306 418l-75 37q53 50 53 98q0 37 -59 61l83 125q61 -10 93 -46t32 -86q0 -51 -33.5 -103t-93.5 -86z" />
    <glyph glyph-name="uni1F1D" unicode="&#x1f1d;" horiz-adv-x="633" 
d="M8 0l120 684h533l-31 -177h-294l-12 -69h259l-30 -170h-259l-16 -91h330l-31 -177h-569zM-82 412l-103 37l134 286l145 -49zM-223 448l-86 -37q-71 49 -71 137q0 66 49 120.5t133 67.5l39 -125q-50 -18 -67.5 -39t-17.5 -51q0 -41 21 -73z" />
    <glyph glyph-name="uni1F20" unicode="&#x1f20;" horiz-adv-x="626" 
d="M290 414h6q72 95 168 95q174 0 141 -187l-84 -483h-225l77 439q11 67 -37 67q-51 0 -65 -84l-46 -261h-226l86 492h200q14 -29 5 -78zM339 536l-74 37q53 52 53 98q0 37 -60 61l84 125q61 -10 93 -46.5t32 -85.5q0 -51 -34 -103t-94 -86z" />
    <glyph glyph-name="uni1F21" unicode="&#x1f21;" horiz-adv-x="626" 
d="M290 414h6q72 95 168 95q174 0 141 -187l-84 -483h-225l77 439q11 67 -37 67q-51 0 -65 -84l-46 -261h-226l86 492h200q14 -29 5 -78zM418 573l-88 -37q-71 50 -71 132q0 67 49 121.5t134 67.5l39 -125q-49 -18 -67.5 -39t-18.5 -49q0 -38 23 -71z" />
    <glyph glyph-name="uni1F22" unicode="&#x1f22;" horiz-adv-x="626" 
d="M290 414h6q72 95 168 95q174 0 141 -187l-84 -483h-225l77 439q11 67 -37 67q-51 0 -65 -84l-46 -261h-226l86 492h200q14 -29 5 -78zM571 585l-116 -34l-81 271l164 49zM226 541l-74 37q54 51 54 101q0 37 -60 62l83 125q61 -10 93 -46t32 -86q0 -51 -34 -104.5
t-94 -88.5z" />
    <glyph glyph-name="uni1F23" unicode="&#x1f23;" horiz-adv-x="626" 
d="M290 414h6q72 95 168 95q174 0 141 -187l-84 -483h-225l77 439q11 67 -37 67q-51 0 -65 -84l-46 -261h-226l86 492h200q14 -29 5 -78zM583 585l-116 -34l-81 271l164 49zM310 578l-86 -37q-71 49 -71 137q0 66 49 120.5t133 67.5l39 -125q-50 -18 -67.5 -39t-17.5 -51
q0 -41 21 -73z" />
    <glyph glyph-name="uni1F24" unicode="&#x1f24;" horiz-adv-x="626" 
d="M290 414h6q72 95 168 95q174 0 141 -187l-84 -483h-225l77 439q11 67 -37 67q-51 0 -65 -84l-46 -261h-226l86 492h200q14 -29 5 -78zM438 535l-97 47l160 271l140 -64zM236 545l-75 37q53 50 53 98q0 37 -59 61l83 125q61 -10 93 -46t32 -86q0 -51 -33.5 -103t-93.5 -86
z" />
    <glyph glyph-name="uni1F25" unicode="&#x1f25;" horiz-adv-x="626" 
d="M290 414h6q72 95 168 95q174 0 141 -187l-84 -483h-225l77 439q11 67 -37 67q-51 0 -65 -84l-46 -261h-226l86 492h200q14 -29 5 -78zM456 542l-103 37l134 286l145 -49zM315 578l-86 -37q-71 49 -71 137q0 66 49 120.5t133 67.5l39 -125q-50 -18 -67.5 -39t-17.5 -51
q0 -41 21 -73z" />
    <glyph glyph-name="uni1F26" unicode="&#x1f26;" horiz-adv-x="626" 
d="M290 414h6q72 95 168 95q174 0 141 -187l-84 -483h-225l77 439q11 67 -37 67q-51 0 -65 -84l-46 -261h-226l86 492h200q14 -29 5 -78zM363 534l-71 37q44 37 44 66q0 28 -61 45l85 101q58 -4 89 -32t31 -68q0 -42 -31 -83t-86 -66zM466 798q-26 0 -73.5 18t-75.5 18
q-52 0 -87 -34l-69 58q71 114 161 114q22 0 78 -19.5t80 -19.5q40 0 84 38l71 -51q-29 -58 -75 -90t-94 -32z" />
    <glyph glyph-name="uni1F27" unicode="&#x1f27;" horiz-adv-x="626" 
d="M290 414h6q72 95 168 95q174 0 141 -187l-84 -483h-225l77 439q11 67 -37 67q-51 0 -65 -84l-46 -261h-226l86 492h200q14 -29 5 -78zM427 570l-84 -37q-73 39 -73 110q0 52 44 92.5t120 46.5l49 -101q-45 -11 -62 -25t-17 -37q0 -21 23 -49zM464 797q-26 0 -73.5 18
t-75.5 18q-52 0 -87 -34l-69 58q71 114 161 114q22 0 78 -19.5t80 -19.5q40 0 84 38l71 -51q-29 -58 -75 -90t-94 -32z" />
    <glyph glyph-name="uni1F28" unicode="&#x1f28;" horiz-adv-x="760" 
d="M433 0l46 261h-185l-46 -261h-240l120 683h240l-44 -248h185l44 248h238l-120 -683h-238zM-87 412l-74 37q53 52 53 98q0 37 -60 61l84 125q61 -10 93 -46.5t32 -85.5q0 -51 -34 -103t-94 -86z" />
    <glyph glyph-name="uni1F29" unicode="&#x1f29;" horiz-adv-x="760" 
d="M433 0l46 261h-185l-46 -261h-240l120 683h240l-44 -248h185l44 248h238l-120 -683h-238zM-12 447l-88 -37q-71 50 -71 132q0 67 49 121.5t134 67.5l39 -125q-49 -18 -67.5 -39t-18.5 -49q0 -38 23 -71z" />
    <glyph glyph-name="uni1F2A" unicode="&#x1f2a;" horiz-adv-x="760" 
d="M433 0l46 261h-185l-46 -261h-240l120 683h240l-44 -248h185l44 248h238l-120 -683h-238zM21 453l-116 -34l-81 271l164 49zM-324 409l-74 37q54 51 54 101q0 37 -60 62l83 125q61 -10 93 -46t32 -86q0 -51 -34 -104.5t-94 -88.5z" />
    <glyph glyph-name="uni1F2B" unicode="&#x1f2b;" horiz-adv-x="760" 
d="M433 0l46 261h-185l-46 -261h-240l120 683h240l-44 -248h185l44 248h238l-120 -683h-238zM42 452l-116 -34l-81 271l164 49zM-231 445l-86 -37q-71 49 -71 137q0 66 49 120.5t133 67.5l39 -125q-50 -18 -67.5 -39t-17.5 -51q0 -41 21 -73z" />
    <glyph glyph-name="uni1F2C" unicode="&#x1f2c;" horiz-adv-x="760" 
d="M433 0l46 261h-185l-46 -261h-240l120 683h240l-44 -248h185l44 248h238l-120 -683h-238zM-111 408l-97 47l160 271l140 -64zM-313 418l-75 37q53 50 53 98q0 37 -59 61l83 125q61 -10 93 -46t32 -86q0 -51 -33.5 -103t-93.5 -86z" />
    <glyph glyph-name="uni1F2D" unicode="&#x1f2d;" horiz-adv-x="760" 
d="M433 0l46 261h-185l-46 -261h-240l120 683h240l-44 -248h185l44 248h238l-120 -683h-238zM-110 413l-103 37l134 286l145 -49zM-251 449l-86 -37q-71 49 -71 137q0 66 49 120.5t133 67.5l39 -125q-50 -18 -67.5 -39t-17.5 -51q0 -41 21 -73z" />
    <glyph glyph-name="uni1F2E" unicode="&#x1f2e;" horiz-adv-x="760" 
d="M433 0l46 261h-185l-46 -261h-240l120 683h240l-44 -248h185l44 248h238l-120 -683h-238zM-182 306l-71 37q44 37 44 66q0 28 -61 45l85 101q58 -4 89 -32t31 -68q0 -42 -31 -83t-86 -66zM-79 570q-26 0 -73.5 18t-75.5 18q-52 0 -87 -34l-69 58q71 114 161 114
q22 0 78 -19.5t80 -19.5q40 0 84 38l71 -51q-29 -58 -75 -90t-94 -32z" />
    <glyph glyph-name="uni1F2F" unicode="&#x1f2f;" horiz-adv-x="760" 
d="M433 0l46 261h-185l-46 -261h-240l120 683h240l-44 -248h185l44 248h238l-120 -683h-238zM-118 346l-84 -37q-73 39 -73 110q0 52 44 92.5t120 46.5l49 -101q-45 -11 -62 -25t-17 -37q0 -21 23 -49zM-81 573q-26 0 -73.5 18t-75.5 18q-52 0 -87 -34l-69 58
q71 114 161 114q22 0 78 -19.5t80 -19.5q40 0 84 38l71 -51q-29 -58 -75 -90t-94 -32z" />
    <glyph glyph-name="uni1F30" unicode="&#x1f30;" horiz-adv-x="343" 
d="M92 492h225l-48 -273q-3 -15 -3 -27q0 -27 40 -28l-26 -172q-47 -5 -87 -5q-165 0 -165 126q0 18 5 48zM209 536l-74 37q53 52 53 98q0 37 -60 61l84 125q61 -10 93 -46.5t32 -85.5q0 -51 -34 -103t-94 -86z" />
    <glyph glyph-name="uni1F31" unicode="&#x1f31;" horiz-adv-x="343" 
d="M92 492h225l-48 -273q-3 -15 -3 -27q0 -27 40 -28l-26 -172q-47 -5 -87 -5q-165 0 -165 126q0 18 5 48zM295 573l-88 -37q-71 50 -71 132q0 67 49 121.5t134 67.5l39 -125q-49 -18 -67.5 -39t-18.5 -49q0 -38 23 -71z" />
    <glyph glyph-name="uni1F32" unicode="&#x1f32;" horiz-adv-x="343" 
d="M92 492h225l-48 -273q-3 -15 -3 -27q0 -27 40 -28l-26 -172q-47 -5 -87 -5q-165 0 -165 126q0 18 5 48zM419 585l-116 -34l-81 271l164 49zM74 541l-74 37q54 51 54 101q0 37 -60 62l83 125q61 -10 93 -46t32 -86q0 -51 -34 -104.5t-94 -88.5z" />
    <glyph glyph-name="uni1F33" unicode="&#x1f33;" horiz-adv-x="343" 
d="M92 492h225l-48 -273q-3 -15 -3 -27q0 -27 40 -28l-26 -172q-47 -5 -87 -5q-165 0 -165 126q0 18 5 48zM433 587l-116 -34l-81 271l164 49zM160 580l-86 -37q-71 49 -71 137q0 66 49 120.5t133 67.5l39 -125q-50 -18 -67.5 -39t-17.5 -51q0 -41 21 -73z" />
    <glyph glyph-name="uni1F34" unicode="&#x1f34;" horiz-adv-x="343" 
d="M92 492h225l-48 -273q-3 -15 -3 -27q0 -27 40 -28l-26 -172q-47 -5 -87 -5q-165 0 -165 126q0 18 5 48zM303 535l-97 47l160 271l140 -64zM101 545l-75 37q53 50 53 98q0 37 -59 61l83 125q61 -10 93 -46t32 -86q0 -51 -33.5 -103t-93.5 -86z" />
    <glyph glyph-name="uni1F35" unicode="&#x1f35;" horiz-adv-x="343" 
d="M92 492h225l-48 -273q-3 -15 -3 -27q0 -27 40 -28l-26 -172q-47 -5 -87 -5q-165 0 -165 126q0 18 5 48zM298 542l-103 37l134 286l145 -49zM157 578l-86 -37q-71 49 -71 137q0 66 49 120.5t133 67.5l39 -125q-50 -18 -67.5 -39t-17.5 -51q0 -41 21 -73z" />
    <glyph glyph-name="uni1F36" unicode="&#x1f36;" horiz-adv-x="343" 
d="M92 492h225l-48 -273q-3 -15 -3 -27q0 -27 40 -28l-26 -172q-47 -5 -87 -5q-165 0 -165 126q0 18 5 48zM205 534l-71 37q44 37 44 66q0 28 -61 45l85 101q58 -4 89 -32t31 -68q0 -42 -31 -83t-86 -66zM308 798q-26 0 -73.5 18t-75.5 18q-52 0 -87 -34l-69 58
q71 114 161 114q22 0 78 -19.5t80 -19.5q40 0 84 38l71 -51q-29 -58 -75 -90t-94 -32z" />
    <glyph glyph-name="uni1F37" unicode="&#x1f37;" horiz-adv-x="343" 
d="M92 492h225l-48 -273q-3 -15 -3 -27q0 -27 40 -28l-26 -172q-47 -5 -87 -5q-165 0 -165 126q0 18 5 48zM273 571l-84 -37q-73 39 -73 110q0 52 44 92.5t120 46.5l49 -101q-45 -11 -62 -25t-17 -37q0 -21 23 -49zM310 798q-26 0 -73.5 18t-75.5 18q-52 0 -87 -34l-69 58
q71 114 161 114q22 0 78 -19.5t80 -19.5q40 0 84 38l71 -51q-29 -58 -75 -90t-94 -32z" />
    <glyph glyph-name="uni1F38" unicode="&#x1f38;" horiz-adv-x="355" 
d="M18 0l120 683h239l-120 -683h-239zM-90 421l-74 37q53 52 53 98q0 37 -60 61l84 125q61 -10 93 -46.5t32 -85.5q0 -51 -34 -103t-94 -86z" />
    <glyph glyph-name="uni1F39" unicode="&#x1f39;" horiz-adv-x="355" 
d="M18 0l120 683h239l-120 -683h-239zM15 458l-88 -37q-71 50 -71 132q0 67 49 121.5t134 67.5l39 -125q-49 -18 -67.5 -39t-18.5 -49q0 -38 23 -71z" />
    <glyph glyph-name="uni1F3A" unicode="&#x1f3a;" horiz-adv-x="355" 
d="M18 0l120 683h239l-120 -683h-239zM47 447l-116 -34l-81 271l164 49zM-298 403l-74 37q54 51 54 101q0 37 -60 62l83 125q61 -10 93 -46t32 -86q0 -51 -34 -104.5t-94 -88.5z" />
    <glyph glyph-name="uni1F3B" unicode="&#x1f3b;" horiz-adv-x="355" 
d="M18 0l120 683h239l-120 -683h-239zM64 453l-116 -34l-81 271l164 49zM-209 446l-86 -37q-71 49 -71 137q0 66 49 120.5t133 67.5l39 -125q-50 -18 -67.5 -39t-17.5 -51q0 -41 21 -73z" />
    <glyph glyph-name="uni1F3C" unicode="&#x1f3c;" horiz-adv-x="355" 
d="M18 0l120 683h239l-120 -683h-239zM-112 408l-97 47l160 271l140 -64zM-314 418l-75 37q53 50 53 98q0 37 -59 61l83 125q61 -10 93 -46t32 -86q0 -51 -33.5 -103t-93.5 -86z" />
    <glyph glyph-name="uni1F3D" unicode="&#x1f3d;" horiz-adv-x="355" 
d="M18 0l120 683h239l-120 -683h-239zM-86 407l-103 37l134 286l145 -49zM-227 443l-86 -37q-71 49 -71 137q0 66 49 120.5t133 67.5l39 -125q-50 -18 -67.5 -39t-17.5 -51q0 -41 21 -73z" />
    <glyph glyph-name="uni1F3E" unicode="&#x1f3e;" horiz-adv-x="355" 
d="M18 0l120 683h239l-120 -683h-239zM-166 310l-71 37q44 37 44 66q0 28 -61 45l85 101q58 -4 89 -32t31 -68q0 -42 -31 -83t-86 -66zM-63 574q-26 0 -73.5 18t-75.5 18q-52 0 -87 -34l-69 58q71 114 161 114q22 0 78 -19.5t80 -19.5q40 0 84 38l71 -51q-29 -58 -75 -90
t-94 -32z" />
    <glyph glyph-name="uni1F3F" unicode="&#x1f3f;" horiz-adv-x="355" 
d="M18 0l120 683h239l-120 -683h-239zM-96 340l-84 -37q-73 39 -73 110q0 52 44 92.5t120 46.5l49 -101q-45 -11 -62 -25t-17 -37q0 -21 23 -49zM-59 567q-26 0 -73.5 18t-75.5 18q-52 0 -87 -34l-69 58q71 114 161 114q22 0 78 -19.5t80 -19.5q40 0 84 38l71 -51
q-29 -58 -75 -90t-94 -32z" />
    <glyph glyph-name="uni1F40" unicode="&#x1f40;" horiz-adv-x="636" 
d="M362 509q70 0 121 -18.5t78 -50.5t39 -69t12 -81q0 -40 -9 -79t-33 -80t-60.5 -72t-96 -51t-135.5 -20q-251 0 -251 201q0 138 85 229t250 91zM338 350q-41 0 -64.5 -44.5t-23.5 -98.5q0 -60 51 -60q39 0 63.5 40t24.5 102q0 61 -51 61zM363 536l-74 37q53 52 53 98
q0 37 -60 61l84 125q61 -10 93 -46.5t32 -85.5q0 -51 -34 -103t-94 -86z" />
    <glyph glyph-name="uni1F41" unicode="&#x1f41;" horiz-adv-x="636" 
d="M362 509q70 0 121 -18.5t78 -50.5t39 -69t12 -81q0 -40 -9 -79t-33 -80t-60.5 -72t-96 -51t-135.5 -20q-251 0 -251 201q0 138 85 229t250 91zM338 350q-41 0 -64.5 -44.5t-23.5 -98.5q0 -60 51 -60q39 0 63.5 40t24.5 102q0 61 -51 61zM432 573l-88 -37q-71 50 -71 132
q0 67 49 121.5t134 67.5l39 -125q-49 -18 -67.5 -39t-18.5 -49q0 -38 23 -71z" />
    <glyph glyph-name="uni1F42" unicode="&#x1f42;" horiz-adv-x="636" 
d="M362 509q70 0 121 -18.5t78 -50.5t39 -69t12 -81q0 -40 -9 -79t-33 -80t-60.5 -72t-96 -51t-135.5 -20q-251 0 -251 201q0 138 85 229t250 91zM338 350q-41 0 -64.5 -44.5t-23.5 -98.5q0 -60 51 -60q39 0 63.5 40t24.5 102q0 61 -51 61zM591 585l-116 -34l-81 271l164 49
zM246 541l-74 37q54 51 54 101q0 37 -60 62l83 125q61 -10 93 -46t32 -86q0 -51 -34 -104.5t-94 -88.5z" />
    <glyph glyph-name="uni1F43" unicode="&#x1f43;" horiz-adv-x="636" 
d="M362 509q70 0 121 -18.5t78 -50.5t39 -69t12 -81q0 -40 -9 -79t-33 -80t-60.5 -72t-96 -51t-135.5 -20q-251 0 -251 201q0 138 85 229t250 91zM338 350q-41 0 -64.5 -44.5t-23.5 -98.5q0 -60 51 -60q39 0 63.5 40t24.5 102q0 61 -51 61zM590 585l-116 -34l-81 271l164 49
zM317 578l-86 -37q-71 49 -71 137q0 66 49 120.5t133 67.5l39 -125q-50 -18 -67.5 -39t-17.5 -51q0 -41 21 -73z" />
    <glyph glyph-name="uni1F44" unicode="&#x1f44;" horiz-adv-x="636" 
d="M362 509q70 0 121 -18.5t78 -50.5t39 -69t12 -81q0 -40 -9 -79t-33 -80t-60.5 -72t-96 -51t-135.5 -20q-251 0 -251 201q0 138 85 229t250 91zM338 350q-41 0 -64.5 -44.5t-23.5 -98.5q0 -60 51 -60q39 0 63.5 40t24.5 102q0 61 -51 61zM450 535l-97 47l160 271l140 -64z
M248 545l-75 37q53 50 53 98q0 37 -59 61l83 125q61 -10 93 -46t32 -86q0 -51 -33.5 -103t-93.5 -86z" />
    <glyph glyph-name="uni1F45" unicode="&#x1f45;" horiz-adv-x="636" 
d="M362 509q70 0 121 -18.5t78 -50.5t39 -69t12 -81q0 -40 -9 -79t-33 -80t-60.5 -72t-96 -51t-135.5 -20q-251 0 -251 201q0 138 85 229t250 91zM338 350q-41 0 -64.5 -44.5t-23.5 -98.5q0 -60 51 -60q39 0 63.5 40t24.5 102q0 61 -51 61zM463 542l-103 37l134 286l145 -49
zM322 578l-86 -37q-71 49 -71 137q0 66 49 120.5t133 67.5l39 -125q-50 -18 -67.5 -39t-17.5 -51q0 -41 21 -73z" />
    <glyph glyph-name="uni1F48" unicode="&#x1f48;" horiz-adv-x="791" 
d="M478 699q150 0 224.5 -76t74.5 -207q0 -187 -114 -307.5t-312 -120.5q-152 0 -226.5 70t-74.5 194q0 196 115.5 321.5t312.5 125.5zM446 518q-35 0 -62.5 -20.5t-42.5 -49.5t-25 -65.5t-13.5 -64.5t-3.5 -51q0 -100 84 -100q68 0 106.5 74.5t38.5 172.5q0 104 -82 104z
M-51 412l-74 37q53 52 53 98q0 37 -60 61l84 125q61 -10 93 -46.5t32 -85.5q0 -51 -34 -103t-94 -86z" />
    <glyph glyph-name="uni1F49" unicode="&#x1f49;" horiz-adv-x="791" 
d="M478 699q150 0 224.5 -76t74.5 -207q0 -187 -114 -307.5t-312 -120.5q-152 0 -226.5 70t-74.5 194q0 196 115.5 321.5t312.5 125.5zM446 518q-35 0 -62.5 -20.5t-42.5 -49.5t-25 -65.5t-13.5 -64.5t-3.5 -51q0 -100 84 -100q68 0 106.5 74.5t38.5 172.5q0 104 -82 104z
M35 452l-88 -37q-71 50 -71 132q0 67 49 121.5t134 67.5l39 -125q-49 -18 -67.5 -39t-18.5 -49q0 -38 23 -71z" />
    <glyph glyph-name="uni1F4A" unicode="&#x1f4a;" horiz-adv-x="791" 
d="M478 699q150 0 224.5 -76t74.5 -207q0 -187 -114 -307.5t-312 -120.5q-152 0 -226.5 70t-74.5 194q0 196 115.5 321.5t312.5 125.5zM446 518q-35 0 -62.5 -20.5t-42.5 -49.5t-25 -65.5t-13.5 -64.5t-3.5 -51q0 -100 84 -100q68 0 106.5 74.5t38.5 172.5q0 104 -82 104z
M67 456l-116 -34l-81 271l164 49zM-278 412l-74 37q54 51 54 101q0 37 -60 62l83 125q61 -10 93 -46t32 -86q0 -51 -34 -104.5t-94 -88.5z" />
    <glyph glyph-name="uni1F4B" unicode="&#x1f4b;" horiz-adv-x="791" 
d="M478 699q150 0 224.5 -76t74.5 -207q0 -187 -114 -307.5t-312 -120.5q-152 0 -226.5 70t-74.5 194q0 196 115.5 321.5t312.5 125.5zM446 518q-35 0 -62.5 -20.5t-42.5 -49.5t-25 -65.5t-13.5 -64.5t-3.5 -51q0 -100 84 -100q68 0 106.5 74.5t38.5 172.5q0 104 -82 104z
M68 459l-116 -34l-81 271l164 49zM-205 452l-86 -37q-71 49 -71 137q0 66 49 120.5t133 67.5l39 -125q-50 -18 -67.5 -39t-17.5 -51q0 -41 21 -73z" />
    <glyph glyph-name="uni1F4C" unicode="&#x1f4c;" horiz-adv-x="791" 
d="M478 699q150 0 224.5 -76t74.5 -207q0 -187 -114 -307.5t-312 -120.5q-152 0 -226.5 70t-74.5 194q0 196 115.5 321.5t312.5 125.5zM446 518q-35 0 -62.5 -20.5t-42.5 -49.5t-25 -65.5t-13.5 -64.5t-3.5 -51q0 -100 84 -100q68 0 106.5 74.5t38.5 172.5q0 104 -82 104z
M-46 414l-97 47l160 271l140 -64zM-248 424l-75 37q53 50 53 98q0 37 -59 61l83 125q61 -10 93 -46t32 -86q0 -51 -33.5 -103t-93.5 -86z" />
    <glyph glyph-name="uni1F4D" unicode="&#x1f4d;" horiz-adv-x="791" 
d="M478 699q150 0 224.5 -76t74.5 -207q0 -187 -114 -307.5t-312 -120.5q-152 0 -226.5 70t-74.5 194q0 196 115.5 321.5t312.5 125.5zM446 518q-35 0 -62.5 -20.5t-42.5 -49.5t-25 -65.5t-13.5 -64.5t-3.5 -51q0 -100 84 -100q68 0 106.5 74.5t38.5 172.5q0 104 -82 104z
M-34 417l-103 37l134 286l145 -49zM-175 453l-86 -37q-71 49 -71 137q0 66 49 120.5t133 67.5l39 -125q-50 -18 -67.5 -39t-17.5 -51q0 -41 21 -73z" />
    <glyph glyph-name="uni1F50" unicode="&#x1f50;" horiz-adv-x="620" 
d="M627 492l-50 -287q-19 -109 -96.5 -162.5t-201.5 -53.5q-133 0 -197 60.5t-45 167.5l48 275h226l-50 -286q-11 -60 32 -60q46 0 57 60l50 286h227zM374 536l-74 37q53 52 53 98q0 37 -60 61l84 125q61 -10 93 -46.5t32 -85.5q0 -51 -34 -103t-94 -86z" />
    <glyph glyph-name="uni1F51" unicode="&#x1f51;" horiz-adv-x="620" 
d="M627 492l-50 -287q-19 -109 -96.5 -162.5t-201.5 -53.5q-133 0 -197 60.5t-45 167.5l48 275h226l-50 -286q-11 -60 32 -60q46 0 57 60l50 286h227zM428 573l-88 -37q-71 50 -71 132q0 67 49 121.5t134 67.5l39 -125q-49 -18 -67.5 -39t-18.5 -49q0 -38 23 -71z" />
    <glyph glyph-name="uni1F52" unicode="&#x1f52;" horiz-adv-x="620" 
d="M627 492l-50 -287q-19 -109 -96.5 -162.5t-201.5 -53.5q-133 0 -197 60.5t-45 167.5l48 275h226l-50 -286q-11 -60 32 -60q46 0 57 60l50 286h227zM568 585l-116 -34l-81 271l164 49zM223 541l-74 37q54 51 54 101q0 37 -60 62l83 125q61 -10 93 -46t32 -86
q0 -51 -34 -104.5t-94 -88.5z" />
    <glyph glyph-name="uni1F53" unicode="&#x1f53;" horiz-adv-x="620" 
d="M627 492l-50 -287q-19 -109 -96.5 -162.5t-201.5 -53.5q-133 0 -197 60.5t-45 167.5l48 275h226l-50 -286q-11 -60 32 -60q46 0 57 60l50 286h227zM578 585l-116 -34l-81 271l164 49zM305 578l-86 -37q-71 49 -71 137q0 66 49 120.5t133 67.5l39 -125q-50 -18 -67.5 -39
t-17.5 -51q0 -41 21 -73z" />
    <glyph glyph-name="uni1F54" unicode="&#x1f54;" horiz-adv-x="620" 
d="M627 492l-50 -287q-19 -109 -96.5 -162.5t-201.5 -53.5q-133 0 -197 60.5t-45 167.5l48 275h226l-50 -286q-11 -60 32 -60q46 0 57 60l50 286h227zM448 535l-97 47l160 271l140 -64zM246 545l-75 37q53 50 53 98q0 37 -59 61l83 125q61 -10 93 -46t32 -86
q0 -51 -33.5 -103t-93.5 -86z" />
    <glyph glyph-name="uni1F55" unicode="&#x1f55;" horiz-adv-x="620" 
d="M627 492l-50 -287q-19 -109 -96.5 -162.5t-201.5 -53.5q-133 0 -197 60.5t-45 167.5l48 275h226l-50 -286q-11 -60 32 -60q46 0 57 60l50 286h227zM461 542l-103 37l134 286l145 -49zM320 578l-86 -37q-71 49 -71 137q0 66 49 120.5t133 67.5l39 -125q-50 -18 -67.5 -39
t-17.5 -51q0 -41 21 -73z" />
    <glyph glyph-name="uni1F56" unicode="&#x1f56;" horiz-adv-x="620" 
d="M627 492l-50 -287q-19 -109 -96.5 -162.5t-201.5 -53.5q-133 0 -197 60.5t-45 167.5l48 275h226l-50 -286q-11 -60 32 -60q46 0 57 60l50 286h227zM353 518l-71 37q44 37 44 66q0 28 -61 45l85 101q58 -4 89 -32t31 -68q0 -42 -31 -83t-86 -66zM456 782q-26 0 -73.5 18
t-75.5 18q-52 0 -87 -34l-69 58q71 114 161 114q22 0 78 -19.5t80 -19.5q40 0 84 38l71 -51q-29 -58 -75 -90t-94 -32z" />
    <glyph glyph-name="uni1F57" unicode="&#x1f57;" horiz-adv-x="620" 
d="M627 492l-50 -287q-19 -109 -96.5 -162.5t-201.5 -53.5q-133 0 -197 60.5t-45 167.5l48 275h226l-50 -286q-11 -60 32 -60q46 0 57 60l50 286h227zM423 563l-84 -37q-73 39 -73 110q0 52 44 92.5t120 46.5l49 -101q-45 -11 -62 -25t-17 -37q0 -21 23 -49zM460 790
q-26 0 -73.5 18t-75.5 18q-52 0 -87 -34l-69 58q71 114 161 114q22 0 78 -19.5t80 -19.5q40 0 84 38l71 -51q-29 -58 -75 -90t-94 -32z" />
    <glyph glyph-name="uni1F59" unicode="&#x1f59;" horiz-adv-x="707" 
d="M380 405h10q21 48 67 131l82 147h243l-307 -458l-39 -225h-237l36 208l-150 475h245l31 -153q17 -80 19 -125zM-4 451l-88 -37q-71 50 -71 132q0 67 49 121.5t134 67.5l39 -125q-49 -18 -67.5 -39t-18.5 -49q0 -38 23 -71z" />
    <glyph glyph-name="uni1F5B" unicode="&#x1f5b;" horiz-adv-x="707" 
d="M380 405h10q21 48 67 131l82 147h243l-307 -458l-39 -225h-237l36 208l-150 475h245l31 -153q17 -80 19 -125zM65 446l-116 -34l-81 271l164 49zM-208 439l-86 -37q-71 49 -71 137q0 66 49 120.5t133 67.5l39 -125q-50 -18 -67.5 -39t-17.5 -51q0 -41 21 -73z" />
    <glyph glyph-name="uni1F5D" unicode="&#x1f5d;" horiz-adv-x="707" 
d="M380 405h10q21 48 67 131l82 147h243l-307 -458l-39 -225h-237l36 208l-150 475h245l31 -153q17 -80 19 -125zM-103 407l-103 37l134 286l145 -49zM-244 443l-86 -37q-71 49 -71 137q0 66 49 120.5t133 67.5l39 -125q-50 -18 -67.5 -39t-17.5 -51q0 -41 21 -73z" />
    <glyph glyph-name="uni1F5F" unicode="&#x1f5f;" horiz-adv-x="707" 
d="M380 405h10q21 48 67 131l82 147h243l-307 -458l-39 -225h-237l36 208l-150 475h245l31 -153q17 -80 19 -125zM-133 341l-84 -37q-73 39 -73 110q0 52 44 92.5t120 46.5l49 -101q-45 -11 -62 -25t-17 -37q0 -21 23 -49zM-96 568q-26 0 -73.5 18t-75.5 18q-52 0 -87 -34
l-69 58q71 114 161 114q22 0 78 -19.5t80 -19.5q40 0 84 38l71 -51q-29 -58 -75 -90t-94 -32z" />
    <glyph glyph-name="uni1F60" unicode="&#x1f60;" horiz-adv-x="835" 
d="M525 308l-21 -124q-1 -5 -1 -12q0 -26 23 -26t43.5 38t20.5 98q0 65 -46 68l28 159q239 -4 239 -212q0 -127 -74 -218.5t-205 -91.5q-124 0 -149 76l-7 1q-66 -77 -172 -77q-180 0 -180 189q0 66 17 124t54 107.5t104.5 77t158.5 24.5l-28 -159q-40 -3 -62.5 -52
t-22.5 -107q0 -47 27 -47q12 0 24 10t15 30l21 124h193zM451 517l-74 37q53 52 53 98q0 37 -60 61l84 125q61 -10 93 -46.5t32 -85.5q0 -51 -34 -103t-94 -86z" />
    <glyph glyph-name="uni1F61" unicode="&#x1f61;" horiz-adv-x="835" 
d="M525 308l-21 -124q-1 -5 -1 -12q0 -26 23 -26t43.5 38t20.5 98q0 65 -46 68l28 159q239 -4 239 -212q0 -127 -74 -218.5t-205 -91.5q-124 0 -149 76l-7 1q-66 -77 -172 -77q-180 0 -180 189q0 66 17 124t54 107.5t104.5 77t158.5 24.5l-28 -159q-40 -3 -62.5 -52
t-22.5 -107q0 -47 27 -47q12 0 24 10t15 30l21 124h193zM540 551l-88 -37q-71 50 -71 132q0 67 49 121.5t134 67.5l39 -125q-49 -18 -67.5 -39t-18.5 -49q0 -38 23 -71z" />
    <glyph glyph-name="uni1F62" unicode="&#x1f62;" horiz-adv-x="835" 
d="M525 308l-21 -124q-1 -5 -1 -12q0 -26 23 -26t43.5 38t20.5 98q0 65 -46 68l28 159q239 -4 239 -212q0 -127 -74 -218.5t-205 -91.5q-124 0 -149 76l-7 1q-66 -77 -172 -77q-180 0 -180 189q0 66 17 124t54 107.5t104.5 77t158.5 24.5l-28 -159q-40 -3 -62.5 -52
t-22.5 -107q0 -47 27 -47q12 0 24 10t15 30l21 124h193zM707 585l-116 -34l-81 271l164 49zM362 541l-74 37q54 51 54 101q0 37 -60 62l83 125q61 -10 93 -46t32 -86q0 -51 -34 -104.5t-94 -88.5z" />
    <glyph glyph-name="uni1F63" unicode="&#x1f63;" horiz-adv-x="835" 
d="M525 308l-21 -124q-1 -5 -1 -12q0 -26 23 -26t43.5 38t20.5 98q0 65 -46 68l28 159q239 -4 239 -212q0 -127 -74 -218.5t-205 -91.5q-124 0 -149 76l-7 1q-66 -77 -172 -77q-180 0 -180 189q0 66 17 124t54 107.5t104.5 77t158.5 24.5l-28 -159q-40 -3 -62.5 -52
t-22.5 -107q0 -47 27 -47q12 0 24 10t15 30l21 124h193zM705 585l-116 -34l-81 271l164 49zM432 578l-86 -37q-71 49 -71 137q0 66 49 120.5t133 67.5l39 -125q-50 -18 -67.5 -39t-17.5 -51q0 -41 21 -73z" />
    <glyph glyph-name="uni1F64" unicode="&#x1f64;" horiz-adv-x="835" 
d="M525 308l-21 -124q-1 -5 -1 -12q0 -26 23 -26t43.5 38t20.5 98q0 65 -46 68l28 159q239 -4 239 -212q0 -127 -74 -218.5t-205 -91.5q-124 0 -149 76l-7 1q-66 -77 -172 -77q-180 0 -180 189q0 66 17 124t54 107.5t104.5 77t158.5 24.5l-28 -159q-40 -3 -62.5 -52
t-22.5 -107q0 -47 27 -47q12 0 24 10t15 30l21 124h193zM561 535l-97 47l160 271l140 -64zM359 545l-75 37q53 50 53 98q0 37 -59 61l83 125q61 -10 93 -46t32 -86q0 -51 -33.5 -103t-93.5 -86z" />
    <glyph glyph-name="uni1F65" unicode="&#x1f65;" horiz-adv-x="835" 
d="M525 308l-21 -124q-1 -5 -1 -12q0 -26 23 -26t43.5 38t20.5 98q0 65 -46 68l28 159q239 -4 239 -212q0 -127 -74 -218.5t-205 -91.5q-124 0 -149 76l-7 1q-66 -77 -172 -77q-180 0 -180 189q0 66 17 124t54 107.5t104.5 77t158.5 24.5l-28 -159q-40 -3 -62.5 -52
t-22.5 -107q0 -47 27 -47q12 0 24 10t15 30l21 124h193zM571 542l-103 37l134 286l145 -49zM430 578l-86 -37q-71 49 -71 137q0 66 49 120.5t133 67.5l39 -125q-50 -18 -67.5 -39t-17.5 -51q0 -41 21 -73z" />
    <glyph glyph-name="uni1F66" unicode="&#x1f66;" horiz-adv-x="835" 
d="M525 308l-21 -124q-1 -5 -1 -12q0 -26 23 -26t43.5 38t20.5 98q0 65 -46 68l28 159q239 -4 239 -212q0 -127 -74 -218.5t-205 -91.5q-124 0 -149 76l-7 1q-66 -77 -172 -77q-180 0 -180 189q0 66 17 124t54 107.5t104.5 77t158.5 24.5l-28 -159q-40 -3 -62.5 -52
t-22.5 -107q0 -47 27 -47q12 0 24 10t15 30l21 124h193zM465 506l-71 37q44 37 44 66q0 28 -61 45l85 101q58 -4 89 -32t31 -68q0 -42 -31 -83t-86 -66zM568 770q-26 0 -73.5 18t-75.5 18q-52 0 -87 -34l-69 58q71 114 161 114q22 0 78 -19.5t80 -19.5q40 0 84 38l71 -51
q-29 -58 -75 -90t-94 -32z" />
    <glyph glyph-name="uni1F67" unicode="&#x1f67;" horiz-adv-x="835" 
d="M525 308l-21 -124q-1 -5 -1 -12q0 -26 23 -26t43.5 38t20.5 98q0 65 -46 68l28 159q239 -4 239 -212q0 -127 -74 -218.5t-205 -91.5q-124 0 -149 76l-7 1q-66 -77 -172 -77q-180 0 -180 189q0 66 17 124t54 107.5t104.5 77t158.5 24.5l-28 -159q-40 -3 -62.5 -52
t-22.5 -107q0 -47 27 -47q12 0 24 10t15 30l21 124h193zM546 543l-84 -37q-73 39 -73 110q0 52 44 92.5t120 46.5l49 -101q-45 -11 -62 -25t-17 -37q0 -21 23 -49zM583 770q-26 0 -73.5 18t-75.5 18q-52 0 -87 -34l-69 58q71 114 161 114q22 0 78 -19.5t80 -19.5q40 0 84 38
l71 -51q-29 -58 -75 -90t-94 -32z" />
    <glyph glyph-name="uni1F68" unicode="&#x1f68;" horiz-adv-x="813" 
d="M494 701q81 0 141.5 -22t95 -60.5t51.5 -85.5t17 -101q0 -74 -29 -145.5t-86 -119.5h93l-29 -167h-344l29 165q48 28 80.5 88t32.5 149q0 117 -85 117q-44 0 -76.5 -27t-48.5 -68t-23 -78.5t-7 -69.5q0 -82 54 -111l-29 -165h-333l29 167h80q-39 48 -39 145
q0 80 29 150.5t82 123.5t134.5 84t180.5 31zM-42 414l-74 37q53 52 53 98q0 37 -60 61l84 125q61 -10 93 -46.5t32 -85.5q0 -51 -34 -103t-94 -86z" />
    <glyph glyph-name="uni1F69" unicode="&#x1f69;" horiz-adv-x="813" 
d="M494 701q81 0 141.5 -22t95 -60.5t51.5 -85.5t17 -101q0 -74 -29 -145.5t-86 -119.5h93l-29 -167h-344l29 165q48 28 80.5 88t32.5 149q0 117 -85 117q-44 0 -76.5 -27t-48.5 -68t-23 -78.5t-7 -69.5q0 -82 54 -111l-29 -165h-333l29 167h80q-39 48 -39 145
q0 80 29 150.5t82 123.5t134.5 84t180.5 31zM27 449l-88 -37q-71 50 -71 132q0 67 49 121.5t134 67.5l39 -125q-49 -18 -67.5 -39t-18.5 -49q0 -38 23 -71z" />
    <glyph glyph-name="uni1F6A" unicode="&#x1f6a;" horiz-adv-x="813" 
d="M494 701q81 0 141.5 -22t95 -60.5t51.5 -85.5t17 -101q0 -74 -29 -145.5t-86 -119.5h93l-29 -167h-344l29 165q48 28 80.5 88t32.5 149q0 117 -85 117q-44 0 -76.5 -27t-48.5 -68t-23 -78.5t-7 -69.5q0 -82 54 -111l-29 -165h-333l29 167h80q-39 48 -39 145
q0 80 29 150.5t82 123.5t134.5 84t180.5 31zM70 449l-116 -34l-81 271l164 49zM-275 405l-74 37q54 51 54 101q0 37 -60 62l83 125q61 -10 93 -46t32 -86q0 -51 -34 -104.5t-94 -88.5z" />
    <glyph glyph-name="uni1F6B" unicode="&#x1f6b;" horiz-adv-x="813" 
d="M494 701q81 0 141.5 -22t95 -60.5t51.5 -85.5t17 -101q0 -74 -29 -145.5t-86 -119.5h93l-29 -167h-344l29 165q48 28 80.5 88t32.5 149q0 117 -85 117q-44 0 -76.5 -27t-48.5 -68t-23 -78.5t-7 -69.5q0 -82 54 -111l-29 -165h-333l29 167h80q-39 48 -39 145
q0 80 29 150.5t82 123.5t134.5 84t180.5 31zM66 452l-116 -34l-81 271l164 49zM-207 445l-86 -37q-71 49 -71 137q0 66 49 120.5t133 67.5l39 -125q-50 -18 -67.5 -39t-17.5 -51q0 -41 21 -73z" />
    <glyph glyph-name="uni1F6C" unicode="&#x1f6c;" horiz-adv-x="813" 
d="M494 701q81 0 141.5 -22t95 -60.5t51.5 -85.5t17 -101q0 -74 -29 -145.5t-86 -119.5h93l-29 -167h-344l29 165q48 28 80.5 88t32.5 149q0 117 -85 117q-44 0 -76.5 -27t-48.5 -68t-23 -78.5t-7 -69.5q0 -82 54 -111l-29 -165h-333l29 167h80q-39 48 -39 145
q0 80 29 150.5t82 123.5t134.5 84t180.5 31zM-59 403l-97 47l160 271l140 -64zM-261 413l-75 37q53 50 53 98q0 37 -59 61l83 125q61 -10 93 -46t32 -86q0 -51 -33.5 -103t-93.5 -86z" />
    <glyph glyph-name="uni1F6D" unicode="&#x1f6d;" horiz-adv-x="813" 
d="M494 701q81 0 141.5 -22t95 -60.5t51.5 -85.5t17 -101q0 -74 -29 -145.5t-86 -119.5h93l-29 -167h-344l29 165q48 28 80.5 88t32.5 149q0 117 -85 117q-44 0 -76.5 -27t-48.5 -68t-23 -78.5t-7 -69.5q0 -82 54 -111l-29 -165h-333l29 167h80q-39 48 -39 145
q0 80 29 150.5t82 123.5t134.5 84t180.5 31zM-22 415l-103 37l134 286l145 -49zM-163 451l-86 -37q-71 49 -71 137q0 66 49 120.5t133 67.5l39 -125q-50 -18 -67.5 -39t-17.5 -51q0 -41 21 -73z" />
    <glyph glyph-name="uni1F6E" unicode="&#x1f6e;" horiz-adv-x="813" 
d="M494 701q81 0 141.5 -22t95 -60.5t51.5 -85.5t17 -101q0 -74 -29 -145.5t-86 -119.5h93l-29 -167h-344l29 165q48 28 80.5 88t32.5 149q0 117 -85 117q-44 0 -76.5 -27t-48.5 -68t-23 -78.5t-7 -69.5q0 -82 54 -111l-29 -165h-333l29 167h80q-39 48 -39 145
q0 80 29 150.5t82 123.5t134.5 84t180.5 31zM-100 312l-71 37q44 37 44 66q0 28 -61 45l85 101q58 -4 89 -32t31 -68q0 -42 -31 -83t-86 -66zM3 576q-26 0 -73.5 18t-75.5 18q-52 0 -87 -34l-69 58q71 114 161 114q22 0 78 -19.5t80 -19.5q40 0 84 38l71 -51
q-29 -58 -75 -90t-94 -32z" />
    <glyph glyph-name="uni1F6F" unicode="&#x1f6f;" horiz-adv-x="813" 
d="M494 701q81 0 141.5 -22t95 -60.5t51.5 -85.5t17 -101q0 -74 -29 -145.5t-86 -119.5h93l-29 -167h-344l29 165q48 28 80.5 88t32.5 149q0 117 -85 117q-44 0 -76.5 -27t-48.5 -68t-23 -78.5t-7 -69.5q0 -82 54 -111l-29 -165h-333l29 167h80q-39 48 -39 145
q0 80 29 150.5t82 123.5t134.5 84t180.5 31zM-23 345l-84 -37q-73 39 -73 110q0 52 44 92.5t120 46.5l49 -101q-45 -11 -62 -25t-17 -37q0 -21 23 -49zM14 572q-26 0 -73.5 18t-75.5 18q-52 0 -87 -34l-69 58q71 114 161 114q22 0 78 -19.5t80 -19.5q40 0 84 38l71 -51
q-29 -58 -75 -90t-94 -32z" />
    <glyph glyph-name="uni1F70" unicode="&#x1f70;" horiz-adv-x="646" 
d="M303 143q37 0 61.5 45.5t24.5 106.5q0 58 -45 58q-36 0 -63 -41t-27 -106q0 -63 49 -63zM288 509q100 0 136 -70h5q9 28 25 53h199l-86 -492h-199q-8 28 -3 67h-5q-70 -79 -173 -79q-162 0 -162 172q0 58 14.5 116t43.5 112t82.5 87.5t122.5 33.5zM476 605l-105 -56
l-132 236l136 79z" />
    <glyph glyph-name="uni1F71" unicode="&#x1f71;" horiz-adv-x="646" 
d="M303 143q37 0 61.5 45.5t24.5 106.5q0 58 -45 58q-36 0 -63 -41t-27 -106q0 -63 49 -63zM288 509q100 0 136 -70h5q9 28 25 53h199l-86 -492h-199q-8 28 -3 67h-5q-70 -79 -173 -79q-162 0 -162 172q0 58 14.5 116t43.5 112t82.5 87.5t122.5 33.5zM401 543l-94 46
l154 269l137 -67z" />
    <glyph glyph-name="uni1F72" unicode="&#x1f72;" horiz-adv-x="568" 
d="M112 257l1 6q-56 23 -56 77q0 69 72.5 119t203.5 50q99 0 159.5 -31.5t60.5 -96.5q0 -26 -10 -49h-186q0 29 -38 29q-16 0 -28 -9t-12 -23q0 -19 33 -19h34l-20 -113h-32q-50 0 -50 -34q0 -25 38 -25q44 0 58 40h191q2 -55 -23 -94.5t-68.5 -59t-89 -28t-96.5 -8.5
q-117 0 -179.5 41t-62.5 103q0 11 3 24t12 32.5t31 38t54 30.5zM445 605l-105 -56l-132 236l136 79z" />
    <glyph glyph-name="uni1F73" unicode="&#x1f73;" horiz-adv-x="568" 
d="M112 257l1 6q-56 23 -56 77q0 69 72.5 119t203.5 50q99 0 159.5 -31.5t60.5 -96.5q0 -26 -10 -49h-186q0 29 -38 29q-16 0 -28 -9t-12 -23q0 -19 33 -19h34l-20 -113h-32q-50 0 -50 -34q0 -25 38 -25q44 0 58 40h191q2 -55 -23 -94.5t-68.5 -59t-89 -28t-96.5 -8.5
q-117 0 -179.5 41t-62.5 103q0 11 3 24t12 32.5t31 38t54 30.5zM361 543l-94 46l154 269l137 -67z" />
    <glyph glyph-name="uni1F74" unicode="&#x1f74;" horiz-adv-x="626" 
d="M290 414h6q72 95 168 95q174 0 141 -187l-84 -483h-225l77 439q11 67 -37 67q-51 0 -65 -84l-46 -261h-226l86 492h200q14 -29 5 -78zM450 605l-105 -56l-132 236l136 79z" />
    <glyph glyph-name="uni1F75" unicode="&#x1f75;" horiz-adv-x="626" 
d="M290 414h6q72 95 168 95q174 0 141 -187l-84 -483h-225l77 439q11 67 -37 67q-51 0 -65 -84l-46 -261h-226l86 492h200q14 -29 5 -78zM358 543l-94 46l154 269l137 -67z" />
    <glyph glyph-name="uni1F76" unicode="&#x1f76;" horiz-adv-x="343" 
d="M92 492h225l-48 -273q-3 -15 -3 -27q0 -27 40 -28l-26 -172q-47 -5 -87 -5q-165 0 -165 126q0 18 5 48zM291 605l-105 -56l-132 236l136 79z" />
    <glyph glyph-name="uni1F77" unicode="&#x1f77;" horiz-adv-x="343" 
d="M92 492h225l-48 -273q-3 -15 -3 -27q0 -27 40 -28l-26 -172q-47 -5 -87 -5q-165 0 -165 126q0 18 5 48zM221 543l-94 46l154 269l137 -67z" />
    <glyph glyph-name="uni1F78" unicode="&#x1f78;" horiz-adv-x="636" 
d="M362 509q70 0 121 -18.5t78 -50.5t39 -69t12 -81q0 -40 -9 -79t-33 -80t-60.5 -72t-96 -51t-135.5 -20q-251 0 -251 201q0 138 85 229t250 91zM338 350q-41 0 -64.5 -44.5t-23.5 -98.5q0 -60 51 -60q39 0 63.5 40t24.5 102q0 61 -51 61zM466 605l-105 -56l-132 236
l136 79z" />
    <glyph glyph-name="uni1F79" unicode="&#x1f79;" horiz-adv-x="636" 
d="M362 509q70 0 121 -18.5t78 -50.5t39 -69t12 -81q0 -40 -9 -79t-33 -80t-60.5 -72t-96 -51t-135.5 -20q-251 0 -251 201q0 138 85 229t250 91zM338 350q-41 0 -64.5 -44.5t-23.5 -98.5q0 -60 51 -60q39 0 63.5 40t24.5 102q0 61 -51 61zM384 543l-94 46l154 269l137 -67z
" />
    <glyph glyph-name="uni1F7A" unicode="&#x1f7a;" horiz-adv-x="620" 
d="M627 492l-50 -287q-19 -109 -96.5 -162.5t-201.5 -53.5q-133 0 -197 60.5t-45 167.5l48 275h226l-50 -286q-11 -60 32 -60q46 0 57 60l50 286h227zM459 605l-105 -56l-132 236l136 79z" />
    <glyph glyph-name="uni1F7B" unicode="&#x1f7b;" horiz-adv-x="620" 
d="M627 492l-50 -287q-19 -109 -96.5 -162.5t-201.5 -53.5q-133 0 -197 60.5t-45 167.5l48 275h226l-50 -286q-11 -60 32 -60q46 0 57 60l50 286h227zM374 543l-94 46l154 269l137 -67z" />
    <glyph glyph-name="uni1F7C" unicode="&#x1f7c;" horiz-adv-x="835" 
d="M525 308l-21 -124q-1 -5 -1 -12q0 -26 23 -26t43.5 38t20.5 98q0 65 -46 68l28 159q239 -4 239 -212q0 -127 -74 -218.5t-205 -91.5q-124 0 -149 76l-7 1q-66 -77 -172 -77q-180 0 -180 189q0 66 17 124t54 107.5t104.5 77t158.5 24.5l-28 -159q-40 -3 -62.5 -52
t-22.5 -107q0 -47 27 -47q12 0 24 10t15 30l21 124h193zM543 605l-105 -56l-132 236l136 79z" />
    <glyph glyph-name="uni1F7D" unicode="&#x1f7d;" horiz-adv-x="835" 
d="M525 308l-21 -124q-1 -5 -1 -12q0 -26 23 -26t43.5 38t20.5 98q0 65 -46 68l28 159q239 -4 239 -212q0 -127 -74 -218.5t-205 -91.5q-124 0 -149 76l-7 1q-66 -77 -172 -77q-180 0 -180 189q0 66 17 124t54 107.5t104.5 77t158.5 24.5l-28 -159q-40 -3 -62.5 -52
t-22.5 -107q0 -47 27 -47q12 0 24 10t15 30l21 124h193zM482 543l-94 46l154 269l137 -67z" />
    <glyph glyph-name="uni1F80" unicode="&#x1f80;" horiz-adv-x="646" 
d="M303 143q37 0 61.5 45.5t24.5 106.5q0 58 -45 58q-36 0 -63 -41t-27 -106q0 -63 49 -63zM288 509q100 0 136 -70h5q9 28 25 53h199l-86 -492h-199q-8 28 -3 67h-5q-70 -79 -173 -79q-162 0 -162 172q0 58 14.5 116t43.5 112t82.5 87.5t122.5 33.5zM375 536l-74 37
q53 52 53 98q0 37 -60 61l84 125q61 -10 93 -46.5t32 -85.5q0 -51 -34 -103t-94 -86zM199 -49h132l-11 -59q-5 -31 2 -40t41 -9l-19 -108q-18 -6 -60 -6q-72 1 -92.5 33t-9.5 93z" />
    <glyph glyph-name="uni1F81" unicode="&#x1f81;" horiz-adv-x="646" 
d="M303 143q37 0 61.5 45.5t24.5 106.5q0 58 -45 58q-36 0 -63 -41t-27 -106q0 -63 49 -63zM288 509q100 0 136 -70h5q9 28 25 53h199l-86 -492h-199q-8 28 -3 67h-5q-70 -79 -173 -79q-162 0 -162 172q0 58 14.5 116t43.5 112t82.5 87.5t122.5 33.5zM447 576l-88 -37
q-71 50 -71 132q0 67 49 121.5t134 67.5l39 -125q-49 -18 -67.5 -39t-18.5 -49q0 -38 23 -71zM208 -49h132l-11 -59q-5 -31 2 -40t41 -9l-19 -108q-18 -6 -60 -6q-72 1 -92.5 33t-9.5 93z" />
    <glyph glyph-name="uni1F82" unicode="&#x1f82;" horiz-adv-x="646" 
d="M303 143q37 0 61.5 45.5t24.5 106.5q0 58 -45 58q-36 0 -63 -41t-27 -106q0 -63 49 -63zM288 509q100 0 136 -70h5q9 28 25 53h199l-86 -492h-199q-8 28 -3 67h-5q-70 -79 -173 -79q-162 0 -162 172q0 58 14.5 116t43.5 112t82.5 87.5t122.5 33.5zM593 585l-116 -34
l-81 271l164 49zM248 541l-74 37q54 51 54 101q0 37 -60 62l83 125q61 -10 93 -46t32 -86q0 -51 -34 -104.5t-94 -88.5zM217 -49h132l-11 -59q-5 -31 2 -40t41 -9l-19 -108q-18 -6 -60 -6q-72 1 -92.5 33t-9.5 93z" />
    <glyph glyph-name="uni1F83" unicode="&#x1f83;" horiz-adv-x="646" 
d="M303 143q37 0 61.5 45.5t24.5 106.5q0 58 -45 58q-36 0 -63 -41t-27 -106q0 -63 49 -63zM288 509q100 0 136 -70h5q9 28 25 53h199l-86 -492h-199q-8 28 -3 67h-5q-70 -79 -173 -79q-162 0 -162 172q0 58 14.5 116t43.5 112t82.5 87.5t122.5 33.5zM600 585l-116 -34
l-81 271l164 49zM327 578l-86 -37q-71 49 -71 137q0 66 49 120.5t133 67.5l39 -125q-50 -18 -67.5 -39t-17.5 -51q0 -41 21 -73zM217 -49h132l-11 -59q-5 -31 2 -40t41 -9l-19 -108q-18 -6 -60 -6q-72 1 -92.5 33t-9.5 93z" />
    <glyph glyph-name="uni1F84" unicode="&#x1f84;" horiz-adv-x="646" 
d="M303 143q37 0 61.5 45.5t24.5 106.5q0 58 -45 58q-36 0 -63 -41t-27 -106q0 -63 49 -63zM288 509q100 0 136 -70h5q9 28 25 53h199l-86 -492h-199q-8 28 -3 67h-5q-70 -79 -173 -79q-162 0 -162 172q0 58 14.5 116t43.5 112t82.5 87.5t122.5 33.5zM470 535l-97 47
l160 271l140 -64zM268 545l-75 37q53 50 53 98q0 37 -59 61l83 125q61 -10 93 -46t32 -86q0 -51 -33.5 -103t-93.5 -86zM217 -49h132l-11 -59q-5 -31 2 -40t41 -9l-19 -108q-18 -6 -60 -6q-72 1 -92.5 33t-9.5 93z" />
    <glyph glyph-name="uni1F85" unicode="&#x1f85;" horiz-adv-x="646" 
d="M303 143q37 0 61.5 45.5t24.5 106.5q0 58 -45 58q-36 0 -63 -41t-27 -106q0 -63 49 -63zM288 509q100 0 136 -70h5q9 28 25 53h199l-86 -492h-199q-8 28 -3 67h-5q-70 -79 -173 -79q-162 0 -162 172q0 58 14.5 116t43.5 112t82.5 87.5t122.5 33.5zM490 542l-103 37
l134 286l145 -49zM349 578l-86 -37q-71 49 -71 137q0 66 49 120.5t133 67.5l39 -125q-50 -18 -67.5 -39t-17.5 -51q0 -41 21 -73zM217 -49h132l-11 -59q-5 -31 2 -40t41 -9l-19 -108q-18 -6 -60 -6q-72 1 -92.5 33t-9.5 93z" />
    </font>
</defs>
</svg>
