<?xml version="1.0" standalone="no"?>
<!DOCTYPE svg PUBLIC "-//W3C//DTD SVG 1.1//EN" "http://www.w3.org/Graphics/SVG/1.1/DTD/svg11.dtd" >
<svg xmlns="http://www.w3.org/2000/svg" xmlns:xlink="http://www.w3.org/1999/xlink" version="1.1">
<metadata>
Created by FontForge 20170731 at Wed Mar 11 20:20:50 2009
 By Aleksey,,,
Copyright (c) 2005-2009 Parachute :, www.parachute.gr.  All rights reserved.
</metadata>
<defs>
<font id="PFEncoreSansPro-ExtraThinItalic" horiz-adv-x="1818" >
  <font-face 
    font-family="PF Encore Sans Pro ExtraThin"
    font-weight="200"
    font-style="italic"
    font-stretch="normal"
    units-per-em="1000"
    panose-1="2 0 5 6 4 0 0 9 0 4"
    ascent="750"
    descent="-250"
    x-height="477"
    cap-height="674"
    bbox="-216 -244 1760 913"
    underline-thickness="25"
    underline-position="-148"
    unicode-range="U+0020-FB05"
  />
<missing-glyph horiz-adv-x="428" 
d="M0 0v700h428v-700h-428zM229 350l178 -323v650zM20 672v-643l179 321zM214 369l170 310h-340zM44 21h340l-170 310z" />
    <glyph glyph-name="fj" unicode="fj" horiz-adv-x="423" 
d="M72 0h-25l85 454h-80l3 18l81 6l14 83q14 79 63.5 117.5t125.5 38.5q42 0 82 -8l-4 -22q-42 6 -75 6q-72 0 -113 -30.5t-53 -100.5l-15 -84h231l-93 -539q-10 -57 -30.5 -83t-71.5 -26q-11 0 -17 1l3 23q47 0 64.5 18.5t26.5 67.5l89 514h-206z" />
    <glyph glyph-name="ffj" unicode="ffj" horiz-adv-x="660" 
d="M288 -104h-25l105 558h-208l-80 -454h-25l80 454h-80l3 18l81 6l15 86q13 78 49 113t100 35q31 0 55 -6l-4 -23q-33 5 -52 5q-54 0 -82 -25t-40 -94l-16 -91h208l16 93q14 80 64 118t125 38q40 0 80 -8l-4 -22q-39 6 -74 6q-72 0 -113 -30.5t-53 -100.5l-16 -94h231
l-93 -539q-10 -57 -30.5 -83t-71.5 -26q-11 0 -17 1l3 23q47 0 64.5 18.5t26.5 67.5l89 514h-206z" />
    <glyph glyph-name="fb" unicode="fb" horiz-adv-x="767" 
d="M41 -160h-25l116 614h-80l3 18l81 6l15 83q14 79 63.5 117.5t124.5 38.5q33 0 71 -6h25l-39 -226q-13 -70 -27 -118l3 -1q69 120 194 120q79 0 119 -48.5t40 -126.5q0 -139 -64.5 -229t-175.5 -90q-128 0 -157 92h-4q-12 -70 -18 -84h-21l121 688q-37 5 -64 5
q-145 0 -168 -142l-13 -73h146l-4 -24h-146zM561 462q-50 0 -90 -23.5t-65 -63t-39.5 -82.5t-20.5 -91q-24 -187 133 -187q101 0 161 81t60 222q0 62 -35 103t-104 41z" />
    <glyph glyph-name="ffb" unicode="ffb" horiz-adv-x="1001" 
d="M287 -104h-25l103 558h-208l-109 -614h-25l109 614h-80l3 18l81 6l15 86q13 78 49 113t100 35q31 0 55 -6l-4 -23q-33 5 -52 5q-54 0 -82 -25t-40 -94l-16 -91h208l16 93q14 79 64.5 117.5t125.5 38.5q37 0 76 -7h19l-40 -235q-9 -54 -27 -118l3 -1q69 120 194 120
q79 0 119 -48.5t40 -126.5q0 -139 -64.5 -229t-175.5 -90q-128 0 -157 92h-4q-12 -71 -18 -84h-21l123 698q-38 5 -65 5q-72 0 -113.5 -30.5t-53.5 -100.5l-16 -94h146l-4 -24h-146zM795 462q-50 0 -90 -23.5t-65 -63t-39.5 -82.5t-20.5 -91q-24 -187 133 -187q101 0 161 81
t60 222q0 62 -35 103t-104 41z" />
    <glyph glyph-name="fh" unicode="fh" horiz-adv-x="759" 
d="M42 -160h-25l115 614h-80l3 18l81 6l14 83q14 79 63.5 117.5t125.5 38.5q39 0 77 -7h20l-40 -230q-8 -46 -22 -105h4q28 50 80.5 80.5t112.5 30.5q67 0 103 -28.5t40 -74.5t-4 -105l-47 -278h-28l45 256q6 35 8.5 59t-1 54t-16 48.5t-39.5 31t-68 12.5q-83 0 -138.5 -62
t-69.5 -143l-44 -256h-26l120 688q-37 5 -64 5q-72 0 -113 -30.5t-53 -100.5l-15 -84h146l-4 -24h-146z" />
    <glyph glyph-name="ffh" unicode="ffh" horiz-adv-x="992" 
d="M288 -104h-25l102 558h-208l-109 -614h-25l109 614h-80l3 18l81 6l15 86q13 78 49 113t100 35q31 0 55 -6l-4 -23q-33 5 -52 5q-54 0 -82 -25t-40 -94l-16 -91h208l16 93q14 79 63.5 117.5t124.5 38.5q39 0 77 -7h20l-41 -240q-8 -46 -22 -105h4q28 50 80.5 80.5
t112.5 30.5q67 0 103 -28.5t40 -74.5t-4 -105l-47 -278h-28l45 256q6 35 8.5 59t-1 54t-16 48.5t-39.5 31t-68 12.5q-83 0 -138.5 -62t-69.5 -143l-44 -256h-26l121 698q-37 5 -64 5q-72 0 -113 -30.5t-53 -100.5l-16 -94h146l-4 -24h-146z" />
    <glyph glyph-name="fk" unicode="fk" horiz-adv-x="687" 
d="M41 -160h-25l116 614h-80l3 18l81 6l14 83q26 156 189 156q39 0 77 -7h22l-77 -437h110l209 205h32l-221 -217l146 -261h-28l-139 248h-114l-43 -248h-26l121 688q-40 5 -66 5q-72 0 -113 -30.5t-53 -100.5l-15 -84h146l-4 -24h-146z" />
    <glyph glyph-name="ffk" unicode="ffk" horiz-adv-x="920" 
d="M288 -104h-25l102 558h-208l-109 -614h-25l109 614h-80l3 18l81 6l15 86q13 78 49 113t100 35q31 0 55 -6l-4 -23q-33 5 -52 5q-54 0 -82 -25t-40 -94l-16 -91h208l16 94q27 156 189 156q37 0 75 -7h22l-77 -448h110l209 205h32l-221 -217l146 -261h-28l-139 248h-114
l-43 -248h-26l121 699q-40 5 -64 5q-72 0 -113 -30.5t-53 -100.5l-17 -95h146l-4 -24h-146z" />
    <glyph glyph-name="r_y" unicode="ry" horiz-adv-x="636" 
d="M327 -197h-30l100 195l-13 -2l-95 459q-92 -12 -132.5 -64.5t-54.5 -135.5l-43 -255h-26l84 478h20q1 -16 -14 -100h4q24 48 74 78t110 31l53 -258q5 -23 14 -63.5t16 -75t12 -67.5h4l134 262q31 62 43.5 100.5t18.5 91.5h27q-7 -60 -21 -103.5t-48 -109.5z" />
    <glyph glyph-name="ff" unicode="ff" horiz-adv-x="526" 
d="M303 -104h-25l99 558h-207l-109 -614h-25l109 614h-81l3 18l82 6l16 90q14 80 47.5 114t101.5 34q30 0 54 -6l-4 -23q-32 5 -51 5q-59 0 -84 -24t-38 -95l-17 -95h207l20 110q14 81 45 114t99 33q35 0 59 -6l-4 -22q-32 5 -51 5q-59 0 -84 -24.5t-38 -94.5l-21 -115h148
l-4 -24h-148z" />
    <glyph glyph-name="fi" unicode="fi" horiz-adv-x="423" 
d="M45 -160h-25l113 614h-81l3 18l81 6l14 83q14 79 63.5 117.5t125.5 38.5q42 0 82 -8l-4 -22q-42 6 -75 6q-72 0 -113 -30.5t-53 -100.5l-15 -84h233l-84 -478h-25l80 454h-207z" />
    <glyph glyph-name="fl" unicode="fl" horiz-adv-x="423" 
d="M42 -160h-25l115 614h-80l3 18l81 6l14 83q14 79 63.5 117.5t125.5 38.5q39 0 77 -7h19l-125 -710h-25l121 688q-37 5 -64 5q-72 0 -113 -30.5t-53 -100.5l-15 -84h146l-4 -24h-146z" />
    <glyph glyph-name="ffi" unicode="ffi" horiz-adv-x="660" 
d="M288 -104h-25l105 558h-208l-108 -614h-25l108 614h-80l3 18l81 6l15 86q13 78 49 113t100 35q31 0 55 -6l-4 -23q-33 5 -52 5q-54 0 -82 -25t-40 -94l-16 -91h208l16 93q14 80 64 118t125 38q40 0 80 -8l-4 -22q-39 6 -74 6q-72 0 -113 -30.5t-53 -100.5l-16 -94h234
l-84 -478h-25l80 454h-209z" />
    <glyph glyph-name="ffl" unicode="ffl" horiz-adv-x="657" 
d="M287 -104h-25l103 558h-208l-112 -614h-25l112 614h-80l3 18l81 6l15 86q14 80 47.5 114t101.5 34q31 0 55 -6l-4 -23q-33 5 -52 5q-54 0 -82 -25t-40 -94l-16 -91h208l16 93q27 156 190 156q37 0 76 -7h19l-126 -720h-25l123 698q-38 5 -65 5q-72 0 -113.5 -30.5
t-53.5 -100.5l-16 -94h146l-4 -24h-146z" />
    <glyph glyph-name="ft" unicode="ft" horiz-adv-x="537" 
d="M57 -160h-25l113 616h-81l3 17l82 5l16 91q14 84 46.5 115.5t102.5 31.5q32 0 54 -6l-4 -22q-32 5 -51 5q-59 0 -84 -24t-38 -95l-17 -96h207l30 118h17l-21 -118h143l-4 -22h-143l-55 -312q-13 -70 6 -98.5t79 -28.5q41 0 62 3l-4 -23q-23 -3 -64 -3q-74 0 -96.5 36
t-7.5 120l54 306h-207z" />
    <glyph glyph-name=".notdef" horiz-adv-x="428" 
d="M0 0v700h428v-700h-428zM229 350l178 -323v650zM20 672v-643l179 321zM214 369l170 310h-340zM44 21h340l-170 310z" />
    <glyph glyph-name=".null" horiz-adv-x="0" 
 />
    <glyph glyph-name="nonmarkingreturn" horiz-adv-x="333" 
 />
    <glyph glyph-name="space" unicode=" " horiz-adv-x="254" 
 />
    <glyph glyph-name="exclam" unicode="!" horiz-adv-x="266" 
d="M133 161h-20q10 62 40.5 248t45.5 281h34q-17 -84 -50.5 -264t-49.5 -265zM106 63q11 0 19 -8.5t8 -20.5q0 -15 -12.5 -27t-26.5 -12q-12 0 -20 8t-8 19q0 16 12 28.5t28 12.5z" />
    <glyph glyph-name="quotedbl" unicode="&#x22;" horiz-adv-x="254" 
d="M223 472h-16l27 202h32zM140 472h-16l27 202h31z" />
    <glyph glyph-name="numbersign" unicode="#" horiz-adv-x="555" 
d="M597 426h-118l-64 -188h116l-7 -22h-116l-73 -216h-23l75 216h-194l-75 -216h-21l75 216h-116l7 22h115l66 188h-119l7 21h118l69 203h21l-68 -203h193l68 203h22l-70 -203h119zM265 426l-65 -188h193l65 188h-193z" />
    <glyph glyph-name="dollar" unicode="$" horiz-adv-x="555" 
d="M246 -83l142 807h22l-12 -71q66 -6 109 -39.5t43 -91.5q0 -17 -6 -41h-24q3 17 3 33q0 95 -130 112l-48 -274q78 -18 120.5 -52t42.5 -100q0 -78 -58 -136.5t-168 -68.5l-14 -78h-22zM352 724l-142 -807h-23l13 77q-82 8 -127.5 44.5t-45.5 98.5q0 29 7 49h24
q-3 -18 -3 -35q0 -53 31 -87.5t119 -44.5l57 324q-76 17 -115.5 47.5t-39.5 85.5q0 73 57 124t153 53l12 71h23zM340 326l-54 -306q56 6 96 26t60 46.5t29 51.5t9 50q0 53 -32.5 84t-107.5 48zM312 626q-85 -4 -130 -47.5t-45 -100.5q0 -42 30.5 -66.5t99.5 -40.5z" />
    <glyph glyph-name="percent" unicode="%" horiz-adv-x="780" 
d="M164 -30h-27l504 733h27zM274 678q69 0 100 -42t31 -111q0 -38 -10 -77t-31 -77t-60.5 -62t-90.5 -24q-66 0 -99 37.5t-33 101.5q0 114 53 184t140 70zM269 654q-76 0 -120 -65t-44 -168q0 -113 111 -113q71 0 116.5 59t45.5 157q0 130 -109 130zM602 386q69 0 100 -42
t31 -111q0 -38 -10 -77t-31 -77t-60.5 -62t-90.5 -24q-66 0 -99 37.5t-33 101.5q0 114 53 184t140 70zM597 362q-76 0 -120 -65t-44 -168q0 -113 111 -113q71 0 116.5 59t45.5 157q0 130 -109 130z" />
    <glyph glyph-name="ampersand" unicode="&#x26;" horiz-adv-x="683" 
d="M338 674q46 0 77 -27.5t31 -68.5q0 -63 -43.5 -112t-133.5 -100q97 -158 215 -281q80 55 124 138t44 155q0 87 -72 127l10 18q84 -38 84 -144q0 -76 -46 -163t-129 -146q41 -42 99 -92l-13 -18q-60 52 -105 98q-103 -64 -237 -64q-198 0 -198 138t192 241q-54 81 -54 144
q0 61 40 109t115 48zM247 355q-179 -99 -179 -221q0 -58 47.5 -88.5t129.5 -30.5q125 0 220 58q-120 125 -218 282zM333 651q-35 0 -61.5 -15t-39 -38t-18 -43t-5.5 -37q0 -52 49 -133q80 45 121.5 86t41.5 100q0 36 -24 58t-64 22z" />
    <glyph glyph-name="quotesingle" unicode="'" horiz-adv-x="189" 
d="M150 472h-17l27 202h31z" />
    <glyph glyph-name="parenleft" unicode="(" horiz-adv-x="267" 
d="M301 706l10 -9q-227 -236 -227 -498q0 -158 86 -302l-14 -11q-100 136 -100 308q0 149 69 281.5t176 230.5z" />
    <glyph glyph-name="parenright" unicode=")" horiz-adv-x="267" 
d="M113 697l14 9q99 -134 99 -308q0 -148 -68 -281.5t-176 -230.5l-10 11q228 239 228 501q0 157 -87 299z" />
    <glyph glyph-name="asterisk" unicode="*" horiz-adv-x="410" 
d="M272 515l65 -106l-32 -20l-49 116l-88 -115l-23 19l99 106l-117 39l16 30l110 -53l18 132h27l-31 -131l131 52l5 -29z" />
    <glyph glyph-name="plus" unicode="+" horiz-adv-x="555" 
d="M294 257l-30 -170h-23l30 170h-169l4 24h169l32 181h23l-32 -181h168l-4 -24h-168z" />
    <glyph glyph-name="comma" unicode="," horiz-adv-x="182" 
d="M61 64q30 0 30 -29q0 -11 -10 -27l-87 -138l-11 4l62 120q-25 4 -25 28q0 17 12.5 29.5t28.5 12.5z" />
    <glyph glyph-name="hyphen" unicode="-" horiz-adv-x="435" 
d="M101 233l5 33h235l-5 -33h-235z" />
    <glyph glyph-name="period" unicode="." horiz-adv-x="182" 
d="M61 64q13 0 21 -8t8 -21q0 -17 -11 -29t-31 -12q-12 0 -20 8t-8 20q0 17 13 29.5t28 12.5z" />
    <glyph glyph-name="slash" unicode="/" horiz-adv-x="469" 
d="M-17 -45h-26l567 762h28z" />
    <glyph glyph-name="zero" unicode="0" horiz-adv-x="555" 
d="M349 654q99 0 146 -63t47 -167q0 -78 -16.5 -151.5t-50.5 -138t-94.5 -103.5t-138.5 -39q-201 0 -201 218q0 70 16.5 142.5t50.5 142.5t96.5 114.5t144.5 44.5zM343 631q-68 0 -122.5 -39t-87.5 -101t-50 -133.5t-17 -143.5q0 -200 179 -200q114 0 193 106t79 302
q0 209 -174 209z" />
    <glyph glyph-name="one" unicode="1" horiz-adv-x="555" 
d="M432 22l-3 -22h-383l3 22h179l104 589l-161 -30l3 17l163 45h27l-110 -621h178z" />
    <glyph glyph-name="two" unicode="2" horiz-adv-x="555" 
d="M351 654q87 0 129.5 -37.5t42.5 -97.5q0 -25 -8 -48.5t-16 -40t-30.5 -38t-32 -30.5t-42 -30t-39.5 -25t-43 -25q-19 -11 -51.5 -30t-47 -27t-39 -23.5t-35.5 -24.5t-28 -23.5t-24.5 -26.5t-17.5 -29t-15 -35t-9 -40h407l-4 -23h-434l5 29q8 46 26.5 81t59.5 68.5
t69.5 51.5t98.5 58q13 7 19 11q52 29 80.5 47.5t60.5 46t46.5 57.5t14.5 65q0 53 -36.5 83t-110.5 30q-97 0 -147.5 -45t-62.5 -110h-25q0 3 0.5 8t0.5 6q14 80 81 123t157 44z" />
    <glyph glyph-name="three" unicode="3" horiz-adv-x="555" 
d="M228 16q108 0 174.5 57t66.5 152q0 137 -196 137q-26 0 -35 -1l-9 24l281 231l-1 4h-359l4 24h401l-5 -26l-279 -229l1 -4q8 1 22 1q91 0 146.5 -40.5t55.5 -119.5q0 -102 -77 -168t-194 -66q-81 0 -132 33.5t-51 97.5q0 27 6 45h23q-3 -16 -3 -33q0 -119 160 -119z" />
    <glyph glyph-name="four" unicode="4" horiz-adv-x="555" 
d="M459 644h24l-78 -444h109l-5 -25h-109l-30 -175h-27l30 175h-348l5 27zM67 205l1 -5h310l69 393l-3 2z" />
    <glyph glyph-name="five" unicode="5" horiz-adv-x="555" 
d="M294 405q85 0 141 -41t56 -127q0 -106 -75 -175.5t-194 -69.5q-82 0 -132.5 33t-50.5 98q0 21 6 45h21q-3 -16 -3 -33q0 -119 162 -119q109 0 174.5 62.5t65.5 157.5q0 73 -48.5 109t-125.5 36t-148 -21l-22 10l88 274h318l-4 -24h-297l-76 -235q66 20 144 20z" />
    <glyph glyph-name="six" unicode="6" horiz-adv-x="555" 
d="M87 250l4 -1q28 62 91 105.5t136 43.5q81 0 128 -41t47 -116q0 -110 -67 -179.5t-183 -69.5q-93 0 -138 43t-45 135q0 75 18 155.5t53 156t97.5 124t141.5 48.5q67 0 109.5 -31t42.5 -87q0 -20 -6 -37h-19q9 67 -26.5 99.5t-104.5 32.5q-62 0 -114 -36t-85 -94
t-53 -121.5t-27 -129.5zM312 375q-90 0 -157.5 -72t-67.5 -159q0 -68 44 -99.5t119 -31.5q94 0 156.5 59.5t62.5 165.5q0 64 -38.5 100.5t-118.5 36.5z" />
    <glyph glyph-name="seven" unicode="7" horiz-adv-x="555" 
d="M146 0h-28l412 620h-396l4 23h424l-4 -23z" />
    <glyph glyph-name="eight" unicode="8" horiz-adv-x="555" 
d="M351 654q83 0 125.5 -37t42.5 -92q0 -27 -11.5 -56.5t-50.5 -64.5t-100 -53v-4q39 -11 66 -29.5t40 -41.5t18.5 -43t5.5 -41q0 -83 -69 -141.5t-184 -58.5q-90 0 -140 36.5t-50 102.5q0 15 3 32.5t15 45.5t32.5 52t61 48.5t93.5 38.5l1 4q-120 35 -120 125q0 66 59 121.5
t162 55.5zM238 13q53 0 102.5 18t85.5 60.5t36 101.5t-42.5 97.5t-122.5 45.5q-103 -14 -166.5 -68t-63.5 -132q0 -61 49 -92t122 -31zM347 631q-76 0 -133.5 -42.5t-57.5 -111.5q0 -46 36 -73.5t108 -45.5q91 15 142.5 60t51.5 105q0 51 -41.5 79.5t-105.5 28.5z" />
    <glyph glyph-name="nine" unicode="9" horiz-adv-x="555" 
d="M496 396l-4 1q-26 -65 -86 -107t-130 -42q-84 0 -129 39.5t-45 114.5q0 114 67 183t179 69q81 0 128 -44.5t47 -137.5q0 -86 -17.5 -167t-52.5 -153t-97.5 -116t-144.5 -44q-70 0 -110.5 31t-40.5 87q0 15 5 37h21q-14 -68 24.5 -100t106.5 -32q65 0 118 34.5t85.5 92
t51.5 122t24 132.5zM282 270q82 0 148 71t66 156q0 66 -43 100t-105 34q-39 0 -75.5 -11.5t-70.5 -36t-54.5 -70.5t-20.5 -108q0 -135 155 -135z" />
    <glyph glyph-name="colon" unicode=":" horiz-adv-x="182" 
d="M120 402q13 0 21.5 -8.5t8.5 -20.5q0 -17 -12.5 -29t-29.5 -12q-12 0 -20 8t-8 20q0 17 12.5 29.5t27.5 12.5zM61 64q13 0 21 -8t8 -21q0 -17 -12.5 -29t-29.5 -12q-12 0 -20 8t-8 20q0 17 13 29.5t28 12.5z" />
    <glyph glyph-name="semicolon" unicode=";" horiz-adv-x="182" 
d="M120 402q13 0 21.5 -8.5t8.5 -20.5q0 -17 -12.5 -29t-29.5 -12q-12 0 -20 8t-8 20q0 17 12.5 29.5t27.5 12.5zM61 64q30 0 30 -29q0 -11 -10 -27l-87 -138l-11 4l62 120q-25 4 -25 28q0 17 13 29.5t28 12.5z" />
    <glyph glyph-name="less" unicode="&#x3c;" horiz-adv-x="555" 
d="M98 254l6 31l399 181l-5 -27l-374 -170l314 -170l-4 -25z" />
    <glyph glyph-name="equal" unicode="=" horiz-adv-x="555" 
d="M475 334h-360l4 23h360zM448 181h-360l5 24h360z" />
    <glyph glyph-name="greater" unicode="&#x3e;" horiz-adv-x="555" 
d="M471 285l-6 -31l-398 -180l4 28l373 170l-313 170l5 24z" />
    <glyph glyph-name="question" unicode="?" horiz-adv-x="555" 
d="M353 698q75 0 116 -34.5t41 -91.5q0 -51 -29 -95t-89 -92q-58 -47 -92 -91.5t-46 -110.5l-4 -21h-28l3 15q20 119 131 211q71 59 98.5 97.5t27.5 85.5t-33.5 74t-99.5 27q-169 0 -198 -155h-22q0 3 0.5 8t0.5 6q15 81 74.5 124t148.5 43zM222 63q12 0 19.5 -8.5
t7.5 -20.5q0 -15 -12.5 -27t-26.5 -12q-11 0 -19.5 8t-8.5 20q0 15 13 27.5t27 12.5z" />
    <glyph glyph-name="at" unicode="@" horiz-adv-x="805" 
d="M363 163q63 0 101.5 48t52.5 123q30 153 -93 153q-72 0 -117 -62.5t-45 -161.5q0 -100 101 -100zM535 457l3 1q5 28 15 47h20l-49 -273q-6 -33 11 -50.5t47 -17.5q62 0 111.5 69.5t49.5 182.5q0 111 -70 171t-179 60q-160 0 -271 -116t-111 -281q0 -120 75 -192.5
t202 -72.5q110 0 194 37l7 -22q-103 -39 -197 -39q-140 0 -223.5 77.5t-83.5 210.5q0 170 117.5 295.5t294.5 125.5q122 0 196 -67.5t74 -185.5q0 -125 -57 -200t-133 -75q-28 0 -53 16.5t-25 54.5h-5q-48 -74 -135 -74q-64 0 -94.5 33.5t-30.5 89.5q0 106 51.5 177.5
t139.5 71.5q82 0 109 -54z" />
    <glyph glyph-name="A" unicode="A" horiz-adv-x="549" 
d="M470 0l-37 187h-333l-101 -187h-29l365 674h32l132 -674h-29zM349 637h-6q-68 -130 -102 -192l-128 -232h318l-47 232q-6 32 -17 96t-18 96z" />
    <glyph glyph-name="B" unicode="B" horiz-adv-x="577" 
d="M416 357l-1 -4q52 -17 79 -59t27 -96q0 -35 -13.5 -68.5t-40.5 -63t-75 -48t-109 -18.5h-260l118 674h249q77 0 122.5 -36t45.5 -105q0 -21 -5 -42t-18 -49t-43.5 -50.5t-75.5 -34.5zM337 344h-227l-56 -319h228q86 0 148.5 43.5t62.5 130.5q0 70 -46 107.5t-110 37.5z
M376 649h-212l-49 -280h224q79 0 135.5 41t56.5 123q0 116 -155 116z" />
    <glyph glyph-name="C" unicode="C" horiz-adv-x="564" 
d="M279 18q101 0 158 51t67 120h25q-1 -9 -5 -27q-21 -80 -88 -124t-161 -44q-214 0 -214 229q0 83 19 161t57 146t104.5 109.5t152.5 41.5q77 0 129 -37t52 -104q0 -21 -5 -39h-23q2 18 2 27q0 55 -38.5 91.5t-125.5 36.5q-78 0 -138.5 -42.5t-93.5 -110t-49 -138.5
t-16 -140q0 -207 191 -207z" />
    <glyph glyph-name="D" unicode="D" horiz-adv-x="600" 
d="M54 25h146q47 0 93.5 12.5t92 42t80.5 71.5t56.5 106t21.5 142q0 58 -16 103t-41.5 72t-59.5 44.5t-66 24t-65 6.5h-132zM23 0l118 673h162q50 0 95.5 -15t85.5 -46.5t63.5 -87.5t23.5 -130q0 -173 -105.5 -283.5t-268.5 -110.5h-174z" />
    <glyph glyph-name="E" unicode="E" horiz-adv-x="503" 
d="M23 0l118 674h392l-4 -25h-365l-49 -276h343l-4 -25h-343l-57 -323h397l-4 -25h-424z" />
    <glyph glyph-name="F" unicode="F" horiz-adv-x="480" 
d="M23 0l118 674h407l-4 -25h-380l-50 -286h337l-5 -26h-337l-59 -337h-27z" />
    <glyph glyph-name="G" unicode="G" horiz-adv-x="609" 
d="M355 320l4 25h215l-17 -110q-19 -109 -88 -175t-187 -66q-113 0 -166.5 62t-53.5 174q0 61 11 121.5t37.5 120.5t64.5 106t96.5 74.5t129.5 28.5q76 0 132 -36.5t56 -108.5q0 -17 -3 -35h-23q2 18 2 28q0 56 -41 92t-132 36q-75 0 -135.5 -39.5t-96 -103t-54 -137.5
t-18.5 -150q0 -210 197 -210q206 0 247 222l13 81h-190z" />
    <glyph glyph-name="H" unicode="H" horiz-adv-x="609" 
d="M478 0l60 344h-429l-60 -344h-26l119 675h26l-54 -306h429l54 306h28l-119 -675h-28z" />
    <glyph glyph-name="I" unicode="I" horiz-adv-x="191" 
d="M42 0l118 674h27l-118 -674h-27z" />
    <glyph glyph-name="J" unicode="J" horiz-adv-x="516" 
d="M193 19q191 0 225 195l81 460h27l-82 -466q-38 -214 -255 -214q-85 0 -134.5 35.5t-49.5 101.5q0 30 6 48h24q-4 -17 -4 -39q0 -54 38 -87.5t124 -33.5z" />
    <glyph glyph-name="K" unicode="K" horiz-adv-x="505" 
d="M167 674l-53 -305h129l288 305h34l-298 -316l189 -358h-31l-181 344h-135l-60 -344h-26l118 674h26z" />
    <glyph glyph-name="L" unicode="L" horiz-adv-x="496" 
d="M23 0l118 674h27l-114 -649h396l-4 -25h-423z" />
    <glyph glyph-name="M" unicode="M" horiz-adv-x="756" 
d="M192 674l112 -346l64 -191h6q57 88 137 204l225 333h32l-105 -674h-26l97 622h-4q-70 -107 -123 -185l-227 -334h-29l-120 365q-31 90 -49 155h-4l-134 -623h-26l143 674h31z" />
    <glyph glyph-name="N" unicode="N" horiz-adv-x="614" 
d="M164 622h-6l-109 -622h-26l118 674h24l216 -417q9 -17 106 -208h5l109 625h26l-117 -674h-26l-232 443q-52 100 -88 179z" />
    <glyph glyph-name="O" unicode="O" horiz-adv-x="638" 
d="M400 681q112 0 162 -66.5t50 -173.5q0 -66 -10.5 -127t-36 -120.5t-63.5 -103t-97.5 -70t-133.5 -26.5q-113 0 -162 60.5t-49 157.5q0 65 10.5 128t35.5 126t63 109.5t97.5 76t133.5 29.5zM395 657q-82 0 -144 -40t-96.5 -106t-51 -140t-16.5 -153q0 -201 187 -201
q140 0 225.5 110.5t85.5 318.5q0 211 -190 211z" />
    <glyph glyph-name="P" unicode="P" horiz-adv-x="524" 
d="M310 269h-213l-47 -269h-27l118 674h238q86 0 131 -45.5t45 -122.5q0 -31 -6.5 -61.5t-24 -63t-44.5 -57t-71 -40t-99 -15.5zM370 649h-206l-62 -354h204q42 0 78.5 10t70 33t52.5 65.5t19 101.5q0 69 -41 106.5t-115 37.5z" />
    <glyph glyph-name="Q" unicode="Q" horiz-adv-x="638" 
d="M400 681q112 0 162 -66.5t50 -173.5q0 -78 -15.5 -149t-48.5 -135.5t-92 -107t-138 -52.5q76 -44 162 -74l-16 -27q-104 39 -188 98q-116 0 -166 60.5t-50 157.5q0 65 10.5 128t35.5 126t63 109.5t97.5 76t133.5 29.5zM395 657q-82 0 -144 -40t-96.5 -106t-51 -140
t-16.5 -153q0 -201 187 -201q140 0 225.5 110.5t85.5 318.5q0 211 -190 211z" />
    <glyph glyph-name="R" unicode="R" horiz-adv-x="537" 
d="M100 289l-50 -289h-27l118 674h236q88 0 135 -43.5t47 -120.5q0 -29 -5.5 -56.5t-22 -58.5t-43 -53.5t-71.5 -37.5t-104 -15h-23l165 -289h-31l-165 289h-159zM368 649h-204l-59 -333h212q90 0 151.5 45t61.5 149q0 68 -43.5 103.5t-118.5 35.5z" />
    <glyph glyph-name="S" unicode="S" horiz-adv-x="573" 
d="M260 19q66 0 115 17t74 45t37 57t12 59q0 61 -39 93t-141 54q-54 12 -86 21.5t-61.5 25t-42.5 39t-13 56.5q0 83 66 139.5t190 56.5q81 0 137 -36.5t56 -107.5q0 -20 -6 -48h-24q3 18 3 35q0 58 -41 94.5t-130 36.5q-109 0 -165.5 -49.5t-56.5 -119.5q0 -49 44.5 -73
t155.5 -48q90 -19 137 -55.5t47 -107.5q0 -92 -69.5 -150.5t-201.5 -58.5q-104 0 -164.5 40t-60.5 115q0 31 8 55h25q-6 -27 -6 -48q0 -72 57 -104.5t144 -32.5z" />
    <glyph glyph-name="T" unicode="T" horiz-adv-x="518" 
d="M349 649l-114 -649h-28l114 649h-232l4 25h488l-4 -25h-228z" />
    <glyph glyph-name="U" unicode="U" horiz-adv-x="618" 
d="M633 674l-71 -404q-23 -131 -92 -204t-202 -73q-70 0 -116 21.5t-65.5 60t-23.5 92t9 117.5l69 390h26l-69 -390q-25 -142 18.5 -204t157.5 -62q105 0 170.5 58.5t89.5 193.5l71 404h28z" />
    <glyph glyph-name="V" unicode="V" horiz-adv-x="548" 
d="M251 0h-34l-129 674h29l72 -381l48 -258h4l137 255l208 384h30z" />
    <glyph glyph-name="W" unicode="W" horiz-adv-x="814" 
d="M478 629h-4q-55 -128 -106 -233l-185 -396h-35l-60 674h29l31 -375q17 -216 22 -262h4q25 54 70.5 153.5t52.5 114.5l172 369h31l41 -345q20 -172 30 -292h4l127 291l150 346h30l-295 -674h-35l-46 387q-11 99 -28 242z" />
    <glyph glyph-name="X" unicode="X" horiz-adv-x="508" 
d="M427 0l-156 326l-269 -326h-34l291 349l-155 325h28l143 -303l251 303h32l-269 -325l168 -349h-30z" />
    <glyph glyph-name="Y" unicode="Y" horiz-adv-x="497" 
d="M251 302h6l128 174l145 198h35l-300 -402l-47 -272h-28l47 271l-149 403h28l71 -190q36 -96 64 -182z" />
    <glyph glyph-name="Z" unicode="Z" horiz-adv-x="513" 
d="M-16 0l4 26l531 624h-406l5 25h440l-5 -24l-532 -626h432l-4 -25h-465z" />
    <glyph glyph-name="bracketleft" unicode="[" horiz-adv-x="275" 
d="M15 -124l147 834h128l-4 -22h-103l-139 -790h103l-4 -22h-128z" />
    <glyph glyph-name="backslash" unicode="\" horiz-adv-x="477" 
d="M418 -45h-28l-300 762h27z" />
    <glyph glyph-name="bracketright" unicode="]" horiz-adv-x="275" 
d="M290 710l-148 -834h-127l4 22h102l139 790h-102l4 22h128z" />
    <glyph glyph-name="asciicircum" unicode="^" horiz-adv-x="555" 
d="M344 674h23q22 -72 65 -208t63 -201h-26l-118 375q-39 -61 -124 -186.5t-125 -188.5h-30q40 61 131.5 197t140.5 212z" />
    <glyph glyph-name="underscore" unicode="_" horiz-adv-x="485" 
d="M-58 -104l4 24h484l-4 -24h-484z" />
    <glyph glyph-name="grave" unicode="`" horiz-adv-x="498" 
d="M420 566l-12 -11l-121 105l27 27z" />
    <glyph glyph-name="a" unicode="a" horiz-adv-x="500" 
d="M208 16q85 0 139 66t72 168q39 213 -129 213q-99 0 -160 -86t-61 -222q0 -139 139 -139zM485 478l-84 -478h-20q-4 29 10 93h-4q-71 -101 -186 -101q-84 0 -122 44t-38 118q0 141 66.5 236.5t184.5 95.5q117 0 149 -86h4q11 60 20 78h20z" />
    <glyph glyph-name="b" unicode="b" horiz-adv-x="500" 
d="M294 462q-50 0 -90 -23.5t-65 -63t-39.5 -82.5t-20.5 -91q-24 -187 133 -187q101 0 161 81t60 222q0 62 -35 103t-104 41zM61 84h-4q-12 -71 -18 -84h-21l125 711h26l-40 -226q-13 -70 -27 -118l3 -1q69 120 194 120q79 0 119 -48.5t40 -126.5q0 -139 -64.5 -229
t-175.5 -90q-128 0 -157 92z" />
    <glyph glyph-name="c" unicode="c" horiz-adv-x="458" 
d="M211 -8q-169 0 -169 166q0 141 63.5 234.5t186.5 93.5q65 0 105.5 -29t40.5 -82q0 -13 -3 -30h-22q1 7 1 20q0 98 -128 98q-101 0 -159 -89t-58 -218q0 -76 36.5 -108.5t107.5 -32.5q83 0 126 40t49 90h21q0 -12 -3 -24q-13 -63 -69 -96t-126 -33z" />
    <glyph glyph-name="d" unicode="d" horiz-adv-x="500" 
d="M284 462q-101 0 -158.5 -88t-57.5 -218q0 -142 142 -142q84 0 138 63t70 169q14 92 -19 154t-115 62zM526 710l-125 -710h-20q-1 4 -1 14q0 17 9 71h-4q-69 -93 -180 -93q-164 0 -164 166q0 60 14.5 117t43.5 105t77.5 77t110.5 29q63 0 101.5 -35t47.5 -77h4l60 336h26z
" />
    <glyph glyph-name="e" unicode="e" horiz-adv-x="480" 
d="M294 463q-48 0 -88 -20.5t-65 -54t-41 -70t-22 -75.5q26 -3 62 -3q80 0 137.5 11.5t87 31.5t42.5 42t13 47q0 40 -31 65.5t-95 25.5zM205 -8q-163 0 -163 172q0 83 27 154t87.5 119.5t145.5 48.5q76 0 110.5 -32t34.5 -78q0 -22 -6.5 -41.5t-27.5 -42t-53.5 -38.5
t-90.5 -26.5t-133 -10.5q-26 0 -62 3q-4 -24 -4 -57q0 -68 29.5 -108t107.5 -40q88 0 133 39.5t48 90.5h22q0 -7 -2 -21q-10 -62 -68 -97t-135 -35z" />
    <glyph glyph-name="f" unicode="f" horiz-adv-x="292" 
d="M66 -160h-25l114 614h-86l3 18l87 6l16 90q14 81 45 114t99 33q35 0 59 -6l-4 -22q-32 5 -51 5q-59 0 -84.5 -24.5t-37.5 -94.5l-17 -95h148l-4 -24h-148z" />
    <glyph glyph-name="g" unicode="g" horiz-adv-x="521" 
d="M174 -181q81 0 134 44.5t74 149.5q18 90 25 112h-4q-74 -132 -196 -132q-77 0 -115.5 45.5t-38.5 125.5q0 60 15 116t44 103t77.5 75.5t110.5 28.5q118 0 151 -99h4q14 73 24 91h20l-94 -480q-20 -102 -76.5 -152.5t-160.5 -50.5q-68 0 -113 27t-45 78q0 5 3 21h22
q-1 -7 -1 -11q0 -89 140 -92zM210 15q78 0 141.5 75.5t80.5 183.5q7 34 2 68t-17.5 61.5t-42 44.5t-71.5 17q-101 0 -161.5 -84t-60.5 -215q0 -71 31.5 -111t97.5 -40z" />
    <glyph glyph-name="h" unicode="h" horiz-adv-x="491" 
d="M106 375h4q28 50 80.5 80.5t112.5 30.5q67 0 103 -28.5t40 -74.5t-4 -105l-47 -278h-28l45 256q6 35 8.5 59.5t-1 54t-15.5 48t-39.5 31t-68.5 12.5q-83 0 -138.5 -62t-69.5 -143l-44 -256h-26l125 710h26l-41 -230q-8 -46 -22 -105z" />
    <glyph glyph-name="i" unicode="i" horiz-adv-x="204" 
d="M49 0l84 478h26l-84 -478h-26zM181 675q8 0 13.5 -6t5.5 -14q0 -12 -8.5 -21t-19.5 -9q-20 0 -20 21q0 12 9 20.5t20 8.5z" />
    <glyph glyph-name="j" unicode="j" horiz-adv-x="204" 
d="M136 478h25l-100 -569q-10 -57 -30.5 -83t-71.5 -26q-11 0 -17 1l3 23q47 0 64.5 18.5t26.5 67.5zM183 675q8 0 13.5 -6t5.5 -14q0 -12 -8.5 -21t-19.5 -9q-20 0 -20 21q0 12 9 20.5t20 8.5z" />
    <glyph glyph-name="k" unicode="k" horiz-adv-x="418" 
d="M411 478h32l-215 -217l140 -261h-28l-133 248h-120l-43 -248h-26l125 711h26l-77 -438h116z" />
    <glyph glyph-name="l" unicode="l" horiz-adv-x="194" 
d="M165 710h25l-114 -644q-6 -33 4 -41t45 -7l-3 -23q-7 -1 -23 -1q-38 0 -47 22t0 56z" />
    <glyph glyph-name="m" unicode="m" horiz-adv-x="822" 
d="M18 0l84 478h21q-1 -40 -13 -96h4q69 104 185 104q68 0 103.5 -37.5t35.5 -91.5q30 61 81 95.5t115 34.5q52 0 84.5 -18.5t44 -49t13.5 -70.5t-8 -83l-43 -266h-27l43 266q8 41 8 72.5t-8.5 61.5t-35 46t-69.5 16q-82 0 -136 -59t-68 -139l-47 -264h-27l46 255
q8 43 8.5 74.5t-8 64t-37 50t-75.5 17.5q-81 0 -135 -60t-68 -141l-45 -260h-26z" />
    <glyph glyph-name="n" unicode="n" horiz-adv-x="491" 
d="M18 0l84 478h21q0 -31 -13 -93h4q76 102 193 102q52 0 85 -18t44.5 -47.5t13.5 -67.5t-7 -77l-48 -277h-28l46 267q5 27 7 44.5t2.5 43t-6.5 42t-19.5 33t-37.5 24.5t-59 8q-82 0 -141 -62.5t-73 -147.5l-42 -252h-26z" />
    <glyph glyph-name="o" unicode="o" horiz-adv-x="504" 
d="M297 486q86 0 125.5 -49.5t39.5 -131.5q0 -59 -14 -112.5t-42.5 -99.5t-78.5 -73.5t-116 -27.5q-169 0 -169 171q0 139 67 231t188 92zM295 463q-108 0 -167.5 -86t-59.5 -216q0 -146 148 -146q96 0 158 74.5t62 214.5q0 74 -35 116.5t-106 42.5z" />
    <glyph glyph-name="p" unicode="p" horiz-adv-x="500" 
d="M224 15q101 0 157.5 84.5t56.5 213.5q0 72 -38.5 111.5t-105.5 39.5q-91 0 -151.5 -81t-62.5 -203q-2 -76 35 -120.5t109 -44.5zM-17 -197l119 675h21q0 -44 -11 -90h4q67 98 183 98q83 0 123.5 -47t40.5 -123q0 -137 -62.5 -230t-181.5 -93q-64 0 -103.5 34t-50.5 74h-4
l-53 -298h-25z" />
    <glyph glyph-name="q" unicode="q" horiz-adv-x="500" 
d="M208 16q83 0 138 66t75 181q16 86 -15 143t-116 57q-100 0 -160.5 -83.5t-60.5 -224.5q0 -68 32.5 -103.5t106.5 -35.5zM440 393h4q12 68 21 85h20l-120 -675h-26l34 190q12 75 27 122l-4 1q-70 -124 -192 -124q-162 0 -162 166q0 144 67 236t183 92q117 0 148 -93z" />
    <glyph glyph-name="r" unicode="r" horiz-adv-x="277" 
d="M59 0h-26l84 478h20q1 -16 -14 -100h4q24 48 75 78.5t111 31.5l-3 -31q-103 -7 -148 -60.5t-60 -141.5z" />
    <glyph glyph-name="s" unicode="s" horiz-adv-x="443" 
d="M176 -8q-152 0 -152 112q0 25 6 41h20q-11 -72 24 -101t104 -29q91 0 133.5 39t42.5 89q0 43 -33 62.5t-93 31.5q-83 17 -109 32q-42 26 -43 76q0 60 49.5 100.5t141.5 40.5q61 0 101 -25t40 -75q0 -20 -4 -36h-21q6 60 -26 86.5t-95 26.5q-75 0 -117 -34.5t-42 -83.5
q0 -10 2 -19t8 -16t11 -12t15.5 -10t17 -8t21 -6.5t21.5 -5t24 -5t23 -4.5q64 -13 99 -36.5t35 -77.5q0 -65 -52 -109t-152 -44z" />
    <glyph glyph-name="t" unicode="t" horiz-adv-x="304" 
d="M190 596l-21 -118h144l-4 -24h-144l-55 -310q-13 -71 10.5 -99t80.5 -28q29 0 56 4l-2 -23q-31 -4 -65 -4q-67 0 -93.5 35t-11.5 121l54 304h-80l3 18l81 7l31 117h16z" />
    <glyph glyph-name="u" unicode="u" horiz-adv-x="481" 
d="M467 478l-84 -478h-20q-3 1 -1.5 16.5t1.5 19t3.5 23t4.5 26.5h-4q-70 -93 -177 -93q-55 0 -88.5 17.5t-45 46.5t-13 68t8.5 82l48 272h27l-48 -272q-7 -50 -7.5 -92t30.5 -69.5t95 -27.5q76 0 129 55t67 133l48 273h26z" />
    <glyph glyph-name="v" unicode="v" horiz-adv-x="405" 
d="M157 30h4l151 256q36 60 50 98.5t24 93.5h27q-11 -64 -27.5 -108t-54.5 -105l-161 -267h-33l-83 480h28l29 -170q4 -23 14 -78.5t18.5 -106.5t13.5 -93z" />
    <glyph glyph-name="w" unicode="w" horiz-adv-x="651" 
d="M441 27l132 259q21 42 34 76.5t17 54t12 61.5h23q-12 -67 -25 -108.5t-45 -104.5l-138 -267h-30l-48 245q-24 127 -27 145h-4q-23 -52 -70 -148l-119 -242h-33l-66 480h24l36 -262q16 -114 25 -189h4q14 32 96 198l93 190h32l34 -175q2 -10 17 -87t22 -126h4z" />
    <glyph glyph-name="x" unicode="x" horiz-adv-x="395" 
d="M314 0l-116 225l-193 -225h-35l213 247l-119 231h30l107 -211l180 211h34l-200 -231l129 -247h-30z" />
    <glyph glyph-name="y" unicode="y" horiz-adv-x="396" 
d="M87 -197h-30l100 195l-13 -2l-99 481h28l51 -248q5 -23 14 -63.5t16 -75t12 -67.5h4l134 262q32 60 43.5 99t18.5 93h27q-7 -60 -21 -103.5t-48 -109.5z" />
    <glyph glyph-name="z" unicode="z" horiz-adv-x="397" 
d="M-25 0l3 22l397 431h-295l5 25h327l-5 -25l-395 -430h320l-4 -23h-353z" />
    <glyph glyph-name="braceleft" unicode="{" horiz-adv-x="328" 
d="M136 287l-1 -3q29 -11 32.5 -48t-6.5 -72l-31 -180q-9 -44 0 -65.5t41 -21.5h25l-4 -22h-31q-33 0 -48.5 24.5t-7.5 66.5l33 188q12 56 5 83.5t-45 39.5l4 18q42 9 56 34t26 91l35 200q16 86 83 86h37l-4 -20h-28q-34 0 -47 -20t-20 -63l-35 -200q-6 -34 -11 -51
t-19.5 -36t-38.5 -29z" />
    <glyph glyph-name="bar" unicode="|" horiz-adv-x="264" 
d="M115 -124v841h27v-841h-27z" />
    <glyph glyph-name="braceright" unicode="}" horiz-adv-x="328" 
d="M230 284v4q-29 14 -33 45t6 70l35 200q10 35 2.5 59t-42.5 24h-28l4 20h37q69 0 53 -86l-35 -200q-13 -59 -7 -87.5t45 -37.5l-4 -18q-42 -12 -56.5 -36.5t-25.5 -86.5l-33 -188q-8 -42 -32.5 -66.5t-57.5 -24.5h-31l4 22h25q32 0 48.5 20.5t25.5 66.5l31 180
q6 32 11 50.5t20 40t38 29.5z" />
    <glyph glyph-name="asciitilde" unicode="~" horiz-adv-x="555" 
d="M377 263q32 0 56.5 14t51.5 47l17 -11q-46 -75 -129 -75q-35 0 -95 31t-84 31q-28 0 -50.5 -12.5t-48.5 -44.5l-17 11q45 71 120 71q32 0 93.5 -31t85.5 -31z" />
    <glyph glyph-name="exclamdown" unicode="&#xa1;" horiz-adv-x="266" 
d="M140 313h20q-14 -84 -44 -264.5t-43 -264.5h-34q19 94 53.5 277.5t47.5 251.5zM179 479q11 0 19 -8.5t8 -20.5q0 -15 -12.5 -27t-26.5 -12q-12 0 -20 8.5t-8 19.5q0 16 12.5 28t27.5 12z" />
    <glyph glyph-name="cent" unicode="&#xa2;" horiz-adv-x="555" 
d="M337 571l19 106h24l-19 -106q59 -2 98 -28t39 -77q0 -23 -5 -36h-20q10 57 -23 86.5t-93 31.5l-79 -448q79 1 121 40.5t47 89.5h21q0 -8 -2 -22q-10 -58 -66.5 -93.5t-124.5 -37.5l-22 -126h-24l22 126q-149 6 -149 167q0 132 61 226.5t175 100.5zM254 100l79 447
q-94 -7 -150 -92.5t-56 -212.5q0 -72 32 -105t95 -37z" />
    <glyph glyph-name="sterling" unicode="&#xa3;" horiz-adv-x="555" 
d="M376 655q72 0 120.5 -32t48.5 -85q0 -21 -5 -32h-20q10 62 -32.5 94t-113.5 32q-89 0 -144 -50t-55 -139q0 -39 7 -90h190l-4 -22h-186q0 -6 0.5 -17t0.5 -16q0 -84 -23 -148.5t-74 -126.5h359l-4 -23h-417l4 23h29q51 51 76 122.5t25 129.5q0 14 -2 56h-73l4 22h69
q-6 57 -6 85q0 94 57.5 155.5t168.5 61.5z" />
    <glyph glyph-name="currency" unicode="&#xa4;" horiz-adv-x="555" 
d="M119 274q0 58 39 106l-47 48l21 21l46 -48q52 40 106 40q60 0 108 -42l48 48l19 -20l-48 -49q38 -47 38 -104q0 -55 -38 -105l49 -47l-20 -21l-49 47q-50 -39 -106 -39q-53 0 -108 39l-44 -46l-20 20l46 44q-40 51 -40 108zM143 273q0 -58 41 -98.5t100 -40.5t99.5 40.5
t40.5 98.5q0 60 -40.5 101t-99.5 41t-100 -41t-41 -101z" />
    <glyph glyph-name="yen" unicode="&#xa5;" horiz-adv-x="555" 
d="M68 208h417l-4 -23h-201l-32 -185h-28l32 185h-188zM496 267h-417l4 23h181l-142 354h30l67 -168q38 -94 64 -166h7q51 69 119 156l137 178h33l-272 -354h193z" />
    <glyph glyph-name="brokenbar" unicode="&#xa6;" horiz-adv-x="318" 
d="M141 257h27v-381h-27v381zM168 361h-27v356h27v-356z" />
    <glyph glyph-name="section" unicode="&#xa7;" horiz-adv-x="499" 
d="M228 412q-61 -22 -95 -59.5t-34 -78.5q0 -95 183 -123q55 11 97 49t42 82q0 55 -46 85.5t-147 44.5zM187 -119q-63 0 -113 31t-50 84q0 12 3 26h20q-4 -33 8.5 -57.5t36 -37.5t48.5 -18.5t52 -5.5q77 0 125.5 39t48.5 94q0 75 -129 102q-162 32 -162 132q0 45 33.5 87
t92.5 65q-65 30 -65 96q0 25 10 50.5t30.5 50t60 40t91.5 15.5q61 0 106.5 -28.5t45.5 -83.5q0 -14 -3 -29h-23q8 61 -29 89.5t-102 28.5q-73 0 -116.5 -36.5t-43.5 -92.5q0 -44 29 -64.5t93 -32.5q73 -14 117 -48.5t44 -91.5q0 -44 -35 -86t-96 -61q77 -30 77 -104
q0 -22 -11 -47t-33.5 -49.5t-64.5 -40.5t-96 -16z" />
    <glyph glyph-name="dieresis" unicode="&#xa8;" horiz-adv-x="454" 
d="M232 616q19 0 19 -20q0 -11 -8 -19t-19 -8q-18 0 -18 19q0 11 7.5 19.5t18.5 8.5zM380 616q20 0 20 -21q0 -10 -8.5 -18t-19.5 -8q-18 0 -18 19q0 11 8 19.5t18 8.5z" />
    <glyph glyph-name="copyright" unicode="&#xa9;" horiz-adv-x="809" 
d="M401 -13q-163 0 -260.5 102.5t-97.5 264.5q0 158 104.5 262t253.5 104q148 0 252 -104t104 -262q0 -157 -104 -262t-252 -105zM401 695q-142 0 -237 -99t-95 -242q0 -154 92.5 -249t239.5 -95q138 0 234.5 100t96.5 244q0 142 -96.5 241.5t-234.5 99.5zM401 95
q-109 0 -158 59t-49 183q0 110 50 181t159 71q70 0 119.5 -32.5t49.5 -96.5q0 -7 -1 -12h-21q-1 48 -36 83t-112 35q-90 0 -135 -61t-45 -166q0 -121 45.5 -171t135.5 -50q44 0 76 12.5t48.5 33t24 41t7.5 43.5h21q1 -5 1 -12q0 -66 -50.5 -103.5t-129.5 -37.5z" />
    <glyph glyph-name="ordfeminine" unicode="&#xaa;" horiz-adv-x="344" 
d="M183 308q63 0 101 55.5t38 128.5q0 46 -24 70t-68 24q-64 0 -102 -49.5t-38 -134.5q0 -94 93 -94zM333 557l4 2q4 32 14 48h21l-56 -317h-21q0 29 5 54l-3 2q-43 -61 -116 -61q-117 0 -117 117q0 89 45 148t125 59q74 0 99 -52z" />
    <glyph glyph-name="guillemotleft" unicode="&#xab;" horiz-adv-x="384" 
d="M181 29l-121 186l3 14l178 189l11 -9l-158 -187l102 -183zM294 29l-121 186l3 14l177 189l12 -9l-158 -187l101 -183z" />
    <glyph glyph-name="logicalnot" unicode="&#xac;" horiz-adv-x="555" 
d="M466 281l-34 -194h-23l30 170h-337l4 24h360z" />
    <glyph glyph-name="sfthyphen" unicode="&#xad;" horiz-adv-x="435" 
d="M101 233l5 33h235l-5 -33h-235z" />
    <glyph glyph-name="registered" unicode="&#xae;" horiz-adv-x="564" 
d="M511 464q0 -96 -69 -164t-166 -68q-104 0 -168.5 67t-64.5 165t68 166.5t165 68.5q101 0 168 -68t67 -167zM489 464q0 89 -62.5 153t-150.5 64q-90 0 -151 -63.5t-61 -153.5q0 -88 60 -150.5t152 -62.5q88 0 150.5 63t62.5 150zM313 455l64 -125h-24l-61 123h-70v-123
h-21v275h87q38 0 63 -19.5t25 -59.5q0 -59 -63 -71zM290 586h-68v-115h69q63 0 63 56q0 29 -19.5 44t-44.5 15z" />
    <glyph glyph-name="macron" unicode="&#xaf;" horiz-adv-x="454" 
d="M156 574l4 26h271l-4 -26h-271z" />
    <glyph glyph-name="degree" unicode="&#xb0;" horiz-adv-x="476" 
d="M222 420q-51 0 -88 35t-37 84q0 50 37 84.5t88 34.5q52 0 89 -34.5t37 -84.5q0 -49 -37 -84t-89 -35zM221 636q-40 0 -69.5 -28t-29.5 -69q0 -39 30 -68t69 -29q40 0 70 29t30 68q0 40 -29.5 68.5t-70.5 28.5z" />
    <glyph glyph-name="plusminus" unicode="&#xb1;" horiz-adv-x="555" 
d="M293 252l-29 -165h-23l29 165h-169l4 24h169l29 166h23l-29 -166h168l-4 -24h-168zM61 24h360l-4 -24h-360z" />
    <glyph glyph-name="twosuperior" unicode="&#xb2;" horiz-adv-x="361" 
d="M254 770q60 0 89 -24.5t29 -63.5q0 -30 -22.5 -57.5t-47.5 -43.5t-65 -36q-41 -20 -56.5 -28.5t-40.5 -24t-35 -26t-19.5 -27t-12.5 -35.5h260l-4 -24h-287l4 23q5 27 16 47t38.5 40.5t48 32t72.5 39.5q62 32 92.5 58.5t30.5 60.5q0 65 -90 65q-60 0 -93 -27.5t-35 -63.5
h-21q0 12 1 18q7 43 50 70t98 27z" />
    <glyph glyph-name="threesuperior" unicode="&#xb3;" horiz-adv-x="361" 
d="M343 735v5h-220l4 24h266l-4 -22l-170 -127q134 0 134 -101q0 -61 -49.5 -100t-125.5 -39q-55 0 -89.5 21t-34.5 61q0 7 5 30h23q-3 -12 -3 -22q0 -66 102 -66q67 0 106.5 32.5t39.5 86.5q0 73 -117 73q-14 0 -26 -2l-10 19z" />
    <glyph glyph-name="acute" unicode="&#xb4;" horiz-adv-x="454" 
d="M279 548l-11 11l122 131l27 -25z" />
    <glyph glyph-name="mu" unicode="&#xb5;" horiz-adv-x="481" 
d="M467 478l-84 -478h-20q-3 1 -1.5 16.5t1.5 19t3.5 23t4.5 26.5h-4q-70 -93 -177 -93q-108 0 -137 70l-47 -267h-27l121 683h27l-48 -272q-7 -50 -7 -92t30.5 -69.5t94.5 -27.5q76 0 129 55t67 133l48 273h26z" />
    <glyph glyph-name="mu" unicode="&#x3bc;" horiz-adv-x="481" 
d="M467 478l-84 -478h-20q-3 1 -1.5 16.5t1.5 19t3.5 23t4.5 26.5h-4q-70 -93 -177 -93q-108 0 -137 70l-47 -267h-27l121 683h27l-48 -272q-7 -50 -7 -92t30.5 -69.5t94.5 -27.5q76 0 129 55t67 133l48 273h26z" />
    <glyph glyph-name="paragraph" unicode="&#xb6;" horiz-adv-x="440" 
d="M461 707l-124 -704q-28 -155 -166 -155h-16l4 29q72 3 105 32t45 93l124 705h28zM328 349h-79q-69 0 -107.5 40.5t-38.5 109.5q0 91 58 149.5t151 58.5h79z" />
    <glyph glyph-name="periodcentered" unicode="&#xb7;" horiz-adv-x="182" 
d="M101 289q14 0 22.5 -9t8.5 -23q0 -17 -13.5 -29.5t-30.5 -12.5q-13 0 -21 8t-8 21q0 18 12.5 31.5t29.5 13.5z" />
    <glyph glyph-name="cedilla" unicode="&#xb8;" horiz-adv-x="458" 
d="M166 -200q-39 0 -72 16l9 19q33 -14 66 -14q25 0 50 15t25 44q0 19 -15 30t-39 11q-18 0 -34 -6l-15 10l60 83h24l-50 -67q18 2 25 2q37 0 54 -18t17 -41q0 -34 -29 -58.5t-76 -25.5z" />
    <glyph glyph-name="onesuperior" unicode="&#xb9;" horiz-adv-x="361" 
d="M322 403l-4 -23h-255l4 23h114l58 331l-103 -17l4 20l108 26h22l-63 -360h115z" />
    <glyph glyph-name="ordmasculine" unicode="&#xba;" horiz-adv-x="348" 
d="M237 609q118 0 118 -130q0 -36 -8.5 -68.5t-27 -61.5t-52.5 -46.5t-79 -17.5q-124 0 -124 117q0 88 45 147.5t128 59.5zM233 586q-69 0 -106 -54.5t-37 -130.5q0 -93 102 -93q62 0 99.5 45.5t37.5 122.5q0 110 -96 110z" />
    <glyph glyph-name="guillemotright" unicode="&#xbb;" horiz-adv-x="384" 
d="M339 215l-185 -186l-12 10l167 183l-92 187l14 9l111 -189zM227 215l-185 -186l-13 10l168 183l-92 187l13 9l112 -189z" />
    <glyph glyph-name="onequarter" unicode="&#xbc;" horiz-adv-x="780" 
d="M320 313l-4 -23h-255l4 23h114l58 331l-103 -17l4 20l108 26h22l-63 -360h115zM190 -30h-27l504 733h27zM664 384h22l-45 -259h70l-5 -24h-70l-17 -101h-27l17 101h-224l4 22zM425 125h189l38 216z" />
    <glyph glyph-name="onehalf" unicode="&#xbd;" horiz-adv-x="780" 
d="M318 313l-4 -23h-255l4 23h114l58 331l-103 -17l4 20l108 26h22l-63 -360h115zM173 -30h-27l504 733h27zM621 390q60 0 89 -24.5t29 -63.5q0 -30 -22.5 -57.5t-47.5 -43.5t-65 -36q-41 -20 -56.5 -28.5t-40.5 -24t-35 -26t-19.5 -27t-12.5 -35.5h260l-4 -24h-287l4 23
q5 27 16 47t38.5 40.5t48 32t72.5 39.5q62 32 92.5 58.5t30.5 60.5q0 65 -90 65q-60 0 -93 -27.5t-35 -63.5h-21q0 12 1 18q7 43 50 70t98 27z" />
    <glyph glyph-name="threequarters" unicode="&#xbe;" horiz-adv-x="780" 
d="M363 645v5h-220l4 24h266l-4 -22l-170 -127q134 0 134 -101q0 -61 -49.5 -100t-125.5 -39q-55 0 -89.5 21t-34.5 61q0 7 5 30h23q-3 -12 -3 -22q0 -66 102 -66q67 0 106.5 32.5t39.5 86.5q0 73 -117 73q-14 0 -26 -2l-10 19zM195 -30h-27l504 733h27zM676 384h22
l-45 -259h70l-5 -24h-70l-17 -101h-27l17 101h-224l4 22zM437 125h189l38 216z" />
    <glyph glyph-name="questiondown" unicode="&#xbf;" horiz-adv-x="473" 
d="M162 -223q-75 0 -116 34.5t-41 91.5q0 51 29 95t89 92q58 47 92 91.5t46 110.5l4 21h28l-3 -15q-20 -119 -131 -211q-71 -59 -98.5 -97.5t-27.5 -85.5t33.5 -74t99.5 -27q169 0 198 155h22q0 -3 -0.5 -8t-0.5 -6q-15 -81 -74.5 -124t-148.5 -43zM311 481q11 0 19 -8.5
t8 -20.5q0 -15 -12.5 -27t-26.5 -12q-12 0 -20 8.5t-8 19.5q0 16 12.5 28t27.5 12z" />
    <glyph glyph-name="Agrave" unicode="&#xc0;" horiz-adv-x="549" 
d="M470 0l-37 187h-333l-101 -187h-29l365 674h32l132 -674h-29zM349 637h-6q-68 -130 -102 -192l-128 -232h318l-47 232q-6 32 -17 96t-18 96zM380 740l-10 -12l-132 92l24 29z" />
    <glyph glyph-name="Aacute" unicode="&#xc1;" horiz-adv-x="549" 
d="M470 0l-37 187h-333l-101 -187h-29l365 674h32l132 -674h-29zM349 637h-6q-68 -130 -102 -192l-128 -232h318l-47 232q-6 32 -17 96t-18 96zM334 729l-7 13l146 99l18 -31z" />
    <glyph glyph-name="Acircumflex" unicode="&#xc2;" horiz-adv-x="549" 
d="M470 0l-37 187h-333l-101 -187h-29l365 674h32l132 -674h-29zM349 637h-6q-68 -130 -102 -192l-128 -232h318l-47 232q-6 32 -17 96t-18 96zM484 715l-114 83l-144 -84l-9 13l148 101h24l108 -100z" />
    <glyph glyph-name="Atilde" unicode="&#xc3;" horiz-adv-x="549" 
d="M470 0l-37 187h-333l-101 -187h-29l365 674h32l132 -674h-29zM349 637h-6q-68 -130 -102 -192l-128 -232h318l-47 232q-6 32 -17 96t-18 96zM417 772q37 0 70 43l19 -10q-34 -57 -90 -57q-23 0 -61.5 19t-53.5 19q-32 0 -65 -44l-21 11q33 57 88 57q23 0 62 -19t52 -19z
" />
    <glyph glyph-name="Adieresis" unicode="&#xc4;" horiz-adv-x="549" 
d="M470 0l-37 187h-333l-101 -187h-29l365 674h32l132 -674h-29zM349 637h-6q-68 -130 -102 -192l-128 -232h318l-47 232q-6 32 -17 96t-18 96zM298 798q19 0 19 -20q0 -11 -8 -19t-19 -8q-18 0 -18 19q0 11 8 19.5t18 8.5zM447 798q19 0 19 -21q0 -10 -8.5 -18t-18.5 -8
q-19 0 -19 19q0 11 8 19.5t19 8.5z" />
    <glyph glyph-name="Aring" unicode="&#xc5;" horiz-adv-x="549" 
d="M470 0l-37 187h-333l-101 -187h-29l365 674h32l132 -674h-29zM349 637h-6q-68 -130 -102 -192l-128 -232h318l-47 232q-6 32 -17 96t-18 96zM357 705q-31 0 -51 21.5t-20 52.5q0 41 29 69t72 28q32 0 51 -21t19 -52q0 -41 -28.5 -69.5t-71.5 -28.5zM384 857
q-33 0 -54 -23t-21 -55q0 -23 14 -38.5t37 -15.5q36 0 56.5 23t20.5 55q0 23 -14.5 38.5t-38.5 15.5z" />
    <glyph glyph-name="AE" unicode="&#xc6;" horiz-adv-x="899" 
d="M451 252h-258l-192 -252h-34l512 674h404l-2 -24h-359l-31 -295h337l-3 -24h-337l-32 -306h403l-2 -25h-432zM493 642l-5 1l-275 -364h241z" />
    <glyph glyph-name="Ccedilla" unicode="&#xc7;" horiz-adv-x="564" 
d="M279 18q101 0 158 51t67 120h25q-1 -9 -5 -27q-21 -80 -87 -123.5t-161 -44.5l-39 -53q18 2 25 2q37 0 54 -18t17 -41q0 -34 -29 -58.5t-76 -25.5q-39 0 -72 16l9 19q33 -14 66 -14q25 0 50 15t25 44q0 19 -15 30t-39 11q-18 0 -34 -6l-15 10l50 70q-192 10 -192 228
q0 83 19 161t57 146t104.5 109.5t152.5 41.5q77 0 129 -37t52 -104q0 -21 -5 -39h-23q2 18 2 27q0 55 -38.5 91.5t-125.5 36.5q-78 0 -138.5 -42.5t-93.5 -110t-49 -138.5t-16 -140q0 -207 191 -207z" />
    <glyph glyph-name="Egrave" unicode="&#xc8;" horiz-adv-x="503" 
d="M23 0l118 674h392l-4 -25h-365l-49 -276h343l-4 -25h-343l-57 -323h397l-4 -25h-424zM396 740l-10 -12l-132 92l24 29z" />
    <glyph glyph-name="Eacute" unicode="&#xc9;" horiz-adv-x="503" 
d="M23 0l118 674h392l-4 -25h-365l-49 -276h343l-4 -25h-343l-57 -323h397l-4 -25h-424zM308 729l-7 13l146 99l18 -31z" />
    <glyph glyph-name="Ecircumflex" unicode="&#xca;" horiz-adv-x="503" 
d="M23 0l118 674h392l-4 -25h-365l-49 -276h343l-4 -25h-343l-57 -323h397l-4 -25h-424zM471 728l-114 83l-144 -84l-9 13l148 101h24l108 -100z" />
    <glyph glyph-name="Edieresis" unicode="&#xcb;" horiz-adv-x="503" 
d="M23 0l118 674h392l-4 -25h-365l-49 -276h343l-4 -25h-343l-57 -323h397l-4 -25h-424zM276 798q19 0 19 -20q0 -11 -8 -19t-19 -8q-18 0 -18 19q0 11 8 19.5t18 8.5zM425 798q19 0 19 -21q0 -10 -8.5 -18t-18.5 -8q-19 0 -19 19q0 11 8 19.5t19 8.5z" />
    <glyph glyph-name="Igrave" unicode="&#xcc;" horiz-adv-x="191" 
d="M42 0l118 674h27l-118 -674h-27zM198 740l-10 -12l-132 92l24 29z" />
    <glyph glyph-name="Iacute" unicode="&#xcd;" horiz-adv-x="191" 
d="M42 0l118 674h27l-118 -674h-27zM172 729l-7 13l146 99l18 -31z" />
    <glyph glyph-name="Icircumflex" unicode="&#xce;" horiz-adv-x="191" 
d="M42 0l118 674h27l-118 -674h-27zM304 728l-114 83l-144 -84l-9 13l148 101h24l108 -100z" />
    <glyph glyph-name="Idieresis" unicode="&#xcf;" horiz-adv-x="191" 
d="M42 0l118 674h27l-118 -674h-27zM129 798q19 0 19 -20q0 -11 -8 -19t-19 -8q-18 0 -18 19q0 11 8 19.5t18 8.5zM278 798q19 0 19 -21q0 -10 -8.5 -18t-18.5 -8q-19 0 -19 19q0 11 8 19.5t19 8.5z" />
    <glyph glyph-name="Eth" unicode="&#xd0;" horiz-adv-x="600" 
d="M87 363l54 310h162q50 0 95.5 -15t85.5 -46.5t63.5 -87.5t23.5 -130q0 -173 -105.5 -283.5t-268.5 -110.5h-174l59 338h-63l5 25h63zM54 25h146q47 0 93.5 12.5t92 42t80.5 71.5t56.5 106t21.5 142q0 58 -16 103t-41.5 72t-59.5 44.5t-66 24t-65 6.5h-132l-51 -286h262
l-5 -25h-261z" />
    <glyph glyph-name="Ntilde" unicode="&#xd1;" horiz-adv-x="614" 
d="M164 622h-6l-109 -622h-26l118 674h24l216 -417q9 -17 106 -208h5l109 625h26l-117 -674h-26l-232 443q-52 100 -88 179zM460 763q37 0 70 43l19 -10q-34 -57 -90 -57q-23 0 -61.5 19t-53.5 19q-32 0 -65 -44l-21 11q33 57 88 57q23 0 62 -19t52 -19z" />
    <glyph glyph-name="Ograve" unicode="&#xd2;" horiz-adv-x="638" 
d="M400 681q112 0 162 -66.5t50 -173.5q0 -66 -10.5 -127t-36 -120.5t-63.5 -103t-97.5 -70t-133.5 -26.5q-113 0 -162 60.5t-49 157.5q0 65 10.5 128t35.5 126t63 109.5t97.5 76t133.5 29.5zM395 657q-82 0 -144 -40t-96.5 -106t-51 -140t-16.5 -153q0 -201 187 -201
q140 0 225.5 110.5t85.5 318.5q0 211 -190 211zM452 740l-10 -12l-132 92l24 29z" />
    <glyph glyph-name="Oacute" unicode="&#xd3;" horiz-adv-x="638" 
d="M400 681q112 0 162 -66.5t50 -173.5q0 -66 -10.5 -127t-36 -120.5t-63.5 -103t-97.5 -70t-133.5 -26.5q-113 0 -162 60.5t-49 157.5q0 65 10.5 128t35.5 126t63 109.5t97.5 76t133.5 29.5zM395 657q-82 0 -144 -40t-96.5 -106t-51 -140t-16.5 -153q0 -201 187 -201
q140 0 225.5 110.5t85.5 318.5q0 211 -190 211zM403 729l-7 13l146 99l18 -31z" />
    <glyph glyph-name="Ocircumflex" unicode="&#xd4;" horiz-adv-x="638" 
d="M400 681q112 0 162 -66.5t50 -173.5q0 -66 -10.5 -127t-36 -120.5t-63.5 -103t-97.5 -70t-133.5 -26.5q-113 0 -162 60.5t-49 157.5q0 65 10.5 128t35.5 126t63 109.5t97.5 76t133.5 29.5zM395 657q-82 0 -144 -40t-96.5 -106t-51 -140t-16.5 -153q0 -201 187 -201
q140 0 225.5 110.5t85.5 318.5q0 211 -190 211zM544 728l-114 83l-144 -84l-9 13l148 101h24l108 -100z" />
    <glyph glyph-name="Otilde" unicode="&#xd5;" horiz-adv-x="638" 
d="M400 681q112 0 162 -66.5t50 -173.5q0 -66 -10.5 -127t-36 -120.5t-63.5 -103t-97.5 -70t-133.5 -26.5q-113 0 -162 60.5t-49 157.5q0 65 10.5 128t35.5 126t63 109.5t97.5 76t133.5 29.5zM395 657q-82 0 -144 -40t-96.5 -106t-51 -140t-16.5 -153q0 -201 187 -201
q140 0 225.5 110.5t85.5 318.5q0 211 -190 211zM483 780q37 0 70 43l19 -10q-34 -57 -90 -57q-23 0 -61.5 19t-53.5 19q-32 0 -65 -44l-21 11q33 57 88 57q23 0 62 -19t52 -19z" />
    <glyph glyph-name="Odieresis" unicode="&#xd6;" horiz-adv-x="638" 
d="M400 681q112 0 162 -66.5t50 -173.5q0 -66 -10.5 -127t-36 -120.5t-63.5 -103t-97.5 -70t-133.5 -26.5q-113 0 -162 60.5t-49 157.5q0 65 10.5 128t35.5 126t63 109.5t97.5 76t133.5 29.5zM395 657q-82 0 -144 -40t-96.5 -106t-51 -140t-16.5 -153q0 -201 187 -201
q140 0 225.5 110.5t85.5 318.5q0 211 -190 211zM359 798q19 0 19 -20q0 -11 -8 -19t-19 -8q-18 0 -18 19q0 11 8 19.5t18 8.5zM508 798q19 0 19 -21q0 -10 -8.5 -18t-18.5 -8q-19 0 -19 19q0 11 8 19.5t19 8.5z" />
    <glyph glyph-name="multiply" unicode="&#xd7;" horiz-adv-x="555" 
d="M101 124l167 145l-115 143l19 16l114 -143l164 143l14 -17l-164 -143l114 -145l-19 -16l-114 145l-166 -145z" />
    <glyph glyph-name="Oslash" unicode="&#xd8;" horiz-adv-x="638" 
d="M400 681q114 0 168 -75l75 83l16 -14l-80 -87q33 -59 33 -147q0 -66 -10.5 -127t-36 -120.5t-63.5 -103t-97.5 -70t-133.5 -26.5q-115 0 -169 69l-74 -82l-17 12l79 87q-30 52 -30 132q0 65 10.5 128t35.5 126t63 109.5t97.5 76t133.5 29.5zM585 446q0 72 -24 121
l-441 -484q45 -66 154 -66q140 0 225.5 110.5t85.5 318.5zM395 657q-82 0 -144 -40t-96.5 -106t-51 -140t-16.5 -153q0 -72 22 -117l441 486q-47 70 -155 70z" />
    <glyph glyph-name="Ugrave" unicode="&#xd9;" horiz-adv-x="618" 
d="M633 674l-71 -404q-23 -131 -92 -204t-202 -73q-70 0 -116 21.5t-65.5 60t-23.5 92t9 117.5l69 390h26l-69 -390q-25 -142 18.5 -204t157.5 -62q105 0 170.5 58.5t89.5 193.5l71 404h28zM439 740l-10 -12l-132 92l24 29z" />
    <glyph glyph-name="Uacute" unicode="&#xda;" horiz-adv-x="618" 
d="M633 674l-71 -404q-23 -131 -92 -204t-202 -73q-70 0 -116 21.5t-65.5 60t-23.5 92t9 117.5l69 390h26l-69 -390q-25 -142 18.5 -204t157.5 -62q105 0 170.5 58.5t89.5 193.5l71 404h28zM360 729l-7 13l146 99l18 -31z" />
    <glyph glyph-name="Ucircumflex" unicode="&#xdb;" horiz-adv-x="618" 
d="M633 674l-71 -404q-23 -131 -92 -204t-202 -73q-70 0 -116 21.5t-65.5 60t-23.5 92t9 117.5l69 390h26l-69 -390q-25 -142 18.5 -204t157.5 -62q105 0 170.5 58.5t89.5 193.5l71 404h28zM523 728l-114 83l-144 -84l-9 13l148 101h24l108 -100z" />
    <glyph glyph-name="Udieresis" unicode="&#xdc;" horiz-adv-x="618" 
d="M633 674l-71 -404q-23 -131 -92 -204t-202 -73q-70 0 -116 21.5t-65.5 60t-23.5 92t9 117.5l69 390h26l-69 -390q-25 -142 18.5 -204t157.5 -62q105 0 170.5 58.5t89.5 193.5l71 404h28zM334 798q19 0 19 -20q0 -11 -8 -19t-19 -8q-18 0 -18 19q0 11 8 19.5t18 8.5z
M483 798q19 0 19 -21q0 -10 -8.5 -18t-18.5 -8q-19 0 -19 19q0 11 8 19.5t19 8.5z" />
    <glyph glyph-name="Yacute" unicode="&#xdd;" horiz-adv-x="497" 
d="M251 302h6l128 174l145 198h35l-300 -402l-47 -272h-28l47 271l-149 403h28l71 -190q36 -96 64 -182zM302 712l-7 13l146 99l18 -31z" />
    <glyph glyph-name="Thorn" unicode="&#xde;" horiz-adv-x="533" 
d="M284 148h-208l-26 -148h-27l118 673h27l-21 -120h210q86 0 130.5 -46t44.5 -124q0 -30 -6.5 -60t-24 -62.5t-44.5 -56.5t-71.5 -40t-101.5 -16zM348 528h-205l-63 -354h208q38 0 74 10.5t69 33t53 64.5t20 97q0 149 -156 149z" />
    <glyph glyph-name="germandbls" unicode="&#xdf;" horiz-adv-x="500" 
d="M23 -23l94 507q43 231 217 231q66 0 107 -34.5t41 -81.5q0 -30 -8.5 -55.5t-29 -49.5t-31.5 -34t-38 -33q-50 -43 -50 -68q0 -8 4 -16.5t12.5 -19t15.5 -18t20.5 -21l19.5 -19.5q65 -69 65 -128q0 -82 -55 -119.5t-139 -37.5q-29 0 -64 5l3 23q27 -4 64 -4q165 0 165 133
q0 54 -69 123q-68 66 -68 98q0 39 73 97q85 66 85 140q0 42 -34 69.5t-94 27.5q-149 0 -190 -225l-90 -486q-15 -82 -52.5 -123t-105.5 -41q-38 0 -62 6l5 22q30 -5 54 -5q58 0 90 33.5t45 103.5z" />
    <glyph glyph-name="agrave" unicode="&#xe0;" horiz-adv-x="500" 
d="M208 16q85 0 139 66t72 168q39 213 -129 213q-99 0 -160 -86t-61 -222q0 -139 139 -139zM485 478l-84 -478h-20q-4 29 10 93h-4q-71 -101 -186 -101q-84 0 -122 44t-38 118q0 141 66.5 236.5t184.5 95.5q117 0 149 -86h4q11 60 20 78h20zM357 566l-12 -11l-121 105l27 27
z" />
    <glyph glyph-name="aacute" unicode="&#xe1;" horiz-adv-x="500" 
d="M208 16q85 0 139 66t72 168q39 213 -129 213q-99 0 -160 -86t-61 -222q0 -139 139 -139zM485 478l-84 -478h-20q-4 29 10 93h-4q-71 -101 -186 -101q-84 0 -122 44t-38 118q0 141 66.5 236.5t184.5 95.5q117 0 149 -86h4q11 60 20 78h20zM300 548l-11 11l122 131l27 -25z
" />
    <glyph glyph-name="acircumflex" unicode="&#xe2;" horiz-adv-x="500" 
d="M208 16q85 0 139 66t72 168q39 213 -129 213q-99 0 -160 -86t-61 -222q0 -139 139 -139zM485 478l-84 -478h-20q-4 29 10 93h-4q-71 -101 -186 -101q-84 0 -122 44t-38 118q0 141 66.5 236.5t184.5 95.5q117 0 149 -86h4q11 60 20 78h20zM444 545l-112 102l-147 -103
l-11 11l152 121h24l104 -120z" />
    <glyph glyph-name="atilde" unicode="&#xe3;" horiz-adv-x="500" 
d="M208 16q85 0 139 66t72 168q39 213 -129 213q-99 0 -160 -86t-61 -222q0 -139 139 -139zM485 478l-84 -478h-20q-4 29 10 93h-4q-71 -101 -186 -101q-84 0 -122 44t-38 118q0 141 66.5 236.5t184.5 95.5q117 0 149 -86h4q11 60 20 78h20zM386 600q37 0 70 43l19 -10
q-34 -57 -90 -57q-23 0 -61.5 19t-53.5 19q-32 0 -65 -44l-21 11q33 57 88 57q23 0 62 -19t52 -19z" />
    <glyph glyph-name="adieresis" unicode="&#xe4;" horiz-adv-x="500" 
d="M208 16q85 0 139 66t72 168q39 213 -129 213q-99 0 -160 -86t-61 -222q0 -139 139 -139zM485 478l-84 -478h-20q-4 29 10 93h-4q-71 -101 -186 -101q-84 0 -122 44t-38 118q0 141 66.5 236.5t184.5 95.5q117 0 149 -86h4q11 60 20 78h20zM260 616q19 0 19 -20
q0 -11 -8 -19t-19 -8q-18 0 -18 19q0 11 7.5 19.5t18.5 8.5zM408 616q20 0 20 -21q0 -10 -8.5 -18t-19.5 -8q-18 0 -18 19q0 11 8 19.5t18 8.5z" />
    <glyph glyph-name="aring" unicode="&#xe5;" horiz-adv-x="500" 
d="M208 16q85 0 139 66t72 168q39 213 -129 213q-99 0 -160 -86t-61 -222q0 -139 139 -139zM485 478l-84 -478h-20q-4 29 10 93h-4q-71 -101 -186 -101q-84 0 -122 44t-38 118q0 141 66.5 236.5t184.5 95.5q117 0 149 -86h4q11 60 20 78h20zM328 541q-31 0 -51 21.5
t-20 52.5q0 41 29 69t72 28q32 0 51 -21t19 -52q0 -41 -28.5 -69.5t-71.5 -28.5zM355 693q-33 0 -54 -23t-21 -55q0 -23 14 -38.5t37 -15.5q36 0 56.5 23t20.5 55q0 23 -14.5 38.5t-38.5 15.5z" />
    <glyph glyph-name="ae" unicode="&#xe6;" horiz-adv-x="814" 
d="M153 13q138 0 224 114q-4 34 3 99q-83 16 -144 16q-106 0 -147 -37.5t-41 -100.5q0 -91 105 -91zM628 463q-48 0 -88 -20.5t-65 -54t-41 -70t-22 -75.5q26 -3 62 -3q80 0 137.5 11.5t87 31.5t42.5 42t13 47q0 40 -31 65.5t-95 25.5zM272 485q69 0 110.5 -33.5t43.5 -88.5
q72 123 210 123q76 0 110.5 -32t34.5 -78q0 -22 -6.5 -41.5t-27.5 -42t-53.5 -38.5t-90.5 -26.5t-133 -10.5q-26 0 -62 3q-4 -24 -4 -57q0 -68 29.5 -108t107.5 -40q87 0 130.5 40t50.5 90h22l-3 -20q-13 -62 -69.5 -97.5t-132.5 -35.5q-129 0 -156 105q-62 -66 -116.5 -86
t-116.5 -20q-59 0 -94.5 27t-35.5 83q0 165 213 165q64 0 151 -16q16 86 16 105q0 44 -35 75.5t-101 31.5q-141 0 -155 -106h-22q0 14 3 26q23 103 182 103z" />
    <glyph glyph-name="ccedilla" unicode="&#xe7;" horiz-adv-x="458" 
d="M166 -200q-39 0 -72 16l9 19q33 -14 66 -14q25 0 50 15t25 44q0 19 -15 30t-39 11q-18 0 -34 -6l-15 10l49 68q-148 11 -148 165q0 141 63.5 234.5t186.5 93.5q65 0 105.5 -29t40.5 -82q0 -13 -3 -30h-22q1 7 1 20q0 98 -128 98q-101 0 -159 -89t-58 -218
q0 -76 36.5 -108.5t107.5 -32.5q83 0 126 40t49 90h21q0 -12 -3 -24q-13 -63 -68.5 -95.5t-124.5 -33.5l-38 -51q18 2 25 2q37 0 54 -18t17 -41q0 -34 -29 -58.5t-76 -25.5z" />
    <glyph glyph-name="egrave" unicode="&#xe8;" horiz-adv-x="480" 
d="M294 463q-48 0 -88 -20.5t-65 -54t-41 -70t-22 -75.5q26 -3 62 -3q80 0 137.5 11.5t87 31.5t42.5 42t13 47q0 40 -31 65.5t-95 25.5zM205 -8q-163 0 -163 172q0 83 27 154t87.5 119.5t145.5 48.5q76 0 110.5 -32t34.5 -78q0 -22 -6.5 -41.5t-27.5 -42t-53.5 -38.5
t-90.5 -26.5t-133 -10.5q-26 0 -62 3q-4 -24 -4 -57q0 -68 29.5 -108t107.5 -40q88 0 133 39.5t48 90.5h22q0 -7 -2 -21q-10 -62 -68 -97t-135 -35zM348 566l-12 -11l-121 105l27 27z" />
    <glyph glyph-name="eacute" unicode="&#xe9;" horiz-adv-x="480" 
d="M294 463q-48 0 -88 -20.5t-65 -54t-41 -70t-22 -75.5q26 -3 62 -3q80 0 137.5 11.5t87 31.5t42.5 42t13 47q0 40 -31 65.5t-95 25.5zM205 -8q-163 0 -163 172q0 83 27 154t87.5 119.5t145.5 48.5q76 0 110.5 -32t34.5 -78q0 -22 -6.5 -41.5t-27.5 -42t-53.5 -38.5
t-90.5 -26.5t-133 -10.5q-26 0 -62 3q-4 -24 -4 -57q0 -68 29.5 -108t107.5 -40q88 0 133 39.5t48 90.5h22q0 -7 -2 -21q-10 -62 -68 -97t-135 -35zM277 548l-11 11l122 131l27 -25z" />
    <glyph glyph-name="ecircumflex" unicode="&#xea;" horiz-adv-x="480" 
d="M294 463q-48 0 -88 -20.5t-65 -54t-41 -70t-22 -75.5q26 -3 62 -3q80 0 137.5 11.5t87 31.5t42.5 42t13 47q0 40 -31 65.5t-95 25.5zM205 -8q-163 0 -163 172q0 83 27 154t87.5 119.5t145.5 48.5q76 0 110.5 -32t34.5 -78q0 -22 -6.5 -41.5t-27.5 -42t-53.5 -38.5
t-90.5 -26.5t-133 -10.5q-26 0 -62 3q-4 -24 -4 -57q0 -68 29.5 -108t107.5 -40q88 0 133 39.5t48 90.5h22q0 -7 -2 -21q-10 -62 -68 -97t-135 -35zM436 545l-112 102l-147 -103l-11 11l152 121h24l104 -120z" />
    <glyph glyph-name="edieresis" unicode="&#xeb;" horiz-adv-x="480" 
d="M294 463q-48 0 -88 -20.5t-65 -54t-41 -70t-22 -75.5q26 -3 62 -3q80 0 137.5 11.5t87 31.5t42.5 42t13 47q0 40 -31 65.5t-95 25.5zM205 -8q-163 0 -163 172q0 83 27 154t87.5 119.5t145.5 48.5q76 0 110.5 -32t34.5 -78q0 -22 -6.5 -41.5t-27.5 -42t-53.5 -38.5
t-90.5 -26.5t-133 -10.5q-26 0 -62 3q-4 -24 -4 -57q0 -68 29.5 -108t107.5 -40q88 0 133 39.5t48 90.5h22q0 -7 -2 -21q-10 -62 -68 -97t-135 -35zM242 616q19 0 19 -20q0 -11 -8 -19t-19 -8q-18 0 -18 19q0 11 7.5 19.5t18.5 8.5zM390 616q20 0 20 -21q0 -10 -8.5 -18
t-19.5 -8q-18 0 -18 19q0 11 8 19.5t18 8.5z" />
    <glyph glyph-name="igrave" unicode="&#xec;" horiz-adv-x="204" 
d="M49 0l84 478h26l-84 -478h-26zM175 566l-12 -11l-121 105l27 27z" />
    <glyph glyph-name="iacute" unicode="&#xed;" horiz-adv-x="204" 
d="M49 0l84 478h26l-84 -478h-26zM141 548l-11 11l122 131l27 -25z" />
    <glyph glyph-name="icircumflex" unicode="&#xee;" horiz-adv-x="204" 
d="M49 0l84 478h26l-84 -478h-26zM285 545l-112 102l-147 -103l-11 11l152 121h24l104 -120z" />
    <glyph glyph-name="idieresis" unicode="&#xef;" horiz-adv-x="204" 
d="M49 0l84 478h26l-84 -478h-26zM91 616q19 0 19 -20q0 -11 -8 -19t-19 -8q-18 0 -18 19q0 11 7.5 19.5t18.5 8.5zM239 616q20 0 20 -21q0 -10 -8.5 -18t-19.5 -8q-18 0 -18 19q0 11 8 19.5t18 8.5z" />
    <glyph glyph-name="eth" unicode="&#xf0;" horiz-adv-x="505" 
d="M210 -8q-167 0 -167 170q0 81 25.5 150t85.5 117t145 48q74 0 115.5 -45.5t41.5 -103.5h4q9 54 9 128q0 84 -22 143l-86 -56l-9 16l88 57q-37 78 -142 88l4 21q56 -1 98 -29t61 -66l82 52l9 -16l-83 -54q23 -59 23 -148q0 -29 -2 -61t-9 -80t-18 -91t-33 -88t-50.5 -77.5
t-72.5 -53.5t-97 -21zM295 454q-58 0 -103.5 -26.5t-71.5 -70t-39 -94.5t-13 -105q0 -72 36 -107.5t113 -35.5q94 0 157 77t63 204q0 71 -34.5 114.5t-107.5 43.5z" />
    <glyph glyph-name="ntilde" unicode="&#xf1;" horiz-adv-x="491" 
d="M18 0l84 478h21q0 -31 -13 -93h4q76 102 193 102q52 0 85 -18t44.5 -47.5t13.5 -67.5t-7 -77l-48 -277h-28l46 267q5 27 7 44.5t2.5 43t-6.5 42t-19.5 33t-37.5 24.5t-59 8q-82 0 -141 -62.5t-73 -147.5l-42 -252h-26zM360 600q37 0 70 43l19 -10q-34 -57 -90 -57
q-23 0 -61.5 19t-53.5 19q-32 0 -65 -44l-21 11q33 57 88 57q23 0 62 -19t52 -19z" />
    <glyph glyph-name="ograve" unicode="&#xf2;" horiz-adv-x="505" 
d="M298 486q86 0 125.5 -49.5t39.5 -131.5q0 -59 -14 -112.5t-42.5 -99.5t-78.5 -73.5t-116 -27.5q-169 0 -169 171q0 139 67 231t188 92zM296 463q-108 0 -167.5 -86t-59.5 -216q0 -146 148 -146q96 0 158 74.5t62 214.5q0 74 -35 116.5t-106 42.5zM356 566l-12 -11
l-121 105l27 27z" />
    <glyph glyph-name="oacute" unicode="&#xf3;" horiz-adv-x="505" 
d="M298 486q86 0 125.5 -49.5t39.5 -131.5q0 -59 -14 -112.5t-42.5 -99.5t-78.5 -73.5t-116 -27.5q-169 0 -169 171q0 139 67 231t188 92zM296 463q-108 0 -167.5 -86t-59.5 -216q0 -146 148 -146q96 0 158 74.5t62 214.5q0 74 -35 116.5t-106 42.5zM308 548l-11 11l122 131
l27 -25z" />
    <glyph glyph-name="ocircumflex" unicode="&#xf4;" horiz-adv-x="505" 
d="M298 486q86 0 125.5 -49.5t39.5 -131.5q0 -59 -14 -112.5t-42.5 -99.5t-78.5 -73.5t-116 -27.5q-169 0 -169 171q0 139 67 231t188 92zM296 463q-108 0 -167.5 -86t-59.5 -216q0 -146 148 -146q96 0 158 74.5t62 214.5q0 74 -35 116.5t-106 42.5zM443 545l-112 102
l-147 -103l-11 11l152 121h24l104 -120z" />
    <glyph glyph-name="otilde" unicode="&#xf5;" horiz-adv-x="505" 
d="M298 486q86 0 125.5 -49.5t39.5 -131.5q0 -59 -14 -112.5t-42.5 -99.5t-78.5 -73.5t-116 -27.5q-169 0 -169 171q0 139 67 231t188 92zM296 463q-108 0 -167.5 -86t-59.5 -216q0 -146 148 -146q96 0 158 74.5t62 214.5q0 74 -35 116.5t-106 42.5zM376 600q37 0 70 43
l19 -10q-34 -57 -90 -57q-23 0 -61.5 19t-53.5 19q-32 0 -65 -44l-21 11q33 57 88 57q23 0 62 -19t52 -19z" />
    <glyph glyph-name="odieresis" unicode="&#xf6;" horiz-adv-x="505" 
d="M298 486q86 0 125.5 -49.5t39.5 -131.5q0 -59 -14 -112.5t-42.5 -99.5t-78.5 -73.5t-116 -27.5q-169 0 -169 171q0 139 67 231t188 92zM296 463q-108 0 -167.5 -86t-59.5 -216q0 -146 148 -146q96 0 158 74.5t62 214.5q0 74 -35 116.5t-106 42.5zM250 616q19 0 19 -20
q0 -11 -8 -19t-19 -8q-18 0 -18 19q0 11 7.5 19.5t18.5 8.5zM398 616q20 0 20 -21q0 -10 -8.5 -18t-19.5 -8q-18 0 -18 19q0 11 8 19.5t18 8.5z" />
    <glyph glyph-name="divide" unicode="&#xf7;" horiz-adv-x="555" 
d="M460 248h-360l5 28h360zM320 446q13 0 21.5 -9t8.5 -22q0 -17 -13.5 -30t-29.5 -13q-13 0 -21.5 8.5t-8.5 21.5q0 17 13 30.5t30 13.5zM267 142q13 0 21.5 -8.5t8.5 -21.5q0 -17 -13.5 -30.5t-30.5 -13.5q-13 0 -21.5 8.5t-8.5 21.5q0 17 14 30.5t30 13.5z" />
    <glyph glyph-name="oslash" unicode="&#xf8;" horiz-adv-x="505" 
d="M298 486q88 0 130 -55l56 57l17 -15l-61 -61q23 -43 23 -107q0 -59 -14 -112.5t-42.5 -99.5t-78.5 -73.5t-116 -27.5q-94 0 -136 53l-53 -54l-15 13l57 58q-22 40 -22 101q0 139 67 231t188 92zM437 304q0 50 -17 87l-326 -328q36 -48 123 -48q96 0 158 74.5t62 214.5z
M296 463q-108 0 -167.5 -86t-59.5 -216q0 -49 15 -80l325 330q-36 52 -113 52z" />
    <glyph glyph-name="ugrave" unicode="&#xf9;" horiz-adv-x="481" 
d="M467 478l-84 -478h-20q-3 1 -1.5 16.5t1.5 19t3.5 23t4.5 26.5h-4q-70 -93 -177 -93q-55 0 -88.5 17.5t-45 46.5t-13 68t8.5 82l48 272h27l-48 -272q-7 -50 -7.5 -92t30.5 -69.5t95 -27.5q76 0 129 55t67 133l48 273h26zM341 566l-12 -11l-121 105l27 27z" />
    <glyph glyph-name="uacute" unicode="&#xfa;" horiz-adv-x="481" 
d="M467 478l-84 -478h-20q-3 1 -1.5 16.5t1.5 19t3.5 23t4.5 26.5h-4q-70 -93 -177 -93q-55 0 -88.5 17.5t-45 46.5t-13 68t8.5 82l48 272h27l-48 -272q-7 -50 -7.5 -92t30.5 -69.5t95 -27.5q76 0 129 55t67 133l48 273h26zM270 548l-11 11l122 131l27 -25z" />
    <glyph glyph-name="ucircumflex" unicode="&#xfb;" horiz-adv-x="481" 
d="M467 478l-84 -478h-20q-3 1 -1.5 16.5t1.5 19t3.5 23t4.5 26.5h-4q-70 -93 -177 -93q-55 0 -88.5 17.5t-45 46.5t-13 68t8.5 82l48 272h27l-48 -272q-7 -50 -7.5 -92t30.5 -69.5t95 -27.5q76 0 129 55t67 133l48 273h26zM425 545l-112 102l-147 -103l-11 11l152 121h24
l104 -120z" />
    <glyph glyph-name="udieresis" unicode="&#xfc;" horiz-adv-x="481" 
d="M467 478l-84 -478h-20q-3 1 -1.5 16.5t1.5 19t3.5 23t4.5 26.5h-4q-70 -93 -177 -93q-55 0 -88.5 17.5t-45 46.5t-13 68t8.5 82l48 272h27l-48 -272q-7 -50 -7.5 -92t30.5 -69.5t95 -27.5q76 0 129 55t67 133l48 273h26zM231 616q19 0 19 -20q0 -11 -8 -19t-19 -8
q-18 0 -18 19q0 11 7.5 19.5t18.5 8.5zM379 616q20 0 20 -21q0 -10 -8.5 -18t-19.5 -8q-18 0 -18 19q0 11 8 19.5t18 8.5z" />
    <glyph glyph-name="yacute" unicode="&#xfd;" horiz-adv-x="396" 
d="M87 -197h-30l100 195l-13 -2l-99 481h28l51 -248q5 -23 14 -63.5t16 -75t12 -67.5h4l134 262q32 60 43.5 99t18.5 93h27q-7 -60 -21 -103.5t-48 -109.5zM210 539l-11 11l122 131l27 -25z" />
    <glyph glyph-name="thorn" unicode="&#xfe;" horiz-adv-x="498" 
d="M224 15q101 0 157.5 84.5t56.5 213.5q0 72 -38.5 111.5t-105.5 39.5q-91 0 -151.5 -81t-62.5 -203q-2 -76 35 -120.5t109 -44.5zM-17 -197l161 908h25l-61 -329h4q65 104 187 104q83 0 123.5 -47t40.5 -123q0 -137 -62.5 -230t-181.5 -93q-64 0 -103.5 34t-50.5 74h-4
l-53 -298h-25z" />
    <glyph glyph-name="ydieresis" unicode="&#xff;" horiz-adv-x="396" 
d="M87 -197h-30l100 195l-13 -2l-99 481h28l51 -248q5 -23 14 -63.5t16 -75t12 -67.5h4l134 262q32 60 43.5 99t18.5 93h27q-7 -60 -21 -103.5t-48 -109.5zM157 612q19 0 19 -20q0 -11 -8 -19t-19 -8q-18 0 -18 19q0 11 7.5 19.5t18.5 8.5zM305 612q20 0 20 -21
q0 -10 -8.5 -18t-19.5 -8q-18 0 -18 19q0 11 8 19.5t18 8.5z" />
    <glyph glyph-name="Amacron" unicode="&#x100;" horiz-adv-x="549" 
d="M470 0l-37 187h-333l-101 -187h-29l365 674h32l132 -674h-29zM349 637h-6q-68 -130 -102 -192l-128 -232h318l-47 232q-6 32 -17 96t-18 96zM228 761l5 29h271l-5 -29h-271z" />
    <glyph glyph-name="amacron" unicode="&#x101;" horiz-adv-x="500" 
d="M208 16q85 0 139 66t72 168q39 213 -129 213q-99 0 -160 -86t-61 -222q0 -139 139 -139zM485 478l-84 -478h-20q-4 29 10 93h-4q-71 -101 -186 -101q-84 0 -122 44t-38 118q0 141 66.5 236.5t184.5 95.5q117 0 149 -86h4q11 60 20 78h20zM196 574l4 26h271l-4 -26h-271z
" />
    <glyph glyph-name="Abreve" unicode="&#x102;" horiz-adv-x="549" 
d="M470 0l-37 187h-333l-101 -187h-29l365 674h32l132 -674h-29zM349 637h-6q-68 -130 -102 -192l-128 -232h318l-47 232q-6 32 -17 96t-18 96zM360 729q-64 0 -90 39t-18 86h24q-7 -36 14 -67t76 -31q53 0 83.5 31.5t36.5 66.5h22q-9 -48 -47.5 -86.5t-100.5 -38.5z" />
    <glyph glyph-name="abreve" unicode="&#x103;" horiz-adv-x="500" 
d="M208 16q85 0 139 66t72 168q39 213 -129 213q-99 0 -160 -86t-61 -222q0 -139 139 -139zM485 478l-84 -478h-20q-4 29 10 93h-4q-71 -101 -186 -101q-84 0 -122 44t-38 118q0 141 66.5 236.5t184.5 95.5q117 0 149 -86h4q11 60 20 78h20zM322 556q-63 0 -89.5 42
t-18.5 90h24q-7 -37 13.5 -71t75.5 -34q52 0 85.5 35t39.5 70h24q-9 -48 -50.5 -90t-103.5 -42z" />
    <glyph glyph-name="Aogonek" unicode="&#x104;" horiz-adv-x="549" 
d="M499 0h-23q-86 -71 -86 -133q0 -41 56 -41q38 0 72 12l2 -13q-47 -21 -91 -21q-69 0 -69 52q0 31 26.5 73.5t81.5 79.5l-35 178h-333l-101 -187h-29l365 674h32zM349 637h-6q-68 -130 -102 -192l-128 -232h318l-47 232q-6 32 -17 96t-18 96z" />
    <glyph glyph-name="aogonek" unicode="&#x105;" horiz-adv-x="500" 
d="M485 478l-84 -478h-16q-86 -71 -86 -133q0 -41 56 -41q37 0 72 12l2 -13q-47 -21 -91 -21q-69 0 -69 52q0 31 27.5 74t83.5 81q0 29 11 82h-4q-71 -101 -186 -101q-84 0 -122 44t-38 118q0 141 66.5 236.5t184.5 95.5q117 0 149 -86h4q11 60 20 78h20zM208 16
q85 0 139 66t72 168q39 213 -129 213q-99 0 -160 -86t-61 -222q0 -139 139 -139z" />
    <glyph glyph-name="Cacute" unicode="&#x106;" horiz-adv-x="564" 
d="M367 729l-7 13l146 99l18 -31zM279 18q101 0 158 51t67 120h25q-1 -9 -5 -27q-21 -80 -88 -124t-161 -44q-214 0 -214 229q0 83 19 161t57 146t104.5 109.5t152.5 41.5q77 0 129 -37t52 -104q0 -21 -5 -39h-23q2 18 2 27q0 55 -38.5 91.5t-125.5 36.5q-78 0 -138.5 -42.5
t-93.5 -110t-49 -138.5t-16 -140q0 -207 191 -207z" />
    <glyph glyph-name="cacute" unicode="&#x107;" horiz-adv-x="458" 
d="M211 -8q-169 0 -169 166q0 141 63.5 234.5t186.5 93.5q65 0 105.5 -29t40.5 -82q0 -13 -3 -30h-22q1 7 1 20q0 98 -128 98q-101 0 -159 -89t-58 -218q0 -76 36.5 -108.5t107.5 -32.5q83 0 126 40t49 90h21q0 -12 -3 -24q-13 -63 -69 -96t-126 -33zM277 548l-11 11
l122 131l27 -25z" />
    <glyph glyph-name="Ccircumflex" unicode="&#x108;" horiz-adv-x="564" 
d="M279 18q101 0 158 51t67 120h25q-1 -9 -5 -27q-21 -80 -88 -124t-161 -44q-214 0 -214 229q0 83 19 161t57 146t104.5 109.5t152.5 41.5q77 0 129 -37t52 -104q0 -21 -5 -39h-23q2 18 2 27q0 55 -38.5 91.5t-125.5 36.5q-78 0 -138.5 -42.5t-93.5 -110t-49 -138.5
t-16 -140q0 -207 191 -207zM531 728l-114 83l-144 -84l-9 13l148 101h24l108 -100z" />
    <glyph glyph-name="ccircumflex" unicode="&#x109;" horiz-adv-x="458" 
d="M211 -8q-169 0 -169 166q0 141 63.5 234.5t186.5 93.5q65 0 105.5 -29t40.5 -82q0 -13 -3 -30h-22q1 7 1 20q0 98 -128 98q-101 0 -159 -89t-58 -218q0 -76 36.5 -108.5t107.5 -32.5q83 0 126 40t49 90h21q0 -12 -3 -24q-13 -63 -69 -96t-126 -33zM436 545l-112 102
l-147 -103l-11 11l152 121h24l104 -120z" />
    <glyph glyph-name="Cdotaccent" unicode="&#x10a;" horiz-adv-x="564" 
d="M414 795q22 0 22 -23q0 -13 -10 -23t-22 -10q-23 0 -23 22q0 14 9.5 24t23.5 10zM279 18q101 0 158 51t67 120h25q-1 -9 -5 -27q-21 -80 -88 -124t-161 -44q-214 0 -214 229q0 83 19 161t57 146t104.5 109.5t152.5 41.5q77 0 129 -37t52 -104q0 -21 -5 -39h-23q2 18 2 27
q0 55 -38.5 91.5t-125.5 36.5q-78 0 -138.5 -42.5t-93.5 -110t-49 -138.5t-16 -140q0 -207 191 -207z" />
    <glyph glyph-name="cdotaccent" unicode="&#x10b;" horiz-adv-x="458" 
d="M211 -8q-169 0 -169 166q0 141 63.5 234.5t186.5 93.5q65 0 105.5 -29t40.5 -82q0 -13 -3 -30h-22q1 7 1 20q0 98 -128 98q-101 0 -159 -89t-58 -218q0 -76 36.5 -108.5t107.5 -32.5q83 0 126 40t49 90h21q0 -12 -3 -24q-13 -63 -69 -96t-126 -33zM316 625q22 0 22 -23
q0 -13 -10 -23t-22 -10q-23 0 -23 22q0 14 9.5 24t23.5 10z" />
    <glyph glyph-name="Ccaron" unicode="&#x10c;" horiz-adv-x="564" 
d="M402 756l143 83l9 -13l-143 -100h-24l-113 101q4 3 14 13zM279 18q101 0 158 51t67 120h25q-1 -9 -5 -27q-21 -80 -88 -124t-161 -44q-214 0 -214 229q0 83 19 161t57 146t104.5 109.5t152.5 41.5q77 0 129 -37t52 -104q0 -21 -5 -39h-23q2 18 2 27q0 55 -38.5 91.5
t-125.5 36.5q-78 0 -138.5 -42.5t-93.5 -110t-49 -138.5t-16 -140q0 -207 191 -207z" />
    <glyph glyph-name="ccaron" unicode="&#x10d;" horiz-adv-x="458" 
d="M211 -8q-169 0 -169 166q0 141 63.5 234.5t186.5 93.5q65 0 105.5 -29t40.5 -82q0 -13 -3 -30h-22q1 7 1 20q0 98 -128 98q-101 0 -159 -89t-58 -218q0 -76 36.5 -108.5t107.5 -32.5q83 0 126 40t49 90h21q0 -12 -3 -24q-13 -63 -69 -96t-126 -33zM308 580l147 101l9 -11
l-147 -120h-24l-109 121l13 11z" />
    <glyph glyph-name="Dcaron" unicode="&#x10e;" horiz-adv-x="600" 
d="M54 25h146q47 0 93.5 12.5t92 42t80.5 71.5t56.5 106t21.5 142q0 58 -16 103t-41.5 72t-59.5 44.5t-66 24t-65 6.5h-132zM23 0l118 673h162q50 0 95.5 -15t85.5 -46.5t63.5 -87.5t23.5 -130q0 -173 -105.5 -283.5t-268.5 -110.5h-174zM353 756l143 83l9 -13l-143 -100
h-24l-113 101q4 3 14 13z" />
    <glyph glyph-name="dcaron" unicode="&#x10f;" horiz-adv-x="590" 
d="M628 725q29 0 29 -25q0 -12 -10 -27l-71 -113l-11 4l50 96q-24 4 -24 26q0 16 11.5 27.5t25.5 11.5zM284 462q-101 0 -158.5 -88t-57.5 -218q0 -142 142 -142q84 0 138 63t70 169q14 92 -19 154t-115 62zM526 710l-125 -710h-20q-1 4 -1 14q0 17 9 71h-4
q-69 -93 -180 -93q-164 0 -164 166q0 60 14.5 117t43.5 105t77.5 77t110.5 29q63 0 101.5 -35t47.5 -77h4l60 336h26z" />
    <glyph glyph-name="Dcroat" unicode="&#x110;" horiz-adv-x="600" 
d="M87 363l54 310h162q50 0 95.5 -15t85.5 -46.5t63.5 -87.5t23.5 -130q0 -173 -105.5 -283.5t-268.5 -110.5h-174l59 338h-63l5 25h63zM54 25h146q47 0 93.5 12.5t92 42t80.5 71.5t56.5 106t21.5 142q0 58 -16 103t-41.5 72t-59.5 44.5t-66 24t-65 6.5h-132l-51 -286h262
l-5 -25h-261z" />
    <glyph glyph-name="dcroat" unicode="&#x111;" horiz-adv-x="500" 
d="M504 584l-103 -584h-20q-1 4 -1 14q0 17 9 71h-4q-69 -93 -180 -93q-164 0 -164 166q0 60 14.5 117t43.5 105t77.5 77t110.5 29q63 0 101.5 -35t47.5 -77h4l37 210h-172l4 22h172l19 104h26l-18 -104h58l-4 -22h-58zM284 462q-101 0 -158.5 -88t-57.5 -218
q0 -142 142 -142q84 0 138 63t70 169q14 92 -19 154t-115 62z" />
    <glyph glyph-name="Emacron" unicode="&#x112;" horiz-adv-x="503" 
d="M23 0l118 674h392l-4 -25h-365l-49 -276h343l-4 -25h-343l-57 -323h397l-4 -25h-424zM223 761l5 29h271l-5 -29h-271z" />
    <glyph glyph-name="emacron" unicode="&#x113;" horiz-adv-x="480" 
d="M294 463q-48 0 -88 -20.5t-65 -54t-41 -70t-22 -75.5q26 -3 62 -3q80 0 137.5 11.5t87 31.5t42.5 42t13 47q0 40 -31 65.5t-95 25.5zM205 -8q-163 0 -163 172q0 83 27 154t87.5 119.5t145.5 48.5q76 0 110.5 -32t34.5 -78q0 -22 -6.5 -41.5t-27.5 -42t-53.5 -38.5
t-90.5 -26.5t-133 -10.5q-26 0 -62 3q-4 -24 -4 -57q0 -68 29.5 -108t107.5 -40q88 0 133 39.5t48 90.5h22q0 -7 -2 -21q-10 -62 -68 -97t-135 -35zM179 574l4 26h271l-4 -26h-271z" />
    <glyph glyph-name="Ebreve" unicode="&#x114;" horiz-adv-x="503" 
d="M23 0l118 674h392l-4 -25h-365l-49 -276h343l-4 -25h-343l-57 -323h397l-4 -25h-424zM356 729q-64 0 -90 39t-18 86h24q-7 -36 14 -67t76 -31q53 0 83.5 31.5t36.5 66.5h22q-9 -48 -47.5 -86.5t-100.5 -38.5z" />
    <glyph glyph-name="ebreve" unicode="&#x115;" horiz-adv-x="480" 
d="M294 463q-48 0 -88 -20.5t-65 -54t-41 -70t-22 -75.5q26 -3 62 -3q80 0 137.5 11.5t87 31.5t42.5 42t13 47q0 40 -31 65.5t-95 25.5zM205 -8q-163 0 -163 172q0 83 27 154t87.5 119.5t145.5 48.5q76 0 110.5 -32t34.5 -78q0 -22 -6.5 -41.5t-27.5 -42t-53.5 -38.5
t-90.5 -26.5t-133 -10.5q-26 0 -62 3q-4 -24 -4 -57q0 -68 29.5 -108t107.5 -40q88 0 133 39.5t48 90.5h22q0 -7 -2 -21q-10 -62 -68 -97t-135 -35zM292 553q-63 0 -89.5 42t-18.5 90h24q-7 -37 13.5 -71t75.5 -34q52 0 85.5 35t39.5 70h24q-9 -48 -50.5 -90t-103.5 -42z
" />
    <glyph glyph-name="Edotaccent" unicode="&#x116;" horiz-adv-x="503" 
d="M23 0l118 674h392l-4 -25h-365l-49 -276h343l-4 -25h-343l-57 -323h397l-4 -25h-424zM354 795q22 0 22 -23q0 -13 -10 -23t-22 -10q-23 0 -23 22q0 14 9.5 24t23.5 10z" />
    <glyph glyph-name="edotaccent" unicode="&#x117;" horiz-adv-x="480" 
d="M294 463q-48 0 -88 -20.5t-65 -54t-41 -70t-22 -75.5q26 -3 62 -3q80 0 137.5 11.5t87 31.5t42.5 42t13 47q0 40 -31 65.5t-95 25.5zM205 -8q-163 0 -163 172q0 83 27 154t87.5 119.5t145.5 48.5q76 0 110.5 -32t34.5 -78q0 -22 -6.5 -41.5t-27.5 -42t-53.5 -38.5
t-90.5 -26.5t-133 -10.5q-26 0 -62 3q-4 -24 -4 -57q0 -68 29.5 -108t107.5 -40q88 0 133 39.5t48 90.5h22q0 -7 -2 -21q-10 -62 -68 -97t-135 -35zM317 625q22 0 22 -23q0 -13 -10 -23t-22 -10q-23 0 -23 22q0 14 9.5 24t23.5 10z" />
    <glyph glyph-name="Eogonek" unicode="&#x118;" horiz-adv-x="503" 
d="M23 0l118 674h392l-4 -25h-365l-49 -276h343l-4 -25h-343l-57 -323h398l-4 -25h-45q-91 -74 -91 -136q0 -42 56 -42q38 0 72 12l2 -13q-45 -21 -90 -21q-70 0 -70 51q0 29 25.5 70.5t76.5 78.5h-361z" />
    <glyph glyph-name="eogonek" unicode="&#x119;" horiz-adv-x="480" 
d="M205 -8q-163 0 -163 172q0 83 27 154t87.5 119.5t145.5 48.5q76 0 110.5 -32t34.5 -78q0 -22 -6.5 -41.5t-27.5 -42t-53.5 -38.5t-90.5 -26.5t-133 -10.5q-26 0 -62 3q-4 -24 -4 -57q0 -68 29.5 -108t107.5 -40q88 0 133 39.5t48 90.5h22q0 -7 -2 -21q-13 -75 -96 -112
q-81 -69 -81 -128q0 -41 56 -41q37 0 72 12l2 -13q-47 -21 -91 -21q-69 0 -69 52q0 25 19 60t57 68q-35 -9 -72 -9zM294 463q-48 0 -88 -20.5t-65 -54t-41 -70t-22 -75.5q26 -3 62 -3q80 0 137.5 11.5t87 31.5t42.5 42t13 47q0 40 -31 65.5t-95 25.5z" />
    <glyph glyph-name="Ecaron" unicode="&#x11a;" horiz-adv-x="503" 
d="M23 0l118 674h392l-4 -25h-365l-49 -276h343l-4 -25h-343l-57 -323h397l-4 -25h-424zM357 756l143 83l9 -13l-143 -100h-24l-113 101q4 3 14 13z" />
    <glyph glyph-name="ecaron" unicode="&#x11b;" horiz-adv-x="480" 
d="M294 463q-48 0 -88 -20.5t-65 -54t-41 -70t-22 -75.5q26 -3 62 -3q80 0 137.5 11.5t87 31.5t42.5 42t13 47q0 40 -31 65.5t-95 25.5zM205 -8q-163 0 -163 172q0 83 27 154t87.5 119.5t145.5 48.5q76 0 110.5 -32t34.5 -78q0 -22 -6.5 -41.5t-27.5 -42t-53.5 -38.5
t-90.5 -26.5t-133 -10.5q-26 0 -62 3q-4 -24 -4 -57q0 -68 29.5 -108t107.5 -40q88 0 133 39.5t48 90.5h22q0 -7 -2 -21q-10 -62 -68 -97t-135 -35zM308 580l147 101l9 -11l-147 -120h-24l-109 121l13 11z" />
    <glyph glyph-name="Gcircumflex" unicode="&#x11c;" horiz-adv-x="609" 
d="M355 320l4 25h215l-17 -110q-19 -109 -88 -175t-187 -66q-113 0 -166.5 62t-53.5 174q0 61 11 121.5t37.5 120.5t64.5 106t96.5 74.5t129.5 28.5q76 0 132 -36.5t56 -108.5q0 -17 -3 -35h-23q2 18 2 28q0 56 -41 92t-132 36q-75 0 -135.5 -39.5t-96 -103t-54 -137.5
t-18.5 -150q0 -210 197 -210q206 0 247 222l13 81h-190zM530 728l-114 83l-144 -84l-9 13l148 101h24l108 -100z" />
    <glyph glyph-name="gcircumflex" unicode="&#x11d;" horiz-adv-x="521" 
d="M174 -181q81 0 134 44.5t74 149.5q18 90 25 112h-4q-74 -132 -196 -132q-77 0 -115.5 45.5t-38.5 125.5q0 60 15 116t44 103t77.5 75.5t110.5 28.5q118 0 151 -99h4q14 73 24 91h20l-94 -480q-20 -102 -76.5 -152.5t-160.5 -50.5q-68 0 -113 27t-45 78q0 5 3 21h22
q-1 -7 -1 -11q0 -89 140 -92zM210 15q78 0 141.5 75.5t80.5 183.5q7 34 2 68t-17.5 61.5t-42 44.5t-71.5 17q-101 0 -161.5 -84t-60.5 -215q0 -71 31.5 -111t97.5 -40zM437 545l-112 102l-147 -103l-11 11l152 121h24l104 -120z" />
    <glyph glyph-name="Gbreve" unicode="&#x11e;" horiz-adv-x="609" 
d="M355 320l4 25h215l-17 -110q-19 -109 -88 -175t-187 -66q-113 0 -166.5 62t-53.5 174q0 61 11 121.5t37.5 120.5t64.5 106t96.5 74.5t129.5 28.5q76 0 132 -36.5t56 -108.5q0 -17 -3 -35h-23q2 18 2 28q0 56 -41 92t-132 36q-75 0 -135.5 -39.5t-96 -103t-54 -137.5
t-18.5 -150q0 -210 197 -210q206 0 247 222l13 81h-190zM400 729q-64 0 -90 39t-18 86h24q-7 -36 14 -67t76 -31q53 0 83.5 31.5t36.5 66.5h22q-9 -48 -47.5 -86.5t-100.5 -38.5z" />
    <glyph glyph-name="gbreve" unicode="&#x11f;" horiz-adv-x="521" 
d="M174 -181q81 0 134 44.5t74 149.5q18 90 25 112h-4q-74 -132 -196 -132q-77 0 -115.5 45.5t-38.5 125.5q0 60 15 116t44 103t77.5 75.5t110.5 28.5q118 0 151 -99h4q14 73 24 91h20l-94 -480q-20 -102 -76.5 -152.5t-160.5 -50.5q-68 0 -113 27t-45 78q0 5 3 21h22
q-1 -7 -1 -11q0 -89 140 -92zM210 15q78 0 141.5 75.5t80.5 183.5q7 34 2 68t-17.5 61.5t-42 44.5t-71.5 17q-101 0 -161.5 -84t-60.5 -215q0 -71 31.5 -111t97.5 -40zM312 553q-63 0 -89.5 42t-18.5 90h24q-7 -37 13.5 -71t75.5 -34q52 0 85.5 35t39.5 70h24
q-9 -48 -50.5 -90t-103.5 -42z" />
    <glyph glyph-name="Gdotaccent" unicode="&#x120;" horiz-adv-x="609" 
d="M355 320l4 25h215l-17 -110q-19 -109 -88 -175t-187 -66q-113 0 -166.5 62t-53.5 174q0 61 11 121.5t37.5 120.5t64.5 106t96.5 74.5t129.5 28.5q76 0 132 -36.5t56 -108.5q0 -17 -3 -35h-23q2 18 2 28q0 56 -41 92t-132 36q-75 0 -135.5 -39.5t-96 -103t-54 -137.5
t-18.5 -150q0 -210 197 -210q206 0 247 222l13 81h-190zM422 795q22 0 22 -23q0 -13 -10 -23t-22 -10q-23 0 -23 22q0 14 9.5 24t23.5 10z" />
    <glyph glyph-name="gdotaccent" unicode="&#x121;" horiz-adv-x="521" 
d="M174 -181q81 0 134 44.5t74 149.5q18 90 25 112h-4q-74 -132 -196 -132q-77 0 -115.5 45.5t-38.5 125.5q0 60 15 116t44 103t77.5 75.5t110.5 28.5q118 0 151 -99h4q14 73 24 91h20l-94 -480q-20 -102 -76.5 -152.5t-160.5 -50.5q-68 0 -113 27t-45 78q0 5 3 21h22
q-1 -7 -1 -11q0 -89 140 -92zM210 15q78 0 141.5 75.5t80.5 183.5q7 34 2 68t-17.5 61.5t-42 44.5t-71.5 17q-101 0 -161.5 -84t-60.5 -215q0 -71 31.5 -111t97.5 -40zM344 625q22 0 22 -23q0 -13 -10 -23t-22 -10q-23 0 -23 22q0 14 9.5 24t23.5 10z" />
    <glyph glyph-name="Gcommaaccent" unicode="&#x122;" horiz-adv-x="609" 
d="M355 320l4 25h215l-17 -110q-19 -109 -88 -175t-187 -66q-113 0 -166.5 62t-53.5 174q0 61 11 121.5t37.5 120.5t64.5 106t96.5 74.5t129.5 28.5q76 0 132 -36.5t56 -108.5q0 -17 -3 -35h-23q2 18 2 28q0 56 -41 92t-132 36q-75 0 -135.5 -39.5t-96 -103t-54 -137.5
t-18.5 -150q0 -210 197 -210q206 0 247 222l13 81h-190zM271 -47q29 0 29 -25q0 -12 -10 -27l-71 -113l-11 4l50 96q-24 4 -24 26q0 16 11.5 27.5t25.5 11.5z" />
    <glyph glyph-name="gcommaaccent" unicode="&#x123;" horiz-adv-x="521" 
d="M332 554q-26 0 -26 24v4.5t2 9t6 12.5l69 108l11 -3l-50 -92q24 -5 24 -25q0 -16 -11 -27t-25 -11zM174 -181q81 0 134 44.5t74 149.5q18 90 25 112h-4q-74 -132 -196 -132q-77 0 -115.5 45.5t-38.5 125.5q0 60 15 116t44 103t77.5 75.5t110.5 28.5q118 0 151 -99h4
q14 73 24 91h20l-94 -480q-20 -102 -76.5 -152.5t-160.5 -50.5q-68 0 -113 27t-45 78q0 5 3 21h22q-1 -7 -1 -11q0 -89 140 -92zM210 15q78 0 141.5 75.5t80.5 183.5q7 34 2 68t-17.5 61.5t-42 44.5t-71.5 17q-101 0 -161.5 -84t-60.5 -215q0 -71 31.5 -111t97.5 -40z" />
    <glyph glyph-name="Hcircumflex" unicode="&#x124;" horiz-adv-x="609" 
d="M478 0l60 344h-429l-60 -344h-26l119 675h26l-54 -306h429l54 306h28l-119 -675h-28zM519 728l-114 83l-144 -84l-9 13l148 101h24l108 -100z" />
    <glyph glyph-name="hcircumflex" unicode="&#x125;" horiz-adv-x="491" 
d="M106 375h4q28 50 80.5 80.5t112.5 30.5q67 0 103 -28.5t40 -74.5t-4 -105l-47 -278h-28l45 256q6 35 8.5 59.5t-1 54t-15.5 48t-39.5 31t-68.5 12.5q-83 0 -138.5 -62t-69.5 -143l-44 -256h-26l125 710h26l-41 -230q-8 -46 -22 -105zM281 728l-114 83l-144 -84l-9 13
l148 101h24l108 -100z" />
    <glyph glyph-name="Hbar" unicode="&#x126;" horiz-adv-x="609" 
d="M478 0l60 344h-429l-60 -344h-26l95 542h-51l4 24h51l20 109h26l-20 -109h429l20 109h28l-20 -109h47l-4 -24h-47l-95 -542h-28zM114 369h429l30 173h-429z" />
    <glyph glyph-name="hbar" unicode="&#x127;" horiz-adv-x="491" 
d="M106 375h4q28 50 80.5 80.5t112.5 30.5q67 0 103 -28.5t40 -74.5t-4 -105l-47 -278h-28l45 256q6 35 8.5 59.5t-1 54t-15.5 48t-39.5 31t-68.5 12.5q-83 0 -138.5 -62t-69.5 -143l-44 -256h-26l102 583h-46l5 24h46l18 103h26l-18 -103h253l-5 -24h-253l-18 -103
q-8 -46 -22 -105z" />
    <glyph glyph-name="Itilde" unicode="&#x128;" horiz-adv-x="191" 
d="M42 0l118 674h27l-118 -674h-27zM248 770q37 0 70 43l19 -10q-34 -57 -90 -57q-23 0 -61.5 19t-53.5 19q-32 0 -65 -44l-21 11q33 57 88 57q23 0 62 -19t52 -19z" />
    <glyph glyph-name="itilde" unicode="&#x129;" horiz-adv-x="204" 
d="M49 0l84 478h26l-84 -478h-26zM223 600q37 0 70 43l19 -10q-34 -57 -90 -57q-23 0 -61.5 19t-53.5 19q-32 0 -65 -44l-21 11q33 57 88 57q23 0 62 -19t52 -19z" />
    <glyph glyph-name="Imacron" unicode="&#x12a;" horiz-adv-x="191" 
d="M42 0l118 674h27l-118 -674h-27zM47 761l5 29h271l-5 -29h-271z" />
    <glyph glyph-name="imacron" unicode="&#x12b;" horiz-adv-x="204" 
d="M49 0l84 478h26l-84 -478h-26zM25 574l4 26h271l-4 -26h-271z" />
    <glyph glyph-name="Ibreve" unicode="&#x12c;" horiz-adv-x="271" 
d="M207 729q-64 0 -90 39t-18 86h24q-7 -36 14 -67t76 -31q53 0 83.5 31.5t36.5 66.5h22q-9 -48 -47.5 -86.5t-100.5 -38.5zM64 0l118 674h27l-118 -674h-27z" />
    <glyph glyph-name="ibreve" unicode="&#x12d;" horiz-adv-x="204" 
d="M49 0l84 478h26l-84 -478h-26zM154 553q-63 0 -89.5 42t-18.5 90h24q-7 -37 13.5 -71t75.5 -34q52 0 85.5 35t39.5 70h24q-9 -48 -50.5 -90t-103.5 -42z" />
    <glyph glyph-name="Iogonek" unicode="&#x12e;" horiz-adv-x="191" 
d="M17 -175q36 0 72 12l1 -13q-45 -21 -89 -21q-69 0 -69 52q0 31 27.5 74.5t83.5 81.5l117 663h27l-118 -674h-21q-87 -72 -87 -132q0 -43 56 -43z" />
    <glyph glyph-name="iogonek" unicode="&#x12f;" horiz-adv-x="204" 
d="M27 -177q36 0 72 12l2 -13q-47 -21 -91 -21q-68 0 -68 51q0 31 26.5 74t81.5 80l83 472h26l-84 -478h-14q-89 -72 -89 -136q0 -41 55 -41zM180 674q20 0 20 -19q0 -14 -8.5 -22t-19.5 -8q-21 0 -21 18q0 14 8 22.5t21 8.5z" />
    <glyph glyph-name="Idotaccent" unicode="&#x130;" horiz-adv-x="191" 
d="M42 0l118 674h27l-118 -674h-27zM196 795q22 0 22 -23q0 -13 -10 -23t-22 -10q-23 0 -23 22q0 14 9.5 24t23.5 10z" />
    <glyph glyph-name="dotlessi" unicode="&#x131;" horiz-adv-x="204" 
d="M49 0l84 478h26l-84 -478h-26z" />
    <glyph glyph-name="IJ" unicode="&#x132;" horiz-adv-x="660" 
d="M42 0l118 674h27l-118 -674h-27zM337 19q191 0 225 195l81 460h27l-82 -466q-38 -214 -255 -214q-85 0 -134.5 35.5t-49.5 101.5q0 30 6 48h24q-4 -17 -4 -39q0 -54 38 -87.5t124 -33.5z" />
    <glyph glyph-name="ij" unicode="&#x133;" horiz-adv-x="295" 
d="M25 0l84 478h26l-84 -478h-26zM157 675q8 0 13.5 -6t5.5 -14q0 -12 -8.5 -21t-19.5 -9q-20 0 -20 21q0 12 9 20.5t20 8.5zM254 478h25l-100 -569q-10 -57 -30.5 -83t-71.5 -26q-11 0 -17 1l3 23q47 0 64.5 18.5t26.5 67.5zM301 675q8 0 13.5 -6t5.5 -14q0 -12 -8.5 -21
t-19.5 -9q-20 0 -20 21q0 12 9 20.5t20 8.5z" />
    <glyph glyph-name="Jcircumflex" unicode="&#x134;" horiz-adv-x="516" 
d="M193 20q191 0 225 195l81 460h27l-82 -466q-38 -214 -255 -214q-85 0 -134.5 35.5t-49.5 101.5q0 30 6 48h24q-4 -17 -4 -39q0 -54 38 -87.5t124 -33.5zM647 730l-114 83l-144 -84l-9 13l148 101h24l108 -100z" />
    <glyph glyph-name="jcircumflex" unicode="&#x135;" horiz-adv-x="204" 
d="M136 478h25l-100 -569q-10 -57 -30.5 -83t-71.5 -26q-11 0 -17 1l3 23q47 0 64.5 18.5t26.5 67.5zM287 545l-112 102l-147 -103l-11 11l152 121h24l104 -120z" />
    <glyph glyph-name="Kcommaaccent" unicode="&#x136;" horiz-adv-x="505" 
d="M167 674l-53 -305h129l288 305h34l-298 -316l189 -358h-31l-181 344h-135l-60 -344h-26l118 674h26zM203 -24q29 0 29 -25q0 -12 -10 -27l-71 -113l-11 4l50 96q-24 4 -24 26q0 16 11.5 27.5t25.5 11.5z" />
    <glyph glyph-name="kcommaaccent" unicode="&#x137;" horiz-adv-x="418" 
d="M411 478h32l-215 -217l140 -261h-28l-133 248h-120l-43 -248h-26l125 711h26l-77 -438h116zM162 -33q29 0 29 -25q0 -12 -10 -27l-71 -113l-11 4l50 96q-24 4 -24 26q0 16 11.5 27.5t25.5 11.5z" />
    <glyph glyph-name="kgreenlandic" unicode="&#x138;" horiz-adv-x="418" 
d="M410 478h33l-215 -218l140 -260h-30l-132 247h-119l-43 -247h-26l84 478h26l-36 -205h115z" />
    <glyph glyph-name="Lacute" unicode="&#x139;" horiz-adv-x="496" 
d="M23 0l118 674h27l-114 -649h396l-4 -25h-423zM155 729l-7 13l146 99l18 -31z" />
    <glyph glyph-name="lacute" unicode="&#x13a;" horiz-adv-x="194" 
d="M165 710h25l-114 -644q-6 -33 4 -41t45 -7l-3 -23q-7 -1 -23 -1q-38 0 -47 22t0 56zM174 749l-7 13l146 99l18 -31z" />
    <glyph glyph-name="Lcommaaccent" unicode="&#x13b;" horiz-adv-x="496" 
d="M23 0l118 674h27l-114 -649h396l-4 -25h-423zM214 -47q29 0 29 -25q0 -12 -10 -27l-71 -113l-11 4l50 96q-24 4 -24 26q0 16 11.5 27.5t25.5 11.5z" />
    <glyph glyph-name="lcommaaccent" unicode="&#x13c;" horiz-adv-x="194" 
d="M165 710h25l-114 -644q-6 -33 4 -41t45 -7l-3 -23q-7 -1 -23 -1q-38 0 -47 22t0 56zM65 -47q29 0 29 -25q0 -12 -10 -27l-71 -113l-11 4l50 96q-24 4 -24 26q0 16 11.5 27.5t25.5 11.5z" />
    <glyph glyph-name="Lcaron" unicode="&#x13d;" horiz-adv-x="496" 
d="M23 0l118 674h27l-114 -649h396l-4 -25h-423zM417 687q29 0 29 -25q0 -12 -10 -27l-71 -113l-11 4l50 96q-24 4 -24 26q0 16 11.5 27.5t25.5 11.5z" />
    <glyph glyph-name="lcaron" unicode="&#x13e;" horiz-adv-x="258" 
d="M304 726q29 0 29 -25q0 -12 -10 -27l-71 -113l-11 4l50 96q-24 4 -24 26q0 16 11.5 27.5t25.5 11.5zM169 710h25l-114 -644q-6 -33 4 -41t45 -7l-3 -23q-7 -1 -23 -1q-38 0 -47 22t0 56z" />
    <glyph glyph-name="Ldot" unicode="&#x13f;" horiz-adv-x="496" 
d="M23 0l118 674h27l-114 -649h396l-4 -25h-423zM358 379q22 0 22 -23q0 -13 -10 -23t-22 -10q-23 0 -23 22q0 14 9.5 24t23.5 10z" />
    <glyph glyph-name="ldot" unicode="&#x140;" horiz-adv-x="270" 
d="M257 396q22 0 22 -23q0 -13 -10 -23t-22 -10q-23 0 -23 22q0 14 9.5 24t23.5 10zM169 710h25l-114 -644q-6 -33 4 -41t45 -7l-3 -23q-7 -1 -23 -1q-38 0 -47 22t0 56z" />
    <glyph glyph-name="Lslash" unicode="&#x141;" horiz-adv-x="496" 
d="M-15 227l-7 22l98 53l65 372h27l-62 -356l154 84l9 -22l-169 -91l-46 -264h396l-4 -25h-423l48 273z" />
    <glyph glyph-name="lslash" unicode="&#x142;" horiz-adv-x="187" 
d="M158 710h25l-58 -329l107 57l8 -22l-120 -64l-51 -286q-6 -31 5.5 -40t43.5 -8l-4 -23q-8 -1 -25 -1q-37 0 -45 23t1 55l47 265l-89 -47l-6 22l100 54z" />
    <glyph glyph-name="Nacute" unicode="&#x143;" horiz-adv-x="614" 
d="M164 622h-6l-109 -622h-26l118 674h24l216 -417q9 -17 106 -208h5l109 625h26l-117 -674h-26l-232 443q-52 100 -88 179zM362 717l-7 13l146 99l18 -31z" />
    <glyph glyph-name="nacute" unicode="&#x144;" horiz-adv-x="491" 
d="M18 0l84 478h21q0 -31 -13 -93h4q76 102 193 102q52 0 85 -18t44.5 -47.5t13.5 -67.5t-7 -77l-48 -277h-28l46 267q5 27 7 44.5t2.5 43t-6.5 42t-19.5 33t-37.5 24.5t-59 8q-82 0 -141 -62.5t-73 -147.5l-42 -252h-26zM260 548l-11 11l122 131l27 -25z" />
    <glyph glyph-name="Ncommaaccent" unicode="&#x145;" horiz-adv-x="614" 
d="M164 622h-6l-109 -622h-26l118 674h24l216 -417q9 -17 106 -208h5l109 625h26l-117 -674h-26l-232 443q-52 100 -88 179zM262 -22q29 0 29 -25q0 -12 -10 -27l-71 -113l-11 4l50 96q-24 4 -24 26q0 16 11.5 27.5t25.5 11.5z" />
    <glyph glyph-name="ncommaaccent" unicode="&#x146;" horiz-adv-x="491" 
d="M18 0l84 478h21q0 -31 -13 -93h4q76 102 193 102q52 0 85 -18t44.5 -47.5t13.5 -67.5t-7 -77l-48 -277h-28l46 267q5 27 7 44.5t2.5 43t-6.5 42t-19.5 33t-37.5 24.5t-59 8q-82 0 -141 -62.5t-73 -147.5l-42 -252h-26zM213 -25q29 0 29 -25q0 -12 -10 -27l-71 -113l-11 4
l50 96q-24 4 -24 26q0 16 11.5 27.5t25.5 11.5z" />
    <glyph glyph-name="Ncaron" unicode="&#x147;" horiz-adv-x="614" 
d="M164 622h-6l-109 -622h-26l118 674h24l216 -417q9 -17 106 -208h5l109 625h26l-117 -674h-26l-232 443q-52 100 -88 179zM398 756l143 83l9 -13l-143 -100h-24l-113 101q4 3 14 13z" />
    <glyph glyph-name="ncaron" unicode="&#x148;" horiz-adv-x="491" 
d="M18 0l84 478h21q0 -31 -13 -93h4q76 102 193 102q52 0 85 -18t44.5 -47.5t13.5 -67.5t-7 -77l-48 -277h-28l46 267q5 27 7 44.5t2.5 43t-6.5 42t-19.5 33t-37.5 24.5t-59 8q-82 0 -141 -62.5t-73 -147.5l-42 -252h-26zM282 580l147 101l9 -11l-147 -120h-24l-109 121
l13 11z" />
    <glyph glyph-name="napostrophe" unicode="&#x149;" horiz-adv-x="538" 
d="M65 0l84 478h21q0 -31 -13 -93h4q76 102 193 102q52 0 85 -18t44.5 -47.5t13.5 -67.5t-7 -77l-48 -277h-28l46 267q5 27 7 44.5t2.5 43t-6.5 42t-19.5 33t-37.5 24.5t-59 8q-82 0 -141 -62.5t-73 -147.5l-42 -252h-26zM115 656q29 0 29 -25q0 -12 -10 -27l-71 -113l-11 4
l50 96q-24 4 -24 26q0 16 11.5 27.5t25.5 11.5z" />
    <glyph glyph-name="Eng" unicode="&#x14a;" horiz-adv-x="614" 
d="M164 623h-6l-109 -623h-26l118 674h24l215 -416q9 -17 106 -208h5l110 624h26l-135 -779q-14 -81 -96 -81q-26 0 -51 7l7 25q26 -6 43 -6q61 0 72 62l18 98l-233 444q-52 100 -88 179z" />
    <glyph glyph-name="eng" unicode="&#x14b;" horiz-adv-x="491" 
d="M18 0l84 478h21q0 -31 -13 -93h4q76 102 193 102q52 0 85 -18t44.5 -47.5t13.5 -67.5t-7 -77l-68 -382q-14 -81 -96 -81q-26 0 -51 7l7 24q22 -5 42 -5q61 0 72 62l64 365q5 27 7 44.5t2.5 43t-6.5 42t-19.5 33t-37.5 24.5t-59 8q-82 0 -141 -62.5t-73 -147.5l-42 -252
h-26z" />
    <glyph glyph-name="Omacron" unicode="&#x14c;" horiz-adv-x="638" 
d="M400 681q112 0 162 -66.5t50 -173.5q0 -66 -10.5 -127t-36 -120.5t-63.5 -103t-97.5 -70t-133.5 -26.5q-113 0 -162 60.5t-49 157.5q0 65 10.5 128t35.5 126t63 109.5t97.5 76t133.5 29.5zM395 657q-82 0 -144 -40t-96.5 -106t-51 -140t-16.5 -153q0 -201 187 -201
q140 0 225.5 110.5t85.5 318.5q0 211 -190 211zM297 761l5 29h271l-5 -29h-271z" />
    <glyph glyph-name="omacron" unicode="&#x14d;" horiz-adv-x="505" 
d="M298 486q86 0 125.5 -49.5t39.5 -131.5q0 -59 -14 -112.5t-42.5 -99.5t-78.5 -73.5t-116 -27.5q-169 0 -169 171q0 139 67 231t188 92zM296 463q-108 0 -167.5 -86t-59.5 -216q0 -146 148 -146q96 0 158 74.5t62 214.5q0 74 -35 116.5t-106 42.5zM182 574l4 26h271
l-4 -26h-271z" />
    <glyph glyph-name="Obreve" unicode="&#x14e;" horiz-adv-x="638" 
d="M400 681q112 0 162 -66.5t50 -173.5q0 -66 -10.5 -127t-36 -120.5t-63.5 -103t-97.5 -70t-133.5 -26.5q-113 0 -162 60.5t-49 157.5q0 65 10.5 128t35.5 126t63 109.5t97.5 76t133.5 29.5zM395 657q-82 0 -144 -40t-96.5 -106t-51 -140t-16.5 -153q0 -201 187 -201
q140 0 225.5 110.5t85.5 318.5q0 211 -190 211zM430 729q-64 0 -90 39t-18 86h24q-7 -36 14 -67t76 -31q53 0 83.5 31.5t36.5 66.5h22q-9 -48 -47.5 -86.5t-100.5 -38.5z" />
    <glyph glyph-name="obreve" unicode="&#x14f;" horiz-adv-x="505" 
d="M298 486q86 0 125.5 -49.5t39.5 -131.5q0 -59 -14 -112.5t-42.5 -99.5t-78.5 -73.5t-116 -27.5q-169 0 -169 171q0 139 67 231t188 92zM296 463q-108 0 -167.5 -86t-59.5 -216q0 -146 148 -146q96 0 158 74.5t62 214.5q0 74 -35 116.5t-106 42.5zM328 553q-63 0 -89.5 42
t-18.5 90h24q-7 -37 13.5 -71t75.5 -34q52 0 85.5 35t39.5 70h24q-9 -48 -50.5 -90t-103.5 -42z" />
    <glyph glyph-name="Ohungarumlaut" unicode="&#x150;" horiz-adv-x="638" 
d="M400 681q112 0 162 -66.5t50 -173.5q0 -66 -10.5 -127t-36 -120.5t-63.5 -103t-97.5 -70t-133.5 -26.5q-113 0 -162 60.5t-49 157.5q0 65 10.5 128t35.5 126t63 109.5t97.5 76t133.5 29.5zM395 657q-82 0 -144 -40t-96.5 -106t-51 -140t-16.5 -153q0 -201 187 -201
q140 0 225.5 110.5t85.5 318.5q0 211 -190 211zM329 731l-6 13l145 99l19 -31zM445 731l-6 13l145 99l19 -31z" />
    <glyph glyph-name="ohungarumlaut" unicode="&#x151;" horiz-adv-x="505" 
d="M298 486q86 0 125.5 -49.5t39.5 -131.5q0 -59 -14 -112.5t-42.5 -99.5t-78.5 -73.5t-116 -27.5q-169 0 -169 171q0 139 67 231t188 92zM296 463q-108 0 -167.5 -86t-59.5 -216q0 -146 148 -146q96 0 158 74.5t62 214.5q0 74 -35 116.5t-106 42.5zM252 548l-11 10l122 131
l27 -24zM351 548l-11 10l122 131l27 -24z" />
    <glyph glyph-name="OE" unicode="&#x152;" horiz-adv-x="821" 
d="M350 0q-48 -6 -79 -6q-113 0 -162 60.5t-49 157.5q0 65 10.5 128t35.5 126t63 109.5t97.5 76t133.5 29.5q33 0 68 -7h385l-4 -25h-358l-49 -276h341l-4 -25h-341l-57 -323h397l-4 -25h-424zM274 17q44 0 81 10l108 621q-36 9 -68 9q-82 0 -144 -40t-96.5 -106t-51 -140
t-16.5 -153q0 -201 187 -201z" />
    <glyph glyph-name="oe" unicode="&#x153;" horiz-adv-x="863" 
d="M590 -8q-148 0 -162 141q-64 -141 -216 -141q-169 0 -169 171q0 139 67 231t188 92q78 0 118 -41t46 -111q31 69 88 110.5t137 41.5q76 0 110.5 -32t34.5 -78q0 -22 -6.5 -41.5t-27.5 -42t-53.5 -38.5t-90.5 -26.5t-133 -10.5q-26 0 -62 3q-4 -24 -4 -57q0 -68 29.5 -108
t107.5 -40q87 0 130.5 40t50.5 90h22q-2 -23 -10 -43q-21 -52 -73.5 -81t-121.5 -29zM296 463q-108 0 -167.5 -86t-59.5 -216q0 -146 148 -146q96 0 158 74.5t62 214.5q0 74 -35 116.5t-106 42.5zM679 463q-48 0 -88 -20.5t-65 -54t-41 -70t-22 -75.5q26 -3 62 -3
q80 0 137.5 11.5t87 31.5t42.5 42t13 47q0 40 -31 65.5t-95 25.5z" />
    <glyph glyph-name="Racute" unicode="&#x154;" horiz-adv-x="537" 
d="M100 289l-50 -289h-27l118 674h236q88 0 135 -43.5t47 -120.5q0 -29 -5.5 -56.5t-22 -58.5t-43 -53.5t-71.5 -37.5t-104 -15h-23l165 -289h-31l-165 289h-159zM368 649h-204l-59 -333h212q90 0 151.5 45t61.5 149q0 68 -43.5 103.5t-118.5 35.5zM284 729l-7 13l146 99
l18 -31z" />
    <glyph glyph-name="racute" unicode="&#x155;" horiz-adv-x="277" 
d="M59 0h-26l84 478h20q1 -16 -14 -100h4q24 48 75 78.5t111 31.5l-3 -31q-103 -7 -148 -60.5t-60 -141.5zM149 548l-11 11l122 131l27 -25z" />
    <glyph glyph-name="Rcommaaccent" unicode="&#x156;" horiz-adv-x="537" 
d="M100 289l-50 -289h-27l118 674h236q88 0 135 -43.5t47 -120.5q0 -29 -5.5 -56.5t-22 -58.5t-43 -53.5t-71.5 -37.5t-104 -15h-23l165 -289h-31l-165 289h-159zM368 649h-204l-59 -333h212q90 0 151.5 45t61.5 149q0 68 -43.5 103.5t-118.5 35.5zM226 -12q29 0 29 -25
q0 -12 -10 -27l-71 -113l-11 4l50 96q-24 4 -24 26q0 16 11.5 27.5t25.5 11.5z" />
    <glyph glyph-name="rcommaaccent" unicode="&#x157;" horiz-adv-x="277" 
d="M59 0h-26l84 478h20q1 -16 -14 -100h4q24 48 75 78.5t111 31.5l-3 -31q-103 -7 -148 -60.5t-60 -141.5zM37 -43q29 0 29 -25q0 -12 -10 -27l-71 -113l-11 4l50 96q-24 4 -24 26q0 16 11.5 27.5t25.5 11.5z" />
    <glyph glyph-name="Rcaron" unicode="&#x158;" horiz-adv-x="537" 
d="M100 289l-50 -289h-27l118 674h236q88 0 135 -43.5t47 -120.5q0 -29 -5.5 -56.5t-22 -58.5t-43 -53.5t-71.5 -37.5t-104 -15h-23l165 -289h-31l-165 289h-159zM368 649h-204l-59 -333h212q90 0 151.5 45t61.5 149q0 68 -43.5 103.5t-118.5 35.5zM331 756l143 83l9 -13
l-143 -100h-24l-113 101q4 3 14 13z" />
    <glyph glyph-name="rcaron" unicode="&#x159;" horiz-adv-x="277" 
d="M59 0h-26l84 478h20q1 -16 -14 -100h4q24 48 75 78.5t111 31.5l-3 -31q-103 -7 -148 -60.5t-60 -141.5zM173 580l147 101l9 -11l-147 -120h-24l-109 121l13 11z" />
    <glyph glyph-name="Sacute" unicode="&#x15a;" horiz-adv-x="573" 
d="M260 19q66 0 115 17t74 45t37 57t12 59q0 61 -39 93t-141 54q-54 12 -86 21.5t-61.5 25t-42.5 39t-13 56.5q0 83 66 139.5t190 56.5q81 0 137 -36.5t56 -107.5q0 -20 -6 -48h-24q3 18 3 35q0 58 -41 94.5t-130 36.5q-109 0 -165.5 -49.5t-56.5 -119.5q0 -49 44.5 -73
t155.5 -48q90 -19 137 -55.5t47 -107.5q0 -92 -69.5 -150.5t-201.5 -58.5q-104 0 -164.5 40t-60.5 115q0 31 8 55h25q-6 -27 -6 -48q0 -72 57 -104.5t144 -32.5zM352 729l-7 13l146 99l18 -31z" />
    <glyph glyph-name="sacute" unicode="&#x15b;" horiz-adv-x="443" 
d="M176 -8q-152 0 -152 112q0 25 6 41h20q-11 -72 24 -101t104 -29q91 0 133.5 39t42.5 89q0 43 -33 62.5t-93 31.5q-83 17 -109 32q-42 26 -43 76q0 60 49.5 100.5t141.5 40.5q61 0 101 -25t40 -75q0 -20 -4 -36h-21q6 60 -26 86.5t-95 26.5q-75 0 -117 -34.5t-42 -83.5
q0 -10 2 -19t8 -16t11 -12t15.5 -10t17 -8t21 -6.5t21.5 -5t24 -5t23 -4.5q64 -13 99 -36.5t35 -77.5q0 -65 -52 -109t-152 -44zM247 548l-11 11l122 131l27 -25z" />
    <glyph glyph-name="Scircumflex" unicode="&#x15c;" horiz-adv-x="573" 
d="M260 19q66 0 115 17t74 45t37 57t12 59q0 61 -39 93t-141 54q-54 12 -86 21.5t-61.5 25t-42.5 39t-13 56.5q0 83 66 139.5t190 56.5q81 0 137 -36.5t56 -107.5q0 -20 -6 -48h-24q3 18 3 35q0 58 -41 94.5t-130 36.5q-109 0 -165.5 -49.5t-56.5 -119.5q0 -49 44.5 -73
t155.5 -48q90 -19 137 -55.5t47 -107.5q0 -92 -69.5 -150.5t-201.5 -58.5q-104 0 -164.5 40t-60.5 115q0 31 8 55h25q-6 -27 -6 -48q0 -72 57 -104.5t144 -32.5zM498 728l-114 83l-144 -84l-9 13l148 101h24l108 -100z" />
    <glyph glyph-name="scircumflex" unicode="&#x15d;" horiz-adv-x="443" 
d="M176 -8q-152 0 -152 112q0 25 6 41h20q-11 -72 24 -101t104 -29q91 0 133.5 39t42.5 89q0 43 -33 62.5t-93 31.5q-83 17 -109 32q-42 26 -43 76q0 60 49.5 100.5t141.5 40.5q61 0 101 -25t40 -75q0 -20 -4 -36h-21q6 60 -26 86.5t-95 26.5q-75 0 -117 -34.5t-42 -83.5
q0 -10 2 -19t8 -16t11 -12t15.5 -10t17 -8t21 -6.5t21.5 -5t24 -5t23 -4.5q64 -13 99 -36.5t35 -77.5q0 -65 -52 -109t-152 -44zM406 545l-112 102l-147 -103l-11 11l152 121h24l104 -120z" />
    <glyph glyph-name="Scedilla" unicode="&#x15e;" horiz-adv-x="573" 
d="M220 -200q-39 0 -72 16l9 19q33 -14 66 -14q25 0 50 15t25 44q0 19 -15 30t-39 11q-18 0 -34 -6l-15 10l50 69q-99 2 -156 42t-57 113q0 31 8 55h25q-6 -27 -6 -48q0 -72 57 -104.5t144 -32.5q66 0 115 17t74 45t37 57t12 59q0 61 -39 93t-141 54q-54 12 -86 21.5
t-61.5 25t-42.5 39t-13 56.5q0 83 66 139.5t190 56.5q81 0 137 -36.5t56 -107.5q0 -20 -6 -48h-24q3 18 3 35q0 58 -41 94.5t-130 36.5q-109 0 -165.5 -49.5t-56.5 -119.5q0 -49 44.5 -73t155.5 -48q90 -19 137 -55.5t47 -107.5q0 -90 -67 -148t-193 -61l-39 -53q18 2 25 2
q37 0 54 -18t17 -41q0 -34 -29 -58.5t-76 -25.5z" />
    <glyph glyph-name="scedilla" unicode="&#x15f;" horiz-adv-x="443" 
d="M145 -200q-39 0 -72 16l9 19q33 -14 66 -14q25 0 50 15t25 44q0 19 -15 30t-39 11q-18 0 -34 -6l-15 10l48 67q-144 3 -144 112q0 25 6 41h20q-11 -72 24 -101t104 -29q91 0 133.5 39t42.5 89q0 18 -7.5 32.5t-17.5 23t-29 16t-33.5 11t-38.5 8.5q-32 7 -45 10t-38.5 12
t-37 19t-21.5 28t-10 42q0 60 49.5 100.5t141.5 40.5q61 0 101 -25t40 -75q0 -20 -4 -36h-21q6 60 -26 86.5t-95 26.5q-75 0 -117 -34.5t-42 -83.5q0 -10 2 -19t8 -16t11 -12t15.5 -10t17 -8t21 -6.5t21.5 -5t24 -5t23 -4.5q64 -13 99 -36.5t35 -77.5q0 -63 -48 -105.5
t-140 -46.5l-38 -52q18 2 25 2q37 0 54 -18t17 -41q0 -34 -29 -58.5t-76 -25.5z" />
    <glyph glyph-name="Scaron" unicode="&#x160;" horiz-adv-x="573" 
d="M260 19q66 0 115 17t74 45t37 57t12 59q0 61 -39 93t-141 54q-54 12 -86 21.5t-61.5 25t-42.5 39t-13 56.5q0 83 66 139.5t190 56.5q81 0 137 -36.5t56 -107.5q0 -20 -6 -48h-24q3 18 3 35q0 58 -41 94.5t-130 36.5q-109 0 -165.5 -49.5t-56.5 -119.5q0 -49 44.5 -73
t155.5 -48q90 -19 137 -55.5t47 -107.5q0 -92 -69.5 -150.5t-201.5 -58.5q-104 0 -164.5 40t-60.5 115q0 31 8 55h25q-6 -27 -6 -48q0 -72 57 -104.5t144 -32.5zM390 756l143 83l9 -13l-143 -100h-24l-113 101q4 3 14 13z" />
    <glyph glyph-name="scaron" unicode="&#x161;" horiz-adv-x="443" 
d="M176 -8q-152 0 -152 112q0 25 6 41h20q-11 -72 24 -101t104 -29q91 0 133.5 39t42.5 89q0 43 -33 62.5t-93 31.5q-83 17 -109 32q-42 26 -43 76q0 60 49.5 100.5t141.5 40.5q61 0 101 -25t40 -75q0 -20 -4 -36h-21q6 60 -26 86.5t-95 26.5q-75 0 -117 -34.5t-42 -83.5
q0 -10 2 -19t8 -16t11 -12t15.5 -10t17 -8t21 -6.5t21.5 -5t24 -5t23 -4.5q64 -13 99 -36.5t35 -77.5q0 -65 -52 -109t-152 -44zM288 580l147 101l9 -11l-147 -120h-24l-109 121l13 11z" />
    <glyph glyph-name="Tcommaaccent" unicode="&#x162;" horiz-adv-x="518" 
d="M349 649l-114 -649h-28l114 649h-232l4 25h488l-4 -25h-228zM211 -46q29 0 29 -25q0 -12 -10 -27l-71 -113l-11 4l50 96q-24 4 -24 26q0 16 11.5 27.5t25.5 11.5z" />
    <glyph glyph-name="tcommaaccent" unicode="&#x163;" horiz-adv-x="304" 
d="M190 596l-21 -118h144l-4 -24h-144l-55 -310q-13 -71 10.5 -99t80.5 -28q29 0 56 4l-2 -23q-31 -4 -65 -4q-67 0 -93.5 35t-11.5 121l54 304h-80l3 18l81 7l31 117h16zM89 -47q29 0 29 -25q0 -12 -10 -27l-71 -113l-11 4l50 96q-24 4 -24 26q0 16 11.5 27.5t25.5 11.5z
" />
    <glyph glyph-name="Tcaron" unicode="&#x164;" horiz-adv-x="518" 
d="M349 649l-114 -649h-28l114 649h-232l4 25h488l-4 -25h-228zM353 756l143 83l9 -13l-143 -100h-24l-113 101q4 3 14 13z" />
    <glyph glyph-name="tcaron" unicode="&#x165;" horiz-adv-x="332" 
d="M357 695q29 0 29 -25q0 -12 -10 -27l-71 -113l-11 4l50 96q-24 4 -24 26q0 16 11.5 27.5t25.5 11.5zM204 596l-21 -118h144l-4 -24h-144l-55 -310q-13 -71 10.5 -99t80.5 -28q29 0 56 4l-2 -23q-31 -4 -65 -4q-67 0 -93.5 35t-11.5 121l54 304h-80l3 18l81 7l31 117h16z
" />
    <glyph glyph-name="Tbar" unicode="&#x166;" horiz-adv-x="518" 
d="M349 649l-44 -250h179l-4 -24h-179l-66 -375h-28l66 375h-186l4 24h186l44 250h-232l4 25h488l-4 -25h-228z" />
    <glyph glyph-name="tbar" unicode="&#x167;" horiz-adv-x="304" 
d="M190 596l-21 -118h144l-4 -24h-144l-26 -145h136l-4 -24h-136l-25 -141q-13 -71 10.5 -99t80.5 -28q29 0 56 4l-4 -23q-31 -4 -63 -4q-70 0 -95 34.5t-10 121.5l24 135h-72l4 24h72l26 145h-80l3 18l81 7l31 117h16z" />
    <glyph glyph-name="Utilde" unicode="&#x168;" horiz-adv-x="618" 
d="M633 674l-71 -404q-23 -131 -92 -204t-202 -73q-70 0 -116 21.5t-65.5 60t-23.5 92t9 117.5l69 390h26l-69 -390q-25 -142 18.5 -204t157.5 -62q105 0 170.5 58.5t89.5 193.5l71 404h28zM455 762q37 0 70 43l19 -10q-34 -57 -90 -57q-23 0 -61.5 19t-53.5 19
q-32 0 -65 -44l-21 11q33 57 88 57q23 0 62 -19t52 -19z" />
    <glyph glyph-name="utilde" unicode="&#x169;" horiz-adv-x="481" 
d="M467 478l-84 -478h-20q-3 1 -1.5 16.5t1.5 19t3.5 23t4.5 26.5h-4q-70 -93 -177 -93q-55 0 -88.5 17.5t-45 46.5t-13 68t8.5 82l48 272h27l-48 -272q-7 -50 -7.5 -92t30.5 -69.5t95 -27.5q76 0 129 55t67 133l48 273h26zM367 600q37 0 70 43l19 -10q-34 -57 -90 -57
q-23 0 -61.5 19t-53.5 19q-32 0 -65 -44l-21 11q33 57 88 57q23 0 62 -19t52 -19z" />
    <glyph glyph-name="Umacron" unicode="&#x16a;" horiz-adv-x="618" 
d="M633 674l-71 -404q-23 -131 -92 -204t-202 -73q-70 0 -116 21.5t-65.5 60t-23.5 92t9 117.5l69 390h26l-69 -390q-25 -142 18.5 -204t157.5 -62q105 0 170.5 58.5t89.5 193.5l71 404h28zM266 752l5 29h271l-5 -29h-271z" />
    <glyph glyph-name="umacron" unicode="&#x16b;" horiz-adv-x="481" 
d="M467 478l-84 -478h-20q-3 1 -1.5 16.5t1.5 19t3.5 23t4.5 26.5h-4q-70 -93 -177 -93q-55 0 -88.5 17.5t-45 46.5t-13 68t8.5 82l48 272h27l-48 -272q-7 -50 -7.5 -92t30.5 -69.5t95 -27.5q76 0 129 55t67 133l48 273h26zM166 574l4 26h271l-4 -26h-271z" />
    <glyph glyph-name="Ubreve" unicode="&#x16c;" horiz-adv-x="618" 
d="M633 674l-71 -404q-23 -131 -92 -204t-202 -73q-70 0 -116 21.5t-65.5 60t-23.5 92t9 117.5l69 390h26l-69 -390q-25 -142 18.5 -204t157.5 -62q105 0 170.5 58.5t89.5 193.5l71 404h28zM392 713q-64 0 -90 39t-18 86h24q-7 -36 14 -67t76 -31q53 0 83.5 31.5t36.5 66.5
h22q-9 -48 -47.5 -86.5t-100.5 -38.5z" />
    <glyph glyph-name="ubreve" unicode="&#x16d;" horiz-adv-x="481" 
d="M467 478l-84 -478h-20q-3 1 -1.5 16.5t1.5 19t3.5 23t4.5 26.5h-4q-70 -93 -177 -93q-55 0 -88.5 17.5t-45 46.5t-13 68t8.5 82l48 272h27l-48 -272q-7 -50 -7.5 -92t30.5 -69.5t95 -27.5q76 0 129 55t67 133l48 273h26zM292 553q-63 0 -89.5 42t-18.5 90h24
q-7 -37 13.5 -71t75.5 -34q52 0 85.5 35t39.5 70h24q-9 -48 -50.5 -90t-103.5 -42z" />
    <glyph glyph-name="Uring" unicode="&#x16e;" horiz-adv-x="618" 
d="M633 674l-71 -404q-23 -131 -92 -204t-202 -73q-70 0 -116 21.5t-65.5 60t-23.5 92t9 117.5l69 390h26l-69 -390q-25 -142 18.5 -204t157.5 -62q105 0 170.5 58.5t89.5 193.5l71 404h28zM371 698q-31 0 -51 21.5t-20 52.5q0 41 29 69t72 28q32 0 51 -21t19 -52
q0 -41 -28.5 -69.5t-71.5 -28.5zM398 850q-33 0 -54 -23t-21 -55q0 -23 14 -38.5t37 -15.5q36 0 56.5 23t20.5 55q0 23 -14.5 38.5t-38.5 15.5z" />
    <glyph glyph-name="uring" unicode="&#x16f;" horiz-adv-x="481" 
d="M467 478l-84 -478h-20q-3 1 -1.5 16.5t1.5 19t3.5 23t4.5 26.5h-4q-70 -93 -177 -93q-55 0 -88.5 17.5t-45 46.5t-13 68t8.5 82l48 272h27l-48 -272q-7 -50 -7.5 -92t30.5 -69.5t95 -27.5q76 0 129 55t67 133l48 273h26zM293 532q-31 0 -51 21.5t-20 52.5q0 41 29 69
t72 28q32 0 51 -21t19 -52q0 -41 -28.5 -69.5t-71.5 -28.5zM320 684q-33 0 -54 -23t-21 -55q0 -23 14 -38.5t37 -15.5q36 0 56.5 23t20.5 55q0 23 -14.5 38.5t-38.5 15.5z" />
    <glyph glyph-name="Uhungarumlaut" unicode="&#x170;" horiz-adv-x="618" 
d="M633 674l-71 -404q-23 -131 -92 -204t-202 -73q-70 0 -116 21.5t-65.5 60t-23.5 92t9 117.5l69 390h26l-69 -390q-25 -142 18.5 -204t157.5 -62q105 0 170.5 58.5t89.5 193.5l71 404h28zM308 731l-6 13l145 99l19 -31zM424 731l-6 13l145 99l19 -31z" />
    <glyph glyph-name="uhungarumlaut" unicode="&#x171;" horiz-adv-x="481" 
d="M467 478l-84 -478h-20q-3 1 -1.5 16.5t1.5 19t3.5 23t4.5 26.5h-4q-70 -93 -177 -93q-55 0 -88.5 17.5t-45 46.5t-13 68t8.5 82l48 272h27l-48 -272q-7 -50 -7.5 -92t30.5 -69.5t95 -27.5q76 0 129 55t67 133l48 273h26zM226 548l-11 10l122 131l27 -24zM325 548l-11 10
l122 131l27 -24z" />
    <glyph glyph-name="Uogonek" unicode="&#x172;" horiz-adv-x="618" 
d="M633 674l-71 -404q-23 -130 -90.5 -202.5t-197.5 -74.5q-78 -67 -78 -126q0 -41 56 -41q38 0 72 12l2 -13q-47 -21 -91 -21q-69 0 -69 52q0 27 21.5 64.5t65.5 72.5q-87 3 -133.5 41t-53.5 101.5t6 148.5l69 390h26l-69 -390q-25 -142 18.5 -204t157.5 -62
q105 0 170.5 58.5t89.5 193.5l71 404h28z" />
    <glyph glyph-name="uogonek" unicode="&#x173;" horiz-adv-x="481" 
d="M467 478l-84 -478h-15q-86 -71 -86 -133q0 -41 56 -41q38 0 72 12l2 -13q-47 -21 -91 -21q-69 0 -69 52q0 30 27 73.5t82 80.5q0 8 10 75h-4q-70 -93 -177 -93q-55 0 -88.5 17.5t-45 46.5t-13 68t8.5 82l48 272h27l-48 -272q-7 -50 -7.5 -92t30.5 -69.5t95 -27.5
q76 0 129 55t67 133l48 273h26z" />
    <glyph glyph-name="Wcircumflex" unicode="&#x174;" horiz-adv-x="814" 
d="M478 629h-4q-55 -128 -106 -233l-185 -396h-35l-60 674h29l31 -375q17 -216 22 -262h4q25 54 70.5 153.5t52.5 114.5l172 369h31l41 -345q20 -172 30 -292h4l127 291l150 346h30l-295 -674h-35l-46 387q-11 99 -28 242zM625 728l-114 83l-144 -84l-9 13l148 101h24
l108 -100z" />
    <glyph glyph-name="wcircumflex" unicode="&#x175;" horiz-adv-x="651" 
d="M441 27l132 259q21 42 34 76.5t17 54t12 61.5h23q-12 -67 -25 -108.5t-45 -104.5l-138 -267h-30l-48 245q-24 127 -27 145h-4q-23 -52 -70 -148l-119 -242h-33l-66 480h24l36 -262q16 -114 25 -189h4q14 32 96 198l93 190h32l34 -175q2 -10 17 -87t22 -126h4zM494 545
l-112 102l-147 -103l-11 11l152 121h24l104 -120z" />
    <glyph glyph-name="Ycircumflex" unicode="&#x176;" horiz-adv-x="497" 
d="M251 302h6l128 174l145 198h35l-300 -402l-47 -272h-28l47 271l-149 403h28l71 -190q36 -96 64 -182zM463 725l-114 83l-144 -84l-9 13l148 101h24l108 -100z" />
    <glyph glyph-name="ycircumflex" unicode="&#x177;" horiz-adv-x="396" 
d="M87 -197h-30l100 195l-13 -2l-99 481h28l51 -248q5 -23 14 -63.5t16 -75t12 -67.5h4l134 262q32 60 43.5 99t18.5 93h27q-7 -60 -21 -103.5t-48 -109.5zM372 548l-112 102l-147 -103l-11 11l152 121h24l104 -120z" />
    <glyph glyph-name="Ydieresis" unicode="&#x178;" horiz-adv-x="497" 
d="M251 302h6l128 174l145 198h35l-300 -402l-47 -272h-28l47 271l-149 403h28l71 -190q36 -96 64 -182zM264 784q19 0 19 -20q0 -11 -8 -19t-19 -8q-18 0 -18 19q0 11 8 19.5t18 8.5zM413 784q19 0 19 -21q0 -10 -8.5 -18t-18.5 -8q-19 0 -19 19q0 11 8 19.5t19 8.5z" />
    <glyph glyph-name="Zacute" unicode="&#x179;" horiz-adv-x="513" 
d="M-16 0l4 26l531 624h-406l5 25h440l-5 -24l-532 -626h432l-4 -25h-465zM303 729l-7 13l146 99l18 -31z" />
    <glyph glyph-name="zacute" unicode="&#x17a;" horiz-adv-x="397" 
d="M-25 0l3 22l397 431h-295l5 25h327l-5 -25l-395 -430h320l-4 -23h-353zM214 548l-11 11l122 131l27 -25z" />
    <glyph glyph-name="Zdotaccent" unicode="&#x17b;" horiz-adv-x="513" 
d="M-16 0l4 26l531 624h-406l5 25h440l-5 -24l-532 -626h432l-4 -25h-465zM345 795q22 0 22 -23q0 -13 -10 -23t-22 -10q-23 0 -23 22q0 14 9.5 24t23.5 10z" />
    <glyph glyph-name="zdotaccent" unicode="&#x17c;" horiz-adv-x="397" 
d="M-25 0l3 22l397 431h-295l5 25h327l-5 -25l-395 -430h320l-4 -23h-353zM279 625q22 0 22 -23q0 -13 -10 -23t-22 -10q-23 0 -23 22q0 14 9.5 24t23.5 10z" />
    <glyph glyph-name="Zcaron" unicode="&#x17d;" horiz-adv-x="513" 
d="M-16 0l4 26l531 624h-406l5 25h440l-5 -24l-532 -626h432l-4 -25h-465zM368 756l143 83l9 -13l-143 -100h-24l-113 101q4 3 14 13z" />
    <glyph glyph-name="zcaron" unicode="&#x17e;" horiz-adv-x="397" 
d="M-25 0l3 22l397 431h-295l5 25h327l-5 -25l-395 -430h320l-4 -23h-353zM273 580l147 101l9 -11l-147 -120h-24l-109 121l13 11z" />
    <glyph glyph-name="florin" unicode="&#x192;" horiz-adv-x="555" 
d="M175 368l3 25h86l12 52q29 124 65 172.5t94 48.5q35 0 65 -10l-8 -25q-23 9 -60 9q-49 0 -78 -47t-52 -147l-11 -53h100l-3 -25h-104l-56 -247q-17 -75 -36 -122.5t-40 -66.5t-36.5 -24.5t-37.5 -5.5q-30 0 -64 11l10 24q28 -8 55 -8q44 0 71.5 49.5t55.5 173.5l51 216
h-82z" />
    <glyph glyph-name="Ohorn" unicode="&#x1a0;" horiz-adv-x="638" 
d="M400 681q133 0 183 -100q101 2 119 102l11 62h24l-13 -73q-9 -47 -42 -79t-88 -37q18 -51 18 -115q0 -66 -10.5 -127t-36 -120.5t-63.5 -103t-97.5 -70t-133.5 -26.5q-113 0 -162 60.5t-49 157.5q0 65 10.5 128t35.5 126t63 109.5t97.5 76t133.5 29.5zM395 657
q-82 0 -144 -40t-96.5 -106t-51 -140t-16.5 -153q0 -201 187 -201q140 0 225.5 110.5t85.5 318.5q0 211 -190 211z" />
    <glyph glyph-name="ohorn" unicode="&#x1a1;" horiz-adv-x="505" 
d="M298 486q88 0 130 -55q98 2 116 102l10 56h24l-11 -67q-9 -47 -41 -78.5t-83 -37.5q20 -41 20 -101q0 -59 -14 -112.5t-42.5 -99.5t-78.5 -73.5t-116 -27.5q-169 0 -169 171q0 139 67 231t188 92zM296 463q-108 0 -167.5 -86t-59.5 -216q0 -146 148 -146q96 0 158 74.5
t62 214.5q0 74 -35 116.5t-106 42.5z" />
    <glyph glyph-name="Uhorn" unicode="&#x1af;" horiz-adv-x="686" 
d="M633 674l-16 -93h11q48 0 75.5 24t37.5 78l11 62h24l-13 -73q-9 -51 -43.5 -83.5t-92.5 -32.5h-14l-51 -286q-23 -131 -92 -204t-202 -73q-71 0 -116.5 21t-65.5 59.5t-24 91.5t9 117l70 392h26l-70 -392q-25 -140 20.5 -202t156.5 -62q105 0 170.5 58.5t89.5 193.5
l71 404h28z" />
    <glyph glyph-name="uhorn" unicode="&#x1b0;" horiz-adv-x="529" 
d="M453 400l-70 -400h-20q-3 1 -1.5 16.5t1.5 19t3.5 23t4.5 26.5h-4q-70 -93 -177 -93q-55 0 -88.5 17.5t-45 46.5t-13 68t8.5 82l48 272h27l-48 -272q-7 -50 -7 -92t30.5 -69.5t94.5 -27.5q76 0 129 55t67 133l48 273h26l-10 -53h13q47 0 73 23.5t36 78.5l11 58h24
l-13 -69q-9 -52 -41.5 -84t-90.5 -32h-16z" />
    <glyph glyph-name="AEacute" unicode="&#x1fc;" horiz-adv-x="899" 
d="M451 252h-258l-192 -252h-34l512 674h404l-2 -24h-359l-31 -295h337l-3 -24h-337l-32 -306h403l-2 -25h-432zM493 642l-5 1l-275 -364h241zM599 729l-7 13l146 99l18 -31z" />
    <glyph glyph-name="aeacute" unicode="&#x1fd;" horiz-adv-x="814" 
d="M153 13q138 0 224 114q-4 34 3 99q-83 16 -144 16q-106 0 -147 -37.5t-41 -100.5q0 -91 105 -91zM628 463q-48 0 -88 -20.5t-65 -54t-41 -70t-22 -75.5q26 -3 62 -3q80 0 137.5 11.5t87 31.5t42.5 42t13 47q0 40 -31 65.5t-95 25.5zM272 485q69 0 110.5 -33.5t43.5 -88.5
q72 123 210 123q76 0 110.5 -32t34.5 -78q0 -22 -6.5 -41.5t-27.5 -42t-53.5 -38.5t-90.5 -26.5t-133 -10.5q-26 0 -62 3q-4 -24 -4 -57q0 -68 29.5 -108t107.5 -40q87 0 130.5 40t50.5 90h22l-3 -20q-13 -62 -69.5 -97.5t-132.5 -35.5q-129 0 -156 105q-62 -66 -116.5 -86
t-116.5 -20q-59 0 -94.5 27t-35.5 83q0 165 213 165q64 0 151 -16q16 86 16 105q0 44 -35 75.5t-101 31.5q-141 0 -155 -106h-22q0 14 3 26q23 103 182 103zM439 548l-11 11l122 131l27 -25z" />
    <glyph glyph-name="Oslashacute" unicode="&#x1fe;" horiz-adv-x="638" 
d="M387 729l-7 13l146 99l18 -31zM400 681q114 0 168 -75l75 83l16 -14l-80 -87q33 -59 33 -147q0 -66 -10.5 -127t-36 -120.5t-63.5 -103t-97.5 -70t-133.5 -26.5q-115 0 -169 69l-74 -82l-17 12l79 87q-30 52 -30 132q0 65 10.5 128t35.5 126t63 109.5t97.5 76t133.5 29.5
zM585 446q0 72 -24 121l-441 -484q45 -66 154 -66q140 0 225.5 110.5t85.5 318.5zM395 657q-82 0 -144 -40t-96.5 -106t-51 -140t-16.5 -153q0 -72 22 -117l441 486q-47 70 -155 70z" />
    <glyph glyph-name="oslashacute" unicode="&#x1ff;" horiz-adv-x="505" 
d="M293 548l-11 11l122 131l27 -25zM298 486q88 0 130 -55l56 57l17 -15l-61 -61q23 -43 23 -107q0 -59 -14 -112.5t-42.5 -99.5t-78.5 -73.5t-116 -27.5q-94 0 -136 53l-53 -54l-15 13l57 58q-22 40 -22 101q0 139 67 231t188 92zM437 304q0 50 -17 87l-326 -328
q36 -48 123 -48q96 0 158 74.5t62 214.5zM296 463q-108 0 -167.5 -86t-59.5 -216q0 -49 15 -80l325 330q-36 52 -113 52z" />
    <glyph glyph-name="Scommaaccent" unicode="&#x218;" horiz-adv-x="573" 
d="M260 19q66 0 115 17t74 45t37 57t12 59q0 61 -39 93t-141 54q-54 12 -86 21.5t-61.5 25t-42.5 39t-13 56.5q0 83 66 139.5t190 56.5q81 0 137 -36.5t56 -107.5q0 -20 -6 -48h-24q3 18 3 35q0 58 -41 94.5t-130 36.5q-109 0 -165.5 -49.5t-56.5 -119.5q0 -49 44.5 -73
t155.5 -48q90 -19 137 -55.5t47 -107.5q0 -92 -69.5 -150.5t-201.5 -58.5q-104 0 -164.5 40t-60.5 115q0 31 8 55h25q-6 -27 -6 -48q0 -72 57 -104.5t144 -32.5zM251 -47q29 0 29 -25q0 -12 -10 -27l-71 -113l-11 4l50 96q-24 4 -24 26q0 16 11.5 27.5t25.5 11.5z" />
    <glyph glyph-name="scommaaccent" unicode="&#x219;" horiz-adv-x="443" 
d="M176 -8q-152 0 -152 112q0 25 6 41h20q-11 -72 24 -101t104 -29q91 0 133.5 39t42.5 89q0 43 -33 62.5t-93 31.5q-83 17 -109 32q-42 26 -43 76q0 60 49.5 100.5t141.5 40.5q61 0 101 -25t40 -75q0 -20 -4 -36h-21q6 60 -26 86.5t-95 26.5q-75 0 -117 -34.5t-42 -83.5
q0 -10 2 -19t8 -16t11 -12t15.5 -10t17 -8t21 -6.5t21.5 -5t24 -5t23 -4.5q64 -13 99 -36.5t35 -77.5q0 -65 -52 -109t-152 -44zM177 -47q29 0 29 -25q0 -12 -10 -27l-71 -113l-11 4l50 96q-24 4 -24 26q0 16 11.5 27.5t25.5 11.5z" />
    <glyph glyph-name="schwa" unicode="&#x259;" horiz-adv-x="480" 
d="M195 15q54 0 95.5 20t65.5 54.5t37.5 69.5t19.5 76q-26 3 -64 3q-80 0 -137.5 -11.5t-87 -31.5t-42.5 -42t-13 -47q0 -40 31 -65.5t95 -25.5zM284 486q85 0 123 -50t38 -122q0 -49 -8 -94t-27.5 -87.5t-48.5 -73t-73.5 -49t-100.5 -18.5q-76 0 -110.5 32t-34.5 78
q0 28 12.5 53t43.5 50.5t96.5 41t158.5 15.5q27 0 63 -3q3 18 3 56q0 64 -34 106t-103 42q-88 0 -133 -39.5t-48 -90.5h-22q0 7 2 21q10 62 68 97t135 35z" />
    <glyph glyph-name="primemod" unicode="&#x2b9;" horiz-adv-x="146" 
d="M72 404l-21 9l155 249l34 -16z" />
    <glyph glyph-name="circumflex" unicode="&#x2c6;" horiz-adv-x="454" 
d="M420 545l-112 102l-147 -103l-11 11l152 121h24l104 -120z" />
    <glyph glyph-name="caron" unicode="&#x2c7;" horiz-adv-x="454" 
d="M291 580l147 101l9 -11l-147 -120h-24l-109 121l13 11z" />
    <glyph glyph-name="breve" unicode="&#x2d8;" horiz-adv-x="454" 
d="M292 553q-63 0 -89.5 42t-18.5 90h24q-7 -37 13.5 -71t75.5 -34q52 0 85.5 35t39.5 70h24q-9 -48 -50.5 -90t-103.5 -42z" />
    <glyph glyph-name="dotaccent" unicode="&#x2d9;" horiz-adv-x="454" 
d="M306 625q22 0 22 -23q0 -13 -10 -23t-22 -10q-23 0 -23 22q0 14 9.5 24t23.5 10z" />
    <glyph glyph-name="ring" unicode="&#x2da;" horiz-adv-x="454" 
d="M286 541q-31 0 -51 21.5t-20 52.5q0 41 29 69t72 28q32 0 51 -21t19 -52q0 -41 -28.5 -69.5t-71.5 -28.5zM313 693q-33 0 -54 -23t-21 -55q0 -23 14 -38.5t37 -15.5q36 0 56.5 23t20.5 55q0 23 -14.5 38.5t-38.5 15.5z" />
    <glyph glyph-name="ogonek" unicode="&#x2db;" horiz-adv-x="454" 
d="M346 15l7 -9q-94 -74 -94 -139q0 -41 56 -41q37 0 72 12l2 -13q-47 -21 -91 -21q-69 0 -69 52q0 31 29 76t88 83z" />
    <glyph glyph-name="tilde" unicode="&#x2dc;" horiz-adv-x="454" 
d="M349 600q37 0 70 43l19 -10q-34 -57 -90 -57q-23 0 -61.5 19t-53.5 19q-32 0 -65 -44l-21 11q33 57 88 57q23 0 62 -19t52 -19z" />
    <glyph glyph-name="hungarumlaut" unicode="&#x2dd;" horiz-adv-x="454" 
d="M221 548l-11 10l122 131l27 -24zM320 548l-11 10l122 131l27 -24z" />
    <glyph glyph-name="tonos" unicode="&#x384;" horiz-adv-x="454" 
d="M276 547l-13 9l106 143l30 -20z" />
    <glyph glyph-name="dieresistonos" unicode="&#x385;" horiz-adv-x="454" 
d="M274 542l-13 7l90 152l33 -15zM229 616q19 0 19 -20q0 -11 -8 -19t-19 -8q-18 0 -18 19q0 11 7.5 19.5t18.5 8.5zM386 616q19 0 19 -20q0 -11 -8 -19t-19 -8q-18 0 -18 19q0 11 8 19.5t18 8.5z" />
    <glyph glyph-name="Alphatonos" unicode="&#x386;" horiz-adv-x="549" 
d="M470 0l-37 187h-333l-101 -187h-29l365 674h32l132 -674h-29zM349 637h-6q-68 -130 -102 -192l-128 -232h318l-47 232q-6 32 -17 96t-18 96zM43 547l-13 9l106 143l30 -20z" />
    <glyph glyph-name="anoteleia" unicode="&#x387;" horiz-adv-x="182" 
d="M120 402q13 0 21.5 -8.5t8.5 -20.5q0 -17 -12.5 -29t-29.5 -12q-12 0 -20 8t-8 20q0 17 12.5 29.5t27.5 12.5z" />
    <glyph glyph-name="Epsilontonos" unicode="&#x388;" horiz-adv-x="503" 
d="M23 0l118 674h392l-4 -25h-365l-49 -276h343l-4 -25h-343l-57 -323h397l-4 -25h-424zM-67 547l-13 9l106 143l30 -20z" />
    <glyph glyph-name="Etatonos" unicode="&#x389;" horiz-adv-x="609" 
d="M478 0l60 344h-429l-60 -344h-26l119 675h26l-54 -306h429l54 306h28l-119 -675h-28zM-67 547l-13 9l106 143l30 -20z" />
    <glyph glyph-name="Iotatonos" unicode="&#x38a;" horiz-adv-x="191" 
d="M42 0l118 674h27l-118 -674h-27zM-45 547l-13 9l106 143l30 -20z" />
    <glyph glyph-name="Omicrontonos" unicode="&#x38c;" horiz-adv-x="638" 
d="M400 681q112 0 162 -66.5t50 -173.5q0 -66 -10.5 -127t-36 -120.5t-63.5 -103t-97.5 -70t-133.5 -26.5q-113 0 -162 60.5t-49 157.5q0 65 10.5 128t35.5 126t63 109.5t97.5 76t133.5 29.5zM395 657q-82 0 -144 -40t-96.5 -106t-51 -140t-16.5 -153q0 -201 187 -201
q140 0 225.5 110.5t85.5 318.5q0 211 -190 211zM-20 547l-13 9l106 143l30 -20z" />
    <glyph glyph-name="Upsilontonos" unicode="&#x38e;" horiz-adv-x="497" 
d="M251 302h6l128 174l145 198h35l-300 -402l-47 -272h-28l47 271l-149 403h28l71 -190q36 -96 64 -182zM-73 547l-13 9l106 143l30 -20z" />
    <glyph glyph-name="Omegatonos" unicode="&#x38f;" horiz-adv-x="652" 
d="M397 681q115 0 171 -68.5t56 -179.5q0 -84 -19.5 -161.5t-66 -144.5t-113.5 -97l-1 -4h136l-4 -26h-196l5 30q106 31 168.5 136.5t62.5 267.5q0 104 -52 163.5t-150 59.5q-146 0 -227 -122t-81 -313q0 -163 136 -193l-5 -29h-194l4 26h124l1 4q-46 22 -69.5 72.5
t-23.5 117.5q0 132 36.5 234.5t114.5 164.5t187 62zM-20 547l-13 9l106 143l30 -20z" />
    <glyph glyph-name="iotadieresistonos" unicode="&#x390;" horiz-adv-x="212" 
d="M135 478h25l-73 -412q-6 -31 5.5 -39.5t45.5 -8.5l-3 -23q-8 -1 -22 -1q-28 0 -41.5 10.5t-13 27t3.5 37.5zM146 542l-13 7l90 152l33 -15zM101 616q19 0 19 -20q0 -11 -8 -19t-19 -8q-18 0 -18 19q0 11 7.5 19.5t18.5 8.5zM258 616q19 0 19 -20q0 -11 -8 -19t-19 -8
q-18 0 -18 19q0 11 8 19.5t18 8.5z" />
    <glyph glyph-name="Alpha" unicode="&#x391;" horiz-adv-x="549" 
d="M470 0l-37 187h-333l-101 -187h-29l365 674h32l132 -674h-29zM349 637h-6q-68 -130 -102 -192l-128 -232h318l-47 232q-6 32 -17 96t-18 96z" />
    <glyph glyph-name="Beta" unicode="&#x392;" horiz-adv-x="577" 
d="M416 357l-1 -4q52 -17 79 -59t27 -96q0 -35 -13.5 -68.5t-40.5 -63t-75 -48t-109 -18.5h-260l118 674h249q77 0 122.5 -36t45.5 -105q0 -21 -5 -42t-18 -49t-43.5 -50.5t-75.5 -34.5zM337 344h-227l-56 -319h228q86 0 148.5 43.5t62.5 130.5q0 70 -46 107.5t-110 37.5z
M376 649h-212l-49 -280h224q79 0 135.5 41t56.5 123q0 116 -155 116z" />
    <glyph glyph-name="Gamma" unicode="&#x393;" horiz-adv-x="491" 
d="M23 0l118 674h407l-4 -26h-382l-114 -648h-25z" />
    <glyph glyph-name="Delta" unicode="&#x394;" horiz-adv-x="549" 
d="M499 0h-529l365 674h32zM349 637h-6q-67 -127 -124 -232l-206 -379h453l-73 384q-6 32 -21.5 113.5t-22.5 113.5z" />
    <glyph glyph-name="Delta" unicode="&#x2206;" horiz-adv-x="549" 
d="M499 0h-529l365 674h32zM349 637h-6q-67 -127 -124 -232l-206 -379h453l-73 384q-6 32 -21.5 113.5t-22.5 113.5z" />
    <glyph glyph-name="Epsilon" unicode="&#x395;" horiz-adv-x="503" 
d="M23 0l118 674h392l-4 -25h-365l-49 -276h343l-4 -25h-343l-57 -323h397l-4 -25h-424z" />
    <glyph glyph-name="Zeta" unicode="&#x396;" horiz-adv-x="513" 
d="M-16 0l4 26l531 624h-406l5 25h440l-5 -24l-532 -626h432l-4 -25h-465z" />
    <glyph glyph-name="Eta" unicode="&#x397;" horiz-adv-x="609" 
d="M478 0l60 344h-429l-60 -344h-26l119 675h26l-54 -306h429l54 306h28l-119 -675h-28z" />
    <glyph glyph-name="Theta" unicode="&#x398;" horiz-adv-x="655" 
d="M175 338l5 25h345l-5 -25h-345zM409 681q114 0 166 -65.5t52 -176.5q0 -65 -11 -126t-36.5 -120t-64 -102.5t-98 -70t-132.5 -26.5q-223 0 -223 234q0 200 91.5 326.5t255.5 126.5zM402 657q-143 0 -227.5 -119t-84.5 -309q0 -108 49.5 -160t148.5 -52q136 0 224 111.5
t88 307.5q0 221 -198 221z" />
    <glyph glyph-name="Iota" unicode="&#x399;" horiz-adv-x="191" 
d="M42 0l118 674h27l-118 -674h-27z" />
    <glyph glyph-name="Kappa" unicode="&#x39a;" horiz-adv-x="505" 
d="M167 674l-53 -305h129l288 305h34l-298 -316l189 -358h-31l-181 344h-135l-60 -344h-26l118 674h26z" />
    <glyph glyph-name="Lambda" unicode="&#x39b;" horiz-adv-x="549" 
d="M470 0l-86 445q-4 21 -16 88t-19 104h-6q-68 -130 -102 -192l-241 -445h-30l365 674h32l132 -674h-29z" />
    <glyph glyph-name="Mu" unicode="&#x39c;" horiz-adv-x="756" 
d="M192 674l112 -346l64 -191h6q57 88 137 204l225 333h32l-105 -674h-26l97 622h-4q-70 -107 -123 -185l-227 -334h-29l-120 365q-31 90 -49 155h-4l-134 -623h-26l143 674h31z" />
    <glyph glyph-name="Nu" unicode="&#x39d;" horiz-adv-x="614" 
d="M164 622h-6l-109 -622h-26l118 674h24l216 -417q9 -17 106 -208h5l109 625h26l-117 -674h-26l-232 443q-52 100 -88 179z" />
    <glyph glyph-name="Xi" unicode="&#x39e;" horiz-adv-x="533" 
d="M-4 25h484l-4 -25h-484zM97 374h384l-4 -25h-384zM554 649h-439l4 25h439z" />
    <glyph glyph-name="Omicron" unicode="&#x39f;" horiz-adv-x="638" 
d="M400 681q112 0 162 -66.5t50 -173.5q0 -66 -10.5 -127t-36 -120.5t-63.5 -103t-97.5 -70t-133.5 -26.5q-113 0 -162 60.5t-49 157.5q0 65 10.5 128t35.5 126t63 109.5t97.5 76t133.5 29.5zM395 657q-82 0 -144 -40t-96.5 -106t-51 -140t-16.5 -153q0 -201 187 -201
q140 0 225.5 110.5t85.5 318.5q0 211 -190 211z" />
    <glyph glyph-name="Pi" unicode="&#x3a0;" horiz-adv-x="609" 
d="M478 0l114 649h-429l-114 -649h-26l118 674h483l-118 -674h-28z" />
    <glyph glyph-name="Rho" unicode="&#x3a1;" horiz-adv-x="524" 
d="M310 269h-213l-47 -269h-27l118 674h238q86 0 131 -45.5t45 -122.5q0 -31 -6.5 -61.5t-24 -63t-44.5 -57t-71 -40t-99 -15.5zM370 649h-206l-62 -354h204q42 0 78.5 10t70 33t52.5 65.5t19 101.5q0 69 -41 106.5t-115 37.5z" />
    <glyph glyph-name="Sigma" unicode="&#x3a3;" horiz-adv-x="529" 
d="M-1 28l267 332l-155 288l5 27h460l-5 -25h-430l158 -290l-268 -334h433l-4 -26h-465z" />
    <glyph glyph-name="Tau" unicode="&#x3a4;" horiz-adv-x="518" 
d="M349 649l-114 -649h-28l114 649h-232l4 25h488l-4 -25h-228z" />
    <glyph glyph-name="Upsilon" unicode="&#x3a5;" horiz-adv-x="497" 
d="M251 302h6l128 174l145 198h35l-300 -402l-47 -272h-28l47 271l-149 403h28l71 -190q36 -96 64 -182z" />
    <glyph glyph-name="Phi" unicode="&#x3a6;" horiz-adv-x="695" 
d="M440 675l-5 -29q124 -6 178 -68.5t54 -161.5q0 -60 -17 -117t-53.5 -111t-105 -89.5t-159.5 -40.5l-10 -58h-28l10 57q-124 6 -182.5 66t-58.5 157q0 158 90.5 259.5t253.5 106.5l5 29h28zM403 623q-153 -7 -233.5 -101t-80.5 -245q0 -185 219 -197zM431 623l-95 -543
q139 8 221.5 98t82.5 241q0 195 -209 204z" />
    <glyph glyph-name="Chi" unicode="&#x3a7;" horiz-adv-x="508" 
d="M427 0l-156 326l-269 -326h-34l291 349l-155 325h28l143 -303l251 303h32l-269 -325l168 -349h-30z" />
    <glyph glyph-name="Psi" unicode="&#x3a8;" horiz-adv-x="652" 
d="M275 0l32 187q-142 9 -194.5 80t-31.5 188l38 219h27l-38 -216q-21 -122 31 -180t173 -64l81 460h28l-81 -461q243 6 285 246l38 215h27l-38 -218q-45 -259 -317 -269l-32 -187h-28z" />
    <glyph glyph-name="Omega" unicode="&#x3a9;" horiz-adv-x="652" 
d="M397 681q115 0 171 -68.5t56 -179.5q0 -84 -19.5 -161.5t-66 -144.5t-113.5 -97l-1 -4h136l-4 -26h-196l5 30q106 31 168.5 136.5t62.5 267.5q0 104 -52 163.5t-150 59.5q-146 0 -227 -122t-81 -313q0 -163 136 -193l-5 -29h-194l4 26h124l1 4q-46 22 -69.5 72.5
t-23.5 117.5q0 132 36.5 234.5t114.5 164.5t187 62z" />
    <glyph glyph-name="Iotadieresis" unicode="&#x3aa;" horiz-adv-x="191" 
d="M42 0l118 674h27l-118 -674h-27zM122 798q19 0 19 -20q0 -11 -8 -19t-19 -8q-18 0 -18 19q0 11 8 19.5t18 8.5zM271 798q19 0 19 -21q0 -10 -8.5 -18t-18.5 -8q-19 0 -19 19q0 11 8 19.5t19 8.5z" />
    <glyph glyph-name="Upsilondieresis" unicode="&#x3ab;" horiz-adv-x="497" 
d="M251 302h6l128 174l145 198h35l-300 -402l-47 -272h-28l47 271l-149 403h28l71 -190q36 -96 64 -182zM267 790q19 0 19 -20q0 -11 -8 -19t-19 -8q-18 0 -18 19q0 11 8 19.5t18 8.5zM416 790q19 0 19 -21q0 -10 -8.5 -18t-18.5 -8q-19 0 -19 19q0 11 8 19.5t19 8.5z" />
    <glyph glyph-name="alphatonos" unicode="&#x3ac;" horiz-adv-x="500" 
d="M208 16q85 0 139 66t72 168q39 213 -129 213q-99 0 -160 -86t-61 -222q0 -139 139 -139zM485 478l-84 -478h-20q-4 29 10 93h-4q-71 -101 -186 -101q-84 0 -122 44t-38 118q0 141 66.5 236.5t184.5 95.5q117 0 149 -86h4q11 60 20 78h20zM297 547l-13 9l106 143l30 -20z
" />
    <glyph glyph-name="epsilontonos" unicode="&#x3ad;" horiz-adv-x="428" 
d="M187 15q150 0 177 133h21q-1 -12 -5 -27q-18 -63 -71.5 -96t-121.5 -33q-87 0 -124 34.5t-37 87.5q0 40 24.5 83.5t79.5 62.5v4q-56 21 -56 81q0 58 49.5 99.5t140.5 41.5q63 0 103.5 -28.5t40.5 -78.5q0 -17 -5 -34h-21q10 59 -25.5 88.5t-96.5 29.5q-66 0 -111.5 -30.5
t-45.5 -90.5q0 -35 26.5 -52t62.5 -17h94l-5 -25h-98q-55 0 -92 -40t-37 -95q0 -98 133 -98zM251 547l-13 9l106 143l30 -20z" />
    <glyph glyph-name="etatonos" unicode="&#x3ae;" horiz-adv-x="491" 
d="M259 547l-13 9l106 143l30 -20zM18 0l84 478h21q0 -31 -13 -93h4q76 102 193 102q52 0 85 -18t44.5 -47.5t13.5 -67.5t-7 -77l-72 -422h-28l70 412q5 27 7 44.5t2.5 43t-6.5 42t-19.5 33t-37.5 24.5t-59 8q-82 0 -141 -62.5t-73 -147.5l-42 -252h-26z" />
    <glyph glyph-name="iotatonos" unicode="&#x3af;" horiz-adv-x="212" 
d="M145 547l-13 9l106 143l30 -20zM135 478h25l-73 -412q-6 -31 5.5 -39.5t45.5 -8.5l-3 -23q-8 -1 -22 -1q-28 0 -41.5 10.5t-13 27t3.5 37.5z" />
    <glyph glyph-name="upsilondieresistonos" unicode="&#x3b0;" horiz-adv-x="494" 
d="M485 478l-50 -285q-18 -101 -76.5 -151t-149.5 -50t-135.5 51.5t-28.5 144.5l52 290h27l-52 -293q-15 -85 25.5 -127.5t116.5 -42.5q71 0 124.5 42t69.5 134l50 287h27zM279 542l-13 7l90 152l33 -15zM234 616q19 0 19 -20q0 -11 -8 -19t-19 -8q-18 0 -18 19
q0 11 7.5 19.5t18.5 8.5zM391 616q19 0 19 -20q0 -11 -8 -19t-19 -8q-18 0 -18 19q0 11 8 19.5t18 8.5z" />
    <glyph glyph-name="alpha" unicode="&#x3b1;" horiz-adv-x="500" 
d="M208 16q85 0 139 66t72 168q39 213 -129 213q-99 0 -160 -86t-61 -222q0 -139 139 -139zM485 478l-84 -478h-20q-4 29 10 93h-4q-71 -101 -186 -101q-84 0 -122 44t-38 118q0 141 66.5 236.5t184.5 95.5q117 0 149 -86h4q11 60 20 78h20z" />
    <glyph glyph-name="beta" unicode="&#x3b2;" horiz-adv-x="498" 
d="M18 -150h-27l116 660q17 94 71 150.5t142 56.5q73 0 112.5 -37.5t39.5 -95.5q0 -47 -25.5 -92t-86.5 -67l-1 -4q96 -24 96 -150q0 -70 -24 -132t-78 -104.5t-129 -42.5q-132 0 -160 101h-4zM314 693q-149 0 -182 -198l-50 -285q-5 -28 -5 -49q0 -64 35 -105t108 -41
q95 0 151 69t56 182q0 42 -11.5 71.5t-30.5 44t-38 20.5t-41 6h-68l5 25h57q59 0 101 43.5t42 100.5q0 116 -129 116z" />
    <glyph glyph-name="gamma" unicode="&#x3b3;" horiz-adv-x="402" 
d="M173 60h4l101 189l125 229h29l-249 -458l-40 -225h-29l40 224l-65 398q-4 25 -9.5 31.5t-27.5 7.5l1 25q15 3 26 3q17 0 24 -11t12 -39l27 -169q9 -58 31 -205z" />
    <glyph glyph-name="delta" unicode="&#x3b4;" horiz-adv-x="505" 
d="M216 15q105 1 163 84t58 180q0 95 -42 160q-41 7 -82 7q-111 0 -177.5 -75.5t-66.5 -210.5q0 -145 147 -145zM506 673h-304q86 -66 139 -120t87 -121t34 -138q0 -138 -72 -220t-183 -82q-84 0 -124 46.5t-40 125.5q0 36 6.5 73.5t25.5 80t47.5 75.5t77.5 54.5t111 21.5
q38 0 69 -5q-71 102 -222 206l5 28h348z" />
    <glyph glyph-name="epsilon" unicode="&#x3b5;" horiz-adv-x="428" 
d="M187 15q150 0 177 133h21q-1 -12 -5 -27q-18 -63 -71.5 -96t-121.5 -33q-87 0 -124 34.5t-37 87.5q0 40 24.5 83.5t79.5 62.5v4q-56 21 -56 81q0 58 49.5 99.5t140.5 41.5q63 0 103.5 -28.5t40.5 -78.5q0 -17 -5 -34h-21q10 59 -25.5 88.5t-96.5 29.5q-66 0 -111.5 -30.5
t-45.5 -90.5q0 -35 26.5 -52t62.5 -17h94l-5 -25h-98q-55 0 -92 -40t-37 -95q0 -98 133 -98z" />
    <glyph glyph-name="zeta" unicode="&#x3b6;" horiz-adv-x="377" 
d="M231 20q53 -26 74.5 -42.5t21.5 -37.5q0 -12 -21.5 -43.5t-61.5 -70.5l-19 14q69 76 69 98q0 13 -21 27.5t-71 38.5q-86 41 -125.5 79t-39.5 96q0 49 27.5 104t64.5 101t101 104.5t111 96.5t120 93h-312l4 25h344l-4 -27q-97 -76 -160 -129.5t-131.5 -122t-102.5 -128
t-34 -111.5q0 -56 39 -90t127 -75z" />
    <glyph glyph-name="eta" unicode="&#x3b7;" horiz-adv-x="491" 
d="M18 0l84 478h21q0 -31 -13 -93h4q76 102 193 102q52 0 85 -18t44.5 -47.5t13.5 -67.5t-7 -77l-72 -422h-28l70 412q5 27 7 44.5t2.5 43t-6.5 42t-19.5 33t-37.5 24.5t-59 8q-82 0 -141 -62.5t-73 -147.5l-42 -252h-26z" />
    <glyph glyph-name="theta" unicode="&#x3b8;" horiz-adv-x="513" 
d="M334 717q85 1 123 -58t38 -162q0 -56 -9.5 -120.5t-32.5 -133.5t-55 -124.5t-82.5 -91t-109.5 -35.5q-158 0 -158 199q0 64 9 132.5t31 139.5t54 126.5t81.5 91.5t110.5 36zM210 14q64 0 117 54t84.5 131.5t47.5 170.5h-367q-18 -90 -18 -187q0 -169 136 -169zM333 694
q-90 0 -149 -85t-88 -216h367q8 61 8 111q0 190 -138 190z" />
    <glyph glyph-name="iota" unicode="&#x3b9;" horiz-adv-x="212" 
d="M135 478h25l-73 -412q-6 -31 5.5 -39.5t45.5 -8.5l-3 -23q-8 -1 -22 -1q-28 0 -41.5 10.5t-13 27t3.5 37.5z" />
    <glyph glyph-name="kappa" unicode="&#x3ba;" horiz-adv-x="418" 
d="M410 478h33l-215 -218l140 -260h-30l-132 247h-119l-43 -247h-26l84 478h26l-36 -205h115z" />
    <glyph glyph-name="lambda" unicode="&#x3bb;" horiz-adv-x="419" 
d="M254 454h-4l-102 -184l-151 -270h-27l267 479h14l-19 131q-6 47 -19.5 61.5t-45.5 14.5h-28l5 25h37q40 0 54 -21.5t23 -81.5l79 -552q3 -20 7.5 -25.5t17.5 -5.5q6 0 12 1l1 -19q-18 -7 -30 -7q-16 0 -22 8.5t-9 28.5l-33 229q-4 27 -12.5 91t-14.5 97z" />
    <glyph glyph-name="nu" unicode="&#x3bd;" horiz-adv-x="405" 
d="M157 30h4l151 256q36 60 50 98.5t24 93.5h27q-11 -64 -27.5 -108t-54.5 -105l-161 -267h-33l-83 480h28l29 -170q4 -23 14 -78.5t18.5 -106.5t13.5 -93z" />
    <glyph glyph-name="xi" unicode="&#x3be;" horiz-adv-x="401" 
d="M329 714q60 0 102 -27.5t42 -77.5q0 -9 -5 -36h-20q10 60 -27.5 89t-96.5 29q-82 0 -128 -45.5t-46 -109.5q0 -58 47 -84.5t106 -26.5h88l-4 -26h-98q-101 0 -162 -66.5t-61 -143.5q0 -52 45.5 -87.5t153.5 -75.5q46 -17 63.5 -30.5t17.5 -30.5q0 -20 -20.5 -54
t-53.5 -66l-17 14q22 26 36.5 49.5t18.5 34.5t4 16q0 20 -70 47q-115 45 -160 82t-45 102q0 68 45 131t134 89l1 5q-97 30 -97 123q0 72 54 124t153 52z" />
    <glyph glyph-name="omicron" unicode="&#x3bf;" horiz-adv-x="505" 
d="M298 486q86 0 125.5 -49.5t39.5 -131.5q0 -59 -14 -112.5t-42.5 -99.5t-78.5 -73.5t-116 -27.5q-169 0 -169 171q0 139 67 231t188 92zM296 463q-108 0 -167.5 -86t-59.5 -216q0 -146 148 -146q96 0 158 74.5t62 214.5q0 74 -35 116.5t-106 42.5z" />
    <glyph glyph-name="pi" unicode="&#x3c0;" horiz-adv-x="502" 
d="M456 453h-333l-79 -453h-26l84 478h386l-84 -478h-27z" />
    <glyph glyph-name="rho" unicode="&#x3c1;" horiz-adv-x="504" 
d="M-17 -197l77 435q44 248 234 248q168 0 168 -181q0 -56 -12.5 -107.5t-39.5 -99.5t-78 -77t-120 -29q-54 0 -95 24t-53 74h-5l-50 -287h-26zM214 16q105 0 162.5 77.5t57.5 206.5q0 83 -34.5 123t-109.5 40q-88 0 -137 -63t-67 -163q-7 -38 -8 -71q-4 -150 136 -150z" />
    <glyph glyph-name="sigma1" unicode="&#x3c2;" horiz-adv-x="431" 
d="M290 486q61 0 102 -26.5t41 -78.5q0 -23 -5 -36h-20q9 58 -26.5 88t-96.5 30q-46 0 -83 -16.5t-60 -43t-38.5 -62t-21.5 -71t-6 -73.5q0 -51 32 -82.5t115 -70.5q51 -25 73 -42.5t22 -39.5q0 -15 -18 -48t-56 -69l-18 14q60 68 60 98q0 27 -94 71q-82 39 -113 75t-31 97
q0 54 13 102.5t40 91t75.5 67.5t113.5 25z" />
    <glyph glyph-name="sigma" unicode="&#x3c3;" horiz-adv-x="511" 
d="M397 457l-3 -4q68 -37 68 -155q0 -50 -12 -99.5t-38.5 -98t-78 -78.5t-120.5 -30q-171 0 -171 167q0 83 25.5 153t85.5 118t146 48h229l-5 -25h-37q-60 0 -89 4zM295 455q-76 0 -129 -45.5t-75 -111t-22 -143.5q0 -140 148 -140q99 0 159 77t60 206q0 76 -32.5 116.5
t-108.5 40.5z" />
    <glyph glyph-name="tau" unicode="&#x3c4;" horiz-adv-x="340" 
d="M356 453h-154l-55 -309q-12 -69 6 -98t80 -29q40 0 61 3l-3 -23q-23 -3 -65 -3q-74 0 -96.5 36t-7.5 120l53 303h-132l5 25h313z" />
    <glyph glyph-name="upsilon" unicode="&#x3c5;" horiz-adv-x="494" 
d="M485 478l-50 -285q-18 -101 -76.5 -151t-149.5 -50t-135.5 51.5t-28.5 144.5l52 290h27l-52 -293q-15 -85 25.5 -127.5t116.5 -42.5q71 0 124.5 42t69.5 134l50 287h27z" />
    <glyph glyph-name="phi" unicode="&#x3c6;" horiz-adv-x="598" 
d="M246 16l83 468h30q102 0 149.5 -51t47.5 -133q0 -54 -14 -103t-44.5 -95.5t-89 -76t-138.5 -31.5l-32 -191h-28l32 191q-197 12 -197 189q0 97 43.5 173.5t124.5 111.5l9 -19q-70 -29 -111 -102.5t-41 -164.5q0 -83 44.5 -122t131.5 -44zM352 461l-79 -445
q123 2 190.5 78.5t67.5 208.5q0 157 -179 158z" />
    <glyph glyph-name="chi" unicode="&#x3c7;" horiz-adv-x="395" 
d="M314 0l-116 225l-193 -225h-35l213 247l-119 231h30l107 -211l180 211h34l-200 -231l129 -247h-30z" />
    <glyph glyph-name="psi" unicode="&#x3c8;" horiz-adv-x="571" 
d="M192 -197l34 190q-99 5 -145.5 60.5t-27.5 162.5l47 262h27l-47 -260q-33 -192 150 -202l82 462h27l-82 -462q193 5 225 186l49 276h28l-49 -278q-36 -204 -257 -207l-34 -190h-27z" />
    <glyph glyph-name="omega" unicode="&#x3c9;" horiz-adv-x="754" 
d="M489 15q54 0 94 26.5t61 71t31 94.5t10 106q0 146 -135 151l5 24q158 -6 158 -172q0 -41 -5.5 -81.5t-21 -86t-39.5 -79t-66 -55.5t-96 -22q-55 0 -87.5 27t-43.5 66h-4q-61 -93 -165 -93q-145 0 -145 155q0 151 64.5 246.5t183.5 93.5l-5 -24q-73 -1 -122.5 -45
t-71 -112t-21.5 -156q0 -66 27 -100.5t94 -34.5q62 0 107.5 43t55.5 101l27 157h27l-29 -167q-7 -55 20.5 -94.5t91.5 -39.5z" />
    <glyph glyph-name="iotadieresis" unicode="&#x3ca;" horiz-adv-x="212" 
d="M135 478h25l-73 -412q-6 -31 5.5 -39.5t45.5 -8.5l-3 -23q-8 -1 -22 -1q-28 0 -41.5 10.5t-13 27t3.5 37.5zM92 616q19 0 19 -20q0 -11 -8 -19t-19 -8q-18 0 -18 19q0 11 7.5 19.5t18.5 8.5zM240 616q20 0 20 -21q0 -10 -8.5 -18t-19.5 -8q-18 0 -18 19q0 11 8 19.5
t18 8.5z" />
    <glyph glyph-name="upsilondieresis" unicode="&#x3cb;" horiz-adv-x="494" 
d="M485 478l-50 -285q-18 -101 -76.5 -151t-149.5 -50t-135.5 51.5t-28.5 144.5l52 290h27l-52 -293q-15 -85 25.5 -127.5t116.5 -42.5q71 0 124.5 42t69.5 134l50 287h27zM241 616q19 0 19 -20q0 -11 -8 -19t-19 -8q-18 0 -18 19q0 11 7.5 19.5t18.5 8.5zM389 616
q20 0 20 -21q0 -10 -8.5 -18t-19.5 -8q-18 0 -18 19q0 11 8 19.5t18 8.5z" />
    <glyph glyph-name="omicrontonos" unicode="&#x3cc;" horiz-adv-x="505" 
d="M298 486q86 0 125.5 -49.5t39.5 -131.5q0 -59 -14 -112.5t-42.5 -99.5t-78.5 -73.5t-116 -27.5q-169 0 -169 171q0 139 67 231t188 92zM296 463q-108 0 -167.5 -86t-59.5 -216q0 -146 148 -146q96 0 158 74.5t62 214.5q0 74 -35 116.5t-106 42.5zM304 547l-13 9l106 143
l30 -20z" />
    <glyph glyph-name="upsilontonos" unicode="&#x3cd;" horiz-adv-x="494" 
d="M485 478l-50 -285q-18 -101 -76.5 -151t-149.5 -50t-135.5 51.5t-28.5 144.5l52 290h27l-52 -293q-15 -85 25.5 -127.5t116.5 -42.5q71 0 124.5 42t69.5 134l50 287h27zM284 547l-13 9l106 143l30 -20z" />
    <glyph glyph-name="omegatonos" unicode="&#x3ce;" horiz-adv-x="754" 
d="M489 15q54 0 94 26.5t61 71t31 94.5t10 106q0 146 -135 151l5 24q158 -6 158 -172q0 -41 -5.5 -81.5t-21 -86t-39.5 -79t-66 -55.5t-96 -22q-55 0 -87.5 27t-43.5 66h-4q-61 -93 -165 -93q-145 0 -145 155q0 151 64.5 246.5t183.5 93.5l-5 -24q-73 -1 -122.5 -45
t-71 -112t-21.5 -156q0 -66 27 -100.5t94 -34.5q62 0 107.5 43t55.5 101l27 157h27l-29 -167q-7 -55 20.5 -94.5t91.5 -39.5zM403 547l-13 9l106 143l30 -20z" />
    <glyph glyph-name="Sampigreek" unicode="&#x3e0;" horiz-adv-x="601" 
d="M95 642l3 10q218 -13 330 -124.5t112 -290.5q0 -143 -70 -306l-12 2q53 159 53 280q0 47 -7 85l-340 -179l-8 22l343 170q-11 83 -55 144l-336 -176l-10 20l336 170q-102 145 -339 173z" />
    <glyph glyph-name="sampigreek" unicode="&#x3e1;" horiz-adv-x="513" 
d="M80 475l3 10q176 -12 263 -103t87 -240q0 -127 -58 -272l-12 2q44 136 44 254q0 21 -4 59l-259 -146l-9 20l264 142q-15 63 -43 114l-257 -143l-11 21l260 135q-44 65 -108 100.5t-160 46.5z" />
    <glyph glyph-name="afii10023" unicode="&#x401;" horiz-adv-x="503" 
d="M23 0l118 674h392l-4 -25h-365l-49 -276h343l-4 -25h-343l-57 -323h397l-4 -25h-424zM286 798q19 0 19 -20q0 -11 -8 -19t-19 -8q-18 0 -18 19q0 11 8 19.5t18 8.5zM435 798q19 0 19 -21q0 -10 -8.5 -18t-18.5 -8q-19 0 -19 19q0 11 8 19.5t19 8.5z" />
    <glyph glyph-name="afii10051" unicode="&#x402;" horiz-adv-x="734" 
d="M280 390l4 -2q97 79 211 79q91 0 135 -58.5t44 -139.5q0 -36 -5.5 -74t-23 -83.5t-44 -80t-74 -58t-108.5 -23.5q-13 0 -21 1l4 22q123 -4 183.5 81t60.5 217q0 71 -37 121t-121 50q-110 0 -214 -93l-61 -349h-26l114 649h-217l4 25h557l-4 -25h-314z" />
    <glyph glyph-name="afii10052" unicode="&#x403;" horiz-adv-x="491" 
d="M23 0l118 674h407l-4 -26h-382l-114 -648h-25zM307 741l-7 13l146 99l18 -31z" />
    <glyph glyph-name="afii10053" unicode="&#x404;" horiz-adv-x="558" 
d="M279 18q101 0 158 51t67 120h25q-1 -9 -5 -27q-21 -80 -88 -124t-161 -44q-214 0 -214 229q0 83 19 161t57 146t104.5 109.5t152.5 41.5q77 0 129 -37t52 -104q0 -21 -5 -39h-23q2 18 2 27q0 55 -38.5 91.5t-125.5 36.5q-60 0 -109 -24.5t-82.5 -67.5t-55.5 -92.5
t-35 -107.5h331l-5 -24h-331q-10 -57 -10 -115q0 -207 191 -207z" />
    <glyph glyph-name="afii10054" unicode="&#x405;" horiz-adv-x="573" 
d="M260 19q66 0 115 17t74 45t37 57t12 59q0 61 -39 93t-141 54q-54 12 -86 21.5t-61.5 25t-42.5 39t-13 56.5q0 83 66 139.5t190 56.5q81 0 137 -36.5t56 -107.5q0 -20 -6 -48h-24q3 18 3 35q0 58 -41 94.5t-130 36.5q-109 0 -165.5 -49.5t-56.5 -119.5q0 -49 44.5 -73
t155.5 -48q90 -19 137 -55.5t47 -107.5q0 -92 -69.5 -150.5t-201.5 -58.5q-104 0 -164.5 40t-60.5 115q0 31 8 55h25q-6 -27 -6 -48q0 -72 57 -104.5t144 -32.5z" />
    <glyph glyph-name="afii10055" unicode="&#x406;" horiz-adv-x="191" 
d="M42 0l118 674h27l-118 -674h-27z" />
    <glyph glyph-name="afii10056" unicode="&#x407;" horiz-adv-x="191" 
d="M42 0l118 674h27l-118 -674h-27zM120 795q19 0 19 -20q0 -11 -8 -19t-19 -8q-18 0 -18 19q0 11 7.5 19.5t18.5 8.5zM268 795q20 0 20 -21q0 -10 -8.5 -18t-19.5 -8q-18 0 -18 19q0 11 8 19.5t18 8.5z" />
    <glyph glyph-name="afii10057" unicode="&#x408;" horiz-adv-x="516" 
d="M193 19q191 0 225 195l81 460h27l-82 -466q-38 -214 -255 -214q-85 0 -134.5 35.5t-49.5 101.5q0 30 6 48h24q-4 -17 -4 -39q0 -54 38 -87.5t124 -33.5z" />
    <glyph glyph-name="afii10058" unicode="&#x409;" horiz-adv-x="941" 
d="M554 674l-51 -291h225q180 0 180 -158q0 -97 -67 -161t-174 -64h-258l114 650l-244 -1l-78 -306q-22 -88 -36 -135.5t-32.5 -96t-36.5 -70.5t-42.5 -35.5t-57.5 -14.5q-10 0 -16 1l4 23q49 0 77.5 27t56 104t70.5 250l69 278h297zM498 357l-58 -331h223q90 0 153 54
t63 143q0 134 -156 134h-225z" />
    <glyph glyph-name="afii10059" unicode="&#x40a;" horiz-adv-x="896" 
d="M403 25h218q90 -1 153 54t63 144q0 134 -156 134h-220zM372 0l62 357h-325l-62 -357h-26l119 675h26l-52 -292h325l51 291h27l-51 -291h220q180 0 180 -158q0 -97 -67 -161t-174 -64h-253z" />
    <glyph glyph-name="afii10060" unicode="&#x40b;" horiz-adv-x="718" 
d="M260 389l4 -1q41 35 109 57t125 22q104 0 140.5 -57.5t20.5 -146.5l-46 -263h-27l45 257q33 185 -139 185q-58 0 -126.5 -25t-112.5 -68l-61 -349h-26l114 650h-215l4 24h556l-4 -24h-315z" />
    <glyph glyph-name="afii10061" unicode="&#x40c;" horiz-adv-x="505" 
d="M167 674l-53 -305h129l288 305h34l-298 -316l189 -358h-31l-181 344h-135l-60 -344h-26l118 674h26zM284 732l-7 13l146 99l18 -31z" />
    <glyph glyph-name="afii10062" unicode="&#x40e;" horiz-adv-x="470" 
d="M234 207h4l271 467h29l-318 -552q-44 -76 -79.5 -105t-104.5 -29h-22l4 25h20q44 0 77 17.5t60 64.5l52 89l-13 -1l-131 491h27zM315 704q-64 0 -90 39t-18 86h24q-7 -36 14 -67t76 -31q53 0 83.5 31.5t36.5 66.5h22q-9 -48 -47.5 -86.5t-100.5 -38.5z" />
    <glyph glyph-name="afii10145" unicode="&#x40f;" horiz-adv-x="609" 
d="M623 675l-117 -675h-226l-31 -174h-28l31 174h-229l119 675h27l-115 -649h426l115 649h28z" />
    <glyph glyph-name="afii10017" unicode="&#x410;" horiz-adv-x="549" 
d="M470 0l-37 187h-333l-101 -187h-29l365 674h32l132 -674h-29zM349 637h-6q-68 -130 -102 -192l-128 -232h318l-47 232q-6 32 -17 96t-18 96z" />
    <glyph glyph-name="afii10018" unicode="&#x411;" horiz-adv-x="566" 
d="M23 0l118 673h409l-4 -23h-382l-47 -267h225q180 0 180 -158q0 -97 -67 -161t-174 -64h-258zM54 25h223q90 0 153 54.5t63 143.5q0 134 -156 134h-225z" />
    <glyph glyph-name="afii10019" unicode="&#x412;" horiz-adv-x="577" 
d="M416 357l-1 -4q52 -17 79 -59t27 -96q0 -35 -13.5 -68.5t-40.5 -63t-75 -48t-109 -18.5h-260l118 674h249q77 0 122.5 -36t45.5 -105q0 -21 -5 -42t-18 -49t-43.5 -50.5t-75.5 -34.5zM337 344h-227l-56 -319h228q86 0 148.5 43.5t62.5 130.5q0 70 -46 107.5t-110 37.5z
M376 649h-212l-49 -280h224q79 0 135.5 41t56.5 123q0 116 -155 116z" />
    <glyph glyph-name="afii10020" unicode="&#x413;" horiz-adv-x="491" 
d="M23 0l118 674h407l-4 -26h-382l-114 -648h-25z" />
    <glyph glyph-name="afii10021" unicode="&#x414;" horiz-adv-x="630" 
d="M576 25l-32 -179h-28l28 154h-549l-28 -154h-26l31 179h56q48 60 86.5 156.5t79.5 261.5l58 231h378l-114 -649h60zM599 649h-327l-51 -200q-24 -92 -42.5 -156t-52 -143.5t-68.5 -124.5h431z" />
    <glyph glyph-name="afii10022" unicode="&#x415;" horiz-adv-x="503" 
d="M23 0l118 674h392l-4 -25h-365l-49 -276h343l-4 -25h-343l-57 -323h397l-4 -25h-424z" />
    <glyph glyph-name="afii10024" unicode="&#x416;" horiz-adv-x="817" 
d="M420 369l53 305h26l-53 -305h103l301 305h32l-311 -316l202 -358h-29l-192 344h-111l-60 -344h-26l60 344h-104l-312 -344h-36l328 358l-201 316h28l194 -305h108z" />
    <glyph glyph-name="afii10025" unicode="&#x417;" horiz-adv-x="544" 
d="M232 15q110 0 174 57.5t64 139.5q0 54 -32.5 91.5t-109.5 37.5h-101l4 25h96q96 0 142.5 48.5t46.5 114.5q0 55 -43.5 91.5t-128.5 36.5q-99 0 -156.5 -47t-63.5 -110h-23q0 14 1 20q10 73 82.5 117t155.5 44q102 0 153.5 -41t51.5 -109q0 -64 -39 -112t-102 -64v-4
q47 -11 71 -47.5t24 -88.5q0 -91 -71 -157t-197 -66q-99 0 -154.5 42t-55.5 115q0 20 4 39h23q-3 -15 -3 -31q0 -59 46 -100.5t141 -41.5z" />
    <glyph glyph-name="afii10026" unicode="&#x418;" horiz-adv-x="614" 
d="M595 624h-6q-78 -95 -152 -181l-387 -443h-27l118 674h28l-109 -622h5q118 138 179 207l361 415h24l-118 -674h-26z" />
    <glyph glyph-name="afii10027" unicode="&#x419;" horiz-adv-x="614" 
d="M595 624h-6q-78 -95 -152 -181l-387 -443h-27l118 674h28l-109 -622h5q118 138 179 207l361 415h24l-118 -674h-26zM388 717q-63 0 -89.5 42t-18.5 90h24q-7 -37 13.5 -71t75.5 -34q52 0 85.5 35t39.5 70h24q-9 -48 -50.5 -90t-103.5 -42z" />
    <glyph glyph-name="afii10028" unicode="&#x41a;" horiz-adv-x="505" 
d="M167 674l-53 -305h129l288 305h34l-298 -316l189 -358h-31l-181 344h-135l-60 -344h-26l118 674h26z" />
    <glyph glyph-name="afii10029" unicode="&#x41b;" horiz-adv-x="590" 
d="M-12 -8l4 23q29 0 49 10t37 30.5t34 69.5t33.5 107.5t42.5 163.5l69 278h348l-118 -674h-27l114 649h-295l-78 -306q-53 -206 -77 -261q-34 -74 -88 -87q-15 -4 -32 -4q-10 0 -16 1z" />
    <glyph glyph-name="afii10030" unicode="&#x41c;" horiz-adv-x="756" 
d="M192 674l112 -346l64 -191h6q57 88 137 204l225 333h32l-105 -674h-26l97 622h-4q-70 -107 -123 -185l-227 -334h-29l-120 365q-31 90 -49 155h-4l-134 -623h-26l143 674h31z" />
    <glyph glyph-name="afii10031" unicode="&#x41d;" horiz-adv-x="609" 
d="M478 0l60 344h-429l-60 -344h-26l119 675h26l-54 -306h429l54 306h28l-119 -675h-28z" />
    <glyph glyph-name="afii10032" unicode="&#x41e;" horiz-adv-x="638" 
d="M400 681q112 0 162 -66.5t50 -173.5q0 -66 -10.5 -127t-36 -120.5t-63.5 -103t-97.5 -70t-133.5 -26.5q-113 0 -162 60.5t-49 157.5q0 65 10.5 128t35.5 126t63 109.5t97.5 76t133.5 29.5zM395 657q-82 0 -144 -40t-96.5 -106t-51 -140t-16.5 -153q0 -201 187 -201
q140 0 225.5 110.5t85.5 318.5q0 211 -190 211z" />
    <glyph glyph-name="afii10033" unicode="&#x41f;" horiz-adv-x="609" 
d="M478 0l114 649h-429l-114 -649h-26l118 674h483l-118 -674h-28z" />
    <glyph glyph-name="afii10034" unicode="&#x420;" horiz-adv-x="524" 
d="M310 269h-213l-47 -269h-27l118 674h238q86 0 131 -45.5t45 -122.5q0 -31 -6.5 -61.5t-24 -63t-44.5 -57t-71 -40t-99 -15.5zM370 649h-206l-62 -354h204q42 0 78.5 10t70 33t52.5 65.5t19 101.5q0 69 -41 106.5t-115 37.5z" />
    <glyph glyph-name="afii10035" unicode="&#x421;" horiz-adv-x="564" 
d="M279 18q101 0 158 51t67 120h25q-1 -9 -5 -27q-21 -80 -88 -124t-161 -44q-214 0 -214 229q0 83 19 161t57 146t104.5 109.5t152.5 41.5q77 0 129 -37t52 -104q0 -21 -5 -39h-23q2 18 2 27q0 55 -38.5 91.5t-125.5 36.5q-78 0 -138.5 -42.5t-93.5 -110t-49 -138.5
t-16 -140q0 -207 191 -207z" />
    <glyph glyph-name="afii10036" unicode="&#x422;" horiz-adv-x="518" 
d="M349 649l-114 -649h-28l114 649h-232l4 25h488l-4 -25h-228z" />
    <glyph glyph-name="afii10037" unicode="&#x423;" horiz-adv-x="470" 
d="M234 207h4l271 467h29l-318 -552q-44 -76 -79.5 -105t-104.5 -29h-22l4 25h20q44 0 77 17.5t60 64.5l52 89l-13 -1l-131 491h27z" />
    <glyph glyph-name="afii10038" unicode="&#x424;" horiz-adv-x="695" 
d="M440 675l-5 -29q124 -6 178 -68.5t54 -161.5q0 -60 -17 -117t-53.5 -111t-105 -89.5t-159.5 -40.5l-10 -58h-28l10 57q-124 6 -182.5 66t-58.5 157q0 158 90.5 259.5t253.5 106.5l5 29h28zM403 623q-153 -7 -233.5 -101t-80.5 -245q0 -185 219 -197zM431 623l-95 -543
q139 8 221.5 98t82.5 241q0 195 -209 204z" />
    <glyph glyph-name="afii10039" unicode="&#x425;" horiz-adv-x="508" 
d="M427 0l-156 326l-269 -326h-34l291 349l-155 325h28l143 -303l251 303h32l-269 -325l168 -349h-30z" />
    <glyph glyph-name="afii10040" unicode="&#x426;" horiz-adv-x="617" 
d="M480 25l115 650h28l-115 -650h44l-32 -179h-28l28 154h-497l119 675h27l-115 -650h426z" />
    <glyph glyph-name="afii10041" unicode="&#x427;" horiz-adv-x="553" 
d="M126 674h28l-35 -199q-18 -103 25.5 -146.5t143.5 -43.5q80 0 190 27l63 362h27l-118 -674h-27l50 286q-110 -26 -192 -26q-228 0 -190 211z" />
    <glyph glyph-name="afii10042" unicode="&#x428;" horiz-adv-x="905" 
d="M778 25l115 650h28l-119 -675h-779l119 675h27l-115 -650h348l115 650h28l-115 -650h348z" />
    <glyph glyph-name="afii10043" unicode="&#x429;" horiz-adv-x="915" 
d="M778 25l115 650h28l-115 -650h44l-32 -179h-29l28 154h-794l119 675h27l-115 -650h347l115 650h29l-115 -650h348z" />
    <glyph glyph-name="afii10044" unicode="&#x42a;" horiz-adv-x="782" 
d="M223 0l113 650h-271l4 23l299 1l-51 -291h225q180 0 180 -158q0 -97 -67 -161t-174 -64h-258zM254 25h223q90 0 153 54.5t63 143.5q0 134 -156 134h-225z" />
    <glyph glyph-name="afii10045" unicode="&#x42b;" horiz-adv-x="695" 
d="M566 0l118 674h27l-118 -674h-27zM23 0l118 673h27l-51 -290h225q180 0 180 -158q0 -97 -67 -161t-174 -64h-258zM54 25h223q90 0 153 54.5t63 143.5q0 134 -156 134h-225z" />
    <glyph glyph-name="afii10046" unicode="&#x42c;" horiz-adv-x="567" 
d="M23 0l118 673h27l-51 -290h225q180 0 180 -158q0 -97 -67 -161t-174 -64h-258zM54 25h223q90 0 153 54.5t63 143.5q0 134 -156 134h-225z" />
    <glyph glyph-name="afii10047" unicode="&#x42d;" horiz-adv-x="565" 
d="M214 18q117 0 193.5 82.5t98.5 239.5h-333l5 24h331q3 30 3 61q0 98 -50 165t-153 67q-86 0 -141 -42.5t-64 -109.5h-23q5 80 72 128.5t152 48.5q119 0 176 -70.5t57 -181.5q0 -200 -87 -318t-243 -118q-89 0 -141 40t-52 108q0 24 7 47h21q-3 -17 -3 -33
q0 -59 40.5 -98.5t133.5 -39.5z" />
    <glyph glyph-name="afii10048" unicode="&#x42e;" horiz-adv-x="810" 
d="M575 681q207 0 207 -250q0 -58 -9 -114.5t-32 -116t-58.5 -104.5t-93 -73.5t-129.5 -28.5q-209 0 -209 224q0 56 12 122h-155l-59 -340h-26l119 675h26l-55 -310h155q68 316 307 316zM570 657q-224 0 -281 -327q-28 -160 15.5 -236.5t158.5 -76.5q111 0 186.5 81
t96.5 233q12 99 3.5 171.5t-53.5 113.5t-126 41z" />
    <glyph glyph-name="afii10049" unicode="&#x42f;" horiz-adv-x="559" 
d="M318 289l-260 -289h-35l261 289h-8q-190 0 -190 160q0 106 68.5 165.5t184.5 59.5h235l-118 -674h-27l50 289h-161zM543 649h-203q-98 0 -162 -49t-64 -149q0 -136 157 -136h213z" />
    <glyph glyph-name="afii10065" unicode="&#x430;" horiz-adv-x="500" 
d="M208 16q85 0 139 66t72 168q39 213 -129 213q-99 0 -160 -86t-61 -222q0 -139 139 -139zM485 478l-84 -478h-20q-4 29 10 93h-4q-71 -101 -186 -101q-84 0 -122 44t-38 118q0 141 66.5 236.5t184.5 95.5q117 0 149 -86h4q11 60 20 78h20z" />
    <glyph glyph-name="afii10066" unicode="&#x431;" horiz-adv-x="505" 
d="M99 353l4 -1q32 57 86 86t112 29q83 0 122.5 -49t39.5 -128q0 -48 -12.5 -96t-38.5 -95t-75.5 -76.5t-115.5 -30.5q-177 0 -177 175q0 51 14 119q15 75 28.5 124.5t41.5 110.5t65 95q50 46 107 62t194 33l3 -26q-128 -15 -143 -18q-113 -23 -168 -96.5t-87 -217.5z
M219 15q96 0 156.5 74.5t60.5 199.5q0 154 -139 154q-102 0 -164.5 -81.5t-62.5 -197.5q0 -149 149 -149z" />
    <glyph glyph-name="afii10067" unicode="&#x432;" horiz-adv-x="482" 
d="M360 273l-1 -3q39 -10 59 -38.5t20 -61.5q0 -85 -67 -131.5t-161 -46.5q-58 0 -96 20t-52 52t-18 71t6 76l18 93q7 34 21.5 64t39 57.5t64.5 44t91 16.5q78 0 117 -31t39 -73q0 -77 -80 -109zM215 258l6 22h64q64 0 97.5 29t31.5 73q-2 36 -36 59t-94 23
q-84 0 -130.5 -46.5t-58.5 -110.5l-19 -98q-9 -34 -5.5 -68.5t14.5 -62.5t43.5 -45.5t81.5 -17.5q94 0 148.5 43t54.5 110q0 41 -30 65.5t-87 24.5h-81z" />
    <glyph glyph-name="afii10068" unicode="&#x433;" horiz-adv-x="449" 
d="M188 15q91 0 133 39t43 95h21q0 -16 -1 -24q-9 -64 -61.5 -98.5t-133.5 -34.5q-82 0 -120 31.5t-38 76.5q0 127 183 160q90 16 133 40.5t43 71.5q0 40 -27 65.5t-84 25.5q-79 0 -119.5 -32.5t-50.5 -80.5h-23q0 6 2 16q13 62 68.5 91t122.5 29q71 0 104.5 -31t33.5 -79
q0 -106 -190 -137q-170 -29 -170 -136q0 -36 31 -62t100 -26z" />
    <glyph glyph-name="afii10069" unicode="&#x434;" horiz-adv-x="519" 
d="M294 454q-107 0 -166 -82t-59 -216q0 -66 35.5 -103.5t107.5 -37.5q97 0 161.5 83.5t64.5 214.5q0 61 -39 101t-105 40zM279 705q106 0 160.5 -63.5t54.5 -174.5q0 -36 -4 -77.5t-14 -98t-31 -107t-50.5 -95t-77.5 -71t-107 -26.5q-85 0 -126 44.5t-41 122.5q0 86 26 156
t84.5 116t142.5 46q73 0 115.5 -41t45.5 -102h5q9 59 9 123q0 226 -194 226q-34 0 -71 -11l-6 20q40 13 79 13z" />
    <glyph glyph-name="afii10070" unicode="&#x435;" horiz-adv-x="480" 
d="M294 463q-48 0 -88 -20.5t-65 -54t-41 -70t-22 -75.5q26 -3 62 -3q80 0 137.5 11.5t87 31.5t42.5 42t13 47q0 40 -31 65.5t-95 25.5zM205 -8q-163 0 -163 172q0 83 27 154t87.5 119.5t145.5 48.5q76 0 110.5 -32t34.5 -78q0 -22 -6.5 -41.5t-27.5 -42t-53.5 -38.5
t-90.5 -26.5t-133 -10.5q-26 0 -62 3q-4 -24 -4 -57q0 -68 29.5 -108t107.5 -40q88 0 133 39.5t48 90.5h22q0 -7 -2 -21q-10 -62 -68 -97t-135 -35z" />
    <glyph glyph-name="afii10072" unicode="&#x436;" horiz-adv-x="657" 
d="M64 478h28l126 -205h105l36 205h26l-36 -205h100l199 205h32l-210 -218l136 -260h-30l-128 247h-104l-43 -247h-26l43 247h-100l-213 -247h-34l226 260z" />
    <glyph glyph-name="afii10073" unicode="&#x437;" horiz-adv-x="444" 
d="M310 255v-4q36 -10 55.5 -40.5t19.5 -64.5q0 -65 -52.5 -109.5t-145.5 -44.5q-75 0 -121 36t-46 91q0 17 2 26h23q-1 -5 -1 -16q0 -45 36.5 -79.5t106.5 -34.5q81 0 126 36.5t45 92.5q0 44 -30 73t-83 29h-73l4 26h73q23 0 44.5 4t44 14t36.5 30.5t14 49.5
q0 43 -35.5 67.5t-91.5 24.5q-82 0 -125.5 -37t-52.5 -85h-22q6 68 66.5 107t130.5 39q78 0 118 -32.5t40 -81.5q0 -38 -26 -71.5t-80 -45.5z" />
    <glyph glyph-name="afii10074" unicode="&#x438;" horiz-adv-x="481" 
d="M467 478l-84 -478h-20q-3 1 -1.5 16.5t1.5 19t3.5 23t4.5 26.5h-4q-70 -93 -177 -93q-55 0 -88.5 17.5t-45 46.5t-13 68t8.5 82l48 272h27l-48 -272q-7 -50 -7.5 -92t30.5 -69.5t95 -27.5q76 0 129 55t67 133l48 273h26z" />
    <glyph glyph-name="afii10075" unicode="&#x439;" horiz-adv-x="481" 
d="M467 478l-84 -478h-20q-3 1 -1.5 16.5t1.5 19t3.5 23t4.5 26.5h-4q-70 -93 -177 -93q-55 0 -88.5 17.5t-45 46.5t-13 68t8.5 82l48 272h27l-48 -272q-7 -50 -7.5 -92t30.5 -69.5t95 -27.5q76 0 129 55t67 133l48 273h26zM300 551q-63 0 -89.5 42t-18.5 90h24
q-7 -37 13.5 -71t75.5 -34q52 0 85.5 35t39.5 70h24q-9 -48 -50.5 -90t-103.5 -42z" />
    <glyph glyph-name="afii10076" unicode="&#x43a;" horiz-adv-x="418" 
d="M410 478h33l-215 -218l140 -260h-30l-132 247h-119l-43 -247h-26l84 478h26l-36 -205h115z" />
    <glyph glyph-name="afii10077" unicode="&#x43b;" horiz-adv-x="479" 
d="M381 0h-26l79 452h-254l-41 -178q-40 -173 -71 -229t-97 -55h-5l2 23q58 4 84.5 59t71.5 248l36 158h305z" />
    <glyph glyph-name="afii10078" unicode="&#x43c;" horiz-adv-x="579" 
d="M264 103h6q28 43 102 150l158 225h28l-77 -478h-26l67 417l-5 1q-10 -14 -36 -52.5t-47 -68.5l-158 -225h-28l-78 245q-22 68 -32 102l-5 -1l-89 -418h-26l99 478h29l69 -219q0 -2 19 -59t30 -97z" />
    <glyph glyph-name="afii10079" unicode="&#x43d;" horiz-adv-x="492" 
d="M367 0l42 242h-324l-42 -242h-25l84 479h25l-38 -214h324l38 214h27l-84 -479h-27z" />
    <glyph glyph-name="afii10080" unicode="&#x43e;" horiz-adv-x="505" 
d="M298 486q86 0 125.5 -49.5t39.5 -131.5q0 -59 -14 -112.5t-42.5 -99.5t-78.5 -73.5t-116 -27.5q-169 0 -169 171q0 139 67 231t188 92zM296 463q-108 0 -167.5 -86t-59.5 -216q0 -146 148 -146q96 0 158 74.5t62 214.5q0 74 -35 116.5t-106 42.5z" />
    <glyph glyph-name="afii10081" unicode="&#x43f;" horiz-adv-x="491" 
d="M18 0l84 478h21q0 -31 -13 -93h4q76 102 193 102q52 0 85 -18t44.5 -47.5t13.5 -67.5t-7 -77l-48 -277h-28l46 267q5 27 7 44.5t2.5 43t-6.5 42t-19.5 33t-37.5 24.5t-59 8q-82 0 -141 -62.5t-73 -147.5l-42 -252h-26z" />
    <glyph glyph-name="afii10082" unicode="&#x440;" horiz-adv-x="500" 
d="M224 15q101 0 157.5 84.5t56.5 213.5q0 72 -38.5 111.5t-105.5 39.5q-91 0 -151.5 -81t-62.5 -203q-2 -76 35 -120.5t109 -44.5zM-17 -197l119 675h21q0 -44 -11 -90h4q67 98 183 98q83 0 123.5 -47t40.5 -123q0 -137 -62.5 -230t-181.5 -93q-64 0 -103.5 34t-50.5 74h-4
l-53 -298h-25z" />
    <glyph glyph-name="afii10083" unicode="&#x441;" horiz-adv-x="458" 
d="M211 -8q-169 0 -169 166q0 141 63.5 234.5t186.5 93.5q65 0 105.5 -29t40.5 -82q0 -13 -3 -30h-22q1 7 1 20q0 98 -128 98q-101 0 -159 -89t-58 -218q0 -76 36.5 -108.5t107.5 -32.5q83 0 126 40t49 90h21q0 -12 -3 -24q-13 -63 -69 -96t-126 -33z" />
    <glyph glyph-name="afii10084" unicode="&#x442;" horiz-adv-x="822" 
d="M18 0l84 478h21q-1 -40 -13 -96h4q69 104 185 104q68 0 103.5 -37.5t35.5 -91.5q30 61 81 95.5t115 34.5q52 0 84.5 -18.5t44 -49t13.5 -70.5t-8 -83l-43 -266h-27l43 266q8 41 8 72.5t-8.5 61.5t-35 46t-69.5 16q-82 0 -136 -59t-68 -139l-47 -264h-27l46 255
q8 43 8.5 74.5t-8 64t-37 50t-75.5 17.5q-81 0 -135 -60t-68 -141l-45 -260h-26z" />
    <glyph glyph-name="afii10085" unicode="&#x443;" horiz-adv-x="396" 
d="M87 -197h-30l100 195l-13 -2l-99 481h28l51 -248q5 -23 14 -63.5t16 -75t12 -67.5h4l134 262q32 60 43.5 99t18.5 93h27q-7 -60 -21 -103.5t-48 -109.5z" />
    <glyph glyph-name="afii10086" unicode="&#x444;" horiz-adv-x="596" 
d="M330 484l40 226h25l-40 -226q103 -1 150 -54.5t47 -139.5q0 -55 -15.5 -104.5t-47.5 -92.5t-89 -69.5t-132 -29.5l-35 -199h-25l35 199q-199 6 -199 182q0 57 15 108t47 96.5t89.5 73.5t134.5 30zM247 15l79 445q-121 -2 -188 -80.5t-67 -207.5q0 -77 44.5 -114
t131.5 -43zM351 460l-79 -445q118 8 185.5 77.5t67.5 194.5q0 84 -41 128t-133 45z" />
    <glyph glyph-name="afii10087" unicode="&#x445;" horiz-adv-x="395" 
d="M314 0l-116 225l-193 -225h-35l213 247l-119 231h30l107 -211l180 211h34l-200 -231l129 -247h-30z" />
    <glyph glyph-name="afii10088" unicode="&#x446;" horiz-adv-x="481" 
d="M190 -8q-55 0 -88.5 17.5t-45 46.5t-13 68t8.5 82l48 272h27l-48 -272q-7 -50 -7.5 -92t30.5 -69.5t95 -27.5q48 0 87.5 23.5t62 60t35 68t17.5 60.5l43 249h26l-58 -329q-11 -49 -4 -85t39 -60l-31 -153h-26l28 144q-41 32 -41 99h-1q-2 0 -2 1q-70 -103 -182 -103z" />
    <glyph glyph-name="afii10089" unicode="&#x447;" horiz-adv-x="446" 
d="M78 478h26l-25 -143q-13 -73 17.5 -105t106.5 -32q60 0 158 27l45 253h26l-84 -478h-26l35 201q-89 -27 -159 -27q-174 0 -146 160z" />
    <glyph glyph-name="afii10090" unicode="&#x448;" horiz-adv-x="816" 
d="M802 478l-84 -478h-21q1 40 13 96h-4q-69 -104 -185 -104q-68 0 -103.5 37.5t-35.5 91.5q-30 -61 -81 -95.5t-115 -34.5q-52 0 -84.5 18.5t-44 49t-13.5 70.5t8 83l43 266h27l-43 -266q-8 -41 -8 -72.5t8.5 -61.5t35 -46t69.5 -16q82 0 136 59t68 139l47 264h27l-46 -255
q-8 -43 -8.5 -74.5t8 -64t37 -50t75.5 -17.5q81 0 135 60t68 141l45 260h26z" />
    <glyph glyph-name="afii10091" unicode="&#x449;" horiz-adv-x="816" 
d="M521 -8q-69 0 -104 37.5t-35 91.5q-30 -61 -81 -95.5t-115 -34.5q-52 0 -84.5 18.5t-44 49t-13.5 70.5t8 83l43 266h27l-43 -266q-8 -41 -8 -72.5t8.5 -61.5t35 -46t69.5 -16q82 0 136 59t68 139l47 264h27l-46 -255q-8 -43 -8.5 -74.5t8 -64t37 -50t75.5 -17.5
q39 0 73 16t56 40t39 54.5t25 55t12 46.5l43 249h26l-58 -329q-11 -49 -4 -85t39 -60l-31 -153h-26l28 144q-41 32 -41 99h-1q-2 0 -2 1q-70 -103 -185 -103z" />
    <glyph glyph-name="afii10092" unicode="&#x44a;" horiz-adv-x="598" 
d="M30 478h220l-34 -194h204q64 0 101 -31t37 -85q0 -76 -66 -126t-158 -50q-164 0 -164 145q0 29 6 62l44 254h-195zM337 14q80 0 137.5 45t57.5 107q0 42 -29 68t-85 26h-205l-12 -64q-6 -30 -6 -55q0 -127 142 -127z" />
    <glyph glyph-name="afii10093" unicode="&#x44b;" horiz-adv-x="577" 
d="M97 478h25l-34 -194h204q64 0 101 -31t37 -85q0 -76 -66 -126t-158 -50q-164 0 -164 145q0 29 6 62zM209 14q80 0 137.5 45t57.5 107q0 42 -29 68t-85 26h-205l-12 -64q-6 -30 -6 -55q0 -127 142 -127zM452 0l84 478h26l-84 -478h-26z" />
    <glyph glyph-name="afii10094" unicode="&#x44c;" horiz-adv-x="474" 
d="M100 478h25l-36 -194h204q64 0 102 -31t38 -85q0 -76 -66 -126t-158 -50q-164 0 -164 145q0 29 6 62zM212 14q80 0 137.5 45t57.5 107q0 42 -30 68t-86 26h-205l-10 -64q-6 -30 -6 -55q0 -127 142 -127z" />
    <glyph glyph-name="afii10095" unicode="&#x44d;" horiz-adv-x="463" 
d="M172 14q88 0 147 58.5t71 168.5l-231 1l4 23h230q1 8 1 47q0 69 -38.5 110t-104.5 41q-81 0 -121.5 -39t-51.5 -91h-21q12 75 67 114t130 39q81 0 123.5 -50t42.5 -130q0 -143 -66 -228.5t-187 -85.5q-69 0 -110.5 30t-41.5 85q0 25 5 38h21q-22 -127 131 -131z" />
    <glyph glyph-name="afii10096" unicode="&#x44e;" horiz-adv-x="645" 
d="M439 486q89 0 127.5 -52t38.5 -133q0 -42 -8 -83.5t-26.5 -82.5t-46 -72.5t-69.5 -51t-93 -19.5q-171 0 -171 173q0 33 6 71h-111l-41 -236h-27l84 479h27l-38 -216h111q22 100 83 161.5t154 61.5zM435 463q-98 0 -158 -86t-60 -211q0 -152 149 -152q94 0 153 78.5
t59 209.5q0 161 -143 161z" />
    <glyph glyph-name="afii10097" unicode="&#x44f;" horiz-adv-x="451" 
d="M206 203h-10q-74 1 -110 32.5t-36 85.5q0 73 51.5 115t137.5 42h198l-84 -478h-26l35 202l-122 1l-203 -203h-34zM406 453h-165q-72 0 -118 -33.5t-46 -100.5q0 -49 37 -71t95 -22h157z" />
    <glyph glyph-name="afii10071" unicode="&#x451;" horiz-adv-x="480" 
d="M294 463q-48 0 -88 -20.5t-65 -54t-41 -70t-22 -75.5q26 -3 62 -3q80 0 137.5 11.5t87 31.5t42.5 42t13 47q0 40 -31 65.5t-95 25.5zM205 -8q-163 0 -163 172q0 83 27 154t87.5 119.5t145.5 48.5q76 0 110.5 -32t34.5 -78q0 -22 -6.5 -41.5t-27.5 -42t-53.5 -38.5
t-90.5 -26.5t-133 -10.5q-26 0 -62 3q-4 -24 -4 -57q0 -68 29.5 -108t107.5 -40q88 0 133 39.5t48 90.5h22q0 -7 -2 -21q-10 -62 -68 -97t-135 -35zM234 623q19 0 19 -20q0 -11 -8 -19t-19 -8q-18 0 -18 19q0 11 7.5 19.5t18.5 8.5zM382 623q20 0 20 -21q0 -10 -8.5 -18
t-19.5 -8q-18 0 -18 19q0 11 8 19.5t18 8.5z" />
    <glyph glyph-name="afii10099" unicode="&#x452;" horiz-adv-x="511" 
d="M81 584l4 22h48l19 104h26l-19 -104h271l-4 -22h-271l-18 -102q-13 -74 -24 -110l4 -1q27 49 79.5 78t110.5 29q44 0 76.5 -17t49.5 -46t25 -62t8 -71q0 -59 -11 -112.5t-35 -102.5t-68.5 -80t-104.5 -36q-8 -1 -25 -1l3 21q58 1 101.5 27.5t67.5 71.5t35.5 97.5
t11.5 111.5q0 175 -141 175q-81 0 -134 -55t-67 -134l-46 -265h-26l102 584h-48z" />
    <glyph glyph-name="afii10100" unicode="&#x453;" horiz-adv-x="449" 
d="M188 15q91 0 133 39t43 95h21q0 -16 -1 -24q-9 -64 -61.5 -98.5t-133.5 -34.5q-82 0 -120 31.5t-38 76.5q0 127 183 160q90 16 133 40.5t43 71.5q0 40 -27 65.5t-84 25.5q-79 0 -119.5 -32.5t-50.5 -80.5h-23q0 6 2 16q13 62 68.5 91t122.5 29q71 0 104.5 -31t33.5 -79
q0 -106 -190 -137q-170 -29 -170 -136q0 -36 31 -62t100 -26zM236 561l-11 11l122 131l27 -25z" />
    <glyph glyph-name="afii10101" unicode="&#x454;" horiz-adv-x="458" 
d="M211 -8q-169 0 -169 166q0 141 63.5 234.5t186.5 93.5q65 0 105.5 -29t40.5 -82q0 -13 -3 -30h-22q1 7 1 20q0 98 -128 98q-77 0 -130.5 -54t-74.5 -143h231l-4 -25h-232q-7 -38 -7 -85q0 -76 36.5 -108.5t107.5 -32.5q83 0 126 40t49 90h21q0 -12 -3 -24
q-13 -63 -69 -96t-126 -33z" />
    <glyph glyph-name="afii10102" unicode="&#x455;" horiz-adv-x="443" 
d="M176 -8q-152 0 -152 112q0 25 6 41h20q-11 -72 24 -101t104 -29q91 0 133.5 39t42.5 89q0 43 -33 62.5t-93 31.5q-83 17 -109 32q-42 26 -43 76q0 60 49.5 100.5t141.5 40.5q61 0 101 -25t40 -75q0 -20 -4 -36h-21q6 60 -26 86.5t-95 26.5q-75 0 -117 -34.5t-42 -83.5
q0 -10 2 -19t8 -16t11 -12t15.5 -10t17 -8t21 -6.5t21.5 -5t24 -5t23 -4.5q64 -13 99 -36.5t35 -77.5q0 -65 -52 -109t-152 -44z" />
    <glyph glyph-name="afii10103" unicode="&#x456;" horiz-adv-x="204" 
d="M49 0l84 478h26l-84 -478h-26zM181 675q8 0 13.5 -6t5.5 -14q0 -12 -8.5 -21t-19.5 -9q-20 0 -20 21q0 12 9 20.5t20 8.5z" />
    <glyph glyph-name="afii10104" unicode="&#x457;" horiz-adv-x="219" 
d="M93 616q19 0 19 -20q0 -11 -8 -19t-19 -8q-18 0 -18 19q0 11 7.5 19.5t18.5 8.5zM241 616q20 0 20 -21q0 -10 -8.5 -18t-19.5 -8q-18 0 -18 19q0 11 8 19.5t18 8.5zM49 0l84 478h26l-84 -478h-26z" />
    <glyph glyph-name="afii10105" unicode="&#x458;" horiz-adv-x="204" 
d="M136 478h25l-100 -569q-10 -57 -30.5 -83t-71.5 -26q-11 0 -17 1l3 23q47 0 64.5 18.5t26.5 67.5zM183 675q8 0 13.5 -6t5.5 -14q0 -12 -8.5 -21t-19.5 -9q-20 0 -20 21q0 12 9 20.5t20 8.5z" />
    <glyph glyph-name="afii10106" unicode="&#x459;" horiz-adv-x="752" 
d="M160 478h250l-35 -194h204q63 0 100.5 -33t37.5 -87q0 -75 -65.5 -123.5t-157.5 -48.5q-164 0 -164 145q0 29 6 62l44 253h-200l-41 -178q-40 -173 -71 -229t-97 -55h-5l2 23q58 4 85.5 60t70.5 247zM497 14q80 0 137 43t57 105q0 42 -29 70t-85 28h-205l-11 -64
q-6 -30 -6 -55q0 -127 142 -127z" />
    <glyph glyph-name="afii10107" unicode="&#x45a;" horiz-adv-x="741" 
d="M378 478h25l-34 -194h204q64 0 101 -31t37 -85q0 -76 -66 -126t-158 -50q-164 0 -164 145q0 29 6 62l11 61h-248l-46 -260h-25l84 478h25l-34 -194h248zM490 14q80 0 137.5 45t57.5 107q0 42 -29 68t-85 26h-205l-12 -64q-6 -33 -6 -55q0 -127 142 -127z" />
    <glyph glyph-name="afii10108" unicode="&#x45b;" horiz-adv-x="491" 
d="M106 375h4q28 50 80.5 80.5t112.5 30.5q67 0 103 -28.5t40 -74.5t-4 -105l-47 -278h-28l45 256q6 35 8.5 59.5t-1 54t-15.5 48t-39.5 31t-68.5 12.5q-83 0 -138.5 -62t-69.5 -143l-44 -256h-26l102 583h-46l5 24h46l18 103h26l-18 -103h253l-5 -24h-253l-18 -103
q-8 -46 -22 -105z" />
    <glyph glyph-name="afii10109" unicode="&#x45c;" horiz-adv-x="418" 
d="M241 548l-11 11l122 131l27 -25zM410 478h33l-215 -218l140 -260h-30l-132 247h-119l-43 -247h-26l84 478h26l-36 -205h115z" />
    <glyph glyph-name="afii10110" unicode="&#x45e;" horiz-adv-x="396" 
d="M87 -197h-30l100 195l-13 -2l-99 481h28l51 -248q5 -23 14 -63.5t16 -75t12 -67.5h4l134 262q32 60 43.5 99t18.5 93h27q-7 -60 -21 -103.5t-48 -109.5zM233 525q-64 0 -90 39t-18 86h24q-7 -36 14 -67t76 -31q53 0 83.5 31.5t36.5 66.5h22q-9 -48 -47.5 -86.5
t-100.5 -38.5z" />
    <glyph glyph-name="afii10193" unicode="&#x45f;" horiz-adv-x="481" 
d="M219 -41l32 1l-27 -159h-25zM467 478l-84 -478h-20q-3 1 -1.5 16.5t1.5 19t3.5 23t4.5 26.5h-4q-70 -93 -177 -93q-55 0 -88.5 17.5t-45 46.5t-13 68t8.5 82l48 272h27l-48 -272q-7 -50 -7.5 -92t30.5 -69.5t95 -27.5q76 0 129 55t67 133l48 273h26z" />
    <glyph glyph-name="afii10050" unicode="&#x490;" horiz-adv-x="480" 
d="M23 0l118 674h383l21 116h24l-25 -142h-382l-114 -648h-25z" />
    <glyph glyph-name="afii10098" unicode="&#x491;" horiz-adv-x="391" 
d="M18 0l84 478h299l20 114h24l-25 -139h-297l-79 -453h-26z" />
    <glyph glyph-name="schwacyrillic" unicode="&#x4d9;" horiz-adv-x="480" 
d="M195 15q54 0 95.5 20t65.5 54.5t37.5 69.5t19.5 76q-26 3 -64 3q-80 0 -137.5 -11.5t-87 -31.5t-42.5 -42t-13 -47q0 -40 31 -65.5t95 -25.5zM284 486q85 0 123 -50t38 -122q0 -49 -8 -94t-27.5 -87.5t-48.5 -73t-73.5 -49t-100.5 -18.5q-76 0 -110.5 32t-34.5 78
q0 28 12.5 53t43.5 50.5t96.5 41t158.5 15.5q27 0 63 -3q3 18 3 56q0 64 -34 106t-103 42q-88 0 -133 -39.5t-48 -90.5h-22q0 7 2 21q10 62 68 97t135 35z" />
    <glyph glyph-name="Wgrave" unicode="&#x1e80;" horiz-adv-x="814" 
d="M478 629h-4q-55 -128 -106 -233l-185 -396h-35l-60 674h29l31 -375q17 -216 22 -262h4q25 54 70.5 153.5t52.5 114.5l172 369h31l41 -345q20 -172 30 -292h4l127 291l150 346h30l-295 -674h-35l-46 387q-11 99 -28 242zM524 740l-10 -12l-132 92l24 29z" />
    <glyph glyph-name="wgrave" unicode="&#x1e81;" horiz-adv-x="651" 
d="M441 27l132 259q21 42 34 76.5t17 54t12 61.5h23q-12 -67 -25 -108.5t-45 -104.5l-138 -267h-30l-48 245q-24 127 -27 145h-4q-23 -52 -70 -148l-119 -242h-33l-66 480h24l36 -262q16 -114 25 -189h4q14 32 96 198l93 190h32l34 -175q2 -10 17 -87t22 -126h4zM383 554
l-12 -11l-121 105l27 27z" />
    <glyph glyph-name="Wacute" unicode="&#x1e82;" horiz-adv-x="814" 
d="M478 629h-4q-55 -128 -106 -233l-185 -396h-35l-60 674h29l31 -375q17 -216 22 -262h4q25 54 70.5 153.5t52.5 114.5l172 369h31l41 -345q20 -172 30 -292h4l127 291l150 346h30l-295 -674h-35l-46 387q-11 99 -28 242zM469 729l-7 13l146 99l18 -31z" />
    <glyph glyph-name="wacute" unicode="&#x1e83;" horiz-adv-x="651" 
d="M441 27l132 259q21 42 34 76.5t17 54t12 61.5h23q-12 -67 -25 -108.5t-45 -104.5l-138 -267h-30l-48 245q-24 127 -27 145h-4q-23 -52 -70 -148l-119 -242h-33l-66 480h24l36 -262q16 -114 25 -189h4q14 32 96 198l93 190h32l34 -175q2 -10 17 -87t22 -126h4zM349 545
l-11 11l122 131l27 -25z" />
    <glyph glyph-name="Wdieresis" unicode="&#x1e84;" horiz-adv-x="814" 
d="M478 629h-4q-55 -128 -106 -233l-185 -396h-35l-60 674h29l31 -375q17 -216 22 -262h4q25 54 70.5 153.5t52.5 114.5l172 369h31l41 -345q20 -172 30 -292h4l127 291l150 346h30l-295 -674h-35l-46 387q-11 99 -28 242zM584 812q19 0 19 -21q0 -10 -8.5 -18t-18.5 -8
q-19 0 -19 19q0 11 8 19.5t19 8.5zM435 812q19 0 19 -20q0 -11 -8 -19t-19 -8q-18 0 -18 19q0 11 8 19.5t18 8.5z" />
    <glyph glyph-name="wdieresis" unicode="&#x1e85;" horiz-adv-x="651" 
d="M441 27l132 259q21 42 34 76.5t17 54t12 61.5h23q-12 -67 -25 -108.5t-45 -104.5l-138 -267h-30l-48 245q-24 127 -27 145h-4q-23 -52 -70 -148l-119 -242h-33l-66 480h24l36 -262q16 -114 25 -189h4q14 32 96 198l93 190h32l34 -175q2 -10 17 -87t22 -126h4zM298 616
q19 0 19 -20q0 -11 -8 -19t-19 -8q-18 0 -18 19q0 11 7.5 19.5t18.5 8.5zM446 616q20 0 20 -21q0 -10 -8.5 -18t-19.5 -8q-18 0 -18 19q0 11 8 19.5t18 8.5z" />
    <glyph glyph-name="Ygrave" unicode="&#x1ef2;" horiz-adv-x="497" 
d="M251 302h6l128 174l145 198h35l-300 -402l-47 -272h-28l47 271l-149 403h28l71 -190q36 -96 64 -182zM383 726l-10 -12l-132 92l24 29z" />
    <glyph glyph-name="ygrave" unicode="&#x1ef3;" horiz-adv-x="396" 
d="M87 -197h-30l100 195l-13 -2l-99 481h28l51 -248q5 -23 14 -63.5t16 -75t12 -67.5h4l134 262q32 60 43.5 99t18.5 93h27q-7 -60 -21 -103.5t-48 -109.5zM267 558l-12 -11l-121 105l27 27z" />
    <glyph glyph-name="uni1F00" unicode="&#x1f00;" horiz-adv-x="500" 
d="M208 16q85 0 139 66t72 168q39 213 -129 213q-99 0 -160 -86t-61 -222q0 -139 139 -139zM485 478l-84 -478h-20q-4 29 10 93h-4q-71 -101 -186 -101q-84 0 -122 44t-38 118q0 141 66.5 236.5t184.5 95.5q117 0 149 -86h4q11 60 20 78h20zM302 534l-13 10q53 56 53 98
q0 35 -46 57l12 31q63 -21 63 -75t-69 -121z" />
    <glyph glyph-name="uni1F01" unicode="&#x1f01;" horiz-adv-x="500" 
d="M208 16q85 0 139 66t72 168q39 213 -129 213q-99 0 -160 -86t-61 -222q0 -139 139 -139zM485 478l-84 -478h-20q-4 29 10 93h-4q-71 -101 -186 -101q-84 0 -122 44t-38 118q0 141 66.5 236.5t184.5 95.5q117 0 149 -86h4q11 60 20 78h20zM331 544l-15 -10q-32 46 -32 88
q0 80 94 108l2 -31q-71 -28 -71 -84q0 -32 22 -71z" />
    <glyph glyph-name="uni1F02" unicode="&#x1f02;" horiz-adv-x="500" 
d="M208 16q85 0 139 66t72 168q39 213 -129 213q-99 0 -160 -86t-61 -222q0 -139 139 -139zM485 478l-84 -478h-20q-4 29 10 93h-4q-71 -101 -186 -101q-84 0 -122 44t-38 118q0 141 66.5 236.5t184.5 95.5q117 0 149 -86h4q11 60 20 78h20zM230 534l-12 10q53 58 53 98
q0 35 -47 57l12 31q64 -21 64 -75q0 -53 -70 -121zM410 547l-15 -7l-68 177l39 15z" />
    <glyph glyph-name="uni1F03" unicode="&#x1f03;" horiz-adv-x="500" 
d="M208 16q85 0 139 66t72 168q39 213 -129 213q-99 0 -160 -86t-61 -222q0 -139 139 -139zM485 478l-84 -478h-20q-4 29 10 93h-4q-71 -101 -186 -101q-84 0 -122 44t-38 118q0 141 66.5 236.5t184.5 95.5q117 0 149 -86h4q11 60 20 78h20zM414 547l-16 -7l-68 177l39 15z
M259 541l-15 -10q-33 49 -33 90q0 35 24.5 63t71.5 43l1 -31q-71 -29 -71 -81q0 -33 22 -74z" />
    <glyph glyph-name="uni1F04" unicode="&#x1f04;" horiz-adv-x="500" 
d="M208 16q85 0 139 66t72 168q39 213 -129 213q-99 0 -160 -86t-61 -222q0 -139 139 -139zM485 478l-84 -478h-20q-4 29 10 93h-4q-71 -101 -186 -101q-84 0 -122 44t-38 118q0 141 66.5 236.5t184.5 95.5q117 0 149 -86h4q11 60 20 78h20zM335 538l-13 7l110 185l34 -15z
M250 539l-12 10q52 57 52 100q0 33 -46 55l12 31q63 -22 63 -74q0 -55 -69 -122z" />
    <glyph glyph-name="uni1F05" unicode="&#x1f05;" horiz-adv-x="500" 
d="M208 16q85 0 139 66t72 168q39 213 -129 213q-99 0 -160 -86t-61 -222q0 -139 139 -139zM485 478l-84 -478h-20q-4 29 10 93h-4q-71 -101 -186 -101q-84 0 -122 44t-38 118q0 141 66.5 236.5t184.5 95.5q117 0 149 -86h4q11 60 20 78h20zM323 540l-13 7l110 185l33 -15z
M274 547l-16 -10q-32 46 -32 89q0 78 96 107v-31q-70 -29 -70 -81q0 -33 22 -74z" />
    <glyph glyph-name="uni1F06" unicode="&#x1f06;" horiz-adv-x="500" 
d="M208 16q85 0 139 66t72 168q39 213 -129 213q-99 0 -160 -86t-61 -222q0 -139 139 -139zM485 478l-84 -478h-20q-4 29 10 93h-4q-71 -101 -186 -101q-84 0 -122 44t-38 118q0 141 66.5 236.5t184.5 95.5q117 0 149 -86h4q11 60 20 78h20zM290 539l-13 9q52 50 52 86
q0 32 -49 51l12 28q65 -18 65 -67t-67 -107zM384 764q20 0 34 9t33 34l19 -10q-34 -57 -87 -57q-23 0 -61.5 19t-53.5 19q-32 0 -65 -44l-21 11q33 57 88 57q23 0 62 -19t52 -19z" />
    <glyph glyph-name="uni1F07" unicode="&#x1f07;" horiz-adv-x="500" 
d="M208 16q85 0 139 66t72 168q39 213 -129 213q-99 0 -160 -86t-61 -222q0 -139 139 -139zM485 478l-84 -478h-20q-4 29 10 93h-4q-71 -101 -186 -101q-84 0 -122 44t-38 118q0 141 66.5 236.5t184.5 95.5q117 0 149 -86h4q11 60 20 78h20zM333 548l-14 -9q-36 42 -36 82
q0 31 24 55.5t70 36.5l2 -28q-69 -23 -69 -71q0 -29 23 -66zM415 776q20 0 34 9t33 34l19 -10q-34 -57 -87 -57q-23 0 -61.5 19t-53.5 19q-32 0 -65 -44l-21 11q33 57 88 57q23 0 62 -19t52 -19z" />
    <glyph glyph-name="uni1F08" unicode="&#x1f08;" horiz-adv-x="549" 
d="M470 0l-37 187h-333l-101 -187h-29l365 674h32l132 -674h-29zM349 637h-6q-68 -130 -102 -192l-128 -232h318l-47 232q-6 32 -17 96t-18 96zM69 484l-13 10q53 56 53 98q0 35 -46 57l12 31q63 -21 63 -75t-69 -121z" />
    <glyph glyph-name="uni1F09" unicode="&#x1f09;" horiz-adv-x="549" 
d="M470 0l-37 187h-333l-101 -187h-29l365 674h32l132 -674h-29zM349 637h-6q-68 -130 -102 -192l-128 -232h318l-47 232q-6 32 -17 96t-18 96zM105 494l-15 -10q-32 46 -32 88q0 80 94 108l2 -31q-71 -28 -71 -84q0 -32 22 -71z" />
    <glyph glyph-name="uni1F0A" unicode="&#x1f0a;" horiz-adv-x="549" 
d="M470 0l-37 187h-333l-101 -187h-29l365 674h32l132 -674h-29zM349 637h-6q-68 -130 -102 -192l-128 -232h318l-47 232q-6 32 -17 96t-18 96zM-30 484l-12 10q53 58 53 98q0 35 -47 57l12 31q64 -21 64 -75q0 -53 -70 -121zM150 497l-15 -7l-68 177l39 15z" />
    <glyph glyph-name="uni1F0B" unicode="&#x1f0b;" horiz-adv-x="549" 
d="M470 0l-37 187h-333l-101 -187h-29l365 674h32l132 -674h-29zM349 637h-6q-68 -130 -102 -192l-128 -232h318l-47 232q-6 32 -17 96t-18 96zM162 497l-16 -7l-68 177l39 15zM7 491l-15 -10q-33 49 -33 90q0 35 24.5 63t71.5 43l1 -31q-71 -29 -71 -81q0 -33 22 -74z" />
    <glyph glyph-name="uni1F0C" unicode="&#x1f0c;" horiz-adv-x="549" 
d="M470 0l-37 187h-333l-101 -187h-29l365 674h32l132 -674h-29zM349 637h-6q-68 -130 -102 -192l-128 -232h318l-47 232q-6 32 -17 96t-18 96zM58 488l-13 7l110 185l34 -15zM-27 489l-12 10q52 57 52 100q0 33 -46 55l12 31q63 -22 63 -74q0 -55 -69 -122z" />
    <glyph glyph-name="uni1F0D" unicode="&#x1f0d;" horiz-adv-x="549" 
d="M470 0l-37 187h-333l-101 -187h-29l365 674h32l132 -674h-29zM349 637h-6q-68 -130 -102 -192l-128 -232h318l-47 232q-6 32 -17 96t-18 96zM64 490l-13 7l110 185l33 -15zM15 497l-16 -10q-32 46 -32 89q0 78 96 107v-31q-70 -29 -70 -81q0 -33 22 -74z" />
    <glyph glyph-name="uni1F0E" unicode="&#x1f0e;" horiz-adv-x="549" 
d="M470 0l-37 187h-333l-101 -187h-29l365 674h32l132 -674h-29zM349 637h-6q-68 -130 -102 -192l-128 -232h318l-47 232q-6 32 -17 96t-18 96zM40 440l-13 9q52 50 52 86q0 32 -49 51l12 28q65 -18 65 -67t-67 -107zM134 665q20 0 34 9t33 34l19 -10q-34 -57 -87 -57
q-23 0 -61.5 19t-53.5 19q-32 0 -65 -44l-21 11q33 57 88 57q23 0 62 -19t52 -19z" />
    <glyph glyph-name="uni1F0F" unicode="&#x1f0f;" horiz-adv-x="549" 
d="M470 0l-37 187h-333l-101 -187h-29l365 674h32l132 -674h-29zM349 637h-6q-68 -130 -102 -192l-128 -232h318l-47 232q-6 32 -17 96t-18 96zM48 435l-14 -9q-36 42 -36 82q0 31 24 55.5t70 36.5l2 -28q-69 -23 -69 -71q0 -29 23 -66zM130 663q20 0 34 9t33 34l19 -10
q-34 -57 -87 -57q-23 0 -61.5 19t-53.5 19q-32 0 -65 -44l-21 11q33 57 88 57q23 0 62 -19t52 -19z" />
    <glyph glyph-name="uni1F10" unicode="&#x1f10;" horiz-adv-x="428" 
d="M187 15q150 0 177 133h21q-1 -12 -5 -27q-18 -63 -71.5 -96t-121.5 -33q-87 0 -124 34.5t-37 87.5q0 40 24.5 83.5t79.5 62.5v4q-56 21 -56 81q0 58 49.5 99.5t140.5 41.5q63 0 103.5 -28.5t40.5 -78.5q0 -17 -5 -34h-21q10 59 -25.5 88.5t-96.5 29.5q-66 0 -111.5 -30.5
t-45.5 -90.5q0 -35 26.5 -52t62.5 -17h94l-5 -25h-98q-55 0 -92 -40t-37 -95q0 -98 133 -98zM265 534l-13 10q53 56 53 98q0 35 -46 57l12 31q63 -21 63 -75t-69 -121z" />
    <glyph glyph-name="uni1F11" unicode="&#x1f11;" horiz-adv-x="428" 
d="M187 15q150 0 177 133h21q-1 -12 -5 -27q-18 -63 -71.5 -96t-121.5 -33q-87 0 -124 34.5t-37 87.5q0 40 24.5 83.5t79.5 62.5v4q-56 21 -56 81q0 58 49.5 99.5t140.5 41.5q63 0 103.5 -28.5t40.5 -78.5q0 -17 -5 -34h-21q10 59 -25.5 88.5t-96.5 29.5q-66 0 -111.5 -30.5
t-45.5 -90.5q0 -35 26.5 -52t62.5 -17h94l-5 -25h-98q-55 0 -92 -40t-37 -95q0 -98 133 -98zM299 544l-15 -10q-32 46 -32 88q0 80 94 108l2 -31q-71 -28 -71 -84q0 -32 22 -71z" />
    <glyph glyph-name="uni1F12" unicode="&#x1f12;" horiz-adv-x="428" 
d="M187 15q150 0 177 133h21q-1 -12 -5 -27q-18 -63 -71.5 -96t-121.5 -33q-87 0 -124 34.5t-37 87.5q0 40 24.5 83.5t79.5 62.5v4q-56 21 -56 81q0 58 49.5 99.5t140.5 41.5q63 0 103.5 -28.5t40.5 -78.5q0 -17 -5 -34h-21q10 59 -25.5 88.5t-96.5 29.5q-66 0 -111.5 -30.5
t-45.5 -90.5q0 -35 26.5 -52t62.5 -17h94l-5 -25h-98q-55 0 -92 -40t-37 -95q0 -98 133 -98zM202 534l-12 10q53 58 53 98q0 35 -47 57l12 31q64 -21 64 -75q0 -53 -70 -121zM382 547l-15 -7l-68 177l39 15z" />
    <glyph glyph-name="uni1F13" unicode="&#x1f13;" horiz-adv-x="428" 
d="M187 15q150 0 177 133h21q-1 -12 -5 -27q-18 -63 -71.5 -96t-121.5 -33q-87 0 -124 34.5t-37 87.5q0 40 24.5 83.5t79.5 62.5v4q-56 21 -56 81q0 58 49.5 99.5t140.5 41.5q63 0 103.5 -28.5t40.5 -78.5q0 -17 -5 -34h-21q10 59 -25.5 88.5t-96.5 29.5q-66 0 -111.5 -30.5
t-45.5 -90.5q0 -35 26.5 -52t62.5 -17h94l-5 -25h-98q-55 0 -92 -40t-37 -95q0 -98 133 -98zM377 547l-16 -7l-68 177l39 15zM222 541l-15 -10q-33 49 -33 90q0 35 24.5 63t71.5 43l1 -31q-71 -29 -71 -81q0 -33 22 -74z" />
    <glyph glyph-name="uni1F14" unicode="&#x1f14;" horiz-adv-x="428" 
d="M187 15q150 0 177 133h21q-1 -12 -5 -27q-18 -63 -71.5 -96t-121.5 -33q-87 0 -124 34.5t-37 87.5q0 40 24.5 83.5t79.5 62.5v4q-56 21 -56 81q0 58 49.5 99.5t140.5 41.5q63 0 103.5 -28.5t40.5 -78.5q0 -17 -5 -34h-21q10 59 -25.5 88.5t-96.5 29.5q-66 0 -111.5 -30.5
t-45.5 -90.5q0 -35 26.5 -52t62.5 -17h94l-5 -25h-98q-55 0 -92 -40t-37 -95q0 -98 133 -98zM302 538l-13 7l110 185l34 -15zM217 539l-12 10q52 57 52 100q0 33 -46 55l12 31q63 -22 63 -74q0 -55 -69 -122z" />
    <glyph glyph-name="uni1F15" unicode="&#x1f15;" horiz-adv-x="428" 
d="M187 15q150 0 177 133h21q-1 -12 -5 -27q-18 -63 -71.5 -96t-121.5 -33q-87 0 -124 34.5t-37 87.5q0 40 24.5 83.5t79.5 62.5v4q-56 21 -56 81q0 58 49.5 99.5t140.5 41.5q63 0 103.5 -28.5t40.5 -78.5q0 -17 -5 -34h-21q10 59 -25.5 88.5t-96.5 29.5q-66 0 -111.5 -30.5
t-45.5 -90.5q0 -35 26.5 -52t62.5 -17h94l-5 -25h-98q-55 0 -92 -40t-37 -95q0 -98 133 -98zM299 540l-13 7l110 185l33 -15zM250 547l-16 -10q-32 46 -32 89q0 78 96 107v-31q-70 -29 -70 -81q0 -33 22 -74z" />
    <glyph glyph-name="uni1F18" unicode="&#x1f18;" horiz-adv-x="503" 
d="M23 0l118 674h392l-4 -25h-365l-49 -276h343l-4 -25h-343l-57 -323h397l-4 -25h-424zM-54 484l-13 10q53 56 53 98q0 35 -46 57l12 31q63 -21 63 -75t-69 -121z" />
    <glyph glyph-name="uni1F19" unicode="&#x1f19;" horiz-adv-x="503" 
d="M23 0l118 674h392l-4 -25h-365l-49 -276h343l-4 -25h-343l-57 -323h397l-4 -25h-424zM-19 494l-15 -10q-32 46 -32 88q0 80 94 108l2 -31q-71 -28 -71 -84q0 -32 22 -71z" />
    <glyph glyph-name="uni1F1A" unicode="&#x1f1a;" horiz-adv-x="503" 
d="M23 0l118 674h392l-4 -25h-365l-49 -276h343l-4 -25h-343l-57 -323h397l-4 -25h-424zM-125 484l-12 10q53 58 53 98q0 35 -47 57l12 31q64 -21 64 -75q0 -53 -70 -121zM55 497l-15 -7l-68 177l39 15z" />
    <glyph glyph-name="uni1F1B" unicode="&#x1f1b;" horiz-adv-x="503" 
d="M23 0l118 674h392l-4 -25h-365l-49 -276h343l-4 -25h-343l-57 -323h397l-4 -25h-424zM47 497l-16 -7l-68 177l39 15zM-108 491l-15 -10q-33 49 -33 90q0 35 24.5 63t71.5 43l1 -31q-71 -29 -71 -81q0 -33 22 -74z" />
    <glyph glyph-name="uni1F1C" unicode="&#x1f1c;" horiz-adv-x="503" 
d="M23 0l118 674h392l-4 -25h-365l-49 -276h343l-4 -25h-343l-57 -323h397l-4 -25h-424zM-40 488l-13 7l110 185l34 -15zM-125 489l-12 10q52 57 52 100q0 33 -46 55l12 31q63 -22 63 -74q0 -55 -69 -122z" />
    <glyph glyph-name="uni1F1D" unicode="&#x1f1d;" horiz-adv-x="503" 
d="M23 0l118 674h392l-4 -25h-365l-49 -276h343l-4 -25h-343l-57 -323h397l-4 -25h-424zM-37 490l-13 7l110 185l33 -15zM-86 497l-16 -10q-32 46 -32 89q0 78 96 107v-31q-70 -29 -70 -81q0 -33 22 -74z" />
    <glyph glyph-name="uni1F20" unicode="&#x1f20;" horiz-adv-x="491" 
d="M18 0l84 478h21q0 -31 -13 -93h4q76 102 193 102q52 0 85 -18t44.5 -47.5t13.5 -67.5t-7 -77l-72 -422h-28l70 412q5 27 7 44.5t2.5 43t-6.5 42t-19.5 33t-37.5 24.5t-59 8q-82 0 -141 -62.5t-73 -147.5l-42 -252h-26zM266 534l-13 10q53 56 53 98q0 35 -46 57l12 31
q63 -21 63 -75t-69 -121z" />
    <glyph glyph-name="uni1F21" unicode="&#x1f21;" horiz-adv-x="491" 
d="M18 0l84 478h21q0 -31 -13 -93h4q76 102 193 102q52 0 85 -18t44.5 -47.5t13.5 -67.5t-7 -77l-72 -422h-28l70 412q5 27 7 44.5t2.5 43t-6.5 42t-19.5 33t-37.5 24.5t-59 8q-82 0 -141 -62.5t-73 -147.5l-42 -252h-26zM292 544l-15 -10q-32 46 -32 88q0 80 94 108l2 -31
q-71 -28 -71 -84q0 -32 22 -71z" />
    <glyph glyph-name="uni1F22" unicode="&#x1f22;" horiz-adv-x="491" 
d="M18 0l84 478h21q0 -31 -13 -93h4q76 102 193 102q52 0 85 -18t44.5 -47.5t13.5 -67.5t-7 -77l-72 -422h-28l70 412q5 27 7 44.5t2.5 43t-6.5 42t-19.5 33t-37.5 24.5t-59 8q-82 0 -141 -62.5t-73 -147.5l-42 -252h-26zM206 534l-12 10q53 58 53 98q0 35 -47 57l12 31
q64 -21 64 -75q0 -53 -70 -121zM386 547l-15 -7l-68 177l39 15z" />
    <glyph glyph-name="uni1F23" unicode="&#x1f23;" horiz-adv-x="491" 
d="M18 0l84 478h21q0 -31 -13 -93h4q76 102 193 102q52 0 85 -18t44.5 -47.5t13.5 -67.5t-7 -77l-72 -422h-28l70 412q5 27 7 44.5t2.5 43t-6.5 42t-19.5 33t-37.5 24.5t-59 8q-82 0 -141 -62.5t-73 -147.5l-42 -252h-26zM388 547l-16 -7l-68 177l39 15zM233 541l-15 -10
q-33 49 -33 90q0 35 24.5 63t71.5 43l1 -31q-71 -29 -71 -81q0 -33 22 -74z" />
    <glyph glyph-name="uni1F24" unicode="&#x1f24;" horiz-adv-x="491" 
d="M18 0l84 478h21q0 -31 -13 -93h4q76 102 193 102q52 0 85 -18t44.5 -47.5t13.5 -67.5t-7 -77l-72 -422h-28l70 412q5 27 7 44.5t2.5 43t-6.5 42t-19.5 33t-37.5 24.5t-59 8q-82 0 -141 -62.5t-73 -147.5l-42 -252h-26zM322 538l-13 7l110 185l34 -15zM237 539l-12 10
q52 57 52 100q0 33 -46 55l12 31q63 -22 63 -74q0 -55 -69 -122z" />
    <glyph glyph-name="uni1F25" unicode="&#x1f25;" horiz-adv-x="491" 
d="M18 0l84 478h21q0 -31 -13 -93h4q76 102 193 102q52 0 85 -18t44.5 -47.5t13.5 -67.5t-7 -77l-72 -422h-28l70 412q5 27 7 44.5t2.5 43t-6.5 42t-19.5 33t-37.5 24.5t-59 8q-82 0 -141 -62.5t-73 -147.5l-42 -252h-26zM325 540l-13 7l110 185l33 -15zM276 547l-16 -10
q-32 46 -32 89q0 78 96 107v-31q-70 -29 -70 -81q0 -33 22 -74z" />
    <glyph glyph-name="uni1F26" unicode="&#x1f26;" horiz-adv-x="491" 
d="M18 0l84 478h21q0 -31 -13 -93h4q76 102 193 102q52 0 85 -18t44.5 -47.5t13.5 -67.5t-7 -77l-72 -422h-28l70 412q5 27 7 44.5t2.5 43t-6.5 42t-19.5 33t-37.5 24.5t-59 8q-82 0 -141 -62.5t-73 -147.5l-42 -252h-26zM277 539l-13 9q52 50 52 86q0 32 -49 51l12 28
q65 -18 65 -67t-67 -107zM371 764q20 0 34 9t33 34l19 -10q-34 -57 -87 -57q-23 0 -61.5 19t-53.5 19q-32 0 -65 -44l-21 11q33 57 88 57q23 0 62 -19t52 -19z" />
    <glyph glyph-name="uni1F27" unicode="&#x1f27;" horiz-adv-x="491" 
d="M18 0l84 478h21q0 -31 -13 -93h4q76 102 193 102q52 0 85 -18t44.5 -47.5t13.5 -67.5t-7 -77l-72 -422h-28l70 412q5 27 7 44.5t2.5 43t-6.5 42t-19.5 33t-37.5 24.5t-59 8q-82 0 -141 -62.5t-73 -147.5l-42 -252h-26zM296 547l-14 -9q-36 42 -36 82q0 31 24 55.5
t70 36.5l2 -28q-69 -23 -69 -71q0 -29 23 -66zM378 775q20 0 34 9t33 34l19 -10q-34 -57 -87 -57q-23 0 -61.5 19t-53.5 19q-32 0 -65 -44l-21 11q33 57 88 57q23 0 62 -19t52 -19z" />
    <glyph glyph-name="uni1F28" unicode="&#x1f28;" horiz-adv-x="609" 
d="M478 0l60 344h-429l-60 -344h-26l119 675h26l-54 -306h429l54 306h28l-119 -675h-28zM-56 484l-13 10q53 56 53 98q0 35 -46 57l12 31q63 -21 63 -75t-69 -121z" />
    <glyph glyph-name="uni1F29" unicode="&#x1f29;" horiz-adv-x="609" 
d="M478 0l60 344h-429l-60 -344h-26l119 675h26l-54 -306h429l54 306h28l-119 -675h-28zM-20 494l-15 -10q-32 46 -32 88q0 80 94 108l2 -31q-71 -28 -71 -84q0 -32 22 -71z" />
    <glyph glyph-name="uni1F2A" unicode="&#x1f2a;" horiz-adv-x="609" 
d="M478 0l60 344h-429l-60 -344h-26l119 675h26l-54 -306h429l54 306h28l-119 -675h-28zM-136 484l-12 10q53 58 53 98q0 35 -47 57l12 31q64 -21 64 -75q0 -53 -70 -121zM44 497l-15 -7l-68 177l39 15z" />
    <glyph glyph-name="uni1F2B" unicode="&#x1f2b;" horiz-adv-x="609" 
d="M478 0l60 344h-429l-60 -344h-26l119 675h26l-54 -306h429l54 306h28l-119 -675h-28zM57 497l-16 -7l-68 177l39 15zM-98 491l-15 -10q-33 49 -33 90q0 35 24.5 63t71.5 43l1 -31q-71 -29 -71 -81q0 -33 22 -74z" />
    <glyph glyph-name="uni1F2C" unicode="&#x1f2c;" horiz-adv-x="609" 
d="M478 0l60 344h-429l-60 -344h-26l119 675h26l-54 -306h429l54 306h28l-119 -675h-28zM-57 488l-13 7l110 185l34 -15zM-142 489l-12 10q52 57 52 100q0 33 -46 55l12 31q63 -22 63 -74q0 -55 -69 -122z" />
    <glyph glyph-name="uni1F2D" unicode="&#x1f2d;" horiz-adv-x="609" 
d="M478 0l60 344h-429l-60 -344h-26l119 675h26l-54 -306h429l54 306h28l-119 -675h-28zM-77 490l-13 7l110 185l33 -15zM-126 497l-16 -10q-32 46 -32 89q0 78 96 107v-31q-70 -29 -70 -81q0 -33 22 -74z" />
    <glyph glyph-name="uni1F2E" unicode="&#x1f2e;" horiz-adv-x="609" 
d="M478 0l60 344h-429l-60 -344h-26l119 675h26l-54 -306h429l54 306h28l-119 -675h-28zM-108 435l-13 9q52 50 52 86q0 32 -49 51l12 28q65 -18 65 -67t-67 -107zM-14 660q20 0 34 9t33 34l19 -10q-34 -57 -87 -57q-23 0 -61.5 19t-53.5 19q-32 0 -65 -44l-21 11
q33 57 88 57q23 0 62 -19t52 -19z" />
    <glyph glyph-name="uni1F2F" unicode="&#x1f2f;" horiz-adv-x="609" 
d="M478 0l60 344h-429l-60 -344h-26l119 675h26l-54 -306h429l54 306h28l-119 -675h-28zM-82 441l-14 -9q-36 42 -36 82q0 31 24 55.5t70 36.5l2 -28q-69 -23 -69 -71q0 -29 23 -66zM0 669q20 0 34 9t33 34l19 -10q-34 -57 -87 -57q-23 0 -61.5 19t-53.5 19q-32 0 -65 -44
l-21 11q33 57 88 57q23 0 62 -19t52 -19z" />
    <glyph glyph-name="uni1F30" unicode="&#x1f30;" horiz-adv-x="212" 
d="M135 478h25l-73 -412q-6 -31 5.5 -39.5t45.5 -8.5l-3 -23q-8 -1 -22 -1q-28 0 -41.5 10.5t-13 27t3.5 37.5zM152 534l-13 10q53 56 53 98q0 35 -46 57l12 31q63 -21 63 -75t-69 -121z" />
    <glyph glyph-name="uni1F31" unicode="&#x1f31;" horiz-adv-x="212" 
d="M135 478h25l-73 -412q-6 -31 5.5 -39.5t45.5 -8.5l-3 -23q-8 -1 -22 -1q-28 0 -41.5 10.5t-13 27t3.5 37.5zM178 544l-15 -10q-32 46 -32 88q0 80 94 108l2 -31q-71 -28 -71 -84q0 -32 22 -71z" />
    <glyph glyph-name="uni1F32" unicode="&#x1f32;" horiz-adv-x="212" 
d="M135 478h25l-73 -412q-6 -31 5.5 -39.5t45.5 -8.5l-3 -23q-8 -1 -22 -1q-28 0 -41.5 10.5t-13 27t3.5 37.5zM80 534l-12 10q53 58 53 98q0 35 -47 57l12 31q64 -21 64 -75q0 -53 -70 -121zM260 547l-15 -7l-68 177l39 15z" />
    <glyph glyph-name="uni1F33" unicode="&#x1f33;" horiz-adv-x="212" 
d="M135 478h25l-73 -412q-6 -31 5.5 -39.5t45.5 -8.5l-3 -23q-8 -1 -22 -1q-28 0 -41.5 10.5t-13 27t3.5 37.5zM252 549l-16 -7l-68 177l39 15zM97 543l-15 -10q-33 49 -33 90q0 35 24.5 63t71.5 43l1 -31q-71 -29 -71 -81q0 -33 22 -74z" />
    <glyph glyph-name="uni1F34" unicode="&#x1f34;" horiz-adv-x="212" 
d="M135 478h25l-73 -412q-6 -31 5.5 -39.5t45.5 -8.5l-3 -23q-8 -1 -22 -1q-28 0 -41.5 10.5t-13 27t3.5 37.5zM173 538l-13 7l110 185l34 -15zM88 539l-12 10q52 57 52 100q0 33 -46 55l12 31q63 -22 63 -74q0 -55 -69 -122z" />
    <glyph glyph-name="uni1F35" unicode="&#x1f35;" horiz-adv-x="212" 
d="M135 478h25l-73 -412q-6 -31 5.5 -39.5t45.5 -8.5l-3 -23q-8 -1 -22 -1q-28 0 -41.5 10.5t-13 27t3.5 37.5zM174 540l-13 7l110 185l33 -15zM125 547l-16 -10q-32 46 -32 89q0 78 96 107v-31q-70 -29 -70 -81q0 -33 22 -74z" />
    <glyph glyph-name="uni1F36" unicode="&#x1f36;" horiz-adv-x="212" 
d="M135 478h25l-73 -412q-6 -31 5.5 -39.5t45.5 -8.5l-3 -23q-8 -1 -22 -1q-28 0 -41.5 10.5t-13 27t3.5 37.5zM150 527l-13 9q52 50 52 86q0 32 -49 51l12 28q65 -18 65 -67t-67 -107zM244 752q20 0 34 9t33 34l19 -10q-34 -57 -87 -57q-23 0 -61.5 19t-53.5 19
q-32 0 -65 -44l-21 11q33 57 88 57q23 0 62 -19t52 -19z" />
    <glyph glyph-name="uni1F37" unicode="&#x1f37;" horiz-adv-x="212" 
d="M135 478h25l-73 -412q-6 -31 5.5 -39.5t45.5 -8.5l-3 -23q-8 -1 -22 -1q-28 0 -41.5 10.5t-13 27t3.5 37.5zM173 548l-14 -9q-36 42 -36 82q0 31 24 55.5t70 36.5l2 -28q-69 -23 -69 -71q0 -29 23 -66zM255 776q20 0 34 9t33 34l19 -10q-34 -57 -87 -57q-23 0 -61.5 19
t-53.5 19q-32 0 -65 -44l-21 11q33 57 88 57q23 0 62 -19t52 -19z" />
    <glyph glyph-name="uni1F38" unicode="&#x1f38;" horiz-adv-x="191" 
d="M42 0l118 674h27l-118 -674h-27zM-32 484l-13 10q53 56 53 98q0 35 -46 57l12 31q63 -21 63 -75t-69 -121z" />
    <glyph glyph-name="uni1F39" unicode="&#x1f39;" horiz-adv-x="191" 
d="M42 0l118 674h27l-118 -674h-27zM16 494l-15 -10q-32 46 -32 88q0 80 94 108l2 -31q-71 -28 -71 -84q0 -32 22 -71z" />
    <glyph glyph-name="uni1F3A" unicode="&#x1f3a;" horiz-adv-x="191" 
d="M42 0l118 674h27l-118 -674h-27zM-118 484l-12 10q53 58 53 98q0 35 -47 57l12 31q64 -21 64 -75q0 -53 -70 -121zM62 497l-15 -7l-68 177l39 15z" />
    <glyph glyph-name="uni1F3B" unicode="&#x1f3b;" horiz-adv-x="191" 
d="M42 0l118 674h27l-118 -674h-27zM73 497l-16 -7l-68 177l39 15zM-82 491l-15 -10q-33 49 -33 90q0 35 24.5 63t71.5 43l1 -31q-71 -29 -71 -81q0 -33 22 -74z" />
    <glyph glyph-name="uni1F3C" unicode="&#x1f3c;" horiz-adv-x="191" 
d="M42 0l118 674h27l-118 -674h-27zM-25 488l-13 7l110 185l34 -15zM-110 489l-12 10q52 57 52 100q0 33 -46 55l12 31q63 -22 63 -74q0 -55 -69 -122z" />
    <glyph glyph-name="uni1F3D" unicode="&#x1f3d;" horiz-adv-x="191" 
d="M42 0l118 674h27l-118 -674h-27zM-21 490l-13 7l110 185l33 -15zM-70 497l-16 -10q-32 46 -32 89q0 78 96 107v-31q-70 -29 -70 -81q0 -33 22 -74z" />
    <glyph glyph-name="uni1F3E" unicode="&#x1f3e;" horiz-adv-x="191" 
d="M42 0l118 674h27l-118 -674h-27zM-59 440l-13 9q52 50 52 86q0 32 -49 51l12 28q65 -18 65 -67t-67 -107zM35 665q20 0 34 9t33 34l19 -10q-34 -57 -87 -57q-23 0 -61.5 19t-53.5 19q-32 0 -65 -44l-21 11q33 57 88 57q23 0 62 -19t52 -19z" />
    <glyph glyph-name="uni1F3F" unicode="&#x1f3f;" horiz-adv-x="191" 
d="M42 0l118 674h27l-118 -674h-27zM-29 440l-14 -9q-36 42 -36 82q0 31 24 55.5t70 36.5l2 -28q-69 -23 -69 -71q0 -29 23 -66zM53 668q20 0 34 9t33 34l19 -10q-34 -57 -87 -57q-23 0 -61.5 19t-53.5 19q-32 0 -65 -44l-21 11q33 57 88 57q23 0 62 -19t52 -19z" />
    <glyph glyph-name="uni1F40" unicode="&#x1f40;" horiz-adv-x="505" 
d="M298 486q86 0 125.5 -49.5t39.5 -131.5q0 -59 -14 -112.5t-42.5 -99.5t-78.5 -73.5t-116 -27.5q-169 0 -169 171q0 139 67 231t188 92zM296 463q-108 0 -167.5 -86t-59.5 -216q0 -146 148 -146q96 0 158 74.5t62 214.5q0 74 -35 116.5t-106 42.5zM305 534l-13 10
q53 56 53 98q0 35 -46 57l12 31q63 -21 63 -75t-69 -121z" />
    <glyph glyph-name="uni1F41" unicode="&#x1f41;" horiz-adv-x="505" 
d="M298 486q86 0 125.5 -49.5t39.5 -131.5q0 -59 -14 -112.5t-42.5 -99.5t-78.5 -73.5t-116 -27.5q-169 0 -169 171q0 139 67 231t188 92zM296 463q-108 0 -167.5 -86t-59.5 -216q0 -146 148 -146q96 0 158 74.5t62 214.5q0 74 -35 116.5t-106 42.5zM342 544l-15 -10
q-32 46 -32 88q0 80 94 108l2 -31q-71 -28 -71 -84q0 -32 22 -71z" />
    <glyph glyph-name="uni1F42" unicode="&#x1f42;" horiz-adv-x="505" 
d="M298 486q86 0 125.5 -49.5t39.5 -131.5q0 -59 -14 -112.5t-42.5 -99.5t-78.5 -73.5t-116 -27.5q-169 0 -169 171q0 139 67 231t188 92zM296 463q-108 0 -167.5 -86t-59.5 -216q0 -146 148 -146q96 0 158 74.5t62 214.5q0 74 -35 116.5t-106 42.5zM236 534l-12 10
q53 58 53 98q0 35 -47 57l12 31q64 -21 64 -75q0 -53 -70 -121zM416 547l-15 -7l-68 177l39 15z" />
    <glyph glyph-name="uni1F43" unicode="&#x1f43;" horiz-adv-x="505" 
d="M298 486q86 0 125.5 -49.5t39.5 -131.5q0 -59 -14 -112.5t-42.5 -99.5t-78.5 -73.5t-116 -27.5q-169 0 -169 171q0 139 67 231t188 92zM296 463q-108 0 -167.5 -86t-59.5 -216q0 -146 148 -146q96 0 158 74.5t62 214.5q0 74 -35 116.5t-106 42.5zM422 547l-16 -7l-68 177
l39 15zM267 541l-15 -10q-33 49 -33 90q0 35 24.5 63t71.5 43l1 -31q-71 -29 -71 -81q0 -33 22 -74z" />
    <glyph glyph-name="uni1F44" unicode="&#x1f44;" horiz-adv-x="505" 
d="M298 486q86 0 125.5 -49.5t39.5 -131.5q0 -59 -14 -112.5t-42.5 -99.5t-78.5 -73.5t-116 -27.5q-169 0 -169 171q0 139 67 231t188 92zM296 463q-108 0 -167.5 -86t-59.5 -216q0 -146 148 -146q96 0 158 74.5t62 214.5q0 74 -35 116.5t-106 42.5zM346 538l-13 7l110 185
l34 -15zM261 539l-12 10q52 57 52 100q0 33 -46 55l12 31q63 -22 63 -74q0 -55 -69 -122z" />
    <glyph glyph-name="uni1F45" unicode="&#x1f45;" horiz-adv-x="505" 
d="M298 486q86 0 125.5 -49.5t39.5 -131.5q0 -59 -14 -112.5t-42.5 -99.5t-78.5 -73.5t-116 -27.5q-169 0 -169 171q0 139 67 231t188 92zM296 463q-108 0 -167.5 -86t-59.5 -216q0 -146 148 -146q96 0 158 74.5t62 214.5q0 74 -35 116.5t-106 42.5zM341 540l-13 7l110 185
l33 -15zM292 547l-16 -10q-32 46 -32 89q0 78 96 107v-31q-70 -29 -70 -81q0 -33 22 -74z" />
    <glyph glyph-name="uni1F48" unicode="&#x1f48;" horiz-adv-x="638" 
d="M400 681q112 0 162 -66.5t50 -173.5q0 -66 -10.5 -127t-36 -120.5t-63.5 -103t-97.5 -70t-133.5 -26.5q-113 0 -162 60.5t-49 157.5q0 65 10.5 128t35.5 126t63 109.5t97.5 76t133.5 29.5zM395 657q-82 0 -144 -40t-96.5 -106t-51 -140t-16.5 -153q0 -201 187 -201
q140 0 225.5 110.5t85.5 318.5q0 211 -190 211zM-4 484l-13 10q53 56 53 98q0 35 -46 57l12 31q63 -21 63 -75t-69 -121z" />
    <glyph glyph-name="uni1F49" unicode="&#x1f49;" horiz-adv-x="638" 
d="M400 681q112 0 162 -66.5t50 -173.5q0 -66 -10.5 -127t-36 -120.5t-63.5 -103t-97.5 -70t-133.5 -26.5q-113 0 -162 60.5t-49 157.5q0 65 10.5 128t35.5 126t63 109.5t97.5 76t133.5 29.5zM395 657q-82 0 -144 -40t-96.5 -106t-51 -140t-16.5 -153q0 -201 187 -201
q140 0 225.5 110.5t85.5 318.5q0 211 -190 211zM35 506l-15 -10q-32 46 -32 88q0 80 94 108l2 -31q-71 -28 -71 -84q0 -32 22 -71z" />
    <glyph glyph-name="uni1F4A" unicode="&#x1f4a;" horiz-adv-x="638" 
d="M400 681q112 0 162 -66.5t50 -173.5q0 -66 -10.5 -127t-36 -120.5t-63.5 -103t-97.5 -70t-133.5 -26.5q-113 0 -162 60.5t-49 157.5q0 65 10.5 128t35.5 126t63 109.5t97.5 76t133.5 29.5zM395 657q-82 0 -144 -40t-96.5 -106t-51 -140t-16.5 -153q0 -201 187 -201
q140 0 225.5 110.5t85.5 318.5q0 211 -190 211zM-119 484l-12 10q53 58 53 98q0 35 -47 57l12 31q64 -21 64 -75q0 -53 -70 -121zM61 497l-15 -7l-68 177l39 15z" />
    <glyph glyph-name="uni1F4B" unicode="&#x1f4b;" horiz-adv-x="638" 
d="M400 681q112 0 162 -66.5t50 -173.5q0 -66 -10.5 -127t-36 -120.5t-63.5 -103t-97.5 -70t-133.5 -26.5q-113 0 -162 60.5t-49 157.5q0 65 10.5 128t35.5 126t63 109.5t97.5 76t133.5 29.5zM395 657q-82 0 -144 -40t-96.5 -106t-51 -140t-16.5 -153q0 -201 187 -201
q140 0 225.5 110.5t85.5 318.5q0 211 -190 211zM73 497l-16 -7l-68 177l39 15zM-82 491l-15 -10q-33 49 -33 90q0 35 24.5 63t71.5 43l1 -31q-71 -29 -71 -81q0 -33 22 -74z" />
    <glyph glyph-name="uni1F4C" unicode="&#x1f4c;" horiz-adv-x="638" 
d="M400 681q112 0 162 -66.5t50 -173.5q0 -66 -10.5 -127t-36 -120.5t-63.5 -103t-97.5 -70t-133.5 -26.5q-113 0 -162 60.5t-49 157.5q0 65 10.5 128t35.5 126t63 109.5t97.5 76t133.5 29.5zM395 657q-82 0 -144 -40t-96.5 -106t-51 -140t-16.5 -153q0 -201 187 -201
q140 0 225.5 110.5t85.5 318.5q0 211 -190 211zM-3 488l-13 7l110 185l34 -15zM-88 489l-12 10q52 57 52 100q0 33 -46 55l12 31q63 -22 63 -74q0 -55 -69 -122z" />
    <glyph glyph-name="uni1F4D" unicode="&#x1f4d;" horiz-adv-x="638" 
d="M400 681q112 0 162 -66.5t50 -173.5q0 -66 -10.5 -127t-36 -120.5t-63.5 -103t-97.5 -70t-133.5 -26.5q-113 0 -162 60.5t-49 157.5q0 65 10.5 128t35.5 126t63 109.5t97.5 76t133.5 29.5zM395 657q-82 0 -144 -40t-96.5 -106t-51 -140t-16.5 -153q0 -201 187 -201
q140 0 225.5 110.5t85.5 318.5q0 211 -190 211zM-15 490l-13 7l110 185l33 -15zM-64 497l-16 -10q-32 46 -32 89q0 78 96 107v-31q-70 -29 -70 -81q0 -33 22 -74z" />
    <glyph glyph-name="uni1F50" unicode="&#x1f50;" horiz-adv-x="494" 
d="M485 478l-50 -285q-18 -101 -76.5 -151t-149.5 -50t-135.5 51.5t-28.5 144.5l52 290h27l-52 -293q-15 -85 25.5 -127.5t116.5 -42.5q71 0 124.5 42t69.5 134l50 287h27zM282 534l-13 10q53 56 53 98q0 35 -46 57l12 31q63 -21 63 -75t-69 -121z" />
    <glyph glyph-name="uni1F51" unicode="&#x1f51;" horiz-adv-x="494" 
d="M485 478l-50 -285q-18 -101 -76.5 -151t-149.5 -50t-135.5 51.5t-28.5 144.5l52 290h27l-52 -293q-15 -85 25.5 -127.5t116.5 -42.5q71 0 124.5 42t69.5 134l50 287h27zM316 543l-15 -10q-32 46 -32 88q0 80 94 108l2 -31q-71 -28 -71 -84q0 -32 22 -71z" />
    <glyph glyph-name="uni1F52" unicode="&#x1f52;" horiz-adv-x="494" 
d="M485 478l-50 -285q-18 -101 -76.5 -151t-149.5 -50t-135.5 51.5t-28.5 144.5l52 290h27l-52 -293q-15 -85 25.5 -127.5t116.5 -42.5q71 0 124.5 42t69.5 134l50 287h27zM231 534l-12 10q53 58 53 98q0 35 -47 57l12 31q64 -21 64 -75q0 -53 -70 -121zM411 547l-15 -7
l-68 177l39 15z" />
    <glyph glyph-name="uni1F53" unicode="&#x1f53;" horiz-adv-x="494" 
d="M485 478l-50 -285q-18 -101 -76.5 -151t-149.5 -50t-135.5 51.5t-28.5 144.5l52 290h27l-52 -293q-15 -85 25.5 -127.5t116.5 -42.5q71 0 124.5 42t69.5 134l50 287h27zM405 547l-16 -7l-68 177l39 15zM250 541l-15 -10q-33 49 -33 90q0 35 24.5 63t71.5 43l1 -31
q-71 -29 -71 -81q0 -33 22 -74z" />
    <glyph glyph-name="uni1F54" unicode="&#x1f54;" horiz-adv-x="494" 
d="M485 478l-50 -285q-18 -101 -76.5 -151t-149.5 -50t-135.5 51.5t-28.5 144.5l52 290h27l-52 -293q-15 -85 25.5 -127.5t116.5 -42.5q71 0 124.5 42t69.5 134l50 287h27zM328 538l-13 7l110 185l34 -15zM243 539l-12 10q52 57 52 100q0 33 -46 55l12 31q63 -22 63 -74
q0 -55 -69 -122z" />
    <glyph glyph-name="uni1F55" unicode="&#x1f55;" horiz-adv-x="494" 
d="M485 478l-50 -285q-18 -101 -76.5 -151t-149.5 -50t-135.5 51.5t-28.5 144.5l52 290h27l-52 -293q-15 -85 25.5 -127.5t116.5 -42.5q71 0 124.5 42t69.5 134l50 287h27zM334 540l-13 7l110 185l33 -15zM285 547l-16 -10q-32 46 -32 89q0 78 96 107v-31q-70 -29 -70 -81
q0 -33 22 -74z" />
    <glyph glyph-name="uni1F56" unicode="&#x1f56;" horiz-adv-x="494" 
d="M485 478l-50 -285q-18 -101 -76.5 -151t-149.5 -50t-135.5 51.5t-28.5 144.5l52 290h27l-52 -293q-15 -85 25.5 -127.5t116.5 -42.5q71 0 124.5 42t69.5 134l50 287h27zM294 516l-13 9q52 50 52 86q0 32 -49 51l12 28q65 -18 65 -67t-67 -107zM388 741q20 0 34 9t33 34
l19 -10q-34 -57 -87 -57q-23 0 -61.5 19t-53.5 19q-32 0 -65 -44l-21 11q33 57 88 57q23 0 62 -19t52 -19z" />
    <glyph glyph-name="uni1F57" unicode="&#x1f57;" horiz-adv-x="494" 
d="M485 478l-50 -285q-18 -101 -76.5 -151t-149.5 -50t-135.5 51.5t-28.5 144.5l52 290h27l-52 -293q-15 -85 25.5 -127.5t116.5 -42.5q71 0 124.5 42t69.5 134l50 287h27zM322 520l-14 -9q-36 42 -36 82q0 31 24 55.5t70 36.5l2 -28q-69 -23 -69 -71q0 -29 23 -66zM404 748
q20 0 34 9t33 34l19 -10q-34 -57 -87 -57q-23 0 -61.5 19t-53.5 19q-32 0 -65 -44l-21 11q33 57 88 57q23 0 62 -19t52 -19z" />
    <glyph glyph-name="uni1F59" unicode="&#x1f59;" horiz-adv-x="497" 
d="M251 302h6l128 174l145 198h35l-300 -402l-47 -272h-28l47 271l-149 403h28l71 -190q36 -96 64 -182zM-8 494l-15 -10q-32 46 -32 88q0 80 94 108l2 -31q-71 -28 -71 -84q0 -32 22 -71z" />
    <glyph glyph-name="uni1F5B" unicode="&#x1f5b;" horiz-adv-x="497" 
d="M251 302h6l128 174l145 198h35l-300 -402l-47 -272h-28l47 271l-149 403h28l71 -190q36 -96 64 -182zM38 497l-16 -7l-68 177l39 15zM-117 491l-15 -10q-33 49 -33 90q0 35 24.5 63t71.5 43l1 -31q-71 -29 -71 -81q0 -33 22 -74z" />
    <glyph glyph-name="uni1F5D" unicode="&#x1f5d;" horiz-adv-x="497" 
d="M251 302h6l128 174l145 198h35l-300 -402l-47 -272h-28l47 271l-149 403h28l71 -190q36 -96 64 -182zM-77 492l-13 7l110 185l33 -15zM-126 499l-16 -10q-32 46 -32 89q0 78 96 107v-31q-70 -29 -70 -81q0 -33 22 -74z" />
    <glyph glyph-name="uni1F5F" unicode="&#x1f5f;" horiz-adv-x="497" 
d="M251 302h6l128 174l145 198h35l-300 -402l-47 -272h-28l47 271l-149 403h28l71 -190q36 -96 64 -182zM-96 429l-14 -9q-36 42 -36 82q0 31 24 55.5t70 36.5l2 -28q-69 -23 -69 -71q0 -29 23 -66zM-14 657q20 0 34 9t33 34l19 -10q-34 -57 -87 -57q-23 0 -61.5 19
t-53.5 19q-32 0 -65 -44l-21 11q33 57 88 57q23 0 62 -19t52 -19z" />
    <glyph glyph-name="uni1F60" unicode="&#x1f60;" horiz-adv-x="754" 
d="M489 15q54 0 94 26.5t61 71t31 94.5t10 106q0 146 -135 151l5 24q158 -6 158 -172q0 -41 -5.5 -81.5t-21 -86t-39.5 -79t-66 -55.5t-96 -22q-55 0 -87.5 27t-43.5 66h-4q-61 -93 -165 -93q-145 0 -145 155q0 151 64.5 246.5t183.5 93.5l-5 -24q-73 -1 -122.5 -45
t-71 -112t-21.5 -156q0 -66 27 -100.5t94 -34.5q62 0 107.5 43t55.5 101l27 157h27l-29 -167q-7 -55 20.5 -94.5t91.5 -39.5zM412 534l-13 10q53 56 53 98q0 35 -46 57l12 31q63 -21 63 -75t-69 -121z" />
    <glyph glyph-name="uni1F61" unicode="&#x1f61;" horiz-adv-x="754" 
d="M489 15q54 0 94 26.5t61 71t31 94.5t10 106q0 146 -135 151l5 24q158 -6 158 -172q0 -41 -5.5 -81.5t-21 -86t-39.5 -79t-66 -55.5t-96 -22q-55 0 -87.5 27t-43.5 66h-4q-61 -93 -165 -93q-145 0 -145 155q0 151 64.5 246.5t183.5 93.5l-5 -24q-73 -1 -122.5 -45
t-71 -112t-21.5 -156q0 -66 27 -100.5t94 -34.5q62 0 107.5 43t55.5 101l27 157h27l-29 -167q-7 -55 20.5 -94.5t91.5 -39.5zM449 544l-15 -10q-32 46 -32 88q0 80 94 108l2 -31q-71 -28 -71 -84q0 -32 22 -71z" />
    <glyph glyph-name="uni1F62" unicode="&#x1f62;" horiz-adv-x="754" 
d="M489 15q54 0 94 26.5t61 71t31 94.5t10 106q0 146 -135 151l5 24q158 -6 158 -172q0 -41 -5.5 -81.5t-21 -86t-39.5 -79t-66 -55.5t-96 -22q-55 0 -87.5 27t-43.5 66h-4q-61 -93 -165 -93q-145 0 -145 155q0 151 64.5 246.5t183.5 93.5l-5 -24q-73 -1 -122.5 -45
t-71 -112t-21.5 -156q0 -66 27 -100.5t94 -34.5q62 0 107.5 43t55.5 101l27 157h27l-29 -167q-7 -55 20.5 -94.5t91.5 -39.5zM344 534l-12 10q53 58 53 98q0 35 -47 57l12 31q64 -21 64 -75q0 -53 -70 -121zM524 547l-15 -7l-68 177l39 15z" />
    <glyph glyph-name="uni1F63" unicode="&#x1f63;" horiz-adv-x="754" 
d="M489 15q54 0 94 26.5t61 71t31 94.5t10 106q0 146 -135 151l5 24q158 -6 158 -172q0 -41 -5.5 -81.5t-21 -86t-39.5 -79t-66 -55.5t-96 -22q-55 0 -87.5 27t-43.5 66h-4q-61 -93 -165 -93q-145 0 -145 155q0 151 64.5 246.5t183.5 93.5l-5 -24q-73 -1 -122.5 -45
t-71 -112t-21.5 -156q0 -66 27 -100.5t94 -34.5q62 0 107.5 43t55.5 101l27 157h27l-29 -167q-7 -55 20.5 -94.5t91.5 -39.5zM524 547l-16 -7l-68 177l39 15zM369 541l-15 -10q-33 49 -33 90q0 35 24.5 63t71.5 43l1 -31q-71 -29 -71 -81q0 -33 22 -74z" />
    <glyph glyph-name="uni1F64" unicode="&#x1f64;" horiz-adv-x="754" 
d="M489 15q54 0 94 26.5t61 71t31 94.5t10 106q0 146 -135 151l5 24q158 -6 158 -172q0 -41 -5.5 -81.5t-21 -86t-39.5 -79t-66 -55.5t-96 -22q-55 0 -87.5 27t-43.5 66h-4q-61 -93 -165 -93q-145 0 -145 155q0 151 64.5 246.5t183.5 93.5l-5 -24q-73 -1 -122.5 -45
t-71 -112t-21.5 -156q0 -66 27 -100.5t94 -34.5q62 0 107.5 43t55.5 101l27 157h27l-29 -167q-7 -55 20.5 -94.5t91.5 -39.5zM453 538l-13 7l110 185l34 -15zM368 539l-12 10q52 57 52 100q0 33 -46 55l12 31q63 -22 63 -74q0 -55 -69 -122z" />
    <glyph glyph-name="uni1F65" unicode="&#x1f65;" horiz-adv-x="754" 
d="M489 15q54 0 94 26.5t61 71t31 94.5t10 106q0 146 -135 151l5 24q158 -6 158 -172q0 -41 -5.5 -81.5t-21 -86t-39.5 -79t-66 -55.5t-96 -22q-55 0 -87.5 27t-43.5 66h-4q-61 -93 -165 -93q-145 0 -145 155q0 151 64.5 246.5t183.5 93.5l-5 -24q-73 -1 -122.5 -45
t-71 -112t-21.5 -156q0 -66 27 -100.5t94 -34.5q62 0 107.5 43t55.5 101l27 157h27l-29 -167q-7 -55 20.5 -94.5t91.5 -39.5zM439 540l-13 7l110 185l33 -15zM390 547l-16 -10q-32 46 -32 89q0 78 96 107v-31q-70 -29 -70 -81q0 -33 22 -74z" />
    <glyph glyph-name="uni1F66" unicode="&#x1f66;" horiz-adv-x="754" 
d="M489 15q54 0 94 26.5t61 71t31 94.5t10 106q0 146 -135 151l5 24q158 -6 158 -172q0 -41 -5.5 -81.5t-21 -86t-39.5 -79t-66 -55.5t-96 -22q-55 0 -87.5 27t-43.5 66h-4q-61 -93 -165 -93q-145 0 -145 155q0 151 64.5 246.5t183.5 93.5l-5 -24q-73 -1 -122.5 -45
t-71 -112t-21.5 -156q0 -66 27 -100.5t94 -34.5q62 0 107.5 43t55.5 101l27 157h27l-29 -167q-7 -55 20.5 -94.5t91.5 -39.5zM406 536l-13 9q52 50 52 86q0 32 -49 51l12 28q65 -18 65 -67t-67 -107zM500 761q20 0 34 9t33 34l19 -10q-34 -57 -87 -57q-23 0 -61.5 19
t-53.5 19q-32 0 -65 -44l-21 11q33 57 88 57q23 0 62 -19t52 -19z" />
    <glyph glyph-name="uni1F67" unicode="&#x1f67;" horiz-adv-x="754" 
d="M489 15q54 0 94 26.5t61 71t31 94.5t10 106q0 146 -135 151l5 24q158 -6 158 -172q0 -41 -5.5 -81.5t-21 -86t-39.5 -79t-66 -55.5t-96 -22q-55 0 -87.5 27t-43.5 66h-4q-61 -93 -165 -93q-145 0 -145 155q0 151 64.5 246.5t183.5 93.5l-5 -24q-73 -1 -122.5 -45
t-71 -112t-21.5 -156q0 -66 27 -100.5t94 -34.5q62 0 107.5 43t55.5 101l27 157h27l-29 -167q-7 -55 20.5 -94.5t91.5 -39.5zM428 528l-14 -9q-36 42 -36 82q0 31 24 55.5t70 36.5l2 -28q-69 -23 -69 -71q0 -29 23 -66zM510 756q20 0 34 9t33 34l19 -10q-34 -57 -87 -57
q-23 0 -61.5 19t-53.5 19q-32 0 -65 -44l-21 11q33 57 88 57q23 0 62 -19t52 -19z" />
    <glyph glyph-name="uni1F68" unicode="&#x1f68;" horiz-adv-x="652" 
d="M397 681q115 0 171 -68.5t56 -179.5q0 -84 -19.5 -161.5t-66 -144.5t-113.5 -97l-1 -4h136l-4 -26h-196l5 30q106 31 168.5 136.5t62.5 267.5q0 104 -52 163.5t-150 59.5q-146 0 -227 -122t-81 -313q0 -163 136 -193l-5 -29h-194l4 26h124l1 4q-46 22 -69.5 72.5
t-23.5 117.5q0 132 36.5 234.5t114.5 164.5t187 62zM-16 498l-13 10q53 56 53 98q0 35 -46 57l12 31q63 -21 63 -75t-69 -121z" />
    <glyph glyph-name="uni1F69" unicode="&#x1f69;" horiz-adv-x="652" 
d="M397 681q115 0 171 -68.5t56 -179.5q0 -84 -19.5 -161.5t-66 -144.5t-113.5 -97l-1 -4h136l-4 -26h-196l5 30q106 31 168.5 136.5t62.5 267.5q0 104 -52 163.5t-150 59.5q-146 0 -227 -122t-81 -313q0 -163 136 -193l-5 -29h-194l4 26h124l1 4q-46 22 -69.5 72.5
t-23.5 117.5q0 132 36.5 234.5t114.5 164.5t187 62zM8 507l-15 -10q-32 46 -32 88q0 80 94 108l2 -31q-71 -28 -71 -84q0 -32 22 -71z" />
    <glyph glyph-name="uni1F6A" unicode="&#x1f6a;" horiz-adv-x="652" 
d="M397 681q115 0 171 -68.5t56 -179.5q0 -84 -19.5 -161.5t-66 -144.5t-113.5 -97l-1 -4h136l-4 -26h-196l5 30q106 31 168.5 136.5t62.5 267.5q0 104 -52 163.5t-150 59.5q-146 0 -227 -122t-81 -313q0 -163 136 -193l-5 -29h-194l4 26h124l1 4q-46 22 -69.5 72.5
t-23.5 117.5q0 132 36.5 234.5t114.5 164.5t187 62zM-120 502l-12 10q53 58 53 98q0 35 -47 57l12 31q64 -21 64 -75q0 -53 -70 -121zM60 515l-15 -7l-68 177l39 15z" />
    <glyph glyph-name="uni1F6B" unicode="&#x1f6b;" horiz-adv-x="652" 
d="M397 681q115 0 171 -68.5t56 -179.5q0 -84 -19.5 -161.5t-66 -144.5t-113.5 -97l-1 -4h136l-4 -26h-196l5 30q106 31 168.5 136.5t62.5 267.5q0 104 -52 163.5t-150 59.5q-146 0 -227 -122t-81 -313q0 -163 136 -193l-5 -29h-194l4 26h124l1 4q-46 22 -69.5 72.5
t-23.5 117.5q0 132 36.5 234.5t114.5 164.5t187 62zM56 516l-16 -7l-68 177l39 15zM-99 510l-15 -10q-33 49 -33 90q0 35 24.5 63t71.5 43l1 -31q-71 -29 -71 -81q0 -33 22 -74z" />
    <glyph glyph-name="uni1F6C" unicode="&#x1f6c;" horiz-adv-x="652" 
d="M397 681q115 0 171 -68.5t56 -179.5q0 -84 -19.5 -161.5t-66 -144.5t-113.5 -97l-1 -4h136l-4 -26h-196l5 30q106 31 168.5 136.5t62.5 267.5q0 104 -52 163.5t-150 59.5q-146 0 -227 -122t-81 -313q0 -163 136 -193l-5 -29h-194l4 26h124l1 4q-46 22 -69.5 72.5
t-23.5 117.5q0 132 36.5 234.5t114.5 164.5t187 62zM-20 496l-13 7l110 185l34 -15zM-105 497l-12 10q52 57 52 100q0 33 -46 55l12 31q63 -22 63 -74q0 -55 -69 -122z" />
    <glyph glyph-name="uni1F6D" unicode="&#x1f6d;" horiz-adv-x="652" 
d="M397 681q115 0 171 -68.5t56 -179.5q0 -84 -19.5 -161.5t-66 -144.5t-113.5 -97l-1 -4h136l-4 -26h-196l5 30q106 31 168.5 136.5t62.5 267.5q0 104 -52 163.5t-150 59.5q-146 0 -227 -122t-81 -313q0 -163 136 -193l-5 -29h-194l4 26h124l1 4q-46 22 -69.5 72.5
t-23.5 117.5q0 132 36.5 234.5t114.5 164.5t187 62zM-19 496l-13 7l110 185l33 -15zM-68 503l-16 -10q-32 46 -32 89q0 78 96 107v-31q-70 -29 -70 -81q0 -33 22 -74z" />
    <glyph glyph-name="uni1F6E" unicode="&#x1f6e;" horiz-adv-x="652" 
d="M397 681q115 0 171 -68.5t56 -179.5q0 -84 -19.5 -161.5t-66 -144.5t-113.5 -97l-1 -4h136l-4 -26h-196l5 30q106 31 168.5 136.5t62.5 267.5q0 104 -52 163.5t-150 59.5q-146 0 -227 -122t-81 -313q0 -163 136 -193l-5 -29h-194l4 26h124l1 4q-46 22 -69.5 72.5
t-23.5 117.5q0 132 36.5 234.5t114.5 164.5t187 62zM-45 439l-13 9q52 50 52 86q0 32 -49 51l12 28q65 -18 65 -67t-67 -107zM49 664q20 0 34 9t33 34l19 -10q-34 -57 -87 -57q-23 0 -61.5 19t-53.5 19q-32 0 -65 -44l-21 11q33 57 88 57q23 0 62 -19t52 -19z" />
    <glyph glyph-name="uni1F6F" unicode="&#x1f6f;" horiz-adv-x="652" 
d="M397 681q115 0 171 -68.5t56 -179.5q0 -84 -19.5 -161.5t-66 -144.5t-113.5 -97l-1 -4h136l-4 -26h-196l5 30q106 31 168.5 136.5t62.5 267.5q0 104 -52 163.5t-150 59.5q-146 0 -227 -122t-81 -313q0 -163 136 -193l-5 -29h-194l4 26h124l1 4q-46 22 -69.5 72.5
t-23.5 117.5q0 132 36.5 234.5t114.5 164.5t187 62zM-34 438l-14 -9q-36 42 -36 82q0 31 24 55.5t70 36.5l2 -28q-69 -23 -69 -71q0 -29 23 -66zM48 666q20 0 34 9t33 34l19 -10q-34 -57 -87 -57q-23 0 -61.5 19t-53.5 19q-32 0 -65 -44l-21 11q33 57 88 57q23 0 62 -19
t52 -19z" />
    <glyph glyph-name="uni1F70" unicode="&#x1f70;" horiz-adv-x="500" 
d="M208 16q85 0 139 66t72 168q39 213 -129 213q-99 0 -160 -86t-61 -222q0 -139 139 -139zM485 478l-84 -478h-20q-4 29 10 93h-4q-71 -101 -186 -101q-84 0 -122 44t-38 118q0 141 66.5 236.5t184.5 95.5q117 0 149 -86h4q11 60 20 78h20zM372 562l-15 -11l-105 153l34 23
z" />
    <glyph glyph-name="uni1F71" unicode="&#x1f71;" horiz-adv-x="500" 
d="M208 16q85 0 139 66t72 168q39 213 -129 213q-99 0 -160 -86t-61 -222q0 -139 139 -139zM485 478l-84 -478h-20q-4 29 10 93h-4q-71 -101 -186 -101q-84 0 -122 44t-38 118q0 141 66.5 236.5t184.5 95.5q117 0 149 -86h4q11 60 20 78h20zM309 547l-13 8l104 175l34 -15z
" />
    <glyph glyph-name="uni1F72" unicode="&#x1f72;" horiz-adv-x="428" 
d="M187 15q150 0 177 133h21q-1 -12 -5 -27q-18 -63 -71.5 -96t-121.5 -33q-87 0 -124 34.5t-37 87.5q0 40 24.5 83.5t79.5 62.5v4q-56 21 -56 81q0 58 49.5 99.5t140.5 41.5q63 0 103.5 -28.5t40.5 -78.5q0 -17 -5 -34h-21q10 59 -25.5 88.5t-96.5 29.5q-66 0 -111.5 -30.5
t-45.5 -90.5q0 -35 26.5 -52t62.5 -17h94l-5 -25h-98q-55 0 -92 -40t-37 -95q0 -98 133 -98zM314 562l-15 -11l-105 153l34 23z" />
    <glyph glyph-name="uni1F73" unicode="&#x1f73;" horiz-adv-x="428" 
d="M187 15q150 0 177 133h21q-1 -12 -5 -27q-18 -63 -71.5 -96t-121.5 -33q-87 0 -124 34.5t-37 87.5q0 40 24.5 83.5t79.5 62.5v4q-56 21 -56 81q0 58 49.5 99.5t140.5 41.5q63 0 103.5 -28.5t40.5 -78.5q0 -17 -5 -34h-21q10 59 -25.5 88.5t-96.5 29.5q-66 0 -111.5 -30.5
t-45.5 -90.5q0 -35 26.5 -52t62.5 -17h94l-5 -25h-98q-55 0 -92 -40t-37 -95q0 -98 133 -98zM264 547l-13 8l104 175l34 -15z" />
    </font>
</defs>
</svg>
