<?xml version="1.0" standalone="no"?>
<!DOCTYPE svg PUBLIC "-//W3C//DTD SVG 1.1//EN" "http://www.w3.org/Graphics/SVG/1.1/DTD/svg11.dtd" >
<svg xmlns="http://www.w3.org/2000/svg" xmlns:xlink="http://www.w3.org/1999/xlink" version="1.1">
<metadata>
Created by FontForge 20170731 at Wed Mar 11 19:55:04 2009
 By Aleksey,,,
Copyright (c) 2005-2009 Parachute :, www.parachute.gr.  All rights reserved.
</metadata>
<defs>
<font id="PFEncoreSansPro-HairlineItalic" horiz-adv-x="1818" >
  <font-face 
    font-family="PF Encore Sans Pro Hairline"
    font-weight="50"
    font-style="italic"
    font-stretch="normal"
    units-per-em="1000"
    panose-1="2 0 5 6 4 0 0 9 0 4"
    ascent="750"
    descent="-250"
    x-height="478"
    cap-height="673"
    bbox="-221 -230 1760 913"
    underline-thickness="10"
    underline-position="-110"
    unicode-range="U+0020-FB05"
  />
<missing-glyph horiz-adv-x="428" 
d="M0 0v699h428v-699h-428zM214 343l-205 -337h408zM10 693l204 -337l204 337h-408zM218 349l204 -337v673zM210 349l-204 337v-672z" />
    <glyph glyph-name="fj" unicode="fj" horiz-adv-x="409" 
d="M75 1h-7l84 471h-91v6h92l19 108q13 72 52.5 104t112.5 32q34 0 70 -5l-1 -6q-36 5 -70 5q-70 0 -107.5 -30.5t-50.5 -99.5l-20 -108h227l-90 -530q-9 -54 -27 -75t-61 -21h-6l1 6q43 0 60 18.5t26 71.5l89 524h-220z" />
    <glyph glyph-name="ffj" unicode="ffj" horiz-adv-x="638" 
d="M287 -89h-6l100 561h-231l-83 -472h-6l83 472h-84l1 6h84l18 103q13 78 47.5 109.5t100.5 31.5q29 0 54 -7l-2 -5q-26 6 -53 6q-65 0 -96.5 -30t-44.5 -105l-18 -103h231l22 128q13 71 53.5 103.5t111.5 32.5q34 0 70 -5l-1 -5q-36 5 -70 5q-135 0 -158 -132l-22 -127
h225l-89 -530q-9 -53 -27 -74.5t-61 -21.5h-6l1 6q43 0 60 18.5t26 71.5l89 524h-219z" />
    <glyph glyph-name="fb" unicode="fb" horiz-adv-x="776" 
d="M49 -140h-6l109 612h-92l1 6h92l20 108q25 136 169 136q56 0 88 -4l-74 -424q30 91 85 140t128 49q81 0 124 -47t43 -128q0 -134 -64.5 -223t-180.5 -89q-74 0 -117.5 43.5t-39.5 124.5l-27 -164h-6l122 712q-29 4 -82 4q-138 0 -162 -130l-20 -108h150l-1 -6h-150z
M568 477q-56 0 -101.5 -31t-72.5 -79.5t-41 -103t-14 -107.5q0 -70 37.5 -112t115.5 -42q114 0 176 88.5t62 218.5q0 79 -41 123.5t-121 44.5z" />
    <glyph glyph-name="ffb" unicode="ffb" horiz-adv-x="995" 
d="M278 -89h-6l99 561h-221l-108 -612h-6l108 612h-84l1 6h84l18 103q13 78 47.5 109.5t100.5 31.5q29 0 54 -7l-2 -5q-26 6 -53 6q-65 0 -96.5 -30t-44.5 -105l-18 -103h221l20 108q25 136 169 136q56 0 88 -4l-74 -425q30 91 85 140.5t128 49.5q81 0 124 -47t43 -128
q0 -134 -64.5 -223t-180.5 -89q-74 0 -117.5 43.5t-39.5 124.5l-28 -164h-6l123 712q-29 4 -82 4q-138 0 -162 -130l-20 -108h150l-1 -6h-150zM787 477q-56 0 -101.5 -31t-72.5 -79.5t-41 -103t-14 -107.5q0 -70 37.5 -112t115.5 -42q114 0 176 88.5t62 218.5
q0 79 -41 123.5t-121 44.5z" />
    <glyph glyph-name="fh" unicode="fh" horiz-adv-x="760" 
d="M49 -140h-6l109 612h-92l1 6h92l20 108q25 136 169 136q52 0 89 -6l-67 -391q21 59 62 96.5t75.5 49.5t66.5 12q52 0 86 -16t47 -43.5t15.5 -64t-6.5 -78.5l-48 -281h-6l48 281q8 55 4.5 98.5t-39 70.5t-102.5 27q-25 0 -53 -9t-61.5 -30.5t-61 -68t-38.5 -111.5
l-45 -258h-6l122 710q-36 6 -83 6q-138 0 -162 -130l-20 -108h150l-1 -6h-150z" />
    <glyph glyph-name="ffh" unicode="ffh" horiz-adv-x="978" 
d="M278 -89h-6l99 561h-221l-107 -612h-6l107 612h-84l1 6h84l18 103q13 78 47.5 109.5t100.5 31.5q29 0 54 -7l-2 -5q-26 6 -53 6q-65 0 -96.5 -30t-44.5 -105l-18 -103h221l22 128q24 136 170 136q52 0 89 -6l-71 -411q21 59 62 96.5t75.5 49.5t66.5 12q52 0 86 -16
t47 -43.5t15.5 -64t-6.5 -78.5l-48 -281h-6l48 281q8 55 4.5 98.5t-39 70.5t-102.5 27q-25 0 -53 -9t-61.5 -30.5t-61 -68t-38.5 -111.5l-45 -258h-6l126 730q-36 6 -83 6q-141 0 -163 -130l-22 -128h150l-1 -6h-150z" />
    <glyph glyph-name="fk" unicode="fk" horiz-adv-x="687" 
d="M46 -140h-6l112 612h-92l1 6h92l20 108q25 136 169 136q52 0 89 -6l-77 -449h149l208 211h7l-211 -214l133 -264h-7l-130 261h-150l-44 -261h-6l121 710q-36 6 -83 6q-138 0 -162 -130l-20 -108h150l-1 -6h-150z" />
    <glyph glyph-name="ffk" unicode="ffk" horiz-adv-x="906" 
d="M279 -89h-7l99 561h-221l-109 -612h-6l109 612h-84l1 6h84l18 103q13 78 47.5 109.5t100.5 31.5q29 0 54 -7l-2 -5q-26 6 -53 6q-65 0 -96.5 -30t-44.5 -105l-18 -103h221l22 128q24 136 170 136q52 0 89 -6l-80 -469h149l208 211h7l-211 -214l133 -264h-7l-130 261h-150
l-44 -261h-6l124 730q-36 6 -83 6q-141 0 -163 -130l-22 -128h150l-1 -6h-150z" />
    <glyph glyph-name="r_y" unicode="ry" horiz-adv-x="652" 
d="M343 -205h-7l101 200h-22l-125 481q-19 0 -40.5 -6t-47.5 -22t-48.5 -39.5t-41.5 -62.5t-27 -88l-44 -258h-6l83 478h5l-26 -153q25 66 77 110t120 48l126 -482h20l134 264q33 65 46.5 108.5t20.5 103.5h6q-7 -60 -21.5 -106t-46.5 -108z" />
    <glyph glyph-name="ff" unicode="ff" horiz-adv-x="510" 
d="M294 -89h-6l97 561h-230l-107 -612h-6l107 612h-89l1 6h89l18 103q13 78 47.5 109.5t100.5 31.5q30 0 54 -7l-2 -5q-25 6 -53 6q-65 0 -96.5 -30t-44.5 -105l-18 -103h230l20 111q14 81 48 117t99 36q36 0 60 -6l-2 -6q-25 6 -58 6q-64 0 -96.5 -36t-45.5 -113l-19 -109
h160v-6h-161z" />
    <glyph glyph-name="fi" unicode="fi" horiz-adv-x="409" 
d="M51 -140h-6l107 612h-91v6h92l19 108q13 72 52.5 104t112.5 32q34 0 70 -5l-1 -6q-36 5 -70 5q-70 0 -107.5 -30.5t-50.5 -99.5l-20 -108h228l-81 -478h-6l80 472h-222z" />
    <glyph glyph-name="fl" unicode="fl" horiz-adv-x="414" 
d="M48 -140h-6l110 612h-92l1 6h92l20 108q25 136 169 136q53 0 90 -6l-126 -714h-6l125 708q-36 6 -84 6q-138 0 -162 -130l-20 -108h150l-1 -6h-150z" />
    <glyph glyph-name="ffi" unicode="ffi" horiz-adv-x="647" 
d="M286 -89h-6l98 561h-228l-107 -612h-6l107 612h-84l1 6h84l18 103q13 78 47.5 109.5t100.5 31.5q29 0 54 -7l-2 -5q-26 6 -53 6q-65 0 -96.5 -30t-44.5 -105l-18 -103h228l23 129q13 72 52.5 104t112.5 32q34 0 70 -5l-1 -6q-36 5 -70 5q-70 0 -107.5 -30.5t-50.5 -99.5
l-24 -129h228l-81 -478h-6l80 472h-222z" />
    <glyph glyph-name="ffl" unicode="ffl" horiz-adv-x="633" 
d="M279 -89h-7l99 561h-221l-109 -612h-6l109 612h-84l1 6h84l18 103q13 78 47.5 109.5t100.5 31.5q29 0 54 -7l-2 -5q-26 6 -53 6q-65 0 -96.5 -30t-44.5 -105l-18 -103h221l22 128q24 136 170 136q50 0 86 -7l-122 -733h-6l121 728q-36 6 -80 6q-141 0 -163 -130l-22 -128
h150l-1 -6h-150z" />
    <glyph glyph-name="ft" unicode="ft" horiz-adv-x="502" 
d="M42 -140h-7l110 612h-91v6h92l18 96q14 77 45 110.5t98 33.5q35 0 58 -6l-1 -6q-24 6 -57 6q-65 0 -95 -32.5t-44 -112.5l-16 -89h219l23 131h6l-23 -131h148l-1 -6h-148l-60 -337q-13 -76 11 -104.5t89 -28.5q19 0 46 3l-1 -6q-27 -3 -46 -3q-68 0 -93.5 30t-11.5 109
l60 337h-219z" />
    <glyph glyph-name=".notdef" horiz-adv-x="428" 
d="M0 0v699h428v-699h-428zM214 343l-205 -337h408zM10 693l204 -337l204 337h-408zM218 349l204 -337v673zM210 349l-204 337v-672z" />
    <glyph glyph-name=".null" horiz-adv-x="0" 
 />
    <glyph glyph-name="nonmarkingreturn" horiz-adv-x="333" 
 />
    <glyph glyph-name="space" unicode=" " horiz-adv-x="245" 
 />
    <glyph glyph-name="exclam" unicode="!" horiz-adv-x="215" 
d="M88 109h-6l102 586h9zM67 18q8 0 8 -8q0 -11 -12 -11q-7 0 -7 7q0 12 11 12z" />
    <glyph glyph-name="quotedbl" unicode="&#x22;" horiz-adv-x="234" 
d="M126 472h-4l33 202h8zM196 472h-5l33 202h8z" />
    <glyph glyph-name="numbersign" unicode="#" horiz-adv-x="534" 
d="M79 435l1 6h132l73 214h6l-73 -214h199l74 214h6l-74 -214h133l-1 -6h-134l-67 -198h131l-1 -6h-132l-78 -231h-5l77 231h-200l-77 -231h-6l77 231h-126l1 6h127l68 198h-131zM216 435l-68 -198h200l68 198h-200z" />
    <glyph glyph-name="dollar" unicode="$" horiz-adv-x="534" 
d="M243 -85l140 815h6l-13 -77q90 -11 123.5 -55t16.5 -111h-5q33 139 -136 161l-51 -292q82 -16 122.5 -52t40.5 -98q0 -80 -54.5 -140.5t-169.5 -68.5l-14 -82h-6zM324 730l-140 -815h-6l14 82q-106 7 -143.5 61t-15.5 137h6q-24 -92 18.5 -138.5t135.5 -54.5l62 360
q-73 14 -108.5 42t-35.5 81q0 68 50 115t145 53l12 77h6zM323 351l-59 -349q112 8 164.5 67t52.5 137q0 59 -38.5 94t-119.5 51zM305 648q-95 -9 -141.5 -53.5t-46.5 -111.5q0 -49 35.5 -76t103.5 -40z" />
    <glyph glyph-name="percent" unicode="%" horiz-adv-x="745" 
d="M119 -31l-5 3l520 732l5 -2zM255 683q129 0 129 -135q0 -61 -19 -117t-65.5 -97.5t-113.5 -41.5q-130 0 -130 130q0 114 52.5 187.5t146.5 73.5zM254 677q-90 0 -141 -71.5t-51 -182.5q0 -125 125 -125q65 0 110.5 41t63 95t17.5 113q0 130 -124 130zM578 387
q129 0 129 -135q0 -61 -19 -117t-65.5 -97.5t-113.5 -41.5q-130 0 -130 130q0 114 52.5 187.5t146.5 73.5zM577 381q-90 0 -141 -71.5t-51 -182.5q0 -125 125 -125q65 0 110.5 41t63 95t17.5 113q0 130 -124 130z" />
    <glyph glyph-name="ampersand" unicode="&#x26;" horiz-adv-x="718" 
d="M583 527l4 5q79 -47 79 -146q0 -90 -49.5 -175.5t-134.5 -140.5q61 -55 116 -91l-4 -5q-61 42 -117 92q-109 -69 -240 -69q-203 0 -203 132q0 42 15 78t46.5 67.5t59 52t71.5 49.5q-39 83 -39 146q0 14 4.5 34.5t17.5 51t44.5 51t77.5 20.5q47 0 72 -23.5t25 -63.5
q0 -43 -30 -84t-58.5 -62t-91.5 -62q-10 -7 -15 -10q76 -153 245 -301q84 55 133 138.5t49 172.5q0 95 -77 143zM238 3q130 0 235 67q-168 149 -244 301q-44 -28 -71.5 -48.5t-58 -51t-45 -65.5t-14.5 -75q0 -128 198 -128zM193 522q0 -64 38 -143q103 66 134 96
q57 55 57 115q0 38 -23.5 60.5t-68.5 22.5q-36 0 -63 -14t-40.5 -33t-21.5 -42.5t-10 -37.5t-2 -24z" />
    <glyph glyph-name="quotesingle" unicode="'" horiz-adv-x="165" 
d="M126 472h-4l33 202h8z" />
    <glyph glyph-name="parenleft" unicode="(" horiz-adv-x="259" 
d="M305 716l3 -3q-244 -248 -244 -521q0 -167 89 -317l-4 -4q-92 151 -92 318q0 277 248 527z" />
    <glyph glyph-name="parenright" unicode=")" horiz-adv-x="259" 
d="M110 713l5 3q99 -156 99 -320q0 -143 -65 -278t-171 -247l-4 3q104 110 169 245t65 276q0 165 -98 318z" />
    <glyph glyph-name="asterisk" unicode="*" horiz-adv-x="390" 
d="M250 531l126 43l3 -8l-129 -41l63 -106l-9 -5l-59 108l-96 -108l-7 6l100 106l-114 41l4 8l113 -44l23 134h9z" />
    <glyph glyph-name="plus" unicode="+" horiz-adv-x="534" 
d="M278 273l-29 -170h-7l29 170h-170l1 7h170l32 181h7l-32 -181h170l-1 -7h-170z" />
    <glyph glyph-name="comma" unicode="," horiz-adv-x="134" 
d="M17 6q0 6 4.5 10.5t10.5 4.5q10 0 10 -11q0 -6 -4 -12l-55 -94l-4 2l50 89q-12 0 -12 11z" />
    <glyph glyph-name="hyphen" unicode="-" horiz-adv-x="439" 
d="M104 247l2 9h237l-2 -9h-237z" />
    <glyph glyph-name="period" unicode="." horiz-adv-x="137" 
d="M32 21q10 0 10 -11q0 -15 -14 -15q-11 0 -11 11q0 6 4.5 10.5t10.5 4.5z" />
    <glyph glyph-name="slash" unicode="/" horiz-adv-x="459" 
d="M-39 -46h-7l580 770h7z" />
    <glyph glyph-name="zero" unicode="0" horiz-adv-x="534" 
d="M340 649q-77 0 -137 -41t-93.5 -107t-50.5 -139t-17 -147q0 -213 186 -213q124 0 210 116.5t86 311.5q0 103 -44.5 161t-139.5 58zM341 655q97 0 143 -59t46 -163q0 -199 -87.5 -318t-215.5 -119q-191 0 -191 217q0 56 9 113t32 117.5t56.5 106.5t87 75.5t120.5 29.5z
" />
    <glyph glyph-name="one" unicode="1" horiz-adv-x="534" 
d="M47 0l1 6h183l109 634l-167 -26l1 6l167 26h6l-110 -640h172l-1 -6h-361z" />
    <glyph glyph-name="two" unicode="2" horiz-adv-x="534" 
d="M116 481h-6q10 69 72 121.5t172 52.5q81 0 123 -32.5t42 -88.5q0 -69 -59 -125t-166 -117q-48 -27 -72.5 -42t-61 -39.5t-56 -43.5t-41 -45t-32.5 -54.5t-15 -61.5h432l-1 -6h-438l1 7q13 91 75 150t205 139q106 60 164.5 115.5t58.5 121.5q0 54 -40 85t-120 31
q-107 0 -167.5 -50.5t-69.5 -117.5z" />
    <glyph glyph-name="three" unicode="3" horiz-adv-x="534" 
d="M552 646l-1 -6l-293 -252q12 2 35 2q80 0 135 -40.5t55 -117.5q0 -100 -74 -168t-190 -68q-91 0 -138 38.5t-47 102.5q0 25 8 55h6q-8 -29 -8 -53q0 -61 45.5 -99t134.5 -38q113 0 185 66t72 163q0 75 -53 114t-132 39q-25 0 -43 -3l-2 5l296 254h-381l1 6h389z" />
    <glyph glyph-name="four" unicode="4" horiz-adv-x="534" 
d="M467 646h6l-78 -455h113l-1 -6h-113l-31 -185h-6l31 185h-376l1 6q67 68 221.5 222t232.5 233zM466 637l-445 -446h368z" />
    <glyph glyph-name="five" unicode="5" horiz-adv-x="534" 
d="M283 414q89 0 145 -40t56 -127q0 -107 -72.5 -179t-193.5 -72q-91 0 -137 38.5t-46 101.5q0 28 9 59h6q-9 -30 -9 -57q0 -61 44 -98.5t134 -37.5q117 0 188 70.5t71 172.5q0 87 -54 125t-142 38q-70 0 -150 -23l-4 2l82 259h309l-1 -6h-303l-79 -248q79 22 147 22z" />
    <glyph glyph-name="six" unicode="6" horiz-adv-x="534" 
d="M309 400q-97 0 -168.5 -71t-71.5 -172q0 -70 43 -112.5t129 -42.5q111 0 173.5 70t62.5 173q0 75 -43 115t-125 40zM310 406q84 0 128.5 -41t44.5 -119q0 -108 -65 -179t-178 -71q-180 0 -180 182q0 45 6.5 94.5t20.5 104t38.5 103.5t57 88.5t80.5 63t105 23.5
q78 0 123 -42t29 -120h-6q15 75 -26.5 115.5t-120.5 40.5q-61 0 -111.5 -28.5t-84 -74.5t-57 -106.5t-34.5 -121t-14 -122.5q16 96 87.5 153t156.5 57z" />
    <glyph glyph-name="seven" unicode="7" horiz-adv-x="534" 
d="M546 646l-1 -6l-421 -640h-8l422 640h-408l1 6h415z" />
    <glyph glyph-name="eight" unicode="8" horiz-adv-x="534" 
d="M340 655q86 0 128 -36t42 -89q0 -11 -1 -22t-12 -37t-29.5 -46.5t-59.5 -42.5t-97 -33q50 -7 84.5 -25t50.5 -41t22.5 -44t6.5 -44q0 -83 -66 -141t-183 -58q-91 0 -141 36.5t-50 97.5q0 15 2.5 31.5t16 47t36 55.5t69 49.5t109.5 35.5q-146 29 -146 131q0 67 58.5 121
t159.5 54zM288 346q-111 -13 -179 -72t-68 -143q0 -66 52.5 -97.5t133.5 -31.5q105 0 173.5 52.5t68.5 142.5q0 61 -44.5 100.5t-136.5 48.5zM339 649q-90 0 -150.5 -49t-60.5 -120q0 -103 159 -129q107 14 162 64t55 115q0 57 -44.5 88t-120.5 31z" />
    <glyph glyph-name="nine" unicode="9" horiz-adv-x="534" 
d="M264 263q102 0 173 65.5t71 165.5q0 69 -45 112t-131 43q-112 0 -176.5 -70.5t-64.5 -172.5q0 -143 173 -143zM263 257q-178 0 -178 148q0 107 67.5 178.5t180.5 71.5q88 0 136 -44.5t48 -137.5q0 -55 -9.5 -115t-32.5 -125.5t-57.5 -117.5t-89.5 -85.5t-123 -33.5
q-78 0 -123 42t-29 120h6q-15 -75 26.5 -115.5t120.5 -40.5q76 0 135.5 42.5t94 111.5t53.5 145t22 154q-16 -95 -88 -146.5t-160 -51.5z" />
    <glyph glyph-name="colon" unicode=":" horiz-adv-x="137" 
d="M32 21q10 0 10 -11q0 -6 -4.5 -10.5t-9.5 -4.5q-11 0 -11 11q0 6 4.5 10.5t10.5 4.5zM95 376q10 0 10 -11q0 -6 -5 -10.5t-10 -4.5q-11 0 -11 10q0 6 5 11t11 5z" />
    <glyph glyph-name="semicolon" unicode=";" horiz-adv-x="137" 
d="M95 376q10 0 10 -11q0 -6 -5 -10.5t-10 -4.5q-11 0 -11 10q0 6 5 11t11 5zM32 21q10 0 10 -10q0 -7 -4 -13l-55 -94l-4 2l50 89q-12 0 -12 11q0 15 15 15z" />
    <glyph glyph-name="less" unicode="&#x3c;" horiz-adv-x="534" 
d="M419 100l-1 -7l-320 176l1 6l381 176l-1 -7l-373 -172z" />
    <glyph glyph-name="equal" unicode="=" horiz-adv-x="534" 
d="M460 342h-347l1 7h347zM433 192h-347l2 7h347z" />
    <glyph glyph-name="greater" unicode="&#x3e;" horiz-adv-x="534" 
d="M68 93l1 7l372 172l-313 172l1 7l321 -176l-1 -6z" />
    <glyph glyph-name="question" unicode="?" horiz-adv-x="533" 
d="M143 528h-5q6 70 59.5 120.5t157.5 50.5q79 0 116.5 -30.5t37.5 -82.5q0 -46 -24 -83.5t-60 -67t-73.5 -60.5t-69.5 -80.5t-43 -112.5l-13 -75h-6l12 70q11 65 43 116.5t70 83t74 61t60 66t24 82.5q0 107 -149 107q-100 0 -152 -48t-59 -117zM209 18q8 0 8 -8
q0 -11 -12 -11q-7 0 -7 7q0 12 11 12z" />
    <glyph glyph-name="at" unicode="@" horiz-adv-x="813" 
d="M575 513l-35 -209l-2 -8q-1 -7 -3 -18.5t-4 -23.5t-3.5 -22.5t-1.5 -14.5q0 -64 61 -64q56 0 97 49.5t58 109.5t17 114q0 112 -75.5 173.5t-191.5 61.5q-78 0 -151 -32t-128 -87t-88.5 -134.5t-33.5 -167.5q0 -127 75 -195.5t209 -68.5q112 0 208 36l1 -6
q-97 -36 -210 -36q-136 0 -212.5 70.5t-76.5 199.5q0 90 34 170t90 136t130.5 88.5t153.5 32.5q115 0 193 -63t78 -176q0 -40 -10.5 -86t-30.5 -91t-56 -74.5t-82 -29.5q-65 0 -65 68q0 15 9 60q-24 -72 -68 -107.5t-95 -35.5q-65 0 -99.5 37t-34.5 102q0 107 51.5 177
t143.5 70q51 0 85.5 -30t36.5 -93l20 118h6zM427 512q-89 0 -139 -68.5t-50 -172.5q0 -62 33 -97.5t95 -35.5q43 0 78.5 24.5t56 63t31.5 81t11 81.5q0 64 -33 94t-83 30z" />
    <glyph glyph-name="A" unicode="A" horiz-adv-x="547" 
d="M492 0h-6l-40 190h-360l-104 -190h-7l371 673h7zM349 667l-259 -471h355z" />
    <glyph glyph-name="B" unicode="B" horiz-adv-x="591" 
d="M148 673h251q83 0 127.5 -33.5t44.5 -93.5q0 -58 -43.5 -115.5t-122.5 -68.5q65 -8 96.5 -51t31.5 -97q0 -38 -13 -74t-40 -68.5t-76.5 -52t-114.5 -19.5h-259zM368 360h-269l-62 -354h253q105 0 171 55.5t66 152.5q0 61 -38 103.5t-121 42.5zM398 667h-245l-53 -302h276
q83 0 136 55.5t53 124.5q0 57 -41.5 89.5t-125.5 32.5z" />
    <glyph glyph-name="C" unicode="C" horiz-adv-x="589" 
d="M576 498h-6q8 29 8 49q0 61 -49.5 93.5t-120.5 32.5q-161 0 -247 -126t-86 -329q0 -105 47.5 -160.5t159.5 -55.5q115 0 178.5 53.5t69.5 136.5h6q-7 -86 -72 -141t-183 -55q-115 0 -163.5 56.5t-48.5 165.5q0 206 88 333.5t252 127.5q73 0 124 -33t51 -97q0 -22 -8 -51z
" />
    <glyph glyph-name="D" unicode="D" horiz-adv-x="599" 
d="M154 667l-116 -661h156q162 0 266.5 108.5t104.5 279.5q0 74 -23.5 129t-63 85t-84.5 44.5t-95 14.5h-145zM30 0l118 673h151q51 0 97 -15t86.5 -46t64.5 -87t24 -131q0 -174 -106 -284t-271 -110h-164z" />
    <glyph glyph-name="E" unicode="E" horiz-adv-x="520" 
d="M464 369l-1 -6h-363l-63 -357h416l-1 -6h-422l118 673h386l-1 -6h-380l-52 -298h363z" />
    <glyph glyph-name="F" unicode="F" horiz-adv-x="497" 
d="M465 359l-1 -6h-366l-62 -353h-6l118 673h396l-1 -6h-390l-54 -308h366z" />
    <glyph glyph-name="G" unicode="G" horiz-adv-x="615" 
d="M368 322l1 5h205l-17 -96q-43 -235 -277 -235q-108 0 -159.5 55t-51.5 171q0 204 88.5 330.5t243.5 126.5q97 0 142.5 -39t45.5 -97q0 -16 -5 -38h-6q5 20 5 37q0 56 -45 93.5t-138 37.5q-153 0 -239 -125t-86 -324q0 -115 50 -168.5t156 -53.5q58 0 104.5 16t74.5 39.5
t48 56.5t29 60t14 57l16 91h-199z" />
    <glyph glyph-name="H" unicode="H" horiz-adv-x="612" 
d="M148 673h6l-55 -314h460l55 314h6l-118 -673h-6l62 353h-460l-62 -353h-6z" />
    <glyph glyph-name="I" unicode="I" horiz-adv-x="186" 
d="M168 673h6l-118 -673h-6z" />
    <glyph glyph-name="J" unicode="J" horiz-adv-x="521" 
d="M10 167h6q-18 -66 23 -113.5t149 -47.5q107 0 167 60t78 160l80 447h6l-80 -447q-18 -103 -79.5 -164.5t-172.5 -61.5q-110 0 -152.5 50t-24.5 117z" />
    <glyph glyph-name="K" unicode="K" horiz-adv-x="509" 
d="M459 0h-7l-179 352h-175l-62 -352h-6l118 673h6l-55 -315h175l286 315h7l-289 -318z" />
    <glyph glyph-name="L" unicode="L" horiz-adv-x="515" 
d="M461 6l-1 -6h-430l118 673h6l-117 -667h424z" />
    <glyph glyph-name="M" unicode="M" horiz-adv-x="773" 
d="M364 106h-4l-188 554l-136 -660h-6l139 673h5l189 -559l393 559h5l-98 -673h-6l98 664z" />
    <glyph glyph-name="N" unicode="N" horiz-adv-x="618" 
d="M148 673h6l350 -661l116 661h6l-118 -673h-5l-351 664l-116 -664h-6z" />
    <glyph glyph-name="O" unicode="O" horiz-adv-x="655" 
d="M406 674q-106 0 -183.5 -64.5t-113.5 -165.5t-36 -224q0 -218 212 -218q68 0 124.5 27t93.5 71.5t63 103t37.5 119.5t11.5 123q0 228 -209 228zM407 679q214 0 214 -232q0 -61 -11.5 -122t-37.5 -121t-64 -105.5t-96 -74t-128 -28.5q-217 0 -217 222q0 125 36.5 227
t115 168t188.5 66z" />
    <glyph glyph-name="P" unicode="P" horiz-adv-x="534" 
d="M148 673h224q91 0 137.5 -46.5t46.5 -126.5q0 -37 -12.5 -73.5t-39 -72t-77.5 -57.5t-120 -22h-223l-48 -275h-6zM371 667h-218l-68 -386h223q67 0 117 21.5t76 56t37.5 69.5t11.5 71q0 78 -44.5 123t-134.5 45z" />
    <glyph glyph-name="Q" unicode="Q" horiz-adv-x="655" 
d="M407 679q214 0 214 -232q0 -77 -19 -152t-56 -143t-103.5 -111t-151.5 -45q81 -46 190 -82l-4 -7q-122 42 -198 89q-212 3 -212 222q0 125 36.5 227t115 168t188.5 66zM406 674q-106 0 -183.5 -64.5t-113.5 -165.5t-36 -224q0 -218 212 -218q68 0 124.5 27t93.5 71.5
t63 103t37.5 119.5t11.5 123q0 228 -209 228z" />
    <glyph glyph-name="R" unicode="R" horiz-adv-x="548" 
d="M293 295h-23l167 -295h-7l-167 295h-175l-52 -295h-6l118 673h212q90 0 137.5 -41t47.5 -115q0 -36 -12 -71.5t-38.5 -71t-78.5 -57.5t-123 -22zM359 667h-206l-64 -366h206q67 0 117 20.5t76.5 54.5t38.5 69t12 71q0 71 -46 111t-134 40z" />
    <glyph glyph-name="S" unicode="S" horiz-adv-x="581" 
d="M374 679q40 0 76.5 -10t65 -30.5t40.5 -55t1 -78.5h-5q21 82 -34.5 125.5t-143.5 43.5q-117 0 -180 -50t-63 -125q0 -25 11 -44.5t25 -31.5t45.5 -23t54.5 -17t70 -16q94 -20 143.5 -57t49.5 -101q0 -86 -71.5 -149.5t-213.5 -63.5q-67 0 -117.5 21t-75.5 69t-5 117h6
q-29 -94 28 -148t165 -54q140 0 209 61.5t69 146.5q0 61 -47 97t-142 56q-46 10 -73.5 17t-57 18.5t-44.5 24.5t-25 32t-10 44q0 77 64.5 129t184.5 52z" />
    <glyph glyph-name="T" unicode="T" horiz-adv-x="518" 
d="M341 667l-117 -667h-6l117 667h-248l1 6h498l-1 -6h-244z" />
    <glyph glyph-name="U" unicode="U" horiz-adv-x="631" 
d="M148 673h6l-69 -393q-24 -135 20 -206.5t180 -71.5q126 0 191 74t88 205l69 392h6l-69 -392q-24 -134 -91 -209.5t-195 -75.5q-139 0 -184.5 73t-20.5 211z" />
    <glyph glyph-name="V" unicode="V" horiz-adv-x="552" 
d="M613 673h7l-384 -673h-5l-143 673h6l141 -664z" />
    <glyph glyph-name="W" unicode="W" horiz-adv-x="833" 
d="M480 673h6l89 -664l305 664h7l-310 -673h-5l-90 664l-315 -664h-5l-74 673h7l71 -664z" />
    <glyph glyph-name="X" unicode="X" horiz-adv-x="549" 
d="M124 673l166 -321l281 321h7l-285 -326l181 -347h-6l-179 343l-300 -343h-7l305 348l-169 325h6z" />
    <glyph glyph-name="Y" unicode="Y" horiz-adv-x="464" 
d="M527 673h7l-296 -397l-47 -276h-6l47 276l-147 397h7l144 -390z" />
    <glyph glyph-name="Z" unicode="Z" horiz-adv-x="498" 
d="M-30 0l1 6l571 661h-432l1 6h439l-1 -6l-570 -661h470l-1 -6h-478z" />
    <glyph glyph-name="bracketleft" unicode="[" horiz-adv-x="254" 
d="M27 -124l144 834h117l-1 -6h-111l-142 -822h111l-1 -6h-117z" />
    <glyph glyph-name="backslash" unicode="\" horiz-adv-x="459" 
d="M408 -46h-8l-314 770h7z" />
    <glyph glyph-name="bracketright" unicode="]" horiz-adv-x="254" 
d="M247 710l-144 -834h-117l1 6h111l142 822h-111l1 6h117z" />
    <glyph glyph-name="asciicircum" unicode="^" horiz-adv-x="561" 
d="M491 279h-7l-124 385l-258 -385h-8l263 391h7z" />
    <glyph glyph-name="underscore" unicode="_" horiz-adv-x="490" 
d="M-54 -87l1 7h489l-1 -7h-489z" />
    <glyph glyph-name="grave" unicode="`" horiz-adv-x="460" 
d="M416 563l-4 -4l-102 108l7 6z" />
    <glyph glyph-name="a" unicode="a" horiz-adv-x="494" 
d="M211 2q56 0 101.5 31t72 79.5t41 103t14.5 107.5q0 70 -37.5 112t-115.5 42q-115 0 -176.5 -88t-61.5 -219q0 -79 41 -123.5t121 -44.5zM396 0h-5l32 187q-29 -91 -85 -141t-128 -50q-81 0 -124 47t-43 128q0 135 64.5 223.5t180.5 88.5q74 0 117.5 -43.5t39.5 -124.5
l27 164h6z" />
    <glyph glyph-name="b" unicode="b" horiz-adv-x="495" 
d="M287 477q-56 0 -101.5 -31t-72.5 -79.5t-41 -103t-14 -107.5q0 -70 37.5 -112t115.5 -42q114 0 176 88.5t62 218.5q0 79 -41 123.5t-121 44.5zM26 0h-6l123 718h5l-72 -423q30 91 84.5 139.5t127.5 48.5q81 0 124 -47t43 -128q0 -134 -64.5 -223t-180.5 -89
q-74 0 -117.5 43t-39.5 124z" />
    <glyph glyph-name="c" unicode="c" horiz-adv-x="439" 
d="M427 358h-6q1 5 1 14q0 50 -38 78t-100 28q-116 0 -176 -91t-60 -228q0 -159 159 -159q65 0 118 32.5t66 92.5q3 12 3 21h6q0 -11 -3 -23q-13 -61 -68.5 -95t-121.5 -34q-165 0 -165 165q0 140 61.5 232.5t180.5 92.5q65 0 104.5 -29.5t39.5 -82.5q0 -9 -1 -14z" />
    <glyph glyph-name="d" unicode="d" horiz-adv-x="500" 
d="M280 483q81 0 124 -50.5t37 -140.5l73 426h5l-123 -718h-6l29 167q-28 -85 -85 -128t-132 -43q-80 0 -121 43.5t-41 114.5q0 141 63.5 235t176.5 94zM279 477q-109 0 -171 -92.5t-62 -229.5q0 -69 39 -111t118 -42q101 0 167 80t66 232q0 74 -41 118.5t-116 44.5z" />
    <glyph glyph-name="e" unicode="e" horiz-adv-x="463" 
d="M51 217q-3 -25 -3 -52q0 -163 151 -163q46 0 87 13.5t72 48t32 83.5h6q0 -7 -2 -21q-9 -61 -65 -95.5t-130 -34.5q-157 0 -157 169q0 59 15.5 114t45 100.5t78.5 72.5t110 27q73 0 106.5 -32t33.5 -77q0 -21 -6.5 -40.5t-26 -41.5t-51 -38t-86.5 -26.5t-127 -10.5
q-39 0 -83 4zM291 473q-103 0 -163.5 -71.5t-75.5 -178.5q44 -4 82 -4q70 0 124 10t84.5 25t50 36t26 40t6.5 40q0 43 -31.5 73t-102.5 30z" />
    <glyph glyph-name="f" unicode="f" horiz-adv-x="282" 
d="M45 -140h-6l109 612h-91v6h92l18 96q14 77 45 110.5t98 33.5q36 0 58 -6l-1 -6q-24 6 -57 6q-65 0 -95 -32.5t-44 -112.5l-16 -89h154v-6h-155z" />
    <glyph glyph-name="g" unicode="g" horiz-adv-x="494" 
d="M391 0l32 187q-29 -91 -85 -141t-128 -50q-81 0 -124 47t-43 128q0 135 64.5 223.5t180.5 88.5q74 0 117.5 -43.5t39.5 -124.5l27 164h6l-81 -481q-18 -104 -72.5 -154.5t-158.5 -50.5q-74 1 -120 32.5t-35 96.5h6q-10 -63 33.5 -92.5t115.5 -30.5q101 0 154 49t71 152z
M211 2q56 0 101.5 31t72 79.5t41 103t14.5 107.5q0 70 -37.5 112t-115.5 42q-115 0 -176.5 -88t-61.5 -219q0 -79 41 -123.5t121 -44.5z" />
    <glyph glyph-name="h" unicode="h" horiz-adv-x="477" 
d="M25 0h-5l123 718h6l-68 -393q21 59 62 96.5t75.5 49.5t66.5 12q52 0 86 -16t47 -43.5t15.5 -64t-6.5 -78.5l-48 -281h-6l48 281q8 55 4.5 98.5t-39 70.5t-102.5 27q-25 0 -53 -9t-61.5 -30.5t-61 -68t-38.5 -111.5z" />
    <glyph glyph-name="i" unicode="i" horiz-adv-x="164" 
d="M122 478h6l-82 -478h-6zM153 630q7 0 7 -7q0 -5 -3.5 -8t-7.5 -3q-7 0 -7 7q0 11 11 11z" />
    <glyph glyph-name="j" unicode="j" horiz-adv-x="177" 
d="M131 478h7l-102 -587q-9 -54 -27 -75t-61 -21h-6l1 6q43 0 60 18.5t26 71.5zM160 630q7 0 7 -7q0 -5 -3.5 -8t-7.5 -3q-7 0 -7 7q0 11 11 11z" />
    <glyph glyph-name="k" unicode="k" horiz-adv-x="404" 
d="M428 478h7l-211 -214l133 -264h-7l-130 261h-149l-46 -261h-5l123 718h6l-77 -451h148z" />
    <glyph glyph-name="l" unicode="l" horiz-adv-x="152" 
d="M153 718h6l-115 -664q-5 -26 5.5 -37t46.5 -11l-1 -6q-39 0 -50.5 12t-6.5 42z" />
    <glyph glyph-name="m" unicode="m" horiz-adv-x="811" 
d="M369 0h-5l48 283q6 34 7 60.5t-5.5 52.5t-21.5 43t-43.5 27.5t-69.5 10.5q-20 0 -41 -4.5t-48 -19.5t-49.5 -38t-42 -63.5t-28.5 -93.5l-45 -258h-5l82 478h6l-27 -153q21 60 60.5 97.5t73 49t65.5 11.5q166 0 141 -171q15 48 41.5 84t56 53.5t55.5 25.5t49 8
q100 0 127.5 -53.5t10.5 -148.5l-48 -281h-5l48 281q9 40 7 75.5t-13.5 62.5t-43.5 42.5t-83 15.5q-24 0 -51.5 -9t-60.5 -30.5t-59.5 -68t-37.5 -111.5z" />
    <glyph glyph-name="n" unicode="n" horiz-adv-x="477" 
d="M25 0h-5l82 478h6l-27 -153q21 59 62 96.5t75.5 49.5t66.5 12q52 0 86 -16t47 -43.5t15.5 -64t-6.5 -78.5l-48 -281h-6l48 281q8 55 4.5 98.5t-39 70.5t-102.5 27q-25 0 -53 -9t-61.5 -30.5t-61 -68t-38.5 -111.5z" />
    <glyph glyph-name="o" unicode="o" horiz-adv-x="485" 
d="M287 477q-113 0 -176 -93t-63 -231q0 -76 38 -113.5t119 -37.5q97 0 165 80.5t68 231.5q0 163 -151 163zM288 483q80 0 118 -45t38 -123q0 -154 -70 -236.5t-170 -82.5q-162 0 -162 156q0 92 27 165.5t84 119.5t135 46z" />
    <glyph glyph-name="p" unicode="p" horiz-adv-x="494" 
d="M-10 -205h-6l118 684h6l-30 -167q26 83 84.5 127t133.5 44q78 0 120 -42.5t42 -115.5q0 -144 -60 -236.5t-178 -92.5q-80 0 -125 52t-38 139zM221 2q114 0 172.5 91t58.5 231q0 70 -39.5 111.5t-117.5 41.5q-101 0 -167 -80t-66 -232q0 -74 42 -118.5t117 -44.5z" />
    <glyph glyph-name="q" unicode="q" horiz-adv-x="494" 
d="M211 2q56 0 101.5 31t72 79.5t41 103t14.5 107.5q0 70 -37.5 112t-115.5 42q-115 0 -176.5 -88t-61.5 -219q0 -79 41 -123.5t121 -44.5zM361 -205h-6l68 392q-29 -91 -85 -141t-128 -50q-81 0 -124 47t-43 128q0 135 64.5 223.5t180.5 88.5q74 0 117.5 -43.5t39.5 -124.5
l27 164h6z" />
    <glyph glyph-name="r" unicode="r" horiz-adv-x="268" 
d="M301 483l-2 -7q-25 0 -53 -9t-61.5 -30t-60.5 -67.5t-39 -111.5l-44 -258h-6l83 478h5l-26 -153q21 59 62 96.5t75.5 49.5t66.5 12z" />
    <glyph glyph-name="s" unicode="s" horiz-adv-x="433" 
d="M28 144h5q-12 -70 26.5 -105.5t110.5 -35.5q58 0 100 15t62 39t29 46.5t9 45.5t-9 39.5t-20 26.5t-33.5 17.5t-37 10.5t-42.5 8t-42.5 8t-37 10.5t-33.5 17t-19.5 26.5t-8.5 39q0 59 46.5 96t118.5 37q64 0 104 -23.5t40 -75.5q0 -14 -3 -29h-6q13 63 -25.5 92.5
t-109.5 29.5q-69 0 -114 -35.5t-45 -91.5q0 -21 9 -37t19.5 -25t33.5 -16.5t36.5 -10t42.5 -7.5q27 -5 42.5 -8t37.5 -11.5t33.5 -18.5t20 -28t8.5 -41t-9.5 -47t-30.5 -49t-64 -40.5t-102 -15.5q-65 0 -105 29t-40 84q0 22 3 34z" />
    <glyph glyph-name="t" unicode="t" horiz-adv-x="283" 
d="M305 478l-1 -6h-150l-59 -337q-13 -76 12 -104.5t90 -28.5q19 0 47 3l-1 -6q-29 -3 -47 -3q-68 0 -94 30t-13 109l59 337h-91l1 6h91l22 131h6l-22 -131h150z" />
    <glyph glyph-name="u" unicode="u" horiz-adv-x="472" 
d="M451 478h6l-83 -477h-6l27 153q-22 -59 -62.5 -96.5t-75 -49.5t-66.5 -12q-53 0 -86 16t-45 43.5t-14 64t7 78.5l49 280h6l-49 -280q-9 -40 -7 -75.5t13 -62.5t43 -42.5t84 -15.5q25 0 53 9t61.5 30.5t61 68t38.5 111.5z" />
    <glyph glyph-name="v" unicode="v" horiz-adv-x="409" 
d="M152 7l165 257q39 62 57 108t25 106h6q-10 -68 -26 -109.5t-56 -105.5l-169 -263h-6l-104 478h6z" />
    <glyph glyph-name="w" unicode="w" horiz-adv-x="642" 
d="M567 264l-147 -264h-4l-85 407l-211 -407h-6l-67 478h6l66 -467l211 405h5l85 -404l142 254q21 39 34.5 75.5t19 61.5t14.5 75h6q-9 -52 -14 -75t-19 -61t-36 -78z" />
    <glyph glyph-name="x" unicode="x" horiz-adv-x="383" 
d="M329 0h-7l-133 240l-214 -240h-8l219 245l-127 233h7l124 -228l204 228h7l-208 -233z" />
    <glyph glyph-name="y" unicode="y" horiz-adv-x="396" 
d="M87 -205h-7l101 200h-22l-127 483h6l126 -477h20l134 264q33 65 46.5 108.5t20.5 103.5h6q-7 -60 -21.5 -106t-46.5 -108z" />
    <glyph glyph-name="z" unicode="z" horiz-adv-x="370" 
d="M-31 0l1 6l419 466h-312l1 6h320l-1 -6l-419 -466h340l-1 -6h-348z" />
    <glyph glyph-name="braceleft" unicode="{" horiz-adv-x="304" 
d="M120 301v4q18 5 30.5 16.5t20 29.5t11 32t7.5 36l31 181q5 24 8.5 38t12.5 32.5t24.5 27.5t37.5 9h34l-1 -6h-34q-26 0 -43 -17.5t-22.5 -35.5t-10.5 -48l-31 -181q-17 -97 -66 -116q28 -14 32 -49.5t-7 -73.5l-33 -195q-4 -22 -5 -36t1 -31t13 -25.5t31 -8.5h34l-1 -6
h-34q-22 0 -34.5 9t-15 27t-1 33t5.5 38l33 195q10 38 6 74.5t-34 46.5z" />
    <glyph glyph-name="bar" unicode="|" horiz-adv-x="233" 
d="M114 -124v841h6v-841h-6z" />
    <glyph glyph-name="braceright" unicode="}" horiz-adv-x="304" 
d="M218 305v-4q-24 -7 -39.5 -28t-21 -40.5t-11.5 -52.5l-33 -195q-5 -24 -8.5 -38t-12.5 -32.5t-24.5 -27.5t-37.5 -9h-34l1 6h34q26 0 43 17.5t22.5 35.5t10.5 48l33 195q5 26 8.5 40t11 33t19.5 31t29 19q-44 20 -27 116l32 181q4 23 4.5 36t-1.5 30.5t-13 26t-31 8.5
h-34l1 6h34q22 0 34.5 -9t15 -27.5t1.5 -33t-5 -37.5l-32 -181q-10 -33 -4.5 -68.5t35.5 -45.5z" />
    <glyph glyph-name="asciitilde" unicode="~" horiz-adv-x="534" 
d="M479 314l6 -2q-48 -72 -122 -72q-38 0 -102 34q-58 32 -90 32q-29 0 -51 -12t-48 -46l-5 4q27 35 51 47.5t54 12.5t92 -32q62 -34 99 -34q72 0 116 68z" />
    <glyph glyph-name="exclamdown" unicode="&#xa1;" horiz-adv-x="215" 
d="M128 370h6l-102 -586h-9zM148 480q9 0 9 -9q-3 -10 -12 -10q-8 0 -8 7q0 12 11 12z" />
    <glyph glyph-name="cent" unicode="&#xa2;" horiz-adv-x="529" 
d="M479 445h-6q1 5 1 14q0 49 -37 77t-98 29l-84 -478h4q65 0 118 32.5t66 92.5q3 12 3 21h6q0 -11 -3 -23q-13 -61 -68.5 -95t-121.5 -34h-5l-23 -131h-6l23 131q-154 4 -154 165q0 140 60.5 232t179.5 93l20 110h6l-20 -110q63 -2 101.5 -31t38.5 -81q0 -9 -1 -14z
M100 246q0 -155 149 -159l84 478q-78 -1 -132 -46.5t-77.5 -115t-23.5 -157.5z" />
    <glyph glyph-name="sterling" unicode="&#xa3;" horiz-adv-x="529" 
d="M71 347l1 6h78q-5 35 -5 68q0 106 52 170t164 64q81 0 122.5 -30.5t41.5 -76.5q0 -17 -2 -26h-6q6 36 -5.5 62t-37 39.5t-53.5 19.5t-61 6q-209 0 -209 -232q0 -31 5 -64h197l-1 -6h-195q6 -44 6 -68q0 -61 -28 -135.5t-79 -137.5h369l-1 -6h-415l1 6h39q51 62 79.5 137
t28.5 137q0 23 -6 67h-80z" />
    <glyph glyph-name="currency" unicode="&#xa4;" horiz-adv-x="545" 
d="M446 112l-4 -4l-60 59q-44 -46 -112 -46q-64 0 -109 43l-56 -56l-4 4l56 56q-43 43 -43 106t41 107l-54 56l4 4l54 -56q46 46 111 46q68 0 114 -49l58 59l4 -4l-59 -60q38 -43 38 -103q0 -59 -39 -103zM120 274q0 -61 44 -104t106 -43q63 0 106 43t43 104q0 63 -43 107
t-106 44q-62 0 -106 -44t-44 -107z" />
    <glyph glyph-name="yen" unicode="&#xa5;" horiz-adv-x="529" 
d="M56 200h409l-1 -5h-207l-34 -195h-6l34 195h-196zM479 280h-409l1 5h194l-139 364h6l139 -363l272 363h6l-272 -364h203z" />
    <glyph glyph-name="brokenbar" unicode="&#xa6;" horiz-adv-x="233" 
d="M113 257h6v-381h-6v381zM119 361h-6v356h6v-356z" />
    <glyph glyph-name="section" unicode="&#xa7;" horiz-adv-x="487" 
d="M429 284q0 57 -47.5 89t-162.5 56q-64 -18 -102.5 -64t-38.5 -91q0 -31 16 -54t47 -39t63 -25.5t77 -18.5q62 11 105 52.5t43 94.5zM170 -124q-62 0 -107 27.5t-45 79.5q0 11 3 25h5q-3 -12 -3 -24q0 -43 38.5 -73t109.5 -30q90 0 145 44.5t55 107.5q0 38 -25 64t-66 35
q-29 6 -36.5 8t-37 10t-41.5 13.5t-34 17.5t-31.5 24t-18 30t-8.5 38q0 46 36 92t105 68q-79 26 -79 95q0 23 11 48t32 49t60 39t89 15q62 0 104 -29t42 -79q0 -14 -2 -22h-6q2 14 2 21q0 43 -35.5 73t-105.5 30q-83 0 -134 -43t-51 -103q0 -44 32 -67t89 -36
q87 -20 130 -52t43 -88q0 -44 -36 -88.5t-108 -61.5q44 -13 65 -41t21 -62q0 -23 -11 -48t-33.5 -50t-65 -41t-97.5 -16z" />
    <glyph glyph-name="dieresis" unicode="&#xa8;" horiz-adv-x="454" 
d="M231 597q6 0 6 -7q0 -11 -9 -11t-9 7q0 11 12 11zM375 597q5 0 5 -6q0 -12 -8 -12q-9 0 -9 7q0 11 12 11z" />
    <glyph glyph-name="copyright" unicode="&#xa9;" horiz-adv-x="809" 
d="M579 240h6q4 -74 -51.5 -111.5t-129.5 -37.5q-111 0 -160 59.5t-49 185.5q0 71 18 125.5t67.5 92t126.5 37.5q83 0 129.5 -36t39.5 -98h-6q7 59 -38 93.5t-125 34.5q-57 0 -98.5 -20.5t-64 -56.5t-33 -78.5t-10.5 -93.5q0 -123 47.5 -181t155.5 -58q72 0 125.5 35.5
t49.5 107.5zM407 713q-148 0 -247.5 -103t-99.5 -253q0 -160 96.5 -259t250.5 -99q144 0 245 104t101 254q0 149 -101 252.5t-245 103.5zM407 719q147 0 249.5 -105t102.5 -257q0 -153 -102.5 -258.5t-249.5 -105.5q-157 0 -255 100.5t-98 263.5q0 153 101 257.5t252 104.5z
" />
    <glyph glyph-name="ordfeminine" unicode="&#xaa;" horiz-adv-x="342" 
d="M239 607q-77 0 -120.5 -55.5t-43.5 -144.5q0 -106 102 -106q77 0 117.5 59.5t40.5 140.5q0 45 -23 75.5t-73 30.5zM240 613q41 0 70.5 -25.5t30.5 -80.5l18 103h7l-55 -310h-7l17 96q-41 -101 -146 -101q-106 0 -106 113q0 89 44.5 147t126.5 58z" />
    <glyph glyph-name="guillemotleft" unicode="&#xab;" horiz-adv-x="372" 
d="M179 32l-121 187l1 6l180 189l3 -3l-175 -189l117 -187zM283 32l-121 187l1 6l179 189l4 -3l-175 -189l117 -187z" />
    <glyph glyph-name="logicalnot" unicode="&#xac;" horiz-adv-x="529" 
d="M445 280l-31 -177h-7l30 170h-337l1 7h344z" />
    <glyph glyph-name="sfthyphen" unicode="&#xad;" horiz-adv-x="435" 
d="M103 247l2 9h235l-2 -9h-235z" />
    <glyph glyph-name="registered" unicode="&#xae;" horiz-adv-x="563" 
d="M381 323h-7l-63 122h-5h-93v-122h-6v276h91q37 0 61 -20t24 -58q0 -26 -17.5 -49t-47.5 -27zM298 593h-85v-142h93q33 0 52 21.5t19 48.5q0 35 -22.5 53.5t-56.5 18.5zM281 694q105 0 170 -68.5t65 -169.5q0 -98 -68.5 -166t-166.5 -68q-106 0 -170 67t-64 167
q0 99 67 168.5t167 69.5zM281 688q-97 0 -162.5 -68t-65.5 -164q0 -97 62.5 -162.5t165.5 -65.5q95 0 162 66.5t67 161.5q0 98 -63.5 165t-165.5 67z" />
    <glyph glyph-name="macron" unicode="&#xaf;" horiz-adv-x="454" 
d="M168 592l1 8h265l-1 -8h-265z" />
    <glyph glyph-name="degree" unicode="&#xb0;" horiz-adv-x="403" 
d="M199 647q-42 0 -71.5 -29t-29.5 -73q0 -42 28 -70.5t73 -28.5q44 0 75 29t31 70q0 44 -30.5 73t-75.5 29zM199 653q48 0 80 -30.5t32 -77.5q0 -44 -32.5 -74.5t-79.5 -30.5q-48 0 -77.5 30t-29.5 75q0 47 31 77.5t76 30.5z" />
    <glyph glyph-name="plusminus" unicode="&#xb1;" horiz-adv-x="529" 
d="M55 7h343l-1 -7h-343zM276 261l-30 -170h-7l30 170h-169l1 7h169l32 181h7l-32 -181h167l-1 -7h-167z" />
    <glyph glyph-name="twosuperior" unicode="&#xb2;" horiz-adv-x="372" 
d="M350 393l-1 -6h-289l2 13q8 50 48 84.5t132 81.5q66 34 102 65.5t36 69.5q0 66 -103 66q-66 0 -101 -25.5t-41 -65.5h-6q7 43 43.5 70t105.5 27q108 0 108 -70q0 -42 -37.5 -74.5t-105.5 -67.5q-89 -46 -129.5 -81t-46.5 -87h283z" />
    <glyph glyph-name="threesuperior" unicode="&#xb3;" horiz-adv-x="372" 
d="M134 768h258l-1 -6l-177 -141h16q57 0 91 -26t34 -70q0 -63 -50 -103t-125 -40q-45 0 -83.5 17.5t-38.5 58.5q0 11 5 29h6q-5 -17 -5 -28q0 -38 35.5 -54.5t81.5 -16.5q72 0 120 38t48 97q0 42 -32 67t-88 25q-14 0 -24 -1l-2 5l177 141v2h-247z" />
    <glyph glyph-name="acute" unicode="&#xb4;" horiz-adv-x="454" 
d="M275 556l-4 4l124 123l5 -6z" />
    <glyph glyph-name="mu" unicode="&#xb5;" horiz-adv-x="468" 
d="M-19 -205l121 683h6l-50 -280q-9 -40 -7.5 -75.5t12.5 -62.5t42.5 -42.5t83.5 -15.5q24 0 52 9t61.5 30.5t61 68t38.5 111.5l46 257h5l-84 -477h-5l27 153q-22 -59 -62.5 -96.5t-75 -49.5t-65.5 -12q-78 0 -110 32.5t-33 93.5l-58 -327h-6z" />
    <glyph glyph-name="mu" unicode="&#x3bc;" horiz-adv-x="468" 
d="M-19 -205l121 683h6l-50 -280q-9 -40 -7.5 -75.5t12.5 -62.5t42.5 -42.5t83.5 -15.5q24 0 52 9t61.5 30.5t61 68t38.5 111.5l46 257h5l-84 -477h-5l27 153q-22 -59 -62.5 -96.5t-75 -49.5t-65.5 -12q-78 0 -110 32.5t-33 93.5l-58 -327h-6z" />
    <glyph glyph-name="paragraph" unicode="&#xb6;" horiz-adv-x="387" 
d="M295 364h-45q-74 0 -112 36.5t-38 103.5q0 90 56 146.5t154 56.5h45zM385 707h6l-124 -705q-14 -80 -46 -111.5t-93 -31.5h-16l1 6q69 -3 101.5 27.5t46.5 109.5z" />
    <glyph glyph-name="periodcentered" unicode="&#xb7;" horiz-adv-x="137" 
d="M79 289q10 0 10 -11q0 -6 -4.5 -10.5t-9.5 -4.5q-11 0 -11 11q0 6 4.5 10.5t10.5 4.5z" />
    <glyph glyph-name="cedilla" unicode="&#xb8;" horiz-adv-x="458" 
d="M157 -71l-3 4l48 65h7l-47 -62q13 4 34 4q27 0 45.5 -14.5t18.5 -40.5q0 -31 -28 -54.5t-71 -23.5q-32 0 -66 13l3 5q31 -12 62 -12q43 0 68.5 21.5t25.5 50.5q0 24 -17 37t-42 13q-20 0 -38 -6z" />
    <glyph glyph-name="onesuperior" unicode="&#xb9;" horiz-adv-x="372" 
d="M73 387l1 6h118l65 368l-107 -18v6l108 19h6l-66 -375h121l-1 -6h-245z" />
    <glyph glyph-name="ordmasculine" unicode="&#xba;" horiz-adv-x="348" 
d="M245 613q60 0 86.5 -32t26.5 -82q0 -47 -15 -91t-55 -78.5t-99 -34.5q-116 0 -116 108q0 82 44.5 146t127.5 64zM244 607q-79 0 -122 -62.5t-43 -140.5q0 -103 111 -103q82 0 122 61.5t40 136.5q0 108 -108 108z" />
    <glyph glyph-name="guillemotright" unicode="&#xbb;" horiz-adv-x="372" 
d="M206 219l-188 -187l-3 3l184 187l-110 189l4 3l114 -189zM309 219l-187 -187l-3 3l184 187l-110 189l4 3l113 -189z" />
    <glyph glyph-name="onequarter" unicode="&#xbc;" horiz-adv-x="760" 
d="M66 297l1 6h118l65 368l-107 -18v6l108 19h6l-66 -375h121l-1 -6h-245zM155 -31l-5 3l520 732l5 -2zM670 381h5l-48 -272h64l-1 -6h-64l-18 -103h-6l18 103h-249l1 6zM669 374l-289 -265h241z" />
    <glyph glyph-name="onehalf" unicode="&#xbd;" horiz-adv-x="760" 
d="M47 297l1 6h118l65 368l-107 -18v6l108 19h6l-66 -375h121l-1 -6h-245zM129 -31l-5 3l520 732l5 -2zM675 6l-1 -6h-289l2 13q8 50 48 84.5t132 81.5q66 34 102 65.5t36 69.5q0 66 -103 66q-66 0 -101 -25.5t-41 -65.5h-6q7 43 43.5 70t105.5 27q108 0 108 -70
q0 -42 -37.5 -74.5t-105.5 -67.5q-89 -46 -129.5 -81t-46.5 -87h283z" />
    <glyph glyph-name="threequarters" unicode="&#xbe;" horiz-adv-x="760" 
d="M133 678h258l-1 -6l-177 -141h16q57 0 91 -26t34 -70q0 -63 -50 -103t-125 -40q-45 0 -83.5 17.5t-38.5 58.5q0 11 5 29h6q-5 -17 -5 -28q0 -38 35.5 -54.5t81.5 -16.5q72 0 120 38t48 97q0 42 -32 67t-88 25q-14 0 -24 -1l-2 5l177 141v2h-247zM169 -31l-5 3l520 732
l5 -2zM679 381h5l-48 -272h64l-1 -6h-64l-18 -103h-6l18 103h-249l1 6zM678 374l-289 -265h241z" />
    <glyph glyph-name="questiondown" unicode="&#xbf;" horiz-adv-x="528" 
d="M394 -49h5q-6 -70 -59.5 -120.5t-157.5 -50.5q-79 0 -116.5 30.5t-37.5 82.5q0 46 24 83.5t60 67t73.5 60.5t69.5 80.5t43 112.5l13 75h6l-12 -70q-11 -65 -43 -116.5t-70 -83t-74 -61t-60 -66t-24 -82.5q0 -107 149 -107q100 0 152 48t59 117zM331 479q7 0 7 -7
q0 -12 -10 -12q-9 0 -9 8q0 11 12 11z" />
    <glyph glyph-name="Agrave" unicode="&#xc0;" horiz-adv-x="547" 
d="M492 0h-6l-40 190h-360l-104 -190h-7l371 673h7zM349 667l-259 -471h355zM358 738l-5 -4l-101 104l6 6z" />
    <glyph glyph-name="Aacute" unicode="&#xc1;" horiz-adv-x="547" 
d="M492 0h-6l-40 190h-360l-104 -190h-7l371 673h7zM349 667l-259 -471h355zM343 734l-3 4l135 106l5 -6z" />
    <glyph glyph-name="Acircumflex" unicode="&#xc2;" horiz-adv-x="547" 
d="M492 0h-6l-40 190h-360l-104 -190h-7l371 673h7zM349 667l-259 -471h355zM479 719l-111 101l-148 -104l-3 4l150 107h5l111 -104z" />
    <glyph glyph-name="Atilde" unicode="&#xc3;" horiz-adv-x="547" 
d="M492 0h-6l-40 190h-360l-104 -190h-7l371 673h7zM349 667l-259 -471h355zM220 765l-4 3q32 49 77 49q17 0 58.5 -22t60.5 -22q36 0 68 42l5 -3q-35 -45 -74 -45q-19 0 -60 22t-58 22q-41 0 -73 -46z" />
    <glyph glyph-name="Adieresis" unicode="&#xc4;" horiz-adv-x="547" 
d="M492 0h-6l-40 190h-360l-104 -190h-7l371 673h7zM349 667l-259 -471h355zM291 788q8 0 8 -8q0 -10 -11 -10q-8 0 -8 7q0 11 11 11zM435 788q7 0 7 -8q0 -10 -10 -10q-8 0 -8 7q0 11 11 11z" />
    <glyph glyph-name="Aring" unicode="&#xc5;" horiz-adv-x="547" 
d="M492 0h-6l-40 190h-360l-104 -190h-7l371 673h7zM349 667l-259 -471h355zM374 829q-29 0 -50 -23t-21 -54q0 -22 13.5 -36t35.5 -14q31 0 51.5 24t20.5 53q0 22 -13 36t-37 14zM375 835q27 0 41 -15t14 -39q0 -34 -22 -59.5t-57 -25.5q-25 0 -39.5 15t-14.5 40
q0 34 22.5 59t55.5 25z" />
    <glyph glyph-name="AE" unicode="&#xc6;" horiz-adv-x="852" 
d="M-9 0h-8l511 673h366v-6h-358l-36 -302h332l-1 -6h-332l-42 -353h394v-6h-400l31 272h-251zM201 278h249l46 389z" />
    <glyph glyph-name="Ccedilla" unicode="&#xc7;" horiz-adv-x="589" 
d="M576 498h-6q8 29 8 49q0 61 -49.5 93.5t-120.5 32.5q-161 0 -247 -126t-86 -329q0 -105 47.5 -160.5t159.5 -55.5q115 0 178.5 53.5t69.5 136.5h6q-7 -86 -72 -141t-183 -55q-115 0 -163.5 56.5t-48.5 165.5q0 206 88 333.5t252 127.5q73 0 124 -33t51 -97q0 -22 -8 -51z
M239 -71l-3 4l48 65h7l-47 -62q13 4 34 4q27 0 45.5 -14.5t18.5 -40.5q0 -31 -28 -54.5t-71 -23.5q-32 0 -66 13l3 5q32 -12 62 -12q43 0 68.5 21.5t25.5 50.5q0 24 -17 37t-42 13q-20 0 -38 -6z" />
    <glyph glyph-name="Egrave" unicode="&#xc8;" horiz-adv-x="520" 
d="M464 369l-1 -6h-363l-63 -357h416l-1 -6h-422l118 673h386l-1 -6h-380l-52 -298h363zM389 738l-5 -4l-101 104l6 6z" />
    <glyph glyph-name="Eacute" unicode="&#xc9;" horiz-adv-x="520" 
d="M464 369l-1 -6h-363l-63 -357h416l-1 -6h-422l118 673h386l-1 -6h-380l-52 -298h363zM330 734l-3 4l135 106l5 -6z" />
    <glyph glyph-name="Ecircumflex" unicode="&#xca;" horiz-adv-x="520" 
d="M464 369l-1 -6h-363l-63 -357h416l-1 -6h-422l118 673h386l-1 -6h-380l-52 -298h363zM479 732l-111 101l-148 -104l-3 4l150 107h5l111 -104z" />
    <glyph glyph-name="Edieresis" unicode="&#xcb;" horiz-adv-x="520" 
d="M464 369l-1 -6h-363l-63 -357h416l-1 -6h-422l118 673h386l-1 -6h-380l-52 -298h363zM288 788q8 0 8 -8q0 -10 -11 -10q-8 0 -8 7q0 11 11 11zM432 788q7 0 7 -8q0 -10 -10 -10q-8 0 -8 7q0 11 11 11z" />
    <glyph glyph-name="Igrave" unicode="&#xcc;" horiz-adv-x="186" 
d="M168 673h6l-118 -673h-6zM188 738l-5 -4l-101 104l6 6z" />
    <glyph glyph-name="Iacute" unicode="&#xcd;" horiz-adv-x="186" 
d="M168 673h6l-118 -673h-6zM174 734l-3 4l135 106l5 -6z" />
    <glyph glyph-name="Icircumflex" unicode="&#xce;" horiz-adv-x="186" 
d="M168 673h6l-118 -673h-6zM315 732l-111 101l-148 -104l-3 4l150 107h5l111 -104z" />
    <glyph glyph-name="Idieresis" unicode="&#xcf;" horiz-adv-x="186" 
d="M168 673h6l-118 -673h-6zM128 788q8 0 8 -8q0 -10 -11 -10q-8 0 -8 7q0 11 11 11zM272 788q7 0 7 -8q0 -10 -10 -10q-8 0 -8 7q0 11 11 11z" />
    <glyph glyph-name="Eth" unicode="&#xd0;" horiz-adv-x="599" 
d="M30 0l61 352h-69l1 6h69l56 315h151q51 0 97 -15t86.5 -46t64.5 -87t24 -131q0 -174 -106 -284t-271 -110h-164zM154 667l-54 -309h264l-1 -6h-264l-61 -346h156q162 0 266.5 108.5t104.5 279.5q0 74 -23.5 129t-63 85t-84.5 44.5t-95 14.5h-145z" />
    <glyph glyph-name="Ntilde" unicode="&#xd1;" horiz-adv-x="618" 
d="M148 673h6l350 -661l116 661h6l-118 -673h-5l-351 664l-116 -664h-6zM259 756l-4 3q32 49 77 49q17 0 58.5 -22t60.5 -22q37 0 68 42l5 -3q-35 -45 -74 -45q-20 0 -61 22t-57 22q-41 0 -73 -46z" />
    <glyph glyph-name="Ograve" unicode="&#xd2;" horiz-adv-x="655" 
d="M406 674q-106 0 -183.5 -64.5t-113.5 -165.5t-36 -224q0 -218 212 -218q68 0 124.5 27t93.5 71.5t63 103t37.5 119.5t11.5 123q0 228 -209 228zM407 679q214 0 214 -232q0 -61 -11.5 -122t-37.5 -121t-64 -105.5t-96 -74t-128 -28.5q-217 0 -217 222q0 125 36.5 227
t115 168t188.5 66zM433 738l-5 -4l-101 104l6 6z" />
    <glyph glyph-name="Oacute" unicode="&#xd3;" horiz-adv-x="655" 
d="M406 674q-106 0 -183.5 -64.5t-113.5 -165.5t-36 -224q0 -218 212 -218q68 0 124.5 27t93.5 71.5t63 103t37.5 119.5t11.5 123q0 228 -209 228zM407 679q214 0 214 -232q0 -61 -11.5 -122t-37.5 -121t-64 -105.5t-96 -74t-128 -28.5q-217 0 -217 222q0 125 36.5 227
t115 168t188.5 66zM401 734l-3 4l135 106l5 -6z" />
    <glyph glyph-name="Ocircumflex" unicode="&#xd4;" horiz-adv-x="655" 
d="M406 674q-106 0 -183.5 -64.5t-113.5 -165.5t-36 -224q0 -218 212 -218q68 0 124.5 27t93.5 71.5t63 103t37.5 119.5t11.5 123q0 228 -209 228zM407 679q214 0 214 -232q0 -61 -11.5 -122t-37.5 -121t-64 -105.5t-96 -74t-128 -28.5q-217 0 -217 222q0 125 36.5 227
t115 168t188.5 66zM565 732l-111 101l-148 -104l-3 4l150 107h5l111 -104z" />
    <glyph glyph-name="Otilde" unicode="&#xd5;" horiz-adv-x="655" 
d="M406 674q-106 0 -183.5 -64.5t-113.5 -165.5t-36 -224q0 -218 212 -218q68 0 124.5 27t93.5 71.5t63 103t37.5 119.5t11.5 123q0 228 -209 228zM407 679q214 0 214 -232q0 -61 -11.5 -122t-37.5 -121t-64 -105.5t-96 -74t-128 -28.5q-217 0 -217 222q0 125 36.5 227
t115 168t188.5 66zM314 773l-4 3q32 49 77 49q17 0 58.5 -22t60.5 -22q36 0 68 42l5 -3q-35 -45 -74 -45q-20 0 -60.5 22t-57.5 22q-41 0 -73 -46z" />
    <glyph glyph-name="Odieresis" unicode="&#xd6;" horiz-adv-x="655" 
d="M406 674q-106 0 -183.5 -64.5t-113.5 -165.5t-36 -224q0 -218 212 -218q68 0 124.5 27t93.5 71.5t63 103t37.5 119.5t11.5 123q0 228 -209 228zM407 679q214 0 214 -232q0 -61 -11.5 -122t-37.5 -121t-64 -105.5t-96 -74t-128 -28.5q-217 0 -217 222q0 125 36.5 227
t115 168t188.5 66zM384 788q8 0 8 -8q0 -10 -11 -10q-8 0 -8 7q0 11 11 11zM528 788q7 0 7 -8q0 -10 -10 -10q-8 0 -8 7q0 11 11 11z" />
    <glyph glyph-name="multiply" unicode="&#xd7;" horiz-adv-x="529" 
d="M262 271l-140 -123l-5 5l141 123l-97 123l6 5l97 -123l140 122l4 -5l-140 -122l97 -122l-6 -5z" />
    <glyph glyph-name="Oslash" unicode="&#xd8;" horiz-adv-x="655" 
d="M407 679q124 0 177 -80l71 78l4 -4l-72 -79q34 -55 34 -147q0 -61 -11.5 -122t-37.5 -121t-64 -105.5t-96 -74t-128 -28.5q-122 0 -175 71l-80 -88l-4 4l80 88q-38 56 -38 147q0 125 36.5 227t115 168t188.5 66zM406 674q-106 0 -183.5 -64.5t-113.5 -165.5t-36 -224
q0 -92 36 -144l471 519q-49 79 -174 79zM615 446q0 89 -32 144l-470 -519q51 -69 172 -69q68 0 124.5 27t93.5 71.5t63 103t37.5 119.5t11.5 123z" />
    <glyph glyph-name="Ugrave" unicode="&#xd9;" horiz-adv-x="631" 
d="M148 673h6l-69 -393q-24 -135 20 -206.5t180 -71.5q126 0 191 74t88 205l69 392h6l-69 -392q-24 -134 -91 -209.5t-195 -75.5q-139 0 -184.5 73t-20.5 211zM435 738l-5 -4l-101 104l6 6z" />
    <glyph glyph-name="Uacute" unicode="&#xda;" horiz-adv-x="631" 
d="M148 673h6l-69 -393q-24 -135 20 -206.5t180 -71.5q126 0 191 74t88 205l69 392h6l-69 -392q-24 -134 -91 -209.5t-195 -75.5q-139 0 -184.5 73t-20.5 211zM369 734l-3 4l135 106l5 -6z" />
    <glyph glyph-name="Ucircumflex" unicode="&#xdb;" horiz-adv-x="631" 
d="M148 673h6l-69 -393q-24 -135 20 -206.5t180 -71.5q126 0 191 74t88 205l69 392h6l-69 -392q-24 -134 -91 -209.5t-195 -75.5q-139 0 -184.5 73t-20.5 211zM530 732l-111 101l-148 -104l-3 4l150 107h5l111 -104z" />
    <glyph glyph-name="Udieresis" unicode="&#xdc;" horiz-adv-x="631" 
d="M148 673h6l-69 -393q-24 -135 20 -206.5t180 -71.5q126 0 191 74t88 205l69 392h6l-69 -392q-24 -134 -91 -209.5t-195 -75.5q-139 0 -184.5 73t-20.5 211zM337 788q8 0 8 -8q0 -10 -11 -10q-8 0 -8 7q0 11 11 11zM481 788q7 0 7 -8q0 -10 -10 -10q-8 0 -8 7q0 11 11 11z
" />
    <glyph glyph-name="Yacute" unicode="&#xdd;" horiz-adv-x="464" 
d="M527 673h7l-296 -397l-47 -276h-6l47 276l-147 397h7l144 -390zM287 717l-3 4l135 106l5 -6z" />
    <glyph glyph-name="Thorn" unicode="&#xde;" horiz-adv-x="534" 
d="M148 673h6l-23 -128h219q91 0 137.5 -46.5t46.5 -126.5q0 -37 -12.5 -73.5t-39 -72t-77.5 -57.5t-120 -22h-223l-26 -147h-6zM349 539h-219l-67 -386h223q67 0 117 21.5t76 56t37.5 69.5t11.5 71q0 78 -44.5 123t-134.5 45z" />
    <glyph glyph-name="germandbls" unicode="&#xdf;" horiz-adv-x="497" 
d="M18 -22l95 510q43 235 213 235q68 0 107 -33t39 -78q0 -24 -8 -47.5t-16.5 -38.5t-28 -34.5t-28 -26.5t-30.5 -25q-55 -44 -55 -76q0 -29 61 -88q89 -88 89 -142q0 -154 -198 -154q-30 0 -56 3l1 6q27 -3 58 -3q81 0 134.5 34t53.5 114q0 53 -82 133q-68 66 -68 96
q0 39 72 94q94 72 94 153q0 45 -38 75.5t-106 30.5q-85 0 -133.5 -60.5t-70.5 -178.5l-93 -502q-16 -83 -52 -123.5t-103 -40.5q-33 0 -54 4l1 6q30 -4 52 -4q38 0 65 12.5t43.5 37t25.5 50t16 61.5z" />
    <glyph glyph-name="agrave" unicode="&#xe0;" horiz-adv-x="494" 
d="M211 2q56 0 101.5 31t72 79.5t41 103t14.5 107.5q0 70 -37.5 112t-115.5 42q-115 0 -176.5 -88t-61.5 -219q0 -79 41 -123.5t121 -44.5zM396 0h-5l32 187q-29 -91 -85 -141t-128 -50q-81 0 -124 47t-43 128q0 135 64.5 223.5t180.5 88.5q74 0 117.5 -43.5t39.5 -124.5
l27 164h6zM336 563l-4 -4l-102 108l7 6z" />
    <glyph glyph-name="aacute" unicode="&#xe1;" horiz-adv-x="494" 
d="M211 2q56 0 101.5 31t72 79.5t41 103t14.5 107.5q0 70 -37.5 112t-115.5 42q-115 0 -176.5 -88t-61.5 -219q0 -79 41 -123.5t121 -44.5zM396 0h-5l32 187q-29 -91 -85 -141t-128 -50q-81 0 -124 47t-43 128q0 135 64.5 223.5t180.5 88.5q74 0 117.5 -43.5t39.5 -124.5
l27 164h6zM280 556l-4 4l124 123l5 -6z" />
    <glyph glyph-name="acircumflex" unicode="&#xe2;" horiz-adv-x="494" 
d="M211 2q56 0 101.5 31t72 79.5t41 103t14.5 107.5q0 70 -37.5 112t-115.5 42q-115 0 -176.5 -88t-61.5 -219q0 -79 41 -123.5t121 -44.5zM396 0h-5l32 187q-29 -91 -85 -141t-128 -50q-81 0 -124 47t-43 128q0 135 64.5 223.5t180.5 88.5q74 0 117.5 -43.5t39.5 -124.5
l27 164h6zM439 547l-111 120l-158 -123l-3 4l158 125h7l111 -122z" />
    <glyph glyph-name="atilde" unicode="&#xe3;" horiz-adv-x="494" 
d="M211 2q56 0 101.5 31t72 79.5t41 103t14.5 107.5q0 70 -37.5 112t-115.5 42q-115 0 -176.5 -88t-61.5 -219q0 -79 41 -123.5t121 -44.5zM396 0h-5l32 187q-29 -91 -85 -141t-128 -50q-81 0 -124 47t-43 128q0 135 64.5 223.5t180.5 88.5q74 0 117.5 -43.5t39.5 -124.5
l27 164h6zM193 593l-4 3q32 49 77 49q17 0 58.5 -22t60.5 -22q37 0 68 42l5 -3q-35 -45 -74 -45q-20 0 -61 22t-57 22q-41 0 -73 -46z" />
    <glyph glyph-name="adieresis" unicode="&#xe4;" horiz-adv-x="494" 
d="M211 2q56 0 101.5 31t72 79.5t41 103t14.5 107.5q0 70 -37.5 112t-115.5 42q-115 0 -176.5 -88t-61.5 -219q0 -79 41 -123.5t121 -44.5zM396 0h-5l32 187q-29 -91 -85 -141t-128 -50q-81 0 -124 47t-43 128q0 135 64.5 223.5t180.5 88.5q74 0 117.5 -43.5t39.5 -124.5
l27 164h6zM253 597q6 0 6 -7q0 -11 -9 -11t-9 7q0 11 12 11zM397 597q5 0 5 -6q0 -12 -8 -12q-9 0 -9 7q0 11 12 11z" />
    <glyph glyph-name="aring" unicode="&#xe5;" horiz-adv-x="494" 
d="M211 2q56 0 101.5 31t72 79.5t41 103t14.5 107.5q0 70 -37.5 112t-115.5 42q-115 0 -176.5 -88t-61.5 -219q0 -79 41 -123.5t121 -44.5zM396 0h-5l32 187q-29 -91 -85 -141t-128 -50q-81 0 -124 47t-43 128q0 135 64.5 223.5t180.5 88.5q74 0 117.5 -43.5t39.5 -124.5
l27 164h6zM343 696q-29 0 -50 -23t-21 -54q0 -22 13.5 -36t35.5 -14q31 0 51.5 24t20.5 53q0 22 -13 36t-37 14zM344 702q27 0 41 -15t14 -39q0 -34 -22 -59.5t-57 -25.5q-25 0 -39.5 15t-14.5 40q0 34 22.5 59t55.5 25z" />
    <glyph glyph-name="ae" unicode="&#xe6;" horiz-adv-x="802" 
d="M397 233q-5 -42 -5 -68q0 -163 151 -163q46 0 87 13.5t72 48t32 83.5h5v-9q-4 -66 -61.5 -104t-134.5 -38q-136 0 -154 123q-43 -60 -98.5 -91.5t-137.5 -31.5q-58 0 -94.5 25.5t-36.5 76.5q0 68 48 114t165 46q70 0 157 -18q2 13 8.5 39t10 46t3.5 38q0 50 -34.5 82
t-112.5 32q-79 0 -123.5 -33.5t-45.5 -84.5h-7q0 52 46.5 88t130.5 36q78 0 115 -33t37 -80q0 -25 -5 -48q30 71 85.5 114t134.5 43q73 0 106.5 -32t33.5 -77q0 -23 -10 -46.5t-34 -49t-74.5 -41t-120.5 -15.5q-59 0 -139 15zM154 2q76 0 131.5 29t102.5 96q-2 26 -2 39
q0 48 5 68q-91 18 -153 18q-116 0 -163 -44.5t-47 -109.5q0 -49 35 -72.5t91 -23.5zM635 473q-93 0 -155 -61.5t-82 -172.5q86 -15 136 -15q67 0 116 14t73.5 37.5t35 46.5t10.5 48q0 43 -31.5 73t-102.5 30z" />
    <glyph glyph-name="ccedilla" unicode="&#xe7;" horiz-adv-x="439" 
d="M157 -71l-3 4l45 61q-157 4 -157 165q0 140 61.5 232.5t180.5 92.5q65 0 104.5 -29.5t39.5 -82.5q0 -9 -1 -14h-6q1 5 1 14q0 50 -38 78t-100 28q-116 0 -176 -91t-60 -228q0 -159 159 -159q65 0 118 32.5t66 92.5q3 12 3 21h6q0 -11 -3 -23q-13 -61 -68.5 -95
t-121.5 -34h-1l-44 -58q13 4 34 4q27 0 45.5 -14.5t18.5 -40.5q0 -31 -28 -54.5t-71 -23.5q-32 0 -66 13l3 5q31 -12 62 -12q43 0 68.5 21.5t25.5 50.5q0 24 -17 37t-42 13q-20 0 -38 -6z" />
    <glyph glyph-name="egrave" unicode="&#xe8;" horiz-adv-x="463" 
d="M51 217q-3 -25 -3 -52q0 -163 151 -163q46 0 87 13.5t72 48t32 83.5h6q0 -7 -2 -21q-9 -61 -65 -95.5t-130 -34.5q-157 0 -157 169q0 59 15.5 114t45 100.5t78.5 72.5t110 27q73 0 106.5 -32t33.5 -77q0 -21 -6.5 -40.5t-26 -41.5t-51 -38t-86.5 -26.5t-127 -10.5
q-39 0 -83 4zM291 473q-103 0 -163.5 -71.5t-75.5 -178.5q44 -4 82 -4q70 0 124 10t84.5 25t50 36t26 40t6.5 40q0 43 -31.5 73t-102.5 30zM332 563l-4 -4l-102 108l7 6z" />
    <glyph glyph-name="eacute" unicode="&#xe9;" horiz-adv-x="463" 
d="M51 217q-3 -25 -3 -52q0 -163 151 -163q46 0 87 13.5t72 48t32 83.5h6q0 -7 -2 -21q-9 -61 -65 -95.5t-130 -34.5q-157 0 -157 169q0 59 15.5 114t45 100.5t78.5 72.5t110 27q73 0 106.5 -32t33.5 -77q0 -21 -6.5 -40.5t-26 -41.5t-51 -38t-86.5 -26.5t-127 -10.5
q-39 0 -83 4zM291 473q-103 0 -163.5 -71.5t-75.5 -178.5q44 -4 82 -4q70 0 124 10t84.5 25t50 36t26 40t6.5 40q0 43 -31.5 73t-102.5 30zM297 556l-4 4l124 123l5 -6z" />
    <glyph glyph-name="ecircumflex" unicode="&#xea;" horiz-adv-x="463" 
d="M51 217q-3 -25 -3 -52q0 -163 151 -163q46 0 87 13.5t72 48t32 83.5h6q0 -7 -2 -21q-9 -61 -65 -95.5t-130 -34.5q-157 0 -157 169q0 59 15.5 114t45 100.5t78.5 72.5t110 27q73 0 106.5 -32t33.5 -77q0 -21 -6.5 -40.5t-26 -41.5t-51 -38t-86.5 -26.5t-127 -10.5
q-39 0 -83 4zM291 473q-103 0 -163.5 -71.5t-75.5 -178.5q44 -4 82 -4q70 0 124 10t84.5 25t50 36t26 40t6.5 40q0 43 -31.5 73t-102.5 30zM431 547l-111 120l-158 -123l-3 4l158 125h7l111 -122z" />
    <glyph glyph-name="edieresis" unicode="&#xeb;" horiz-adv-x="463" 
d="M51 217q-3 -25 -3 -52q0 -163 151 -163q46 0 87 13.5t72 48t32 83.5h6q0 -7 -2 -21q-9 -61 -65 -95.5t-130 -34.5q-157 0 -157 169q0 59 15.5 114t45 100.5t78.5 72.5t110 27q73 0 106.5 -32t33.5 -77q0 -21 -6.5 -40.5t-26 -41.5t-51 -38t-86.5 -26.5t-127 -10.5
q-39 0 -83 4zM291 473q-103 0 -163.5 -71.5t-75.5 -178.5q44 -4 82 -4q70 0 124 10t84.5 25t50 36t26 40t6.5 40q0 43 -31.5 73t-102.5 30zM239 597q6 0 6 -7q0 -11 -9 -11t-9 7q0 11 12 11zM383 597q5 0 5 -6q0 -12 -8 -12q-9 0 -9 7q0 11 12 11z" />
    <glyph glyph-name="igrave" unicode="&#xec;" horiz-adv-x="162" 
d="M123 478h5l-84 -478h-5zM145 563l-4 -4l-102 108l7 6z" />
    <glyph glyph-name="iacute" unicode="&#xed;" horiz-adv-x="162" 
d="M123 478h5l-84 -478h-5zM134 556l-4 4l124 123l5 -6z" />
    <glyph glyph-name="icircumflex" unicode="&#xee;" horiz-adv-x="162" 
d="M123 478h5l-84 -478h-5zM269 547l-111 120l-158 -123l-3 4l158 125h7l111 -122z" />
    <glyph glyph-name="idieresis" unicode="&#xef;" horiz-adv-x="162" 
d="M123 478h5l-84 -478h-5zM72 597q6 0 6 -7q0 -11 -9 -11t-9 7q0 11 12 11zM216 597q5 0 5 -6q0 -12 -8 -12q-9 0 -9 7q0 11 12 11z" />
    <glyph glyph-name="eth" unicode="&#xf0;" horiz-adv-x="480" 
d="M443 280h1q14 84 14 192q0 82 -30 144l-95 -61l-3 6l95 61q-40 78 -132 93l1 6q93 -15 137 -96l98 63l4 -5l-99 -64q30 -63 30 -149q0 -38 -1.5 -72t-7.5 -84.5t-16.5 -91t-30 -84.5t-46 -74t-67.5 -49t-91 -19q-162 0 -162 156q0 92 27 165.5t84 119.5t135 46
q77 0 116.5 -45.5t39.5 -122.5q0 -22 -1 -35zM287 477q-113 0 -176 -93t-63 -231q0 -76 38 -113.5t119 -37.5q106 0 169.5 88t63.5 224q0 75 -38 119t-113 44z" />
    <glyph glyph-name="ntilde" unicode="&#xf1;" horiz-adv-x="477" 
d="M25 0h-5l82 478h6l-27 -153q21 59 62 96.5t75.5 49.5t66.5 12q52 0 86 -16t47 -43.5t15.5 -64t-6.5 -78.5l-48 -281h-6l48 281q8 55 4.5 98.5t-39 70.5t-102.5 27q-25 0 -53 -9t-61.5 -30.5t-61 -68t-38.5 -111.5zM171 593l-4 3q32 49 77 49q17 0 58.5 -22t60.5 -22
q37 0 68 42l5 -3q-35 -45 -74 -45q-20 0 -61 22t-57 22q-41 0 -73 -46z" />
    <glyph glyph-name="ograve" unicode="&#xf2;" horiz-adv-x="485" 
d="M287 477q-113 0 -176 -93t-63 -231q0 -76 38 -113.5t119 -37.5q97 0 165 80.5t68 231.5q0 163 -151 163zM288 483q80 0 118 -45t38 -123q0 -154 -70 -236.5t-170 -82.5q-162 0 -162 156q0 92 27 165.5t84 119.5t135 46zM334 563l-4 -4l-102 108l7 6z" />
    <glyph glyph-name="oacute" unicode="&#xf3;" horiz-adv-x="485" 
d="M287 477q-113 0 -176 -93t-63 -231q0 -76 38 -113.5t119 -37.5q97 0 165 80.5t68 231.5q0 163 -151 163zM288 483q80 0 118 -45t38 -123q0 -154 -70 -236.5t-170 -82.5q-162 0 -162 156q0 92 27 165.5t84 119.5t135 46zM286 556l-4 4l124 123l5 -6z" />
    <glyph glyph-name="ocircumflex" unicode="&#xf4;" horiz-adv-x="485" 
d="M287 477q-113 0 -176 -93t-63 -231q0 -76 38 -113.5t119 -37.5q97 0 165 80.5t68 231.5q0 163 -151 163zM288 483q80 0 118 -45t38 -123q0 -154 -70 -236.5t-170 -82.5q-162 0 -162 156q0 92 27 165.5t84 119.5t135 46zM437 547l-111 120l-158 -123l-3 4l158 125h7
l111 -122z" />
    <glyph glyph-name="otilde" unicode="&#xf5;" horiz-adv-x="485" 
d="M287 477q-113 0 -176 -93t-63 -231q0 -76 38 -113.5t119 -37.5q97 0 165 80.5t68 231.5q0 163 -151 163zM288 483q80 0 118 -45t38 -123q0 -154 -70 -236.5t-170 -82.5q-162 0 -162 156q0 92 27 165.5t84 119.5t135 46zM190 593l-4 3q32 49 77 49q17 0 58.5 -22t60.5 -22
q36 0 68 42l5 -3q-35 -45 -74 -45q-19 0 -60 22t-58 22q-41 0 -73 -46z" />
    <glyph glyph-name="odieresis" unicode="&#xf6;" horiz-adv-x="485" 
d="M287 477q-113 0 -176 -93t-63 -231q0 -76 38 -113.5t119 -37.5q97 0 165 80.5t68 231.5q0 163 -151 163zM288 483q80 0 118 -45t38 -123q0 -154 -70 -236.5t-170 -82.5q-162 0 -162 156q0 92 27 165.5t84 119.5t135 46zM253 597q6 0 6 -7q0 -11 -9 -11t-9 7q0 11 12 11z
M397 597q5 0 5 -6q0 -12 -8 -12q-9 0 -9 7q0 11 12 11z" />
    <glyph glyph-name="divide" unicode="&#xf7;" horiz-adv-x="534" 
d="M450 272h-352l2 8h352zM302 418q7 0 7 -8q0 -13 -10 -13t-10 9q0 12 13 12zM255 153q8 0 8 -9q0 -5 -4 -8.5t-7 -3.5q-10 0 -10 7q0 14 13 14z" />
    <glyph glyph-name="oslash" unicode="&#xf8;" horiz-adv-x="485" 
d="M288 483q92 0 131 -63l58 60l4 -3l-59 -61q22 -41 22 -101q0 -154 -70 -236.5t-170 -82.5q-95 0 -134 52l-62 -64l-4 4l62 65q-24 37 -24 99q0 92 27 165.5t84 119.5t135 46zM287 477q-113 0 -176 -93t-63 -231q0 -61 23 -96l344 358q-37 62 -128 62zM438 314
q0 56 -21 97l-343 -359q36 -50 131 -50q97 0 165 80.5t68 231.5z" />
    <glyph glyph-name="ugrave" unicode="&#xf9;" horiz-adv-x="472" 
d="M451 478h6l-83 -477h-6l27 153q-22 -59 -62.5 -96.5t-75 -49.5t-66.5 -12q-53 0 -86 16t-45 43.5t-14 64t7 78.5l49 280h6l-49 -280q-9 -40 -7 -75.5t13 -62.5t43 -42.5t84 -15.5q25 0 53 9t61.5 30.5t61 68t38.5 111.5zM325 563l-4 -4l-102 108l7 6z" />
    <glyph glyph-name="uacute" unicode="&#xfa;" horiz-adv-x="472" 
d="M451 478h6l-83 -477h-6l27 153q-22 -59 -62.5 -96.5t-75 -49.5t-66.5 -12q-53 0 -86 16t-45 43.5t-14 64t7 78.5l49 280h6l-49 -280q-9 -40 -7 -75.5t13 -62.5t43 -42.5t84 -15.5q25 0 53 9t61.5 30.5t61 68t38.5 111.5zM273 556l-4 4l124 123l5 -6z" />
    <glyph glyph-name="ucircumflex" unicode="&#xfb;" horiz-adv-x="472" 
d="M451 478h6l-83 -477h-6l27 153q-22 -59 -62.5 -96.5t-75 -49.5t-66.5 -12q-53 0 -86 16t-45 43.5t-14 64t7 78.5l49 280h6l-49 -280q-9 -40 -7 -75.5t13 -62.5t43 -42.5t84 -15.5q25 0 53 9t61.5 30.5t61 68t38.5 111.5zM424 547l-111 120l-158 -123l-3 4l158 125h7
l111 -122z" />
    <glyph glyph-name="udieresis" unicode="&#xfc;" horiz-adv-x="472" 
d="M451 478h6l-83 -477h-6l27 153q-22 -59 -62.5 -96.5t-75 -49.5t-66.5 -12q-53 0 -86 16t-45 43.5t-14 64t7 78.5l49 280h6l-49 -280q-9 -40 -7 -75.5t13 -62.5t43 -42.5t84 -15.5q25 0 53 9t61.5 30.5t61 68t38.5 111.5zM234 597q6 0 6 -7q0 -11 -9 -11t-9 7q0 11 12 11z
M378 597q5 0 5 -6q0 -12 -8 -12q-9 0 -9 7q0 11 12 11z" />
    <glyph glyph-name="yacute" unicode="&#xfd;" horiz-adv-x="396" 
d="M87 -205h-7l101 200h-22l-127 483h6l126 -477h20l134 264q33 65 46.5 108.5t20.5 103.5h6q-7 -60 -21.5 -106t-46.5 -108zM202 547l-4 4l124 123l5 -6z" />
    <glyph glyph-name="thorn" unicode="&#xfe;" horiz-adv-x="494" 
d="M-10 -205h-6l160 925h6l-72 -408q26 83 84.5 127t133.5 44q78 0 120 -42.5t42 -115.5q0 -144 -60 -236.5t-178 -92.5q-80 0 -125 52t-38 139zM221 2q114 0 172.5 91t58.5 231q0 70 -39.5 111.5t-117.5 41.5q-101 0 -167 -80t-66 -232q0 -74 42 -118.5t117 -44.5z" />
    <glyph glyph-name="ydieresis" unicode="&#xff;" horiz-adv-x="396" 
d="M87 -205h-7l101 200h-22l-127 483h6l126 -477h20l134 264q33 65 46.5 108.5t20.5 103.5h6q-7 -60 -21.5 -106t-46.5 -108zM160 593q6 0 6 -7q0 -11 -9 -11t-9 7q0 11 12 11zM304 593q5 0 5 -6q0 -12 -8 -12q-9 0 -9 7q0 11 12 11z" />
    <glyph glyph-name="Amacron" unicode="&#x100;" horiz-adv-x="547" 
d="M492 0h-6l-40 190h-360l-104 -190h-7l371 673h7zM349 667l-259 -471h355zM225 774l1 8h265l-1 -8h-265z" />
    <glyph glyph-name="amacron" unicode="&#x101;" horiz-adv-x="494" 
d="M211 2q56 0 101.5 31t72 79.5t41 103t14.5 107.5q0 70 -37.5 112t-115.5 42q-115 0 -176.5 -88t-61.5 -219q0 -79 41 -123.5t121 -44.5zM396 0h-5l32 187q-29 -91 -85 -141t-128 -50q-81 0 -124 47t-43 128q0 135 64.5 223.5t180.5 88.5q74 0 117.5 -43.5t39.5 -124.5
l27 164h6zM178 592l1 8h265l-1 -8h-265z" />
    <glyph glyph-name="Abreve" unicode="&#x102;" horiz-adv-x="547" 
d="M492 0h-6l-40 190h-360l-104 -190h-7l371 673h7zM349 667l-259 -471h355zM475 846h6q-12 -40 -45.5 -75t-84.5 -35q-52 0 -73 36t-14 74h6q-6 -37 13.5 -70.5t68.5 -33.5q48 0 80 33.5t43 70.5z" />
    <glyph glyph-name="abreve" unicode="&#x103;" horiz-adv-x="494" 
d="M211 2q56 0 101.5 31t72 79.5t41 103t14.5 107.5q0 70 -37.5 112t-115.5 42q-115 0 -176.5 -88t-61.5 -219q0 -79 41 -123.5t121 -44.5zM396 0h-5l32 187q-29 -91 -85 -141t-128 -50q-81 0 -124 47t-43 128q0 135 64.5 223.5t180.5 88.5q74 0 117.5 -43.5t39.5 -124.5
l27 164h6zM438 672h5q-11 -39 -44.5 -74.5t-83.5 -35.5q-52 0 -73 35.5t-15 74.5h5q-5 -37 14.5 -71t68.5 -34q48 0 80 33.5t43 71.5z" />
    <glyph glyph-name="Aogonek" unicode="&#x104;" horiz-adv-x="547" 
d="M492 0h-6q-39 -27 -64.5 -63t-25.5 -65q0 -41 59 -41q35 0 72 14l1 -6q-37 -14 -76 -14q-63 0 -63 47q0 31 27 68.5t69 64.5l-39 185h-360l-104 -190h-7l371 673h7zM349 667l-259 -471h355z" />
    <glyph glyph-name="aogonek" unicode="&#x105;" horiz-adv-x="494" 
d="M396 0h-5q-39 -27 -64.5 -63t-25.5 -65q0 -41 59 -41q35 0 72 14l1 -6q-37 -14 -76 -14q-63 0 -63 47q0 32 27.5 70t70.5 64l31 181q-29 -91 -85 -141t-128 -50q-81 0 -124 47t-43 128q0 135 64.5 223.5t180.5 88.5q74 0 117.5 -43.5t39.5 -124.5l27 164h6zM211 2
q56 0 101.5 31t72 79.5t41 103t14.5 107.5q0 70 -37.5 112t-115.5 42q-115 0 -176.5 -88t-61.5 -219q0 -79 41 -123.5t121 -44.5z" />
    <glyph glyph-name="Cacute" unicode="&#x106;" horiz-adv-x="599" 
d="M377 734l-3 4l135 106l5 -6zM576 498h-6q8 29 8 49q0 61 -49.5 93.5t-120.5 32.5q-161 0 -247 -126t-86 -329q0 -105 47.5 -160.5t159.5 -55.5q115 0 178.5 53.5t69.5 136.5h6q-7 -86 -72 -141t-183 -55q-115 0 -163.5 56.5t-48.5 165.5q0 206 88 333.5t252 127.5
q73 0 124 -33t51 -97q0 -22 -8 -51z" />
    <glyph glyph-name="cacute" unicode="&#x107;" horiz-adv-x="439" 
d="M427 358h-6q1 5 1 14q0 50 -38 78t-100 28q-116 0 -176 -91t-60 -228q0 -159 159 -159q65 0 118 32.5t66 92.5q3 12 3 21h6q0 -11 -3 -23q-13 -61 -68.5 -95t-121.5 -34q-165 0 -165 165q0 140 61.5 232.5t180.5 92.5q65 0 104.5 -29.5t39.5 -82.5q0 -9 -1 -14zM283 556
l-4 4l124 123l5 -6z" />
    <glyph glyph-name="Ccircumflex" unicode="&#x108;" horiz-adv-x="599" 
d="M539 732l-111 101l-148 -104l-3 4l150 107h5l111 -104zM576 498h-6q8 29 8 49q0 61 -49.5 93.5t-120.5 32.5q-161 0 -247 -126t-86 -329q0 -105 47.5 -160.5t159.5 -55.5q115 0 178.5 53.5t69.5 136.5h6q-7 -86 -72 -141t-183 -55q-115 0 -163.5 56.5t-48.5 165.5
q0 206 88 333.5t252 127.5q73 0 124 -33t51 -97q0 -22 -8 -51z" />
    <glyph glyph-name="ccircumflex" unicode="&#x109;" horiz-adv-x="439" 
d="M427 358h-6q1 5 1 14q0 50 -38 78t-100 28q-116 0 -176 -91t-60 -228q0 -159 159 -159q65 0 118 32.5t66 92.5q3 12 3 21h6q0 -11 -3 -23q-13 -61 -68.5 -95t-121.5 -34q-165 0 -165 165q0 140 61.5 232.5t180.5 92.5q65 0 104.5 -29.5t39.5 -82.5q0 -9 -1 -14zM439 547
l-111 120l-158 -123l-3 4l158 125h7l111 -122z" />
    <glyph glyph-name="Cdotaccent" unicode="&#x10a;" horiz-adv-x="599" 
d="M439 775q8 0 8 -8q0 -12 -11 -12q-10 0 -10 8q0 4 4 8t9 4zM576 498h-6q8 29 8 49q0 61 -49.5 93.5t-120.5 32.5q-161 0 -247 -126t-86 -329q0 -105 47.5 -160.5t159.5 -55.5q115 0 178.5 53.5t69.5 136.5h6q-7 -86 -72 -141t-183 -55q-115 0 -163.5 56.5t-48.5 165.5
q0 206 88 333.5t252 127.5q73 0 124 -33t51 -97q0 -22 -8 -51z" />
    <glyph glyph-name="cdotaccent" unicode="&#x10b;" horiz-adv-x="439" 
d="M427 358h-6q1 5 1 14q0 50 -38 78t-100 28q-116 0 -176 -91t-60 -228q0 -159 159 -159q65 0 118 32.5t66 92.5q3 12 3 21h6q0 -11 -3 -23q-13 -61 -68.5 -95t-121.5 -34q-165 0 -165 165q0 140 61.5 232.5t180.5 92.5q65 0 104.5 -29.5t39.5 -82.5q0 -9 -1 -14zM307 605
q8 0 8 -8q0 -12 -11 -12q-10 0 -10 8q0 4 4 8t9 4z" />
    <glyph glyph-name="Ccaron" unicode="&#x10c;" horiz-adv-x="599" 
d="M403 735l146 102l3 -4l-146 -104h-7l-112 107l5 4zM576 498h-6q8 29 8 49q0 61 -49.5 93.5t-120.5 32.5q-161 0 -247 -126t-86 -329q0 -105 47.5 -160.5t159.5 -55.5q115 0 178.5 53.5t69.5 136.5h6q-7 -86 -72 -141t-183 -55q-115 0 -163.5 56.5t-48.5 165.5
q0 206 88 333.5t252 127.5q73 0 124 -33t51 -97q0 -22 -8 -51z" />
    <glyph glyph-name="ccaron" unicode="&#x10d;" horiz-adv-x="439" 
d="M427 358h-6q1 5 1 14q0 50 -38 78t-100 28q-116 0 -176 -91t-60 -228q0 -159 159 -159q65 0 118 32.5t66 92.5q3 12 3 21h6q0 -11 -3 -23q-13 -61 -68.5 -95t-121.5 -34q-165 0 -165 165q0 140 61.5 232.5t180.5 92.5q65 0 104.5 -29.5t39.5 -82.5q0 -9 -1 -14zM302 551
l153 119l2 -4l-154 -122h-4l-115 126l3 3z" />
    <glyph glyph-name="Dcaron" unicode="&#x10e;" horiz-adv-x="599" 
d="M154 667l-116 -661h156q162 0 266.5 108.5t104.5 279.5q0 74 -23.5 129t-63 85t-84.5 44.5t-95 14.5h-145zM30 0l118 673h151q51 0 97 -15t86.5 -46t64.5 -87t24 -131q0 -174 -106 -284t-271 -110h-164zM331 735l146 102l3 -4l-146 -104h-7l-112 107l5 4z" />
    <glyph glyph-name="dcaron" unicode="&#x10f;" horiz-adv-x="543" 
d="M612 723q11 0 11 -10q0 -5 -5 -13l-55 -94l-3 2l48 89q-11 0 -11 9q0 17 15 17zM280 483q81 0 124 -50.5t37 -140.5l73 426h5l-123 -718h-6l29 167q-28 -85 -85 -128t-132 -43q-80 0 -121 43.5t-41 114.5q0 141 63.5 235t176.5 94zM279 477q-109 0 -171 -92.5t-62 -229.5
q0 -69 39 -111t118 -42q101 0 167 80t66 232q0 74 -41 118.5t-116 44.5z" />
    <glyph glyph-name="Dcroat" unicode="&#x110;" horiz-adv-x="599" 
d="M30 0l61 352h-69l1 6h69l56 315h151q51 0 97 -15t86.5 -46t64.5 -87t24 -131q0 -174 -106 -284t-271 -110h-164zM154 667l-54 -309h264l-1 -6h-264l-61 -346h156q162 0 266.5 108.5t104.5 279.5q0 74 -23.5 129t-63 85t-84.5 44.5t-95 14.5h-145z" />
    <glyph glyph-name="dcroat" unicode="&#x111;" horiz-adv-x="500" 
d="M280 483q81 0 124 -50.5t37 -140.5l49 289h-190l1 6h190l23 131h5l-23 -131h65l-1 -6h-65l-99 -581h-6l29 167q-28 -85 -85 -128t-132 -43q-80 0 -121 43.5t-41 114.5q0 141 63.5 235t176.5 94zM279 477q-109 0 -171 -92.5t-62 -229.5q0 -69 39 -111t118 -42
q101 0 167 80t66 232q0 74 -41 118.5t-116 44.5z" />
    <glyph glyph-name="Emacron" unicode="&#x112;" horiz-adv-x="520" 
d="M464 369l-1 -6h-363l-63 -357h416l-1 -6h-422l118 673h386l-1 -6h-380l-52 -298h363zM227 774l1 8h265l-1 -8h-265z" />
    <glyph glyph-name="emacron" unicode="&#x113;" horiz-adv-x="463" 
d="M51 217q-3 -25 -3 -52q0 -163 151 -163q46 0 87 13.5t72 48t32 83.5h6q0 -7 -2 -21q-9 -61 -65 -95.5t-130 -34.5q-157 0 -157 169q0 59 15.5 114t45 100.5t78.5 72.5t110 27q73 0 106.5 -32t33.5 -77q0 -21 -6.5 -40.5t-26 -41.5t-51 -38t-86.5 -26.5t-127 -10.5
q-39 0 -83 4zM291 473q-103 0 -163.5 -71.5t-75.5 -178.5q44 -4 82 -4q70 0 124 10t84.5 25t50 36t26 40t6.5 40q0 43 -31.5 73t-102.5 30zM171 592l1 8h265l-1 -8h-265z" />
    <glyph glyph-name="Ebreve" unicode="&#x114;" horiz-adv-x="520" 
d="M464 369l-1 -6h-363l-63 -357h416l-1 -6h-422l118 673h386l-1 -6h-380l-52 -298h363zM480 846h6q-12 -40 -45.5 -75t-84.5 -35q-52 0 -73 36t-14 74h6q-6 -37 13.5 -70.5t68.5 -33.5q48 0 80 33.5t43 70.5z" />
    <glyph glyph-name="ebreve" unicode="&#x115;" horiz-adv-x="463" 
d="M51 217q-3 -25 -3 -52q0 -163 151 -163q46 0 87 13.5t72 48t32 83.5h6q0 -7 -2 -21q-9 -61 -65 -95.5t-130 -34.5q-157 0 -157 169q0 59 15.5 114t45 100.5t78.5 72.5t110 27q73 0 106.5 -32t33.5 -77q0 -21 -6.5 -40.5t-26 -41.5t-51 -38t-86.5 -26.5t-127 -10.5
q-39 0 -83 4zM291 473q-103 0 -163.5 -71.5t-75.5 -178.5q44 -4 82 -4q70 0 124 10t84.5 25t50 36t26 40t6.5 40q0 43 -31.5 73t-102.5 30zM420 669h5q-11 -39 -44.5 -74.5t-83.5 -35.5q-52 0 -73 35.5t-15 74.5h5q-5 -37 14.5 -71t68.5 -34q48 0 80 33.5t43 71.5z" />
    <glyph glyph-name="Edotaccent" unicode="&#x116;" horiz-adv-x="520" 
d="M464 369l-1 -6h-363l-63 -357h416l-1 -6h-422l118 673h386l-1 -6h-380l-52 -298h363zM338 768q8 0 8 -8q0 -12 -11 -12q-10 0 -10 8q0 4 4 8t9 4z" />
    <glyph glyph-name="edotaccent" unicode="&#x117;" horiz-adv-x="463" 
d="M51 217q-3 -25 -3 -52q0 -163 151 -163q46 0 87 13.5t72 48t32 83.5h6q0 -7 -2 -21q-9 -61 -65 -95.5t-130 -34.5q-157 0 -157 169q0 59 15.5 114t45 100.5t78.5 72.5t110 27q73 0 106.5 -32t33.5 -77q0 -21 -6.5 -40.5t-26 -41.5t-51 -38t-86.5 -26.5t-127 -10.5
q-39 0 -83 4zM291 473q-103 0 -163.5 -71.5t-75.5 -178.5q44 -4 82 -4q70 0 124 10t84.5 25t50 36t26 40t6.5 40q0 43 -31.5 73t-102.5 30zM312 605q8 0 8 -8q0 -12 -11 -12q-10 0 -10 8q0 4 4 8t9 4z" />
    <glyph glyph-name="Eogonek" unicode="&#x118;" horiz-adv-x="520" 
d="M464 369l-1 -6h-363l-63 -357h416l-1 -6h-80q-40 -27 -66.5 -63.5t-26.5 -66.5q0 -41 59 -41q35 0 72 14l1 -6q-37 -14 -76 -14q-63 0 -63 47q0 30 25.5 66.5t65.5 63.5h-333l118 673h386l-1 -6h-380l-52 -298h363z" />
    <glyph glyph-name="eogonek" unicode="&#x119;" horiz-adv-x="463" 
d="M51 217q-3 -25 -3 -52q0 -163 151 -163q46 0 87 13.5t72 48t32 83.5h6q0 -7 -2 -21q-10 -64 -72 -100q-41 -27 -68 -64t-27 -67q0 -41 59 -41q35 0 72 14l1 -6q-37 -14 -76 -14q-63 0 -63 47q0 27 21 59.5t55 58.5q-46 -17 -97 -17q-157 0 -157 169q0 59 15.5 114
t45 100.5t78.5 72.5t110 27q73 0 106.5 -32t33.5 -77q0 -21 -6.5 -40.5t-26 -41.5t-51 -38t-86.5 -26.5t-127 -10.5q-39 0 -83 4zM291 473q-103 0 -163.5 -71.5t-75.5 -178.5q44 -4 82 -4q70 0 124 10t84.5 25t50 36t26 40t6.5 40q0 43 -31.5 73t-102.5 30z" />
    <glyph glyph-name="Ecaron" unicode="&#x11a;" horiz-adv-x="520" 
d="M464 369l-1 -6h-363l-63 -357h416l-1 -6h-422l118 673h386l-1 -6h-380l-52 -298h363zM348 735l146 102l3 -4l-146 -104h-7l-112 107l5 4z" />
    <glyph glyph-name="ecaron" unicode="&#x11b;" horiz-adv-x="463" 
d="M51 217q-3 -25 -3 -52q0 -163 151 -163q46 0 87 13.5t72 48t32 83.5h6q0 -7 -2 -21q-9 -61 -65 -95.5t-130 -34.5q-157 0 -157 169q0 59 15.5 114t45 100.5t78.5 72.5t110 27q73 0 106.5 -32t33.5 -77q0 -21 -6.5 -40.5t-26 -41.5t-51 -38t-86.5 -26.5t-127 -10.5
q-39 0 -83 4zM291 473q-103 0 -163.5 -71.5t-75.5 -178.5q44 -4 82 -4q70 0 124 10t84.5 25t50 36t26 40t6.5 40q0 43 -31.5 73t-102.5 30zM299 551l153 119l2 -4l-154 -122h-4l-115 126l3 3z" />
    <glyph glyph-name="Gcircumflex" unicode="&#x11c;" horiz-adv-x="615" 
d="M368 322l1 5h205l-17 -96q-43 -235 -277 -235q-108 0 -159.5 55t-51.5 171q0 204 88.5 330.5t243.5 126.5q97 0 142.5 -39t45.5 -97q0 -16 -5 -38h-6q5 20 5 37q0 56 -45 93.5t-138 37.5q-153 0 -239 -125t-86 -324q0 -115 50 -168.5t156 -53.5q58 0 104.5 16t74.5 39.5
t48 56.5t29 60t14 57l16 91h-199zM525 732l-111 101l-148 -104l-3 4l150 107h5l111 -104z" />
    <glyph glyph-name="gcircumflex" unicode="&#x11d;" horiz-adv-x="494" 
d="M391 0l32 187q-29 -91 -85 -141t-128 -50q-81 0 -124 47t-43 128q0 135 64.5 223.5t180.5 88.5q74 0 117.5 -43.5t39.5 -124.5l27 164h6l-81 -481q-18 -104 -72.5 -154.5t-158.5 -50.5q-74 1 -120 32.5t-35 96.5h6q-10 -63 33.5 -92.5t115.5 -30.5q101 0 154 49t71 152z
M211 2q56 0 101.5 31t72 79.5t41 103t14.5 107.5q0 70 -37.5 112t-115.5 42q-115 0 -176.5 -88t-61.5 -219q0 -79 41 -123.5t121 -44.5zM428 547l-111 120l-158 -123l-3 4l158 125h7l111 -122z" />
    <glyph glyph-name="Gbreve" unicode="&#x11e;" horiz-adv-x="615" 
d="M368 322l1 5h205l-17 -96q-43 -235 -277 -235q-108 0 -159.5 55t-51.5 171q0 204 88.5 330.5t243.5 126.5q97 0 142.5 -39t45.5 -97q0 -16 -5 -38h-6q5 20 5 37q0 56 -45 93.5t-138 37.5q-153 0 -239 -125t-86 -324q0 -115 50 -168.5t156 -53.5q58 0 104.5 16t74.5 39.5
t48 56.5t29 60t14 57l16 91h-199zM526 846h6q-12 -40 -45.5 -75t-84.5 -35q-52 0 -73 36t-14 74h6q-6 -37 13.5 -70.5t68.5 -33.5q48 0 80 33.5t43 70.5z" />
    <glyph glyph-name="gbreve" unicode="&#x11f;" horiz-adv-x="494" 
d="M391 0l32 187q-29 -91 -85 -141t-128 -50q-81 0 -124 47t-43 128q0 135 64.5 223.5t180.5 88.5q74 0 117.5 -43.5t39.5 -124.5l27 164h6l-81 -481q-18 -104 -72.5 -154.5t-158.5 -50.5q-74 1 -120 32.5t-35 96.5h6q-10 -63 33.5 -92.5t115.5 -30.5q101 0 154 49t71 152z
M211 2q56 0 101.5 31t72 79.5t41 103t14.5 107.5q0 70 -37.5 112t-115.5 42q-115 0 -176.5 -88t-61.5 -219q0 -79 41 -123.5t121 -44.5zM414 669h5q-11 -39 -44.5 -74.5t-83.5 -35.5q-52 0 -73 35.5t-15 74.5h5q-5 -37 14.5 -71t68.5 -34q48 0 80 33.5t43 71.5z" />
    <glyph glyph-name="Gdotaccent" unicode="&#x120;" horiz-adv-x="615" 
d="M368 322l1 5h205l-17 -96q-43 -235 -277 -235q-108 0 -159.5 55t-51.5 171q0 204 88.5 330.5t243.5 126.5q97 0 142.5 -39t45.5 -97q0 -16 -5 -38h-6q5 20 5 37q0 56 -45 93.5t-138 37.5q-153 0 -239 -125t-86 -324q0 -115 50 -168.5t156 -53.5q58 0 104.5 16t74.5 39.5
t48 56.5t29 60t14 57l16 91h-199zM426 775q8 0 8 -8q0 -12 -11 -12q-10 0 -10 8q0 4 4 8t9 4z" />
    <glyph glyph-name="gdotaccent" unicode="&#x121;" horiz-adv-x="494" 
d="M391 0l32 187q-29 -91 -85 -141t-128 -50q-81 0 -124 47t-43 128q0 135 64.5 223.5t180.5 88.5q74 0 117.5 -43.5t39.5 -124.5l27 164h6l-81 -481q-18 -104 -72.5 -154.5t-158.5 -50.5q-74 1 -120 32.5t-35 96.5h6q-10 -63 33.5 -92.5t115.5 -30.5q101 0 154 49t71 152z
M211 2q56 0 101.5 31t72 79.5t41 103t14.5 107.5q0 70 -37.5 112t-115.5 42q-115 0 -176.5 -88t-61.5 -219q0 -79 41 -123.5t121 -44.5zM331 605q8 0 8 -8q0 -12 -11 -12q-10 0 -10 8q0 4 4 8t9 4z" />
    <glyph glyph-name="Gcommaaccent" unicode="&#x122;" horiz-adv-x="615" 
d="M368 322l1 5h205l-17 -96q-43 -235 -277 -235q-108 0 -159.5 55t-51.5 171q0 204 88.5 330.5t243.5 126.5q97 0 142.5 -39t45.5 -97q0 -16 -5 -38h-6q5 20 5 37q0 56 -45 93.5t-138 37.5q-153 0 -239 -125t-86 -324q0 -115 50 -168.5t156 -53.5q58 0 104.5 16t74.5 39.5
t48 56.5t29 60t14 57l16 91h-199zM259 -65q11 0 11 -10q0 -5 -5 -13l-55 -94l-3 2l48 89q-11 0 -11 9q0 17 15 17z" />
    <glyph glyph-name="gcommaaccent" unicode="&#x123;" horiz-adv-x="494" 
d="M307 554q-11 0 -11 10q0 5 5 13l56 94l3 -2l-49 -89q11 0 11 -10q0 -16 -15 -16zM391 0l32 187q-29 -91 -85 -141t-128 -50q-81 0 -124 47t-43 128q0 135 64.5 223.5t180.5 88.5q74 0 117.5 -43.5t39.5 -124.5l27 164h6l-81 -481q-18 -104 -72.5 -154.5t-158.5 -50.5
q-74 1 -120 32.5t-35 96.5h6q-10 -63 33.5 -92.5t115.5 -30.5q101 0 154 49t71 152zM211 2q56 0 101.5 31t72 79.5t41 103t14.5 107.5q0 70 -37.5 112t-115.5 42q-115 0 -176.5 -88t-61.5 -219q0 -79 41 -123.5t121 -44.5z" />
    <glyph glyph-name="Hcircumflex" unicode="&#x124;" horiz-adv-x="612" 
d="M148 673h6l-55 -314h460l55 314h6l-118 -673h-6l62 353h-460l-62 -353h-6zM524 732l-111 101l-148 -104l-3 4l150 107h5l111 -104z" />
    <glyph glyph-name="hcircumflex" unicode="&#x125;" horiz-adv-x="477" 
d="M25 0h-5l123 718h6l-68 -393q21 59 62 96.5t75.5 49.5t66.5 12q52 0 86 -16t47 -43.5t15.5 -64t-6.5 -78.5l-48 -281h-6l48 281q8 55 4.5 98.5t-39 70.5t-102.5 27q-25 0 -53 -9t-61.5 -30.5t-61 -68t-38.5 -111.5zM272 732l-111 101l-148 -104l-3 4l150 107h5l111 -104z
" />
    <glyph glyph-name="Hbar" unicode="&#x126;" horiz-adv-x="612" 
d="M148 673h6l-19 -107h460l19 107h6l-19 -107h51l-1 -5h-51l-98 -561h-6l62 353h-460l-62 -353h-6l98 561h-58l1 5h58zM99 359h460l35 202h-460z" />
    <glyph glyph-name="hbar" unicode="&#x127;" horiz-adv-x="477" 
d="M25 0h-5l103 602h-45l1 5h45l19 111h6l-19 -111h234l-1 -5h-234l-48 -277q21 59 62 96.5t75.5 49.5t66.5 12q52 0 86 -16t47 -43.5t15.5 -64t-6.5 -78.5l-48 -281h-6l48 281q8 55 4.5 98.5t-39 70.5t-102.5 27q-25 0 -53 -9t-61.5 -30.5t-61 -68t-38.5 -111.5z" />
    <glyph glyph-name="Itilde" unicode="&#x128;" horiz-adv-x="186" 
d="M168 673h6l-118 -673h-6zM53 763l-4 3q32 49 77 49q17 0 58.5 -22t60.5 -22q37 0 68 42l5 -3q-35 -45 -74 -45q-20 0 -61 22t-57 22q-41 0 -73 -46z" />
    <glyph glyph-name="itilde" unicode="&#x129;" horiz-adv-x="162" 
d="M123 478h5l-84 -478h-5zM15 593l-4 3q32 49 77 49q17 0 58.5 -22t60.5 -22q36 0 68 42l5 -3q-35 -45 -74 -45q-20 0 -61 22t-57 22q-41 0 -73 -46z" />
    <glyph glyph-name="Imacron" unicode="&#x12a;" horiz-adv-x="186" 
d="M168 673h6l-118 -673h-6zM46 774l1 8h265l-1 -8h-265z" />
    <glyph glyph-name="imacron" unicode="&#x12b;" horiz-adv-x="162" 
d="M123 478h5l-84 -478h-5zM9 592l1 8h265l-1 -8h-265z" />
    <glyph glyph-name="Ibreve" unicode="&#x12c;" horiz-adv-x="181" 
d="M295 846h6q-12 -40 -45.5 -75t-84.5 -35q-52 0 -73 36t-14 74h6q-6 -37 13.5 -70.5t68.5 -33.5q48 0 80 33.5t43 70.5zM160 673h6l-118 -673h-6z" />
    <glyph glyph-name="ibreve" unicode="&#x12d;" horiz-adv-x="162" 
d="M123 478h5l-84 -478h-5zM257 669h5q-11 -39 -44.5 -74.5t-83.5 -35.5q-52 0 -73 35.5t-15 74.5h5q-5 -37 14.5 -71t68.5 -34q48 0 80 33.5t43 71.5z" />
    <glyph glyph-name="Iogonek" unicode="&#x12e;" horiz-adv-x="186" 
d="M168 673h6l-118 -673h-5q-39 -27 -64.5 -63t-25.5 -65q0 -41 59 -41q35 0 72 14l1 -6q-37 -14 -76 -14q-63 0 -63 47q0 31 27.5 69t69.5 65z" />
    <glyph glyph-name="iogonek" unicode="&#x12f;" horiz-adv-x="164" 
d="M122 478h6l-82 -478h-5q-39 -27 -64.5 -63t-25.5 -65q0 -41 59 -41q35 0 72 14l1 -6q-37 -14 -76 -14q-63 0 -63 47q0 31 27.5 69t69.5 64zM140 621q2 9 12 9q3 0 5.5 -3t1.5 -6q-1 -9 -11 -9t-8 9z" />
    <glyph glyph-name="Idotaccent" unicode="&#x130;" horiz-adv-x="186" 
d="M168 673h6l-118 -673h-6zM192 775q8 0 8 -8q0 -12 -11 -12q-10 0 -10 8q0 4 4 8t9 4z" />
    <glyph glyph-name="dotlessi" unicode="&#x131;" horiz-adv-x="162" 
d="M123 478h5l-84 -478h-5z" />
    <glyph glyph-name="IJ" unicode="&#x132;" horiz-adv-x="675" 
d="M168 673h6l-118 -673h-6zM164 167h6q-18 -66 23 -113.5t149 -47.5q107 0 167 60t78 160l80 447h6l-80 -447q-18 -103 -79.5 -164.5t-172.5 -61.5q-110 0 -152.5 50t-24.5 117z" />
    <glyph glyph-name="ij" unicode="&#x133;" horiz-adv-x="312" 
d="M122 478h6l-82 -478h-6zM153 630q7 0 7 -7q0 -5 -3.5 -8t-7.5 -3q-7 0 -7 7q0 11 11 11zM266 478h7l-102 -587q-9 -54 -27 -75t-61 -21h-6l1 6q43 0 60 18.5t26 71.5zM295 630q7 0 7 -7q0 -5 -3.5 -8t-7.5 -3q-7 0 -7 7q0 11 11 11z" />
    <glyph glyph-name="Jcircumflex" unicode="&#x134;" horiz-adv-x="521" 
d="M10 168h6q-18 -66 23 -113.5t149 -47.5q107 0 167 60t78 160l80 447h6l-80 -447q-18 -103 -79.5 -164.5t-172.5 -61.5q-110 0 -152.5 50t-24.5 117zM646 734l-111 101l-148 -104l-3 4l150 107h5l111 -104z" />
    <glyph glyph-name="jcircumflex" unicode="&#x135;" horiz-adv-x="177" 
d="M131 478h7l-102 -587q-9 -53 -27 -74.5t-61 -21.5h-6l1 6q43 0 60.5 18.5t25.5 71.5zM277 547l-111 120l-158 -123l-3 4l158 125h7l111 -122z" />
    <glyph glyph-name="Kcommaaccent" unicode="&#x136;" horiz-adv-x="509" 
d="M459 0h-7l-179 352h-175l-62 -352h-6l118 673h6l-55 -315h175l286 315h7l-289 -318zM206 -38q11 0 11 -10q0 -5 -5 -13l-55 -94l-3 2l48 89q-11 0 -11 9q0 17 15 17z" />
    <glyph glyph-name="kcommaaccent" unicode="&#x137;" horiz-adv-x="404" 
d="M428 478h7l-211 -214l133 -264h-7l-130 261h-149l-46 -261h-5l123 718h6l-77 -451h148zM161 -51q11 0 11 -10q0 -5 -5 -13l-55 -94l-3 2l48 89q-11 0 -11 9q0 17 15 17z" />
    <glyph glyph-name="kgreenlandic" unicode="&#x138;" horiz-adv-x="400" 
d="M426 478h6l-206 -230l126 -248h-6l-124 246h-155l-43 -246h-6l84 478h6l-40 -227h154z" />
    <glyph glyph-name="Lacute" unicode="&#x139;" horiz-adv-x="515" 
d="M461 6l-1 -6h-430l118 673h6l-117 -667h424zM140 734l-3 4l135 106l5 -6z" />
    <glyph glyph-name="lacute" unicode="&#x13a;" horiz-adv-x="152" 
d="M153 718h6l-115 -664q-5 -26 5.5 -37t46.5 -11l-1 -6q-39 0 -50.5 12t-6.5 42zM149 754l-3 4l135 106l5 -6z" />
    <glyph glyph-name="Lcommaaccent" unicode="&#x13b;" horiz-adv-x="515" 
d="M461 6l-1 -6h-430l118 673h6l-117 -667h424zM223 -65q11 0 11 -10q0 -5 -5 -13l-55 -94l-3 2l48 89q-11 0 -11 9q0 17 15 17z" />
    <glyph glyph-name="lcommaaccent" unicode="&#x13c;" horiz-adv-x="152" 
d="M153 718h6l-115 -664q-5 -26 5.5 -37t46.5 -11l-1 -6q-39 0 -50.5 12t-6.5 42zM29 -65q11 0 11 -10q0 -5 -5 -13l-55 -94l-3 2l48 89q-11 0 -11 9q0 17 15 17z" />
    <glyph glyph-name="Lcaron" unicode="&#x13d;" horiz-adv-x="515" 
d="M461 6l-1 -6h-430l118 673h6l-117 -667h424zM384 649q11 0 11 -10q0 -5 -5 -13l-55 -94l-3 2l48 89q-11 0 -11 9q0 17 15 17z" />
    <glyph glyph-name="lcaron" unicode="&#x13e;" horiz-adv-x="223" 
d="M286 708q11 0 11 -10q0 -5 -5 -13l-55 -94l-3 2l48 89q-11 0 -11 9q0 17 15 17zM185 718h6l-115 -664q-5 -26 5.5 -37t46.5 -11l-1 -6q-39 0 -50.5 12t-6.5 42z" />
    <glyph glyph-name="Ldot" unicode="&#x13f;" horiz-adv-x="515" 
d="M461 6l-1 -6h-430l118 673h6l-117 -667h424zM331 338q8 0 8 -8q0 -12 -11 -12q-10 0 -10 8q0 4 4 8t9 4z" />
    <glyph glyph-name="ldot" unicode="&#x140;" horiz-adv-x="207" 
d="M207 356q8 0 8 -8q0 -12 -11 -12q-10 0 -10 8q0 4 4 8t9 4zM163 718h6l-115 -664q-5 -26 5.5 -37t46.5 -11l-1 -6q-39 0 -50.5 12t-6.5 42z" />
    <glyph glyph-name="Lslash" unicode="&#x141;" horiz-adv-x="500" 
d="M-19 225l-3 6l100 54l68 388h6l-68 -385l177 96l3 -6l-181 -98l-48 -274h411l-1 -6h-417l48 276z" />
    <glyph glyph-name="lslash" unicode="&#x142;" horiz-adv-x="150" 
d="M154 718h6l-76 -431l94 50l3 -6l-98 -52l-39 -221q-5 -26 6 -39t44 -13l-1 -6q-36 0 -48 14t-7 44l38 217l-95 -50l-3 6l99 52z" />
    <glyph glyph-name="Nacute" unicode="&#x143;" horiz-adv-x="618" 
d="M148 673h6l350 -661l116 661h6l-118 -673h-5l-351 664l-116 -664h-6zM379 722l-3 4l135 106l5 -6z" />
    <glyph glyph-name="nacute" unicode="&#x144;" horiz-adv-x="477" 
d="M25 0h-5l82 478h6l-27 -153q21 59 62 96.5t75.5 49.5t66.5 12q52 0 86 -16t47 -43.5t15.5 -64t-6.5 -78.5l-48 -281h-6l48 281q8 55 4.5 98.5t-39 70.5t-102.5 27q-25 0 -53 -9t-61.5 -30.5t-61 -68t-38.5 -111.5zM251 556l-4 4l124 123l5 -6z" />
    <glyph glyph-name="Ncommaaccent" unicode="&#x145;" horiz-adv-x="618" 
d="M148 673h6l350 -661l116 661h6l-118 -673h-5l-351 664l-116 -664h-6zM267 -40q11 0 11 -10q0 -5 -5 -13l-55 -94l-3 2l48 89q-11 0 -11 9q0 17 15 17z" />
    <glyph glyph-name="ncommaaccent" unicode="&#x146;" horiz-adv-x="477" 
d="M25 0h-5l82 478h6l-27 -153q21 59 62 96.5t75.5 49.5t66.5 12q52 0 86 -16t47 -43.5t15.5 -64t-6.5 -78.5l-48 -281h-6l48 281q8 55 4.5 98.5t-39 70.5t-102.5 27q-25 0 -53 -9t-61.5 -30.5t-61 -68t-38.5 -111.5zM215 -43q11 0 11 -10q0 -5 -5 -13l-55 -94l-3 2l48 89
q-11 0 -11 9q0 17 15 17z" />
    <glyph glyph-name="Ncaron" unicode="&#x147;" horiz-adv-x="618" 
d="M148 673h6l350 -661l116 661h6l-118 -673h-5l-351 664l-116 -664h-6zM407 735l146 102l3 -4l-146 -104h-7l-112 107l5 4z" />
    <glyph glyph-name="ncaron" unicode="&#x148;" horiz-adv-x="477" 
d="M25 0h-5l82 478h6l-27 -153q21 59 62 96.5t75.5 49.5t66.5 12q52 0 86 -16t47 -43.5t15.5 -64t-6.5 -78.5l-48 -281h-6l48 281q8 55 4.5 98.5t-39 70.5t-102.5 27q-25 0 -53 -9t-61.5 -30.5t-61 -68t-38.5 -111.5zM283 551l153 119l2 -4l-154 -122h-4l-115 126l3 3z" />
    <glyph glyph-name="napostrophe" unicode="&#x149;" horiz-adv-x="498" 
d="M46 0h-5l82 478h6l-27 -153q21 59 62 96.5t75.5 49.5t66.5 12q52 0 86 -16t47 -43.5t15.5 -64t-6.5 -78.5l-48 -281h-6l48 281q8 55 4.5 98.5t-39 70.5t-102.5 27q-25 0 -53 -9t-61.5 -30.5t-61 -68t-38.5 -111.5zM98 602q11 0 11 -10q0 -5 -5 -13l-55 -94l-3 2l48 89
q-11 0 -11 9q0 17 15 17z" />
    <glyph glyph-name="Eng" unicode="&#x14a;" horiz-adv-x="617" 
d="M146 673h6l352 -663l117 663h6l-138 -786q-7 -42 -27.5 -60.5t-57.5 -18.5q-30 0 -52 6l2 6q22 -6 51 -6q34 0 52.5 17t25.5 56l20 113l-352 664l-117 -664h-6z" />
    <glyph glyph-name="eng" unicode="&#x14b;" horiz-adv-x="477" 
d="M24 0h-6l84 478h6l-27 -153q21 59 61.5 96.5t75 49.5t66.5 12q68 0 105 -27.5t41.5 -72.5t-3.5 -102l-69 -394q-14 -79 -92 -79q-21 0 -45 6l3 6q22 -6 43 -6q71 0 85 73l69 394q8 55 3.5 98.5t-40 70.5t-101.5 27q-25 0 -52.5 -9t-61.5 -30.5t-61 -68t-39 -111.5z" />
    <glyph glyph-name="Omacron" unicode="&#x14c;" horiz-adv-x="655" 
d="M406 674q-106 0 -183.5 -64.5t-113.5 -165.5t-36 -224q0 -218 212 -218q68 0 124.5 27t93.5 71.5t63 103t37.5 119.5t11.5 123q0 228 -209 228zM407 679q214 0 214 -232q0 -61 -11.5 -122t-37.5 -121t-64 -105.5t-96 -74t-128 -28.5q-217 0 -217 222q0 125 36.5 227
t115 168t188.5 66zM315 774l1 8h265l-1 -8h-265z" />
    <glyph glyph-name="omacron" unicode="&#x14d;" horiz-adv-x="485" 
d="M287 477q-113 0 -176 -93t-63 -231q0 -76 38 -113.5t119 -37.5q97 0 165 80.5t68 231.5q0 163 -151 163zM288 483q80 0 118 -45t38 -123q0 -154 -70 -236.5t-170 -82.5q-162 0 -162 156q0 92 27 165.5t84 119.5t135 46zM176 592l1 8h265l-1 -8h-265z" />
    <glyph glyph-name="Obreve" unicode="&#x14e;" horiz-adv-x="655" 
d="M406 674q-106 0 -183.5 -64.5t-113.5 -165.5t-36 -224q0 -218 212 -218q68 0 124.5 27t93.5 71.5t63 103t37.5 119.5t11.5 123q0 228 -209 228zM407 679q214 0 214 -232q0 -61 -11.5 -122t-37.5 -121t-64 -105.5t-96 -74t-128 -28.5q-217 0 -217 222q0 125 36.5 227
t115 168t188.5 66zM567 846h6q-12 -40 -45.5 -75t-84.5 -35q-52 0 -73 36t-14 74h6q-6 -37 13.5 -70.5t68.5 -33.5q48 0 80 33.5t43 70.5z" />
    <glyph glyph-name="obreve" unicode="&#x14f;" horiz-adv-x="485" 
d="M287 477q-113 0 -176 -93t-63 -231q0 -76 38 -113.5t119 -37.5q97 0 165 80.5t68 231.5q0 163 -151 163zM288 483q80 0 118 -45t38 -123q0 -154 -70 -236.5t-170 -82.5q-162 0 -162 156q0 92 27 165.5t84 119.5t135 46zM439 669h5q-11 -39 -44.5 -74.5t-83.5 -35.5
q-52 0 -73 35.5t-15 74.5h5q-5 -37 14.5 -71t68.5 -34q48 0 80 33.5t43 71.5z" />
    <glyph glyph-name="Ohungarumlaut" unicode="&#x150;" horiz-adv-x="655" 
d="M406 674q-106 0 -183.5 -64.5t-113.5 -165.5t-36 -224q0 -218 212 -218q68 0 124.5 27t93.5 71.5t63 103t37.5 119.5t11.5 123q0 228 -209 228zM407 679q214 0 214 -232q0 -61 -11.5 -122t-37.5 -121t-64 -105.5t-96 -74t-128 -28.5q-217 0 -217 222q0 125 36.5 227
t115 168t188.5 66zM377 734l-3 4l136 106l4 -5zM465 734l-3 4l135 106l4 -5z" />
    <glyph glyph-name="ohungarumlaut" unicode="&#x151;" horiz-adv-x="485" 
d="M287 477q-113 0 -176 -93t-63 -231q0 -76 38 -113.5t119 -37.5q97 0 165 80.5t68 231.5q0 163 -151 163zM288 483q80 0 118 -45t38 -123q0 -154 -70 -236.5t-170 -82.5q-162 0 -162 156q0 92 27 165.5t84 119.5t135 46zM251 556l-3 3l124 123l5 -5zM329 556l-3 3l123 123
l5 -5z" />
    <glyph glyph-name="OE" unicode="&#x152;" horiz-adv-x="776" 
d="M724 369l-1 -6h-333l-63 -357h386l-1 -6h-374q-23 -4 -54 -4q-217 0 -217 222q0 125 36.5 227t115 168t188.5 66q35 0 63 -6h324l-1 -6h-350l-52 -298h333zM320 4l118 669q-10 1 -32 1q-106 0 -183.5 -64.5t-113.5 -165.5t-36 -224q0 -218 212 -218q24 0 35 2z" />
    <glyph glyph-name="oe" unicode="&#x153;" horiz-adv-x="837" 
d="M436 217q-3 -26 -3 -52q0 -163 151 -163q46 0 87 13.5t72 48t32 83.5h6q0 -7 -2 -21q-9 -61 -65 -95.5t-130 -34.5q-157 0 -157 169v20q-26 -92 -86.5 -140.5t-136.5 -48.5q-162 0 -162 156q0 92 27 165.5t84 119.5t135 46q80 0 118 -45t38 -123q0 -5 -0.5 -16t-0.5 -17
q25 88 84 142.5t149 54.5q73 0 106.5 -32t33.5 -77q0 -21 -6.5 -40.5t-26 -41.5t-51 -38t-86.5 -26.5t-127 -10.5q-39 0 -83 4zM287 477q-113 0 -176 -93t-63 -231q0 -76 38 -113.5t119 -37.5q97 0 165 80.5t68 231.5q0 163 -151 163zM676 473q-103 0 -163.5 -71.5
t-75.5 -178.5q44 -4 82 -4q70 0 124 10t84.5 25t50 36t26 40t6.5 40q0 43 -31.5 73t-102.5 30z" />
    <glyph glyph-name="Racute" unicode="&#x154;" horiz-adv-x="548" 
d="M293 295h-23l167 -295h-7l-167 295h-175l-52 -295h-6l118 673h212q90 0 137.5 -41t47.5 -115q0 -36 -12 -71.5t-38.5 -71t-78.5 -57.5t-123 -22zM359 667h-206l-64 -366h206q67 0 117 20.5t76.5 54.5t38.5 69t12 71q0 71 -46 111t-134 40zM303 734l-3 4l135 106l5 -6z
" />
    <glyph glyph-name="racute" unicode="&#x155;" horiz-adv-x="268" 
d="M301 483l-2 -7q-25 0 -53 -9t-61.5 -30t-60.5 -67.5t-39 -111.5l-44 -258h-6l83 478h5l-26 -153q21 59 62 96.5t75.5 49.5t66.5 12zM144 556l-4 4l124 123l5 -6z" />
    <glyph glyph-name="Rcommaaccent" unicode="&#x156;" horiz-adv-x="548" 
d="M293 295h-23l167 -295h-7l-167 295h-175l-52 -295h-6l118 673h212q90 0 137.5 -41t47.5 -115q0 -36 -12 -71.5t-38.5 -71t-78.5 -57.5t-123 -22zM359 667h-206l-64 -366h206q67 0 117 20.5t76.5 54.5t38.5 69t12 71q0 71 -46 111t-134 40zM203 -46q11 0 11 -10
q0 -5 -5 -13l-55 -94l-3 2l48 89q-11 0 -11 9q0 17 15 17z" />
    <glyph glyph-name="rcommaaccent" unicode="&#x157;" horiz-adv-x="268" 
d="M301 483l-2 -7q-25 0 -53 -9t-61.5 -30t-60.5 -67.5t-39 -111.5l-44 -258h-6l83 478h5l-26 -153q21 59 62 96.5t75.5 49.5t66.5 12zM34 -58q11 0 11 -10q0 -5 -5 -13l-55 -94l-3 2l48 89q-11 0 -11 9q0 17 15 17z" />
    <glyph glyph-name="Rcaron" unicode="&#x158;" horiz-adv-x="548" 
d="M293 295h-23l167 -295h-7l-167 295h-175l-52 -295h-6l118 673h212q90 0 137.5 -41t47.5 -115q0 -36 -12 -71.5t-38.5 -71t-78.5 -57.5t-123 -22zM359 667h-206l-64 -366h206q67 0 117 20.5t76.5 54.5t38.5 69t12 71q0 71 -46 111t-134 40zM325 735l146 102l3 -4
l-146 -104h-7l-112 107l5 4z" />
    <glyph glyph-name="rcaron" unicode="&#x159;" horiz-adv-x="268" 
d="M301 483l-2 -7q-25 0 -53 -9t-61.5 -30t-60.5 -67.5t-39 -111.5l-44 -258h-6l83 478h5l-26 -153q21 59 62 96.5t75.5 49.5t66.5 12zM129 551l153 119l2 -4l-154 -122h-4l-115 126l3 3z" />
    <glyph glyph-name="Sacute" unicode="&#x15a;" horiz-adv-x="581" 
d="M374 679q40 0 76.5 -10t65 -30.5t40.5 -55t1 -78.5h-5q21 82 -34.5 125.5t-143.5 43.5q-117 0 -180 -50t-63 -125q0 -25 11 -44.5t25 -31.5t45.5 -23t54.5 -17t70 -16q94 -20 143.5 -57t49.5 -101q0 -86 -71.5 -149.5t-213.5 -63.5q-67 0 -117.5 21t-75.5 69t-5 117h6
q-29 -94 28 -148t165 -54q140 0 209 61.5t69 146.5q0 61 -47 97t-142 56q-46 10 -73.5 17t-57 18.5t-44.5 24.5t-25 32t-10 44q0 77 64.5 129t184.5 52zM347 734l-3 4l135 106l5 -6z" />
    <glyph glyph-name="sacute" unicode="&#x15b;" horiz-adv-x="433" 
d="M28 144h5q-12 -70 26.5 -105.5t110.5 -35.5q58 0 100 15t62 39t29 46.5t9 45.5t-9 39.5t-20 26.5t-33.5 17.5t-37 10.5t-42.5 8t-42.5 8t-37 10.5t-33.5 17t-19.5 26.5t-8.5 39q0 59 46.5 96t118.5 37q64 0 104 -23.5t40 -75.5q0 -14 -3 -29h-6q13 63 -25.5 92.5
t-109.5 29.5q-69 0 -114 -35.5t-45 -91.5q0 -21 9 -37t19.5 -25t33.5 -16.5t36.5 -10t42.5 -7.5q27 -5 42.5 -8t37.5 -11.5t33.5 -18.5t20 -28t8.5 -41t-9.5 -47t-30.5 -49t-64 -40.5t-102 -15.5q-65 0 -105 29t-40 84q0 22 3 34zM259 556l-4 4l124 123l5 -6z" />
    <glyph glyph-name="Scircumflex" unicode="&#x15c;" horiz-adv-x="581" 
d="M374 679q40 0 76.5 -10t65 -30.5t40.5 -55t1 -78.5h-5q21 82 -34.5 125.5t-143.5 43.5q-117 0 -180 -50t-63 -125q0 -25 11 -44.5t25 -31.5t45.5 -23t54.5 -17t70 -16q94 -20 143.5 -57t49.5 -101q0 -86 -71.5 -149.5t-213.5 -63.5q-67 0 -117.5 21t-75.5 69t-5 117h6
q-29 -94 28 -148t165 -54q140 0 209 61.5t69 146.5q0 61 -47 97t-142 56q-46 10 -73.5 17t-57 18.5t-44.5 24.5t-25 32t-10 44q0 77 64.5 129t184.5 52zM505 732l-111 101l-148 -104l-3 4l150 107h5l111 -104z" />
    <glyph glyph-name="scircumflex" unicode="&#x15d;" horiz-adv-x="433" 
d="M28 144h5q-12 -70 26.5 -105.5t110.5 -35.5q58 0 100 15t62 39t29 46.5t9 45.5t-9 39.5t-20 26.5t-33.5 17.5t-37 10.5t-42.5 8t-42.5 8t-37 10.5t-33.5 17t-19.5 26.5t-8.5 39q0 59 46.5 96t118.5 37q64 0 104 -23.5t40 -75.5q0 -14 -3 -29h-6q13 63 -25.5 92.5
t-109.5 29.5q-69 0 -114 -35.5t-45 -91.5q0 -21 9 -37t19.5 -25t33.5 -16.5t36.5 -10t42.5 -7.5q27 -5 42.5 -8t37.5 -11.5t33.5 -18.5t20 -28t8.5 -41t-9.5 -47t-30.5 -49t-64 -40.5t-102 -15.5q-65 0 -105 29t-40 84q0 22 3 34zM406 547l-111 120l-158 -123l-3 4l158 125
h7l111 -122z" />
    <glyph glyph-name="Scedilla" unicode="&#x15e;" horiz-adv-x="581" 
d="M213 -71l-3 4l46 63h-11q-67 0 -117.5 21t-75.5 69t-5 117h6q-29 -94 28 -148t165 -54q140 0 209 61.5t69 146.5q0 61 -47 97t-142 56q-46 10 -73.5 17t-57 18.5t-44.5 24.5t-25 32t-10 44q0 77 64.5 129t184.5 52q40 0 76.5 -10t65 -30.5t40.5 -55t1 -78.5h-5
q21 82 -34.5 125.5t-143.5 43.5q-117 0 -180 -50t-63 -125q0 -25 11 -44.5t25 -31.5t45.5 -23t54.5 -17t70 -16q94 -20 143.5 -57t49.5 -101q0 -39 -15 -74.5t-46 -66.5t-84 -50.5t-122 -21.5l-45 -60q13 4 34 4q27 0 45.5 -14.5t18.5 -40.5q0 -31 -28 -54.5t-71 -23.5
q-32 0 -66 13l3 5q31 -12 62 -12q43 0 68.5 21.5t25.5 50.5q0 24 -17 37t-42 13q-20 0 -38 -6z" />
    <glyph glyph-name="scedilla" unicode="&#x15f;" horiz-adv-x="433" 
d="M124 -71l-3 4l47 64q-64 1 -104.5 30t-40.5 83q0 18 4 34h6q-4 -16 -4 -34q0 -51 39.5 -79t101.5 -28q58 0 100 15t62 39t29 46.5t9 45.5q0 43 -29 65.5t-70.5 29.5t-83.5 14t-71 29.5t-29 64.5q0 59 46.5 96t118.5 37q64 0 104 -23.5t40 -75.5q0 -14 -3 -29h-6
q3 15 3 29q0 49 -38.5 71t-99.5 22q-69 0 -114 -35.5t-45 -91.5q0 -40 29 -61t70.5 -28t83.5 -14.5t71 -31.5t29 -68q0 -23 -9.5 -47t-30 -48.5t-62.5 -40t-99 -16.5l-46 -61q13 4 34 4q27 0 45.5 -14.5t18.5 -40.5q0 -31 -28 -54.5t-71 -23.5q-32 0 -66 13l3 5
q31 -12 62 -12q43 0 68.5 21.5t25.5 50.5q0 24 -17 37t-42 13q-20 0 -38 -6z" />
    <glyph glyph-name="Scaron" unicode="&#x160;" horiz-adv-x="581" 
d="M374 679q40 0 76.5 -10t65 -30.5t40.5 -55t1 -78.5h-5q21 82 -34.5 125.5t-143.5 43.5q-117 0 -180 -50t-63 -125q0 -25 11 -44.5t25 -31.5t45.5 -23t54.5 -17t70 -16q94 -20 143.5 -57t49.5 -101q0 -86 -71.5 -149.5t-213.5 -63.5q-67 0 -117.5 21t-75.5 69t-5 117h6
q-29 -94 28 -148t165 -54q140 0 209 61.5t69 146.5q0 61 -47 97t-142 56q-46 10 -73.5 17t-57 18.5t-44.5 24.5t-25 32t-10 44q0 77 64.5 129t184.5 52zM373 735l146 102l3 -4l-146 -104h-7l-112 107l5 4z" />
    <glyph glyph-name="scaron" unicode="&#x161;" horiz-adv-x="433" 
d="M28 144h5q-12 -70 26.5 -105.5t110.5 -35.5q58 0 100 15t62 39t29 46.5t9 45.5t-9 39.5t-20 26.5t-33.5 17.5t-37 10.5t-42.5 8t-42.5 8t-37 10.5t-33.5 17t-19.5 26.5t-8.5 39q0 59 46.5 96t118.5 37q64 0 104 -23.5t40 -75.5q0 -14 -3 -29h-6q13 63 -25.5 92.5
t-109.5 29.5q-69 0 -114 -35.5t-45 -91.5q0 -21 9 -37t19.5 -25t33.5 -16.5t36.5 -10t42.5 -7.5q27 -5 42.5 -8t37.5 -11.5t33.5 -18.5t20 -28t8.5 -41t-9.5 -47t-30.5 -49t-64 -40.5t-102 -15.5q-65 0 -105 29t-40 84q0 22 3 34zM280 551l153 119l2 -4l-154 -122h-4
l-115 126l3 3z" />
    <glyph glyph-name="Tcommaaccent" unicode="&#x162;" horiz-adv-x="518" 
d="M341 667l-117 -667h-6l117 667h-248l1 6h498l-1 -6h-244zM204 -70q11 0 11 -10q0 -5 -5 -13l-55 -94l-3 2l48 89q-11 0 -11 9q0 17 15 17z" />
    <glyph glyph-name="tcommaaccent" unicode="&#x163;" horiz-adv-x="283" 
d="M305 478l-1 -6h-150l-59 -337q-13 -76 12 -104.5t90 -28.5q19 0 47 3l-1 -6q-29 -3 -47 -3q-68 0 -94 30t-13 109l59 337h-91l1 6h91l22 131h6l-22 -131h150zM78 -73q11 0 11 -10q0 -5 -5 -13l-55 -94l-3 2l48 89q-11 0 -11 9q0 17 15 17z" />
    <glyph glyph-name="Tcaron" unicode="&#x164;" horiz-adv-x="518" 
d="M341 667l-117 -667h-6l117 667h-248l1 6h498l-1 -6h-244zM354 735l146 102l3 -4l-146 -104h-7l-112 107l5 4z" />
    <glyph glyph-name="tcaron" unicode="&#x165;" horiz-adv-x="299" 
d="M332 678q11 0 11 -10q0 -5 -5 -13l-55 -94l-3 2l48 89q-11 0 -11 9q0 17 15 17zM305 478l-1 -6h-150l-59 -337q-13 -76 12 -104.5t90 -28.5q19 0 47 3l-1 -6q-29 -3 -47 -3q-68 0 -94 30t-13 109l59 337h-91l1 6h91l22 131h6l-22 -131h150z" />
    <glyph glyph-name="Tbar" unicode="&#x166;" horiz-adv-x="502" 
d="M333 667l-47 -268h194l-1 -5h-194l-69 -394h-6l69 394h-193l1 5h193l47 268h-240l1 6h483l-1 -6h-237z" />
    <glyph glyph-name="tbar" unicode="&#x167;" horiz-adv-x="280" 
d="M303 478l-1 -6h-148l-28 -155h147v-5h-147l-32 -177q-13 -76 11 -104.5t89 -28.5q19 0 46 3l-1 -6q-27 -3 -46 -3q-68 0 -93.5 30t-11.5 109l32 177h-88v5h88l28 155h-90l1 6h90l23 131h6l-23 -131h148z" />
    <glyph glyph-name="Utilde" unicode="&#x168;" horiz-adv-x="631" 
d="M148 673h6l-69 -393q-24 -135 20 -206.5t180 -71.5q126 0 191 74t88 205l69 392h6l-69 -392q-24 -134 -91 -209.5t-195 -75.5q-139 0 -184.5 73t-20.5 211zM272 755l-4 3q32 49 77 49q17 0 58.5 -22t60.5 -22q36 0 68 42l5 -3q-35 -45 -74 -45q-19 0 -60 22t-58 22
q-41 0 -73 -46z" />
    <glyph glyph-name="utilde" unicode="&#x169;" horiz-adv-x="472" 
d="M451 478h6l-83 -477h-6l27 153q-22 -59 -62.5 -96.5t-75 -49.5t-66.5 -12q-53 0 -86 16t-45 43.5t-14 64t7 78.5l49 280h6l-49 -280q-9 -40 -7 -75.5t13 -62.5t43 -42.5t84 -15.5q25 0 53 9t61.5 30.5t61 68t38.5 111.5zM178 593l-4 3q32 49 77 49q17 0 58.5 -22
t60.5 -22q36 0 68 42l5 -3q-35 -45 -74 -45q-19 0 -60 22t-58 22q-41 0 -73 -46z" />
    <glyph glyph-name="Umacron" unicode="&#x16a;" horiz-adv-x="631" 
d="M148 673h6l-69 -393q-24 -135 20 -206.5t180 -71.5q126 0 191 74t88 205l69 392h6l-69 -392q-24 -134 -91 -209.5t-195 -75.5q-139 0 -184.5 73t-20.5 211zM275 765l1 8h265l-1 -8h-265z" />
    <glyph glyph-name="umacron" unicode="&#x16b;" horiz-adv-x="472" 
d="M451 478h6l-83 -477h-6l27 153q-22 -59 -62.5 -96.5t-75 -49.5t-66.5 -12q-53 0 -86 16t-45 43.5t-14 64t7 78.5l49 280h6l-49 -280q-9 -40 -7 -75.5t13 -62.5t43 -42.5t84 -15.5q25 0 53 9t61.5 30.5t61 68t38.5 111.5zM168 592l1 8h265l-1 -8h-265z" />
    <glyph glyph-name="Ubreve" unicode="&#x16c;" horiz-adv-x="631" 
d="M148 673h6l-69 -393q-24 -135 20 -206.5t180 -71.5q126 0 191 74t88 205l69 392h6l-69 -392q-24 -134 -91 -209.5t-195 -75.5q-139 0 -184.5 73t-20.5 211zM513 830h6q-12 -40 -45.5 -75t-84.5 -35q-52 0 -73 36t-14 74h6q-6 -37 13.5 -70.5t68.5 -33.5q48 0 80 33.5
t43 70.5z" />
    <glyph glyph-name="ubreve" unicode="&#x16d;" horiz-adv-x="472" 
d="M451 478h6l-83 -477h-6l27 153q-22 -59 -62.5 -96.5t-75 -49.5t-66.5 -12q-53 0 -86 16t-45 43.5t-14 64t7 78.5l49 280h6l-49 -280q-9 -40 -7 -75.5t13 -62.5t43 -42.5t84 -15.5q25 0 53 9t61.5 30.5t61 68t38.5 111.5zM413 669h5q-11 -39 -44.5 -74.5t-83.5 -35.5
q-52 0 -73 35.5t-15 74.5h5q-5 -37 14.5 -71t68.5 -34q48 0 80 33.5t43 71.5z" />
    <glyph glyph-name="Uring" unicode="&#x16e;" horiz-adv-x="631" 
d="M148 673h6l-69 -393q-24 -135 20 -206.5t180 -71.5q126 0 191 74t88 205l69 392h6l-69 -392q-24 -134 -91 -209.5t-195 -75.5q-139 0 -184.5 73t-20.5 211zM409 823q-29 0 -50 -23t-21 -54q0 -22 13.5 -36t35.5 -14q31 0 51.5 24t20.5 53q0 22 -13 36t-37 14zM410 829
q27 0 41 -15t14 -39q0 -34 -22 -59.5t-57 -25.5q-25 0 -39.5 15t-14.5 40q0 34 22.5 59t55.5 25z" />
    <glyph glyph-name="uring" unicode="&#x16f;" horiz-adv-x="472" 
d="M451 478h6l-83 -477h-6l27 153q-22 -59 -62.5 -96.5t-75 -49.5t-66.5 -12q-53 0 -86 16t-45 43.5t-14 64t7 78.5l49 280h6l-49 -280q-9 -40 -7 -75.5t13 -62.5t43 -42.5t84 -15.5q25 0 53 9t61.5 30.5t61 68t38.5 111.5zM310 672q-29 0 -50 -23t-21 -54q0 -22 13.5 -36
t35.5 -14q31 0 51.5 24t20.5 53q0 22 -13 36t-37 14zM311 678q27 0 41 -15t14 -39q0 -34 -22 -59.5t-57 -25.5q-25 0 -39.5 15t-14.5 40q0 34 22.5 59t55.5 25z" />
    <glyph glyph-name="Uhungarumlaut" unicode="&#x170;" horiz-adv-x="631" 
d="M148 673h6l-69 -393q-24 -135 20 -206.5t180 -71.5q126 0 191 74t88 205l69 392h6l-69 -392q-24 -134 -91 -209.5t-195 -75.5q-139 0 -184.5 73t-20.5 211zM334 734l-3 4l136 106l4 -5zM422 734l-3 4l135 106l4 -5z" />
    <glyph glyph-name="uhungarumlaut" unicode="&#x171;" horiz-adv-x="472" 
d="M451 478h6l-83 -477h-6l27 153q-22 -59 -62.5 -96.5t-75 -49.5t-66.5 -12q-53 0 -86 16t-45 43.5t-14 64t7 78.5l49 280h6l-49 -280q-9 -40 -7 -75.5t13 -62.5t43 -42.5t84 -15.5q25 0 53 9t61.5 30.5t61 68t38.5 111.5zM225 556l-3 3l124 123l5 -5zM303 556l-3 3
l123 123l5 -5z" />
    <glyph glyph-name="Uogonek" unicode="&#x172;" horiz-adv-x="631" 
d="M148 673h6l-69 -393q-24 -135 20 -206.5t180 -71.5q126 0 191 74t88 205l69 392h6l-69 -392q-24 -134 -91 -209.5t-195 -75.5h-6q-40 -27 -66.5 -63.5t-26.5 -66.5q0 -41 59 -41q35 0 72 14l1 -6q-37 -14 -76 -14q-63 0 -63 47q0 30 25.5 66.5t65.5 63.5
q-130 4 -172 76.5t-18 207.5z" />
    <glyph glyph-name="uogonek" unicode="&#x173;" horiz-adv-x="472" 
d="M451 478h6l-83 -477h-3q-40 -27 -66 -63.5t-26 -65.5q0 -41 59 -41q35 0 72 14l1 -6q-37 -14 -76 -14q-63 0 -63 47q0 31 27.5 69t69.5 64l26 149q-22 -59 -62.5 -96.5t-75 -49.5t-66.5 -12q-53 0 -86 16t-45 43.5t-14 64t7 78.5l49 280h6l-49 -280q-9 -40 -7 -75.5
t13 -62.5t43 -42.5t84 -15.5q25 0 53 9t61.5 30.5t61 68t38.5 111.5z" />
    <glyph glyph-name="Wcircumflex" unicode="&#x174;" horiz-adv-x="833" 
d="M480 673h6l89 -664l305 664h7l-310 -673h-5l-90 664l-315 -664h-5l-74 673h7l71 -664zM619 732l-111 101l-148 -104l-3 4l150 107h5l111 -104z" />
    <glyph glyph-name="wcircumflex" unicode="&#x175;" horiz-adv-x="642" 
d="M567 264l-147 -264h-4l-85 407l-211 -407h-6l-67 478h6l66 -467l211 405h5l85 -404l142 254q21 39 34.5 75.5t19 61.5t14.5 75h6q-9 -52 -14 -75t-19 -61t-36 -78zM488 547l-111 120l-158 -123l-3 4l158 125h7l111 -122z" />
    <glyph glyph-name="Ycircumflex" unicode="&#x176;" horiz-adv-x="464" 
d="M527 673h7l-296 -397l-47 -276h-6l47 276l-147 397h7l144 -390zM436 729l-111 101l-148 -104l-3 4l150 107h5l111 -104z" />
    <glyph glyph-name="ycircumflex" unicode="&#x177;" horiz-adv-x="396" 
d="M87 -205h-7l101 200h-22l-127 483h6l126 -477h20l134 264q33 65 46.5 108.5t20.5 103.5h6q-7 -60 -21.5 -106t-46.5 -108zM363 550l-111 120l-158 -123l-3 4l158 125h7l111 -122z" />
    <glyph glyph-name="Ydieresis" unicode="&#x178;" horiz-adv-x="464" 
d="M527 673h7l-296 -397l-47 -276h-6l47 276l-147 397h7l144 -390zM250 774q8 0 8 -8q0 -10 -11 -10q-8 0 -8 7q0 11 11 11zM394 774q7 0 7 -8q0 -10 -10 -10q-8 0 -8 7q0 11 11 11z" />
    <glyph glyph-name="Zacute" unicode="&#x179;" horiz-adv-x="498" 
d="M-30 0l1 6l571 661h-432l1 6h439l-1 -6l-570 -661h470l-1 -6h-478zM304 734l-3 4l135 106l5 -6z" />
    <glyph glyph-name="zacute" unicode="&#x17a;" horiz-adv-x="370" 
d="M-31 0l1 6l419 466h-312l1 6h320l-1 -6l-419 -466h340l-1 -6h-348zM218 556l-4 4l124 123l5 -6z" />
    <glyph glyph-name="Zdotaccent" unicode="&#x17b;" horiz-adv-x="498" 
d="M-30 0l1 6l571 661h-432l1 6h439l-1 -6l-570 -661h470l-1 -6h-478zM350 775q8 0 8 -8q0 -12 -11 -12q-10 0 -10 8q0 4 4 8t9 4z" />
    <glyph glyph-name="zdotaccent" unicode="&#x17c;" horiz-adv-x="370" 
d="M-31 0l1 6l419 466h-312l1 6h320l-1 -6l-419 -466h340l-1 -6h-348zM258 593q8 0 8 -8q0 -12 -11 -12q-10 0 -10 8q0 4 4 8t9 4z" />
    <glyph glyph-name="Zcaron" unicode="&#x17d;" horiz-adv-x="498" 
d="M-30 0l1 6l571 661h-432l1 6h439l-1 -6l-570 -661h470l-1 -6h-478zM349 735l146 102l3 -4l-146 -104h-7l-112 107l5 4z" />
    <glyph glyph-name="zcaron" unicode="&#x17e;" horiz-adv-x="370" 
d="M-31 0l1 6l419 466h-312l1 6h320l-1 -6l-419 -466h340l-1 -6h-348zM251 551l153 119l2 -4l-154 -122h-4l-115 126l3 3z" />
    <glyph glyph-name="florin" unicode="&#x192;" horiz-adv-x="534" 
d="M187 375l1 6h97l23 100q23 102 48.5 141.5t83.5 39.5q24 0 52 -7l-2 -6q-27 7 -51 7q-54 0 -78 -38t-47 -137l-23 -100h107l-1 -6h-108l-59 -248q-2 -7 -8 -34t-8.5 -35.5t-9 -31.5t-11.5 -32t-13.5 -26t-17.5 -24.5t-21 -16.5t-27 -12.5t-33 -3.5q-24 0 -54 10l2 5
q33 -9 52 -9q17 0 31 3.5t25.5 12t20.5 16.5t17 23.5t13 25.5t11 31t8.5 31l8.5 34t8 33l59 248h-96z" />
    <glyph glyph-name="Ohorn" unicode="&#x1a0;" horiz-adv-x="655" 
d="M407 679q139 0 188 -99q53 2 76.5 26.5t33.5 82.5l10 57h6l-10 -57q-11 -60 -35 -86t-78 -29q23 -52 23 -127q0 -61 -11.5 -122t-37.5 -121t-64 -105.5t-96 -74t-128 -28.5q-217 0 -217 222q0 125 36.5 227t115 168t188.5 66zM406 674q-106 0 -183.5 -64.5t-113.5 -165.5
t-36 -224q0 -218 212 -218q68 0 124.5 27t93.5 71.5t63 103t37.5 119.5t11.5 123q0 228 -209 228z" />
    <glyph glyph-name="ohorn" unicode="&#x1a1;" horiz-adv-x="485" 
d="M288 483q87 0 127 -56q55 1 80 26t35 83l10 57h6l-10 -57q-11 -59 -37 -85.5t-80 -29.5q25 -41 25 -106q0 -154 -70 -236.5t-170 -82.5q-162 0 -162 156q0 92 27 165.5t84 119.5t135 46zM287 477q-113 0 -176 -93t-63 -231q0 -76 38 -113.5t119 -37.5q97 0 165 80.5
t68 231.5q0 163 -151 163z" />
    <glyph glyph-name="Uhorn" unicode="&#x1af;" horiz-adv-x="654" 
d="M148 673h6l-69 -393q-24 -135 20 -206.5t180 -71.5q126 0 191 74t88 205l69 392h6l-13 -75q56 2 83 27.5t37 81.5l10 57h6l-10 -57q-11 -60 -39 -86.5t-88 -28.5l-55 -311q-24 -134 -91 -209.5t-195 -75.5q-139 0 -184.5 73t-20.5 211z" />
    <glyph glyph-name="uhorn" unicode="&#x1b0;" horiz-adv-x="500" 
d="M451 478h6l-9 -49q57 2 81 26.5t34 82.5l10 57h6l-10 -57q-11 -62 -36 -87.5t-86 -27.5l-73 -422h-6l27 153q-22 -59 -62.5 -96.5t-75 -49.5t-66.5 -12q-53 0 -86 16t-45 43.5t-14 64t7 78.5l49 280h6l-49 -280q-9 -40 -7 -75.5t13 -62.5t43 -42.5t84 -15.5q25 0 53 9
t61.5 30.5t61 68t38.5 111.5z" />
    <glyph glyph-name="AEacute" unicode="&#x1fc;" horiz-adv-x="852" 
d="M-9 0h-8l511 673h366v-6h-358l-36 -302h332l-1 -6h-332l-42 -353h394v-6h-400l31 272h-251zM201 278h249l46 389zM604 734l-3 4l135 106l5 -6z" />
    <glyph glyph-name="aeacute" unicode="&#x1fd;" horiz-adv-x="802" 
d="M397 233q80 -15 139 -15q70 0 120.5 15.5t74.5 41t34 49t10 46.5q0 45 -33.5 77t-106.5 32q-79 0 -134.5 -43t-85.5 -114q5 23 5 48q0 47 -37 80t-115 33q-84 0 -130.5 -36t-46.5 -88h7q1 51 45.5 84.5t123.5 33.5q78 0 112.5 -32t34.5 -82q0 -18 -3.5 -38t-10 -46
t-8.5 -39q-87 18 -157 18q-117 0 -165 -46t-48 -114q0 -51 36.5 -76.5t94.5 -25.5q82 0 137.5 31.5t98.5 91.5q18 -123 154 -123q77 0 134.5 38t61.5 104v9h-5q-1 -49 -32 -83.5t-72 -48t-87 -13.5q-151 0 -151 163q0 25 5 68zM154 2q-56 0 -91 23.5t-35 72.5q0 65 47 109.5
t163 44.5q62 0 153 -18q-5 -20 -5 -68q0 -13 2 -39q-47 -67 -102.5 -96t-131.5 -29zM635 473q71 0 102.5 -30t31.5 -73q0 -25 -10.5 -48t-35 -46.5t-73.5 -37.5t-116 -14q-50 0 -136 15q20 111 82 172.5t155 61.5zM455 556l-4 4l124 123l5 -6z" />
    <glyph glyph-name="Oslashacute" unicode="&#x1fe;" horiz-adv-x="655" 
d="M396 734l-3 4l135 106l5 -6zM407 679q124 0 177 -80l71 78l4 -4l-72 -79q34 -55 34 -147q0 -61 -11.5 -122t-37.5 -121t-64 -105.5t-96 -74t-128 -28.5q-122 0 -175 71l-80 -88l-4 4l80 88q-38 56 -38 147q0 125 36.5 227t115 168t188.5 66zM406 674q-106 0 -183.5 -64.5
t-113.5 -165.5t-36 -224q0 -92 36 -144l471 519q-49 79 -174 79zM615 446q0 89 -32 144l-470 -519q51 -69 172 -69q68 0 124.5 27t93.5 71.5t63 103t37.5 119.5t11.5 123z" />
    <glyph glyph-name="oslashacute" unicode="&#x1ff;" horiz-adv-x="485" 
d="M285 556l-4 4l124 123l5 -6zM288 483q92 0 131 -63l58 60l4 -3l-59 -61q22 -41 22 -101q0 -154 -70 -236.5t-170 -82.5q-95 0 -134 52l-62 -64l-4 4l62 65q-24 37 -24 99q0 92 27 165.5t84 119.5t135 46zM287 477q-113 0 -176 -93t-63 -231q0 -61 23 -96l344 358
q-37 62 -128 62zM438 314q0 56 -21 97l-343 -359q36 -50 131 -50q97 0 165 80.5t68 231.5z" />
    <glyph glyph-name="Scommaaccent" unicode="&#x218;" horiz-adv-x="581" 
d="M374 679q40 0 76.5 -10t65 -30.5t40.5 -55t1 -78.5h-5q21 82 -34.5 125.5t-143.5 43.5q-117 0 -180 -50t-63 -125q0 -25 11 -44.5t25 -31.5t45.5 -23t54.5 -17t70 -16q94 -20 143.5 -57t49.5 -101q0 -86 -71.5 -149.5t-213.5 -63.5q-67 0 -117.5 21t-75.5 69t-5 117h6
q-29 -94 28 -148t165 -54q140 0 209 61.5t69 146.5q0 61 -47 97t-142 56q-46 10 -73.5 17t-57 18.5t-44.5 24.5t-25 32t-10 44q0 77 64.5 129t184.5 52zM229 -65q11 0 11 -10q0 -5 -5 -13l-55 -94l-3 2l48 89q-11 0 -11 9q0 17 15 17z" />
    <glyph glyph-name="scommaaccent" unicode="&#x219;" horiz-adv-x="433" 
d="M28 144h5q-12 -70 26.5 -105.5t110.5 -35.5q58 0 100 15t62 39t29 46.5t9 45.5t-9 39.5t-20 26.5t-33.5 17.5t-37 10.5t-42.5 8t-42.5 8t-37 10.5t-33.5 17t-19.5 26.5t-8.5 39q0 59 46.5 96t118.5 37q64 0 104 -23.5t40 -75.5q0 -14 -3 -29h-6q13 63 -25.5 92.5
t-109.5 29.5q-69 0 -114 -35.5t-45 -91.5q0 -21 9 -37t19.5 -25t33.5 -16.5t36.5 -10t42.5 -7.5q27 -5 42.5 -8t37.5 -11.5t33.5 -18.5t20 -28t8.5 -41t-9.5 -47t-30.5 -49t-64 -40.5t-102 -15.5q-65 0 -105 29t-40 84q0 22 3 34zM171 -65q11 0 11 -10q0 -5 -5 -13l-55 -94
l-3 2l48 89q-11 0 -11 9q0 17 15 17z" />
    <glyph glyph-name="schwa" unicode="&#x259;" horiz-adv-x="457" 
d="M408 258q3 26 3 52q0 163 -151 163q-46 0 -87 -13.5t-72 -48t-32 -83.5h-6q0 7 2 21q9 61 65 95.5t130 34.5q157 0 157 -169q0 -59 -15.5 -114t-45 -100.5t-78.5 -72.5t-110 -27q-73 0 -106.5 32t-33.5 77q0 21 6.5 40.5t26 41.5t51 38t86.5 26.5t127 10.5q39 0 83 -4z
M168 2q103 0 163.5 71.5t75.5 178.5q-44 4 -82 4q-70 0 -124 -10t-84.5 -25t-50 -36t-26 -40t-6.5 -40q0 -43 31.5 -73t102.5 -30z" />
    <glyph glyph-name="primemod" unicode="&#x2b9;" horiz-adv-x="133" 
d="M59 419l-4 2l147 227l6 -4z" />
    <glyph glyph-name="circumflex" unicode="&#x2c6;" horiz-adv-x="455" 
d="M427 547l-111 120l-158 -123l-3 4l158 125h7l111 -122z" />
    <glyph glyph-name="caron" unicode="&#x2c7;" horiz-adv-x="455" 
d="M296 551l153 119l2 -4l-154 -122h-4l-115 126l3 3z" />
    <glyph glyph-name="breve" unicode="&#x2d8;" horiz-adv-x="454" 
d="M416 669h5q-11 -39 -44.5 -74.5t-83.5 -35.5q-52 0 -73 35.5t-15 74.5h5q-5 -37 14.5 -71t68.5 -34q48 0 80 33.5t43 71.5z" />
    <glyph glyph-name="dotaccent" unicode="&#x2d9;" horiz-adv-x="459" 
d="M304 605q8 0 8 -8q0 -12 -11 -12q-10 0 -10 8q0 4 4 8t9 4z" />
    <glyph glyph-name="ring" unicode="&#x2da;" horiz-adv-x="454" 
d="M311 696q-29 0 -50 -23t-21 -54q0 -22 13.5 -36t35.5 -14q31 0 51.5 24t20.5 53q0 22 -13 36t-37 14zM312 702q27 0 41 -15t14 -39q0 -34 -22 -59.5t-57 -25.5q-25 0 -39.5 15t-14.5 40q0 34 22.5 59t55.5 25z" />
    <glyph glyph-name="ogonek" unicode="&#x2db;" horiz-adv-x="454" 
d="M360 7l3 -4q-41 -27 -68 -64t-27 -67q0 -41 59 -41q35 0 72 14l1 -6q-37 -14 -76 -14q-63 0 -63 47q0 31 28 69.5t71 65.5z" />
    <glyph glyph-name="tilde" unicode="&#x2dc;" horiz-adv-x="455" 
d="M179 593l-4 3q32 49 77 49q17 0 58.5 -22t60.5 -22q36 0 68 42l5 -3q-35 -45 -74 -45q-20 0 -61 22t-57 22q-41 0 -73 -46z" />
    <glyph glyph-name="hungarumlaut" unicode="&#x2dd;" horiz-adv-x="454" 
d="M223 556l-3 3l124 123l5 -5zM301 556l-3 3l123 123l5 -5z" />
    <glyph glyph-name="tonos" unicode="&#x384;" horiz-adv-x="454" 
d="M283 546l-5 2l99 143l7 -4z" />
    <glyph glyph-name="dieresistonos" unicode="&#x385;" horiz-adv-x="459" 
d="M233 597q6 0 6 -7q0 -11 -9 -11t-9 7q0 11 12 11zM376 597q6 0 6 -6q0 -12 -8 -12q-9 0 -9 7q0 11 11 11zM271 546l-5 2l99 143l9 -4z" />
    <glyph glyph-name="Alphatonos" unicode="&#x386;" horiz-adv-x="547" 
d="M492 0h-6l-40 190h-360l-104 -190h-7l371 673h7zM349 667l-259 -471h355zM72 546l-5 2l99 143l7 -4z" />
    <glyph glyph-name="anoteleia" unicode="&#x387;" horiz-adv-x="137" 
d="M95 376q10 0 10 -11q0 -6 -5 -10.5t-10 -4.5q-11 0 -11 10q0 6 5 11t11 5z" />
    <glyph glyph-name="Epsilontonos" unicode="&#x388;" horiz-adv-x="520" 
d="M464 369l-1 -6h-363l-63 -357h416l-1 -6h-422l118 673h386l-1 -6h-380l-52 -298h363zM-45 546l-5 2l99 143l7 -4z" />
    <glyph glyph-name="Etatonos" unicode="&#x389;" horiz-adv-x="612" 
d="M148 673h6l-55 -314h460l55 314h6l-118 -673h-6l62 353h-460l-62 -353h-6zM-46 546l-5 2l99 143l7 -4z" />
    <glyph glyph-name="Iotatonos" unicode="&#x38a;" horiz-adv-x="186" 
d="M168 673h6l-118 -673h-6zM-32 546l-5 2l99 143l7 -4z" />
    <glyph glyph-name="Omicrontonos" unicode="&#x38c;" horiz-adv-x="655" 
d="M406 674q-106 0 -183.5 -64.5t-113.5 -165.5t-36 -224q0 -218 212 -218q68 0 124.5 27t93.5 71.5t63 103t37.5 119.5t11.5 123q0 228 -209 228zM407 679q214 0 214 -232q0 -61 -11.5 -122t-37.5 -121t-64 -105.5t-96 -74t-128 -28.5q-217 0 -217 222q0 125 36.5 227
t115 168t188.5 66zM2 546l-5 2l99 143l7 -4z" />
    <glyph glyph-name="Upsilontonos" unicode="&#x38e;" horiz-adv-x="464" 
d="M527 673h7l-296 -397l-47 -276h-6l47 276l-147 397h7l144 -390zM-62 546l-5 2l99 143l7 -4z" />
    <glyph glyph-name="Omegatonos" unicode="&#x38f;" horiz-adv-x="652" 
d="M409 681q115 0 167 -70t52 -183q0 -57 -13.5 -118t-40 -122t-74 -110.5t-108.5 -71.5h169l-1 -6h-178l1 9q62 20 110 68.5t75 109t40.5 121.5t13.5 117q0 112 -50 181t-164 69q-69 0 -126.5 -26.5t-95.5 -70t-64.5 -100.5t-38.5 -116t-12 -119q0 -187 125 -235l-1 -8
h-170l1 6h162q-123 50 -123 233q0 63 12.5 124.5t40 119t66.5 101.5t97.5 70.5t127.5 26.5zM-14 546l-5 2l99 143l7 -4z" />
    <glyph glyph-name="iotadieresistonos" unicode="&#x390;" horiz-adv-x="165" 
d="M122 478h5l-75 -424q-3 -17 -2.5 -29t13.5 -18t41 -3l-1 -4q-7 -1 -18 -1q-28 0 -35.5 13.5t-2.5 41.5zM80 597q6 0 6 -7q0 -11 -9 -11t-9 7q0 11 12 11zM223 597q6 0 6 -6q0 -12 -8 -12q-9 0 -9 7q0 11 11 11zM118 546l-5 2l99 143l9 -4z" />
    <glyph glyph-name="Alpha" unicode="&#x391;" horiz-adv-x="547" 
d="M492 0h-6l-40 190h-360l-104 -190h-7l371 673h7zM349 667l-259 -471h355z" />
    <glyph glyph-name="Beta" unicode="&#x392;" horiz-adv-x="591" 
d="M148 673h251q83 0 127.5 -33.5t44.5 -93.5q0 -58 -43.5 -115.5t-122.5 -68.5q65 -8 96.5 -51t31.5 -97q0 -38 -13 -74t-40 -68.5t-76.5 -52t-114.5 -19.5h-259zM368 360h-269l-62 -354h253q105 0 171 55.5t66 152.5q0 61 -38 103.5t-121 42.5zM398 667h-245l-53 -302h276
q83 0 136 55.5t53 124.5q0 57 -41.5 89.5t-125.5 32.5z" />
    <glyph glyph-name="Gamma" unicode="&#x393;" horiz-adv-x="482" 
d="M151 667l-117 -667h-6l118 673h390l-1 -6h-384z" />
    <glyph glyph-name="Delta" unicode="&#x394;" horiz-adv-x="537" 
d="M486 0h-514l369 673h8zM344 668l-362 -662h496z" />
    <glyph glyph-name="Delta" unicode="&#x2206;" horiz-adv-x="537" 
d="M486 0h-514l369 673h8zM344 668l-362 -662h496z" />
    <glyph glyph-name="Epsilon" unicode="&#x395;" horiz-adv-x="520" 
d="M464 369l-1 -6h-363l-63 -357h416l-1 -6h-422l118 673h386l-1 -6h-380l-52 -298h363z" />
    <glyph glyph-name="Zeta" unicode="&#x396;" horiz-adv-x="498" 
d="M-30 0l1 6l571 661h-432l1 6h439l-1 -6l-570 -661h470l-1 -6h-478z" />
    <glyph glyph-name="Eta" unicode="&#x397;" horiz-adv-x="612" 
d="M148 673h6l-55 -314h460l55 314h6l-118 -673h-6l62 353h-460l-62 -353h-6z" />
    <glyph glyph-name="Theta" unicode="&#x398;" horiz-adv-x="650" 
d="M517 357l-1 -6h-337l1 6h337zM406 674q-80 0 -145 -37t-106 -100t-63 -144.5t-22 -172.5q0 -218 215 -218q68 0 124.5 27t94.5 71.5t64 103t38 119.5t12 123q0 228 -212 228zM407 679q217 0 217 -232q0 -61 -11.5 -122t-38 -121t-65 -105.5t-97 -74t-128.5 -28.5
q-109 0 -164.5 56.5t-55.5 165.5q0 92 22 174.5t63.5 146.5t108 102t149.5 38z" />
    <glyph glyph-name="Iota" unicode="&#x399;" horiz-adv-x="186" 
d="M168 673h6l-118 -673h-6z" />
    <glyph glyph-name="Kappa" unicode="&#x39a;" horiz-adv-x="509" 
d="M459 0h-7l-179 352h-175l-62 -352h-6l118 673h6l-55 -315h175l286 315h7l-289 -318z" />
    <glyph glyph-name="Lambda" unicode="&#x39b;" horiz-adv-x="531" 
d="M470 0l-129 668l-359 -668h-7l363 673h8l131 -673h-7z" />
    <glyph glyph-name="Mu" unicode="&#x39c;" horiz-adv-x="773" 
d="M364 106h-4l-188 554l-136 -660h-6l139 673h5l189 -559l393 559h5l-98 -673h-6l98 664z" />
    <glyph glyph-name="Nu" unicode="&#x39d;" horiz-adv-x="618" 
d="M148 673h6l350 -661l116 661h6l-118 -673h-5l-351 664l-116 -664h-6z" />
    <glyph glyph-name="Xi" unicode="&#x39e;" horiz-adv-x="531" 
d="M-5 6h477l-1 -6h-477zM103 369h373l-1 -6h-373zM550 667h-427l1 6h427z" />
    <glyph glyph-name="Omicron" unicode="&#x39f;" horiz-adv-x="655" 
d="M406 674q-106 0 -183.5 -64.5t-113.5 -165.5t-36 -224q0 -218 212 -218q68 0 124.5 27t93.5 71.5t63 103t37.5 119.5t11.5 123q0 228 -209 228zM407 679q214 0 214 -232q0 -61 -11.5 -122t-37.5 -121t-64 -105.5t-96 -74t-128 -28.5q-217 0 -217 222q0 125 36.5 227
t115 168t188.5 66z" />
    <glyph glyph-name="Pi" unicode="&#x3a0;" horiz-adv-x="613" 
d="M499 0l117 667h-465l-117 -667h-6l118 673h477l-118 -673h-6z" />
    <glyph glyph-name="Rho" unicode="&#x3a1;" horiz-adv-x="534" 
d="M148 673h224q91 0 137.5 -46.5t46.5 -126.5q0 -37 -12.5 -73.5t-39 -72t-77.5 -57.5t-120 -22h-223l-48 -275h-6zM371 667h-218l-68 -386h223q67 0 117 21.5t76 56t37.5 69.5t11.5 71q0 78 -44.5 123t-134.5 45z" />
    <glyph glyph-name="Sigma" unicode="&#x3a3;" horiz-adv-x="515" 
d="M4 0l1 6l280 354l-163 305l1 8h426l-1 -6h-421l165 -307l-280 -354h469l-1 -6h-476z" />
    <glyph glyph-name="Tau" unicode="&#x3a4;" horiz-adv-x="518" 
d="M341 667l-117 -667h-6l117 667h-248l1 6h498l-1 -6h-244z" />
    <glyph glyph-name="Upsilon" unicode="&#x3a5;" horiz-adv-x="464" 
d="M527 673h7l-296 -397l-47 -276h-6l47 276l-147 397h7l144 -390z" />
    <glyph glyph-name="Phi" unicode="&#x3a6;" horiz-adv-x="695" 
d="M427 673h6l-5 -30q65 -1 112 -18.5t73.5 -49t38.5 -69.5t12 -84t-9.5 -92.5t-34.5 -96t-62 -87.5t-97.5 -62t-135.5 -25l-10 -59h-6l10 59q-127 1 -187.5 58t-60.5 156q0 155 94 262t257 108zM421 638q-160 -1 -252 -106.5t-92 -257.5q0 -97 59.5 -152.5t183.5 -56.5z
M427 638l-101 -573q73 0 132 24t95.5 61t61 85.5t34 94t9.5 90.5q0 46 -11.5 83t-37 68t-72 48.5t-110.5 18.5z" />
    <glyph glyph-name="Chi" unicode="&#x3a7;" horiz-adv-x="549" 
d="M124 673l166 -321l281 321h7l-285 -326l181 -347h-6l-179 343l-300 -343h-7l305 348l-169 325h6z" />
    <glyph glyph-name="Psi" unicode="&#x3a8;" horiz-adv-x="683" 
d="M303 0h-5l32 187q-273 3 -227 270l38 216h6l-38 -216q-46 -261 223 -264l84 480h5l-84 -480q129 0 213 70t106 195l38 215h6l-38 -215q-23 -129 -108 -200t-219 -71z" />
    <glyph glyph-name="Omega" unicode="&#x3a9;" horiz-adv-x="652" 
d="M409 681q115 0 167 -70t52 -183q0 -57 -13.5 -118t-40 -122t-74 -110.5t-108.5 -71.5h169l-1 -6h-178l1 9q62 20 110 68.5t75 109t40.5 121.5t13.5 117q0 112 -50 181t-164 69q-69 0 -126.5 -26.5t-95.5 -70t-64.5 -100.5t-38.5 -116t-12 -119q0 -187 125 -235l-1 -8
h-170l1 6h162q-123 50 -123 233q0 63 12.5 124.5t40 119t66.5 101.5t97.5 70.5t127.5 26.5z" />
    <glyph glyph-name="Iotadieresis" unicode="&#x3aa;" horiz-adv-x="186" 
d="M168 673h6l-118 -673h-6zM116 788q8 0 8 -8q0 -10 -11 -10q-8 0 -8 7q0 11 11 11zM260 788q7 0 7 -8q0 -10 -10 -10q-8 0 -8 7q0 11 11 11z" />
    <glyph glyph-name="Upsilondieresis" unicode="&#x3ab;" horiz-adv-x="464" 
d="M527 673h7l-296 -397l-47 -276h-6l47 276l-147 397h7l144 -390zM257 780q8 0 8 -8q0 -10 -11 -10q-8 0 -8 7q0 11 11 11zM401 780q7 0 7 -8q0 -10 -10 -10q-8 0 -8 7q0 11 11 11z" />
    <glyph glyph-name="alphatonos" unicode="&#x3ac;" horiz-adv-x="494" 
d="M211 2q56 0 101.5 31t72 79.5t41 103t14.5 107.5q0 70 -37.5 112t-115.5 42q-115 0 -176.5 -88t-61.5 -219q0 -79 41 -123.5t121 -44.5zM396 0h-5l32 187q-29 -91 -85 -141t-128 -50q-81 0 -124 47t-43 128q0 135 64.5 223.5t180.5 88.5q74 0 117.5 -43.5t39.5 -124.5
l27 164h6zM304 546l-5 2l99 143l7 -4z" />
    <glyph glyph-name="epsilontonos" unicode="&#x3ad;" horiz-adv-x="419" 
d="M265 483q-90 0 -141 -43t-51 -105q0 -60 74 -72q-37 -8 -63.5 -27.5t-38.5 -43.5t-16.5 -43.5t-4.5 -37.5q0 -115 156 -115q47 0 88 14.5t71.5 49t36.5 85.5h-6q-8 -72 -62 -108t-127 -36q-152 0 -152 110q0 62 41.5 105.5t106.5 43.5h89l1 6h-91q-97 0 -97 70
q0 59 48.5 100t136.5 41q63 0 99 -25t36 -69q0 -19 -5 -34h6q5 15 5 35q0 46 -38.5 72.5t-101.5 26.5zM251 546l-5 2l99 143l7 -4z" />
    <glyph glyph-name="etatonos" unicode="&#x3ae;" horiz-adv-x="477" 
d="M266 546l-5 2l99 143l7 -4zM25 0h-5l82 478h6l-27 -153q21 59 62 96.5t75.5 49.5t66.5 12q52 0 86 -16t47 -43.5t15.5 -64t-6.5 -78.5l-71 -426h-6l71 426q8 55 4.5 98.5t-39 70.5t-102.5 27q-25 0 -53 -9t-61.5 -30.5t-61 -68t-38.5 -111.5z" />
    <glyph glyph-name="iotatonos" unicode="&#x3af;" horiz-adv-x="165" 
d="M136 546l-5 2l99 143l7 -4zM122 478h5l-75 -424q-3 -17 -2.5 -29t13.5 -18t41 -3l-1 -4q-7 -1 -18 -1q-28 0 -35.5 13.5t-2.5 41.5z" />
    <glyph glyph-name="upsilondieresistonos" unicode="&#x3b0;" horiz-adv-x="490" 
d="M102 478h6l-51 -286q-17 -91 22 -140.5t127 -49.5q178 0 212 188l52 288h6l-52 -288q-35 -194 -219 -194q-90 0 -130 51t-24 145zM244 597q6 0 6 -7q0 -11 -9 -11t-9 7q0 11 12 11zM387 597q6 0 6 -6q0 -12 -8 -12q-9 0 -9 7q0 11 11 11zM282 546l-5 2l99 143l9 -4z" />
    <glyph glyph-name="alpha" unicode="&#x3b1;" horiz-adv-x="494" 
d="M211 2q56 0 101.5 31t72 79.5t41 103t14.5 107.5q0 70 -37.5 112t-115.5 42q-115 0 -176.5 -88t-61.5 -219q0 -79 41 -123.5t121 -44.5zM396 0h-5l32 187q-29 -91 -85 -141t-128 -50q-81 0 -124 47t-43 128q0 135 64.5 223.5t180.5 88.5q74 0 117.5 -43.5t39.5 -124.5
l27 164h6z" />
    <glyph glyph-name="beta" unicode="&#x3b2;" horiz-adv-x="493" 
d="M-3 -149h-6l117 665q36 202 210 202q72 0 108.5 -34t36.5 -93q0 -46 -33 -99t-94 -64q52 -9 81.5 -52t29.5 -103q0 -50 -15 -98.5t-43 -89t-74.5 -65.5t-104.5 -25q-74 0 -116.5 41.5t-43.5 114.5zM114 516l-53 -305q-5 -32 -5 -55q0 -72 39.5 -113.5t115.5 -41.5
q74 0 128 43.5t78 103t24 122.5q0 66 -34.5 110t-95.5 44h-72l1 6h56q39 0 69.5 14.5t47 35t27 44.5t13.5 40t3 26q0 56 -33.5 89t-105.5 33q-87 0 -137 -52.5t-66 -143.5z" />
    <glyph glyph-name="gamma" unicode="&#x3b3;" horiz-adv-x="393" 
d="M167 26h1l102 183l150 269h7l-258 -464l-39 -219h-6l39 219l-77 412q-7 36 -11.5 42.5t-21.5 6.5l-1 6q5 1 10 1q12 1 17.5 -6.5t8.5 -26.5l44 -234z" />
    <glyph glyph-name="delta" unicode="&#x3b4;" horiz-adv-x="480" 
d="M301 482q59 0 103 -19q-29 58 -87 115.5t-156 131.5l1 6h326l-1 -6h-317q147 -109 210 -195t63 -193q0 -139 -64 -232t-181 -93q-158 0 -158 156q0 59 15.5 115.5t45.5 105.5t82 78.5t118 29.5zM300 476q-79 0 -138 -47.5t-87 -119t-28 -154.5q0 -152 152 -152
q113 0 175 90.5t62 225.5q0 75 -27 135q-46 22 -109 22z" />
    <glyph glyph-name="epsilon" unicode="&#x3b5;" horiz-adv-x="419" 
d="M265 483q63 0 101.5 -26.5t38.5 -72.5q0 -20 -5 -35h-6q5 15 5 34q0 44 -36 69t-99 25q-88 0 -136.5 -41t-48.5 -100q0 -70 97 -70h91l-1 -6h-89q-65 0 -106.5 -43.5t-41.5 -105.5q0 -110 152 -110q73 0 127 36t62 108h6q-6 -51 -36.5 -85.5t-71.5 -49t-88 -14.5
q-156 0 -156 115q0 18 4.5 37.5t16.5 43.5t38.5 43.5t63.5 27.5q-74 12 -74 72q0 62 51 105t141 43z" />
    <glyph glyph-name="zeta" unicode="&#x3b6;" horiz-adv-x="374" 
d="M496 712l-1 -6q-87 -66 -160.5 -130.5t-141 -136t-106 -139t-38.5 -120.5q0 -54 35 -89t100 -65q74 -34 102 -54.5t28 -40.5t-18.5 -45.5t-58.5 -68.5l-5 5q74 78 74 107q0 19 -23 36t-102 55q-31 14 -51.5 26.5t-42.5 31.5t-33.5 44.5t-11.5 56.5q0 189 444 527h-323
l1 6h332z" />
    <glyph glyph-name="eta" unicode="&#x3b7;" horiz-adv-x="477" 
d="M25 0h-5l82 478h6l-27 -153q21 59 62 96.5t75.5 49.5t66.5 12q52 0 86 -16t47 -43.5t15.5 -64t-6.5 -78.5l-71 -426h-6l71 426q8 55 4.5 98.5t-39 70.5t-102.5 27q-25 0 -53 -9t-61.5 -30.5t-61 -68t-38.5 -111.5z" />
    <glyph glyph-name="theta" unicode="&#x3b8;" horiz-adv-x="498" 
d="M336 720q154 0 154 -194q0 -60 -8 -125.5t-28 -139t-50.5 -131t-81 -95.5t-113.5 -38q-156 0 -156 198q0 85 17 173.5t49.5 169t89 131.5t127.5 51zM210 3q57 0 104.5 33.5t78 89.5t50 119t28.5 132h-393q-19 -89 -19 -181q0 -193 151 -193zM335 714q-94 0 -160.5 -91
t-95.5 -240h393q11 67 11 140q0 191 -148 191z" />
    <glyph glyph-name="iota" unicode="&#x3b9;" horiz-adv-x="165" 
d="M122 478h5l-75 -424q-3 -17 -2.5 -29t13.5 -18t41 -3l-1 -4q-7 -1 -18 -1q-28 0 -35.5 13.5t-2.5 41.5z" />
    <glyph glyph-name="kappa" unicode="&#x3ba;" horiz-adv-x="400" 
d="M426 478h6l-206 -230l126 -248h-6l-124 246h-155l-43 -246h-6l84 478h6l-40 -227h154z" />
    <glyph glyph-name="lambda" unicode="&#x3bb;" horiz-adv-x="414" 
d="M120 711l1 6h37q38 0 52 -18t22 -65l102 -592q4 -22 7.5 -29t11.5 -7q7 0 13 2v-6q-8 -2 -14 -2q-12 0 -16 7.5t-8 32.5l-44 252l-29 168h-18l-94 -170l-161 -290h-7l259 466h20l-28 166q-8 47 -21 63t-48 16h-37z" />
    <glyph glyph-name="nu" unicode="&#x3bd;" horiz-adv-x="409" 
d="M152 7l165 257q39 62 57 108t25 106h6q-10 -68 -26 -109.5t-56 -105.5l-169 -263h-6l-104 478h6z" />
    <glyph glyph-name="xi" unicode="&#x3be;" horiz-adv-x="391" 
d="M330 719q68 0 106.5 -26t38.5 -72q0 -15 -5 -35h-6q5 18 5 33q0 94 -140 94q-95 0 -147.5 -51.5t-52.5 -124.5q0 -63 47 -90.5t114 -27.5h81l-1 -6h-96q-102 0 -164.5 -76t-62.5 -158q0 -59 48.5 -96t153.5 -73q47 -16 64.5 -28.5t17.5 -26.5q0 -27 -63 -103l-5 3
q62 75 62 99q0 13 -17 24.5t-62 26.5q-106 37 -155 74.5t-49 101.5q0 28 10 61.5t31.5 70t63 65.5t96.5 39q-120 21 -120 121q0 73 54.5 127t152.5 54z" />
    <glyph glyph-name="omicron" unicode="&#x3bf;" horiz-adv-x="485" 
d="M287 477q-113 0 -176 -93t-63 -231q0 -76 38 -113.5t119 -37.5q97 0 165 80.5t68 231.5q0 163 -151 163zM288 483q80 0 118 -45t38 -123q0 -154 -70 -236.5t-170 -82.5q-162 0 -162 156q0 92 27 165.5t84 119.5t135 46z" />
    <glyph glyph-name="pi" unicode="&#x3c0;" horiz-adv-x="493" 
d="M472 472h-365l-83 -472h-6l84 478h377l-84 -478h-6z" />
    <glyph glyph-name="rho" unicode="&#x3c1;" horiz-adv-x="495" 
d="M52 150h-2l-63 -355h-6l82 462q18 101 77.5 163.5t159.5 62.5q75 0 115 -44t40 -121q0 -138 -62.5 -230t-181.5 -92q-73 0 -115.5 40t-43.5 114zM299 477q-86 0 -148.5 -54.5t-83.5 -175.5q-10 -59 -10 -89q0 -79 42.5 -117.5t112.5 -38.5q78 0 133.5 45.5t79.5 114
t24 153.5q0 77 -38 119.5t-112 42.5z" />
    <glyph glyph-name="sigma1" unicode="&#x3c2;" horiz-adv-x="423" 
d="M432 350h-6q18 64 -21.5 95t-112.5 31q-114 0 -178.5 -83.5t-64.5 -199.5q0 -60 32 -94.5t111 -73.5q3 -1 8 -4q57 -28 77.5 -42t20.5 -29q0 -19 -72 -107l-5 4q70 84 70 102q0 14 -21.5 27.5t-80.5 42.5q-80 39 -113 75t-33 96q0 123 67 207.5t183 84.5q57 0 101 -22.5
t44 -72.5q0 -16 -6 -37z" />
    <glyph glyph-name="sigma" unicode="&#x3c3;" horiz-adv-x="503" 
d="M290 478h219l-1 -6h-167q104 -30 104 -161q0 -152 -70 -233.5t-170 -81.5q-84 0 -123.5 39t-39.5 118q0 140 66.5 232.5t181.5 92.5zM289 472q-112 0 -176.5 -90.5t-64.5 -228.5q0 -77 38 -114t120 -37q97 0 165 80t68 227q0 163 -150 163z" />
    <glyph glyph-name="tau" unicode="&#x3c4;" horiz-adv-x="332" 
d="M349 478l-1 -6h-160l-60 -337q-13 -76 11 -104.5t89 -28.5q19 0 46 3l-1 -6q-27 -3 -46 -3q-68 0 -93.5 30t-11.5 109l60 337h-131l1 6h297z" />
    <glyph glyph-name="upsilon" unicode="&#x3c5;" horiz-adv-x="490" 
d="M102 478h6l-51 -286q-17 -91 22 -140.5t127 -49.5q178 0 212 188l52 288h6l-52 -288q-35 -194 -219 -194q-90 0 -130 51t-24 145z" />
    <glyph glyph-name="phi" unicode="&#x3c6;" horiz-adv-x="582" 
d="M211 -205h-6l36 201q-104 2 -150.5 53t-46.5 130q0 93 42.5 172t119.5 110l1 -6q-75 -30 -116 -107t-41 -168q0 -78 44.5 -127.5t147.5 -51.5l84 479h15q200 0 200 -174q0 -41 -8 -81t-29 -82.5t-53 -74t-84.5 -52t-119.5 -20.5zM331 474l-83 -473q64 0 115.5 20t83 51
t52.5 72t29 80.5t8 79.5q0 170 -194 170h-11z" />
    <glyph glyph-name="chi" unicode="&#x3c7;" horiz-adv-x="383" 
d="M329 0h-7l-133 240l-214 -240h-8l219 245l-127 233h7l124 -228l204 228h7l-208 -233z" />
    <glyph glyph-name="psi" unicode="&#x3c8;" horiz-adv-x="539" 
d="M308 478h6l-84 -477q88 1 155.5 48t85.5 149l50 280h6l-50 -280q-18 -105 -87.5 -153.5t-160.5 -49.5l-36 -200h-6l36 200q-101 1 -146.5 48t-26.5 153l50 282h6l-50 -282q-18 -103 26.5 -148.5t141.5 -46.5z" />
    <glyph glyph-name="omega" unicode="&#x3c9;" horiz-adv-x="738" 
d="M380 308h6l-30 -173q-2 -16 -2 -22q0 -49 37 -79t92 -30q50 0 88.5 22.5t60.5 55.5t36 77t18.5 80.5t4.5 71.5q0 166 -148 166l1 6q153 -1 153 -172q0 -36 -4.5 -73t-19 -82t-37 -78.5t-63 -56.5t-92.5 -23q-56 0 -94.5 32.5t-38.5 81.5q-24 -51 -69.5 -82.5
t-101.5 -31.5q-76 0 -106.5 37.5t-30.5 105.5q0 95 24.5 170t81 123.5t138.5 48.5l-1 -6q-117 0 -177 -94.5t-60 -241.5q0 -65 29.5 -101t102.5 -36q65 0 114 42.5t60 102.5z" />
    <glyph glyph-name="iotadieresis" unicode="&#x3ca;" horiz-adv-x="165" 
d="M122 478h5l-75 -424q-3 -17 -2.5 -29t13.5 -18t41 -3l-1 -4q-7 -1 -18 -1q-28 0 -35.5 13.5t-2.5 41.5zM72 597q6 0 6 -7q0 -11 -9 -11t-9 7q0 11 12 11zM216 597q5 0 5 -6q0 -12 -8 -12q-9 0 -9 7q0 11 12 11z" />
    <glyph glyph-name="upsilondieresis" unicode="&#x3cb;" horiz-adv-x="490" 
d="M102 478h6l-51 -286q-17 -91 22 -140.5t127 -49.5q178 0 212 188l52 288h6l-52 -288q-35 -194 -219 -194q-90 0 -130 51t-24 145zM238 597q6 0 6 -7q0 -11 -9 -11t-9 7q0 11 12 11zM382 597q5 0 5 -6q0 -12 -8 -12q-9 0 -9 7q0 11 12 11z" />
    <glyph glyph-name="omicrontonos" unicode="&#x3cc;" horiz-adv-x="485" 
d="M287 477q-113 0 -176 -93t-63 -231q0 -76 38 -113.5t119 -37.5q97 0 165 80.5t68 231.5q0 163 -151 163zM288 483q80 0 118 -45t38 -123q0 -154 -70 -236.5t-170 -82.5q-162 0 -162 156q0 92 27 165.5t84 119.5t135 46zM293 546l-5 2l99 143l7 -4z" />
    <glyph glyph-name="upsilontonos" unicode="&#x3cd;" horiz-adv-x="490" 
d="M102 478h6l-51 -286q-17 -91 22 -140.5t127 -49.5q178 0 212 188l52 288h6l-52 -288q-35 -194 -219 -194q-90 0 -130 51t-24 145zM289 546l-5 2l99 143l7 -4z" />
    <glyph glyph-name="omegatonos" unicode="&#x3ce;" horiz-adv-x="738" 
d="M386 308h-6l-28 -159q-11 -60 -60 -102.5t-114 -42.5q-73 0 -102.5 36t-29.5 101q0 147 60 241.5t177 94.5l1 6q-82 0 -138.5 -48.5t-81 -123.5t-24.5 -170q0 -68 30.5 -105.5t106.5 -37.5q56 0 101.5 31.5t69.5 82.5q0 -49 38.5 -81.5t94.5 -32.5q52 0 92.5 23t63 56.5
t37 78.5t19 82t4.5 73q0 171 -153 172l-1 -6q148 0 148 -166q0 -35 -4.5 -71.5t-18.5 -80.5t-36 -77t-60.5 -55.5t-88.5 -22.5q-55 0 -92 30t-37 79q0 6 2 22zM413 546l-5 2l99 143l7 -4z" />
    <glyph glyph-name="Sampigreek" unicode="&#x3e0;" horiz-adv-x="601" 
d="M169 121l-1 6q282 146 362 188q-15 90 -66 163l-358 -185l-1 6l355 184q-98 129 -307 160l1 6q192 -29 290 -137.5t98 -276.5q0 -141 -52 -274l-5 2q51 136 51 270q0 34 -5 76q-88 -46 -362 -188z" />
    <glyph glyph-name="sampigreek" unicode="&#x3e1;" horiz-adv-x="513" 
d="M111 6l-3 6l316 175q-11 88 -55 153l-310 -172l-3 6l310 171q-84 123 -264 151l1 6q164 -25 248.5 -126.5t84.5 -256.5q0 -132 -49 -263l-7 2q49 130 49 260q0 22 -4 62z" />
    <glyph glyph-name="afii10023" unicode="&#x401;" horiz-adv-x="520" 
d="M464 369l-1 -6h-363l-63 -357h416l-1 -6h-422l118 673h386l-1 -6h-380l-52 -298h363zM290 788q8 0 8 -8q0 -10 -11 -10q-8 0 -8 7q0 11 11 11zM434 788q7 0 7 -8q0 -10 -10 -10q-8 0 -8 7q0 11 11 11z" />
    <glyph glyph-name="afii10051" unicode="&#x402;" horiz-adv-x="721" 
d="M646 673l-1 -6h-332l-54 -306q40 43 103 69.5t119 26.5q53 0 90 -16t56.5 -45t27.5 -60t8 -69q0 -39 -6.5 -79t-23.5 -83t-43 -75.5t-69.5 -53.5t-97.5 -21q-3 0 -8.5 0.5t-7.5 0.5l1 6q49 -3 89 10.5t66.5 39t45.5 56.5t29 68t14.5 69t4.5 63q0 183 -177 183
q-56 0 -116.5 -26t-105.5 -72l-62 -353h-6l117 667h-222l1 6h560z" />
    <glyph glyph-name="afii10052" unicode="&#x403;" horiz-adv-x="482" 
d="M151 667l-117 -667h-6l118 673h390l-1 -6h-384zM310 746l-3 4l135 106l5 -6z" />
    <glyph glyph-name="afii10053" unicode="&#x404;" horiz-adv-x="589" 
d="M576 498h-6q8 29 8 49q0 61 -49.5 93.5t-120.5 32.5q-131 0 -213 -84.5t-108 -230.5h344l-1 -6h-344q-11 -58 -11 -134q0 -105 47.5 -160.5t159.5 -55.5q115 0 178.5 53.5t69.5 136.5h6q-7 -86 -72 -141t-183 -55q-115 0 -163.5 56.5t-48.5 165.5q0 206 88 333.5
t252 127.5q73 0 124 -33t51 -97q0 -22 -8 -51z" />
    <glyph glyph-name="afii10054" unicode="&#x405;" horiz-adv-x="581" 
d="M374 679q40 0 76.5 -10t65 -30.5t40.5 -55t1 -78.5h-5q21 82 -34.5 125.5t-143.5 43.5q-117 0 -180 -50t-63 -125q0 -25 11 -44.5t25 -31.5t45.5 -23t54.5 -17t70 -16q94 -20 143.5 -57t49.5 -101q0 -86 -71.5 -149.5t-213.5 -63.5q-67 0 -117.5 21t-75.5 69t-5 117h6
q-29 -94 28 -148t165 -54q140 0 209 61.5t69 146.5q0 61 -47 97t-142 56q-46 10 -73.5 17t-57 18.5t-44.5 24.5t-25 32t-10 44q0 77 64.5 129t184.5 52z" />
    <glyph glyph-name="afii10055" unicode="&#x406;" horiz-adv-x="186" 
d="M168 673h6l-118 -673h-6z" />
    <glyph glyph-name="afii10056" unicode="&#x407;" horiz-adv-x="186" 
d="M168 673h6l-118 -673h-6zM116 776q6 0 6 -7q0 -11 -9 -11t-9 7q0 11 12 11zM260 776q5 0 5 -6q0 -12 -8 -12q-9 0 -9 7q0 11 12 11z" />
    <glyph glyph-name="afii10057" unicode="&#x408;" horiz-adv-x="521" 
d="M10 167h6q-18 -66 23 -113.5t149 -47.5q107 0 167 60t78 160l80 447h6l-80 -447q-18 -103 -79.5 -164.5t-172.5 -61.5q-110 0 -152.5 50t-24.5 117z" />
    <glyph glyph-name="afii10058" unicode="&#x409;" horiz-adv-x="940" 
d="M641 0h-218l117 667h-266l-118 -463q-9 -33 -18 -59.5t-24 -55.5t-33.5 -48.5t-45.5 -32t-59 -12.5h-7l1 5q40 0 70.5 16t51.5 47t34 63.5t24 76.5l119 469h278l-52 -294h217q97 0 139.5 -41t42.5 -105q0 -104 -68 -168.5t-185 -64.5zM711 373h-217l-64 -367h212
q118 0 182 65t64 160q0 142 -177 142z" />
    <glyph glyph-name="afii10059" unicode="&#x40a;" horiz-adv-x="910" 
d="M619 0h-222l63 358h-363l-63 -358h-6l118 673h6l-54 -309h363l54 309h6l-54 -309h219q92 0 137 -37.5t45 -101.5q0 -103 -67 -164t-182 -61zM685 358h-219l-62 -352h216q112 0 177 59t65 159q0 62 -44 98t-133 36z" />
    <glyph glyph-name="afii10060" unicode="&#x40b;" horiz-adv-x="716" 
d="M628 673l-1 -6h-320l-52 -295q47 41 119 65.5t136 24.5q189 0 153 -204l-45 -258h-6l45 258q35 198 -148 198q-65 0 -136.5 -25.5t-118.5 -66.5l-64 -364h-6l117 667h-216l1 6h542z" />
    <glyph glyph-name="afii10061" unicode="&#x40c;" horiz-adv-x="509" 
d="M459 0h-7l-179 352h-175l-62 -352h-6l118 673h6l-55 -315h175l286 315h7l-289 -318zM302 737l-3 4l135 106l5 -6z" />
    <glyph glyph-name="afii10062" unicode="&#x40e;" horiz-adv-x="478" 
d="M97 673h6l126 -472h20l291 472h7l-342 -554q-20 -32 -32 -49t-33 -37.5t-47 -29.5t-59 -9h-31l2 6h27q59 0 93.5 28.5t73.5 92.5l45 74h-20zM447 821h6q-12 -40 -45.5 -75t-84.5 -35q-52 0 -73 36t-14 74h6q-6 -37 13.5 -70.5t68.5 -33.5q48 0 80 33.5t43 70.5z" />
    <glyph glyph-name="afii10145" unicode="&#x40f;" horiz-adv-x="610" 
d="M502 0h-230l-31 -174h-5l31 174h-239l118 673h6l-117 -667h462l117 667h6z" />
    <glyph glyph-name="afii10017" unicode="&#x410;" horiz-adv-x="547" 
d="M492 0h-6l-40 190h-360l-104 -190h-7l371 673h7zM349 667l-259 -471h355z" />
    <glyph glyph-name="afii10018" unicode="&#x411;" horiz-adv-x="561" 
d="M258 0h-230l118 673h387l-1 -6h-381l-51 -288h229q97 0 139.5 -41t42.5 -105q0 -104 -68 -168.5t-185 -64.5zM328 373h-229l-64 -367h224q118 0 182 65t64 160q0 142 -177 142z" />
    <glyph glyph-name="afii10019" unicode="&#x412;" horiz-adv-x="591" 
d="M148 673h251q83 0 127.5 -33.5t44.5 -93.5q0 -58 -43.5 -115.5t-122.5 -68.5q65 -8 96.5 -51t31.5 -97q0 -38 -13 -74t-40 -68.5t-76.5 -52t-114.5 -19.5h-259zM368 360h-269l-62 -354h253q105 0 171 55.5t66 152.5q0 61 -38 103.5t-121 42.5zM398 667h-245l-53 -302h276
q83 0 136 55.5t53 124.5q0 57 -41.5 89.5t-125.5 32.5z" />
    <glyph glyph-name="afii10020" unicode="&#x413;" horiz-adv-x="482" 
d="M151 667l-117 -667h-6l118 673h390l-1 -6h-384z" />
    <glyph glyph-name="afii10021" unicode="&#x414;" horiz-adv-x="640" 
d="M-52 -160h-5l29 166h53q101 157 170 433l59 234h377l-117 -667h58l-30 -166h-6l29 160h-589zM258 667l-57 -228q-69 -274 -169 -433h476l116 661h-366z" />
    <glyph glyph-name="afii10022" unicode="&#x415;" horiz-adv-x="520" 
d="M464 369l-1 -6h-363l-63 -357h416l-1 -6h-422l118 673h386l-1 -6h-380l-52 -298h363z" />
    <glyph glyph-name="afii10024" unicode="&#x416;" horiz-adv-x="802" 
d="M-21 0h-8l308 355l-181 318h7l179 -315h138l55 315h5l-55 -315h137l290 315h7l-293 -318l184 -355h-7l-182 352h-137l-62 -352h-5l62 352h-137z" />
    <glyph glyph-name="afii10025" unicode="&#x417;" horiz-adv-x="556" 
d="M353 671q-88 0 -159 -43.5t-76 -131.5h-6q3 62 43 104.5t91.5 59.5t107.5 17q87 0 136 -41t49 -104q0 -72 -44.5 -119.5t-111.5 -57.5q54 -10 83 -47t29 -91q0 -89 -69 -154.5t-196 -65.5q-98 0 -151 41.5t-53 107.5q0 23 6 47h6q-6 -24 -6 -45q0 -65 51.5 -105
t147.5 -40q124 0 191 64t67 151q0 54 -33.5 93.5t-108.5 39.5h-96l1 6h87q86 0 139.5 47.5t53.5 127.5q0 59 -46 99t-133 40z" />
    <glyph glyph-name="afii10026" unicode="&#x418;" horiz-adv-x="617" 
d="M621 673h6l-118 -673h-6l117 664l-586 -664h-6l118 673h6l-117 -663z" />
    <glyph glyph-name="afii10027" unicode="&#x419;" horiz-adv-x="617" 
d="M627 673h-6l-586 -663l117 663h-6l-118 -673h6l586 664l-117 -664h6zM514 833h5q-11 -39 -44.5 -74.5t-83.5 -35.5q-52 0 -73 35.5t-15 74.5h5q-5 -37 14.5 -71t68.5 -34q48 0 80 33.5t43 71.5z" />
    <glyph glyph-name="afii10028" unicode="&#x41a;" horiz-adv-x="509" 
d="M459 0h-7l-179 352h-175l-62 -352h-6l118 673h6l-55 -315h175l286 315h7l-289 -318z" />
    <glyph glyph-name="afii10029" unicode="&#x41b;" horiz-adv-x="592" 
d="M484 0h-6l117 667h-323l-118 -463q-11 -43 -23.5 -75t-33 -65t-52 -50.5t-71.5 -17.5h-7l1 6q75 0 115.5 54t64.5 148l119 469h335z" />
    <glyph glyph-name="afii10030" unicode="&#x41c;" horiz-adv-x="773" 
d="M364 106h-4l-188 554l-136 -660h-6l139 673h5l189 -559l393 559h5l-98 -673h-6l98 664z" />
    <glyph glyph-name="afii10031" unicode="&#x41d;" horiz-adv-x="612" 
d="M148 673h6l-55 -314h460l55 314h6l-118 -673h-6l62 353h-460l-62 -353h-6z" />
    <glyph glyph-name="afii10032" unicode="&#x41e;" horiz-adv-x="655" 
d="M406 674q-106 0 -183.5 -64.5t-113.5 -165.5t-36 -224q0 -218 212 -218q68 0 124.5 27t93.5 71.5t63 103t37.5 119.5t11.5 123q0 228 -209 228zM407 679q214 0 214 -232q0 -61 -11.5 -122t-37.5 -121t-64 -105.5t-96 -74t-128 -28.5q-217 0 -217 222q0 125 36.5 227
t115 168t188.5 66z" />
    <glyph glyph-name="afii10033" unicode="&#x41f;" horiz-adv-x="632" 
d="M499 0l117 667h-465l-117 -667h-6l118 673h477l-118 -673h-6z" />
    <glyph glyph-name="afii10034" unicode="&#x420;" horiz-adv-x="534" 
d="M148 673h224q91 0 137.5 -46.5t46.5 -126.5q0 -37 -12.5 -73.5t-39 -72t-77.5 -57.5t-120 -22h-223l-48 -275h-6zM371 667h-218l-68 -386h223q67 0 117 21.5t76 56t37.5 69.5t11.5 71q0 78 -44.5 123t-134.5 45z" />
    <glyph glyph-name="afii10035" unicode="&#x421;" horiz-adv-x="589" 
d="M576 498h-6q8 29 8 49q0 61 -49.5 93.5t-120.5 32.5q-161 0 -247 -126t-86 -329q0 -105 47.5 -160.5t159.5 -55.5q115 0 178.5 53.5t69.5 136.5h6q-7 -86 -72 -141t-183 -55q-115 0 -163.5 56.5t-48.5 165.5q0 206 88 333.5t252 127.5q73 0 124 -33t51 -97q0 -22 -8 -51z
" />
    <glyph glyph-name="afii10036" unicode="&#x422;" horiz-adv-x="518" 
d="M341 667l-117 -667h-6l117 667h-248l1 6h498l-1 -6h-244z" />
    <glyph glyph-name="afii10037" unicode="&#x423;" horiz-adv-x="478" 
d="M97 673h6l126 -472h20l291 472h7l-342 -554q-20 -32 -32 -49t-33 -37.5t-47 -29.5t-59 -9h-31l2 6h27q59 0 93.5 28.5t73.5 92.5l45 74h-20z" />
    <glyph glyph-name="afii10038" unicode="&#x424;" horiz-adv-x="695" 
d="M427 673h6l-5 -30q65 -1 112 -18.5t73.5 -49t38.5 -69.5t12 -84t-9.5 -92.5t-34.5 -96t-62 -87.5t-97.5 -62t-135.5 -25l-10 -59h-6l10 59q-127 1 -187.5 58t-60.5 156q0 155 94 262t257 108zM421 638q-160 -1 -252 -106.5t-92 -257.5q0 -97 59.5 -152.5t183.5 -56.5z
M427 638l-101 -573q73 0 132 24t95.5 61t61 85.5t34 94t9.5 90.5q0 46 -11.5 83t-37 68t-72 48.5t-110.5 18.5z" />
    <glyph glyph-name="afii10039" unicode="&#x425;" horiz-adv-x="549" 
d="M124 673l166 -321l281 321h7l-285 -326l181 -347h-6l-179 343l-300 -343h-7l305 348l-169 325h6z" />
    <glyph glyph-name="afii10040" unicode="&#x426;" horiz-adv-x="630" 
d="M495 6l117 667h6l-117 -667h57l-29 -163h-6l28 157h-523l118 673h6l-117 -667h460z" />
    <glyph glyph-name="afii10041" unicode="&#x427;" horiz-adv-x="562" 
d="M565 674h6l-118 -674h-6l54 309q-112 -26 -208 -26q-226 0 -189 208l32 183h6l-32 -183q-35 -202 184 -202q94 0 208 26z" />
    <glyph glyph-name="afii10042" unicode="&#x428;" horiz-adv-x="912" 
d="M799 6l117 667h6l-118 -673h-776l118 673h6l-117 -667h380l117 667h6l-117 -667h378z" />
    <glyph glyph-name="afii10043" unicode="&#x429;" horiz-adv-x="928" 
d="M799 6l117 667h6l-117 -667h56l-29 -163h-6l28 157h-826l118 673h6l-117 -667h380l117 667h6l-117 -667h378z" />
    <glyph glyph-name="afii10044" unicode="&#x42a;" horiz-adv-x="768" 
d="M362 673l-52 -294h229q97 0 139.5 -41t42.5 -105q0 -104 -68 -168.5t-185 -64.5h-230l117 667h-270l1 6h276zM538 373h-229l-64 -367h224q118 0 182 65t64 160q0 142 -177 142z" />
    <glyph glyph-name="afii10045" unicode="&#x42b;" horiz-adv-x="684" 
d="M688 673h6l-118 -673h-6zM258 0h-230l118 673h6l-52 -294h229q97 0 139.5 -41t42.5 -105q0 -104 -68 -168.5t-185 -64.5zM328 373h-229l-64 -367h224q118 0 182 65t64 160q0 142 -177 142z" />
    <glyph glyph-name="afii10046" unicode="&#x42c;" horiz-adv-x="558" 
d="M258 0h-230l118 673h6l-52 -294h229q97 0 139.5 -41t42.5 -105q0 -104 -68 -168.5t-185 -64.5zM328 373h-229l-64 -367h224q118 0 182 65t64 160q0 142 -177 142z" />
    <glyph glyph-name="afii10047" unicode="&#x42d;" horiz-adv-x="581" 
d="M100 496h-6q13 90 80.5 137t151.5 47q108 0 166.5 -66.5t58.5 -182.5q0 -37 -6 -79q-57 -356 -327 -356q-100 0 -148.5 39t-48.5 105q0 29 7 56h6q-7 -27 -7 -54q0 -64 46.5 -102t145.5 -38q265 0 319 347h-349l1 6h349q6 41 6 77q0 112 -57 177t-163 65
q-81 0 -146.5 -45.5t-78.5 -132.5z" />
    <glyph glyph-name="afii10048" unicode="&#x42e;" horiz-adv-x="817" 
d="M146 673h6l-56 -318h176q17 90 55 161t105 117t153 46q203 0 203 -229q0 -73 -16.5 -146.5t-52 -145t-101.5 -116.5t-154 -45q-111 0 -159 56t-48 161q0 59 14 135h-176l-61 -349h-6zM277 351q-14 -75 -14 -135q0 -102 46.5 -157.5t155.5 -55.5q69 0 125 29.5t91 76.5
t58.5 107.5t33 118.5t9.5 114q0 224 -198 224q-64 0 -117.5 -26t-91 -71.5t-62 -102t-36.5 -122.5z" />
    <glyph glyph-name="afii10049" unicode="&#x42f;" horiz-adv-x="553" 
d="M306 295h-20q-101 0 -144.5 47.5t-43.5 114.5q0 104 67.5 160t175.5 56h222l-118 -673h-6l52 295h-178l-273 -295h-8zM556 667h-216q-105 0 -170.5 -55.5t-65.5 -152.5q0 -68 42.5 -113t139.5 -45h206z" />
    <glyph glyph-name="afii10065" unicode="&#x430;" horiz-adv-x="494" 
d="M211 2q56 0 101.5 31t72 79.5t41 103t14.5 107.5q0 70 -37.5 112t-115.5 42q-115 0 -176.5 -88t-61.5 -219q0 -79 41 -123.5t121 -44.5zM396 0h-5l32 187q-29 -91 -85 -141t-128 -50q-81 0 -124 47t-43 128q0 135 64.5 223.5t180.5 88.5q74 0 117.5 -43.5t39.5 -124.5
l27 164h6z" />
    <glyph glyph-name="afii10066" unicode="&#x431;" horiz-adv-x="490" 
d="M63 298l2 -1q31 89 92 134t134 45q84 0 121.5 -49t37.5 -127q0 -31 -4 -64.5t-19.5 -79t-40 -80t-70 -59t-105.5 -24.5q-169 0 -169 171q0 61 23 164q21 89 60 171t81 122q38 36 90.5 55t187.5 36l1 -7q-150 -20 -203 -41q-144 -59 -219 -366zM290 470
q-117 -4 -179 -95.5t-62 -215.5q0 -160 163 -160q60 0 105 25.5t68 60t37.5 80.5t18 76.5t3.5 57.5q0 76 -36 123.5t-118 47.5z" />
    <glyph glyph-name="afii10067" unicode="&#x432;" horiz-adv-x="461" 
d="M272 483q71 0 108.5 -32t37.5 -79q0 -33 -21 -62.5t-56 -38.5q38 -9 59 -37.5t21 -60.5q0 -83 -65.5 -129.5t-158.5 -46.5q-98 0 -135.5 57.5t-18.5 159.5l17 89q14 73 66 126.5t146 53.5zM314 268h-133l1 6h129q46 0 73.5 29.5t27.5 68.5q0 44 -35.5 74.5t-104.5 30.5
q-91 0 -142 -52t-64 -123l-17 -90q-18 -95 17.5 -152t130.5 -57q91 0 154.5 44.5t63.5 125.5q0 34 -26.5 64.5t-74.5 30.5z" />
    <glyph glyph-name="afii10068" unicode="&#x433;" horiz-adv-x="409" 
d="M172 2q81 0 134.5 33.5t50.5 104.5h5v-8q0 -67 -53.5 -101.5t-135.5 -34.5q-78 0 -113 29.5t-35 71.5q0 35 12.5 62t28.5 42.5t47.5 28t52 18t59.5 13.5q13 3 19 4q35 8 57 15t45.5 20t34.5 33.5t11 48.5q0 40 -31 68t-96 28q-81 0 -124 -33.5t-53 -82.5h-5q2 11 5 20
q36 102 177 102q69 0 100.5 -30t31.5 -73q0 -17 -3.5 -30.5t-12 -24.5t-15.5 -19t-23 -15.5t-25.5 -12t-30 -9.5t-30 -7.5t-33.5 -7.5q-37 -8 -57.5 -13t-50.5 -17.5t-46 -27.5t-28 -40.5t-12 -58.5q0 -39 32.5 -67.5t109.5 -28.5z" />
    <glyph glyph-name="afii10069" unicode="&#x434;" horiz-adv-x="513" 
d="M293 474q-114 0 -178.5 -88.5t-64.5 -228.5q0 -71 39 -113t119 -42q76 0 132 48t81 118t25 150q0 67 -41 111.5t-112 44.5zM447 261l3 3q20 93 20 201q0 242 -207 242q-35 0 -68 -10l-2 5q32 10 71 10q106 0 158.5 -63t52.5 -174q0 -33 -1.5 -65.5t-8 -82t-17.5 -92.5
t-31.5 -88.5t-47.5 -77.5t-69 -52.5t-93 -20.5q-83 0 -123 44t-40 120q0 86 26 157t84.5 117t140.5 46q75 0 123 -56.5t29 -162.5z" />
    <glyph glyph-name="afii10070" unicode="&#x435;" horiz-adv-x="463" 
d="M51 217q-3 -25 -3 -52q0 -163 151 -163q46 0 87 13.5t72 48t32 83.5h6q0 -7 -2 -21q-9 -61 -65 -95.5t-130 -34.5q-157 0 -157 169q0 59 15.5 114t45 100.5t78.5 72.5t110 27q73 0 106.5 -32t33.5 -77q0 -21 -6.5 -40.5t-26 -41.5t-51 -38t-86.5 -26.5t-127 -10.5
q-39 0 -83 4zM291 473q-103 0 -163.5 -71.5t-75.5 -178.5q44 -4 82 -4q70 0 124 10t84.5 25t50 36t26 40t6.5 40q0 43 -31.5 73t-102.5 30z" />
    <glyph glyph-name="afii10072" unicode="&#x436;" horiz-adv-x="629" 
d="M58 478h6l125 -223h126l40 223h6l-40 -223h126l205 223h7l-207 -226l127 -252h-7l-125 249h-127l-43 -249h-6l43 249h-126l-210 -249h-8l214 252z" />
    <glyph glyph-name="afii10073" unicode="&#x437;" horiz-adv-x="443" 
d="M70 338h-6q6 69 62 107.5t124 38.5q78 0 116.5 -31.5t38.5 -81.5q0 -38 -28 -73t-83 -41q38 -7 61 -36.5t23 -67.5q0 -66 -54 -112.5t-147 -46.5q-74 0 -115.5 35.5t-41.5 91.5q0 18 2 27l6 -1q-2 -9 -2 -26q0 -53 40 -87t111 -34q90 0 142.5 45t52.5 108q0 40 -28 71.5
t-84 31.5h-89v6h107q60 0 90.5 35t30.5 74q0 47 -37 77t-112 30q-67 0 -120.5 -37t-59.5 -103z" />
    <glyph glyph-name="afii10074" unicode="&#x438;" horiz-adv-x="472" 
d="M451 478h6l-83 -477h-6l27 153q-22 -59 -62.5 -96.5t-75 -49.5t-66.5 -12q-53 0 -86 16t-45 43.5t-14 64t7 78.5l49 280h6l-49 -280q-9 -40 -7 -75.5t13 -62.5t43 -42.5t84 -15.5q25 0 53 9t61.5 30.5t61 68t38.5 111.5z" />
    <glyph glyph-name="afii10075" unicode="&#x439;" horiz-adv-x="472" 
d="M451 478h6l-83 -477h-6l27 153q-22 -59 -62.5 -96.5t-75 -49.5t-66.5 -12q-53 0 -86 16t-45 43.5t-14 64t7 78.5l49 280h6l-49 -280q-9 -40 -7 -75.5t13 -62.5t43 -42.5t84 -15.5q25 0 53 9t61.5 30.5t61 68t38.5 111.5zM415 666h5q-11 -39 -44.5 -74.5t-83.5 -35.5
q-52 0 -73 35.5t-15 74.5h5q-5 -37 14.5 -71t68.5 -34q48 0 80 33.5t43 71.5z" />
    <glyph glyph-name="afii10076" unicode="&#x43a;" horiz-adv-x="400" 
d="M426 478h6l-206 -230l126 -248h-6l-124 246h-155l-43 -246h-6l84 478h6l-40 -227h154z" />
    <glyph glyph-name="afii10077" unicode="&#x43b;" horiz-adv-x="472" 
d="M166 478h292l-84 -478h-6l83 472h-280l-42 -188q-35 -158 -69 -221t-89 -67h-7l1 6q55 1 89 62.5t69 219.5z" />
    <glyph glyph-name="afii10078" unicode="&#x43c;" horiz-adv-x="567" 
d="M263 73h-4l-128 393l-109 -466h-6l112 478h5l129 -397l279 397h6l-69 -478h-6l68 468z" />
    <glyph glyph-name="afii10079" unicode="&#x43d;" horiz-adv-x="478" 
d="M102 478h6l-39 -222h350l39 222h6l-84 -478h-6l44 250h-350l-44 -250h-6z" />
    <glyph glyph-name="afii10080" unicode="&#x43e;" horiz-adv-x="485" 
d="M287 477q-113 0 -176 -93t-63 -231q0 -76 38 -113.5t119 -37.5q97 0 165 80.5t68 231.5q0 163 -151 163zM288 483q80 0 118 -45t38 -123q0 -154 -70 -236.5t-170 -82.5q-162 0 -162 156q0 92 27 165.5t84 119.5t135 46z" />
    <glyph glyph-name="afii10081" unicode="&#x43f;" horiz-adv-x="477" 
d="M25 0h-5l82 478h6l-27 -153q21 59 62 96.5t75.5 49.5t66.5 12q52 0 86 -16t47 -43.5t15.5 -64t-6.5 -78.5l-48 -281h-6l48 281q8 55 4.5 98.5t-39 70.5t-102.5 27q-25 0 -53 -9t-61.5 -30.5t-61 -68t-38.5 -111.5z" />
    <glyph glyph-name="afii10082" unicode="&#x440;" horiz-adv-x="494" 
d="M-10 -205h-6l118 684h6l-30 -167q26 83 84.5 127t133.5 44q78 0 120 -42.5t42 -115.5q0 -144 -60 -236.5t-178 -92.5q-80 0 -125 52t-38 139zM221 2q114 0 172.5 91t58.5 231q0 70 -39.5 111.5t-117.5 41.5q-101 0 -167 -80t-66 -232q0 -74 42 -118.5t117 -44.5z" />
    <glyph glyph-name="afii10083" unicode="&#x441;" horiz-adv-x="439" 
d="M427 358h-6q1 5 1 14q0 50 -38 78t-100 28q-116 0 -176 -91t-60 -228q0 -159 159 -159q65 0 118 32.5t66 92.5q3 12 3 21h6q0 -11 -3 -23q-13 -61 -68.5 -95t-121.5 -34q-165 0 -165 165q0 140 61.5 232.5t180.5 92.5q65 0 104.5 -29.5t39.5 -82.5q0 -9 -1 -14z" />
    <glyph glyph-name="afii10084" unicode="&#x442;" horiz-adv-x="811" 
d="M369 0h-5l48 283q6 34 7 60.5t-5.5 52.5t-21.5 43t-43.5 27.5t-69.5 10.5q-20 0 -41 -4.5t-48 -19.5t-49.5 -38t-42 -63.5t-28.5 -93.5l-45 -258h-5l82 478h6l-27 -153q21 60 60.5 97.5t73 49t65.5 11.5q166 0 141 -171q15 48 41.5 84t56 53.5t55.5 25.5t49 8
q100 0 127.5 -53.5t10.5 -148.5l-48 -281h-5l48 281q9 40 7 75.5t-13.5 62.5t-43.5 42.5t-83 15.5q-24 0 -51.5 -9t-60.5 -30.5t-59.5 -68t-37.5 -111.5z" />
    <glyph glyph-name="afii10085" unicode="&#x443;" horiz-adv-x="396" 
d="M87 -205h-7l101 200h-22l-127 483h6l126 -477h20l134 264q33 65 46.5 108.5t20.5 103.5h6q-7 -60 -21.5 -106t-46.5 -108z" />
    <glyph glyph-name="afii10086" unicode="&#x444;" horiz-adv-x="569" 
d="M369 717h6l-42 -236q103 -1 149 -50.5t46 -129.5q0 -41 -9 -82t-30.5 -81t-52.5 -71t-80 -50.5t-108 -20.5l-36 -201h-6l36 201q-199 1 -199 172q0 51 14.5 102t45 100t88.5 80t136 31zM326 476q-61 0 -110.5 -20.5t-80 -52t-51 -73t-28.5 -81.5t-8 -80q0 -168 195 -168z
M332 476l-83 -475q71 1 125.5 29t85.5 73t46.5 95t15.5 101q0 174 -190 177z" />
    <glyph glyph-name="afii10087" unicode="&#x445;" horiz-adv-x="383" 
d="M329 0h-7l-133 240l-214 -240h-8l219 245l-127 233h7l124 -228l204 228h7l-208 -233z" />
    <glyph glyph-name="afii10088" unicode="&#x446;" horiz-adv-x="472" 
d="M192 2q177 0 215 224l44 252h6l-59 -335q-4 -22 -5 -36t-0.5 -37.5t10.5 -42.5t29 -33l-28 -136h-6l27 134q-28 20 -36.5 62t3.5 86q-56 -144 -201 -144q-53 0 -86 16t-45 43.5t-14 64t7 78.5l49 280h6l-49 -280q-9 -40 -7 -75.5t13 -62.5t43 -42.5t84 -15.5z" />
    <glyph glyph-name="afii10089" unicode="&#x447;" horiz-adv-x="431" 
d="M411 478h5l-84 -478h-5l38 216q-96 -30 -169 -30q-164 0 -138 149l25 143h6l-25 -143q-26 -143 133 -143q72 0 169 30z" />
    <glyph glyph-name="afii10090" unicode="&#x448;" horiz-adv-x="813" 
d="M444 479h5l-48 -283q-6 -34 -7 -60.5t5.5 -52.5t21.5 -43t43.5 -27.5t69.5 -10.5q20 0 41 4.5t48 19.5t49.5 38t42 63.5t28.5 93.5l45 258h5l-82 -478h-6l27 153q-21 -60 -60.5 -97.5t-73 -49t-65.5 -11.5q-166 0 -141 171q-15 -48 -41.5 -84t-56 -53.5t-55.5 -25.5
t-49 -8q-69 0 -104.5 27.5t-38.5 72.5t5 102l48 281h5l-48 -281q-9 -40 -7 -75.5t13.5 -62.5t43.5 -42.5t83 -15.5q24 0 51.5 9t60.5 30.5t59.5 68t37.5 111.5z" />
    <glyph glyph-name="afii10091" unicode="&#x449;" horiz-adv-x="813" 
d="M533 -4q-166 0 -141 171q-15 -48 -41.5 -84t-56 -53.5t-55.5 -25.5t-49 -8q-69 0 -104.5 27.5t-38.5 72.5t5 102l48 281h5l-48 -281q-9 -40 -7 -75.5t13.5 -62.5t43.5 -42.5t83 -15.5q24 0 51.5 9t60.5 30.5t59.5 68t37.5 111.5l45 258h5l-48 -283q-6 -34 -7 -60.5
t5.5 -52.5t21.5 -43t43.5 -27.5t69.5 -10.5q171 0 209 224l44 252h6l-59 -335q-4 -22 -5 -36t-0.5 -37.5t10.5 -42.5t29 -33l-28 -136h-6l27 134q-28 20 -36.5 62t3.5 86q-56 -144 -195 -144z" />
    <glyph glyph-name="afii10092" unicode="&#x44a;" horiz-adv-x="564" 
d="M209 478l-33 -190h203q64 0 102 -31.5t38 -85.5q0 -77 -58 -126t-148 -49q-164 0 -164 145q0 22 6 62l47 269h-201l1 6h207zM379 282h-204l-14 -81q-6 -33 -6 -60q0 -139 158 -139q87 0 143.5 47.5t56.5 121.5q0 51 -36.5 81t-97.5 30z" />
    <glyph glyph-name="afii10093" unicode="&#x44b;" horiz-adv-x="569" 
d="M543 478h6l-84 -478h-6zM100 478l-33 -190h203q64 0 102 -31.5t38 -85.5q0 -77 -58 -126t-148 -49q-164 0 -164 145q0 22 6 62l48 275h6zM270 282h-204l-14 -81q-6 -33 -6 -60q0 -139 158 -139q87 0 143.5 47.5t56.5 121.5q0 51 -36.5 81t-97.5 30z" />
    <glyph glyph-name="afii10094" unicode="&#x44c;" horiz-adv-x="450" 
d="M100 478l-33 -190h203q64 0 102 -31.5t38 -85.5q0 -77 -58 -126t-148 -49q-164 0 -164 145q0 22 6 62l48 275h6zM270 282h-204l-14 -81q-6 -33 -6 -60q0 -139 158 -139q87 0 143.5 47.5t56.5 121.5q0 51 -36.5 81t-97.5 30z" />
    <glyph glyph-name="afii10095" unicode="&#x44d;" horiz-adv-x="459" 
d="M169 248v6h241q3 25 3 51q0 76 -40.5 124.5t-116.5 48.5q-68 0 -119 -35t-65 -103l-6 1q14 70 67 106.5t123 36.5q79 0 121 -50t42 -129q0 -142 -64 -225.5t-182 -83.5q-67 0 -108 30t-41 86q0 25 5 38l6 -2q-5 -13 -5 -36q0 -53 39.5 -81.5t103.5 -28.5q101 0 162.5 66
t74.5 180h-241z" />
    <glyph glyph-name="afii10096" unicode="&#x44e;" horiz-adv-x="627" 
d="M102 478h6l-40 -226h123q20 101 81 165.5t158 64.5q156 0 156 -168q0 -53 -12.5 -105.5t-39 -102t-75.5 -80t-114 -30.5q-87 0 -125.5 38.5t-38.5 114.5q0 51 9 97h-123l-43 -246h-6zM429 477q-116 0 -179 -95t-63 -230q0 -75 36 -112.5t123 -37.5q63 0 111 30t73.5 78.5
t37.5 100t12 103.5q0 72 -35 117.5t-116 45.5z" />
    <glyph glyph-name="afii10097" unicode="&#x44f;" horiz-adv-x="443" 
d="M374 203h-148l-203 -203h-8l204 203h-11q-158 0 -158 120q0 71 50.5 113t133.5 42h194l-84 -478h-6zM422 472h-189q-80 0 -128.5 -41t-48.5 -108q0 -51 35 -82.5t111 -31.5h173z" />
    <glyph glyph-name="afii10071" unicode="&#x451;" horiz-adv-x="463" 
d="M51 217q-3 -25 -3 -52q0 -163 151 -163q46 0 87 13.5t72 48t32 83.5h6q0 -7 -2 -21q-9 -61 -65 -95.5t-130 -34.5q-157 0 -157 169q0 59 15.5 114t45 100.5t78.5 72.5t110 27q73 0 106.5 -32t33.5 -77q0 -21 -6.5 -40.5t-26 -41.5t-51 -38t-86.5 -26.5t-127 -10.5
q-39 0 -83 4zM291 473q-103 0 -163.5 -71.5t-75.5 -178.5q44 -4 82 -4q70 0 124 10t84.5 25t50 36t26 40t6.5 40q0 43 -31.5 73t-102.5 30zM244 604q6 0 6 -7q0 -11 -9 -11t-9 7q0 11 12 11zM388 604q5 0 5 -6q0 -12 -8 -12q-9 0 -9 7q0 11 12 11z" />
    <glyph glyph-name="afii10099" unicode="&#x452;" horiz-adv-x="479" 
d="M285 483q57 0 93 -27.5t48.5 -65t12.5 -85.5q0 -161 -68.5 -253.5t-179.5 -97.5l1 6q109 6 175 96.5t66 247.5q0 74 -34 123.5t-115 49.5q-24 0 -52 -9t-61.5 -30.5t-61 -68t-38.5 -111.5l-45 -258h-6l106 602h-51l1 5h51l19 111h6l-19 -111h254l-1 -5h-254l-49 -277
q21 59 61.5 96.5t75 49.5t65.5 12z" />
    <glyph glyph-name="afii10100" unicode="&#x453;" horiz-adv-x="409" 
d="M172 2q-77 0 -109.5 28.5t-32.5 67.5q0 33 12 58.5t28 40.5t46 27.5t50.5 17.5t57.5 13q24 5 33.5 7.5t30 7.5t30 9.5t25.5 12t23 15.5t15.5 19t12 24.5t3.5 30.5q0 43 -31.5 73t-100.5 30q-141 0 -177 -102q-3 -9 -5 -20h5q10 49 53 82.5t124 33.5q65 0 96 -28t31 -68
q0 -53 -37.5 -77t-110.5 -40q-6 -1 -19 -4q-39 -8 -59 -13t-52 -18t-48 -28.5t-28.5 -42.5t-12.5 -62q0 -42 35 -71.5t113 -29.5q82 0 135.5 34.5t53.5 101.5v8h-5q3 -71 -50.5 -104.5t-134.5 -33.5zM271 569l-4 4l124 123l5 -6z" />
    <glyph glyph-name="afii10101" unicode="&#x454;" horiz-adv-x="439" 
d="M427 358h-6q1 5 1 14q0 50 -38 78t-100 28q-96 0 -153.5 -63t-75.5 -166h246l-1 -6h-246q-6 -41 -6 -84q0 -159 159 -159q65 0 118 32.5t66 92.5q3 12 3 21h6q0 -11 -3 -23q-13 -61 -68.5 -95t-121.5 -34q-165 0 -165 165q0 140 61.5 232.5t180.5 92.5q65 0 104.5 -29.5
t39.5 -82.5q0 -9 -1 -14z" />
    <glyph glyph-name="afii10102" unicode="&#x455;" horiz-adv-x="433" 
d="M28 144h5q-12 -70 26.5 -105.5t110.5 -35.5q58 0 100 15t62 39t29 46.5t9 45.5t-9 39.5t-20 26.5t-33.5 17.5t-37 10.5t-42.5 8t-42.5 8t-37 10.5t-33.5 17t-19.5 26.5t-8.5 39q0 59 46.5 96t118.5 37q64 0 104 -23.5t40 -75.5q0 -14 -3 -29h-6q13 63 -25.5 92.5
t-109.5 29.5q-69 0 -114 -35.5t-45 -91.5q0 -21 9 -37t19.5 -25t33.5 -16.5t36.5 -10t42.5 -7.5q27 -5 42.5 -8t37.5 -11.5t33.5 -18.5t20 -28t8.5 -41t-9.5 -47t-30.5 -49t-64 -40.5t-102 -15.5q-65 0 -105 29t-40 84q0 22 3 34z" />
    <glyph glyph-name="afii10103" unicode="&#x456;" horiz-adv-x="164" 
d="M122 478h6l-82 -478h-6zM153 630q7 0 7 -7q0 -5 -3.5 -8t-7.5 -3q-7 0 -7 7q0 11 11 11z" />
    <glyph glyph-name="afii10104" unicode="&#x457;" horiz-adv-x="167" 
d="M72 597q6 0 6 -7q0 -11 -9 -11t-9 7q0 11 12 11zM216 597q5 0 5 -6q0 -12 -8 -12q-9 0 -9 7q0 11 12 11zM123 478h5l-84 -478h-5z" />
    <glyph glyph-name="afii10105" unicode="&#x458;" horiz-adv-x="177" 
d="M131 478h7l-102 -587q-9 -54 -27 -75t-61 -21h-6l1 6q43 0 60 18.5t26 71.5zM160 630q7 0 7 -7q0 -5 -3.5 -8t-7.5 -3q-7 0 -7 7q0 11 11 11z" />
    <glyph glyph-name="afii10106" unicode="&#x459;" horiz-adv-x="739" 
d="M400 478l-33 -190h192q64 0 102 -31.5t38 -85.5q0 -78 -53.5 -126.5t-142.5 -48.5q-163 0 -163 145q0 22 6 62l47 269h-222l-42 -188q-34 -153 -66.5 -216.5t-83.5 -70.5q-5 -1 -15 -1l1 6q55 1 89 62.5t69 219.5l43 194h234zM559 282h-193l-14 -81q-6 -33 -6 -60
q0 -139 157 -139q86 0 138 47t52 122q0 51 -36.5 81t-97.5 30z" />
    <glyph glyph-name="afii10107" unicode="&#x45a;" horiz-adv-x="735" 
d="M389 478h6l-37 -210h198q65 0 102 -27.5t37 -79.5q0 -77 -53.5 -121t-143.5 -44q-163 0 -163 145q0 22 6 62l10 59h-279l-46 -262h-6l84 478h6l-37 -210h279zM556 262h-199l-10 -61q-6 -33 -6 -60q0 -139 157 -139q87 0 139 42.5t52 116.5q0 50 -35.5 75.5t-97.5 25.5z
" />
    <glyph glyph-name="afii10108" unicode="&#x45b;" horiz-adv-x="472" 
d="M24 0h-6l106 602h-46l1 5h46l19 111h6l-19 -111h243l-1 -5h-243l-49 -277q21 59 61.5 96.5t75 49.5t66.5 12q52 0 85 -16t45.5 -43.5t15 -64t-6.5 -78.5l-49 -281h-6l49 281q16 92 -11 144t-123 52q-25 0 -52.5 -9t-61.5 -30.5t-61 -68t-39 -111.5z" />
    <glyph glyph-name="afii10109" unicode="&#x45c;" horiz-adv-x="400" 
d="M222 556l-4 4l124 123l5 -6zM426 478h6l-206 -230l126 -248h-6l-124 246h-155l-43 -246h-6l84 478h6l-40 -227h154z" />
    <glyph glyph-name="afii10110" unicode="&#x45e;" horiz-adv-x="396" 
d="M87 -205h-7l101 200h-22l-127 483h6l126 -477h20l134 264q33 65 46.5 108.5t20.5 103.5h6q-7 -60 -21.5 -106t-46.5 -108zM347 642h6q-12 -40 -45.5 -75t-84.5 -35q-52 0 -73 36t-14 74h6q-6 -37 13.5 -70.5t68.5 -33.5q48 0 80 33.5t43 70.5z" />
    <glyph glyph-name="afii10193" unicode="&#x45f;" horiz-adv-x="472" 
d="M235 -41l8 1l-28 -159h-6zM451 478h6l-83 -477h-6l27 153q-22 -59 -62.5 -96.5t-75 -49.5t-66.5 -12q-53 0 -86 16t-45 43.5t-14 64t7 78.5l49 280h6l-49 -280q-9 -40 -7 -75.5t13 -62.5t43 -42.5t84 -15.5q25 0 53 9t61.5 30.5t61 68t38.5 111.5z" />
    <glyph glyph-name="afii10050" unicode="&#x490;" horiz-adv-x="481" 
d="M28 0l118 673h390l21 119h6l-22 -125h-390l-117 -667h-6z" />
    <glyph glyph-name="afii10098" unicode="&#x491;" horiz-adv-x="391" 
d="M18 0l84 478h310l20 117h5l-21 -123h-309l-83 -472h-6z" />
    <glyph glyph-name="schwacyrillic" unicode="&#x4d9;" horiz-adv-x="457" 
d="M408 258q3 26 3 52q0 163 -151 163q-46 0 -87 -13.5t-72 -48t-32 -83.5h-6q0 7 2 21q9 61 65 95.5t130 34.5q157 0 157 -169q0 -59 -15.5 -114t-45 -100.5t-78.5 -72.5t-110 -27q-73 0 -106.5 32t-33.5 77q0 21 6.5 40.5t26 41.5t51 38t86.5 26.5t127 10.5q39 0 83 -4z
M168 2q103 0 163.5 71.5t75.5 178.5q-44 4 -82 4q-70 0 -124 -10t-84.5 -25t-50 -36t-26 -40t-6.5 -40q0 -43 31.5 -73t102.5 -30z" />
    <glyph glyph-name="Wgrave" unicode="&#x1e80;" horiz-adv-x="833" 
d="M480 673h6l89 -664l305 664h7l-310 -673h-5l-90 664l-315 -664h-5l-74 673h7l71 -664zM510 738l-5 -4l-101 104l6 6z" />
    <glyph glyph-name="wgrave" unicode="&#x1e81;" horiz-adv-x="642" 
d="M567 264l-147 -264h-4l-85 407l-211 -407h-6l-67 478h6l66 -467l211 405h5l85 -404l142 254q21 39 34.5 75.5t19 61.5t14.5 75h6q-9 -52 -14 -75t-19 -61t-36 -78zM376 563l-4 -4l-102 108l7 6z" />
    <glyph glyph-name="Wacute" unicode="&#x1e82;" horiz-adv-x="833" 
d="M480 673h6l89 -664l305 664h7l-310 -673h-5l-90 664l-315 -664h-5l-74 673h7l71 -664zM491 734l-3 4l135 106l5 -6z" />
    <glyph glyph-name="wacute" unicode="&#x1e83;" horiz-adv-x="642" 
d="M567 264l-147 -264h-4l-85 407l-211 -407h-6l-67 478h6l66 -467l211 405h5l85 -404l142 254q21 39 34.5 75.5t19 61.5t14.5 75h6q-9 -52 -14 -75t-19 -61t-36 -78zM335 556l-4 4l124 123l5 -6z" />
    <glyph glyph-name="Wdieresis" unicode="&#x1e84;" horiz-adv-x="833" 
d="M480 673h6l89 -664l305 664h7l-310 -673h-5l-90 664l-315 -664h-5l-74 673h7l71 -664zM435 790q8 0 8 -8q0 -10 -11 -10q-8 0 -8 7q0 11 11 11zM579 790q7 0 7 -8q0 -10 -10 -10q-8 0 -8 7q0 11 11 11z" />
    <glyph glyph-name="wdieresis" unicode="&#x1e85;" horiz-adv-x="642" 
d="M567 264l-147 -264h-4l-85 407l-211 -407h-6l-67 478h6l66 -467l211 405h5l85 -404l142 254q21 39 34.5 75.5t19 61.5t14.5 75h6q-9 -52 -14 -75t-19 -61t-36 -78zM305 597q6 0 6 -7q0 -11 -9 -11t-9 7q0 11 12 11zM449 597q5 0 5 -6q0 -12 -8 -12q-9 0 -9 7q0 11 12 11z
" />
    <glyph glyph-name="Ygrave" unicode="&#x1ef2;" horiz-adv-x="464" 
d="M527 673h7l-296 -397l-47 -276h-6l47 276l-147 397h7l144 -390zM333 724l-5 -4l-101 104l6 6z" />
    <glyph glyph-name="ygrave" unicode="&#x1ef3;" horiz-adv-x="396" 
d="M87 -205h-7l101 200h-22l-127 483h6l126 -477h20l134 264q33 65 46.5 108.5t20.5 103.5h6q-7 -60 -21.5 -106t-46.5 -108zM267 538l-4 -4l-102 108l7 6z" />
    <glyph glyph-name="uni1F00" unicode="&#x1f00;" horiz-adv-x="494" 
d="M211 2q56 0 101.5 31t72 79.5t41 103t14.5 107.5q0 70 -37.5 112t-115.5 42q-115 0 -176.5 -88t-61.5 -219q0 -79 41 -123.5t121 -44.5zM396 0h-5l32 187q-29 -91 -85 -141t-128 -50q-81 0 -124 47t-43 128q0 135 64.5 223.5t180.5 88.5q74 0 117.5 -43.5t39.5 -124.5
l27 164h6zM297 545l-5 4q59 63 59 105q0 39 -51 56l2 7q56 -20 56 -60q0 -44 -61 -112z" />
    <glyph glyph-name="uni1F01" unicode="&#x1f01;" horiz-adv-x="494" 
d="M211 2q56 0 101.5 31t72 79.5t41 103t14.5 107.5q0 70 -37.5 112t-115.5 42q-115 0 -176.5 -88t-61.5 -219q0 -79 41 -123.5t121 -44.5zM396 0h-5l32 187q-29 -91 -85 -141t-128 -50q-81 0 -124 47t-43 128q0 135 64.5 223.5t180.5 88.5q74 0 117.5 -43.5t39.5 -124.5
l27 164h6zM326 549l-5 -4q-29 49 -29 84q0 62 83 88l1 -7q-76 -23 -76 -80q0 -35 26 -81z" />
    <glyph glyph-name="uni1F02" unicode="&#x1f02;" horiz-adv-x="494" 
d="M211 2q56 0 101.5 31t72 79.5t41 103t14.5 107.5q0 70 -37.5 112t-115.5 42q-115 0 -176.5 -88t-61.5 -219q0 -79 41 -123.5t121 -44.5zM396 0h-5l32 187q-29 -91 -85 -141t-128 -50q-81 0 -124 47t-43 128q0 135 64.5 223.5t180.5 88.5q74 0 117.5 -43.5t39.5 -124.5
l27 164h6zM228 545l-5 4q59 64 59 106q0 38 -51 55l3 7q56 -20 56 -61q0 -42 -62 -111zM373 547l-6 -3l-59 169l8 5z" />
    <glyph glyph-name="uni1F03" unicode="&#x1f03;" horiz-adv-x="494" 
d="M211 2q56 0 101.5 31t72 79.5t41 103t14.5 107.5q0 70 -37.5 112t-115.5 42q-115 0 -176.5 -88t-61.5 -219q0 -79 41 -123.5t121 -44.5zM396 0h-5l32 187q-29 -91 -85 -141t-128 -50q-81 0 -124 47t-43 128q0 135 64.5 223.5t180.5 88.5q74 0 117.5 -43.5t39.5 -124.5
l27 164h6zM257 548l-4 -3q-29 49 -29 84q0 62 83 88l1 -7q-76 -22 -76 -80q0 -39 25 -82zM393 547l-6 -3l-58 169l8 4z" />
    <glyph glyph-name="uni1F04" unicode="&#x1f04;" horiz-adv-x="494" 
d="M211 2q56 0 101.5 31t72 79.5t41 103t14.5 107.5q0 70 -37.5 112t-115.5 42q-115 0 -176.5 -88t-61.5 -219q0 -79 41 -123.5t121 -44.5zM396 0h-5l32 187q-29 -91 -85 -141t-128 -50q-81 0 -124 47t-43 128q0 135 64.5 223.5t180.5 88.5q74 0 117.5 -43.5t39.5 -124.5
l27 164h6zM251 545l-5 4q59 64 59 106q0 38 -51 55l3 7q56 -20 56 -61q0 -42 -62 -111zM313 544l-4 3l110 171l7 -5z" />
    <glyph glyph-name="uni1F05" unicode="&#x1f05;" horiz-adv-x="494" 
d="M211 2q56 0 101.5 31t72 79.5t41 103t14.5 107.5q0 70 -37.5 112t-115.5 42q-115 0 -176.5 -88t-61.5 -219q0 -79 41 -123.5t121 -44.5zM396 0h-5l32 187q-29 -91 -85 -141t-128 -50q-81 0 -124 47t-43 128q0 135 64.5 223.5t180.5 88.5q74 0 117.5 -43.5t39.5 -124.5
l27 164h6zM288 548l-5 -3q-28 49 -28 83q0 66 82 90l1 -6q-75 -23 -75 -83q0 -37 25 -81zM318 544l-4 3l116 171l6 -4z" />
    <glyph glyph-name="uni1F06" unicode="&#x1f06;" horiz-adv-x="494" 
d="M211 2q56 0 101.5 31t72 79.5t41 103t14.5 107.5q0 70 -37.5 112t-115.5 42q-115 0 -176.5 -88t-61.5 -219q0 -79 41 -123.5t121 -44.5zM396 0h-5l32 187q-29 -91 -85 -141t-128 -50q-81 0 -124 47t-43 128q0 135 64.5 223.5t180.5 88.5q74 0 117.5 -43.5t39.5 -124.5
l27 164h6zM284 535l-4 4q58 63 58 106q0 38 -51 55l3 7q56 -20 56 -60q0 -43 -62 -112zM203 738l-6 2q34 51 78 51q16 0 58 -22.5t61 -22.5q38 0 68 44l5 -4q-34 -47 -74 -47q-20 0 -61.5 22.5t-56.5 22.5q-43 0 -72 -46z" />
    <glyph glyph-name="uni1F07" unicode="&#x1f07;" horiz-adv-x="494" 
d="M211 2q56 0 101.5 31t72 79.5t41 103t14.5 107.5q0 70 -37.5 112t-115.5 42q-115 0 -176.5 -88t-61.5 -219q0 -79 41 -123.5t121 -44.5zM396 0h-5l32 187q-29 -91 -85 -141t-128 -50q-81 0 -124 47t-43 128q0 135 64.5 223.5t180.5 88.5q74 0 117.5 -43.5t39.5 -124.5
l27 164h6zM325 539l-6 -4q-28 49 -28 85q0 62 82 87l1 -7q-75 -21 -75 -80q0 -37 26 -81zM219 738l-6 2q34 51 78 51q16 0 58 -22.5t61 -22.5q38 0 68 44l5 -4q-34 -47 -74 -47q-20 0 -61.5 22.5t-56.5 22.5q-43 0 -72 -46z" />
    <glyph glyph-name="uni1F08" unicode="&#x1f08;" horiz-adv-x="547" 
d="M492 0h-6l-40 190h-360l-104 -190h-7l371 673h7zM349 667l-259 -471h355zM78 495l-5 4q59 63 59 105q0 39 -51 56l2 7q56 -20 56 -60q0 -44 -61 -112z" />
    <glyph glyph-name="uni1F09" unicode="&#x1f09;" horiz-adv-x="547" 
d="M492 0h-6l-40 190h-360l-104 -190h-7l371 673h7zM349 667l-259 -471h355zM107 499l-5 -4q-29 49 -29 84q0 62 83 88l1 -7q-76 -23 -76 -80q0 -35 26 -81z" />
    <glyph glyph-name="uni1F0A" unicode="&#x1f0a;" horiz-adv-x="547" 
d="M492 0h-6l-40 190h-360l-104 -190h-7l371 673h7zM349 667l-259 -471h355zM-15 495l-5 4q59 64 59 106q0 38 -51 55l3 7q56 -20 56 -61q0 -42 -62 -111zM130 497l-6 -3l-59 169l8 5z" />
    <glyph glyph-name="uni1F0B" unicode="&#x1f0b;" horiz-adv-x="547" 
d="M492 0h-6l-40 190h-360l-104 -190h-7l371 673h7zM349 667l-259 -471h355zM12 498l-4 -3q-29 49 -29 84q0 62 83 88l1 -7q-76 -22 -76 -80q0 -39 25 -82zM148 497l-6 -3l-58 169l8 4z" />
    <glyph glyph-name="uni1F0C" unicode="&#x1f0c;" horiz-adv-x="547" 
d="M492 0h-6l-40 190h-360l-104 -190h-7l371 673h7zM349 667l-259 -471h355zM1 495l-5 4q59 64 59 106q0 38 -51 55l3 7q56 -20 56 -61q0 -42 -62 -111zM63 494l-4 3l110 171l7 -5z" />
    <glyph glyph-name="uni1F0D" unicode="&#x1f0d;" horiz-adv-x="547" 
d="M492 0h-6l-40 190h-360l-104 -190h-7l371 673h7zM349 667l-259 -471h355zM39 498l-5 -3q-28 49 -28 83q0 66 82 90l1 -6q-75 -23 -75 -83q0 -37 25 -81zM69 494l-4 3l116 171l6 -4z" />
    <glyph glyph-name="uni1F0E" unicode="&#x1f0e;" horiz-adv-x="547" 
d="M492 0h-6l-40 190h-360l-104 -190h-7l371 673h7zM349 667l-259 -471h355zM42 436l-4 4q58 63 58 106q0 38 -51 55l3 7q56 -20 56 -60q0 -43 -62 -112zM-39 639l-6 2q34 51 78 51q16 0 58 -22.5t61 -22.5q38 0 68 44l5 -4q-34 -47 -74 -47q-20 0 -61.5 22.5t-56.5 22.5
q-43 0 -72 -46z" />
    <glyph glyph-name="uni1F0F" unicode="&#x1f0f;" horiz-adv-x="547" 
d="M492 0h-6l-40 190h-360l-104 -190h-7l371 673h7zM349 667l-259 -471h355zM65 426l-6 -4q-28 49 -28 85q0 62 82 87l1 -7q-75 -21 -75 -80q0 -37 26 -81zM-41 625l-6 2q34 51 78 51q16 0 58 -22.5t61 -22.5q38 0 68 44l5 -4q-34 -47 -74 -47q-20 0 -61.5 22.5t-56.5 22.5
q-43 0 -72 -46z" />
    <glyph glyph-name="uni1F10" unicode="&#x1f10;" horiz-adv-x="419" 
d="M265 483q-90 0 -141 -43t-51 -105q0 -60 74 -72q-37 -8 -63.5 -27.5t-38.5 -43.5t-16.5 -43.5t-4.5 -37.5q0 -115 156 -115q47 0 88 14.5t71.5 49t36.5 85.5h-6q-8 -72 -62 -108t-127 -36q-152 0 -152 110q0 62 41.5 105.5t106.5 43.5h89l1 6h-91q-97 0 -97 70
q0 59 48.5 100t136.5 41q63 0 99 -25t36 -69q0 -19 -5 -34h6q5 15 5 35q0 46 -38.5 72.5t-101.5 26.5zM233 545l-5 4q59 63 59 105q0 39 -51 56l2 7q56 -20 56 -60q0 -44 -61 -112z" />
    <glyph glyph-name="uni1F11" unicode="&#x1f11;" horiz-adv-x="419" 
d="M265 483q-90 0 -141 -43t-51 -105q0 -60 74 -72q-37 -8 -63.5 -27.5t-38.5 -43.5t-16.5 -43.5t-4.5 -37.5q0 -115 156 -115q47 0 88 14.5t71.5 49t36.5 85.5h-6q-8 -72 -62 -108t-127 -36q-152 0 -152 110q0 62 41.5 105.5t106.5 43.5h89l1 6h-91q-97 0 -97 70
q0 59 48.5 100t136.5 41q63 0 99 -25t36 -69q0 -19 -5 -34h6q5 15 5 35q0 46 -38.5 72.5t-101.5 26.5zM260 549l-5 -4q-29 49 -29 84q0 62 83 88l1 -7q-76 -23 -76 -80q0 -35 26 -81z" />
    <glyph glyph-name="uni1F12" unicode="&#x1f12;" horiz-adv-x="419" 
d="M265 483q-90 0 -141 -43t-51 -105q0 -60 74 -72q-37 -8 -63.5 -27.5t-38.5 -43.5t-16.5 -43.5t-4.5 -37.5q0 -115 156 -115q47 0 88 14.5t71.5 49t36.5 85.5h-6q-8 -72 -62 -108t-127 -36q-152 0 -152 110q0 62 41.5 105.5t106.5 43.5h89l1 6h-91q-97 0 -97 70
q0 59 48.5 100t136.5 41q63 0 99 -25t36 -69q0 -19 -5 -34h6q5 15 5 35q0 46 -38.5 72.5t-101.5 26.5zM184 545l-5 4q59 64 59 106q0 38 -51 55l3 7q56 -20 56 -61q0 -42 -62 -111zM329 547l-6 -3l-59 169l8 5z" />
    <glyph glyph-name="uni1F13" unicode="&#x1f13;" horiz-adv-x="419" 
d="M265 483q-90 0 -141 -43t-51 -105q0 -60 74 -72q-37 -8 -63.5 -27.5t-38.5 -43.5t-16.5 -43.5t-4.5 -37.5q0 -115 156 -115q47 0 88 14.5t71.5 49t36.5 85.5h-6q-8 -72 -62 -108t-127 -36q-152 0 -152 110q0 62 41.5 105.5t106.5 43.5h89l1 6h-91q-97 0 -97 70
q0 59 48.5 100t136.5 41q63 0 99 -25t36 -69q0 -19 -5 -34h6q5 15 5 35q0 46 -38.5 72.5t-101.5 26.5zM205 548l-4 -3q-29 49 -29 84q0 62 83 88l1 -7q-76 -22 -76 -80q0 -39 25 -82zM341 547l-6 -3l-58 169l8 4z" />
    <glyph glyph-name="uni1F14" unicode="&#x1f14;" horiz-adv-x="419" 
d="M265 483q-90 0 -141 -43t-51 -105q0 -60 74 -72q-37 -8 -63.5 -27.5t-38.5 -43.5t-16.5 -43.5t-4.5 -37.5q0 -115 156 -115q47 0 88 14.5t71.5 49t36.5 85.5h-6q-8 -72 -62 -108t-127 -36q-152 0 -152 110q0 62 41.5 105.5t106.5 43.5h89l1 6h-91q-97 0 -97 70
q0 59 48.5 100t136.5 41q63 0 99 -25t36 -69q0 -19 -5 -34h6q5 15 5 35q0 46 -38.5 72.5t-101.5 26.5zM206 545l-5 4q59 64 59 106q0 38 -51 55l3 7q56 -20 56 -61q0 -42 -62 -111zM268 544l-4 3l110 171l7 -5z" />
    <glyph glyph-name="uni1F15" unicode="&#x1f15;" horiz-adv-x="419" 
d="M265 483q-90 0 -141 -43t-51 -105q0 -60 74 -72q-37 -8 -63.5 -27.5t-38.5 -43.5t-16.5 -43.5t-4.5 -37.5q0 -115 156 -115q47 0 88 14.5t71.5 49t36.5 85.5h-6q-8 -72 -62 -108t-127 -36q-152 0 -152 110q0 62 41.5 105.5t106.5 43.5h89l1 6h-91q-97 0 -97 70
q0 59 48.5 100t136.5 41q63 0 99 -25t36 -69q0 -19 -5 -34h6q5 15 5 35q0 46 -38.5 72.5t-101.5 26.5zM231 548l-5 -3q-28 49 -28 83q0 66 82 90l1 -6q-75 -23 -75 -83q0 -37 25 -81zM261 544l-4 3l116 171l6 -4z" />
    <glyph glyph-name="uni1F18" unicode="&#x1f18;" horiz-adv-x="520" 
d="M464 369l-1 -6h-363l-63 -357h416l-1 -6h-422l118 673h386l-1 -6h-380l-52 -298h363zM-32 495l-5 4q59 63 59 105q0 39 -51 56l2 7q56 -20 56 -60q0 -44 -61 -112z" />
    <glyph glyph-name="uni1F19" unicode="&#x1f19;" horiz-adv-x="520" 
d="M464 369l-1 -6h-363l-63 -357h416l-1 -6h-422l118 673h386l-1 -6h-380l-52 -298h363zM0 499l-5 -4q-29 49 -29 84q0 62 83 88l1 -7q-76 -23 -76 -80q0 -35 26 -81z" />
    <glyph glyph-name="uni1F1A" unicode="&#x1f1a;" horiz-adv-x="520" 
d="M464 369l-1 -6h-363l-63 -357h416l-1 -6h-422l118 673h386l-1 -6h-380l-52 -298h363zM-114 495l-5 4q59 64 59 106q0 38 -51 55l3 7q56 -20 56 -61q0 -42 -62 -111zM31 497l-6 -3l-59 169l8 5z" />
    <glyph glyph-name="uni1F1B" unicode="&#x1f1b;" horiz-adv-x="520" 
d="M464 369l-1 -6h-363l-63 -357h416l-1 -6h-422l118 673h386l-1 -6h-380l-52 -298h363zM-89 498l-4 -3q-29 49 -29 84q0 62 83 88l1 -7q-76 -22 -76 -80q0 -39 25 -82zM47 497l-6 -3l-58 169l8 4z" />
    <glyph glyph-name="uni1F1C" unicode="&#x1f1c;" horiz-adv-x="520" 
d="M464 369l-1 -6h-363l-63 -357h416l-1 -6h-422l118 673h386l-1 -6h-380l-52 -298h363zM-113 495l-5 4q59 64 59 106q0 38 -51 55l3 7q56 -20 56 -61q0 -42 -62 -111zM-51 494l-4 3l110 171l7 -5z" />
    <glyph glyph-name="uni1F1D" unicode="&#x1f1d;" horiz-adv-x="520" 
d="M464 369l-1 -6h-363l-63 -357h416l-1 -6h-422l118 673h386l-1 -6h-380l-52 -298h363zM-78 498l-5 -3q-28 49 -28 83q0 66 82 90l1 -6q-75 -23 -75 -83q0 -37 25 -81zM-48 494l-4 3l116 171l6 -4z" />
    <glyph glyph-name="uni1F20" unicode="&#x1f20;" horiz-adv-x="477" 
d="M25 0h-5l82 478h6l-27 -153q21 59 62 96.5t75.5 49.5t66.5 12q52 0 86 -16t47 -43.5t15.5 -64t-6.5 -78.5l-71 -426h-6l71 426q8 55 4.5 98.5t-39 70.5t-102.5 27q-25 0 -53 -9t-61.5 -30.5t-61 -68t-38.5 -111.5zM261 545l-5 4q59 63 59 105q0 39 -51 56l2 7
q56 -20 56 -60q0 -44 -61 -112z" />
    <glyph glyph-name="uni1F21" unicode="&#x1f21;" horiz-adv-x="477" 
d="M25 0h-5l82 478h6l-27 -153q21 59 62 96.5t75.5 49.5t66.5 12q52 0 86 -16t47 -43.5t15.5 -64t-6.5 -78.5l-71 -426h-6l71 426q8 55 4.5 98.5t-39 70.5t-102.5 27q-25 0 -53 -9t-61.5 -30.5t-61 -68t-38.5 -111.5zM287 549l-5 -4q-29 49 -29 84q0 62 83 88l1 -7
q-76 -23 -76 -80q0 -35 26 -81z" />
    <glyph glyph-name="uni1F22" unicode="&#x1f22;" horiz-adv-x="477" 
d="M25 0h-5l82 478h6l-27 -153q21 59 62 96.5t75.5 49.5t66.5 12q52 0 86 -16t47 -43.5t15.5 -64t-6.5 -78.5l-71 -426h-6l71 426q8 55 4.5 98.5t-39 70.5t-102.5 27q-25 0 -53 -9t-61.5 -30.5t-61 -68t-38.5 -111.5zM204 545l-5 4q59 64 59 106q0 38 -51 55l3 7
q56 -20 56 -61q0 -42 -62 -111zM349 547l-6 -3l-59 169l8 5z" />
    <glyph glyph-name="uni1F23" unicode="&#x1f23;" horiz-adv-x="477" 
d="M25 0h-5l82 478h6l-27 -153q21 59 62 96.5t75.5 49.5t66.5 12q52 0 86 -16t47 -43.5t15.5 -64t-6.5 -78.5l-71 -426h-6l71 426q8 55 4.5 98.5t-39 70.5t-102.5 27q-25 0 -53 -9t-61.5 -30.5t-61 -68t-38.5 -111.5zM231 548l-4 -3q-29 49 -29 84q0 62 83 88l1 -7
q-76 -22 -76 -80q0 -39 25 -82zM367 547l-6 -3l-58 169l8 4z" />
    <glyph glyph-name="uni1F24" unicode="&#x1f24;" horiz-adv-x="477" 
d="M25 0h-5l82 478h6l-27 -153q21 59 62 96.5t75.5 49.5t66.5 12q52 0 86 -16t47 -43.5t15.5 -64t-6.5 -78.5l-71 -426h-6l71 426q8 55 4.5 98.5t-39 70.5t-102.5 27q-25 0 -53 -9t-61.5 -30.5t-61 -68t-38.5 -111.5zM231 545l-5 4q59 64 59 106q0 38 -51 55l3 7
q56 -20 56 -61q0 -42 -62 -111zM293 544l-4 3l110 171l7 -5z" />
    <glyph glyph-name="uni1F25" unicode="&#x1f25;" horiz-adv-x="477" 
d="M25 0h-5l82 478h6l-27 -153q21 59 62 96.5t75.5 49.5t66.5 12q52 0 86 -16t47 -43.5t15.5 -64t-6.5 -78.5l-71 -426h-6l71 426q8 55 4.5 98.5t-39 70.5t-102.5 27q-25 0 -53 -9t-61.5 -30.5t-61 -68t-38.5 -111.5zM268 548l-5 -3q-28 49 -28 83q0 66 82 90l1 -6
q-75 -23 -75 -83q0 -37 25 -81zM298 544l-4 3l116 171l6 -4z" />
    <glyph glyph-name="uni1F26" unicode="&#x1f26;" horiz-adv-x="477" 
d="M25 0h-5l82 478h6l-27 -153q21 59 62 96.5t75.5 49.5t66.5 12q52 0 86 -16t47 -43.5t15.5 -64t-6.5 -78.5l-71 -426h-6l71 426q8 55 4.5 98.5t-39 70.5t-102.5 27q-25 0 -53 -9t-61.5 -30.5t-61 -68t-38.5 -111.5zM271 535l-4 4q58 63 58 106q0 38 -51 55l3 7
q56 -20 56 -60q0 -43 -62 -112zM190 738l-6 2q34 51 78 51q16 0 58 -22.5t61 -22.5q38 0 68 44l5 -4q-34 -47 -74 -47q-20 0 -61.5 22.5t-56.5 22.5q-43 0 -72 -46z" />
    <glyph glyph-name="uni1F27" unicode="&#x1f27;" horiz-adv-x="477" 
d="M25 0h-5l82 478h6l-27 -153q21 59 62 96.5t75.5 49.5t66.5 12q52 0 86 -16t47 -43.5t15.5 -64t-6.5 -78.5l-71 -426h-6l71 426q8 55 4.5 98.5t-39 70.5t-102.5 27q-25 0 -53 -9t-61.5 -30.5t-61 -68t-38.5 -111.5zM297 538l-6 -4q-28 49 -28 85q0 62 82 87l1 -7
q-75 -21 -75 -80q0 -37 26 -81zM191 737l-6 2q34 51 78 51q16 0 58 -22.5t61 -22.5q38 0 68 44l5 -4q-34 -47 -74 -47q-20 0 -61.5 22.5t-56.5 22.5q-43 0 -72 -46z" />
    <glyph glyph-name="uni1F28" unicode="&#x1f28;" horiz-adv-x="612" 
d="M148 673h6l-55 -314h460l55 314h6l-118 -673h-6l62 353h-460l-62 -353h-6zM-34 495l-5 4q59 63 59 105q0 39 -51 56l2 7q56 -20 56 -60q0 -44 -61 -112z" />
    <glyph glyph-name="uni1F29" unicode="&#x1f29;" horiz-adv-x="612" 
d="M148 673h6l-55 -314h460l55 314h6l-118 -673h-6l62 353h-460l-62 -353h-6zM-1 499l-5 -4q-29 49 -29 84q0 62 83 88l1 -7q-76 -23 -76 -80q0 -35 26 -81z" />
    <glyph glyph-name="uni1F2A" unicode="&#x1f2a;" horiz-adv-x="612" 
d="M148 673h6l-55 -314h460l55 314h6l-118 -673h-6l62 353h-460l-62 -353h-6zM-115 495l-5 4q59 64 59 106q0 38 -51 55l3 7q56 -20 56 -61q0 -42 -62 -111zM30 497l-6 -3l-59 169l8 5z" />
    <glyph glyph-name="uni1F2B" unicode="&#x1f2b;" horiz-adv-x="612" 
d="M148 673h6l-55 -314h460l55 314h6l-118 -673h-6l62 353h-460l-62 -353h-6zM-99 498l-4 -3q-29 49 -29 84q0 62 83 88l1 -7q-76 -22 -76 -80q0 -39 25 -82zM37 497l-6 -3l-58 169l8 4z" />
    <glyph glyph-name="uni1F2C" unicode="&#x1f2c;" horiz-adv-x="612" 
d="M148 673h6l-55 -314h460l55 314h6l-118 -673h-6l62 353h-460l-62 -353h-6zM-115 495l-5 4q59 64 59 106q0 38 -51 55l3 7q56 -20 56 -61q0 -42 -62 -111zM-53 494l-4 3l110 171l7 -5z" />
    <glyph glyph-name="uni1F2D" unicode="&#x1f2d;" horiz-adv-x="612" 
d="M148 673h6l-55 -314h460l55 314h6l-118 -673h-6l62 353h-460l-62 -353h-6zM-89 498l-5 -3q-28 49 -28 83q0 66 82 90l1 -6q-75 -23 -75 -83q0 -37 25 -81zM-59 494l-4 3l116 171l6 -4z" />
    <glyph glyph-name="uni1F2E" unicode="&#x1f2e;" horiz-adv-x="612" 
d="M148 673h6l-55 -314h460l55 314h6l-118 -673h-6l62 353h-460l-62 -353h-6zM-81 436l-4 4q58 63 58 106q0 38 -51 55l3 7q56 -20 56 -60q0 -43 -62 -112zM-162 639l-6 2q34 51 78 51q16 0 58 -22.5t61 -22.5q38 0 68 44l5 -4q-34 -47 -74 -47q-20 0 -61.5 22.5t-56.5 22.5
q-43 0 -72 -46z" />
    <glyph glyph-name="uni1F2F" unicode="&#x1f2f;" horiz-adv-x="612" 
d="M148 673h6l-55 -314h460l55 314h6l-118 -673h-6l62 353h-460l-62 -353h-6zM-63 432l-6 -4q-28 49 -28 85q0 62 82 87l1 -7q-75 -21 -75 -80q0 -37 26 -81zM-169 631l-6 2q34 51 78 51q16 0 58 -22.5t61 -22.5q38 0 68 44l5 -4q-34 -47 -74 -47q-20 0 -61.5 22.5
t-56.5 22.5q-43 0 -72 -46z" />
    <glyph glyph-name="uni1F30" unicode="&#x1f30;" horiz-adv-x="165" 
d="M122 478h5l-75 -424q-3 -17 -2.5 -29t13.5 -18t41 -3l-1 -4q-7 -1 -18 -1q-28 0 -35.5 13.5t-2.5 41.5zM124 545l-5 4q59 63 59 105q0 39 -51 56l2 7q56 -20 56 -60q0 -44 -61 -112z" />
    <glyph glyph-name="uni1F31" unicode="&#x1f31;" horiz-adv-x="165" 
d="M122 478h5l-75 -424q-3 -17 -2.5 -29t13.5 -18t41 -3l-1 -4q-7 -1 -18 -1q-28 0 -35.5 13.5t-2.5 41.5zM147 549l-5 -4q-29 49 -29 84q0 62 83 88l1 -7q-76 -23 -76 -80q0 -35 26 -81z" />
    <glyph glyph-name="uni1F32" unicode="&#x1f32;" horiz-adv-x="165" 
d="M122 478h5l-75 -424q-3 -17 -2.5 -29t13.5 -18t41 -3l-1 -4q-7 -1 -18 -1q-28 0 -35.5 13.5t-2.5 41.5zM56 545l-5 4q59 64 59 106q0 38 -51 55l3 7q56 -20 56 -61q0 -42 -62 -111zM201 547l-6 -3l-59 169l8 5z" />
    <glyph glyph-name="uni1F33" unicode="&#x1f33;" horiz-adv-x="165" 
d="M122 478h5l-75 -424q-3 -17 -2.5 -29t13.5 -18t41 -3l-1 -4q-7 -1 -18 -1q-28 0 -35.5 13.5t-2.5 41.5zM81 550l-4 -3q-29 49 -29 84q0 62 83 88l1 -7q-76 -22 -76 -80q0 -39 25 -82zM217 549l-6 -3l-58 169l8 4z" />
    <glyph glyph-name="uni1F34" unicode="&#x1f34;" horiz-adv-x="165" 
d="M122 478h5l-75 -424q-3 -17 -2.5 -29t13.5 -18t41 -3l-1 -4q-7 -1 -18 -1q-28 0 -35.5 13.5t-2.5 41.5zM89 545l-5 4q59 64 59 106q0 38 -51 55l3 7q56 -20 56 -61q0 -42 -62 -111zM151 544l-4 3l110 171l7 -5z" />
    <glyph glyph-name="uni1F35" unicode="&#x1f35;" horiz-adv-x="165" 
d="M122 478h5l-75 -424q-3 -17 -2.5 -29t13.5 -18t41 -3l-1 -4q-7 -1 -18 -1q-28 0 -35.5 13.5t-2.5 41.5zM122 548l-5 -3q-28 49 -28 83q0 66 82 90l1 -6q-75 -23 -75 -83q0 -37 25 -81zM152 544l-4 3l116 171l6 -4z" />
    <glyph glyph-name="uni1F36" unicode="&#x1f36;" horiz-adv-x="165" 
d="M122 478h5l-75 -424q-3 -17 -2.5 -29t13.5 -18t41 -3l-1 -4q-7 -1 -18 -1q-28 0 -35.5 13.5t-2.5 41.5zM109 523l-4 4q58 63 58 106q0 38 -51 55l3 7q56 -20 56 -60q0 -43 -62 -112zM28 726l-6 2q34 51 78 51q16 0 58 -22.5t61 -22.5q38 0 68 44l5 -4q-34 -47 -74 -47
q-20 0 -61.5 22.5t-56.5 22.5q-43 0 -72 -46z" />
    <glyph glyph-name="uni1F37" unicode="&#x1f37;" horiz-adv-x="165" 
d="M122 478h5l-75 -424q-3 -17 -2.5 -29t13.5 -18t41 -3l-1 -4q-7 -1 -18 -1q-28 0 -35.5 13.5t-2.5 41.5zM143 539l-6 -4q-28 49 -28 85q0 62 82 87l1 -7q-75 -21 -75 -80q0 -37 26 -81zM37 738l-6 2q34 51 78 51q16 0 58 -22.5t61 -22.5q38 0 68 44l5 -4q-34 -47 -74 -47
q-20 0 -61.5 22.5t-56.5 22.5q-43 0 -72 -46z" />
    <glyph glyph-name="uni1F38" unicode="&#x1f38;" horiz-adv-x="186" 
d="M168 673h6l-118 -673h-6zM-24 495l-5 4q59 63 59 105q0 39 -51 56l2 7q56 -20 56 -60q0 -44 -61 -112z" />
    <glyph glyph-name="uni1F39" unicode="&#x1f39;" horiz-adv-x="186" 
d="M168 673h6l-118 -673h-6zM20 499l-5 -4q-29 49 -29 84q0 62 83 88l1 -7q-76 -23 -76 -80q0 -35 26 -81z" />
    <glyph glyph-name="uni1F3A" unicode="&#x1f3a;" horiz-adv-x="186" 
d="M168 673h6l-118 -673h-6zM-91 495l-5 4q59 64 59 106q0 38 -51 55l3 7q56 -20 56 -61q0 -42 -62 -111zM54 497l-6 -3l-59 169l8 5z" />
    <glyph glyph-name="uni1F3B" unicode="&#x1f3b;" horiz-adv-x="186" 
d="M168 673h6l-118 -673h-6zM-75 498l-4 -3q-29 49 -29 84q0 62 83 88l1 -7q-76 -22 -76 -80q0 -39 25 -82zM61 497l-6 -3l-58 169l8 4z" />
    <glyph glyph-name="uni1F3C" unicode="&#x1f3c;" horiz-adv-x="186" 
d="M168 673h6l-118 -673h-6zM-90 495l-5 4q59 64 59 106q0 38 -51 55l3 7q56 -20 56 -61q0 -42 -62 -111zM-28 494l-4 3l110 171l7 -5z" />
    <glyph glyph-name="uni1F3D" unicode="&#x1f3d;" horiz-adv-x="186" 
d="M168 673h6l-118 -673h-6zM-58 498l-5 -3q-28 49 -28 83q0 66 82 90l1 -6q-75 -23 -75 -83q0 -37 25 -81zM-28 494l-4 3l116 171l6 -4z" />
    <glyph glyph-name="uni1F3E" unicode="&#x1f3e;" horiz-adv-x="186" 
d="M168 673h6l-118 -673h-6zM-66 436l-4 4q58 63 58 106q0 38 -51 55l3 7q56 -20 56 -60q0 -43 -62 -112zM-147 639l-6 2q34 51 78 51q16 0 58 -22.5t61 -22.5q38 0 68 44l5 -4q-34 -47 -74 -47q-20 0 -61.5 22.5t-56.5 22.5q-43 0 -72 -46z" />
    <glyph glyph-name="uni1F3F" unicode="&#x1f3f;" horiz-adv-x="186" 
d="M168 673h6l-118 -673h-6zM-38 431l-6 -4q-28 49 -28 85q0 62 82 87l1 -7q-75 -21 -75 -80q0 -37 26 -81zM-144 630l-6 2q34 51 78 51q16 0 58 -22.5t61 -22.5q38 0 68 44l5 -4q-34 -47 -74 -47q-20 0 -61.5 22.5t-56.5 22.5q-43 0 -72 -46z" />
    <glyph glyph-name="uni1F40" unicode="&#x1f40;" horiz-adv-x="485" 
d="M287 477q-113 0 -176 -93t-63 -231q0 -76 38 -113.5t119 -37.5q97 0 165 80.5t68 231.5q0 163 -151 163zM288 483q80 0 118 -45t38 -123q0 -154 -70 -236.5t-170 -82.5q-162 0 -162 156q0 92 27 165.5t84 119.5t135 46zM289 545l-5 4q59 63 59 105q0 39 -51 56l2 7
q56 -20 56 -60q0 -44 -61 -112z" />
    <glyph glyph-name="uni1F41" unicode="&#x1f41;" horiz-adv-x="485" 
d="M287 477q-113 0 -176 -93t-63 -231q0 -76 38 -113.5t119 -37.5q97 0 165 80.5t68 231.5q0 163 -151 163zM288 483q80 0 118 -45t38 -123q0 -154 -70 -236.5t-170 -82.5q-162 0 -162 156q0 92 27 165.5t84 119.5t135 46zM319 549l-5 -4q-29 49 -29 84q0 62 83 88l1 -7
q-76 -23 -76 -80q0 -35 26 -81z" />
    <glyph glyph-name="uni1F42" unicode="&#x1f42;" horiz-adv-x="485" 
d="M287 477q-113 0 -176 -93t-63 -231q0 -76 38 -113.5t119 -37.5q97 0 165 80.5t68 231.5q0 163 -151 163zM288 483q80 0 118 -45t38 -123q0 -154 -70 -236.5t-170 -82.5q-162 0 -162 156q0 92 27 165.5t84 119.5t135 46zM216 545l-5 4q59 64 59 106q0 38 -51 55l3 7
q56 -20 56 -61q0 -42 -62 -111zM361 547l-6 -3l-59 169l8 5z" />
    <glyph glyph-name="uni1F43" unicode="&#x1f43;" horiz-adv-x="485" 
d="M287 477q-113 0 -176 -93t-63 -231q0 -76 38 -113.5t119 -37.5q97 0 165 80.5t68 231.5q0 163 -151 163zM288 483q80 0 118 -45t38 -123q0 -154 -70 -236.5t-170 -82.5q-162 0 -162 156q0 92 27 165.5t84 119.5t135 46zM247 548l-4 -3q-29 49 -29 84q0 62 83 88l1 -7
q-76 -22 -76 -80q0 -39 25 -82zM383 547l-6 -3l-58 169l8 4z" />
    <glyph glyph-name="uni1F44" unicode="&#x1f44;" horiz-adv-x="485" 
d="M287 477q-113 0 -176 -93t-63 -231q0 -76 38 -113.5t119 -37.5q97 0 165 80.5t68 231.5q0 163 -151 163zM288 483q80 0 118 -45t38 -123q0 -154 -70 -236.5t-170 -82.5q-162 0 -162 156q0 92 27 165.5t84 119.5t135 46zM244 545l-5 4q59 64 59 106q0 38 -51 55l3 7
q56 -20 56 -61q0 -42 -62 -111zM306 544l-4 3l110 171l7 -5z" />
    <glyph glyph-name="uni1F45" unicode="&#x1f45;" horiz-adv-x="485" 
d="M287 477q-113 0 -176 -93t-63 -231q0 -76 38 -113.5t119 -37.5q97 0 165 80.5t68 231.5q0 163 -151 163zM288 483q80 0 118 -45t38 -123q0 -154 -70 -236.5t-170 -82.5q-162 0 -162 156q0 92 27 165.5t84 119.5t135 46zM271 548l-5 -3q-28 49 -28 83q0 66 82 90l1 -6
q-75 -23 -75 -83q0 -37 25 -81zM301 544l-4 3l116 171l6 -4z" />
    <glyph glyph-name="uni1F48" unicode="&#x1f48;" horiz-adv-x="655" 
d="M406 674q-106 0 -183.5 -64.5t-113.5 -165.5t-36 -224q0 -218 212 -218q68 0 124.5 27t93.5 71.5t63 103t37.5 119.5t11.5 123q0 228 -209 228zM407 679q214 0 214 -232q0 -61 -11.5 -122t-37.5 -121t-64 -105.5t-96 -74t-128 -28.5q-217 0 -217 222q0 125 36.5 227
t115 168t188.5 66zM3 495l-5 4q59 63 59 105q0 39 -51 56l2 7q56 -20 56 -60q0 -44 -61 -112z" />
    <glyph glyph-name="uni1F49" unicode="&#x1f49;" horiz-adv-x="655" 
d="M406 674q-106 0 -183.5 -64.5t-113.5 -165.5t-36 -224q0 -218 212 -218q68 0 124.5 27t93.5 71.5t63 103t37.5 119.5t11.5 123q0 228 -209 228zM407 679q214 0 214 -232q0 -61 -11.5 -122t-37.5 -121t-64 -105.5t-96 -74t-128 -28.5q-217 0 -217 222q0 125 36.5 227
t115 168t188.5 66zM35 511l-5 -4q-29 49 -29 84q0 62 83 88l1 -7q-76 -23 -76 -80q0 -35 26 -81z" />
    <glyph glyph-name="uni1F4A" unicode="&#x1f4a;" horiz-adv-x="655" 
d="M406 674q-106 0 -183.5 -64.5t-113.5 -165.5t-36 -224q0 -218 212 -218q68 0 124.5 27t93.5 71.5t63 103t37.5 119.5t11.5 123q0 228 -209 228zM407 679q214 0 214 -232q0 -61 -11.5 -122t-37.5 -121t-64 -105.5t-96 -74t-128 -28.5q-217 0 -217 222q0 125 36.5 227
t115 168t188.5 66zM-94 495l-5 4q59 64 59 106q0 38 -51 55l3 7q56 -20 56 -61q0 -42 -62 -111zM51 497l-6 -3l-59 169l8 5z" />
    <glyph glyph-name="uni1F4B" unicode="&#x1f4b;" horiz-adv-x="655" 
d="M406 674q-106 0 -183.5 -64.5t-113.5 -165.5t-36 -224q0 -218 212 -218q68 0 124.5 27t93.5 71.5t63 103t37.5 119.5t11.5 123q0 228 -209 228zM407 679q214 0 214 -232q0 -61 -11.5 -122t-37.5 -121t-64 -105.5t-96 -74t-128 -28.5q-217 0 -217 222q0 125 36.5 227
t115 168t188.5 66zM-89 498l-4 -3q-29 49 -29 84q0 62 83 88l1 -7q-76 -22 -76 -80q0 -39 25 -82zM47 497l-6 -3l-58 169l8 4z" />
    <glyph glyph-name="uni1F4C" unicode="&#x1f4c;" horiz-adv-x="655" 
d="M406 674q-106 0 -183.5 -64.5t-113.5 -165.5t-36 -224q0 -218 212 -218q68 0 124.5 27t93.5 71.5t63 103t37.5 119.5t11.5 123q0 228 -209 228zM407 679q214 0 214 -232q0 -61 -11.5 -122t-37.5 -121t-64 -105.5t-96 -74t-128 -28.5q-217 0 -217 222q0 125 36.5 227
t115 168t188.5 66zM-82 495l-5 4q59 64 59 106q0 38 -51 55l3 7q56 -20 56 -61q0 -42 -62 -111zM-20 494l-4 3l110 171l7 -5z" />
    <glyph glyph-name="uni1F4D" unicode="&#x1f4d;" horiz-adv-x="655" 
d="M406 674q-106 0 -183.5 -64.5t-113.5 -165.5t-36 -224q0 -218 212 -218q68 0 124.5 27t93.5 71.5t63 103t37.5 119.5t11.5 123q0 228 -209 228zM407 679q214 0 214 -232q0 -61 -11.5 -122t-37.5 -121t-64 -105.5t-96 -74t-128 -28.5q-217 0 -217 222q0 125 36.5 227
t115 168t188.5 66zM-62 498l-5 -3q-28 49 -28 83q0 66 82 90l1 -6q-75 -23 -75 -83q0 -37 25 -81zM-32 494l-4 3l116 171l6 -4z" />
    <glyph glyph-name="uni1F50" unicode="&#x1f50;" horiz-adv-x="490" 
d="M102 478h6l-51 -286q-17 -91 22 -140.5t127 -49.5q178 0 212 188l52 288h6l-52 -288q-35 -194 -219 -194q-90 0 -130 51t-24 145zM282 545l-5 4q59 63 59 105q0 39 -51 56l2 7q56 -20 56 -60q0 -44 -61 -112z" />
    <glyph glyph-name="uni1F51" unicode="&#x1f51;" horiz-adv-x="490" 
d="M102 478h6l-51 -286q-17 -91 22 -140.5t127 -49.5q178 0 212 188l52 288h6l-52 -288q-35 -194 -219 -194q-90 0 -130 51t-24 145zM309 548l-5 -4q-29 49 -29 84q0 62 83 88l1 -7q-76 -23 -76 -80q0 -35 26 -81z" />
    <glyph glyph-name="uni1F52" unicode="&#x1f52;" horiz-adv-x="490" 
d="M102 478h6l-51 -286q-17 -91 22 -140.5t127 -49.5q178 0 212 188l52 288h6l-52 -288q-35 -194 -219 -194q-90 0 -130 51t-24 145zM227 545l-5 4q59 64 59 106q0 38 -51 55l3 7q56 -20 56 -61q0 -42 -62 -111zM372 547l-6 -3l-59 169l8 5z" />
    <glyph glyph-name="uni1F53" unicode="&#x1f53;" horiz-adv-x="490" 
d="M102 478h6l-51 -286q-17 -91 22 -140.5t127 -49.5q178 0 212 188l52 288h6l-52 -288q-35 -194 -219 -194q-90 0 -130 51t-24 145zM246 548l-4 -3q-29 49 -29 84q0 62 83 88l1 -7q-76 -22 -76 -80q0 -39 25 -82zM382 547l-6 -3l-58 169l8 4z" />
    <glyph glyph-name="uni1F54" unicode="&#x1f54;" horiz-adv-x="490" 
d="M102 478h6l-51 -286q-17 -91 22 -140.5t127 -49.5q178 0 212 188l52 288h6l-52 -288q-35 -194 -219 -194q-90 0 -130 51t-24 145zM242 545l-5 4q59 64 59 106q0 38 -51 55l3 7q56 -20 56 -61q0 -42 -62 -111zM304 544l-4 3l110 171l7 -5z" />
    <glyph glyph-name="uni1F55" unicode="&#x1f55;" horiz-adv-x="490" 
d="M102 478h6l-51 -286q-17 -91 22 -140.5t127 -49.5q178 0 212 188l52 288h6l-52 -288q-35 -194 -219 -194q-90 0 -130 51t-24 145zM280 548l-5 -3q-28 49 -28 83q0 66 82 90l1 -6q-75 -23 -75 -83q0 -37 25 -81zM310 544l-4 3l116 171l6 -4z" />
    <glyph glyph-name="uni1F56" unicode="&#x1f56;" horiz-adv-x="490" 
d="M102 478h6l-51 -286q-17 -91 22 -140.5t127 -49.5q178 0 212 188l52 288h6l-52 -288q-35 -194 -219 -194q-90 0 -130 51t-24 145zM286 512l-4 4q58 63 58 106q0 38 -51 55l3 7q56 -20 56 -60q0 -43 -62 -112zM205 715l-6 2q34 51 78 51q16 0 58 -22.5t61 -22.5
q38 0 68 44l5 -4q-34 -47 -74 -47q-20 0 -61.5 22.5t-56.5 22.5q-43 0 -72 -46z" />
    <glyph glyph-name="uni1F57" unicode="&#x1f57;" horiz-adv-x="490" 
d="M102 478h6l-51 -286q-17 -91 22 -140.5t127 -49.5q178 0 212 188l52 288h6l-52 -288q-35 -194 -219 -194q-90 0 -130 51t-24 145zM312 511l-6 -4q-28 49 -28 85q0 62 82 87l1 -7q-75 -21 -75 -80q0 -37 26 -81zM206 710l-6 2q34 51 78 51q16 0 58 -22.5t61 -22.5
q38 0 68 44l5 -4q-34 -47 -74 -47q-20 0 -61.5 22.5t-56.5 22.5q-43 0 -72 -46z" />
    <glyph glyph-name="uni1F59" unicode="&#x1f59;" horiz-adv-x="464" 
d="M527 673h7l-296 -397l-47 -276h-6l47 276l-147 397h7l144 -390zM-28 499l-5 -4q-29 49 -29 84q0 62 83 88l1 -7q-76 -23 -76 -80q0 -35 26 -81z" />
    <glyph glyph-name="uni1F5B" unicode="&#x1f5b;" horiz-adv-x="464" 
d="M527 673h7l-296 -397l-47 -276h-6l47 276l-147 397h7l144 -390zM-124 498l-4 -3q-29 49 -29 84q0 62 83 88l1 -7q-76 -22 -76 -80q0 -39 25 -82zM12 497l-6 -3l-58 169l8 4z" />
    <glyph glyph-name="uni1F5D" unicode="&#x1f5d;" horiz-adv-x="464" 
d="M527 673h7l-296 -397l-47 -276h-6l47 276l-147 397h7l144 -390zM-117 500l-5 -3q-28 49 -28 83q0 66 82 90l1 -6q-75 -23 -75 -83q0 -37 25 -81zM-87 496l-4 3l116 171l6 -4z" />
    <glyph glyph-name="uni1F5F" unicode="&#x1f5f;" horiz-adv-x="464" 
d="M527 673h7l-296 -397l-47 -276h-6l47 276l-147 397h7l144 -390zM-109 420l-6 -4q-28 49 -28 85q0 62 82 87l1 -7q-75 -21 -75 -80q0 -37 26 -81zM-215 619l-6 2q34 51 78 51q16 0 58 -22.5t61 -22.5q38 0 68 44l5 -4q-34 -47 -74 -47q-20 0 -61.5 22.5t-56.5 22.5
q-43 0 -72 -46z" />
    <glyph glyph-name="uni1F60" unicode="&#x1f60;" horiz-adv-x="738" 
d="M386 308h-6l-28 -159q-11 -60 -60 -102.5t-114 -42.5q-73 0 -102.5 36t-29.5 101q0 147 60 241.5t177 94.5l1 6q-82 0 -138.5 -48.5t-81 -123.5t-24.5 -170q0 -68 30.5 -105.5t106.5 -37.5q56 0 101.5 31.5t69.5 82.5q0 -49 38.5 -81.5t94.5 -32.5q52 0 92.5 23t63 56.5
t37 78.5t19 82t4.5 73q0 171 -153 172l-1 -6q148 0 148 -166q0 -35 -4.5 -71.5t-18.5 -80.5t-36 -77t-60.5 -55.5t-88.5 -22.5q-55 0 -92 30t-37 79q0 6 2 22zM396 545l-5 4q59 63 59 105q0 39 -51 56l2 7q56 -20 56 -60q0 -44 -61 -112z" />
    <glyph glyph-name="uni1F61" unicode="&#x1f61;" horiz-adv-x="738" 
d="M386 308h-6l-28 -159q-11 -60 -60 -102.5t-114 -42.5q-73 0 -102.5 36t-29.5 101q0 147 60 241.5t177 94.5l1 6q-82 0 -138.5 -48.5t-81 -123.5t-24.5 -170q0 -68 30.5 -105.5t106.5 -37.5q56 0 101.5 31.5t69.5 82.5q0 -49 38.5 -81.5t94.5 -32.5q52 0 92.5 23t63 56.5
t37 78.5t19 82t4.5 73q0 171 -153 172l-1 -6q148 0 148 -166q0 -35 -4.5 -71.5t-18.5 -80.5t-36 -77t-60.5 -55.5t-88.5 -22.5q-55 0 -92 30t-37 79q0 6 2 22zM432 549l-5 -4q-29 49 -29 84q0 62 83 88l1 -7q-76 -23 -76 -80q0 -35 26 -81z" />
    <glyph glyph-name="uni1F62" unicode="&#x1f62;" horiz-adv-x="738" 
d="M386 308h-6l-28 -159q-11 -60 -60 -102.5t-114 -42.5q-73 0 -102.5 36t-29.5 101q0 147 60 241.5t177 94.5l1 6q-82 0 -138.5 -48.5t-81 -123.5t-24.5 -170q0 -68 30.5 -105.5t106.5 -37.5q56 0 101.5 31.5t69.5 82.5q0 -49 38.5 -81.5t94.5 -32.5q52 0 92.5 23t63 56.5
t37 78.5t19 82t4.5 73q0 171 -153 172l-1 -6q148 0 148 -166q0 -35 -4.5 -71.5t-18.5 -80.5t-36 -77t-60.5 -55.5t-88.5 -22.5q-55 0 -92 30t-37 79q0 6 2 22zM362 545l-5 4q59 64 59 106q0 38 -51 55l3 7q56 -20 56 -61q0 -42 -62 -111zM507 547l-6 -3l-59 169l8 5z" />
    <glyph glyph-name="uni1F63" unicode="&#x1f63;" horiz-adv-x="738" 
d="M386 308h-6l-28 -159q-11 -60 -60 -102.5t-114 -42.5q-73 0 -102.5 36t-29.5 101q0 147 60 241.5t177 94.5l1 6q-82 0 -138.5 -48.5t-81 -123.5t-24.5 -170q0 -68 30.5 -105.5t106.5 -37.5q56 0 101.5 31.5t69.5 82.5q0 -49 38.5 -81.5t94.5 -32.5q52 0 92.5 23t63 56.5
t37 78.5t19 82t4.5 73q0 171 -153 172l-1 -6q148 0 148 -166q0 -35 -4.5 -71.5t-18.5 -80.5t-36 -77t-60.5 -55.5t-88.5 -22.5q-55 0 -92 30t-37 79q0 6 2 22zM384 548l-4 -3q-29 49 -29 84q0 62 83 88l1 -7q-76 -22 -76 -80q0 -39 25 -82zM520 547l-6 -3l-58 169l8 4z" />
    <glyph glyph-name="uni1F64" unicode="&#x1f64;" horiz-adv-x="738" 
d="M386 308h-6l-28 -159q-11 -60 -60 -102.5t-114 -42.5q-73 0 -102.5 36t-29.5 101q0 147 60 241.5t177 94.5l1 6q-82 0 -138.5 -48.5t-81 -123.5t-24.5 -170q0 -68 30.5 -105.5t106.5 -37.5q56 0 101.5 31.5t69.5 82.5q0 -49 38.5 -81.5t94.5 -32.5q52 0 92.5 23t63 56.5
t37 78.5t19 82t4.5 73q0 171 -153 172l-1 -6q148 0 148 -166q0 -35 -4.5 -71.5t-18.5 -80.5t-36 -77t-60.5 -55.5t-88.5 -22.5q-55 0 -92 30t-37 79q0 6 2 22zM387 545l-5 4q59 64 59 106q0 38 -51 55l3 7q56 -20 56 -61q0 -42 -62 -111zM449 544l-4 3l110 171l7 -5z" />
    <glyph glyph-name="uni1F65" unicode="&#x1f65;" horiz-adv-x="738" 
d="M386 308h-6l-28 -159q-11 -60 -60 -102.5t-114 -42.5q-73 0 -102.5 36t-29.5 101q0 147 60 241.5t177 94.5l1 6q-82 0 -138.5 -48.5t-81 -123.5t-24.5 -170q0 -68 30.5 -105.5t106.5 -37.5q56 0 101.5 31.5t69.5 82.5q0 -49 38.5 -81.5t94.5 -32.5q52 0 92.5 23t63 56.5
t37 78.5t19 82t4.5 73q0 171 -153 172l-1 -6q148 0 148 -166q0 -35 -4.5 -71.5t-18.5 -80.5t-36 -77t-60.5 -55.5t-88.5 -22.5q-55 0 -92 30t-37 79q0 6 2 22zM415 548l-5 -3q-28 49 -28 83q0 66 82 90l1 -6q-75 -23 -75 -83q0 -37 25 -81zM445 544l-4 3l116 171l6 -4z" />
    <glyph glyph-name="uni1F66" unicode="&#x1f66;" horiz-adv-x="738" 
d="M386 308h-6l-28 -159q-11 -60 -60 -102.5t-114 -42.5q-73 0 -102.5 36t-29.5 101q0 147 60 241.5t177 94.5l1 6q-82 0 -138.5 -48.5t-81 -123.5t-24.5 -170q0 -68 30.5 -105.5t106.5 -37.5q56 0 101.5 31.5t69.5 82.5q0 -49 38.5 -81.5t94.5 -32.5q52 0 92.5 23t63 56.5
t37 78.5t19 82t4.5 73q0 171 -153 172l-1 -6q148 0 148 -166q0 -35 -4.5 -71.5t-18.5 -80.5t-36 -77t-60.5 -55.5t-88.5 -22.5q-55 0 -92 30t-37 79q0 6 2 22zM405 528l-4 4q58 63 58 106q0 38 -51 55l3 7q56 -20 56 -60q0 -43 -62 -112zM324 731l-6 2q34 51 78 51
q16 0 58 -22.5t61 -22.5q38 0 68 44l5 -4q-34 -47 -74 -47q-20 0 -61.5 22.5t-56.5 22.5q-43 0 -72 -46z" />
    <glyph glyph-name="uni1F67" unicode="&#x1f67;" horiz-adv-x="738" 
d="M386 308h-6l-28 -159q-11 -60 -60 -102.5t-114 -42.5q-73 0 -102.5 36t-29.5 101q0 147 60 241.5t177 94.5l1 6q-82 0 -138.5 -48.5t-81 -123.5t-24.5 -170q0 -68 30.5 -105.5t106.5 -37.5q56 0 101.5 31.5t69.5 82.5q0 -49 38.5 -81.5t94.5 -32.5q52 0 92.5 23t63 56.5
t37 78.5t19 82t4.5 73q0 171 -153 172l-1 -6q148 0 148 -166q0 -35 -4.5 -71.5t-18.5 -80.5t-36 -77t-60.5 -55.5t-88.5 -22.5q-55 0 -92 30t-37 79q0 6 2 22zM421 519l-6 -4q-28 49 -28 85q0 62 82 87l1 -7q-75 -21 -75 -80q0 -37 26 -81zM315 718l-6 2q34 51 78 51
q16 0 58 -22.5t61 -22.5q38 0 68 44l5 -4q-34 -47 -74 -47q-20 0 -61.5 22.5t-56.5 22.5q-43 0 -72 -46z" />
    <glyph glyph-name="uni1F68" unicode="&#x1f68;" horiz-adv-x="652" 
d="M409 681q115 0 167 -70t52 -183q0 -57 -13.5 -118t-40 -122t-74 -110.5t-108.5 -71.5h169l-1 -6h-178l1 9q62 20 110 68.5t75 109t40.5 121.5t13.5 117q0 112 -50 181t-164 69q-69 0 -126.5 -26.5t-95.5 -70t-64.5 -100.5t-38.5 -116t-12 -119q0 -187 125 -235l-1 -8
h-170l1 6h162q-123 50 -123 233q0 63 12.5 124.5t40 119t66.5 101.5t97.5 70.5t127.5 26.5zM-14 509l-5 4q59 63 59 105q0 39 -51 56l2 7q56 -20 56 -60q0 -44 -61 -112z" />
    <glyph glyph-name="uni1F69" unicode="&#x1f69;" horiz-adv-x="652" 
d="M409 681q115 0 167 -70t52 -183q0 -57 -13.5 -118t-40 -122t-74 -110.5t-108.5 -71.5h169l-1 -6h-178l1 9q62 20 110 68.5t75 109t40.5 121.5t13.5 117q0 112 -50 181t-164 69q-69 0 -126.5 -26.5t-95.5 -70t-64.5 -100.5t-38.5 -116t-12 -119q0 -187 125 -235l-1 -8
h-170l1 6h162q-123 50 -123 233q0 63 12.5 124.5t40 119t66.5 101.5t97.5 70.5t127.5 26.5zM15 512l-5 -4q-29 49 -29 84q0 62 83 88l1 -7q-76 -23 -76 -80q0 -35 26 -81z" />
    <glyph glyph-name="uni1F6A" unicode="&#x1f6a;" horiz-adv-x="652" 
d="M409 681q115 0 167 -70t52 -183q0 -57 -13.5 -118t-40 -122t-74 -110.5t-108.5 -71.5h169l-1 -6h-178l1 9q62 20 110 68.5t75 109t40.5 121.5t13.5 117q0 112 -50 181t-164 69q-69 0 -126.5 -26.5t-95.5 -70t-64.5 -100.5t-38.5 -116t-12 -119q0 -187 125 -235l-1 -8
h-170l1 6h162q-123 50 -123 233q0 63 12.5 124.5t40 119t66.5 101.5t97.5 70.5t127.5 26.5zM-102 513l-5 4q59 64 59 106q0 38 -51 55l3 7q56 -20 56 -61q0 -42 -62 -111zM43 515l-6 -3l-59 169l8 5z" />
    <glyph glyph-name="uni1F6B" unicode="&#x1f6b;" horiz-adv-x="652" 
d="M409 681q115 0 167 -70t52 -183q0 -57 -13.5 -118t-40 -122t-74 -110.5t-108.5 -71.5h169l-1 -6h-178l1 9q62 20 110 68.5t75 109t40.5 121.5t13.5 117q0 112 -50 181t-164 69q-69 0 -126.5 -26.5t-95.5 -70t-64.5 -100.5t-38.5 -116t-12 -119q0 -187 125 -235l-1 -8
h-170l1 6h162q-123 50 -123 233q0 63 12.5 124.5t40 119t66.5 101.5t97.5 70.5t127.5 26.5zM-91 517l-4 -3q-29 49 -29 84q0 62 83 88l1 -7q-76 -22 -76 -80q0 -39 25 -82zM45 516l-6 -3l-58 169l8 4z" />
    <glyph glyph-name="uni1F6C" unicode="&#x1f6c;" horiz-adv-x="652" 
d="M409 681q115 0 167 -70t52 -183q0 -57 -13.5 -118t-40 -122t-74 -110.5t-108.5 -71.5h169l-1 -6h-178l1 9q62 20 110 68.5t75 109t40.5 121.5t13.5 117q0 112 -50 181t-164 69q-69 0 -126.5 -26.5t-95.5 -70t-64.5 -100.5t-38.5 -116t-12 -119q0 -187 125 -235l-1 -8
h-170l1 6h162q-123 50 -123 233q0 63 12.5 124.5t40 119t66.5 101.5t97.5 70.5t127.5 26.5zM-94 503l-5 4q59 64 59 106q0 38 -51 55l3 7q56 -20 56 -61q0 -42 -62 -111zM-32 502l-4 3l110 171l7 -5z" />
    <glyph glyph-name="uni1F6D" unicode="&#x1f6d;" horiz-adv-x="652" 
d="M409 681q115 0 167 -70t52 -183q0 -57 -13.5 -118t-40 -122t-74 -110.5t-108.5 -71.5h169l-1 -6h-178l1 9q62 20 110 68.5t75 109t40.5 121.5t13.5 117q0 112 -50 181t-164 69q-69 0 -126.5 -26.5t-95.5 -70t-64.5 -100.5t-38.5 -116t-12 -119q0 -187 125 -235l-1 -8
h-170l1 6h162q-123 50 -123 233q0 63 12.5 124.5t40 119t66.5 101.5t97.5 70.5t127.5 26.5zM-61 504l-5 -3q-28 49 -28 83q0 66 82 90l1 -6q-75 -23 -75 -83q0 -37 25 -81zM-31 500l-4 3l116 171l6 -4z" />
    <glyph glyph-name="uni1F6E" unicode="&#x1f6e;" horiz-adv-x="652" 
d="M409 681q115 0 167 -70t52 -183q0 -57 -13.5 -118t-40 -122t-74 -110.5t-108.5 -71.5h169l-1 -6h-178l1 9q62 20 110 68.5t75 109t40.5 121.5t13.5 117q0 112 -50 181t-164 69q-69 0 -126.5 -26.5t-95.5 -70t-64.5 -100.5t-38.5 -116t-12 -119q0 -187 125 -235l-1 -8
h-170l1 6h162q-123 50 -123 233q0 63 12.5 124.5t40 119t66.5 101.5t97.5 70.5t127.5 26.5zM-41 435l-4 4q58 63 58 106q0 38 -51 55l3 7q56 -20 56 -60q0 -43 -62 -112zM-122 638l-6 2q34 51 78 51q16 0 58 -22.5t61 -22.5q38 0 68 44l5 -4q-34 -47 -74 -47
q-20 0 -61.5 22.5t-56.5 22.5q-43 0 -72 -46z" />
    <glyph glyph-name="uni1F6F" unicode="&#x1f6f;" horiz-adv-x="652" 
d="M409 681q115 0 167 -70t52 -183q0 -57 -13.5 -118t-40 -122t-74 -110.5t-108.5 -71.5h169l-1 -6h-178l1 9q62 20 110 68.5t75 109t40.5 121.5t13.5 117q0 112 -50 181t-164 69q-69 0 -126.5 -26.5t-95.5 -70t-64.5 -100.5t-38.5 -116t-12 -119q0 -187 125 -235l-1 -8
h-170l1 6h162q-123 50 -123 233q0 63 12.5 124.5t40 119t66.5 101.5t97.5 70.5t127.5 26.5zM-26 429l-6 -4q-28 49 -28 85q0 62 82 87l1 -7q-75 -21 -75 -80q0 -37 26 -81zM-132 628l-6 2q34 51 78 51q16 0 58 -22.5t61 -22.5q38 0 68 44l5 -4q-34 -47 -74 -47
q-20 0 -61.5 22.5t-56.5 22.5q-43 0 -72 -46z" />
    <glyph glyph-name="uni1F70" unicode="&#x1f70;" horiz-adv-x="494" 
d="M211 2q56 0 101.5 31t72 79.5t41 103t14.5 107.5q0 70 -37.5 112t-115.5 42q-115 0 -176.5 -88t-61.5 -219q0 -79 41 -123.5t121 -44.5zM396 0h-5l32 187q-29 -91 -85 -141t-128 -50q-81 0 -124 47t-43 128q0 135 64.5 223.5t180.5 88.5q74 0 117.5 -43.5t39.5 -124.5
l27 164h6zM347 550l-4 -2l-74 177l9 4z" />
    <glyph glyph-name="uni1F71" unicode="&#x1f71;" horiz-adv-x="494" 
d="M211 2q56 0 101.5 31t72 79.5t41 103t14.5 107.5q0 70 -37.5 112t-115.5 42q-115 0 -176.5 -88t-61.5 -219q0 -79 41 -123.5t121 -44.5zM396 0h-5l32 187q-29 -91 -85 -141t-128 -50q-81 0 -124 47t-43 128q0 135 64.5 223.5t180.5 88.5q74 0 117.5 -43.5t39.5 -124.5
l27 164h6zM305 548l-4 2l118 182l7 -4z" />
    <glyph glyph-name="uni1F72" unicode="&#x1f72;" horiz-adv-x="419" 
d="M265 483q-90 0 -141 -43t-51 -105q0 -60 74 -72q-37 -8 -63.5 -27.5t-38.5 -43.5t-16.5 -43.5t-4.5 -37.5q0 -115 156 -115q47 0 88 14.5t71.5 49t36.5 85.5h-6q-8 -72 -62 -108t-127 -36q-152 0 -152 110q0 62 41.5 105.5t106.5 43.5h89l1 6h-91q-97 0 -97 70
q0 59 48.5 100t136.5 41q63 0 99 -25t36 -69q0 -19 -5 -34h6q5 15 5 35q0 46 -38.5 72.5t-101.5 26.5zM273 550l-4 -2l-74 177l9 4z" />
    <glyph glyph-name="uni1F73" unicode="&#x1f73;" horiz-adv-x="419" 
d="M265 483q-90 0 -141 -43t-51 -105q0 -60 74 -72q-37 -8 -63.5 -27.5t-38.5 -43.5t-16.5 -43.5t-4.5 -37.5q0 -115 156 -115q47 0 88 14.5t71.5 49t36.5 85.5h-6q-8 -72 -62 -108t-127 -36q-152 0 -152 110q0 62 41.5 105.5t106.5 43.5h89l1 6h-91q-97 0 -97 70
q0 59 48.5 100t136.5 41q63 0 99 -25t36 -69q0 -19 -5 -34h6q5 15 5 35q0 46 -38.5 72.5t-101.5 26.5zM241 548l-4 2l118 182l7 -4z" />
    <glyph glyph-name="uni1F74" unicode="&#x1f74;" horiz-adv-x="477" 
d="M25 0h-5l82 478h6l-27 -153q21 59 62 96.5t75.5 49.5t66.5 12q52 0 86 -16t47 -43.5t15.5 -64t-6.5 -78.5l-71 -426h-6l71 426q8 55 4.5 98.5t-39 70.5t-102.5 27q-25 0 -53 -9t-61.5 -30.5t-61 -68t-38.5 -111.5zM296 550l-4 -2l-74 177l9 4z" />
    <glyph glyph-name="uni1F75" unicode="&#x1f75;" horiz-adv-x="477" 
d="M25 0h-5l82 478h6l-27 -153q21 59 62 96.5t75.5 49.5t66.5 12q52 0 86 -16t47 -43.5t15.5 -64t-6.5 -78.5l-71 -426h-6l71 426q8 55 4.5 98.5t-39 70.5t-102.5 27q-25 0 -53 -9t-61.5 -30.5t-61 -68t-38.5 -111.5zM266 548l-4 2l118 182l7 -4z" />
    <glyph glyph-name="uni1F76" unicode="&#x1f76;" horiz-adv-x="165" 
d="M122 478h5l-75 -424q-3 -17 -2.5 -29t13.5 -18t41 -3l-1 -4q-7 -1 -18 -1q-28 0 -35.5 13.5t-2.5 41.5zM142 550l-4 -2l-74 177l9 4z" />
    <glyph glyph-name="uni1F77" unicode="&#x1f77;" horiz-adv-x="165" 
d="M122 478h5l-75 -424q-3 -17 -2.5 -29t13.5 -18t41 -3l-1 -4q-7 -1 -18 -1q-28 0 -35.5 13.5t-2.5 41.5zM130 548l-4 2l118 182l7 -4z" />
    <glyph glyph-name="uni1F78" unicode="&#x1f78;" horiz-adv-x="485" 
d="M287 477q-113 0 -176 -93t-63 -231q0 -76 38 -113.5t119 -37.5q97 0 165 80.5t68 231.5q0 163 -151 163zM288 483q80 0 118 -45t38 -123q0 -154 -70 -236.5t-170 -82.5q-162 0 -162 156q0 92 27 165.5t84 119.5t135 46zM321 550l-4 -2l-74 177l9 4z" />
    <glyph glyph-name="uni1F79" unicode="&#x1f79;" horiz-adv-x="485" 
d="M287 477q-113 0 -176 -93t-63 -231q0 -76 38 -113.5t119 -37.5q97 0 165 80.5t68 231.5q0 163 -151 163zM288 483q80 0 118 -45t38 -123q0 -154 -70 -236.5t-170 -82.5q-162 0 -162 156q0 92 27 165.5t84 119.5t135 46zM281 548l-4 2l118 182l7 -4z" />
    <glyph glyph-name="uni1F7A" unicode="&#x1f7a;" horiz-adv-x="490" 
d="M102 478h6l-51 -286q-17 -91 22 -140.5t127 -49.5q178 0 212 188l52 288h6l-52 -288q-35 -194 -219 -194q-90 0 -130 51t-24 145zM322 550l-4 -2l-74 177l9 4z" />
    <glyph glyph-name="uni1F7B" unicode="&#x1f7b;" horiz-adv-x="490" 
d="M102 478h6l-51 -286q-17 -91 22 -140.5t127 -49.5q178 0 212 188l52 288h6l-52 -288q-35 -194 -219 -194q-90 0 -130 51t-24 145zM274 548l-4 2l118 182l7 -4z" />
    <glyph glyph-name="uni1F7C" unicode="&#x1f7c;" horiz-adv-x="738" 
d="M386 308h-6l-28 -159q-11 -60 -60 -102.5t-114 -42.5q-73 0 -102.5 36t-29.5 101q0 147 60 241.5t177 94.5l1 6q-82 0 -138.5 -48.5t-81 -123.5t-24.5 -170q0 -68 30.5 -105.5t106.5 -37.5q56 0 101.5 31.5t69.5 82.5q0 -49 38.5 -81.5t94.5 -32.5q52 0 92.5 23t63 56.5
t37 78.5t19 82t4.5 73q0 171 -153 172l-1 -6q148 0 148 -166q0 -35 -4.5 -71.5t-18.5 -80.5t-36 -77t-60.5 -55.5t-88.5 -22.5q-55 0 -92 30t-37 79q0 6 2 22zM446 550l-4 -2l-74 177l9 4z" />
    <glyph glyph-name="uni1F7D" unicode="&#x1f7d;" horiz-adv-x="738" 
d="M386 308h-6l-28 -159q-11 -60 -60 -102.5t-114 -42.5q-73 0 -102.5 36t-29.5 101q0 147 60 241.5t177 94.5l1 6q-82 0 -138.5 -48.5t-81 -123.5t-24.5 -170q0 -68 30.5 -105.5t106.5 -37.5q56 0 101.5 31.5t69.5 82.5q0 -49 38.5 -81.5t94.5 -32.5q52 0 92.5 23t63 56.5
t37 78.5t19 82t4.5 73q0 171 -153 172l-1 -6q148 0 148 -166q0 -35 -4.5 -71.5t-18.5 -80.5t-36 -77t-60.5 -55.5t-88.5 -22.5q-55 0 -92 30t-37 79q0 6 2 22zM400 548l-4 2l118 182l7 -4z" />
    <glyph glyph-name="uni1F80" unicode="&#x1f80;" horiz-adv-x="494" 
d="M211 2q56 0 101.5 31t72 79.5t41 103t14.5 107.5q0 70 -37.5 112t-115.5 42q-115 0 -176.5 -88t-61.5 -219q0 -79 41 -123.5t121 -44.5zM396 0h-5l32 187q-29 -91 -85 -141t-128 -50q-81 0 -124 47t-43 128q0 135 64.5 223.5t180.5 88.5q74 0 117.5 -43.5t39.5 -124.5
l27 164h6zM289 545l-5 4q59 63 59 105q0 39 -51 56l2 7q56 -20 56 -60q0 -44 -61 -112zM200 -61h6l-18 -99q-8 -45 7 -55.5t64 -8.5l-1 -5q-10 -1 -26 -1q-36 0 -47 16t-3 56z" />
    <glyph glyph-name="uni1F81" unicode="&#x1f81;" horiz-adv-x="494" 
d="M211 2q56 0 101.5 31t72 79.5t41 103t14.5 107.5q0 70 -37.5 112t-115.5 42q-115 0 -176.5 -88t-61.5 -219q0 -79 41 -123.5t121 -44.5zM396 0h-5l32 187q-29 -91 -85 -141t-128 -50q-81 0 -124 47t-43 128q0 135 64.5 223.5t180.5 88.5q74 0 117.5 -43.5t39.5 -124.5
l27 164h6zM328 549l-5 -4q-29 49 -29 84q0 62 83 88l1 -7q-76 -23 -76 -80q0 -35 26 -81zM200 -61h6l-18 -99q-8 -45 7 -55.5t64 -8.5l-1 -5q-10 -1 -26 -1q-36 0 -47 16t-3 56z" />
    <glyph glyph-name="uni1F82" unicode="&#x1f82;" horiz-adv-x="494" 
d="M211 2q56 0 101.5 31t72 79.5t41 103t14.5 107.5q0 70 -37.5 112t-115.5 42q-115 0 -176.5 -88t-61.5 -219q0 -79 41 -123.5t121 -44.5zM396 0h-5l32 187q-29 -91 -85 -141t-128 -50q-81 0 -124 47t-43 128q0 135 64.5 223.5t180.5 88.5q74 0 117.5 -43.5t39.5 -124.5
l27 164h6zM237 545l-5 4q59 64 59 106q0 38 -51 55l3 7q56 -20 56 -61q0 -42 -62 -111zM382 547l-6 -3l-59 169l8 5zM202 -61h6l-18 -99q-8 -45 7 -55.5t64 -8.5l-1 -5q-10 -1 -26 -1q-36 0 -47 16t-3 56z" />
    <glyph glyph-name="uni1F83" unicode="&#x1f83;" horiz-adv-x="494" 
d="M211 2q56 0 101.5 31t72 79.5t41 103t14.5 107.5q0 70 -37.5 112t-115.5 42q-115 0 -176.5 -88t-61.5 -219q0 -79 41 -123.5t121 -44.5zM396 0h-5l32 187q-29 -91 -85 -141t-128 -50q-81 0 -124 47t-43 128q0 135 64.5 223.5t180.5 88.5q74 0 117.5 -43.5t39.5 -124.5
l27 164h6zM261 548l-4 -3q-29 49 -29 84q0 62 83 88l1 -7q-76 -22 -76 -80q0 -39 25 -82zM397 547l-6 -3l-58 169l8 4zM198 -61h6l-18 -99q-8 -45 7 -55.5t64 -8.5l-1 -5q-10 -1 -26 -1q-36 0 -47 16t-3 56z" />
    <glyph glyph-name="uni1F84" unicode="&#x1f84;" horiz-adv-x="494" 
d="M211 2q56 0 101.5 31t72 79.5t41 103t14.5 107.5q0 70 -37.5 112t-115.5 42q-115 0 -176.5 -88t-61.5 -219q0 -79 41 -123.5t121 -44.5zM396 0h-5l32 187q-29 -91 -85 -141t-128 -50q-81 0 -124 47t-43 128q0 135 64.5 223.5t180.5 88.5q74 0 117.5 -43.5t39.5 -124.5
l27 164h6zM259 545l-5 4q59 64 59 106q0 38 -51 55l3 7q56 -20 56 -61q0 -42 -62 -111zM321 544l-4 3l110 171l7 -5zM190 -61h6l-18 -99q-8 -45 7 -55.5t64 -8.5l-1 -5q-10 -1 -26 -1q-36 0 -47 16t-3 56z" />
    <glyph glyph-name="uni1F85" unicode="&#x1f85;" horiz-adv-x="494" 
d="M211 2q56 0 101.5 31t72 79.5t41 103t14.5 107.5q0 70 -37.5 112t-115.5 42q-115 0 -176.5 -88t-61.5 -219q0 -79 41 -123.5t121 -44.5zM396 0h-5l32 187q-29 -91 -85 -141t-128 -50q-81 0 -124 47t-43 128q0 135 64.5 223.5t180.5 88.5q74 0 117.5 -43.5t39.5 -124.5
l27 164h6zM283 548l-5 -3q-28 49 -28 83q0 66 82 90l1 -6q-75 -23 -75 -83q0 -37 25 -81zM313 544l-4 3l116 171l6 -4zM198 -61h6l-18 -99q-8 -45 7 -55.5t64 -8.5l-1 -5q-10 -1 -26 -1q-36 0 -47 16t-3 56z" />
    <glyph glyph-name="uni1F86" unicode="&#x1f86;" horiz-adv-x="494" 
d="M211 2q56 0 101.5 31t72 79.5t41 103t14.5 107.5q0 70 -37.5 112t-115.5 42q-115 0 -176.5 -88t-61.5 -219q0 -79 41 -123.5t121 -44.5zM396 0h-5l32 187q-29 -91 -85 -141t-128 -50q-81 0 -124 47t-43 128q0 135 64.5 223.5t180.5 88.5q74 0 117.5 -43.5t39.5 -124.5
l27 164h6zM291 535l-4 4q58 63 58 106q0 38 -51 55l3 7q56 -20 56 -60q0 -43 -62 -112zM210 738l-6 2q34 51 78 51q16 0 58 -22.5t61 -22.5q38 0 68 44l5 -4q-34 -47 -74 -47q-20 0 -61.5 22.5t-56.5 22.5q-43 0 -72 -46zM190 -61h6l-18 -99q-8 -45 7 -55.5t64 -8.5l-1 -5
q-10 -1 -26 -1q-36 0 -47 16t-3 56z" />
    <glyph glyph-name="uni1F87" unicode="&#x1f87;" horiz-adv-x="494" 
d="M211 2q56 0 101.5 31t72 79.5t41 103t14.5 107.5q0 70 -37.5 112t-115.5 42q-115 0 -176.5 -88t-61.5 -219q0 -79 41 -123.5t121 -44.5zM396 0h-5l32 187q-29 -91 -85 -141t-128 -50q-81 0 -124 47t-43 128q0 135 64.5 223.5t180.5 88.5q74 0 117.5 -43.5t39.5 -124.5
l27 164h6zM313 542l-6 -4q-28 49 -28 85q0 62 82 87l1 -7q-75 -21 -75 -80q0 -37 26 -81zM207 741l-6 2q34 51 78 51q16 0 58 -22.5t61 -22.5q38 0 68 44l5 -4q-34 -47 -74 -47q-20 0 -61.5 22.5t-56.5 22.5q-43 0 -72 -46zM196 -61h6l-18 -99q-8 -45 7 -55.5t64 -8.5l-1 -5
q-10 -1 -26 -1q-36 0 -47 16t-3 56z" />
    <glyph glyph-name="uni1F88" unicode="&#x1f88;" horiz-adv-x="653" 
d="M492 0h-6l-40 190h-360l-104 -190h-7l371 673h7zM349 667l-259 -471h355zM87 493l-5 4q59 63 59 105q0 39 -51 56l2 7q56 -20 56 -60q0 -44 -61 -112zM607 478h6l-70 -397q-8 -42 5 -58.5t54 -16.5l-1 -6q-44 0 -58 18t-6 63z" />
    <glyph glyph-name="uni1F89" unicode="&#x1f89;" horiz-adv-x="652" 
d="M492 0h-6l-40 190h-360l-104 -190h-7l371 673h7zM349 667l-259 -471h355zM111 502l-5 -4q-29 49 -29 84q0 62 83 88l1 -7q-76 -23 -76 -80q0 -35 26 -81zM606 478h6l-70 -397q-8 -42 5 -58.5t54 -16.5l-1 -6q-44 0 -58 18t-6 63z" />
    </font>
</defs>
</svg>
