<svg version="1.1" id="Layer_1" xmlns="http://www.w3.org/2000/svg" x="0" y="0" width="26" height="18" viewBox="0 0 26 18" xml:space="preserve"><path d="M24.211.4H1.789C.867.4.1 1.167.1 2.089v13.823c0 .92.768 1.688 1.689 1.688h22.422c.922 0 1.689-.768 1.689-1.688V2.089C25.9 1.167 25.133.4 24.211.4zm1.074 15.512c0 .582-.491 1.074-1.074 1.074H1.789a1.089 1.089 0 0 1-1.075-1.074V2.089c0-.583.492-1.075 1.075-1.075h22.422c.583 0 1.074.492 1.074 1.075v13.823z"/><path d="M24.334 2.151l-10.688 8.292a1.057 1.057 0 0 1-1.321 0L1.636 2.151c-.123-.092-.338-.092-.43.061-.093.123-.093.338.061.43l10.688 8.293c.308.246.677.338 1.045.338s.737-.123 1.044-.338l10.688-8.293a.33.33 0 0 0 .062-.43c-.122-.123-.338-.153-.46-.061z"/></svg>