<svg version="1.1" id="Layer_1" xmlns="http://www.w3.org/2000/svg" x="0" y="0" width="21" height="35" viewBox="0 0 21 35" xml:space="preserve"><path d="M18.771.092H2.229C1.02.092.041 1.072.041 2.28v30.44c0 1.207.979 2.188 2.188 2.188h16.543c1.209 0 2.188-.98 2.188-2.188V2.281c0-1.209-.98-2.189-2.189-2.189zm1.313 32.633c0 .725-.588 1.312-1.312 1.312H2.229a1.313 1.313 0 0 1-1.313-1.312v-5.291h19.168v5.291zm0-6.163H.916V2.281c0-.725.588-1.313 1.313-1.313h16.543c.725 0 1.312.588 1.312 1.313v24.281zm-7.23-23.31a.438.438 0 0 1-.438.438h-3.83a.438.438 0 1 1 0-.876h3.83c.242 0 .438.196.438.438zM10.5 32.693a1.869 1.869 0 1 0 0-3.737 1.869 1.869 0 0 0 0 3.737zm0-2.861a.992.992 0 1 1 0 1.986.994.994 0 1 1 0-1.986z"/></svg>