<svg version="1.1" id="Layer_1" xmlns="http://www.w3.org/2000/svg" x="0" y="0" width="26" height="26" viewBox="0 0 26 26" xml:space="preserve"><path d="M24.027 16.864c.503-1.334.759-2.732.759-4.167 0-3.149-1.227-6.109-3.451-8.334A11.708 11.708 0 0 0 13 .911c-1.428 0-2.815.251-4.132.749A5.06 5.06 0 0 0 5.106 0 5.113 5.113 0 0 0 0 5.107c0 1.505.672 2.935 1.817 3.902a11.627 11.627 0 0 0-.603 3.688c0 3.148 1.226 6.108 3.451 8.333a11.704 11.704 0 0 0 8.334 3.451c1.265 0 2.522-.207 3.745-.619A5.125 5.125 0 0 0 20.894 26 5.112 5.112 0 0 0 26 20.894a5.093 5.093 0 0 0-1.973-4.03zm-3.133 8.03c-1.41 0-2.73-.758-3.445-1.979a.551.551 0 0 0-.478-.273l-.195.035a10.657 10.657 0 0 1-3.775.699 10.61 10.61 0 0 1-7.552-3.127 10.612 10.612 0 0 1-3.127-7.553c0-1.251.225-2.492.669-3.687a.555.555 0 0 0-.197-.644 4.01 4.01 0 0 1-1.687-3.259c0-2.206 1.794-4 4-4 1.243 0 2.394.566 3.157 1.552.153.198.42.268.65.172A10.543 10.543 0 0 1 13 2.017c2.854 0 5.535 1.111 7.552 3.127s3.127 4.698 3.127 7.552a10.63 10.63 0 0 1-.837 4.151.553.553 0 0 0 .21.679 4.002 4.002 0 0 1 1.842 3.367 4.006 4.006 0 0 1-4 4.001z"/><path d="M13.819 10.96c-3.828-.744-4.076-1.913-3.155-2.728.922-.815 3.661-1.182 4.43.248.744 1.381 1.276 1.949 2.303 1.701.981-.237 1.123-1.595.709-2.41-.332-.658-1.842-2.339-4.819-2.339S7.192 6.531 7.192 9.26s2.835 3.934 5.564 4.324c2.728.39 3.366 1.56 3.013 2.41-.354.851-1.524 1.665-3.296 1.488-1.772-.177-2.59-1.66-2.835-2.41-.236-.72-1.063-.814-1.453-.779-.39.035-1.631.532-1.064 2.268.567 1.736 2.411 3.119 6.096 3.119s5.847-2.269 5.847-4.43c-.001-2.163-1.417-3.544-5.245-4.29z"/></svg>