<svg version="1.1" id="Layer_1" xmlns="http://www.w3.org/2000/svg" x="0" y="0" width="50" height="57.89" viewBox="0 0 50 57.89" xml:space="preserve"><path d="M46.71 0H3.29C1.48 0 0 1.47 0 3.29v7.89c0 1.81 1.48 3.29 3.29 3.29h43.42c1.81 0 3.29-1.48 3.29-3.29V3.29C50 1.47 48.52 0 46.71 0zm1.97 11.18c0 1.09-.89 1.97-1.97 1.97H3.29c-1.09 0-1.97-.88-1.97-1.97V3.29c0-1.09.89-1.98 1.97-1.98h43.42c1.09 0 1.97.89 1.97 1.98v7.89zm-1.97 5.92H3.29C1.48 17.1 0 18.58 0 20.39v7.9c0 1.81 1.48 3.29 3.29 3.29h21.05v14.51a5.92 5.92 0 0 0-5.22 5.22H.66c-.87 0-.87 1.32 0 1.32h18.46A5.922 5.922 0 0 0 25 57.89c3.04 0 5.55-2.31 5.88-5.26h18.46c.87 0 .87-1.32 0-1.32H30.88a5.92 5.92 0 0 0-5.22-5.22V31.58h21.05c1.81 0 3.29-1.48 3.29-3.29v-7.9c0-1.81-1.48-3.29-3.29-3.29zM29.6 51.97c0 2.54-2.07 4.61-4.6 4.61a4.61 4.61 0 0 1 0-9.22c2.54.01 4.6 2.07 4.6 4.61zm19.08-23.68c0 1.09-.89 1.97-1.97 1.97H3.29c-1.09 0-1.97-.89-1.97-1.97v-7.9c0-1.09.89-1.97 1.97-1.97h43.42c1.09 0 1.97.88 1.97 1.97v7.9z"/><path d="M7.24 3.95c-1.81 0-3.29 1.48-3.29 3.29s1.47 3.29 3.29 3.29c1.81 0 3.29-1.48 3.29-3.29 0-1.82-1.48-3.29-3.29-3.29zm0 5.26c-1.09 0-1.97-.88-1.97-1.97 0-1.09.88-1.97 1.97-1.97 1.09 0 1.97.89 1.97 1.97s-.89 1.97-1.97 1.97zm7.89-5.26c-1.81 0-3.29 1.48-3.29 3.29s1.48 3.29 3.29 3.29 3.29-1.48 3.29-3.29c0-1.82-1.48-3.29-3.29-3.29zm0 5.26c-1.09 0-1.97-.88-1.97-1.97 0-1.09.88-1.97 1.97-1.97 1.09 0 1.97.89 1.97 1.97.01 1.08-.88 1.97-1.97 1.97zM7.24 21.05c-1.81 0-3.29 1.48-3.29 3.29s1.47 3.29 3.29 3.29c1.81 0 3.29-1.48 3.29-3.29s-1.48-3.29-3.29-3.29zm0 5.26c-1.09 0-1.97-.88-1.97-1.97 0-1.09.88-1.97 1.97-1.97 1.09 0 1.97.89 1.97 1.97 0 1.09-.89 1.97-1.97 1.97zm7.89-5.26c-1.81 0-3.29 1.48-3.29 3.29s1.48 3.29 3.29 3.29 3.29-1.48 3.29-3.29-1.48-3.29-3.29-3.29zm0 5.26c-1.09 0-1.97-.88-1.97-1.97 0-1.09.88-1.97 1.97-1.97 1.09 0 1.97.89 1.97 1.97.01 1.09-.88 1.97-1.97 1.97zm7.9-22.36c-1.81 0-3.29 1.48-3.29 3.29s1.48 3.29 3.29 3.29 3.29-1.48 3.29-3.29a3.299 3.299 0 0 0-3.29-3.29zm0 5.26c-1.09 0-1.97-.88-1.97-1.97 0-1.09.88-1.97 1.97-1.97 1.09 0 1.97.89 1.97 1.97s-.89 1.97-1.97 1.97zm0 11.84c-1.81 0-3.29 1.48-3.29 3.29s1.48 3.29 3.29 3.29 3.29-1.48 3.29-3.29c-.01-1.81-1.48-3.29-3.29-3.29zm0 5.26c-1.09 0-1.97-.88-1.97-1.97 0-1.09.88-1.97 1.97-1.97 1.09 0 1.97.89 1.97 1.97 0 1.09-.89 1.97-1.97 1.97zM44.74 7.89H32.89c-.87 0-.87-1.31 0-1.31h11.84c.88 0 .88 1.31.01 1.31zm0 17.11H32.89c-.87 0-.87-1.32 0-1.32h11.84c.88 0 .88 1.32.01 1.32z"/></svg>