<svg version="1.1" id="Layer_1" xmlns="http://www.w3.org/2000/svg" x="0" y="0" width="68" height="59.54" viewBox="0 0 68 59.54" xml:space="preserve"><path d="M39.89 0C37.32 0 35.13 1.44 34 3.48 32.87 1.44 30.6 0 28.11 0H0v54.48h28.11a5.06 5.06 0 0 1 5.06 5.06h1.66c0-2.8 2.27-5.06 5.06-5.06H68V0H39.89zM28.11 52.81H1.66V1.66h26.45c2.79 0 5.06 2.27 5.06 5.06v48.36c-1.29-1.36-3.02-2.27-5.06-2.27zm38.23 0H39.89c-2.04 0-3.85.91-5.06 2.34V6.8c0-2.79 2.27-5.06 5.06-5.06h26.45v51.07z"/><path d="M5.74 5.82h23.27v1.66H5.74zm18.36 4.53h4.99v1.66H24.1zm0 4.61h4.99v1.66H24.1zm0 4.61h4.99v1.66H24.1zm0 4.53h4.99v1.66H24.1zM5.74 28.71h23.27v1.66H5.74zm0 4.54h23.27v1.66H5.74zm0 4.6h23.27v1.66H5.74zm0 9.15h23.27v1.66H5.74zm0-4.61h23.27v1.66H5.74zM38.91 5.82h23.27v1.66H38.91zm0 4.53h23.27v1.66H38.91zm0 4.61h23.27v1.66H38.91zm0 4.61h23.27v1.66H38.91zm0 4.53h23.27v1.66H38.91zm0 4.61h4.99v1.66h-4.99zm0 4.54h4.99v1.66h-4.99zm0 4.6h4.99v1.66h-4.99zm0 9.15h23.27v1.66H38.91zm0-4.61h4.99v1.66h-4.99zM5.74 10.35v15.41h15.41V10.35H5.74zM19.49 24.1H7.48V12.09h12.01V24.1zm27.35 20.03h15.41V28.71H46.84v15.42zm1.67-13.76h12.01v12.02H48.51V30.37z"/></svg>