<svg version="1.1" id="Layer_1" xmlns="http://www.w3.org/2000/svg" x="0" y="0" width="89.5" height="60.083" viewBox="-4.75 -3.259 89.5 60.083" xml:space="preserve"><path d="M-.149 6.782a2.58 2.58 0 0 0 2.606 2.605 2.58 2.58 0 0 0 2.605-2.605 2.58 2.58 0 0 0-2.605-2.606C.992 4.187-.149 5.328-.149 6.782zm4.272 0c0 .939-.727 1.666-1.666 1.666S.791 7.721.791 6.782s.727-1.667 1.667-1.667 1.665.738 1.665 1.667zM59.94 9.7H10.89v14.685h49.062V9.7h-.012zm-.928 13.757H11.829V10.64h47.183v12.817zM10.89 36.26h13.33V26.163H10.89V36.26zm.939-9.158H23.18v8.231H11.829v-8.231zm15.41-.313h32.287v.938H27.239zm0 2.494h32.287v.939H27.239zm0 2.605h32.287v.939H27.239zm0 2.607h18.743v.938H27.239zm-5.312 19.682h27.188v2.605H21.927z"/><path d="M-2.754 2.095h76.552v11.352h1.878V2.095c0-2.907-2.394-5.312-5.312-5.312H.578c-2.919 0-5.312 2.405-5.312 5.312v39.579c0 2.918 2.393 5.312 5.312 5.312h25.096l-.414 6.039h1.879l.526-6.039h15.723l.516 6.039h1.879l-.525-6.039H61.82v-6.252H-2.754V2.095z"/><path d="M78.583 14.386h-9.585c-3.434 0-6.15 2.807-6.15 6.14v29.268c0 3.444 2.807 6.15 6.15 6.15h9.585c3.434 0 6.151-2.818 6.151-6.15V20.537c0-3.332-2.806-6.151-6.151-6.151zM64.012 48.239V20.951h19.481v27.288H64.012zm8.018-30.833h3.433c.313 0 .626.313.626.626s-.312.627-.626.627H72.03c-.314 0-.627-.313-.627-.627 0-.313.212-.626.627-.626zm3.533 34.165a1.38 1.38 0 0 1-1.354 1.354h-.728c-.726 0-1.352-.626-1.352-1.354s.626-1.353 1.352-1.353h.728c.628-.1 1.354.526 1.354 1.353z"/><path d="M64.738 32.716h17.916v-6.967H64.738v6.967zm.839-6.139h16.137v5.21H65.577v-5.21zm7.806 6.564h-8.746v6.978h8.746v-6.978zm-.839 6.139h-6.878v-5.199h6.878v5.199zm1.353.839h8.745v-6.978h-8.745v6.978zm.94-6.038h6.877v5.199h-6.877v-5.199zm-1.254-8.959c1.041 0 1.88-.839 1.88-1.878 0-1.04-.939-1.879-1.88-1.879-.938 0-1.867.839-1.867 1.879 0 1.039.828 1.878 1.867 1.878zm0-2.818c.526 0 .94.414.94.939s-.414.938-.94.938a.937.937 0 0 1-.938-.938c.011-.524.325-.939.938-.939zm-8.845 18.744h17.916v.939H64.738zm0 1.777h17.916v.94H64.738zm0 1.667h17.916v.939H64.738zm0 1.667H75.26v.938H64.738z"/></svg>