<svg version="1.1" id="Layer_2" xmlns="http://www.w3.org/2000/svg" x="0" y="0" width="73.75" height="60.083" viewBox="3.083 -3.259 73.75 60.083" xml:space="preserve"><path d="M5.597-3.217C4.239-3.217 3.2-2.176 3.2-.818v55.204c0 1.359 1.039 2.396 2.397 2.396h68.807c1.358 0 2.397-1.037 2.397-2.396V-.817c0-1.358-1.039-2.399-2.397-2.399H5.597zm0 1.6h68.807c.479 0 .798.319.798.8v7.2H4.8v-7.2c0-.481.318-.8.797-.8zM8.478.541c-.84 0-1.52.682-1.52 1.52v.003a1.52 1.52 0 1 0 3.04 0A1.524 1.524 0 0 0 8.478.541zm4.32 0c-.839 0-1.52.682-1.52 1.52v.003a1.52 1.52 0 1 0 1.52-1.523zm4.321 0c-.84 0-1.521.682-1.521 1.52v.003A1.52 1.52 0 1 0 17.119.541zM4.8 7.185h70.401v47.202c0 .479-.319.799-.798.799H5.597c-.479 0-.797-.32-.797-.799V7.185zm42.173 2.817c-.313-.004-.611.16-.731.461l-14.16 32.001c-.161.4 0 .883.398 1.041l.319.08c.242 0 .563-.16.722-.479l14.16-32.002c.158-.401 0-.88-.398-1.04a.9.9 0 0 0-.31-.062zM29.95 17.104a.877.877 0 0 0-.59.16l-11.201 8.878c-.242.16-.32.404-.32.645 0 .238.158.477.32.637l11.201 8.881c.159.08.319.16.48.16.239 0 .479-.16.64-.318.239-.32.159-.881-.159-1.121L19.92 26.787l10.401-8.244c.398-.24.398-.799.159-1.117a.672.672 0 0 0-.53-.322zm20.101.03a.814.814 0 0 0-.531.292c-.239.318-.159.877.159 1.117l10.402 8.244-10.402 8.238c-.398.24-.398.801-.159 1.121.161.238.401.318.641.318.161 0 .4-.08.48-.16l11.201-8.881c.241-.16.318-.398.318-.637 0-.24-.157-.484-.318-.645l-11.201-8.878a.807.807 0 0 0-.59-.129z"/></svg>