<svg version="1.1" id="Layer_1" xmlns="http://www.w3.org/2000/svg" x="0" y="0" width="60" height="60" viewBox="0 0 60 60" xml:space="preserve"><path d="M59.756 10.287L49.765.296a.832.832 0 0 0-1.178 0L29.072 19.811 9.504.245a.829.829 0 0 0-.817-.212L8.45.099A12.09 12.09 0 0 0 .1 8.452l-.068.235a.836.836 0 0 0 .212.817L19.811 29.07.296 48.588a.832.832 0 0 0 0 1.177l9.991 9.99a.827.827 0 0 0 1.178 0L30.98 40.24l8.607 8.607.165.127 18.362 10.852a.835.835 0 0 0 1.012-.128l.57-.571a.832.832 0 0 0 .128-1.012L48.975 39.752l-.127-.165-8.608-8.607 19.516-19.516a.832.832 0 0 0 0-1.177zM1.771 8.675A10.423 10.423 0 0 1 8.676 1.77l2.861 2.861-6.904 6.904-2.862-2.86zm3.45 3.45l6.904-6.904.661.659-6.904 6.905-.661-.66zm1.248 1.247l6.905-6.903 1.909 1.909-6.904 6.904-1.91-1.91zm2.498 2.499l6.904-6.904 1.91 1.908-6.905 6.905-1.909-1.909zm2.498 2.499l6.904-6.905 1.91 1.907-6.905 6.905-1.909-1.907zm2.498 2.497l6.904-6.904.66.66-6.905 6.904-.659-.66zm14.936 19.099l-2.742-2.741a.42.42 0 0 0-.589 0 .418.418 0 0 0 0 .589l2.741 2.742-1.076 1.076-1.076-1.076a.417.417 0 0 0-.59.589l1.077 1.076-1.077 1.076-1.908-1.909a.419.419 0 0 0-.59 0 .42.42 0 0 0 0 .589l1.91 1.909-1.077 1.077-1.076-1.077a.417.417 0 0 0-.59.588l1.077 1.078-1.077 1.076-2.741-2.742a.416.416 0 1 0-.589.588l2.742 2.742-1.077 1.076-1.076-1.076a.417.417 0 0 0-.59.589l1.077 1.076-1.077 1.077-1.909-1.91a.418.418 0 0 0-.589.59l1.909 1.909-1.076 1.076-1.077-1.076a.416.416 0 1 0-.589.589l1.076 1.075-1.076 1.077-2.742-2.741a.416.416 0 1 0-.589.589l2.742 2.741-1.076 1.076-1.077-1.076a.418.418 0 0 0-.589.59l1.076 1.075-2.447 2.447-8.807-8.813 18.926-18.928 8.814 8.816-.906.902zm-13.687-17.85l2.742-2.741 25.388 25.39a2.906 2.906 0 0 1-2.752 2.73L15.212 22.116zm39.286 33.639l-12.875-7.608a3.754 3.754 0 0 0 2.535-3.153 4.565 4.565 0 0 0 2.909-1.396l8.311 11.276-.88.881zM48.17 41.664l4.412 7.466 1.635 2.765-6.613-8.974c.248-.383.441-.806.566-1.257zm-.668-1.065a3.751 3.751 0 0 1-3.293 3.553 6.469 6.469 0 0 1-.28.02L18.542 18.786l3.574-3.575 25.386 25.388zm8.04-27.277l-2.741-2.741a.419.419 0 0 0-.59 0 .419.419 0 0 0 0 .59l2.742 2.74-1.077 1.077-1.075-1.077a.419.419 0 0 0-.59 0 .419.419 0 0 0 0 .59l1.076 1.076-1.076 1.077-1.909-1.909a.414.414 0 0 0-.589 0 .415.415 0 0 0 0 .588l1.908 1.909-1.077 1.077-1.076-1.077a.416.416 0 1 0-.589.589l1.076 1.076-1.076 1.077-2.742-2.742a.416.416 0 1 0-.589.589l2.741 2.742-1.076 1.076-1.076-1.076a.417.417 0 0 0-.59.589l1.077 1.076-1.077 1.075-1.909-1.908a.418.418 0 0 0-.589 0 .418.418 0 0 0 0 .589l1.908 1.909-1.076 1.076-1.076-1.076a.417.417 0 0 0-.59.588l1.077 1.077-1.077 1.076-2.741-2.741a.417.417 0 0 0-.59.588l2.742 2.742-1.077 1.076-1.076-1.076a.42.42 0 0 0-.59 0 .42.42 0 0 0 0 .59l1.077 1.075-.904.904-8.806-8.813L49.176 2.062l8.812 8.812-2.446 2.448z"/></svg>