<svg version="1.1" id="Layer_1" xmlns="http://www.w3.org/2000/svg" x="0" y="0" width="24" height="24" viewBox="0 0 24 24" xml:space="preserve"><path d="M11.995 3.769a.294.294 0 0 0-.288.298V12c-.006.396.592.396.587 0V4.066a.294.294 0 0 0-.299-.297z"/><path d="M12-.021C5.364-.021-.022 5.364-.022 12c0 6.637 5.386 12.021 12.021 12.021 6.637 0 12.022-5.385 12.022-12.021C24.021 5.364 18.637-.021 12-.021zm0 .585C18.319.564 23.436 5.681 23.436 12S18.318 23.436 12 23.436C5.681 23.436.564 18.318.564 12S5.681.564 12 .564z"/><path d="M12 1.459c-.098 0-.195.005-.293.008v1.179c.097-.003.195-.007.293-.007.099 0 .196.004.294.007V1.467c-.098-.003-.196-.008-.294-.008zM7.062 2.687a9.854 9.854 0 0 0-.512.287l.583 1.029c.167-.102.337-.197.511-.288l-.582-1.028zm10.137.144l-.611 1.011c.17.097.338.198.5.304l.613-1.012a9.83 9.83 0 0 0-.502-.303zM3.133 6.301c-.105.164-.207.331-.303.501l1.012.611a8.81 8.81 0 0 1 .304-.502l-1.013-.61zm17.892.251l-1.027.583a9.4 9.4 0 0 1 .287.51l1.029-.582a9.172 9.172 0 0 0-.289-.511zM1.466 11.707c-.003.098-.008.195-.008.294 0 .098.005.195.008.293h1.18c-.003-.098-.008-.195-.008-.293 0-.099.005-.196.008-.294h-1.18zm19.888 0c.004.098.008.195.008.294 0 .098-.004.195-.008.293h1.18c.002-.098.008-.195.008-.293 0-.099-.006-.196-.008-.294h-1.18zM3.715 16.355l-1.029.583c.092.173.187.343.288.511l1.028-.583c-.1-.167-.196-.337-.287-.511zm16.443.233a9.83 9.83 0 0 1-.303.502l1.012.61c.105-.164.205-.331.303-.501l-1.012-.611zM6.912 19.854L6.3 20.867c.164.105.331.206.501.303l.611-1.011a9.388 9.388 0 0 1-.5-.305zm9.955.143a9.199 9.199 0 0 1-.512.289l.582 1.028c.174-.092.344-.188.512-.288l-.582-1.029zm-5.16 1.357v1.179c.098.003.195.008.293.008.099 0 .196-.005.294-.008v-1.179c-.098.003-.195.007-.294.007-.098 0-.196-.004-.293-.007zM5.68 11.945a.294.294 0 0 0 .295.292l5.864.057a.294.294 0 0 0 .014-.587h-.009L5.98 11.65a.296.296 0 0 0-.301.287l.001.008z"/></svg>