<svg version="1.1" xmlns="http://www.w3.org/2000/svg" x="0" y="0" width="24" height="24" viewBox="0 0 24 24" xml:space="preserve"><g id="Layer_2"><path d="M20.571 16.145l-2.319 3.333-1.637-1.344a.415.415 0 1 0-.526.641l1.984 1.628a.407.407 0 0 0 .32.09.41.41 0 0 0 .283-.173l2.576-3.701a.415.415 0 0 0-.681-.474z"/><path d="M22.569 14.986V5.234A5.053 5.053 0 0 0 17.522.187H5.234A5.053 5.053 0 0 0 .187 5.234v12.288a5.053 5.053 0 0 0 5.047 5.047h9.752a5.367 5.367 0 0 0 3.438 1.243 5.394 5.394 0 0 0 5.388-5.388 5.362 5.362 0 0 0-1.243-3.438zM5.234 21.74a4.223 4.223 0 0 1-4.218-4.218V5.234a4.223 4.223 0 0 1 4.218-4.218h12.288a4.223 4.223 0 0 1 4.218 4.218v8.949c-.031-.024-.064-.045-.096-.069-.087-.064-.174-.13-.266-.19a5.244 5.244 0 0 0-.699-.386l-.093-.045c-.092-.04-.185-.074-.278-.11-.06-.022-.119-.045-.179-.065a5.616 5.616 0 0 0-.485-.136 4.561 4.561 0 0 0-.238-.051c-.095-.019-.191-.031-.288-.044-.064-.009-.129-.019-.194-.025a5.215 5.215 0 0 0-.5-.025c-2.543 0-4.675 1.772-5.238 4.146h-1.808a.414.414 0 1 0 0 .828h1.679a5.146 5.146 0 0 0-.021.415c0 .167.01.334.025.5.007.066.017.131.024.195a4.595 4.595 0 0 0 .096.526 5.978 5.978 0 0 0 .137.485c.02.059.042.115.063.173.035.096.07.19.111.283l.039.081a5.151 5.151 0 0 0 .391.71c.061.092.127.179.191.267.024.031.045.064.069.096H5.234zm13.191 1.243a4.533 4.533 0 0 1-3.329-1.454l-.061-.065a5.004 5.004 0 0 1-.246-.299l-.054-.071a5.13 5.13 0 0 1-.216-.327l-.041-.067a4.381 4.381 0 0 1-.187-.36c-.009-.02-.02-.038-.028-.059a4.24 4.24 0 0 1-.153-.392c-.005-.017-.012-.032-.018-.049a4.72 4.72 0 0 1-.113-.412l-.013-.048a4.523 4.523 0 0 1-.067-.417c-.002-.02-.007-.039-.009-.059a4.564 4.564 0 0 1 5.015-5.013l.056.008c.141.018.281.039.419.069.017.003.031.008.047.012.14.032.278.069.414.113l.046.017c.134.046.267.098.396.155l.055.026c.124.058.245.12.363.188.022.013.043.025.064.039.113.068.224.141.331.218l.066.051c.105.079.206.162.304.25l.062.056a4.534 4.534 0 0 1 1.456 3.331 4.565 4.565 0 0 1-4.559 4.559z"/><path d="M11.378 5.99h7.46a.414.414 0 0 0 0-.83h-7.46a.415.415 0 1 0 0 .83zm0 5.803h7.46a.414.414 0 0 0 0-.829h-7.46a.415.415 0 0 0 0 .829zM8.133 3.234l-2.59 3.021-1.584-1.189a.414.414 0 1 0-.497.663L5.356 7.15a.414.414 0 0 0 .564-.062l2.842-3.315a.414.414 0 1 0-.629-.539zm0 5.803l-2.59 3.021-1.584-1.188a.413.413 0 0 0-.58.083.412.412 0 0 0 .083.579l1.895 1.422a.413.413 0 0 0 .564-.063l2.842-3.316a.415.415 0 0 0-.63-.538zm0 6.217l-2.59 3.021-1.584-1.188a.414.414 0 1 0-.497.663l1.895 1.421a.414.414 0 0 0 .564-.062l2.842-3.316a.414.414 0 1 0-.63-.539z"/></g></svg>