<?xml version="1.0" encoding="utf-8"?>
<!-- Generator: Adobe Illustrator 16.0.0, SVG Export Plug-In . SVG Version: 6.00 Build 0)  -->
<!DOCTYPE svg PUBLIC "-//W3C//DTD SVG 1.1//EN" "http://www.w3.org/Graphics/SVG/1.1/DTD/svg11.dtd">
<svg version="1.1" id="Layer_1" xmlns="http://www.w3.org/2000/svg" xmlns:xlink="http://www.w3.org/1999/xlink" x="0px" y="0px"
	 width="222px" height="82px" viewBox="0 0 222 82" enable-background="new 0 0 222 82" xml:space="preserve">
<metadata><?xpacket begin="﻿" id="W5M0MpCehiHzreSzNTczkc9d"?>
<x:xmpmeta xmlns:x="adobe:ns:meta/" x:xmptk="Adobe XMP Core 5.3-c011 66.145661, 2012/02/06-14:56:27        ">
   <rdf:RDF xmlns:rdf="http://www.w3.org/1999/02/22-rdf-syntax-ns#">
      <rdf:Description rdf:about=""
            xmlns:dc="http://purl.org/dc/elements/1.1/">
         <dc:format>image/svg+xml</dc:format>
         <dc:title>
            <rdf:Alt>
               <rdf:li xml:lang="x-default">Web</rdf:li>
            </rdf:Alt>
         </dc:title>
      </rdf:Description>
      <rdf:Description rdf:about=""
            xmlns:xmp="http://ns.adobe.com/xap/1.0/"
            xmlns:xmpGImg="http://ns.adobe.com/xap/1.0/g/img/">
         <xmp:CreatorTool>Adobe Illustrator CS6 (Macintosh)</xmp:CreatorTool>
         <xmp:CreateDate>2017-10-24T10:29:07+03:00</xmp:CreateDate>
         <xmp:ModifyDate>2017-10-24T10:29:08+03:00</xmp:ModifyDate>
         <xmp:MetadataDate>2017-10-24T10:29:08+03:00</xmp:MetadataDate>
         <xmp:Thumbnails>
            <rdf:Alt>
               <rdf:li rdf:parseType="Resource">
                  <xmpGImg:width>256</xmpGImg:width>
                  <xmpGImg:height>92</xmpGImg:height>
                  <xmpGImg:format>JPEG</xmpGImg:format>
                  <xmpGImg:image>/9j/4AAQSkZJRgABAgEASABIAAD/7QAsUGhvdG9zaG9wIDMuMAA4QklNA+0AAAAAABAASAAAAAEA&#xA;AQBIAAAAAQAB/+4ADkFkb2JlAGTAAAAAAf/bAIQABgQEBAUEBgUFBgkGBQYJCwgGBggLDAoKCwoK&#xA;DBAMDAwMDAwQDA4PEA8ODBMTFBQTExwbGxscHx8fHx8fHx8fHwEHBwcNDA0YEBAYGhURFRofHx8f&#xA;Hx8fHx8fHx8fHx8fHx8fHx8fHx8fHx8fHx8fHx8fHx8fHx8fHx8fHx8fHx8f/8AAEQgAXAEAAwER&#xA;AAIRAQMRAf/EAaIAAAAHAQEBAQEAAAAAAAAAAAQFAwIGAQAHCAkKCwEAAgIDAQEBAQEAAAAAAAAA&#xA;AQACAwQFBgcICQoLEAACAQMDAgQCBgcDBAIGAnMBAgMRBAAFIRIxQVEGE2EicYEUMpGhBxWxQiPB&#xA;UtHhMxZi8CRygvElQzRTkqKyY3PCNUQnk6OzNhdUZHTD0uIIJoMJChgZhJRFRqS0VtNVKBry4/PE&#xA;1OT0ZXWFlaW1xdXl9WZ2hpamtsbW5vY3R1dnd4eXp7fH1+f3OEhYaHiImKi4yNjo+Ck5SVlpeYmZ&#xA;qbnJ2en5KjpKWmp6ipqqusra6voRAAICAQIDBQUEBQYECAMDbQEAAhEDBCESMUEFURNhIgZxgZEy&#xA;obHwFMHR4SNCFVJicvEzJDRDghaSUyWiY7LCB3PSNeJEgxdUkwgJChgZJjZFGidkdFU38qOzwygp&#xA;0+PzhJSktMTU5PRldYWVpbXF1eX1RlZmdoaWprbG1ub2R1dnd4eXp7fH1+f3OEhYaHiImKi4yNjo&#xA;+DlJWWl5iZmpucnZ6fkqOkpaanqKmqq6ytrq+v/aAAwDAQACEQMRAD8A9U4q7FWN6x+ZHkTR5Wh1&#xA;HXLSGdNnhWQSSKfBkj5sPpGQOSI6uwwdk6rKLhjkR7q+9D6f+a/5cahKIrbzBaB2NFEzmCp8B6wT&#xA;EZYnq2ZexdXAWccvhv8AdbK0dHRXRgyMAyspqCDuCCMm6witi3ih2KoW/wBV0vTkWTULyCzjc8Ue&#xA;4kSIMetAXIrgJAbcWGeQ1CJl7hbWn6vpWpK7afewXixkCRreVJQpPQNwJpiCCuXBPH9cTH3ikXha&#xA;nYqhNQ1fSdNCNqN7BZrJURm4lSIMR148yK0rgJAbcWDJk+iJlXcLQf8AjLyh/wBXzT/+kqH/AJqw&#xA;cY7278hqP9Tn/pT+p3+MvKH/AFfNP/6Sof8AmrHjHev5DUf6nP8A0p/UjrHU9N1CIy2F3DdxA0Mk&#xA;EiyKD80JGEG2jJhnA1IGJ8xSJwtb59/5yk1e+W50TSUlZLJ45biWJSQrvyCqWHfiAafPMXUnkHu/&#xA;Y7BGp5K9VgPBMxXt3Yq7FXYq7FXYq7FXYq7FXYq7FXYq7FXYqm/ljzVrnlnVYtS0i5eCaNgXQE+n&#xA;KoNSki9GU++SjIg2HF1mixaiBhkFj7vMPt+/vrOwsp768lWC0tkaWeZ9lVEFWJ+jNiTT41jxynIR&#xA;iLkdg+W/zI/OjzH5u1B9L0J5rPRHf0oLaCouLmvwgyFPiPLtGNvGpzCyZjLYcn0rsnsDDpYceWpZ&#xA;OZJ5R9361Ty7/wA44+etUtlub97fSI3FViuCzz79KxxghfkzV9sMdPIsdV7V6bGajc/dy+ZRetf8&#xA;4y+cbSBpdMvbXUitT6FWgkbw486p97jCdOejVp/a7TyNTjKHnzH6/sQ/5Rat+aOiec4/LFnbzSRI&#xA;/wDuR0m85LDDFX45akH0tjUMv2ttm2wYjIGmztzBos2nOaRF/wAMo8ye7z+PLyfUmZr5q7FXy5/z&#xA;kf5q/SvnOPR4X5Wuix+m1DUG4mo8h+heC/MHMLUSs13PpXspovD05yH6sh+wcv0lR/5x381fobzz&#xA;+i534WutJ9XIOwFxHVoSfn8SD3bHBKpV3svanR+LpuMfVj3+HX9fwfVOZr5m7FXhP/OVP+8Hl3/j&#xA;Ldf8RizG1PR7X2M+rJ7o/peb+UvyU84+adDh1rTHtFs52dUE0rI9Y2KNUBG7jxymOEyFh6HXe0Gn&#xA;02U458XEO4d/xTj/AKFp/MT/AH5p/wDyPf8A6p5L8vJxP9Fuk7p/IfrY5rXlL8w/y21K3v5RLp8h&#xA;altqNq/KJj14Fl23p9hxuO1MgYygXYafW6TtCBiKl3xPP8eYfRv5QfmSvnby+8lyFj1mwKxahGmy&#xA;tyB4SqOweh27EHMvFk4g+f8AbvZP5PLUf7uX0/pHweW/85S/8d/Q/wDmEk/5OZTqeYel9jf7rJ/W&#xA;H3MS/J38uNL886nqFpqFzPbJZwpKjW/CpLPxoeatleLGJF2nb3as9HCMoAHiNbse/MDy3a+WvOGp&#xA;aHaSvNb2TokcstOZDRq+/EAdW8MhONGnP7M1ctRp45ZCjLu97Hsi57NPym8j6f5z80vpF/PLbQLb&#xA;SXAkg48+SMgA+MMKfHlmKHEadR232jPSYPEiATxAb/FS/NPyZYeT/Nsmi2M8txAkMUokn486yAkj&#xA;4QoxyQ4TTLsbXy1WAZJAA2RszT8pvyV0Hzn5WfV7++uradbqS3EcHp8OKKjA/GrGvx5ZiwiQt1Hb&#xA;ftBl0mfw4xiRwg735+bxzMd6x2KvVfyd/KTRfPOm6jd6heXNs9nMkSLb+nQhk5VPNWy/FiEnme3u&#xA;28mjnGMIxPEL3t5xrthHp2uajp8TF4rO5mt0dqcisUhQE077ZSRReg02U5McZnnKIPzD3byx/wA4&#xA;4+VtW8taTqs2p30c2oWVvdSxp6PFWmiWRgtUJoC22ZMdOCAXitZ7V58WacBGFRlIdehrvTP/AKFd&#xA;8of9XbUPvh/6p5L8sO9xv9GOo/mQ+39aHvv+cWtAa3YWGtXcVz+w06Ryp8iqCI/jgOmHe2Y/bHLf&#xA;qhEjysfreG+cfJut+Udak0nVowsqjnDMlTFNGTQSRsQKjb5jvmNOBiaL2eg1+PVYxkxnb7Qe4pFk&#xA;XNfR3/OTnmuW10rT/LVu/E6gTc3tDQmGIgRofZpKn/Y5l6iW1Pn/ALIaISnLMf4dh7zz+z72/wDn&#xA;HT8u7O30lfOGoQiS/uy66YHFfRhUlGkUH9uQgiv8vTqccGPa19qu1ZSn+XgfTH6vM93uH3+57dmS&#xA;8a7FVgggE7TiNRO6hHlAHMqpJVS3WgLGg98WXEaq9l+LFLvMet22haDf6xc/3NjA8xX+YqPhQe7N&#xA;QDBI0LcjSac5ssccecjT5S/KzRLnzp+Z1vPfgzIJ31TU3ps3B/UofZ5WVT7HMHGOKT6d2zqI6TRE&#xA;R224I/d9gVPzg0C48o/mXcXNlWGO4lTVNOkUUCs782A7fBMrUHhTHLHhkx7C1I1WjEZb0OCX48w+&#xA;pfKmv2/mHy3p2tQUCX0CylQa8XpSRP8AYOCv0ZmxlYt811umODNLGf4T/Z9ia5JxXhP/ADlT/vB5&#xA;d/4y3X/EYsxtT0e19jPqye6P6WX/APOPn/krtO/4y3P/ACffJ4PpdV7T/wCOy90fuD0fLnn2Jfm1&#xA;a6fc/lx5gW+A9KOzkliLdpoxyhp7+oFGV5R6S7XsSc46zHw8+ID4Hn9jxP8A5xelnHnXU4lJ9BtN&#xA;dpB+zzWeEJX3ozUzH031PYe2AH5aJ68f6JIv/nKX/jv6H/zCSf8AJzDqeYavY3+6yf1h9zv+cWv+&#xA;O/rn/MJH/wAnMdNzK+2X91j/AKx+5hH52f8Ak0df/wCMsf8AyYjyrN9Rdz7P/wCJY/cfvLB8rdy9&#xA;X/5xp/8AJiSf9s+f/iceX6f6nmPa3/FB/XH3FD/85Gf+TLn/AOYW3/4icGf6mfsr/iY/rF6v/wA4&#xA;0/8Aku5f+2hP/wAm4sv0/wBLzHtb/jY/qD7y+Wcwn0t2Kvo7/nFn/jga5/zFRf8AJvMvTci+f+2X&#xA;97j/AKp+94T5x/5S/XP+2hdf8nmzGnzL2ug/xfH/AFI/cH0l5knng/5x1t5oJGilTRdN4yISrD4Y&#xA;BsRvmXL+7+D59pIiXaxBFjxZ/wC+fMv+Idf/AOrldf8AI+T/AJqzD4i+i/lcX82PyCd+TfP3m/Rf&#xA;MNldWd/czkzRpLZvK8kc6s1DGyMSDWtAeo7ZKEyC4ev7M0+bFKMoxGx3rl5va/8AnKKwtX8o6Vfs&#xA;g+twX4gjfuI5oZHcf8FCuZOpGzx/sdkkM84/wmF/EEV95fNOYb6G9d/5yc9b/lYFnz+x+jIfS/1f&#xA;Wmr/AMNXL9R9TyvshX5WVfzz90Xvv5bCEfl95b9GnD9G2lafzmFef/DVzKx/SHh+1r/N5b/ny+9k&#xA;eTde7FXYq7FXif8Azk55q+q6JYeWoHpLqL/WbtQf90Qn4FI8Hl3H+pmNqJbU9j7IaLiySzHlDYe8&#xA;8/s+9f8A842aFZaZ5YutdupY0u9Wl4Qh2UEW8BKjqajlJy+4YdPGhbH2s1MsmYYog8MB9p/ZSr/z&#xA;khoVjqvlO31m2lje80eX4wrKWa3nIRxQbni/A+wrjqI2LY+ympliznGQeHIPtH7L+xA/84w+avX0&#xA;3UfLE71ktG+uWSnr6UhCyqPZXof9lg08tqb/AGv0VTjmH8XpPvHL7Pue5ZkvFvCf+cqf94PLv/GW&#xA;6/4jFmNqej2vsZ9WT3R/SxP8vfz8/wAIeVrbQv0F9e+rvK/1n636PL1XL04ejJSnKn2srhn4RVO0&#xA;7U9mvzWc5fE4brbhvkP6wZJ/0NZ/36//AE//APZtk/zPk6//AEF/7b/sP+PME/ML85fM3niCPShb&#xA;rY6azqTYwFpHmkB+D1HIBah+yoUb+JpSqeUy2d32X2Dh0ZM74p952r3PZvyE/Lm78r6HPqeqxGLV&#xA;9V4EwMPihgSpRG8GYnkw+Q6jMjDj4RZeR9pe1Y6nKIQN44de8/jkwT/nKX/jv6H/AMwkn/JzK9Tz&#xA;DuvY3+6yf1h9zv8AnFr/AI7+uf8AMJH/AMnMdNzK+2X91j/rH7npXmX8nvy51zXLvVdUaQX90ytO&#xA;FufTFVUKPh7bKMtliiTZee0nburw4hCFcMeXpSz/AJUH+Uv88v8A0l4PBg5H+iXX+X+lT7yX+V3k&#xA;TyxrDalobSG9MTQkNP6o4MVJ+H5qMlDHEGw4Wv7Y1Wpx8GX6bvlTwr/nIz/yZc//ADC2/wDxE5jZ&#xA;/qe09lf8TH9YvV/+caf/ACXcv/bQn/5NxZfp/peY9rf8bH9QfeXyzmE+luxV9Hf84s/8cDXP+YqL&#xA;/k3mXpuRfP8A2y/vcf8AVP3vCfOP/KX65/20Lr/k82Y0+Ze10H+L4/6kfuD6z0LRNL1z8pdE0rVS&#xA;RYXWkWCzlW9M0WGJh8XbdRmcADAA9z5fqdRPDr8k4fVHJOvmWNf8qD/KX+eX/pLyHgwdh/ol1/l/&#xA;pU38r/lF+WWharFqGnwC4v4WDWzTzmbgw35IlePIdQSNu2SjiiC4us7c1maBhM1E86FML/5yf07z&#xA;LPYaZexKr+XbRiJ+FTItzKeKvIKU4caKpHcmvUZXqAfg7f2Py4ROUT/ey5d1Du8+/wDtfO2Yj3z6&#xA;N/5yc8qS3Wlaf5lt05fo8m2vSOoimIMTH2WSo/2WZeojtb5/7Ia0RnLCf4tx7xz+z7lX/nHL8wbW&#xA;70YeUb6UJqFiXfTuRp6sDEuyLXq0bEmn8vyOOCe1MfarsuUcn5iI9Mvq8j+37/e9rzJePdiqwTQm&#xA;ZoQ6mZFDvGCOQViQpI60PE0+WKeE1fRfih8c/mFrF956/Mq6/Rim6NxOtjpMSkANHGfTj4liAA5q&#xA;+5oK5r5nils+s9l4I6LRjj9NDil95+XJE/8AKhfzY/6sf/T1Z/8AVbD4Mu5r/wBEuh/1T/Yy/wCJ&#xA;d/yoX82P+rH/ANPVn/1Wx8GXcv8Aol0P+qf7GX/EoHyTquo+QvzHtH1ONrWSyuDa6rCSDSKT4Jd1&#xA;JVuIPNaGhoMEDwy3bu0MMNboyIeriFx9/MfqfZYIIBBqDuCM2D5I8J/5yp/3g8u/8Zbr/iMWY2p6&#xA;Pa+xn1ZPdH9K78nfyo8geYvIVlqusaX9av5pJ1km9e5jqElZV+GORF2A8McWKJjZXt3trVYNVKGO&#xA;dRAHSJ6eYVPzV/Iny1beVJ9R8p2BtdQ0+s80Ilnm9aBR+8UCV5KMo+IU60I8McuEVYY9i+0eaWcQ&#xA;zy4oy25AUenID3MQ/wCcctf0C08zyaXqVpbm9vqHS9QkRTLHMoPKJXO6+ovSncU75XgkLou19qtN&#xA;llhE4E8Mfqj0rvryfT+Zr5u+cf8AnKX/AI7+h/8AMJJ/yczE1PMPoHsb/dZP6w+53/OLX/Hf1z/m&#xA;Ej/5OY6bmV9sv7rH/WP3MI/Oz/yaOv8A/GWP/kxHlWb6i7n2f/xLH7j95YPlbuXq/wDzjT/5MST/&#xA;ALZ8/wDxOPL9P9TzHtb/AIoP64+4of8A5yM/8mXP/wAwtv8A8RODP9TP2V/xMf1i9E/5xe1mGbyz&#xA;qujlh9YtLsXIXofSnjVRTxo0TV+eXaY7U6H2wwEZoZOko18Qf2vC/PflS98q+aL7R7mMqkUjNaSH&#xA;pJbsSYnU96r18DUdsxZx4TT2nZutjqcEcg6jfyPUJBkXOfU35CeXp/LHkC61XWAbQXztfMsnw+na&#xA;xRji7g9KgM3ypmbgjwxsvmntLqhqdUIY/Vw+n3yJ/AfMus3/AOkNXvr/AI8frlxLPx8PVcvT8cwy&#xA;bL6Ngx+HjjD+aAPk+mvNX/rOEH/bF039UGZkv7v4PnOi/wCNc/8ADZ/758s5hPpa6OR43WSNikiE&#xA;MjqaEEbggjFBAIovrC0ub7WPyBmufMNTczaNcvJJJUswjRzbymtCWZVR/c5nDfHv3PmE4RxdqAYu&#xA;Qyx/RxD7w+TcwX1B97ahYWeoWM9jexLPaXKNFPC/2WRxQg5syLfEMWWWOQlE1Ibh8rfmN+TXmTyb&#xA;ftqmjia80WNvVgvYK+vbcTVfV4bqV7SDb5HbMLJiMdxyfTOyu3sOrjwZKjk5EHlL3fqRnlz/AJyR&#xA;87aZAlvqUNvrEabCWUGKcgdjInwn5lK++GOokObVqvZPTZDcCcfu3HyP60ZrP/OTvmy6gaLS9Otd&#xA;OdhT12LXDr7ry4JX/WU4TqD0acHshgibnKU/Ll+37UF+Umnfmjr3nSPzNZXMyxs4Gpard8mhliqO&#xA;cXEkersKBV+ztuuxwYhIm2/tvLosOnOGQH9GMeYPf5e88/N7f+cfmseW/IOo3Mb8Ly8X6lZePqTg&#xA;gsP9SPk30Zk5ZVF4zsHRfmNVEH6Y+o+4frNB43/zjT5V/SHmq51+ZK2+kRcYCf8AlonBUEf6sYb7&#xA;xmPp42beu9rdbwYBiHPId/cP20+mszHzl2Kvmr/nJnyr9T8xWfmKBKQ6pH6N0R/v+AAKT/rRUA/1&#xA;cw9RHe30P2R1vHilhPOBse4/t+96z+Sfmr/EX5f2DytyvNO/0C68awgcGP8ArRlT865fhlcXl/aD&#xA;ReBqpAfTP1D48/ttgv8AzlT/ALweXf8AjLdf8RiyvU9Hdexn1ZPdH9LL/wDnHz/yV2nf8Zbn/k++&#xA;TwfS6r2n/wAdl7o/cHo5Fdj0y5598lfnN5Fm8lecUvtMDQaZfP8AWtNkj29GVGDPEpHTgxDL7EeG&#xA;YOWHCdn1LsHtEazT8M95x2l5jv8Aj1fRH5X+eYPOXlO31EkDUIf3GpQig4zoBVgOyuPiX7u2ZWOf&#xA;ELeC7Y7OOkzmH8J3j7v2cnj3/OUv/Hf0P/mEk/5OZRqeYer9jf7rJ/WH3Jd/zjn5j0HQ9a1eXWL+&#xA;Cwjmto0ie4cRhmElSBXI4JAE25HtVpcubHAY4mREjy9zEPzb1Gw1L8xdavtPuEurOaSMwzxMGRgI&#xA;UBoR13GQym5F2vYmKWPSQjMVIA7H3liGVu1elfkDrej6N56ku9WvIrG1NlNGJp3CJzZ4yFqe5ocu&#xA;wECW7z3tNp8mXTCOOJlLiHL4qH57azpWsef5r3S7uK9tDbQKJ4GDoWVTUVHhgzEGWzP2bwTxaURm&#xA;DGXEdixryT5y1Xyh5gg1nTqM6AxzwNUJNC1OcbU8aAg9iAchCZibDsO0NBDVYjjn8D3HvfSMHm/8&#xA;oPzL0uGDWGtluV6WV84t7mJzTkIpQyFgafsNv3GZnFCY3fPpaHX9nTJx8Vd8dwfeP1hqz/Lv8kvK&#xA;sw1Sc2ivERJFJf3QkVd6rwjduLHb4fhJ8MRjhHdcnavaWpHAOLf+bGvtedfnJ+eMGv2knl7y0XGl&#xA;SGl9fsCjTgGojjU0ZY/5iQC3SlOtOXNeweg7B9nTgkMub6+ke7zPn933cWzHevfV/l/zd+WN9+XO&#xA;jaFrmsWDxHTLOC9s5bgIQ0UMdUajKwKuuZ0ZRMQCXzDVaHWw1c8uKE745EGu8lLv0H/zjT/vzSv+&#xA;kyT/AKq5Gsbkfme2O7J/pR+pVttP/wCcbrOYXET6OXj+ICS4My7b/Ykd1PTwwgY/JhPL2vMUfE+V&#xA;faAwz85/zs0zWdLfyz5YZpLGUgX1/wATGrohqIolIDcSQOTbV6DY5XlzWKDuOwPZ+eKfjZvqHKP6&#xA;S8PzGeyffubR8NdirGdX/LLyBq8xnv8AQrSSZt2lRPRdj4s0RQt9OQOOJ6Oxwdr6rEKhklXz+9Q0&#xA;/wDKX8t7CcT2/l+19RTVTKrTgEdCBKXGAYojozy9t6yYo5JfDb7qZYiIiKiKFRQFVVFAANgABljr&#xA;Cb3KD1XQ9E1eNItW0+21CKI8o0uoY5lViKVUSBqHAQDzbcOoyYjeOUok9xI+5vS9F0fSYGt9KsLf&#xA;T4Hb1HitYkhQuQByKxhQTQAVxAA5Lm1GTKbnIyPmSfvRmFpdiqE1TR9I1a3W21Sxt7+3VhIsN1Ek&#xA;yBwCAwWQMK0YiuAgHm24c+TEbhIxPka+5ZpWg6HpCSJpOnWunpKQ0q2sMcAYjYFhGFrT3xEQOSc2&#xA;py5aOSUpV3kn72tV0DQtXWNdW0611FYSTCLuGOcIWpXj6itStO2JiDzTh1OXFfhylG+4kfcrafpm&#xA;nabaraadaw2VohJS3t41ijBY1JCIFUVOIFMMuaeSXFMmUu8myicLWg9U0XR9WgW31Wwt9QgRvUSK&#xA;6iSZA4BHILIGANCRXAQDzbsOoyYjcJGJ8iR9yzSvL+gaP6o0nTbXTvX4+t9Ugjg58K8eXpqvKnI0&#xA;riIgck5tVly14kpTrvJP3vC/+cpdLvPrWh6osZazEcts8gBosnIOoY9uQJp8jmNqRyL2nsbmjw5I&#xA;fxWD8HguYr27sVdirsVdirsVdirsVdirsVdirsVdirsVTXyz5Z1jzLrEGlaTA09zMRyIB4RpX4pJ&#xA;G/ZVe5/jkoxJNBxtXrMenxmeQ0B9vkH3RmyfFnYq7FXYq7FXYq7FXYq7FXYq7FXYq7FXYq7FXYqs&#xA;nggniaKeNZYm2aNwGU/MHbFlGRibBooL/D2gf9Wy0/5ER/8ANODhDb+ay/zpfMu/w9oH/VstP+RE&#xA;f/NOPCF/NZf50vmXf4e0D/q2Wn/IiP8A5px4Qv5rL/Ol8y7/AA9oH/VstP8AkRH/AM048IX81l/n&#xA;S+Zd/h7QP+rZaf8AIiP/AJpx4Qv5rL/Ol8y7/D2gf9Wy0/5ER/8ANOPCF/NZf50vmXf4e0D/AKtl&#xA;p/yIj/5px4Qv5rL/ADpfMu/w9oH/AFbLT/kRH/zTjwhfzWX+dL5l3+HtA/6tlp/yIj/5px4Qv5rL&#xA;/Ol8y7/D2gf9Wy0/5ER/8048IX81l/nS+Zd/h7QP+rZaf8iI/wDmnHhC/msv86XzLv8AD2gf9Wy0&#xA;/wCREf8AzTjwhfzWX+dL5l3+HtA/6tlp/wAiI/8AmnHhC/msv86XzLv8PaB/1bLT/kRH/wA048IX&#xA;81l/nS+ZRVrZWVohS1t47dGNWWJFQE+JCgYgNc8kpfUSfekepee9GtL+bTreK71S+tqfWrfTraS5&#xA;MJYVAldR6aMf5S1fbImYczF2bknETJjCJ5GUhG/d1RWhebNH1qaa1tmlgv7YBriwu4ZLa4RW2DGO&#xA;UKSp/mWo98MZAtep0WTCBI0YnlKJBHzH3JxknEdirsVdiqFvtUsrGWziuX4Pfz/VbUBSeUpjeXjs&#xA;DT4ImNTgJptx4ZTEiP4RZ91gfeQisLU7FXYq7FUJa6rZXV9e2MLlrnTzGt0pBAUyoJEoTsaqe2AF&#xA;tnhlGMZHlK6+GyLwtTsVQS6zYNrT6KHP6QjtkvHj4mnoySNGrcun2oztgvem44JeH4n8PFw/Gr/S&#xA;jcLS7FXYq7FXYq7FXYq7FXYq7FXYq7FXYqhU1SyfVZdKV630MEd1JHxNBFK7xo3KnHdom2r2wXvT&#xA;acMhAT/hJI+Io/pCKwtTsVSx9etl8zReXzG/1mWykv1l24BIpUiK9a8qyg9Mjxb05I0x8E5b2EhH&#xA;5gn9DE9B1hfJkN1pOvafcwRfW7q5j1u3t5Lm2uVuZmmDzNAsjxSgPxYSCnw7GnSETw7F2epwfmyM&#xA;mKUSeGI4CRExoVQugR1Fd/K2QWEvlLzJqFnrum3cN7daZ6kaTW8illWZeLxSgfFTo3Fu4rkhR3Dg&#xA;5I59PCWKcTGM65ju6hFa63mjjAmgpZB3LfWJ75pSsYAHHhFEAXLHrV1p74ZX0atMMO5y8XkI1v8A&#xA;E8vkUt0rXfMVt5gi0LzFDatLeQy3GnahY+okUggKiWKSGUu0bgSBhR2BHywCRui5ObTYZYjlwmVR&#xA;IEoyqxd0QRzG3cFLzP5q1yw8y6ZoOkWEd5capbXEsbysyRxPBJEOcrCpEYjdq0UktxA64JSINBlo&#xA;9FinhllySMRCQ5dbB5ed15VbdrrvmnTdasdP8yRWcttqrNDY39gJY1S4SNpfRmjlaQ/GiNxdW6jc&#xA;CuESIO6J6bBkxynhMgYbmMq5XVgiuRIsefNL/wAw18znW/K/6PeyW3/Si/VhcJKXFx9SuqlyjAen&#xA;wrsN65Gd2HI7L8Hw8vHxX4e9Vy44cvO2Q655gk0HQobu9iF3qcpitobO1qv1i8looji5k8VLVNW6&#xA;KKnpkzKg4Gn0ozZTGJ4YCzZ6RHU/jmlE19+aNnanUZ7LS72KMepNpNo063PACpWKdyY5JB4GNQfH&#xA;I3Jyo49FOXAJZIn+ca4fiBuB8SnkfmC1u/LJ17TmE1u9q11b8hStELBWHUEEUYZLi2twzppQzeFP&#xA;Y8VFJvJmveb/ADDDZaxPbWlhoNzArpCyyteSsyD96vxCOONnqUBDErQ7VyMJE79HL1+m0+Ayxgyl&#xA;lB8uEb8u8mufIWmmkao1z5h16xMMca6e9sqyoKPJ6sAkrIe/GtB7ZIHcuNnw8OLHKz6uL4Ua2Saf&#xA;zN5uvfNmreXtFs7RE00QO+p3nqNGoniDhPSjZWkctXoygKOtTkeI2QHLjpMEMEMuSUvXfpjV7HvP&#xA;IfPdMfL2vaxJqt1oWvQQRarbRJdRT2hc29xbyMyc0V/jRkZeLKxPYg74YyN0XH1WmxiAy4iTAmqP&#xA;MEe7Y30K+PWHbz7caN9XiCR6VBeC6A/fEyXEsfplv5B6dQPEnDfqpBwf4KMln+8Ma6fSDfv3T/JO&#xA;CkXmjzHc6Y1nYabai/1vU3dLG1Z/TjCxrykmmejFYowRyoKkkAdcjKVcubm6PSjJxSmeHHDmefPk&#xA;B5n9qjYyfmDBe241KLTL2ymbjcNZ+tbywAioekzSrMopQ04nfpgHF1Z5BpDE8BnGQ5cVEH5VX2o7&#xA;Xj5qPoR6AtipYt9ZuL8ysEAA48IogvMk9ayLSnvhlfRp03gbnLx+QjX3nl8iluk675ht/MEeg+Y4&#xA;rUz3dvJc6df2PqLFKIGRZonilLvG6+orD4mBB8RgEjdFyM+mxSxeLhMqiQJRlVi7o2OY2PQKPmnz&#xA;Vrmn+YtP0LSLGO8u9UtbiW3aUsscckMkQ5zOteMSxu5NBUtxUdcEpEGgy0eixTwyy5JGMYSF1zII&#xA;PLzsD4WWRaUuqrYRDVngk1Df13tEeOE/EePBZGkbZaVq3X7smL6uBmMOI+HfD0vc/ZS7VLp7TTbu&#xA;7QBnt4ZJVVuhKIWANPliTsjDDimInqQGNeTNe83+YYbLWJ7a0sNBuYFdIWWVryVmQfvV+IRxxs9S&#xA;gIYlaHauQhInfo7HX6bT4DLGDKWUHy4Rvy7ya58hbQ1/zbrd9eL5ZisYNLsJntW1HUBLJ9YniPGV&#xA;YIoWjoiMChct1rQGmPETyX8tgwxj4xkZyF8MaFA8rJvc86rl1TLyx5hvNRkvtO1S1Wz1rS3RL2CN&#xA;jJE6SgtDPC5CkxyBWpUVBBB6ZKMr583H1mljjEZwPFjnyPXbmD5hJYvM/nPVfMGt6Po9pZwRaRcr&#xA;E2p3nqvGVkhjkRFijZGeSrNy+NQBx6k5HiJJAcyWj0+LFjyZDImcb4Y1fMjmeQ5Vseqb+Wtf1O7v&#xA;r/Rtat4rfWNNEUjtbMzQT28/L0pouYDrvGysprQjruMMZHkXF1emhGMcmMk453z5gjmD8wQWP6ev&#xA;nH/laN760mnGP9G2Rn4JOD9V+tXXAJV/737VSdum2RF8TnZTp/yUaE/rlXL6uGHly+1lWunzWWgj&#xA;0FbFQ3I3NzfGVuFB8ISGLjzqTuTItKe+TlfR1mm8Dc5ePyEa+88vkUBo2u69Hr50DzDDbfWpbZry&#xA;wvrIusM0cTrHMjRSlnjkQyIacmBB67YBI3Rb9RpsRxeLiMuES4ZCXMXuNxzBo9AhZ/8Aybtn/wCA&#xA;/df9Rtvg/j+DZH/EJf8ADo/7iSI8u+edPvo2s9Xki0rzBakx3+mTuI2VgaB4uZHqRPsVdajfxwxn&#xA;fPmw1XZ04HixgzxS+mQ/T3EdQlGp3eh6l5/0NvLrRXGtWssja3eWhDImntA6mK6dDxYvL6fpq1SC&#xA;K7ZEkGQrm5WGGTHpcnjWMcgOAH+fY3iPIXZ+C7zhPZT+crLS/MOoS6f5cls/VtkEzWsF1eiUh4pp&#xA;1KH93GEZY+Q5V70xnzo8kaGMhp5TxREsolR24jGNcwPM3ZrZLLCDyLa/mZodn5ZELTxW18b97aRp&#xA;lWqRiNHcs45/aNK18eowDh4hTk5ZamWjySzXRlDhsV33t3MnugD+Z2mVHTRb8j/pKs8mfq+DrYf4&#xA;lP8A4bD/AHM1D8wf97fJ/wD4EEH/AFC3OCfT3s+y/pzf8JP+6gu/MS7i09fL2q3NVsNO1eKW+noS&#xA;sUUlvPb+o9Oiq868j2xyGqPmvZcDPxMY+qeMgeZEoyr5ArfPPKWw0PzDYg39npF9DqUqW/771bR4&#xA;pInliCV5lEn9RadQNsZ9CvZ20smKXplOBjvtUrBo91kUjLz8xPJtvpQ1GPVbe7SRf9Gt7aRZZ53N&#xA;OMUUSkuzsSBxpt3wnIKasfZeolPgMJR7yRQHmTypA+X9IvdI/LBrK+UR3gs7uaeIGoje4Mk5jH/G&#xA;P1OP0YIiot2pzxy63ij9PFEDzqhfxq058mKF8n6EqiijT7QADoB6CZKHIOJr/wDGMn9eX3lAeXP+&#xA;Uy83f8ZbH/qEXBHmW/Vf4vh90/8AdO8uf8pl5u/4y2P/AFCLjHmV1X+L4fdP/dOf/wAmdD/2xZf+&#xA;ouPH+L4KP8SP/DR/uSh4P/Ju3n/gP2v/AFG3GD+P4M5f4hH/AIdL/cRZfljqmHebLhdE82aP5mu1&#xA;J0hLa502/uApYWv1h4pYp3pWicoCjN2qK5XLYgu20UfGwTwx/vOKMoj+dVgj372B1Tj/ABl5Va7t&#xA;LOLVLe4ur5uFrBbuJ3favKkXOigDdj8PvkuMOJ+Qz8JkYSEY8ydvv+7mxzzZNY3HnO10nzHeyWPl&#xA;+SzE1iizPaw3V4JWEkc0yGMkxoEZI+VDUnftCXOjydhooyjpzkwxEsvFR24jGNbEDfmbs0ldhD5G&#xA;tfzO0Oy8spCZora+N/LbOZUWqRiONn5OOezHjWo79cA4eIU5OWWplosks10ZQq9u+z7mUXag/mdp&#xA;ZIqRot+R7H61ZjJn6vg62H+JT/4bD/czZRk3Wpf5h/44Gp/8wk//ACbbBLk36X+9j/WH3ofyYoXy&#xA;foSqKKNPtAAOgHoJghyDZr/8Yyf15feWAeXtN0SwfUNG1rzDf6NqVldXMgtzftaQS200zzRXEAYq&#xA;rKyP8fHo4atMqiANiad5qsuSYjkx44ZISjHfg4iCAAYn9HlTJ/Itp5bmu9Q1jR72+1Mvxsn1C8le&#xA;aKVYGZh9XkcUdFd2HJdq1ycAOYdd2jPMIxx5Ixh/FwxFEX/OHQ7BE+TP+On5u/7bR/6gLPDDmfe1&#xA;6/6MP/Cv9/N1r/5M7U/+2LYf9Rd5iPq+Cz/xKP8Aw2f+5ghptRtNO/NIpfSC3XVtJtrfT5JCFSWe&#xA;3ubhpIVY9ZOM6EL3wXUvg2RxSyaL078GSRl5AxjR93pKA80y6dd+d49K8zahJYaEbOOXTbf1ntLe&#xA;7uTI4nEs6NHyaJVj4xcv2q0wS+qjybtGJx0xnhiJZOIiRriMY0Kob897lXSkBo0Xki3/ADQ0y08s&#xA;LCWh06/+vyWzmWPkZLbghk5OvNQCSK1FRXrgHDxbN+olqZaKUs17zhV7dJXt3J/P/wCTds//AAH7&#xA;r/qNt8l/H8HBj/iEv+HR/wBxJNfMv+DPRj/xP+jfR39L9J+hx/yuPr7fPJSrq42k/MX+547/AKF/&#xA;oRmi/oP6iP0J9V+o8jx+pen6XLvT0vhrhFdGnUeLxfvOLi/pXf2r9V/RX1GX9K+h9Qp+++tcPRp/&#xA;lep8P34muqMPHxDw74vLn9iH0r/DXoQfon6l6FX+rfVPS4V29T0/T28OVMRXRnm8az4nFfW7+F2j&#xA;j9V+tLXh9a4NwrT1PTqvKn7XHlxr9GFp9XD/AEfstq4+p8ofrPp8vUH1f1ONfVoacK/tUr03xTHi&#xA;3q+W/uVJfS9J/V4+lxPqc6ceNN612pTFjG725rbf6v8AV4vq3D6vwX0fTpw4U+HjTalOlMUyuzfN&#xA;KrT/AAb+l3+qfo79MVPqel6H1mu/Llx/efPIircmf5jw/Vx+H53w/qTeT0/Tb1KenQ8+VOPGm9a9&#xA;sk4ou9mofR9GP0ePo8R6XCnHjT4eNNqU6YrK735rY/qvrTelw9eq+vxpzrT4edN/s9K4pPFQvl0d&#xA;H9V9ab0uHr1X1+NOdafDzpv9npXFTxUL5dHf6L9aH2PrXA06ep6dRX/K48sV9XD/AEWh9T+uNT0/&#xA;rnpjl9n1fS5HjX9rjyrTtXFPq4evDfwtWxYLZPT9NvUp6dDz5U48ab1r2xSLvZKtF/wj6836D/R/&#xA;r7/WPqXo8+orz9Lfr45EV0cnUePQ8XjrpxX+lF6v+h/qL/pj6v8AUdvU+t8PS9uXqfDhNdWvB4nF&#xA;+74uL+jd/Yo6X/hz0Lf9FfU/Q+P6r9V9Lh29T0/T28OVMRXRlm8azx8V9bv4XaNP1X60teH1rg3C&#xA;tPU9Oq8qftceXGv0YWn1cP8AR+y1XFitk9P029Snp0PPlTjxpvWvbFIu9mofR9GP0ePo8R6XCnHj&#xA;T4eNNqU6YrK735pbr3+FvSj/AE/9R9Kp9L6/6PGu1ePq7fdkZV1cjTePZ8Ljv+jf6EwtPqn1WL6n&#xA;6f1XiPQ9Gnp8KbceO1Plkg0T4uI8X1dbdD9V5Tehw58/9I4Ur6nEfbp+1x49e1MVlxbX8Pc4fVfr&#xA;TU4fWuC86U9T06txr+1x5cqfTivq4f6P2W64+qfu/rPp/wB4vo+pT+8/Z41/a8KYrHi3r8BD6v8A&#xA;ob6k36Y+rfUa/H9c4elX39T4cBrq2YPE4v3fFxf0bv7Fmmf4f9G2/Rn1T0eL/U/q3p8eFR6np8Nq&#xA;V48uPtiK6JzeLZ4+K+t38LtFH6n9cWvp/XPTPH7Pq+lyHKn7XHlSvauFr9XD14b+Fv8A/9k=</xmpGImg:image>
               </rdf:li>
            </rdf:Alt>
         </xmp:Thumbnails>
      </rdf:Description>
      <rdf:Description rdf:about=""
            xmlns:xmpMM="http://ns.adobe.com/xap/1.0/mm/"
            xmlns:stRef="http://ns.adobe.com/xap/1.0/sType/ResourceRef#"
            xmlns:stEvt="http://ns.adobe.com/xap/1.0/sType/ResourceEvent#">
         <xmpMM:RenditionClass>proof:pdf</xmpMM:RenditionClass>
         <xmpMM:OriginalDocumentID>uuid:65E6390686CF11DBA6E2D887CEACB407</xmpMM:OriginalDocumentID>
         <xmpMM:DocumentID>xmp.did:01801174072068118A6DF078F275233D</xmpMM:DocumentID>
         <xmpMM:InstanceID>xmp.iid:01801174072068118A6DF078F275233D</xmpMM:InstanceID>
         <xmpMM:DerivedFrom rdf:parseType="Resource">
            <stRef:instanceID>uuid:0422f9ea-96fe-9946-a099-8d9eefc40c79</stRef:instanceID>
            <stRef:documentID>xmp.did:66A6819719206811822A897E387FE54C</stRef:documentID>
            <stRef:originalDocumentID>uuid:65E6390686CF11DBA6E2D887CEACB407</stRef:originalDocumentID>
            <stRef:renditionClass>proof:pdf</stRef:renditionClass>
         </xmpMM:DerivedFrom>
         <xmpMM:History>
            <rdf:Seq>
               <rdf:li rdf:parseType="Resource">
                  <stEvt:action>saved</stEvt:action>
                  <stEvt:instanceID>xmp.iid:01801174072068118A6DF078F275233D</stEvt:instanceID>
                  <stEvt:when>2017-10-24T10:29:08+03:00</stEvt:when>
                  <stEvt:softwareAgent>Adobe Illustrator CS6 (Macintosh)</stEvt:softwareAgent>
                  <stEvt:changed>/</stEvt:changed>
               </rdf:li>
            </rdf:Seq>
         </xmpMM:History>
      </rdf:Description>
      <rdf:Description rdf:about=""
            xmlns:illustrator="http://ns.adobe.com/illustrator/1.0/">
         <illustrator:StartupProfile>Web</illustrator:StartupProfile>
      </rdf:Description>
      <rdf:Description rdf:about=""
            xmlns:xmpTPg="http://ns.adobe.com/xap/1.0/t/pg/"
            xmlns:stDim="http://ns.adobe.com/xap/1.0/sType/Dimensions#"
            xmlns:xmpG="http://ns.adobe.com/xap/1.0/g/">
         <xmpTPg:NPages>1</xmpTPg:NPages>
         <xmpTPg:HasVisibleTransparency>False</xmpTPg:HasVisibleTransparency>
         <xmpTPg:HasVisibleOverprint>False</xmpTPg:HasVisibleOverprint>
         <xmpTPg:MaxPageSize rdf:parseType="Resource">
            <stDim:w>222.000000</stDim:w>
            <stDim:h>82.000000</stDim:h>
            <stDim:unit>Pixels</stDim:unit>
         </xmpTPg:MaxPageSize>
         <xmpTPg:PlateNames>
            <rdf:Seq>
               <rdf:li>Cyan</rdf:li>
               <rdf:li>Magenta</rdf:li>
               <rdf:li>Yellow</rdf:li>
               <rdf:li>Black</rdf:li>
            </rdf:Seq>
         </xmpTPg:PlateNames>
         <xmpTPg:SwatchGroups>
            <rdf:Seq>
               <rdf:li rdf:parseType="Resource">
                  <xmpG:groupName>Default Swatch Group</xmpG:groupName>
                  <xmpG:groupType>0</xmpG:groupType>
                  <xmpG:Colorants>
                     <rdf:Seq>
                        <rdf:li rdf:parseType="Resource">
                           <xmpG:swatchName>carhub - red</xmpG:swatchName>
                           <xmpG:mode>RGB</xmpG:mode>
                           <xmpG:type>PROCESS</xmpG:type>
                           <xmpG:red>209</xmpG:red>
                           <xmpG:green>0</xmpG:green>
                           <xmpG:blue>28</xmpG:blue>
                        </rdf:li>
                     </rdf:Seq>
                  </xmpG:Colorants>
               </rdf:li>
            </rdf:Seq>
         </xmpTPg:SwatchGroups>
      </rdf:Description>
      <rdf:Description rdf:about=""
            xmlns:pdf="http://ns.adobe.com/pdf/1.3/">
         <pdf:Producer>Adobe PDF library 10.01</pdf:Producer>
      </rdf:Description>
   </rdf:RDF>
</x:xmpmeta>
                                                                                                    
                                                                                                    
                                                                                                    
                                                                                                    
                                                                                                    
                                                                                                    
                                                                                                    
                                                                                                    
                                                                                                    
                                                                                                    
                                                                                                    
                                                                                                    
                                                                                                    
                                                                                                    
                                                                                                    
                                                                                                    
                                                                                                    
                                                                                                    
                                                                                                    
                                                                                                    
                           
<?xpacket end="w"?>
	</metadata>
<g>
	<path fill="#D1001C" d="M85.358,12.23H96.9c1.764,0,3.268,0.62,4.506,1.858c1.24,1.239,1.859,2.742,1.859,4.507
		c0,1.766-0.619,3.26-1.859,4.483c-1.238,1.223-2.742,1.834-4.506,1.834H85.358V12.23z M85.358,42.576V29.894h8.649l7.678,12.683
		h5.758l-7.848-12.999c2.527-0.599,4.602-1.911,6.221-3.936c1.619-2.024,2.43-4.373,2.43-7.046c0-2.041-0.51-3.932-1.531-5.673
		c-1.02-1.741-2.4-3.122-4.143-4.143c-1.74-1.021-3.633-1.531-5.672-1.531H80.377v35.327H85.358z M56.363,13.712l5.686,14.529
		H50.653L56.363,13.712z M45.09,42.576l3.62-9.354h15.282l3.668,9.354h5.321L59.157,7.25h-5.564L39.745,42.576H45.09z M9.632,37.984
		c1.652,1.652,3.616,2.964,5.892,3.936c2.275,0.973,4.668,1.458,7.179,1.458c2.446,0,4.762-0.458,6.949-1.372
		c2.187-0.916,4.146-2.199,5.88-3.852l-3.475-3.547c-2.64,2.527-5.758,3.791-9.354,3.791c-1.831,0-3.58-0.356-5.248-1.069
		c-1.668-0.712-3.102-1.668-4.3-2.867c-1.198-1.199-2.155-2.633-2.867-4.301c-0.713-1.668-1.069-3.417-1.069-5.248
		c0-1.814,0.356-3.555,1.069-5.224c0.712-1.668,1.668-3.106,2.867-4.313c1.199-1.206,2.632-2.166,4.3-2.879
		c1.668-0.712,3.417-1.069,5.248-1.069c1.782,0,3.475,0.332,5.078,0.996c1.603,0.664,3.028,1.596,4.276,2.794l3.475-3.547
		c-3.645-3.482-7.921-5.224-12.829-5.224c-2.511,0-4.904,0.486-7.179,1.458c-2.276,0.972-4.24,2.284-5.892,3.936
		c-1.652,1.652-2.964,3.616-3.936,5.892c-0.972,2.276-1.458,4.669-1.458,7.18c0,2.511,0.486,4.904,1.458,7.179
		C6.668,34.368,7.98,36.332,9.632,37.984z"/>
	<path fill="#D1001C" d="M220,44.723c0,2.025-2.84,4.277-5.126,4.277h-97.726c-2.285,0-3.148-2.252-3.148-4.277V5.058
		C114,3.031,114.863,1,117.148,1h97.726C217.16,1,220,3.031,220,5.058V44.723z"/>
	<path fill="#FFFFFF" d="M191.078,14.947h10.91c1.216,0,2.25,0.425,3.101,1.276c0.851,0.85,1.274,1.884,1.274,3.101
		c0,1.217-0.424,2.244-1.274,3.08c-0.851,0.837-1.885,1.255-3.101,1.255h-10.91V14.947z M191.078,27.89h12.652
		c1.215,0,2.25,0.425,3.101,1.276c0.851,0.85,1.274,1.884,1.274,3.101c0,1.217-0.424,2.244-1.274,3.08
		c-0.851,0.837-1.886,1.255-3.101,1.255h-12.652V27.89z M203.73,40.853c2.377,0,4.41-0.836,6.098-2.51
		c1.688-1.673,2.529-3.699,2.529-6.077c0-1.493-0.353-2.873-1.058-4.138c-0.704-1.265-1.667-2.292-2.883-3.08
		c1.465-1.646,2.198-3.554,2.198-5.725c0-2.378-0.844-4.411-2.53-6.098c-1.688-1.687-3.72-2.531-6.099-2.531h-15.161v30.158
		L203.73,40.853L203.73,40.853z M156.005,35.211c1.134,1.95,2.672,3.492,4.615,4.625c1.942,1.133,4.055,1.701,6.336,1.701
		c2.282,0,4.394-0.567,6.337-1.701c1.941-1.134,3.48-2.676,4.615-4.625c1.133-1.95,1.699-4.065,1.699-6.347V10.695h-4.23v18.169
		c0,2.309-0.826,4.29-2.479,5.942c-1.653,1.652-3.633,2.479-5.942,2.479s-4.286-0.826-5.933-2.479
		c-1.646-1.653-2.467-3.633-2.467-5.942V10.695h-4.252v18.169C154.305,31.146,154.871,33.262,156.005,35.211z M125.973,40.853V27.89
		h16.82v12.963h4.252V10.695h-4.252v12.963h-16.82V10.695h-4.252v30.158H125.973z"/>
	<path fill="#D1001C" d="M216.344,76.396h0.891V59.689h-0.891V76.396z M209.816,70.473v2.739c-0.029,0.356-0.137,0.687-0.322,0.991
		c-0.188,0.305-0.438,0.568-0.758,0.791s-0.688,0.4-1.104,0.535c-0.416,0.133-0.861,0.199-1.337,0.199
		c-0.489,0-0.946-0.07-1.37-0.211c-0.423-0.142-0.794-0.33-1.113-0.568c-0.318-0.237-0.571-0.516-0.758-0.835
		c-0.186-0.319-0.277-0.657-0.277-1.015c0-0.356,0.104-0.693,0.312-1.014c0.207-0.318,0.489-0.598,0.847-0.835
		c0.355-0.237,0.775-0.428,1.258-0.567c0.483-0.141,1-0.211,1.55-0.211H209.816L209.816,70.473z M203.379,66.773
		c0.326-0.207,0.729-0.4,1.203-0.578c0.475-0.18,1.047-0.269,1.715-0.269c0.49,0,0.947,0.056,1.37,0.167
		c0.424,0.111,0.795,0.29,1.114,0.534c0.318,0.246,0.57,0.558,0.757,0.937s0.278,0.828,0.278,1.348v0.669h-3.073
		c-0.669,0-1.296,0.093-1.884,0.278c-0.586,0.185-1.103,0.438-1.547,0.758c-0.446,0.318-0.795,0.689-1.047,1.113
		c-0.254,0.424-0.379,0.879-0.379,1.369s0.113,0.946,0.344,1.371c0.231,0.424,0.547,0.795,0.947,1.112
		c0.4,0.319,0.868,0.571,1.403,0.758c0.534,0.187,1.106,0.278,1.715,0.278c0.356,0,0.709-0.044,1.06-0.135
		c0.349-0.088,0.676-0.207,0.979-0.354s0.582-0.323,0.835-0.524c0.252-0.199,0.469-0.403,0.646-0.611v1.402h0.892v-7.484
		c0-0.639-0.115-1.202-0.347-1.691c-0.23-0.49-0.545-0.896-0.945-1.215c-0.4-0.318-0.869-0.561-1.402-0.725
		c-0.535-0.163-1.106-0.244-1.717-0.244c-0.771,0-1.459,0.111-2.061,0.334c-0.603,0.223-1.104,0.482-1.504,0.779L203.379,66.773z
		 M193.332,66.15h2.005v7.129c0,0.43,0.082,0.835,0.245,1.213c0.163,0.379,0.386,0.71,0.669,0.992
		c0.281,0.281,0.612,0.504,0.991,0.668c0.378,0.164,0.783,0.244,1.214,0.244v-0.892c-0.624,0-1.151-0.215-1.582-0.646
		c-0.431-0.432-0.646-0.959-0.646-1.582V66.15h2.228V65.26h-2.228v-4.678l-0.893,0.223v4.455h-2.005L193.332,66.15L193.332,66.15z
		 M189.456,69.225c0-0.578-0.11-1.121-0.334-1.627c-0.224-0.504-0.522-0.945-0.901-1.324s-0.82-0.68-1.326-0.901
		c-0.504-0.222-1.047-0.334-1.625-0.334c-0.832,0-1.567,0.196-2.205,0.59c-0.64,0.394-1.151,0.91-1.537,1.549V65.26h-0.893v11.139
		h0.893V69.67c0-0.52,0.1-1.006,0.301-1.459c0.199-0.453,0.471-0.85,0.812-1.191c0.34-0.34,0.738-0.608,1.191-0.803
		c0.452-0.191,0.932-0.289,1.438-0.289c0.459,0,0.891,0.086,1.291,0.256c0.401,0.172,0.75,0.404,1.047,0.702
		s0.531,0.646,0.703,1.048c0.17,0.4,0.256,0.83,0.256,1.291v7.174h0.891L189.456,69.225L189.456,69.225z M172.516,66.273
		c0.481,0.229,0.901,0.545,1.258,0.945c0.357,0.401,0.639,0.872,0.848,1.415c0.207,0.541,0.334,1.125,0.378,1.748h-8.22
		c0.045-0.623,0.175-1.207,0.39-1.748c0.216-0.543,0.502-1.014,0.858-1.415c0.354-0.4,0.774-0.716,1.258-0.945
		c0.482-0.23,1.021-0.347,1.615-0.347S172.032,66.043,172.516,66.273z M169.284,75.384c-0.482-0.229-0.902-0.546-1.259-0.946
		c-0.355-0.4-0.643-0.873-0.857-1.414c-0.215-0.543-0.345-1.125-0.391-1.75h9.111v-0.444c0-0.802-0.123-1.556-0.367-2.261
		s-0.584-1.317-1.021-1.838s-0.963-0.933-1.578-1.236c-0.615-0.305-1.293-0.456-2.033-0.456s-1.418,0.151-2.033,0.456
		s-1.142,0.717-1.578,1.236c-0.438,0.521-0.778,1.133-1.022,1.838s-0.366,1.459-0.366,2.261c0,0.803,0.122,1.557,0.367,2.262
		s0.587,1.318,1.023,1.839c0.438,0.52,0.967,0.932,1.582,1.235c0.617,0.304,1.297,0.456,2.039,0.456
		c0.979,0,1.812-0.196,2.494-0.592c0.684-0.393,1.277-0.924,1.782-1.592l-0.69-0.602c-0.432,0.564-0.924,1.021-1.48,1.369
		c-0.559,0.35-1.259,0.523-2.105,0.523C170.307,75.729,169.768,75.614,169.284,75.384z M163.326,65.037
		c-1.129,0-2.031,0.244-2.706,0.734c-0.677,0.489-1.17,1.145-1.481,1.961V65.26h-0.892v11.139h0.892V70.45
		c0-0.652,0.09-1.255,0.268-1.804c0.179-0.551,0.441-1.024,0.791-1.426c0.349-0.402,0.783-0.717,1.304-0.947
		c0.521-0.229,1.128-0.346,1.826-0.346L163.326,65.037L163.326,65.037z M146.484,65.037c-1.129,0-2.03,0.244-2.705,0.734
		c-0.678,0.489-1.17,1.145-1.481,1.961V65.26h-0.892v11.139h0.892V70.45c0-0.652,0.089-1.255,0.267-1.804
		c0.18-0.551,0.442-1.024,0.791-1.426c0.35-0.402,0.783-0.717,1.305-0.947c0.52-0.229,1.128-0.346,1.826-0.346v-0.891H146.484z
		 M134.945,70.473v2.739c-0.028,0.356-0.137,0.687-0.321,0.991c-0.187,0.305-0.438,0.568-0.758,0.791
		c-0.32,0.223-0.687,0.4-1.103,0.535c-0.416,0.133-0.861,0.199-1.338,0.199c-0.49,0-0.945-0.07-1.369-0.211
		c-0.424-0.142-0.795-0.33-1.113-0.568c-0.319-0.237-0.572-0.516-0.758-0.835c-0.187-0.319-0.278-0.657-0.278-1.015
		c0-0.356,0.104-0.693,0.312-1.014c0.207-0.318,0.489-0.598,0.846-0.835s0.776-0.428,1.26-0.567
		c0.482-0.141,0.998-0.211,1.549-0.211H134.945L134.945,70.473z M128.509,66.773c0.326-0.207,0.728-0.4,1.203-0.578
		c0.476-0.18,1.047-0.269,1.715-0.269c0.49,0,0.947,0.056,1.37,0.167c0.424,0.111,0.795,0.29,1.114,0.534
		c0.319,0.246,0.571,0.558,0.757,0.937s0.277,0.828,0.277,1.348v0.669h-3.072c-0.669,0-1.296,0.093-1.883,0.278
		c-0.588,0.185-1.104,0.438-1.549,0.758c-0.445,0.318-0.795,0.689-1.047,1.113s-0.379,0.879-0.379,1.369s0.114,0.946,0.346,1.371
		c0.23,0.424,0.546,0.795,0.947,1.112c0.399,0.319,0.867,0.571,1.402,0.758c0.534,0.187,1.105,0.278,1.715,0.278
		c0.356,0,0.709-0.044,1.059-0.135c0.35-0.088,0.677-0.207,0.98-0.354c0.305-0.147,0.582-0.323,0.835-0.524
		c0.253-0.199,0.468-0.403,0.646-0.611v1.402h0.893v-7.484c0-0.639-0.115-1.202-0.346-1.691c-0.23-0.49-0.547-0.896-0.946-1.215
		c-0.401-0.318-0.868-0.561-1.403-0.725c-0.535-0.163-1.105-0.244-1.715-0.244c-0.773,0-1.46,0.111-2.062,0.334
		c-0.603,0.223-1.103,0.482-1.503,0.779L128.509,66.773z M122.693,74.415c-0.416,0.416-0.895,0.739-1.437,0.969
		c-0.542,0.23-1.125,0.345-1.749,0.345c-0.623,0-1.214-0.117-1.771-0.354c-0.557-0.238-1.043-0.572-1.459-1.003
		c-0.416-0.432-0.742-0.946-0.979-1.548c-0.237-0.603-0.356-1.267-0.356-1.994s0.119-1.394,0.356-1.994s0.563-1.117,0.979-1.547
		c0.416-0.433,0.902-0.767,1.459-1.003c0.558-0.237,1.147-0.355,1.771-0.355c1.277,0,2.34,0.438,3.186,1.313l0.646-0.624
		c-0.49-0.505-1.062-0.895-1.716-1.169c-0.653-0.275-1.358-0.412-2.116-0.412c-0.757,0-1.467,0.142-2.127,0.423
		c-0.66,0.282-1.236,0.68-1.727,1.191c-0.491,0.512-0.881,1.121-1.17,1.826s-0.435,1.488-0.435,2.351s0.146,1.646,0.435,2.351
		c0.289,0.706,0.68,1.313,1.17,1.827c0.49,0.513,1.064,0.909,1.727,1.191c0.66,0.28,1.37,0.423,2.127,0.423
		c0.758,0,1.463-0.139,2.116-0.412s1.226-0.665,1.716-1.169L122.693,74.415z M99.951,62.809h0.891v-2.227h-0.891V62.809z
		 M99.951,76.396h0.891V65.26h-0.891V76.396z M94.315,69.225c0-0.578-0.111-1.121-0.334-1.627c-0.223-0.504-0.523-0.945-0.902-1.324
		c-0.378-0.379-0.82-0.68-1.325-0.901s-1.047-0.334-1.626-0.334c-0.832,0-1.567,0.196-2.205,0.59
		c-0.639,0.394-1.151,0.91-1.537,1.549V65.26h-0.892v11.139h0.892V69.67c0-0.52,0.1-1.006,0.301-1.459
		c0.2-0.453,0.471-0.85,0.812-1.191c0.341-0.34,0.739-0.608,1.192-0.803c0.452-0.191,0.932-0.289,1.437-0.289
		c0.46,0,0.891,0.086,1.292,0.256c0.401,0.172,0.75,0.404,1.047,0.702c0.297,0.298,0.531,0.646,0.702,1.048
		c0.17,0.4,0.256,0.83,0.256,1.291v7.174h0.891L94.315,69.225L94.315,69.225z M78.834,62.809h0.891v-2.227h-0.891V62.809z
		 M78.834,76.396h0.891V65.26h-0.891V76.396z M74.646,65.037c-1.128,0-2.031,0.244-2.707,0.734
		c-0.676,0.489-1.169,1.145-1.481,1.961V65.26h-0.891v11.139h0.891V70.45c0-0.652,0.089-1.255,0.268-1.804
		c0.179-0.551,0.441-1.024,0.791-1.426c0.35-0.402,0.783-0.717,1.303-0.947c0.52-0.229,1.128-0.346,1.827-0.346L74.646,65.037
		L74.646,65.037z M54.954,68.834c0.237-0.602,0.564-1.117,0.98-1.547c0.416-0.432,0.902-0.766,1.459-1.003s1.147-0.356,1.771-0.356
		s1.214,0.119,1.771,0.356s1.043,0.571,1.459,1.003c0.416,0.43,0.742,0.945,0.98,1.547c0.237,0.602,0.356,1.268,0.356,1.994
		c0,0.729-0.119,1.393-0.356,1.994c-0.238,0.602-0.564,1.117-0.98,1.548s-0.902,0.765-1.459,1.003
		c-0.557,0.236-1.147,0.355-1.771,0.355s-1.214-0.119-1.771-0.355c-0.557-0.238-1.043-0.572-1.459-1.003s-0.743-0.946-0.98-1.548
		c-0.238-0.602-0.356-1.266-0.356-1.994C54.598,70.102,54.716,69.436,54.954,68.834z M54.141,73.18
		c0.29,0.705,0.679,1.312,1.169,1.826c0.49,0.512,1.065,0.909,1.727,1.191c0.661,0.281,1.37,0.423,2.127,0.423
		s1.466-0.142,2.127-0.423c0.661-0.282,1.236-0.68,1.726-1.191c0.49-0.514,0.88-1.121,1.169-1.826
		c0.289-0.707,0.435-1.49,0.435-2.352c0-0.862-0.145-1.645-0.435-2.35s-0.679-1.314-1.169-1.828c-0.49-0.512-1.065-0.908-1.726-1.19
		s-1.37-0.423-2.127-0.423s-1.467,0.141-2.127,0.423c-0.661,0.282-1.236,0.679-1.727,1.19c-0.491,0.513-0.88,1.123-1.169,1.828
		s-0.435,1.487-0.435,2.35C53.706,71.689,53.852,72.473,54.141,73.18z M45.042,66.15h2.005v7.129c0,0.43,0.081,0.835,0.245,1.213
		c0.164,0.379,0.386,0.71,0.668,0.992c0.282,0.281,0.613,0.504,0.991,0.668c0.379,0.164,0.783,0.244,1.214,0.244v-0.892
		c-0.624,0-1.151-0.215-1.582-0.646c-0.431-0.432-0.646-0.959-0.646-1.582V66.15h2.228V65.26h-2.228v-4.678l-0.891,0.223v4.455
		h-2.005L45.042,66.15L45.042,66.15z M41.165,69.225c0-0.578-0.111-1.121-0.334-1.627c-0.223-0.504-0.523-0.945-0.902-1.324
		c-0.379-0.379-0.821-0.68-1.326-0.901s-1.047-0.334-1.626-0.334c-0.832,0-1.567,0.196-2.206,0.59s-1.151,0.91-1.537,1.549V65.26
		h-0.891v11.139h0.891V69.67c0-0.52,0.101-1.006,0.301-1.459c0.201-0.453,0.471-0.85,0.813-1.191
		c0.342-0.34,0.739-0.608,1.192-0.803c0.453-0.191,0.932-0.289,1.437-0.289c0.46,0,0.891,0.086,1.292,0.256
		c0.401,0.172,0.75,0.404,1.047,0.702s0.531,0.646,0.702,1.048c0.17,0.4,0.256,0.83,0.256,1.291v7.174h0.891V69.225z M25.884,70.473
		v2.739c-0.03,0.356-0.138,0.687-0.323,0.991c-0.185,0.304-0.438,0.568-0.757,0.791c-0.319,0.223-0.687,0.4-1.103,0.535
		c-0.416,0.133-0.861,0.199-1.336,0.199c-0.49,0-0.947-0.07-1.37-0.211c-0.423-0.142-0.795-0.33-1.114-0.568
		c-0.32-0.237-0.572-0.516-0.757-0.835c-0.186-0.319-0.279-0.657-0.279-1.015c0-0.356,0.104-0.693,0.312-1.014
		s0.49-0.598,0.847-0.835c0.356-0.237,0.776-0.428,1.258-0.567c0.482-0.141,0.999-0.211,1.548-0.211H25.884L25.884,70.473z
		 M19.446,66.773c0.327-0.207,0.728-0.4,1.203-0.578c0.475-0.18,1.047-0.269,1.715-0.269c0.49,0,0.947,0.056,1.37,0.167
		c0.423,0.111,0.794,0.29,1.114,0.534c0.319,0.246,0.572,0.558,0.758,0.937s0.278,0.828,0.278,1.348v0.669H22.81
		c-0.668,0-1.296,0.093-1.882,0.278c-0.587,0.186-1.103,0.438-1.548,0.758c-0.445,0.318-0.794,0.689-1.047,1.113
		s-0.378,0.879-0.378,1.369s0.115,0.946,0.345,1.371c0.23,0.424,0.545,0.795,0.947,1.112c0.401,0.319,0.869,0.571,1.403,0.758
		c0.534,0.187,1.106,0.278,1.715,0.278c0.356,0,0.709-0.044,1.058-0.135c0.349-0.088,0.675-0.207,0.98-0.354
		c0.304-0.147,0.583-0.323,0.835-0.524c0.252-0.199,0.468-0.403,0.646-0.611v1.402h0.891v-7.484c0-0.639-0.115-1.202-0.345-1.691
		c-0.23-0.49-0.546-0.896-0.947-1.215c-0.401-0.318-0.869-0.561-1.403-0.725c-0.535-0.163-1.107-0.244-1.715-0.244
		c-0.772,0-1.459,0.111-2.061,0.334s-1.103,0.482-1.504,0.779L19.446,66.773z M1.714,72.275c0,0.625,0.16,1.207,0.479,1.75
		c0.319,0.541,0.757,1.014,1.314,1.414c0.557,0.399,1.207,0.721,1.949,0.957c0.742,0.237,1.537,0.356,2.383,0.356
		c0.847,0,1.641-0.106,2.384-0.323c0.742-0.215,1.392-0.516,1.949-0.9c0.557-0.387,0.995-0.858,1.314-1.415
		c0.319-0.558,0.479-1.169,0.479-1.839c0-0.668-0.16-1.254-0.479-1.76c-0.319-0.505-0.757-0.936-1.314-1.291
		c-0.557-0.356-1.207-0.649-1.949-0.881c-0.743-0.229-1.537-0.412-2.384-0.546c-0.639-0.089-1.247-0.223-1.827-0.399
		c-0.579-0.18-1.088-0.401-1.526-0.67c-0.437-0.266-0.786-0.59-1.046-0.968c-0.26-0.379-0.39-0.812-0.39-1.304
		c0-0.504,0.126-0.965,0.378-1.381c0.252-0.416,0.594-0.77,1.025-1.059c0.431-0.289,0.936-0.513,1.515-0.668
		c0.579-0.156,1.203-0.234,1.871-0.234s1.292,0.09,1.872,0.268c0.579,0.18,1.083,0.416,1.515,0.713
		c0.431,0.299,0.772,0.65,1.024,1.059c0.252,0.41,0.379,0.844,0.379,1.304h0.891c0-0.578-0.148-1.128-0.446-1.647
		c-0.297-0.521-0.702-0.97-1.214-1.349c-0.512-0.379-1.114-0.68-1.804-0.901c-0.691-0.224-1.43-0.334-2.217-0.334
		s-1.526,0.101-2.216,0.301c-0.69,0.201-1.292,0.486-1.804,0.856c-0.512,0.371-0.917,0.816-1.214,1.337
		c-0.297,0.52-0.445,1.098-0.445,1.736s0.148,1.195,0.445,1.671s0.705,0.884,1.225,1.226s1.121,0.621,1.805,0.836
		c0.683,0.215,1.418,0.383,2.205,0.5c0.728,0.119,1.407,0.271,2.039,0.457c0.631,0.187,1.184,0.424,1.66,0.713
		c0.475,0.289,0.85,0.632,1.125,1.025c0.275,0.393,0.412,0.857,0.412,1.393s-0.137,1.023-0.412,1.47s-0.649,0.823-1.125,1.137
		c-0.476,0.312-1.029,0.554-1.66,0.724c-0.631,0.172-1.311,0.258-2.039,0.258s-1.407-0.094-2.038-0.279
		c-0.631-0.186-1.185-0.441-1.66-0.768c-0.476-0.327-0.85-0.709-1.125-1.148c-0.275-0.438-0.412-0.9-0.412-1.393H1.714V72.275z"/>
</g>
</svg>
