<svg version="1.1" id="Layer_1" xmlns="http://www.w3.org/2000/svg" x="0" y="0" width="128" height="86.167" viewBox="0 0 128 86.167" xml:space="preserve"><path d="M126.374 84.682v-.5H2.016V1.94h123.858v82.742h.5v-.5.5h.5V.94H1.016v84.242h125.858v-.5z"/><path fill="#FFF" d="M1.516.922h124.858v83.657H1.516z"/><path fill="#222677" d="M1.516 28.779h18.185v18.63H1.516zm0-27.857h18.185v18.542H1.516zm46.128 27.857h-18.63v18.63h97.36v-9.316h-78.73zM1.516 75.354h124.858v9.226H1.516zm27.498-55.89h18.63v-9.315h78.73V.922h-97.36zm18.63 0h78.73v9.315h-78.73zM1.516 56.724v9.314h124.858v-9.314H80.245z"/><path fill="#FFF" d="M47.644 10.149h78.73v9.315h-78.73zM1.516 66.038h124.858v9.315H1.516zm46.128-37.259h78.73v9.314h-78.73z"/><path fill="#FFF" d="M29.014 47.409v-18.63h18.63v-9.315h-18.63V.922h-9.313v18.542H1.516v9.315h18.185v18.63H1.516v9.315h124.858v-9.315H80.245z"/></svg>