<svg version="1.1" xmlns="http://www.w3.org/2000/svg" x="0" y="0" width="97.333" height="97.333" viewBox="0 0 97.333 97.333" xml:space="preserve"><g id="Layer_2"><path fill="#FFF" d="M48.667 96.075v-1c-12.796 0-24.393-5.203-32.8-13.608-8.406-8.408-13.608-20.004-13.609-32.8 0-12.796 5.203-24.393 13.608-32.8 8.407-8.405 20.003-13.608 32.8-13.608 12.797 0 24.394 5.203 32.801 13.608 8.405 8.407 13.608 20.004 13.608 32.8s-5.203 24.392-13.608 32.799c-8.407 8.405-20.004 13.608-32.801 13.608v2.001c26.696-.002 48.407-21.713 48.409-48.408C97.074 21.972 75.363.26 48.667.258 21.972.26.26 21.972.258 48.667.26 75.362 21.972 97.073 48.667 97.075v-1z"/><circle fill="#FFF" cx="48.667" cy="48.667" r="40.681"/><path d="M28.849 65.026a26.536 26.536 0 0 0 14.376 4.215c17.411 0 27.247-14.707 26.655-27.897a19.016 19.016 0 0 0 4.68-4.854 18.749 18.749 0 0 1-5.386 1.476 9.391 9.391 0 0 0 4.122-5.188 18.786 18.786 0 0 1-5.954 2.277 9.364 9.364 0 0 0-6.847-2.961c-6.053 0-10.501 5.648-9.135 11.515-7.794-.391-14.704-4.125-19.328-9.799-2.457 4.216-1.274 9.731 2.902 12.521a9.343 9.343 0 0 1-4.25-1.174c-.101 4.345 3.013 8.409 7.522 9.313a9.36 9.36 0 0 1-4.233.16 9.378 9.378 0 0 0 8.759 6.514 18.84 18.84 0 0 1-13.883 3.882z"/></g></svg>