<svg version="1.1" id="Layer_1" xmlns="http://www.w3.org/2000/svg" x="0" y="0" width="97.333" height="97.333" viewBox="0 0 97.333 97.333" xml:space="preserve"><path d="M34.451 36.538c-5.747 0-10.491 4.217-11.235 9.681-.068.492-.105.994-.105 1.503 0 6.177 5.078 11.183 11.341 11.183 6.265 0 11.339-5.006 11.339-11.183 0-1.668-.371-3.25-1.035-4.673a11.36 11.36 0 0 0-10.305-6.511zm39.746 10.296c-.456-5.761-5.34-10.296-11.297-10.296-4.606 0-8.567 2.711-10.341 6.6a11.01 11.01 0 0 0-.997 4.584c0 6.177 5.076 11.183 11.338 11.183 6.261 0 11.338-5.006 11.338-11.183 0-.298-.017-.593-.041-.888z" fill="#FFF" id="Layer_5"/></svg>