<svg version="1.1" id="Layer_1" xmlns="http://www.w3.org/2000/svg" x="0" y="0" width="210.438" height="88.084" viewBox="0 0 210.438 88.084" xml:space="preserve"><path fill="#83C7E4" d="M31.934 35.057c.361.242.739.465 1.131.667l.122-.127c-.433-.156-.85-.337-1.253-.54m-6.488-8.419a11.317 11.317 0 0 1-1.843 4.667l2.011 3.507 1.823-3.151-.011-.017a11.707 11.707 0 0 1-1.98-5.006m22.994-2.22a11.467 11.467 0 0 1-.313 3.162.313.313 0 0 1 .03-.005c.045-.195.084-.391.118-.587.156-.848.209-1.712.165-2.57m-.212-2.789c.493 1.711.597 3.533.273 5.279-.037.211-.08.42-.128.628.466-.081.934-.15 1.403-.207l-.001-.446.01.103c-.136-1.633-.738-3.53-1.557-5.357m-23.262-.676c.05.218.094.438.131.656.154.512.272 1.039.354 1.578.017-.109.036-.217.056-.326.02-.115.042-.23.065-.345a11.359 11.359 0 0 0-.606-1.563m22.248 35.292l-12.13 6.564-1.104 3.58.411-4.516 12.823-5.628m-1.201-6.76l-13.062 7.326-1.32 3.755.629-4.692 13.753-6.389m1.265-8.684L31.37 50.444l-1.973 4.289 1.295-5.236 16.586-8.696M3.347 20.221A25.163 25.163 0 0 0 .748 31.408c0 9.248 8.008 20.552 13.657 27.536 6.946 8.582 14.521 15.681 21.857 20.848a88.747 88.747 0 0 1-2.906-2.194c-3.646-2.875-7.075-6.014-10.307-9.336-7.625-7.869-21.653-24.72-21.555-36.863.05 12.751 15.747 30.675 24.038 38.623 3.701 3.529 7.636 6.819 11.838 9.721 3.94 2.713 8.121 5.117 12.567 6.816l-.011-4.141c-3.142-.427-6.551-1.406-9.313-2.832a27.668 27.668 0 0 1-7.945-6.142 27.694 27.694 0 0 1-5.233-8.563 27.696 27.696 0 0 1-1.825-9.86 27.652 27.652 0 0 0 1.882 9.837 27.567 27.567 0 0 0 5.268 8.503 27.513 27.513 0 0 0 7.938 6.061c2.742 1.394 6.119 2.345 9.228 2.751l-.146-54.248a26.94 26.94 0 0 0-8.903 2.783 27.182 27.182 0 0 0-7.645 5.878 27 27 0 0 0-7.028 17.584c-.05-2.19.16-4.4.645-6.563a27.683 27.683 0 0 0-1.487 7.414 27.92 27.92 0 0 1 1.811-9.95 27.84 27.84 0 0 1 5.708-9.149 11.815 11.815 0 0 1-5.205-3.93l-2.063 3.59-2.249-3.936a11.367 11.367 0 0 1-9.166 4.632c-.812 0-1.605-.085-2.37-.247a11.382 11.382 0 0 1-5.593-2.93 11.454 11.454 0 0 1-3.542-7.975c-.031-.924.055-1.85.251-2.753l-.047.121a24.931 24.931 0 0 0-1.651 8.915 25.134 25.134 0 0 1 1.819-10.324c.078-.176.157-.352.239-.526-.003.001-.004.003-.005.005l.048-.343m2.391-12.92L4.116 18.972a25.3 25.3 0 0 1 7.571-8.366L5.738 7.301m19.982-.602c-.73 0-1.461.033-2.189.1-6.055.511-11.839 3.448-15.897 7.971-.5.554-.975 1.131-1.422 1.728 2.024-1.964 4.793-3.161 7.633-3.251a11.692 11.692 0 0 1 8.347 3.071 11.783 11.783 0 0 1 3.464 5.831A11.726 11.726 0 0 1 37.04 13.21c.688 0 1.376.062 2.054.188 2.42.422 4.678 1.651 6.37 3.419a24.73 24.73 0 0 0-4.88-5.036A24.218 24.218 0 0 0 25.72 6.699m15.909-2.224l-5.65 3.837a24.94 24.94 0 0 1 7.739 5.408l-2.089-9.245"/><path d="M42.003 3.533l-.069.051-6.583 4.457.366.155 6.25-4.566 2.388 10.766.175.194-2.527-11.057"/><path d="M41.967 3.63l-6.25 4.566.261.115 5.65-3.837 2.089 9.245c.214.22.427.446.637.677L41.967 3.63m8.56 66.303l.047 12.315.153.016-.2-12.331M0 31.417c.145 13.48 15.857 31.131 24.679 39.498 3.762 3.547 7.761 6.855 12.037 9.773 4.276 2.908 8.832 5.471 13.741 7.201l.554.194-.006-.583-.041-4.961-.255-.026-.134-.015.02 5.003c-4.486-1.586-9.354-4.203-14.333-7.71 2.78 2.01 5.686 3.852 8.737 5.437-4.176-2.059-8.103-4.602-11.819-7.4-3.717-2.807-7.225-5.887-10.541-9.156C14.508 60.622.188 44.083 0 31.417m44.396-16.839a25.279 25.279 0 0 1 5.964 12.304l.001.382.063-.007v.379l.482 47.845-.396-48.613c-.099-3.651-2.687-8.579-5.98-12.277l.043.189-.177-.202M25.862 6.156c-4.324 0-8.642 1.137-12.375 3.308-.43.247-.852.507-1.265.779l.011.006a24.88 24.88 0 0 1 13.561-3.996c.392 0 .776-.006 1.157-.006.579 0 1.149.014 1.726.083a24.582 24.582 0 0 1 6.636 1.739l.039-.026a24.423 24.423 0 0 0-6.537-1.707 24.107 24.107 0 0 0-2.953-.18"/><path d="M1.494 31.397C1.395 43.54 15.424 60.391 23.049 68.26c3.232 3.322 6.661 6.461 10.307 9.336.954.75 1.922 1.483 2.906 2.194 4.979 3.507 9.847 6.124 14.333 7.71l-.02-5.003a31.155 31.155 0 0 1-.65-.081l.011 4.141c-4.446-1.699-8.627-4.104-12.567-6.816-4.202-2.901-8.137-6.191-11.838-9.721-8.29-7.948-23.987-25.872-24.037-38.623m48.349-3.482l-.065.008.146 54.248c.218.028.435.054.649.077l-.047-12.315-.683-42.018M26.951 6.247c-.381 0-.765.006-1.157.006a24.88 24.88 0 0 0-13.561 3.996l.008.005a27.95 27.95 0 0 0-.537.361l-.018-.01a25.279 25.279 0 0 0-7.571 8.366l-.017.124c-.281.478-.547.965-.797 1.462-.082.174-.161.35-.239.526a25.134 25.134 0 0 0-1.819 10.324 24.979 24.979 0 0 1 1.651-8.915l.047-.121a11.542 11.542 0 0 1 3.269-5.874c.448-.597.922-1.174 1.422-1.728 4.058-4.522 9.842-7.459 15.897-7.971a24.42 24.42 0 0 1 9.001.872 24.19 24.19 0 0 1 8.051 4.11 24.705 24.705 0 0 1 4.88 5.036c.416.435.798.903 1.14 1.399a11.481 11.481 0 0 1 1.626 3.413c.819 1.827 1.421 3.724 1.557 5.358l-.01-.103.001.446.269-.031.316-.035-.001-.382a25.27 25.27 0 0 0-5.964-12.303v-.001c-.21-.236-.424-.467-.641-.695l-.037-.163a24.932 24.932 0 0 0-7.739-5.408l-.041.029-.27-.12a24.6 24.6 0 0 0-6.99-1.891 14.655 14.655 0 0 0-1.726-.082"/><path d="M35.351 8.042l-.039.026c.119.049.237.101.354.152l.012.005.039-.028a16.705 16.705 0 0 0-.366-.155"/><path d="M35.717 8.197l-.039.028-.012-.005.27.12.042-.029c-.086-.038-.173-.077-.261-.114m8.638 6.199l.041.181.178.203-.043-.189-.176-.195"/><path d="M43.718 13.719l.037.163c.217.228.431.459.641.695l-.041-.181c-.21-.231-.422-.457-.637-.677M23.603 31.305c-.079.115-.159.228-.241.34l2.249 3.936 2.063-3.59a9.858 9.858 0 0 1-.237-.33l-1.823 3.151-2.011-3.507"/><path fill="#FEFEFE" d="M25.37 26.005a11.265 11.265 0 0 1-3.151 6.831 11.304 11.304 0 0 1-8.166 3.421c-.747 0-1.494-.078-2.227-.228.765.162 1.557.247 2.37.247a11.37 11.37 0 0 0 9.407-4.972 11.317 11.317 0 0 0 1.843-4.667c-.031-.209-.057-.42-.076-.632M14.196 29.26a4.366 4.366 0 1 1 0-8.731 4.366 4.366 0 0 1 0 8.731m-.1-15.396a11.042 11.042 0 0 0-7.722 3.208 11.076 11.076 0 0 0-3.271 7.825A11.108 11.108 0 0 0 6.33 32.76a11.13 11.13 0 0 0 7.846 3.289h.115a11.16 11.16 0 0 0 7.814-3.245 11.212 11.212 0 0 0 3.258-6.868c-.08-.917-.052-1.842.088-2.749-.081-.539-.2-1.066-.354-1.578.187 1.104.204 2.214.065 3.284a10.97 10.97 0 0 0-3.19-7.776 11.001 11.001 0 0 0-7.762-3.252h-.02l-.094-.001"/><path d="M3.398 21.281c-.161.36-.312.724-.456 1.091-.196.904-.283 1.83-.251 2.753A11.455 11.455 0 0 0 6.233 33.1a11.39 11.39 0 0 0 5.593 2.93c-5.149-1.09-9.014-5.661-9.014-11.136 0-1.263.207-2.478.586-3.613m10.925-8.044c-.159 0-.319.003-.479.01-2.84.09-5.609 1.287-7.633 3.251a24.71 24.71 0 0 0-.888 1.264 11.361 11.361 0 0 1 8.872-4.25c5.144 0 9.492 3.413 10.902 8.098a11.526 11.526 0 0 0-.131-.656c.238.502.441 1.025.606 1.563.025-.123.053-.246.083-.368a11.783 11.783 0 0 0-3.464-5.831 11.692 11.692 0 0 0-7.868-3.081"/><path d="M6.211 16.498a11.533 11.533 0 0 0-3.269 5.874c.143-.367.295-.731.456-1.091a11.362 11.362 0 0 1 1.926-3.519c.282-.43.578-.852.887-1.264"/><path d="M14.196 13.511a11.364 11.364 0 0 0-8.872 4.25 11.367 11.367 0 0 0-1.926 3.52 11.388 11.388 0 0 0-.585 3.613c0 5.475 3.864 10.046 9.014 11.136a11.102 11.102 0 0 0 2.484.225 11.309 11.309 0 0 0 7.909-3.418 11.268 11.268 0 0 0 3.151-6.831l-.006-.069a11.217 11.217 0 0 1-3.258 6.868 11.162 11.162 0 0 1-7.814 3.245h-.115a11.13 11.13 0 0 1-7.846-3.289C4.265 30.7 3.078 27.8 3.104 24.898a11.066 11.066 0 0 1 3.271-7.825 11.038 11.038 0 0 1 7.722-3.208h.115c2.896 0 5.74 1.201 7.762 3.252a10.97 10.97 0 0 1 3.19 7.776c.139-1.07.122-2.18-.065-3.284-1.411-4.685-5.759-8.098-10.903-8.098"/><path fill="#FEFEFE" d="M31.398 34.674c.174.132.353.26.536.383.403.203.821.384 1.252.54l.22-.225a11.038 11.038 0 0 1-2.008-.698m5.671-5.413a4.368 4.368 0 0 1-.009-8.734 4.367 4.367 0 0 1 .009 8.734m.1-15.611c-2.229 0-4.451.671-6.287 1.923-2.423 1.622-4.15 4.219-4.697 7.062a11.065 11.065 0 0 0 1.62 8.269 11.027 11.027 0 0 0 5.692 4.375 27.835 27.835 0 0 1 6.89-5.053 27.587 27.587 0 0 1 7.74-2.647 11.399 11.399 0 0 0 .313-3.162 11.335 11.335 0 0 0-1.997-5.881c-1.666-2.438-4.315-4.161-7.201-4.688a10.939 10.939 0 0 0-2.073-.198"/><path d="M27.885 31.623l-.211.367a11.815 11.815 0 0 0 5.205 3.93l.186-.196c-.392-.202-.77-.425-1.131-.667a11.361 11.361 0 0 1-4.049-3.434m-2.341-5.836c-.022.287-.055.571-.098.852a11.712 11.712 0 0 0 1.991 5.023l.213-.369a11.374 11.374 0 0 1-1.936-5.505h-.17m.147-.381l-.124.002c-.004.081-.008.162-.014.243l.152.004-.014-.249m-.119-2.89c-.023.115-.045.229-.065.345-.02.108-.039.217-.056.326a11.442 11.442 0 0 1 .118 2.169l.12-.001c-.026-.665.006-1.341.101-2.021-.063-.277-.136-.55-.218-.818m11.467-9.307a11.716 11.716 0 0 0-11.384 8.939c.072.289.133.581.183.875l.018-.105c.974-5.523 5.777-9.409 11.198-9.409.656 0 1.321.057 1.989.175 5.364.946 9.184 5.506 9.398 10.734.044.858-.009 1.722-.166 2.569-.034.197-.073.393-.118.587l.216-.039c.049-.208.092-.417.128-.628.324-1.747.22-3.568-.273-5.279a28.64 28.64 0 0 0-1.63-3.101 24.383 24.383 0 0 0-1.136-1.711c-1.691-1.769-3.949-2.998-6.37-3.419a11.225 11.225 0 0 0-2.053-.188"/><path d="M45.462 16.817a24.74 24.74 0 0 1 1.136 1.711c.584.963 1.145 2.02 1.63 3.101a11.481 11.481 0 0 0-1.626-3.413 11.248 11.248 0 0 0-1.14-1.399M27.65 31.292l-.213.369c.077.111.156.221.237.33l.211-.367c-.08-.11-.158-.221-.235-.332m-2.096-5.64a6.036 6.036 0 0 1-.01.134h.171l-.009-.13-.152-.004m.135-.298l-.12.001-.002.053.124-.002a.978.978 0 0 0-.002-.052"/><path d="M25.451 23.187c-.14.907-.168 1.832-.088 2.749.033-.347.05-.695.049-1.044.005.372-.01.744-.043 1.114.02.211.045.422.076.633.043-.28.076-.565.098-.852l.01-.134a19.781 19.781 0 0 0 .016-.296 11.79 11.79 0 0 0-.118-2.17m.204-1.039c-.029.122-.057.245-.083.368.082.269.155.541.218.816.014-.104.03-.206.047-.31a11.49 11.49 0 0 0-.182-.874"/><path d="M25.413 24.892c0 .349-.016.698-.049 1.044l.006.069c.033-.37.047-.741.043-1.113m11.64-11.383c-5.421 0-10.224 3.885-11.198 9.409l-.018.105a11.637 11.637 0 0 0-.132 2.633l.009.13a11.364 11.364 0 0 0 2.17 5.837 11.361 11.361 0 0 0 4.049 3.434c-.183-.123-.362-.25-.536-.383.65.298 1.324.531 2.008.698l.091-.092a11.033 11.033 0 0 1-5.692-4.375 11.065 11.065 0 0 1-1.62-8.269c.547-2.844 2.274-5.44 4.697-7.062a11.226 11.226 0 0 1 6.287-1.923c.694 0 1.39.065 2.074.198 2.886.527 5.535 2.25 7.201 4.688a11.34 11.34 0 0 1 1.997 5.881c-.214-5.228-4.034-9.788-9.398-10.734a11.42 11.42 0 0 0-1.989-.175M14.085 28.277a3.412 3.412 0 0 1-2.296-.902 3.477 3.477 0 0 1-1.122-2.406 3.553 3.553 0 0 1 .916-2.551 3.634 3.634 0 0 1 2.713-1.199c.886 0 1.78.334 2.452.937a3.78 3.78 0 0 1 1.265 2.59 3.527 3.527 0 0 0-.55-1.043 3.03 3.03 0 0 1-.055.454 3.286 3.286 0 0 1-.757 2.937 3.326 3.326 0 0 1-2.566 1.183m.111-7.749a4.366 4.366 0 1 0 0 8.731 4.366 4.366 0 0 0 0-8.731"/><path fill="#83C7E4" d="M14.196 26.15a1.256 1.256 0 1 1 0-2.512 1.256 1.256 0 0 1 0 2.512m-.062-4.285c-.764 0-1.552.314-2.11.866a3.077 3.077 0 0 0-.93 2.168 3.107 3.107 0 0 0 .885 2.213 3.15 3.15 0 0 0 2.213.949h.051c.812 0 1.621-.329 2.207-.903a3.204 3.204 0 0 0 .968-2.264 3.258 3.258 0 0 1-.767 2.199 3.286 3.286 0 0 0 .757-2.937 3.032 3.032 0 0 1-.247.743 2.985 2.985 0 0 0-.847-2.122 3.018 3.018 0 0 0-2.131-.912h-.049"/><path d="M14.296 21.219a3.634 3.634 0 0 0-2.713 1.199 3.551 3.551 0 0 0-.916 2.551 3.48 3.48 0 0 0 1.122 2.406 3.41 3.41 0 0 0 2.436.899 3.326 3.326 0 0 0 2.426-1.18 3.296 3.296 0 1 1 .757-2.937c.028-.146.047-.298.055-.454.23.299.421.652.55 1.043a3.784 3.784 0 0 0-1.265-2.59 3.71 3.71 0 0 0-2.452-.937"/><path d="M14.196 21.598a3.296 3.296 0 1 0 2.455 5.495 3.263 3.263 0 0 0 .767-2.199 3.21 3.21 0 0 1-.968 2.264 3.18 3.18 0 0 1-2.207.903h-.051a3.141 3.141 0 0 1-2.213-.949 3.11 3.11 0 0 1-.885-2.213 3.083 3.083 0 0 1 .93-2.168 3.055 3.055 0 0 1 2.11-.866h.049a3.014 3.014 0 0 1 2.131.912c.552.562.861 1.343.847 2.122.109-.225.195-.475.247-.743a3.297 3.297 0 0 0-3.212-2.558"/><path d="M14.196 23.639a1.256 1.256 0 1 0 0 2.512 1.256 1.256 0 0 0 0-2.512m22.226 4.911a3.698 3.698 0 0 1-2.371-1.544 3.67 3.67 0 0 1-.581-2.736 3.63 3.63 0 0 1 3.564-2.97 3.572 3.572 0 0 1 2.943 1.556c.529.766.734 1.744.559 2.65a3.514 3.514 0 0 1-1.467 2.25 3.488 3.488 0 0 1-2.601.548 3.418 3.418 0 0 0 2.527-.624 3.342 3.342 0 0 0 1.365-2.892 3.297 3.297 0 0 1-4.779 3.051 3.4 3.4 0 0 0 .841.711m.639-8.023a4.368 4.368 0 0 0 .009 8.734 4.368 4.368 0 0 0-.009-8.734"/><path fill="#83C7E4" d="M37.067 26.15a1.254 1.254 0 0 1-1.238-1.474 1.255 1.255 0 1 1 1.238 1.474m.092-4.41c-.647 0-1.288.202-1.807.573a3.055 3.055 0 0 0-1.249 1.966 2.984 2.984 0 0 0 .485 2.223 2.908 2.908 0 0 0 1.863 1.206 2.728 2.728 0 0 1-.397.028c-.196 0-.397-.02-.6-.061.041.055.083.11.128.164a3.31 3.31 0 0 0 1.487.352 3.297 3.297 0 0 0 3.292-3.403 3.264 3.264 0 0 0-.611-1.714 3.2 3.2 0 0 0-2.591-1.334"/><path d="M37.035 21.299c-.718 0-1.448.218-2.044.632a3.633 3.633 0 0 0-1.52 2.338 3.67 3.67 0 0 0 .581 2.736 3.698 3.698 0 0 0 2.371 1.544 3.354 3.354 0 0 1-.839-.711 3.298 3.298 0 1 1 4.778-3.051 3.342 3.342 0 0 1-1.365 2.892 3.427 3.427 0 0 1-2.527.624 3.488 3.488 0 0 0 2.601-.548 3.51 3.51 0 0 0 1.467-2.25 3.532 3.532 0 0 0-.559-2.65 3.57 3.57 0 0 0-2.944-1.556"/><path d="M37.061 21.598a3.296 3.296 0 0 0-1.478 6.242 2.79 2.79 0 0 1-.128-.164 2.876 2.876 0 0 0 .997.033 2.908 2.908 0 0 1-1.863-1.206 2.984 2.984 0 0 1-.485-2.223 3.055 3.055 0 0 1 1.249-1.966 3.124 3.124 0 0 1 2.326-.529c.817.131 1.58.602 2.072 1.291.36.494.573 1.096.611 1.714a3.297 3.297 0 0 0-3.301-3.192"/><path d="M37.065 23.638a1.256 1.256 0 1 0 .002 2.512 1.256 1.256 0 0 0-.002-2.512m13.842 51.843l.058 7.058.011.001v-.268l-.069-6.791M25.609 55.02a27.67 27.67 0 0 0 1.825 9.86 27.67 27.67 0 0 0 5.233 8.563 27.695 27.695 0 0 0 7.945 6.142c2.762 1.426 6.171 2.405 9.313 2.832v-.246c-3.108-.406-6.485-1.357-9.228-2.751a27.51 27.51 0 0 1-7.938-6.061 27.555 27.555 0 0 1-5.268-8.503 27.69 27.69 0 0 1-1.882-9.836m24.167-27.69a26.64 26.64 0 0 0-1.403.207 14.01 14.01 0 0 1-.089.353l-.214.038c.031-.117.06-.234.087-.352a.313.313 0 0 0-.03.005c-.029.118-.06.236-.092.353-5.52 1.006-10.384 3.669-14.166 7.464h.001l-.064.064h-.001l-.254.26c-.123-.04-.245-.082-.365-.125a7.312 7.312 0 0 0-.122.127c.109.056.219.111.33.164l-.156.165a11.029 11.029 0 0 1-.36-.132 27.878 27.878 0 0 0-5.708 9.149 27.915 27.915 0 0 0-1.811 9.95 27.722 27.722 0 0 1 1.487-7.414 27.192 27.192 0 0 0-.645 6.563 27.023 27.023 0 0 1 7.028-17.584 27.145 27.145 0 0 1 7.645-5.878 26.963 26.963 0 0 1 8.903-2.783l-.001-.594"/><path d="M50.425 27.257l-.063.007.166 42.669.201 12.331-.153-.016.001.25.134.015.255.026-.058-7.058-.482-47.845-.001-.379m-.5 54.914v.246c.218.029.435.057.65.081l-.001-.25a30.873 30.873 0 0 1-.649-.077m.436-54.907l-.316.035-.269.031.002.593.065-.008.684 42.018-.166-42.669m-16.955 8.108a15.62 15.62 0 0 0-.22.225c.121.043.243.085.365.125l.254-.26a14.293 14.293 0 0 1-.399-.09m14.721-7.792a27.607 27.607 0 0 0-7.74 2.647 27.81 27.81 0 0 0-6.89 5.053c.124.041.248.08.373.117 3.782-3.795 8.646-6.458 14.166-7.464.031-.117.062-.235.091-.353m-15.063 8.144l-.186.196c.119.046.239.09.36.132l.156-.165a12.63 12.63 0 0 1-.33-.163m.806-.327l-.064.064h.001l.063-.064m14.503-7.861c-.072.013-.145.025-.216.039a10.63 10.63 0 0 1-.087.352l.214-.038c.031-.117.061-.235.089-.353"/><path d="M33.497 35.28l-.091.092c.133.032.266.062.4.089l.064-.064a12.377 12.377 0 0 1-.373-.117m13.717 20.965L34.39 61.874l-.411 4.516 1.105-3.58 12.13-6.565m-1.201-6.76l-13.752 6.389-.63 4.692 1.32-3.754 13.062-7.327m1.265-8.684l-16.585 8.696-1.296 5.236 1.974-4.289 15.907-9.643M5.279 6.398L3.347 20.221c.239-.483.493-.958.761-1.422L5.37 6.512l6.603 3.897.249-.166-6.868-3.801-.075-.044"/><path d="M5.37 6.512L4.107 18.799c-.268.464-.522.939-.761 1.422l-.048.343.003-.006c.252-.538.524-1.068.814-1.586L5.738 7.301l5.949 3.305c.095-.066.19-.132.286-.196L5.37 6.512m6.852 3.731c-.083.055-.167.11-.249.166l.009.005c.083-.056.167-.11.251-.165l-.011-.006"/><path d="M4.116 18.972c-.29.519-.562 1.048-.814 1.586.25-.498.516-.984.797-1.462l.017-.124m8.117-8.723c-.084.055-.168.109-.251.165l-.009-.005c-.096.064-.191.13-.286.196l.018.01c.177-.123.356-.243.537-.361l-.009-.005"/><path fill="#FFF" d="M193.13 37.753h-9.959v.469c0 .99 3.285.261 3.285 2.763 0 .625-.418 1.929-.834 3.024l-2.295 6.152h-.156l-3.284-7.56c-.418-.991-.574-1.669-.574-2.19 0-1.928 2.398-1.303 2.398-2.241v-.417h-12.93v.312c0 1.251 2.815.47 2.815 2.555 0 .521-.209 1.251-.573 2.242l-2.764 7.299h-.156l-3.076-7.403c-.365-.887-.521-1.617-.521-2.085 0-2.189 2.764-1.512 2.764-2.502v-.417h-16.11v.365c0 1.147 2.136.104 3.857 3.962l8.498 19.187c.156 0 .834-.053.99-.053l6.83-16.267h.104a401.168 401.168 0 0 0 7.248 16.319c.104 0 .781-.053.938-.104l7.09-17.206c2.503-6.047 6.361-4.588 6.414-5.787v-.417M99.7 36.814a954.808 954.808 0 0 1-11.991 1.773v.417c0 1.2 3.285-.156 3.285 3.859v13.034c0 4.327-3.232 3.023-3.232 4.274v.313h15.067v-.364c0-1.096-2.555.104-2.555-3.599V42.288c1.043-1.72 2.867-2.659 4.223-2.659 1.721 0 2.451 1.668 2.451 3.754v12.825c0 3.962-2.503 2.868-2.503 3.911v.364h14.911v-.313c0-1.251-3.076 0-3.076-4.118V44.061c0-5.37-3.753-7.143-7.612-7.143-2.972 0-6.674 1.147-8.967 4.692h-.208c.156-1.512.313-3.023.521-4.483-.105-.105-.21-.261-.314-.313m36.704 23.619c-3.545 0-4.328-4.85-4.328-11.418 0-5.892.887-11.314 4.276-11.314 3.545 0 4.274 4.587 4.274 11.366.001 6.516-.833 11.366-4.222 11.366m-.104-23.619c-9.385 0-14.441 5.474-14.441 12.095 0 6.466 4.483 12.305 14.39 12.305 9.905 0 14.545-6.1 14.545-12.305-.001-6.151-4.119-12.095-14.494-12.095M67.427 22.32c-4.171.521-8.342 1.095-12.513 1.668v.365c0 1.147 3.389-.156 3.389 3.859v27.58c0 4.379-3.337 3.076-3.337 4.379v.313h15.589v-.313c0-1.251-2.868 0-2.868-4.17v-6.257h1.199a512.665 512.665 0 0 1 5.684 10.74h12.147v-.313c-.053-1.251-2.502.156-5.683-5.683l-5.631-10.271 1.773-1.877c3.858-4.119 7.977-2.867 7.977-4.223v-.365H72.015v.469c0 1.095 4.537.626 4.537 2.555 0 .574-.522 1.356-1.408 2.294l-5.579 5.735h-1.877V22.581c-.105-.104-.157-.208-.261-.261m139.518-.052l-12.461 1.668v.364c0 1.2 3.285-.156 3.285 3.911v27.736c0 4.223-3.181 3.023-3.181 4.223v.313h15.85v-.313c0-1.251-3.232 0-3.232-4.118V22.581l-.261-.313"/><path fill="#83C7E4" d="M203.496 68.046h6.732v1.305h-5.218v4.334h4.587v1.24h-4.587v2.42h5.428v1.305h-6.942V68.046zm-6.017 10.771c-.49 0-.942-.059-1.356-.179a4.263 4.263 0 0 1-1.115-.494c-.329-.21-.617-.452-.862-.726s-.438-.564-.579-.873l1.199-.674c.239.463.568.859.989 1.189.421.329.988.494 1.704.494.603 0 1.098-.144 1.483-.432.386-.287.578-.678.578-1.168s-.15-.883-.452-1.178c-.302-.294-.789-.59-1.462-.884l-.842-.378c-.757-.323-1.354-.709-1.787-1.158-.436-.448-.652-1.059-.652-1.83 0-.406.076-.774.23-1.104.154-.33.365-.61.631-.842.267-.232.579-.406.937-.526s.746-.179 1.168-.179c.742 0 1.356.145 1.841.431.483.288.887.677 1.209 1.169l-1.114.757a3.277 3.277 0 0 0-.778-.8c-.295-.21-.666-.315-1.115-.315-.477 0-.859.119-1.146.358-.287.238-.432.581-.432 1.03 0 .407.119.732.357.978.239.246.617.488 1.136.727l.863.379c.897.393 1.603.834 2.114 1.324.512.492.768 1.164.768 2.021 0 .884-.322 1.585-.967 2.104-.648.52-1.496.779-2.548.779m-7.636-10.771h1.472V78.65h-1.472V68.046zm-2.63 10.603h-1.684l-1.925-2.799a5.105 5.105 0 0 1-.964.085h-1.403v2.714h-1.515V68.046h2.903c.716 0 1.351.096 1.904.285a3.906 3.906 0 0 1 1.399.799c.378.344.666.758.862 1.241s.295 1.021.295 1.609c0 .8-.183 1.49-.547 2.071-.365.582-.891 1.027-1.579 1.336l2.254 3.262zm-4.636-4.018c1.091 0 1.862-.245 2.313-.736.453-.491.681-1.129.681-1.914 0-.771-.228-1.402-.681-1.894-.451-.49-1.223-.736-2.313-.736h-1.34v5.28h1.34zm-12.847-6.585h2.881c.73 0 1.372.098 1.926.295a3.91 3.91 0 0 1 1.399.831c.378.356.666.782.862 1.272.196.491.294 1.038.294 1.641 0 1.193-.382 2.16-1.143 2.904-.762.743-1.869 1.115-3.32 1.115h-1.386v2.545h-1.514V68.046zm2.833 6.754c1.076 0 1.848-.253 2.313-.754.467-.506.701-1.161.701-1.971 0-.838-.234-1.501-.701-1.992-.466-.486-1.237-.732-2.313-.732h-1.319V74.8h1.319zm-5.4 3.849h-1.683l-1.926-2.799a5.13 5.13 0 0 1-.964.085h-1.402v2.714h-1.515V68.046h2.903c.715 0 1.35.096 1.904.285.554.188 1.02.454 1.398.799.379.344.667.758.862 1.241.196.483.295 1.021.295 1.609 0 .8-.183 1.49-.547 2.071-.365.582-.891 1.027-1.578 1.336l2.253 3.262zm-4.635-4.018c1.09 0 1.861-.245 2.314-.736.452-.491.68-1.129.68-1.914 0-.771-.228-1.402-.68-1.894-.453-.49-1.225-.736-2.314-.736h-1.34v5.28h1.34zm-12.447-6.585h6.731v1.305h-5.217v4.334h4.586v1.24h-4.586v2.42h5.427v1.305h-6.941V68.046zm-7.133 1.305h-3.282v-1.305h8.079v1.305h-3.282v9.299h-1.515v-9.299zm-11.697 3.007a10.88 10.88 0 0 1-.778-.946 6.47 6.47 0 0 1-.357-.526c.014.197.035.393.062.59.027.168.05.361.064.578.013.218.02.424.02.621v5.975h-1.389V67.921h.211l5.785 6.373c.154.154.299.319.432.494.133.176.256.342.368.494.126.17.246.338.357.506a9.081 9.081 0 0 1-.063-.59 12.937 12.937 0 0 1-.031-.567 18.28 18.28 0 0 1-.01-.61v-5.975h1.388v10.751h-.21l-5.849-6.439zm-11.971-4.312h6.732v1.305h-5.218v4.334h4.587v1.24h-4.587v2.42h5.428v1.305h-6.942V68.046zm-13.676 0h1.516v9.299h4.943v1.305h-6.459V68.046zm-7.089-.125h.211l4.564 10.729h-1.557l-.631-1.578h-5.049l-.63 1.578h-1.452l4.544-10.729zm2.125 8.015l-1.515-3.829a3.94 3.94 0 0 1-.188-.526 15.559 15.559 0 0 0-.169-.547 27.347 27.347 0 0 0-.168-.567c-.056.182-.112.371-.168.567-.056.169-.108.351-.158.547s-.108.372-.179.526l-1.557 3.829h4.102zm-10.518-7.89h1.473V78.65h-1.473V68.046zm-7.133 10.771a5.558 5.558 0 0 1-2.146-.41 5.216 5.216 0 0 1-1.715-1.136 5.238 5.238 0 0 1-1.136-1.726 5.72 5.72 0 0 1-.411-2.198c0-.8.141-1.532.422-2.198a5.316 5.316 0 0 1 1.146-1.725c.484-.484 1.059-.863 1.725-1.137s1.379-.41 2.135-.41c1.01 0 1.858.182 2.546.547s1.276.897 1.768 1.6l-1.157.799c-.351-.49-.775-.887-1.273-1.188s-1.126-.452-1.883-.452c-.575 0-1.101.105-1.578.315-.476.21-.89.505-1.241.884-.35.379-.62.82-.81 1.324-.188.506-.284 1.053-.284 1.642s.096 1.137.284 1.642c.19.504.46.946.81 1.325.351.378.761.673 1.23.884.47.21.993.315 1.567.315.799 0 1.479-.161 2.041-.484a3.871 3.871 0 0 0 1.346-1.263l1.178.736a4.674 4.674 0 0 1-1.82 1.705c-.762.406-1.677.609-2.744.609m-13.064 0c-.758 0-1.473-.133-2.146-.399s-1.266-.642-1.777-1.126a5.247 5.247 0 0 1-1.21-1.734c-.295-.674-.442-1.41-.442-2.21s.147-1.536.442-2.209a5.251 5.251 0 0 1 1.21-1.735 5.494 5.494 0 0 1 1.777-1.125 5.744 5.744 0 0 1 2.146-.4c.757 0 1.477.133 2.157.4a5.36 5.36 0 0 1 1.777 1.125 5.297 5.297 0 0 1 1.199 1.735c.294.673.442 1.409.442 2.209s-.148 1.536-.442 2.21a5.293 5.293 0 0 1-1.199 1.734 5.378 5.378 0 0 1-1.777 1.126c-.681.267-1.4.399-2.157.399m0-1.303c.589 0 1.132-.105 1.63-.315a3.837 3.837 0 0 0 1.284-.873c.357-.372.638-.811.841-1.316a4.392 4.392 0 0 0 .306-1.661c0-.589-.102-1.14-.306-1.651a4.015 4.015 0 0 0-.841-1.325 3.808 3.808 0 0 0-1.284-.873c-.498-.21-1.041-.315-1.63-.315s-1.133.105-1.63.315c-.498.21-.926.501-1.283.873a4.033 4.033 0 0 0-.842 1.325 4.418 4.418 0 0 0-.305 1.651c0 .603.102 1.157.305 1.661.203.506.484.944.842 1.316.357.371.785.662 1.283.873.497.209 1.04.315 1.63.315m-11.046 1.303c-.491 0-.943-.059-1.357-.179a4.248 4.248 0 0 1-1.115-.494 4.126 4.126 0 0 1-.862-.726 3.42 3.42 0 0 1-.578-.873l1.199-.674c.238.463.567.859.988 1.189.421.329.989.494 1.704.494.603 0 1.098-.144 1.483-.432.385-.287.578-.678.578-1.168s-.15-.883-.451-1.178c-.303-.294-.79-.59-1.463-.884l-.842-.378c-.756-.323-1.353-.709-1.788-1.158-.435-.448-.652-1.059-.652-1.83 0-.406.078-.774.231-1.104.155-.33.365-.61.631-.842.267-.232.579-.406.937-.526s.747-.179 1.168-.179c.743 0 1.356.145 1.84.431.484.288.888.677 1.209 1.169l-1.115.757a3.241 3.241 0 0 0-.778-.8c-.295-.21-.666-.315-1.115-.315-.477 0-.859.119-1.147.358-.287.238-.431.581-.431 1.03 0 .407.12.732.358.978.237.246.616.488 1.136.727l.862.379c.898.393 1.603.834 2.115 1.324.512.492.768 1.164.768 2.021 0 .884-.322 1.585-.968 2.104-.644.52-1.492.779-2.545.779"/></svg>