<svg version="1.1" id="Layer_1" xmlns="http://www.w3.org/2000/svg" x="0" y="0" width="159.103" height="84.518" viewBox="0 0 159.103 84.518" xml:space="preserve"><path fill="#55BCEB" d="M146.234 58.844l.726-.395a.75.75 0 0 0 .295.436c.146.101.331.149.558.149.196 0 .352-.046.461-.135a.446.446 0 0 0 .167-.37c0-.206-.199-.382-.595-.53a6.358 6.358 0 0 1-.308-.118c-.408-.17-.692-.342-.855-.516a.899.899 0 0 1-.243-.634c0-.34.133-.615.399-.829.27-.209.621-.315 1.059-.315.296 0 .547.056.758.162a.997.997 0 0 1 .458.465l-.618.427a.573.573 0 0 0-.236-.288.741.741 0 0 0-.395-.107.629.629 0 0 0-.4.118.387.387 0 0 0-.15.316c0 .198.225.377.673.542.143.05.251.093.327.125.353.139.604.297.755.471s.227.396.227.656c0 .383-.138.68-.414.896-.275.216-.653.323-1.142.323-.369 0-.682-.07-.926-.208a1.422 1.422 0 0 1-.581-.641m-1.372-2.508c.094-.252.218-.439.371-.561a.927.927 0 0 1 .574-.18c.123 0 .244.016.363.042.119.03.238.074.354.13l-.315.742-.241-.118a1.008 1.008 0 0 0-.293-.039c-.291 0-.499.115-.623.347-.126.231-.189.622-.189 1.167v1.67h-.871v-3.818h.871v.618zm-4.512-.608v2.148c0 .368.075.632.228.793.153.161.399.241.742.241.344 0 .59-.08.74-.241.155-.161.23-.425.23-.793v-2.148h.872v1.886c0 .728-.146 1.255-.438 1.585-.291.329-.757.494-1.396.494-.65 0-1.123-.162-1.415-.489s-.435-.857-.435-1.59v-1.886h.872zm-2.31 1.448c-.036-.274-.14-.482-.312-.625-.177-.146-.414-.215-.716-.215-.285 0-.517.069-.689.208-.175.139-.296.349-.365.632h2.082zm.903.584h-3.044c.023.356.129.635.319.836.188.197.441.3.759.3.283 0 .516-.061.701-.179.19-.117.352-.308.492-.572l.73.411c-.215.384-.478.667-.793.854a2.141 2.141 0 0 1-1.113.282c-.611 0-1.096-.188-1.459-.557-.359-.376-.542-.871-.542-1.492 0-.598.188-1.088.561-1.473.374-.383.853-.575 1.44-.575.612 0 1.091.176 1.434.526.346.349.515.841.515 1.473v.166zm-8.156 1.776v-3.809h.82v.625c.175-.265.378-.456.614-.577.233-.117.521-.18.859-.18.285 0 .526.045.726.134a1.055 1.055 0 0 1 .614.765c.028.14.044.385.044.731v2.31h-.882v-1.954c0-.501-.06-.834-.183-1-.121-.164-.338-.246-.65-.246-.201 0-.384.036-.543.113a.863.863 0 0 0-.51.668 4.232 4.232 0 0 0-.039.684v1.734h-.87zm-1.464-2.36c-.033-.274-.138-.482-.312-.625-.173-.146-.414-.215-.714-.215-.287 0-.518.069-.691.208s-.294.349-.364.632h2.081zm.906.584h-3.044c.021.356.126.635.316.836.189.197.443.3.76.3.282 0 .516-.061.702-.179.188-.117.351-.308.491-.572l.731.411c-.214.384-.478.667-.795.854-.314.188-.688.282-1.111.282-.61 0-1.098-.188-1.458-.557-.362-.376-.543-.871-.543-1.492 0-.598.187-1.088.562-1.473.37-.383.852-.575 1.438-.575.612 0 1.092.176 1.434.526.344.349.516.841.516 1.473v.166zm-5.479-1.424c.095-.252.217-.439.37-.561a.931.931 0 0 1 .574-.18c.124 0 .245.016.365.042.119.03.236.074.351.13l-.312.742-.243-.118a1 1 0 0 0-.291-.039c-.29 0-.499.115-.625.347s-.188.622-.188 1.167v1.67h-.872v-3.818h.872v.618zm-5.313 4.992v-5.601h.872v.62a1.17 1.17 0 0 1 .489-.557c.224-.129.492-.195.802-.195.506 0 .918.185 1.232.561.314.373.472.863.472 1.472 0 .64-.154 1.145-.465 1.513-.307.367-.733.552-1.271.552-.269 0-.506-.054-.712-.16a1.54 1.54 0 0 1-.547-.489v2.285h-.872zm.846-3.709c0 .395.098.709.295.946a.962.962 0 0 0 .777.354c.328 0 .584-.108.766-.329.18-.222.271-.532.271-.938 0-.402-.095-.717-.283-.944-.188-.226-.446-.34-.778-.34-.328 0-.586.11-.77.331-.187.219-.278.526-.278.92m-2.309-.443c-.033-.274-.138-.482-.312-.625-.173-.146-.412-.215-.714-.215-.286 0-.517.069-.69.208-.173.139-.295.349-.365.632h2.081zm.906.584h-3.045c.021.356.127.635.318.836.19.197.443.3.76.3.281 0 .516-.061.702-.179.188-.117.352-.308.491-.572l.731.411c-.214.384-.478.667-.794.854a2.139 2.139 0 0 1-1.111.282c-.614 0-1.1-.188-1.461-.557-.36-.376-.541-.871-.541-1.492 0-.598.188-1.088.561-1.473.374-.383.854-.575 1.441-.575.609 0 1.09.176 1.434.526.341.349.514.841.514 1.473v.166zm-5.478-1.424c.094-.252.218-.439.373-.561a.915.915 0 0 1 .572-.18 1.7 1.7 0 0 1 .364.042c.119.03.236.074.352.13l-.312.742-.245-.118a.97.97 0 0 0-.29-.039c-.29 0-.499.115-.624.347-.127.231-.189.622-.189 1.167v1.67h-.872v-3.818h.872v.618zm-2.813 3.2v-3.043h-.665v-.766h.665v-1.44h.872v1.44h.667v.766h-.667v3.043h-.872zm-4.693 0v-3.809h.818v.625c.177-.265.38-.456.615-.577.236-.117.523-.18.862-.18.282 0 .524.045.725.134.197.09.353.224.467.401.067.104.115.226.146.364.027.14.044.385.044.731v2.31h-.882v-1.954c0-.501-.058-.834-.182-1-.122-.164-.337-.246-.649-.246-.201 0-.385.036-.545.113a.94.94 0 0 0-.375.314.923.923 0 0 0-.136.354 4.546 4.546 0 0 0-.037.684v1.734h-.871zm-1.464-2.36c-.035-.274-.137-.482-.313-.625-.174-.146-.411-.215-.714-.215-.286 0-.517.069-.691.208-.172.139-.293.349-.365.632h2.083zm.904.584h-3.043c.022.356.128.635.317.836.189.197.444.3.759.3.281 0 .518-.061.705-.179.187-.117.349-.308.489-.572l.731.411c-.213.384-.478.667-.794.854-.315.188-.688.282-1.112.282-.611 0-1.098-.188-1.457-.557-.362-.376-.543-.871-.543-1.492 0-.598.187-1.088.56-1.473.375-.383.854-.575 1.44-.575.612 0 1.092.176 1.434.526.342.349.514.841.514 1.473v.166zm-6.333 1.54c0 .745-.148 1.267-.449 1.571-.295.306-.797.457-1.5.457-.526 0-.945-.11-1.259-.333-.313-.22-.473-.514-.479-.884l.938-.004a.47.47 0 0 0 .228.377c.141.087.337.128.586.128.376 0 .642-.082.807-.244.162-.163.245-.438.247-.821l.01-.504a1.543 1.543 0 0 1-.545.489c-.209.106-.445.16-.714.16-.538 0-.963-.185-1.271-.552-.31-.368-.466-.873-.466-1.513 0-.608.158-1.099.475-1.472.317-.376.729-.561 1.238-.561.312 0 .577.064.797.195.221.128.385.314.486.557v-.62h.872V59.3zm-.847-1.681c0-.395-.093-.701-.275-.92-.185-.221-.441-.331-.769-.331-.332 0-.59.114-.78.34-.189.228-.283.542-.283.944 0 .405.092.716.273.938.183.221.439.329.771.329.314 0 .57-.119.767-.358.196-.239.296-.552.296-.942m-7.229 1.917v-3.809h.819v.625c.175-.265.38-.456.616-.577.236-.117.521-.18.859-.18.286 0 .525.045.727.134.199.09.355.224.468.401.067.104.113.226.144.364.03.14.045.385.045.731v2.31h-.881v-1.954c0-.501-.059-.834-.183-1-.12-.164-.338-.246-.649-.246-.203 0-.386.036-.544.113a.905.905 0 0 0-.374.314.892.892 0 0 0-.136.354 4.232 4.232 0 0 0-.039.684v1.734h-.872zm-1.766-3.808h.872v3.809h-.872v-3.809zm-.117-1.646c0-.146.056-.274.163-.382a.534.534 0 0 1 .39-.162.532.532 0 0 1 .542.544.532.532 0 0 1-.542.551.541.541 0 0 1-.39-.162.538.538 0 0 1-.163-.389m-1.733 2.254c.093-.252.217-.439.371-.561a.926.926 0 0 1 .573-.18c.123 0 .246.016.362.042.12.03.239.074.354.13l-.312.742-.243-.118a1.008 1.008 0 0 0-.293-.039c-.291 0-.498.115-.623.347s-.188.622-.188 1.167v1.67h-.873v-3.818h.873v.618zm-2.642-.608h.873v3.809h-.873v-3.809zm-.114-1.646c0-.146.055-.274.163-.382a.53.53 0 0 1 .388-.162.532.532 0 0 1 .544.544.533.533 0 0 1-.544.551.537.537 0 0 1-.388-.162.534.534 0 0 1-.163-.389m-4.366 7.246v-5.601h.872v.62c.101-.24.265-.424.488-.557.225-.129.492-.195.803-.195.506 0 .917.185 1.231.561.315.373.473.863.473 1.472 0 .64-.155 1.145-.465 1.513-.309.367-.733.552-1.272.552-.268 0-.506-.054-.715-.16a1.538 1.538 0 0 1-.543-.489v2.285h-.872zm.842-3.709c0 .395.1.709.298.946a.963.963 0 0 0 .777.354c.329 0 .583-.108.766-.329.181-.222.271-.532.271-.938 0-.402-.094-.717-.284-.944-.188-.226-.447-.34-.777-.34-.328 0-.585.11-.769.331-.188.219-.282.526-.282.92m-4.433 1.225l.725-.395a.74.74 0 0 0 .297.436c.144.101.331.149.556.149.196 0 .351-.046.462-.135a.454.454 0 0 0 .166-.37c0-.206-.198-.382-.595-.53a5.87 5.87 0 0 1-.307-.118c-.408-.17-.693-.342-.855-.516a.897.897 0 0 1-.241-.634c0-.34.131-.615.397-.829.269-.209.621-.315 1.059-.315.295 0 .547.056.758.162a.99.99 0 0 1 .457.465l-.617.427a.577.577 0 0 0-.238-.288.74.74 0 0 0-.394-.107.636.636 0 0 0-.4.118.383.383 0 0 0-.151.316c0 .198.226.377.673.542.143.05.252.093.329.125.351.139.603.297.754.471.15.174.225.396.225.656 0 .383-.136.68-.413.896-.276.216-.654.323-1.14.323-.371 0-.682-.07-.927-.208a1.432 1.432 0 0 1-.58-.641m-4.051.692v-3.809h.82v.625c.173-.265.378-.456.613-.577.236-.117.523-.18.862-.18.283 0 .525.045.724.134a1.05 1.05 0 0 1 .614.765c.03.14.043.385.043.731v2.31h-.879v-1.954c0-.501-.061-.834-.182-1-.122-.164-.338-.246-.649-.246a1.25 1.25 0 0 0-.546.113.863.863 0 0 0-.509.668 4.26 4.26 0 0 0-.038.684v1.734h-.873zm-1.769-3.808h.872v3.809h-.872v-3.809zm-.114-1.646a.52.52 0 0 1 .163-.382.53.53 0 0 1 .388-.162.528.528 0 0 1 .543.544.531.531 0 0 1-.543.551.537.537 0 0 1-.388-.162.526.526 0 0 1-.163-.389"/><path fill="#3E4095" d="M135.714 31.373a18.89 18.89 0 0 1 2.432-.565 48.87 48.87 0 0 1 2.793-.372 361.302 361.302 0 0 0 6.382-.693c.39 0 .618.051.688.161.068.104.163.351.271.742.252.131.414.25.496.354.079.11.155.257.227.454.077.195.161.341.252.431-.137.03-.588.139-1.351.329-.758.189-1.514.375-2.27.557-.75.18-1.569.355-2.446.531-.884.172-1.767.328-2.66.465l-2.017 4.162 6.119-.518c.181.165.266.423.266.766 0 .134.02.228.059.294a9.8 9.8 0 0 0 .314.557c.169.282.256.526.256.72-1.449.4-2.975.771-4.586 1.107-1.609.343-2.887.51-3.832.51-.38.604-.729 1.149-1.041 1.628a42.411 42.411 0 0 0-.964 1.587 16.065 16.065 0 0 0-.87 1.735 8.773 8.773 0 0 0-.537 1.677 89.25 89.25 0 0 0 1.802-.335l1.929-.368c.475-.087 1.01-.166 1.615-.229a15.873 15.873 0 0 1 1.724-.099c.964 0 1.81.126 2.534.376.13.288.203.662.217 1.134.016.464.042.809.091 1.021l-13.113 2c-.038-.604-.279-1.017-.736-1.242.047-1.092.2-2.103.461-3.029.257-.925.584-1.776.973-2.541.391-.765.843-1.564 1.364-2.399.519-.838.843-1.369.96-1.602-.066-.223-.18-.559-.342-1.021a11.833 11.833 0 0 0-.312-.827c.326-.094.659-.176 1.002-.252.341-.074.627-.133.849-.181.285-.494.499-.868.632-1.134.138-.267.479-.937 1.019-2.011.54-1.079.858-1.696.954-1.868-.152-.018-.279-.033-.391-.053a1.81 1.81 0 0 1-.283-.066l-.248-.098a1.37 1.37 0 0 1-.499-.734 5.7 5.7 0 0 1-.183-1.061m-15.047 0a18.866 18.866 0 0 1 2.433-.565 49.15 49.15 0 0 1 2.794-.372 365.656 365.656 0 0 0 6.382-.693c.389 0 .617.051.688.161.066.104.161.351.271.742.252.131.414.25.494.354.079.11.154.257.227.454.076.195.162.341.252.431-.138.03-.589.139-1.348.329-.762.189-1.517.375-2.272.557-.751.18-1.566.355-2.447.531-.883.172-1.767.328-2.659.465l-2.017 4.162 6.12-.518c.182.165.268.423.268.766 0 .134.019.228.055.294.04.08.144.267.315.557.17.282.257.526.257.72-1.449.4-2.975.771-4.585 1.107-1.611.343-2.89.51-3.835.51a98.668 98.668 0 0 1-1.041 1.628 42.411 42.411 0 0 0-.964 1.587 15.502 15.502 0 0 0-.867 1.735 8.512 8.512 0 0 0-.539 1.677c.391-.068.989-.176 1.801-.335l1.929-.368a21.264 21.264 0 0 1 1.615-.229 15.898 15.898 0 0 1 1.727-.099c.965 0 1.808.126 2.531.376.133.288.205.662.218 1.134.015.464.044.809.091 1.021l-13.114 2c-.038-.604-.278-1.017-.735-1.242.049-1.092.2-2.103.461-3.029.256-.925.584-1.776.973-2.541.39-.765.842-1.564 1.365-2.399.517-.838.841-1.369.96-1.602a33.045 33.045 0 0 0-.342-1.021 10.013 10.013 0 0 0-.314-.827c.328-.094.66-.176 1.002-.252.342-.074.627-.133.851-.181.286-.494.499-.868.632-1.134.139-.267.477-.937 1.017-2.011.541-1.079.862-1.696.955-1.868-.15-.018-.28-.033-.391-.053a1.81 1.81 0 0 1-.283-.066l-.246-.098a1.352 1.352 0 0 1-.501-.734c-.09-.3-.145-.653-.184-1.061m-15.558 2.033c2.821-.597 5.277-1.055 7.378-1.364 2.094-.307 4.785-.655 8.071-1.043.139 0 .275.052.408.162.137.104.333.213.595.323.108.194.228.394.346.597.124.205.224.399.301.586.08.184.119.342.119.474a96.77 96.77 0 0 0-2.886.676 66.99 66.99 0 0 0-2.419.661c-.864.246-1.689.474-2.477.679-.111.195-.321.622-.63 1.288-.303.659-.749 1.734-1.335 3.216-.261.651-.637 1.563-1.126 2.736a210.985 210.985 0 0 1-1.207 2.845c-.308.718-.678 1.582-1.111 2.599a163.265 163.265 0 0 0-1.426 3.482c-.232-.028-.535-.19-.911-.488-.375-.295-.599-.46-.661-.499-.188-.077-.36-.147-.519-.214a1.901 1.901 0 0 1-.374-.222c-.096-.083-.137-.159-.137-.236l5.87-14.251c-.845.052-1.613.129-2.317.225-.698.089-1.668.265-2.903.525a.783.783 0 0 1-.247-.455 4.378 4.378 0 0 1-.057-.817c0-.156-.024-.303-.075-.438a2.266 2.266 0 0 0-.146-.318l-.124-.229-.058-.208c0-.049.02-.145.058-.292m-4.818 10.158c.31-.528.685-1.359 1.131-2.496.445-1.14.972-2.47 1.591-4.004a48.298 48.298 0 0 1 1.883-4.139c.635-1.23 1.302-2.261 1.994-3.098.206 0 .419.057.642.176.223.114.365.18.433.199.282.029.517.052.723.077.204.024.364.052.475.09l-8.354 20.21a5.273 5.273 0 0 1-1.928-.343c-.591-.227-.936-.492-1.036-.798a15.272 15.272 0 0 1-.489-2.337 51.894 51.894 0 0 1-.317-3.368 146.439 146.439 0 0 1-.243-4.561 208.022 208.022 0 0 0-.118-2.623l-5.963 14.8c-.413-.077-.908-.3-1.473-.687a3.475 3.475 0 0 0-.371-.149 1.786 1.786 0 0 1-.471-.225.432.432 0 0 1-.188-.332c.203-2.452 1.779-6.738 4.73-12.862.495-.991 1.003-1.999 1.534-3.015.527-1.021.961-1.858 1.293-2.51a2.567 2.567 0 0 1 1.364-.779c.532-.109 1.245-.167 2.146-.167l1.012 12.941zM79.12 31.373a18.89 18.89 0 0 1 2.432-.565 48.909 48.909 0 0 1 2.794-.372 361.085 361.085 0 0 0 6.382-.693c.39 0 .617.051.688.161.068.104.161.351.271.742.251.131.414.25.495.354.079.11.156.257.228.454.075.195.161.341.251.431-.139.03-.588.139-1.35.329-.759.189-1.515.375-2.271.557-.751.18-1.567.355-2.446.531-.885.172-1.767.328-2.662.465l-2.014 4.162 6.119-.518c.181.165.266.423.266.766 0 .134.02.228.059.294.037.08.142.267.312.557.171.282.258.526.258.72-1.45.4-2.976.771-4.586 1.107-1.61.343-2.887.51-3.834.51a98.668 98.668 0 0 1-1.041 1.628c-.307.485-.63 1.012-.964 1.587a15.863 15.863 0 0 0-.868 1.735 8.703 8.703 0 0 0-.537 1.677c.39-.068.989-.176 1.8-.335l1.927-.368a21.473 21.473 0 0 1 1.617-.229c.604-.066 1.18-.099 1.726-.099.963 0 1.811.126 2.533.376.132.288.202.662.217 1.134.016.464.044.809.091 1.021l-13.112 2c-.038-.604-.281-1.017-.736-1.242.046-1.092.199-2.103.459-3.029.257-.925.585-1.776.975-2.541s.841-1.564 1.364-2.399c.518-.838.839-1.369.958-1.602a25.974 25.974 0 0 0-.341-1.021c-.163-.461-.267-.737-.315-.827a17.12 17.12 0 0 1 1.004-.252c.34-.074.625-.133.849-.181.285-.494.499-.868.633-1.134.138-.267.475-.937 1.017-2.011.541-1.079.86-1.696.954-1.868-.152-.018-.279-.033-.39-.053a1.87 1.87 0 0 1-.285-.066l-.246-.098a1.354 1.354 0 0 1-.499-.734 5.876 5.876 0 0 1-.182-1.061"/><path fill="#3E4095" d="M46.796 28.232c2.604-2.465 5.036-4.588 7.297-6.364 2.26-1.778 4.32-3.112 6.175-4.003 1.858-.891 3.413-1.172 4.667-.84.968.255 1.576.766 1.823 1.534.249.766.23 1.72-.052 2.861-.281 1.139-.794 2.425-1.539 3.851a65.316 65.316 0 0 1-2.636 4.55 193.877 193.877 0 0 1 5.686-6.309c1.809-1.914 3.506-3.511 5.096-4.791 1.588-1.278 3.054-2.173 4.4-2.682 1.348-.509 2.526-.529 3.54-.06 1.35.624 2.078 1.618 2.18 2.982.104 1.361-.187 2.941-.869 4.739-.684 1.798-1.641 3.735-2.872 5.814a136.003 136.003 0 0 1-3.87 6.142 865.047 865.047 0 0 1-3.876 5.755c-1.237 1.823-2.202 3.371-2.893 4.654-.692 1.281-.999 2.228-.92 2.835.08.608.769.713 2.072.314.634-.193 1.119-.261 1.453-.201.334.061.497.189.488.388-.01.196-.195.431-.56.705-.365.273-.912.523-1.644.745-1.588.485-2.743.58-3.466.279-.723-.295-1.119-.889-1.188-1.775-.071-.887.122-2.015.573-3.386.454-1.371 1.067-2.862 1.84-4.475a100.958 100.958 0 0 1 2.623-5.083 2413.72 2413.72 0 0 0 2.871-5.229 433.235 433.235 0 0 0 2.639-4.892c.822-1.548 1.455-2.908 1.897-4.082.444-1.172.653-2.104.625-2.792-.03-.689-.395-1.021-1.102-1.001-.438.005-1.122.368-2.052 1.089-.93.722-2.024 1.696-3.286 2.925a144.807 144.807 0 0 0-4.209 4.301 225.617 225.617 0 0 0-4.792 5.257 440.468 440.468 0 0 0-4.973 5.728 381.534 381.534 0 0 0-9.149 11.135 226.732 226.732 0 0 0-3.479 4.516c-.431.684-.896 1.231-1.401 1.645-.504.414-.932.625-1.285.637-.353.011-.557-.236-.613-.736-.057-.503.167-1.317.672-2.443.592-1.348 1.376-2.877 2.35-4.585.973-1.707 2.05-3.489 3.228-5.337a655.675 655.675 0 0 1 3.624-5.631 1450.09 1450.09 0 0 0 3.57-5.517 583.176 583.176 0 0 0 3.158-4.954c.96-1.525 1.717-2.827 2.265-3.902.551-1.077.852-1.889.904-2.441.052-.55-.224-.732-.829-.548-1.047.32-2.418 1.112-4.111 2.374-1.693 1.263-3.582 2.838-5.669 4.723a206.032 206.032 0 0 0-6.711 6.38 410.865 410.865 0 0 0-7.28 7.403 547.14 547.14 0 0 0-7.282 7.745 958.132 958.132 0 0 0-6.769 7.419 793.721 793.721 0 0 0-5.739 6.422 479.717 479.717 0 0 1-4.2 4.713l.504-.738c-.381.44-.727.845-1.036 1.216-.311.37-.584.721-.816 1.053-.235.33-.506.526-.813.589-.309.061-.572.02-.789-.126-.214-.143-.355-.368-.42-.671-.066-.308.042-.679.32-1.121 4.362-6.744 11.138-13.6 16.708-19.318l-.009.013c6.397-6.456 13.348-13.147 19.951-19.398"/></svg>