<svg version="1.1" id="Layer_2" xmlns="http://www.w3.org/2000/svg" x="0" y="0" width="32" height="23" viewBox="0 0 32 23" xml:space="preserve"><path d="M0 11.463a4.742 4.742 0 0 0 4.736 4.736h2.685v-2.233H4.736c-1.38 0-2.503-1.122-2.503-2.503s1.123-2.504 2.503-2.504H7.42V6.726H4.736A4.742 4.742 0 0 0 0 11.463zm12.04-4.737H9.355v2.233h2.685a2.506 2.506 0 0 1 2.503 2.504 2.506 2.506 0 0 1-2.503 2.503H9.355v2.233h2.685a4.742 4.742 0 0 0 4.736-4.736 4.742 4.742 0 0 0-4.736-4.737zM8.099 4.744h.579V7.89h-.579zm0 5.127h.579v3.15h-.579zm0 5.131h.579v3.146h-.579zM31.641-.007v23" fill="#FFF"/></svg>