<svg version="1.1" xmlns="http://www.w3.org/2000/svg" x="0" y="0" width="74.886" height="75.016" viewBox="0 0 74.886 75.016" xml:space="preserve"><g fill="none" stroke="#000" stroke-linecap="round" stroke-linejoin="round" stroke-miterlimit="10" id="Layer_3"><path d="M.686 39.67h73.515v34.596H.686z"/><path d="M2.847 41.833h4.325v4.323H2.847zm6.487 0h4.324v4.323H9.334zm6.487 0h4.325v4.323h-4.325zm6.486 0h4.324v4.323h-4.324zm6.487 0h4.325v4.323h-4.325zm6.486 0h4.326v4.323H35.28zm6.488 0h4.323v4.323h-4.323zm6.485 0h4.324v4.323h-4.324zm6.488 0h4.323v4.323h-4.323zm6.487 0h4.323v4.323h-4.323zm6.487 0h4.324v4.323h-4.324zM2.847 48.32h4.325v4.323H2.847zm6.487 0h4.324v4.323H9.334zm6.487 0h4.325v4.323h-4.325zm6.486 0h4.324v4.323h-4.324zm6.487 0h4.325v4.323h-4.325zm6.486 0h4.326v4.323H35.28zm6.489 0h10.809v4.323H41.769zm12.972 0h4.323v4.323h-4.323zm6.487 0h4.323v4.323h-4.323zm6.487 0h4.324v4.323h-4.324zM2.847 54.805h10.812v4.325H2.847zm12.974 0h4.325v4.325h-4.325zm6.486 0h4.324v4.325h-4.324zm6.487 0h4.325v4.325h-4.325zm6.486 0h4.326v4.325H35.28zm6.488 0h4.323v4.325h-4.323zm12.973 0h4.323v4.325h-4.323zm6.487 0h4.323v4.325h-4.323zm6.487 0h4.324v4.325h-4.324zM2.847 61.292h10.812v4.322H2.847zm12.974 0h4.325v4.322h-4.325zm6.486 0h4.324v4.322h-4.324zm6.487 0h4.325v4.322h-4.325zm6.486 0h4.326v4.322H35.28z"/><path d="M48.253 54.805v6.487h-6.484v4.323h10.808v-10.81zm6.488 6.487h4.323v4.322h-4.323zm6.487 0h4.323v4.322h-4.323zm6.487 0h4.324v4.322h-4.324zM2.847 67.78h4.325v4.324H2.847zm6.487 0h4.324v4.324H9.334zm6.487 0h30.27v4.324h-30.27zm32.432 0h4.324v4.324h-4.324zm6.488 0h4.323v4.324h-4.323zm6.487 0h4.323v4.324h-4.323zm6.487 0h4.324v4.324h-4.324zM46.741 12.345c2.219 0 4.44-.85 6.135-2.542a8.634 8.634 0 0 1 6.139-2.542 8.676 8.676 0 0 1 8.677 8.678v.002a8.678 8.678 0 0 1-14.816 6.136 8.655 8.655 0 0 0-6.135-2.544v-7.188zm0 0h-6.947l-1.857 1.236v4.711l1.857 1.242h6.947z"/><path d="M41.533 12.345l-1.74 7.189 1.74-7.189zm3.254 0l-1.738 7.189 1.738-7.189zm6.91 4.833c.685 0 1.243-.554 1.243-1.241 0-.684-.558-1.239-1.243-1.239h-4.956v2.48h4.956z"/><path d="M52.433 14.948l6.582-2.729a2.478 2.478 0 0 0 2.479 2.48 1.754 1.754 0 0 0 0 2.479 2.477 2.477 0 0 0-2.479 2.479l-6.582-2.726 6.582 2.726a2.476 2.476 0 0 1 2.479-2.479 1.754 1.754 0 0 1 0-2.479 2.48 2.48 0 0 1-2.479-2.48l-6.582 2.729zm21.767.99h-3.254H74.2zM59.015.75v3.255V.75zm-.003 30.378v-3.255 3.255zm10.737-4.452l-2.298-2.303 2.298 2.303zm.004-21.477L67.451 7.5l2.302-2.301zm-21.478 0L50.578 7.5l-2.303-2.301zm0 21.477l2.303-2.303-2.303 2.303zm24.767-16.548l-6.012 2.489 6.012-2.489zm-8.218 19.843l-2.489-6.015 2.489 6.015zM53.202 1.907l2.491 6.015-2.491-6.015zm0 28.064l2.491-6.015-2.491 6.015zM64.824 1.907l-2.489 6.015 2.489-6.015zm8.218 19.844l-6.009-2.489 6.009 2.489zM37.937 15.94H7.577a6.89 6.89 0 0 0-6.892 6.892 6.89 6.89 0 0 0 6.89 6.892l22.977-.002a6.891 6.891 0 0 1 6.891 6.894v3.051-3.051a6.891 6.891 0 0 0-6.891-6.894l-22.976.002a6.891 6.891 0 0 1-6.89-6.892 6.89 6.89 0 0 1 6.892-6.892h30.359z"/></g></svg>