<svg version="1.1" id="Layer_1" xmlns="http://www.w3.org/2000/svg" x="0" y="0" width="74.886" height="75.016" viewBox="0 0 74.886 75.016" xml:space="preserve"><path d="M55.46 28.192h.5a9.167 9.167 0 0 0-2.695-6.508c-1.486-1.483-2.4-3.528-2.4-5.794s.917-4.313 2.401-5.799a8.165 8.165 0 0 1 5.796-2.402h.002a8.17 8.17 0 0 1 5.798 2.402 8.172 8.172 0 0 1 2.401 5.799 8.156 8.156 0 0 1-2.4 5.794 9.169 9.169 0 0 0-2.697 6.508h.5v-.5H55.46v.5h.5-.5v.5h7.205c.132 0 .261-.053.354-.146s.146-.222.146-.354a8.174 8.174 0 0 1 2.404-5.801 9.161 9.161 0 0 0 2.693-6.502 9.199 9.199 0 0 0-9.199-9.201h-.002c-5.079 0-9.197 4.12-9.197 9.201a9.153 9.153 0 0 0 2.693 6.502 8.17 8.17 0 0 1 2.402 5.801.498.498 0 0 0 .5.5v-.5z"/><path d="M55.46 28.192h-.5v6.959c0 .098.03.196.084.277l1.242 1.863a.501.501 0 0 0 .416.223h4.723a.499.499 0 0 0 .416-.223l1.242-1.863a.506.506 0 0 0 .084-.277v-6.959a.498.498 0 0 0-.5-.5H55.46c-.132 0-.261.053-.354.146s-.146.222-.146.354h.5v.5h6.707V35l-1.01 1.515H56.97L55.96 35v-6.808h-.5v.5-.5z"/><path d="M55.46 33.411l-.117.486 7.207 1.742a.505.505 0 0 0 .378-.059.51.51 0 0 0 .226-.309c.03-.128.009-.266-.06-.378s-.182-.194-.31-.225l-7.207-1.742a.5.5 0 0 0-.235.972l.118-.487-.117.486 7.207 1.742a.505.505 0 0 0 .378-.059.51.51 0 0 0 .226-.309c.03-.128.009-.266-.06-.378s-.182-.194-.31-.225l-7.207-1.742a.5.5 0 0 0-.235.972l.118-.487zm0-3.263l-.117.486 7.207 1.741a.505.505 0 0 0 .378-.059.51.51 0 0 0 .226-.31c.03-.128.009-.266-.06-.378s-.182-.194-.31-.225l-7.207-1.741a.5.5 0 0 0-.235.972l.118-.486-.117.486 7.207 1.741a.505.505 0 0 0 .378-.059.51.51 0 0 0 .226-.31c.03-.128.009-.266-.06-.378s-.182-.194-.31-.225l-7.207-1.741a.5.5 0 0 0-.235.972l.118-.486zm4.846-6.929h.5a1.745 1.745 0 0 0-1.744-1.744 1.746 1.746 0 0 0-1.742 1.743v4.974a.498.498 0 0 0 .5.5h2.484c.132 0 .261-.053.354-.146s.146-.222.146-.354v-4.973h-.5v.5h.002c.132 0 .261-.053.354-.146s.146-.222.146-.354h-.5v-.5h-.002c-.132 0-.261.053-.354.146s-.146.222-.146.354v4.473H58.32v-4.473.001a.746.746 0 0 1 .742-.746c.41.001.743.335.744.744h.5v-.5.501z"/><path d="M58.067 22.483l.462-.191-2.732-6.594-.462.191v.5a2.989 2.989 0 0 0 2.986-2.988h-.5l-.354.353a2.254 2.254 0 0 0 3.193.005l-.354-.354h-.5a2.985 2.985 0 0 0 2.986 2.984v-.5l-.462-.191-2.734 6.594a.496.496 0 0 0 .271.653c.121.05.261.05.383 0a.506.506 0 0 0 .271-.271l2.734-6.594a.499.499 0 0 0-.462-.691 1.988 1.988 0 0 1-1.986-1.984.5.5 0 0 0-.854-.354 1.251 1.251 0 0 1-1.777-.003.5.5 0 0 0-.855.353 1.99 1.99 0 0 1-1.986 1.989.5.5 0 0 0-.462.691l2.732 6.594c.051.122.149.22.271.271a.503.503 0 0 0 .654-.654l-.463.191.462-.191-2.732-6.594-.462.191v.5a2.989 2.989 0 0 0 2.986-2.988h-.5l-.354.353a2.254 2.254 0 0 0 3.193.005l-.354-.354h-.5a2.985 2.985 0 0 0 2.986 2.984v-.5l-.462-.191-2.734 6.594a.496.496 0 0 0 .271.653c.121.05.261.05.383 0a.506.506 0 0 0 .271-.271l2.734-6.594a.499.499 0 0 0-.462-.691 1.988 1.988 0 0 1-1.986-1.984.5.5 0 0 0-.854-.354 1.251 1.251 0 0 1-1.777-.003.5.5 0 0 0-.855.353 1.99 1.99 0 0 1-1.986 1.989.5.5 0 0 0-.462.691l2.732 6.594c.051.122.149.22.271.271a.503.503 0 0 0 .654-.654l-.463.191zm.996-21.82h-.5v3.264a.498.498 0 0 0 .5.5c.132 0 .261-.053.354-.146s.146-.222.146-.354V.663a.498.498 0 0 0-.5-.5c-.132 0-.261.053-.354.146s-.146.222-.146.354h.5-.5v3.264a.498.498 0 0 0 .5.5c.132 0 .261-.053.354-.146s.146-.222.146-.354V.663a.498.498 0 0 0-.5-.5c-.132 0-.261.053-.354.146s-.146.222-.146.354h.5zM43.837 15.887v.5h3.264a.504.504 0 0 0 .354-.146.504.504 0 0 0 0-.708.498.498 0 0 0-.354-.146h-3.264a.504.504 0 0 0-.354.146.504.504 0 0 0 0 .708.498.498 0 0 0 .354.146v-.5.5h3.264a.504.504 0 0 0 .354-.146.504.504 0 0 0 0-.708.498.498 0 0 0-.354-.146h-3.264a.504.504 0 0 0-.354.146.504.504 0 0 0 0 .708.498.498 0 0 0 .354.146v-.5zm30.453 0v-.5h-3.266a.504.504 0 0 0-.354.146.504.504 0 0 0 0 .708.498.498 0 0 0 .354.146h3.266a.504.504 0 0 0 .354-.146.504.504 0 0 0 0-.708.498.498 0 0 0-.354-.146v.5-.5h-3.266a.504.504 0 0 0-.354.146.504.504 0 0 0 0 .708.498.498 0 0 0 .354.146h3.266a.504.504 0 0 0 .354-.146.504.504 0 0 0 0-.708.498.498 0 0 0-.354-.146v.5zM69.827 5.123l-.354-.354-2.307 2.306a.5.5 0 0 0 .707.707l2.307-2.306a.504.504 0 0 0 0-.708.504.504 0 0 0-.708 0l.355.355-.354-.354-2.307 2.306a.5.5 0 0 0 .707.707l2.307-2.306a.504.504 0 0 0 0-.708.504.504 0 0 0-.708 0l.355.355zm-21.529.001l-.354.354 2.309 2.305a.505.505 0 0 0 .708-.001.5.5 0 0 0 0-.708l-2.31-2.304a.5.5 0 1 0-.707.708l.354-.354-.354.354 2.309 2.305a.505.505 0 0 0 .708-.001.5.5 0 0 0 0-.708l-2.31-2.304a.5.5 0 1 0-.707.708l.354-.354zm0 21.525l.354.354 2.309-2.305a.504.504 0 0 0 0-.708.505.505 0 0 0-.708-.001l-2.309 2.305a.5.5 0 0 0 .707.708l-.353-.353.354.354 2.309-2.305a.504.504 0 0 0 0-.708.505.505 0 0 0-.708-.001l-2.309 2.305a.5.5 0 0 0 .707.708l-.353-.353zm21.529 0l.354-.354-2.307-2.307a.5.5 0 0 0-.707.707l2.307 2.307a.504.504 0 0 0 .708 0 .504.504 0 0 0 0-.708l-.355.355.354-.354-2.307-2.307a.5.5 0 0 0-.707.707l2.307 2.307a.504.504 0 0 0 .708 0 .504.504 0 0 0 0-.708l-.355.355zM53.237 1.825l-.462.191 2.496 6.027a.503.503 0 0 0 .654.271.499.499 0 0 0 .271-.654L53.7 1.633a.5.5 0 0 0-.924.382l.461-.19-.462.191 2.496 6.027a.503.503 0 0 0 .654.271.499.499 0 0 0 .271-.654L53.7 1.633a.5.5 0 0 0-.924.382l.461-.19zm19.893 8.238l-.191-.462-6.029 2.494a.5.5 0 0 0 .382.924l6.029-2.494a.496.496 0 0 0 0-.924.508.508 0 0 0-.383 0l.192.462-.191-.462-6.029 2.494a.5.5 0 0 0 .382.924l6.029-2.494a.496.496 0 0 0 0-.924.508.508 0 0 0-.383 0l.192.462zM44.999 21.712l.191.462 6.025-2.497a.503.503 0 0 0 .271-.654.506.506 0 0 0-.271-.271.508.508 0 0 0-.383 0l-6.025 2.497a.5.5 0 0 0 .382.924l-.19-.461.191.462 6.025-2.497a.503.503 0 0 0 .271-.654.506.506 0 0 0-.271-.271.508.508 0 0 0-.383 0l-6.025 2.497a.5.5 0 0 0 .382.924l-.19-.461zm28.131 0l.191-.462-6.031-2.495a.5.5 0 0 0-.382.924l6.031 2.495a.5.5 0 1 0 .383-.924l-.192.462.191-.462-6.031-2.495a.5.5 0 0 0-.382.924l6.031 2.495a.5.5 0 1 0 .383-.924l-.192.462zM44.999 10.063l-.191.462 6.025 2.494a.5.5 0 1 0 .383-.925L45.19 9.601a.5.5 0 0 0-.382.924l.191-.462-.191.462 6.025 2.494a.5.5 0 1 0 .383-.925L45.19 9.601a.5.5 0 0 0-.382.924l.191-.462zM64.89 1.825l-.462-.191-2.496 6.027a.5.5 0 0 0 .924.382l2.496-6.027a.499.499 0 0 0-.271-.654.503.503 0 0 0-.654.271l.463.192-.462-.191-2.496 6.027a.5.5 0 0 0 .924.382l2.496-6.027a.499.499 0 0 0-.271-.654.503.503 0 0 0-.654.271l.463.192zM11.125 53.958h-.5a.826.826 0 0 1-.817.814.821.821 0 0 1-.815-.814v-5.266a.824.824 0 0 1 .815-.816c.223 0 .425.091.576.241a.81.81 0 0 1 .241.575v5.266h1v-5.266a1.822 1.822 0 0 0-1.817-1.816 1.818 1.818 0 0 0-1.815 1.816v5.266a1.817 1.817 0 0 0 1.815 1.814 1.82 1.82 0 0 0 1.817-1.814h-.5z"/><path d="M9.809 42.112h-.5v5.266c0 .132.053.261.146.354a.504.504 0 0 0 .708 0 .498.498 0 0 0 .146-.354v-5.266a.504.504 0 0 0-.146-.354.504.504 0 0 0-.708 0 .498.498 0 0 0-.146.354h.5-.5v5.266c0 .132.053.261.146.354a.504.504 0 0 0 .708 0 .498.498 0 0 0 .146-.354v-5.266a.504.504 0 0 0-.146-.354.504.504 0 0 0-.708 0 .498.498 0 0 0-.146.354h.5zm0 13.16h-.5v2.631c0 .132.053.261.146.354a.504.504 0 0 0 .708 0 .498.498 0 0 0 .146-.354v-2.631a.504.504 0 0 0-.146-.354.504.504 0 0 0-.708 0 .498.498 0 0 0-.146.354h.5-.5v2.631c0 .132.053.261.146.354a.504.504 0 0 0 .708 0 .498.498 0 0 0 .146-.354v-2.631a.504.504 0 0 0-.146-.354.504.504 0 0 0-.708 0 .498.498 0 0 0-.146.354h.5z"/><path d="M19.02 51.323h.5c0-5.362-4.348-9.711-9.711-9.711-5.364 0-9.711 4.349-9.712 9.711v13.82c0 5.36 4.35 9.709 9.712 9.709 5.363 0 9.709-4.349 9.711-9.709v-13.82h-1v13.82a8.712 8.712 0 0 1-17.423 0v-13.82c0-2.406.974-4.581 2.552-6.159 1.578-1.577 3.753-2.552 6.16-2.552s4.582.975 6.16 2.552a8.681 8.681 0 0 1 2.551 6.159h.5z"/><path d="M59.062 37.014h-.5v30.434a6.38 6.38 0 0 1-1.878 4.53 6.391 6.391 0 0 1-4.532 1.876H30.534a6.39 6.39 0 0 1-4.532-1.877 6.38 6.38 0 0 1-1.877-4.529v-.004c0-1.771.717-3.369 1.878-4.531a6.388 6.388 0 0 1 4.531-1.877h13.819a7.405 7.405 0 0 0 7.408-7.406v-.004a7.402 7.402 0 0 0-7.404-7.402l-13.823-.004c-1.771 0-3.37-.716-4.531-1.877s-1.877-2.761-1.878-4.533c0-1.771.717-3.37 1.878-4.531a6.384 6.384 0 0 1 4.531-1.877l2.303.002a7.408 7.408 0 0 0 7.409-7.408V7.572A7.41 7.41 0 0 0 32.837.163H16.715a7.41 7.41 0 0 0-7.408 7.409v34.54c0 .132.053.261.146.354a.504.504 0 0 0 .708 0 .498.498 0 0 0 .146-.354V7.572c0-1.771.717-3.37 1.877-4.531a6.383 6.383 0 0 1 4.531-1.878h16.121c1.771 0 3.37.717 4.531 1.878a6.385 6.385 0 0 1 1.877 4.531v18.423a6.388 6.388 0 0 1-1.877 4.532 6.387 6.387 0 0 1-4.531 1.876l-2.303-.002a7.41 7.41 0 0 0 0 14.818l13.823.004a6.38 6.38 0 0 1 4.528 1.875 6.377 6.377 0 0 1 1.876 4.527v.009-.005a6.38 6.38 0 0 1-1.877 4.53 6.383 6.383 0 0 1-4.531 1.876H30.534a7.41 7.41 0 0 0-7.409 7.408v.004a7.409 7.409 0 0 0 7.409 7.406h21.618a7.408 7.408 0 0 0 7.41-7.406V37.014a.498.498 0 0 0-.5-.5c-.132 0-.261.053-.354.146s-.146.222-.146.354h.5-.5v30.434a6.38 6.38 0 0 1-1.878 4.53 6.391 6.391 0 0 1-4.532 1.876H30.534a6.39 6.39 0 0 1-4.532-1.877 6.38 6.38 0 0 1-1.877-4.529v-.004c0-1.771.717-3.369 1.878-4.531a6.388 6.388 0 0 1 4.531-1.877h13.819a7.405 7.405 0 0 0 7.408-7.406v-.005l-.117.001h.117v-.001l-.117.001h.117a7.402 7.402 0 0 0-7.404-7.402l-13.823-.004c-1.771 0-3.37-.716-4.531-1.877s-1.877-2.761-1.878-4.533c0-1.771.717-3.37 1.878-4.531a6.384 6.384 0 0 1 4.531-1.877l2.303.002a7.408 7.408 0 0 0 7.409-7.408V7.572A7.41 7.41 0 0 0 32.837.163H16.715a7.41 7.41 0 0 0-7.408 7.409v34.54c0 .132.053.261.146.354a.504.504 0 0 0 .708 0 .498.498 0 0 0 .146-.354V7.572c0-1.771.717-3.37 1.877-4.531a6.383 6.383 0 0 1 4.531-1.878h16.121c1.771 0 3.37.717 4.531 1.878a6.385 6.385 0 0 1 1.877 4.531v18.423a6.388 6.388 0 0 1-1.877 4.532 6.387 6.387 0 0 1-4.531 1.876l-2.303-.002a7.41 7.41 0 0 0 0 14.818l13.823.004a6.38 6.38 0 0 1 4.528 1.875 6.377 6.377 0 0 1 1.876 4.527v.004a6.38 6.38 0 0 1-1.877 4.53 6.383 6.383 0 0 1-4.531 1.876H30.534a7.41 7.41 0 0 0-7.409 7.408v.004a7.409 7.409 0 0 0 7.409 7.406h21.618a7.408 7.408 0 0 0 7.41-7.406V37.014a.498.498 0 0 0-.5-.5c-.132 0-.261.053-.354.146s-.146.222-.146.354h.5z"/></svg>