<svg version="1.1" id="Layer_1" xmlns="http://www.w3.org/2000/svg" x="0" y="0" width="33.55" height="26.81" viewBox="0 0 33.55 26.81" xml:space="preserve"><path d="M.063 13.438c0 5.203 4.233 9.438 9.436 9.438h5.348v-4.452H9.5a4.99 4.99 0 0 1-4.986-4.985A4.992 4.992 0 0 1 9.5 8.451h5.346V4H9.5C4.297 4 .063 8.233.063 13.438zM24.051 4h-5.349v4.45h5.349a4.992 4.992 0 0 1 4.986 4.988 4.992 4.992 0 0 1-4.986 4.985h-5.349v4.452h5.349c5.202 0 9.436-4.234 9.436-9.438C33.486 8.233 29.253 4 24.051 4zM16.198.052h1.153v6.269h-1.153zm0 10.214h1.153v6.278h-1.153zm0 10.223h1.153v6.269h-1.153z" fill="#4D4D4D"/></svg>