<svg version="1.1" xmlns="http://www.w3.org/2000/svg" x="0" y="0" width="74.886" height="75.016" viewBox="0 0 74.886 75.016" xml:space="preserve"><g id="Layer_2"><path d="M58.7 22.577v-.5a6.787 6.787 0 0 0-4.817 1.996.5.5 0 0 0 .707.706 5.793 5.793 0 0 1 4.11-1.702.504.504 0 0 0 .354-.146.504.504 0 0 0 0-.708.498.498 0 0 0-.354-.146v.5-.5a6.783 6.783 0 0 0-4.817 1.996.5.5 0 0 0 .707.706 5.792 5.792 0 0 1 4.11-1.702.504.504 0 0 0 .354-.146.504.504 0 0 0 0-.708.498.498 0 0 0-.354-.146v.5z"/><path d="M58.697 22.574v-.5c-.212 0-.42.013-.618.03l.044.498h.5v-.025c0-5.987-4.854-10.841-10.846-10.841-5.02.001-9.233 3.421-10.462 8.056l.483.128.114-.487a8.342 8.342 0 0 0-1.909-.23 8.255 8.255 0 0 0 0 16.507h22.693a6.816 6.816 0 0 0 6.819-6.816 6.819 6.819 0 0 0-6.819-6.819v.999c1.609 0 3.061.651 4.115 1.705a5.798 5.798 0 0 1 1.704 4.114c0 1.608-.65 3.059-1.704 4.113a5.8 5.8 0 0 1-4.115 1.703H36.004a7.232 7.232 0 0 1-5.13-2.124 7.227 7.227 0 0 1-2.125-5.126c0-2.006.811-3.817 2.125-5.131a7.226 7.226 0 0 1 5.129-2.125c.574 0 1.135.075 1.681.204a.502.502 0 0 0 .598-.359c1.115-4.205 4.94-7.312 9.495-7.312a9.815 9.815 0 0 1 6.963 2.882 9.807 9.807 0 0 1 2.883 6.958v.025a.503.503 0 0 0 .544.498c.179-.016.359-.026.53-.026v-.499z"/><path d="M74.204 42.105h-.5a4.08 4.08 0 0 1-1.203 2.89 4.087 4.087 0 0 1-2.893 1.203H23.656a4.086 4.086 0 0 1-2.892-1.203 4.076 4.076 0 0 1-1.204-2.89V5.341c0-1.125.459-2.146 1.204-2.891a4.08 4.08 0 0 1 2.892-1.203h45.955a4.08 4.08 0 0 1 2.891 1.203 4.076 4.076 0 0 1 1.203 2.891v36.764h.999V5.341A5.107 5.107 0 0 0 69.61.247H23.656a5.108 5.108 0 0 0-5.095 5.094v36.764a5.108 5.108 0 0 0 5.095 5.093h45.953a5.108 5.108 0 0 0 5.096-5.093h-.501zM9.871 51.292h-.5v4.598a5.096 5.096 0 0 0 5.096 5.095.498.498 0 0 0 .5-.5c0-.132-.053-.261-.146-.354s-.222-.146-.354-.146a4.084 4.084 0 0 1-2.896-1.199 4.081 4.081 0 0 1-1.2-2.896v-4.598a.504.504 0 0 0-.146-.354.504.504 0 0 0-.708 0 .498.498 0 0 0-.146.354h.5-.5v4.598a5.096 5.096 0 0 0 5.096 5.095.498.498 0 0 0 .5-.5c0-.132-.053-.261-.146-.354s-.222-.146-.354-.146a4.084 4.084 0 0 1-2.896-1.199 4.081 4.081 0 0 1-1.2-2.896v-4.598a.504.504 0 0 0-.146-.354.504.504 0 0 0-.708 0 .498.498 0 0 0-.146.354h.5zm45.95 9.187v.5h4.599a5.094 5.094 0 0 0 5.095-5.092.502.502 0 0 0-1 0 4.078 4.078 0 0 1-1.2 2.894 4.083 4.083 0 0 1-2.895 1.198h-4.599a.502.502 0 0 0 0 1v-.5.5h4.599a5.094 5.094 0 0 0 5.095-5.092.502.502 0 0 0-1 0 4.078 4.078 0 0 1-1.2 2.894 4.083 4.083 0 0 1-2.895 1.198h-4.599a.502.502 0 0 0 0 1v-.5zM9.871 23.722h-.5v4.595a.5.5 0 1 0 1 0v-4.595a.5.5 0 1 0-1 0h.5-.5v4.595a.5.5 0 1 0 1 0v-4.595a.5.5 0 1 0-1 0h.5zm0 9.19h-.5v4.596a.5.5 0 1 0 1 0v-4.596a.5.5 0 1 0-1 0h.5-.5v4.596a.5.5 0 1 0 1 0v-4.596a.5.5 0 1 0-1 0h.5zm0 9.189h-.5v4.597c0 .132.053.261.146.354a.504.504 0 0 0 .708 0 .498.498 0 0 0 .146-.354v-4.597a.504.504 0 0 0-.146-.354.504.504 0 0 0-.708 0 .498.498 0 0 0-.146.354h.5-.5v4.597c0 .132.053.261.146.354a.504.504 0 0 0 .708 0 .498.498 0 0 0 .146-.354v-4.597a.504.504 0 0 0-.146-.354.504.504 0 0 0-.708 0 .498.498 0 0 0-.146.354h.5z"/><path d="M65.015 46.698h-.5v4.594a.502.502 0 0 0 1 0v-4.594a.502.502 0 0 0-1 0h.5-.5v4.594a.502.502 0 0 0 1 0v-4.594a.502.502 0 0 0-1 0h.5zm-9.194 13.786h-.5v4.593a.502.502 0 0 0 1 0v-4.593a.502.502 0 0 0-1 0h.5-.5v4.593a.502.502 0 0 0 1 0v-4.593a.502.502 0 0 0-1 0h.5zm-36.759 0v.5h4.595a.498.498 0 0 0 .5-.5c0-.132-.053-.261-.146-.354s-.222-.146-.354-.146h-4.595a.498.498 0 0 0-.5.5c0 .132.053.261.146.354s.222.146.354.146v-.5.5h4.595a.498.498 0 0 0 .5-.5c0-.132-.053-.261-.146-.354s-.222-.146-.354-.146h-4.595a.498.498 0 0 0-.5.5c0 .132.053.261.146.354s.222.146.354.146v-.5zm9.19 0v.5h4.596a.498.498 0 0 0 .5-.5c0-.132-.053-.261-.146-.354s-.222-.146-.354-.146h-4.596a.498.498 0 0 0-.5.5c0 .132.053.261.146.354s.222.146.354.146v-.5.5h4.596a.498.498 0 0 0 .5-.5c0-.132-.053-.261-.146-.354s-.222-.146-.354-.146h-4.596a.498.498 0 0 0-.5.5c0 .132.053.261.146.354s.222.146.354.146v-.5zm9.191 0v.5h4.594a.502.502 0 0 0 0-1h-4.594a.498.498 0 0 0-.5.5c0 .132.053.261.146.354s.222.146.354.146v-.5.5h4.594a.502.502 0 0 0 0-1h-4.594a.498.498 0 0 0-.5.5c0 .132.053.261.146.354s.222.146.354.146v-.5zm9.191 0v.5h4.594a.502.502 0 0 0 0-1h-4.594a.502.502 0 0 0 0 1v-.5.5h4.594a.502.502 0 0 0 0-1h-4.594a.502.502 0 0 0 0 1v-.5zM5.277 28.317v-.5a5.095 5.095 0 0 0-5.095 5.095.5.5 0 1 0 1 0c0-1.132.458-2.152 1.2-2.895a4.08 4.08 0 0 1 2.896-1.2.5.5 0 1 0 0-1v.5-.5a5.095 5.095 0 0 0-5.095 5.095.5.5 0 1 0 1 0c0-1.132.458-2.152 1.2-2.895a4.08 4.08 0 0 1 2.896-1.2.5.5 0 1 0 0-1v.5zM.682 65.077h-.5v4.598a5.096 5.096 0 0 0 5.095 5.095.498.498 0 0 0 .5-.5c0-.132-.053-.261-.146-.354s-.222-.146-.354-.146a4.081 4.081 0 0 1-2.896-1.2 4.076 4.076 0 0 1-1.199-2.895v-4.598a.504.504 0 0 0-.146-.354.504.504 0 0 0-.708 0 .498.498 0 0 0-.146.354h.5-.5v4.598a5.096 5.096 0 0 0 5.095 5.095.498.498 0 0 0 .5-.5c0-.132-.053-.261-.146-.354s-.222-.146-.354-.146a4.081 4.081 0 0 1-2.896-1.2 4.076 4.076 0 0 1-1.199-2.895v-4.598a.504.504 0 0 0-.146-.354.504.504 0 0 0-.708 0 .498.498 0 0 0-.146.354h.5zm45.952 9.188v.5h4.596a5.093 5.093 0 0 0 5.094-5.093.502.502 0 0 0-1 0 4.078 4.078 0 0 1-1.199 2.895 4.08 4.08 0 0 1-2.895 1.198h-4.596a.502.502 0 0 0 0 1v-.5.5h4.596a5.093 5.093 0 0 0 5.094-5.093.502.502 0 0 0-1 0 4.078 4.078 0 0 1-1.199 2.895 4.08 4.08 0 0 1-2.895 1.198h-4.596a.502.502 0 0 0 0 1v-.5zM.682 37.507h-.5v4.595c0 .132.053.261.146.354a.504.504 0 0 0 .708 0 .498.498 0 0 0 .146-.354v-4.595a.5.5 0 1 0-1 0h.5-.5v4.595c0 .132.053.261.146.354a.504.504 0 0 0 .708 0 .498.498 0 0 0 .146-.354v-4.595a.5.5 0 1 0-1 0h.5zm0 9.19h-.5v4.595c0 .132.053.261.146.354a.504.504 0 0 0 .708 0 .498.498 0 0 0 .146-.354v-4.595a.504.504 0 0 0-.146-.354.504.504 0 0 0-.708 0 .498.498 0 0 0-.146.354h.5-.5v4.595c0 .132.053.261.146.354a.504.504 0 0 0 .708 0 .498.498 0 0 0 .146-.354v-4.595a.504.504 0 0 0-.146-.354.504.504 0 0 0-.708 0 .498.498 0 0 0-.146.354h.5zm0 9.19h-.5v4.597c0 .132.053.261.146.354a.504.504 0 0 0 .708 0 .498.498 0 0 0 .146-.354v-4.597a.504.504 0 0 0-.146-.354.504.504 0 0 0-.708 0 .498.498 0 0 0-.146.354h.5-.5v4.597c0 .132.053.261.146.354a.504.504 0 0 0 .708 0 .498.498 0 0 0 .146-.354v-4.597a.504.504 0 0 0-.146-.354.504.504 0 0 0-.708 0 .498.498 0 0 0-.146.354h.5zm9.191 18.382v.5h4.596a.498.498 0 0 0 .5-.5c0-.132-.053-.261-.146-.354s-.222-.146-.354-.146H9.873a.498.498 0 0 0-.5.5c0 .132.053.261.146.354s.222.146.354.146v-.5.5h4.596a.498.498 0 0 0 .5-.5c0-.132-.053-.261-.146-.354s-.222-.146-.354-.146H9.873a.498.498 0 0 0-.5.5c0 .132.053.261.146.354s.222.146.354.146v-.5zm9.189 0v.5h4.596a.498.498 0 0 0 .5-.5c0-.132-.053-.261-.146-.354s-.222-.146-.354-.146h-4.596a.498.498 0 0 0-.5.5c0 .132.053.261.146.354s.222.146.354.146v-.5.5h4.596a.498.498 0 0 0 .5-.5c0-.132-.053-.261-.146-.354s-.222-.146-.354-.146h-4.596a.498.498 0 0 0-.5.5c0 .132.053.261.146.354s.222.146.354.146v-.5zm9.191 0v.5h4.596a.498.498 0 0 0 .5-.5c0-.132-.053-.261-.146-.354s-.222-.146-.354-.146h-4.596a.498.498 0 0 0-.5.5c0 .132.053.261.146.354s.222.146.354.146v-.5.5h4.596a.498.498 0 0 0 .5-.5c0-.132-.053-.261-.146-.354s-.222-.146-.354-.146h-4.596a.498.498 0 0 0-.5.5c0 .132.053.261.146.354s.222.146.354.146v-.5zm9.191 0v.5h4.594a.502.502 0 0 0 0-1h-4.594a.498.498 0 0 0-.5.5c0 .132.053.261.146.354s.222.146.354.146v-.5.5h4.594a.502.502 0 0 0 0-1h-4.594a.498.498 0 0 0-.5.5c0 .132.053.261.146.354s.222.146.354.146v-.5z"/></g></svg>