<svg version="1.1" id="Layer_1" xmlns="http://www.w3.org/2000/svg" x="0" y="0" width="30.336" height="23.109" viewBox="0 0 30.336 23.109" xml:space="preserve"><path d="M27.834 5.892H14.61l1.995-1.229c1.07-.659 1.521-2.001 1.052-3.123A2.506 2.506 0 0 0 14.033.371c-2.443 1.504-4.891 3-7.339 4.496L3.71 6.692c-.857.524-2.083 1.364-2.831 2.605-1.132 1.877-.936 4.188-.69 5.763.186 1.189.504 2.729 1.331 4.081 1.037 1.696 2.796 2.976 4.952 3.603.835.242 1.766.365 2.766.365h11a2.5 2.5 0 1 0 1.468-4.527 2.5 2.5 0 0 0 .013-4.08 2.502 2.502 0 0 0 .494-3.606h5.621a2.506 2.506 0 0 0 2.502-2.502 2.505 2.505 0 0 0-2.502-2.502zm0 4.071h-7.568a.467.467 0 1 0 0 .933 1.57 1.57 0 0 1 0 3.138.467.467 0 1 0 0 .934c.865 0 1.568.703 1.568 1.568s-.703 1.568-1.568 1.568h-.027a.467.467 0 0 0 0 .934c.865 0 1.57.703 1.57 1.568s-.705 1.569-1.57 1.569h-11c-.913 0-1.755-.11-2.506-.329-1.933-.562-3.501-1.695-4.417-3.193-.74-1.212-1.033-2.634-1.205-3.737-.354-2.274-.174-3.907.567-5.137.643-1.067 1.746-1.819 2.519-2.292L7.18 5.663c2.449-1.497 4.898-2.994 7.343-4.5a1.554 1.554 0 0 1 1.302-.155c.443.143.789.459.971.892.293.702.001 1.548-.681 1.967l-3.311 2.04a.461.461 0 0 0-.188.223l-.021.054a.467.467 0 0 0 .432.641h14.806a1.57 1.57 0 0 1 .001 3.138z"/></svg>