<svg version="1.1" id="Layer_1" xmlns="http://www.w3.org/2000/svg" x="0" y="0" width="44.595" height="39" viewBox="0 0 44.595 39" xml:space="preserve"><path d="M44.595 38.571H5.307a5.268 5.268 0 0 1-5.269-5.268V5.696A5.269 5.269 0 0 1 5.307.428h39.288v38.143z"/><path fill="#FFF" d="M44.595 38.571H5.307a5.268 5.268 0 0 1-5.269-5.268V5.696A5.269 5.269 0 0 1 5.307.428h39.288v38.143z"/><path d="M30.565 6.242H14.07a2.312 2.312 0 0 0-2.309 2.308v22.082a2.311 2.311 0 0 0 2.309 2.307h16.495a2.312 2.312 0 0 0 2.308-2.307V8.55a2.313 2.313 0 0 0-2.308-2.308zm1.98 24.392a1.982 1.982 0 0 1-1.98 1.979H14.07a1.98 1.98 0 0 1-1.98-1.979V8.55c0-1.091.888-1.98 1.98-1.98h16.495c1.092 0 1.98.889 1.98 1.98v22.084z"/><path d="M20.406 18.172c.627.116 1.319.125 1.922.125 1.366 0 2.974-.096 3.262-.839.09-.228.048-.596 0-.738-.202-.6-1.05-.972-1.506-1.173a1.336 1.336 0 0 0-.122-.049l-.042-.015c-.261-.096-.652-.24-.708-.452-.078-.301.113-.551.305-.797.071-.096.143-.188.195-.281.21-.376.367-.861.396-1.234.056-.677-.106-1.242-.467-1.629-.314-.343-.762-.524-1.287-.524-.093 0-.186.004-.278.015-.882.101-1.472.745-1.53 1.677-.053.733.155 1.404.627 2.051.028.041.06.08.088.116.116.15.22.28.2.482-.024.261-.284.361-.492.438l-.088.035c-.248.1-.521.25-.671.333l-.036.02c-.488.269-1.014.592-1.131 1.027-.084.31-.06.562.073.774.255.406.856.559 1.29.638zm8.318 4.382H15.91a.533.533 0 0 0 0 1.068h12.814a.535.535 0 1 0 0-1.068zm0 2.498H15.91a.532.532 0 0 0-.533.533c0 .297.237.535.533.535h12.814a.534.534 0 1 0 0-1.068zm0 2.498H15.91a.532.532 0 1 0 0 1.066h12.814a.534.534 0 1 0 0-1.066z"/></svg>