<svg version="1.1" id="Layer_1" xmlns="http://www.w3.org/2000/svg" x="0" y="0" width="40.935" height="51.45" viewBox="0 0 40.935 51.45" xml:space="preserve"><path d="M.469.522v.5h39.497v11.855h-3.608v37.551H.969V.522h-.5v.5-.5h-.5v50.906h37.389V13.877h3.608V.022H-.031v.5z"/><path d="M40.05 20.415v5.305h-3.401v.5h3.901v-5.805zm0-5.952v5.304h-3.401v.5h3.901v-5.804zm0 11.905v5.305h-3.401v.5h3.901v-5.805zm0 5.953v5.305h-3.401v.5h3.901v-5.805zm0 5.953v5.305h-3.401v.5h3.901v-5.805zm0 5.953v5.305h-3.401v.5h3.901v-5.805zm-11.119-3.546l.666 2.296 2.499.006-1.896 1.229.688 2.488-1.957-1.654-1.954 1.654.686-2.488-1.894-1.229 2.499-.006z"/><path d="M28.931 40.681l-.202.059.709 2.447 1.95.005-1.432.928.548 1.98-1.573-1.329L27.36 46.1l.546-1.98-1.43-.928 1.95-.005.707-2.447-.202-.059-.202.059.202-.059-.202-.058-.62 2.144-3.047.007 2.358 1.531-.827 2.994 2.338-1.977 2.34 1.977-.828-2.994 2.361-1.531-3.049-.007-.824-2.842-.202.698z"/></svg>