<?xml version="1.0" encoding="utf-8"?>
<!-- Generator: Adobe Illustrator 16.0.0, SVG Export Plug-In . SVG Version: 6.00 Build 0)  -->
<!DOCTYPE svg PUBLIC "-//W3C//DTD SVG 1.1//EN" "http://www.w3.org/Graphics/SVG/1.1/DTD/svg11.dtd">
<svg version="1.1" id="Layer_1" xmlns="http://www.w3.org/2000/svg" xmlns:xlink="http://www.w3.org/1999/xlink" x="0px" y="0px"
	 width="97.333px" height="97.333px" viewBox="0 0 97.333 97.333" enable-background="new 0 0 97.333 97.333" xml:space="preserve">
<metadata><?xpacket begin="﻿" id="W5M0MpCehiHzreSzNTczkc9d"?>
<x:xmpmeta xmlns:x="adobe:ns:meta/" x:xmptk="Adobe XMP Core 5.3-c011 66.145661, 2012/02/06-14:56:27        ">
   <rdf:RDF xmlns:rdf="http://www.w3.org/1999/02/22-rdf-syntax-ns#">
      <rdf:Description rdf:about=""
            xmlns:dc="http://purl.org/dc/elements/1.1/">
         <dc:format>image/svg+xml</dc:format>
         <dc:title>
            <rdf:Alt>
               <rdf:li xml:lang="x-default">Web</rdf:li>
            </rdf:Alt>
         </dc:title>
      </rdf:Description>
      <rdf:Description rdf:about=""
            xmlns:xmp="http://ns.adobe.com/xap/1.0/"
            xmlns:xmpGImg="http://ns.adobe.com/xap/1.0/g/img/">
         <xmp:CreatorTool>Adobe Illustrator CS6 (Macintosh)</xmp:CreatorTool>
         <xmp:CreateDate>2018-02-06T22:43:22+02:00</xmp:CreateDate>
         <xmp:ModifyDate>2018-02-06T22:43:22+02:00</xmp:ModifyDate>
         <xmp:MetadataDate>2018-02-06T22:43:22+02:00</xmp:MetadataDate>
         <xmp:Thumbnails>
            <rdf:Alt>
               <rdf:li rdf:parseType="Resource">
                  <xmpGImg:width>256</xmpGImg:width>
                  <xmpGImg:height>256</xmpGImg:height>
                  <xmpGImg:format>JPEG</xmpGImg:format>
                  <xmpGImg:image>/9j/4AAQSkZJRgABAgEASABIAAD/7QAsUGhvdG9zaG9wIDMuMAA4QklNA+0AAAAAABAASAAAAAEA&#xA;AQBIAAAAAQAB/+4ADkFkb2JlAGTAAAAAAf/bAIQABgQEBAUEBgUFBgkGBQYJCwgGBggLDAoKCwoK&#xA;DBAMDAwMDAwQDA4PEA8ODBMTFBQTExwbGxscHx8fHx8fHx8fHwEHBwcNDA0YEBAYGhURFRofHx8f&#xA;Hx8fHx8fHx8fHx8fHx8fHx8fHx8fHx8fHx8fHx8fHx8fHx8fHx8fHx8fHx8f/8AAEQgBAAEAAwER&#xA;AAIRAQMRAf/EAaIAAAAHAQEBAQEAAAAAAAAAAAQFAwIGAQAHCAkKCwEAAgIDAQEBAQEAAAAAAAAA&#xA;AQACAwQFBgcICQoLEAACAQMDAgQCBgcDBAIGAnMBAgMRBAAFIRIxQVEGE2EicYEUMpGhBxWxQiPB&#xA;UtHhMxZi8CRygvElQzRTkqKyY3PCNUQnk6OzNhdUZHTD0uIIJoMJChgZhJRFRqS0VtNVKBry4/PE&#xA;1OT0ZXWFlaW1xdXl9WZ2hpamtsbW5vY3R1dnd4eXp7fH1+f3OEhYaHiImKi4yNjo+Ck5SVlpeYmZ&#xA;qbnJ2en5KjpKWmp6ipqqusra6voRAAICAQIDBQUEBQYECAMDbQEAAhEDBCESMUEFURNhIgZxgZEy&#xA;obHwFMHR4SNCFVJicvEzJDRDghaSUyWiY7LCB3PSNeJEgxdUkwgJChgZJjZFGidkdFU38qOzwygp&#xA;0+PzhJSktMTU5PRldYWVpbXF1eX1RlZmdoaWprbG1ub2R1dnd4eXp7fH1+f3OEhYaHiImKi4yNjo&#xA;+DlJWWl5iZmpucnZ6fkqOkpaanqKmqq6ytrq+v/aAAwDAQACEQMRAD8A9U4q7FXYq7FXYq7FXYq7&#xA;FXYq7FXYq7FXYq7FXYq7FXYq7FXYq7FXYq7FXYq7FXYq7FXYq7FXYq7FXYq7FXYq7FXYq7FXYq7F&#xA;XYq7FXYq7FXYq7FXYq7FXYq7FXYq7FXYq7FXYq7FXYq7FXYq7FXYq7FXYq7FXYq7FXYq7FXYq7FX&#xA;Yq7FXYq7FXYq7FXYq7FXYq7FXYq7FXYq7FXYq7FXYq7FXYq7FXYq7FXYq7FXYq7FXYq7FXYq7FXY&#xA;q7FXYq7FXYq7FXYq7FXYq7FXYq7FXYq7FXYq7FXYq7FXYq7FXYq7FXYq7FXYq7FXYq7FXYq7FXYq&#xA;7FXYq7FXYq7FXYq7FXYq7FXYq7FXYq7FXYq7FXYq7FXYq7FXYq7FXYq7FXYq7FXYq7FXYq7FXYq7&#xA;FXYq7FXYq7FXYq7FXYq7FXYq7FXYq7FXYq7FXYq7FXYq7FXYq7FXYq7FXYq7FXYq7FXYq7FXYq7F&#xA;XYq7FXYq7FXYq7FXYq7FXYq7FXYq7FXYq7FXYq7FXYq7FXYq7FXYq7FXYq7FXYq7FXYq7FXYq7FX&#xA;Yq7FXYq7FXYq7FXYq7FXYq7FXYq7FXYq7FXYq7FXYq7FXYq7FXYq7FXYq7FXYq7FXYq7FXYq7FXY&#xA;q7FXYq7FXYq7FXYq7FXYq7FXYq7FXYq7FXYq7FXYq7FXYq7FXYq7FXYq7FXYq7FXYq7FXYq7FXYq&#xA;7FXYq7FXYq7FXYq7FXYq7FXYq7FXYq7FXYq7FXYq7FXYq7FXYq7FXYq7FXYq7FXYq7FXYq7FXYq7&#xA;FXYq7FXYq7FXYq7FXYq7FXYq7FXYq7FXYq7FXYq7FXYq7FXYq7FXYq7FXYq7FXYq7FXYq7FXYq7F&#xA;XYq7FXYq7FXYq7FXYq7FXYq7FXYq7FXYq7FXYq7FXYq7FXYq7FXYq7FXYq7FXYq7FXYq7FXYq7FX&#xA;Yq7FXYq7FXYq7FXYq7FXYq7FXYq7FXYq7FXYq7FXYq7FXYq7FXYq7FXYq7FXYq7FXYq7FXYq7FXY&#xA;q7FXYq7FXYq7FXYq7FXYq7FXYq7FXYq7FXYq7FXYq7FXYq7FXYq7FXYq7FXYq7FXYq7FXYq7FXYq&#xA;7FXYq7FXYq7FXYq7FXYq7FXYq7FXYq7FXYq7FXYq7FXYq7FXYq7FXYq7FXYq7FXYq7FXYq7FXYq7&#xA;FXYq7FXYq7FXYq7FXYq7FXYq7FXYq7FXYq7FXYq7FXYq7FXYq7FXYq7FXYq7FXYq7FXYq7FXYq7F&#xA;XYq7FXYq7FXYq7FXYq7FXYq7FXYq7FXYq7FXYq7FXYq7FXYq7FXYq7FXYq7FXYq7FXYq7FXYq7FX&#xA;Yq7FXYq7FXYq7FXYq7FXYq7FXYq7FXYq7FXYq7FXYq7FXYq7FXYq7FXYq7FXYq7FXYq7FXYq7FXY&#xA;q7FXYq7FXYq7FXYq7FXYq7FXYq7FXYq7FXYq7FXYq7FXYq7FXYq7FXYq7FXYq7FXYq7FXYq7FXYq&#xA;7FXYq7FXYq7FXYq7FXYq7FXYq7FXYq7FXYq7FXYq7FXYq7FXYq7FXYq7FXYq7FXYq7FXYq7FXYq7&#xA;FXYq7FXYq7FXYq7FXYq7FXYq7FXYq7FXYq7FXYq7FXYq7FXYq7FXYq7FXYq7FXYq7FXYq7FXYq7F&#xA;XYq7FXYq7FXYq7FXYq7FXYq7FXYq7FXYq7FXYq7FXYq7FXYq7FXYq7FXYq7FXYq7FXYq7FXYq7FX&#xA;Yq7FXYq7FXYq7FXYq7FXYq7FXYq7FXYq7FXYq7FXYq7FXYq7FXYq7FXYq7FXYq7FXYq7FXYq7FXY&#xA;q7FXYq7FXYq7FXYq7FXYq7FXYq7FXYq7FXYq7FXYq7FXYq7FXYq7FXYq7FXYq7FXYq7FXYq7FXYq&#xA;7FXYq7FXYq7FXYq7FXYq7FXYq7FXYq7FXYq7FXYq7FXYq7FXYq7FXYq7FXYq7FXYq7FXYq7FXYq7&#xA;FXYq7FXYq7FXYq7FXYq7FXYq7FXYq7FXYq7FXYq7FXYq7FXYq7FXYq7FXYq7FXYq7FXYq7FXYq7F&#xA;XYq7FXYq7FXYq7FXYq7FXYq7FXYq7FXYq7FXYq7FXYq7FXYq7FXYq7FXYq7FXYq7FXYq7FXYq7FX&#xA;Yq7FXYq7FXYq7FXYq7FXYq7FXYq7FXYq7FXYq7FXYq7FXYq7FXYq7FXYq7FXYq7FXYq7FXYq7FXY&#xA;q7FXYq7FXYq7FXYq7FXYq7FXYq7FXYq7FXYq7FXYq7FXYq7FXYq7FXYq7FXYq7FXYq7FXYq7FXYq&#xA;7FXYq7FXYq7FXYq7FXYq7FXYq7FXYq7FXYq7FXYq7FXYq7FXYq7FXYq7FXYq7FXYq7FXYq7FXYq7&#xA;FXYq7FXYq7FXYq7FXYq7FXYq7FXYq7FXYq7FXYq7FXYq7FXYq7FXYq7FXYq7FXYq7FXYq7FXYq7F&#xA;XYq7FXYq7FXYq7FXYq7FXYq7FXYq7FXYq7FXYq7FXYq7FXYq7FXYq7FXYq7FXYq7FXYq7FXYq7FX&#xA;Yq7FXYq7FXYq7FXYq7FXYq7FXYq7FXYq7FXYq7FXYq7FXYq7FXYq7FXYq7FXYq7FXYq7FXYq7FXY&#xA;q7FXYq7FXYq7FXYq7FXYq7FXYq7FXYq7FX//2Q==</xmpGImg:image>
               </rdf:li>
            </rdf:Alt>
         </xmp:Thumbnails>
      </rdf:Description>
      <rdf:Description rdf:about=""
            xmlns:xmpMM="http://ns.adobe.com/xap/1.0/mm/"
            xmlns:stRef="http://ns.adobe.com/xap/1.0/sType/ResourceRef#"
            xmlns:stEvt="http://ns.adobe.com/xap/1.0/sType/ResourceEvent#">
         <xmpMM:RenditionClass>proof:pdf</xmpMM:RenditionClass>
         <xmpMM:OriginalDocumentID>uuid:65E6390686CF11DBA6E2D887CEACB407</xmpMM:OriginalDocumentID>
         <xmpMM:DocumentID>xmp.did:068011740720681180838E73A0ED89A8</xmpMM:DocumentID>
         <xmpMM:InstanceID>xmp.iid:068011740720681180838E73A0ED89A8</xmpMM:InstanceID>
         <xmpMM:DerivedFrom rdf:parseType="Resource">
            <stRef:instanceID>xmp.iid:058011740720681180838E73A0ED89A8</stRef:instanceID>
            <stRef:documentID>xmp.did:058011740720681180838E73A0ED89A8</stRef:documentID>
            <stRef:originalDocumentID>uuid:65E6390686CF11DBA6E2D887CEACB407</stRef:originalDocumentID>
            <stRef:renditionClass>proof:pdf</stRef:renditionClass>
         </xmpMM:DerivedFrom>
         <xmpMM:History>
            <rdf:Seq>
               <rdf:li rdf:parseType="Resource">
                  <stEvt:action>saved</stEvt:action>
                  <stEvt:instanceID>xmp.iid:018011740720681180838E73A0ED89A8</stEvt:instanceID>
                  <stEvt:when>2018-02-06T22:24:02+02:00</stEvt:when>
                  <stEvt:softwareAgent>Adobe Illustrator CS6 (Macintosh)</stEvt:softwareAgent>
                  <stEvt:changed>/</stEvt:changed>
               </rdf:li>
               <rdf:li rdf:parseType="Resource">
                  <stEvt:action>saved</stEvt:action>
                  <stEvt:instanceID>xmp.iid:068011740720681180838E73A0ED89A8</stEvt:instanceID>
                  <stEvt:when>2018-02-06T22:43:22+02:00</stEvt:when>
                  <stEvt:softwareAgent>Adobe Illustrator CS6 (Macintosh)</stEvt:softwareAgent>
                  <stEvt:changed>/</stEvt:changed>
               </rdf:li>
            </rdf:Seq>
         </xmpMM:History>
      </rdf:Description>
      <rdf:Description rdf:about=""
            xmlns:illustrator="http://ns.adobe.com/illustrator/1.0/">
         <illustrator:StartupProfile>Web</illustrator:StartupProfile>
      </rdf:Description>
      <rdf:Description rdf:about=""
            xmlns:xmpTPg="http://ns.adobe.com/xap/1.0/t/pg/"
            xmlns:stDim="http://ns.adobe.com/xap/1.0/sType/Dimensions#"
            xmlns:xmpG="http://ns.adobe.com/xap/1.0/g/">
         <xmpTPg:NPages>1</xmpTPg:NPages>
         <xmpTPg:HasVisibleTransparency>False</xmpTPg:HasVisibleTransparency>
         <xmpTPg:HasVisibleOverprint>False</xmpTPg:HasVisibleOverprint>
         <xmpTPg:MaxPageSize rdf:parseType="Resource">
            <stDim:w>97.332520</stDim:w>
            <stDim:h>97.332520</stDim:h>
            <stDim:unit>Pixels</stDim:unit>
         </xmpTPg:MaxPageSize>
         <xmpTPg:SwatchGroups>
            <rdf:Seq>
               <rdf:li rdf:parseType="Resource">
                  <xmpG:groupName>Default Swatch Group</xmpG:groupName>
                  <xmpG:groupType>0</xmpG:groupType>
               </rdf:li>
            </rdf:Seq>
         </xmpTPg:SwatchGroups>
      </rdf:Description>
      <rdf:Description rdf:about=""
            xmlns:pdf="http://ns.adobe.com/pdf/1.3/">
         <pdf:Producer>Adobe PDF library 10.01</pdf:Producer>
      </rdf:Description>
   </rdf:RDF>
</x:xmpmeta>
                                                                                                    
                                                                                                    
                                                                                                    
                                                                                                    
                                                                                                    
                                                                                                    
                                                                                                    
                                                                                                    
                                                                                                    
                                                                                                    
                                                                                                    
                                                                                                    
                                                                                                    
                                                                                                    
                                                                                                    
                                                                                                    
                                                                                                    
                                                                                                    
                                                                                                    
                                                                                                    
                           
<?xpacket end="w"?>
	</metadata>
<g>
	<path fill="#FFFFFF" d="M42.015,75.583h10.442V49.435h7.285l0.776-8.755h-8.062c0,0,0-3.269,0-4.986c0-2.064,0.414-2.88,2.41-2.88
		c1.605,0,5.651,0,5.651,0v-9.086c0,0-5.959,0-7.229,0c-7.771,0-11.274,3.422-11.274,9.973c0,5.706,0,6.98,0,6.98h-5.432v8.864
		h5.432V75.583z"/>
</g>
<g id="Layer_2" display="none">
	<g display="inline">
		<path fill="#FFFFFF" d="M48.667,96.075v-1c-12.796,0-24.393-5.203-32.8-13.607c-8.406-8.408-13.608-20.004-13.609-32.8
			c0-12.796,5.203-24.393,13.608-32.8c8.407-8.405,20.003-13.608,32.8-13.608c12.797,0,24.394,5.203,32.801,13.608
			c8.404,8.407,13.607,20.004,13.607,32.8c0,12.796-5.203,24.392-13.607,32.798c-8.407,8.406-20.004,13.609-32.801,13.609
			L48.667,96.075l-0.001,1c26.696-0.002,48.407-21.713,48.409-48.408c0-26.695-21.712-48.407-48.408-48.409
			C21.972,0.26,0.26,21.972,0.258,48.667C0.26,75.362,21.972,97.073,48.667,97.075V96.075z"/>
		<circle fill="#FFFFFF" cx="48.667" cy="48.667" r="40.681"/>
		<path fill="#EFEBE3" d="M28.849,65.026c4.15,2.662,9.08,4.215,14.376,4.215c17.411,0,27.247-14.707,26.654-27.897
			c1.832-1.32,3.422-2.972,4.681-4.854c-1.685,0.746-3.49,1.25-5.386,1.476c1.935-1.158,3.422-2.996,4.121-5.188
			c-1.812,1.075-3.818,1.856-5.953,2.277c-1.711-1.823-4.147-2.961-6.848-2.961c-6.053,0-10.5,5.648-9.135,11.515
			c-7.794-0.391-14.704-4.125-19.328-9.799c-2.457,4.216-1.274,9.731,2.902,12.521c-1.538-0.048-2.986-0.472-4.25-1.174
			c-0.101,4.345,3.013,8.409,7.522,9.313c-1.32,0.36-2.766,0.44-4.233,0.159c1.19,3.729,4.654,6.438,8.759,6.515
			C38.792,64.235,33.825,65.614,28.849,65.026z"/>
	</g>
</g>
<g id="Layer_3" display="none">
	<g display="inline">
		<path fill="#FFFFFF" d="M48.667,96.075v-1c-12.797,0-24.394-5.201-32.801-13.607C7.461,73.06,2.259,61.463,2.258,48.667
			c0-12.796,5.203-24.393,13.608-32.8C24.274,7.461,35.871,2.259,48.667,2.258c12.796,0,24.393,5.203,32.8,13.608
			c8.404,8.407,13.607,20.004,13.607,32.8c0,12.797-5.203,24.393-13.607,32.799c-8.407,8.406-20.004,13.607-32.8,13.607V96.075v1
			c26.694-0.002,48.406-21.711,48.408-48.408c0-26.695-21.712-48.407-48.408-48.409C21.972,0.26,0.26,21.972,0.258,48.667
			C0.26,75.364,21.972,97.073,48.667,97.075V96.075z"/>
		<circle fill="#FFFFFF" cx="48.667" cy="48.667" r="40.682"/>
		<rect x="29.401" y="40.35" fill="#EFEBE3" width="8.878" height="28.682"/>
		<ellipse fill="#EFEBE3" cx="33.797" cy="31.302" rx="5.25" ry="5.292"/>
		<path fill="#EFEBE3" d="M52.47,53.975c0-4.031,1.854-6.434,5.409-6.434c3.265,0,4.832,2.305,4.832,6.434
			c0,4.131,0,15.057,0,15.057h8.836c0,0,0-10.479,0-18.16c0-7.683-4.354-11.396-10.436-11.396s-8.643,4.739-8.643,4.739V40.35
			h-8.517v28.682h8.517C52.47,69.032,52.47,58.393,52.47,53.975z"/>
	</g>
</g>
<g id="Layer_4" display="none">
	<g display="inline">
		<path fill="#FFFFFF" d="M48.667,96.075v-1c-12.796,0-24.393-5.203-32.8-13.607c-8.406-8.408-13.608-20.004-13.609-32.8
			c0-12.796,5.203-24.393,13.608-32.8c8.407-8.405,20.003-13.608,32.8-13.608c12.797,0,24.394,5.203,32.801,13.608
			c8.404,8.407,13.607,20.004,13.607,32.8c0,12.796-5.203,24.392-13.607,32.798c-8.407,8.406-20.004,13.609-32.801,13.609
			L48.667,96.075l-0.001,1c26.696-0.002,48.407-21.713,48.409-48.408c0-26.695-21.712-48.407-48.408-48.409
			C21.972,0.26,0.26,21.972,0.258,48.667C0.26,75.362,21.972,97.073,48.667,97.075V96.075z"/>
		<circle fill="#FFFFFF" cx="48.667" cy="48.667" r="40.681"/>
		<path fill="#EFEBE3" d="M56.565,42.841c0.82,0,1.958-0.426,3.135-1.821v1.61h2.709V28.051H59.7v11.064
			c-0.33,0.415-1.066,1.093-1.595,1.093c-0.582,0-0.724-0.395-0.724-0.98V28.049H54.67v12.188
			C54.67,41.676,55.113,42.841,56.565,42.841z"/>
		<path fill="#EFEBE3" d="M44.501,38.993c0,2.569,1.345,3.907,3.973,3.907c2.181,0,3.896-1.456,3.896-3.907v-7.145
			c0-2.283-1.697-3.918-3.896-3.918c-2.389,0-3.973,1.577-3.973,3.918V38.993z M47.292,32.087c0-0.799,0.369-1.391,1.13-1.391
			c0.833,0,1.188,0.574,1.188,1.391v6.783c0,0.794-0.404,1.38-1.135,1.38c-0.748,0-1.183-0.612-1.183-1.38V32.087L47.292,32.087z"/>
		<polygon fill="#EFEBE3" points="38.035,42.63 41.088,42.63 41.088,34.613 44.639,22.865 41.54,22.865 39.583,30.764 
			37.477,22.865 34.404,22.865 38.035,34.613 		"/>
		<path fill="#EFEBE3" d="M66.059,45.947H34.108c-3.434,0-6.215,2.785-6.215,6.218v15.701c0,3.434,2.781,6.215,6.215,6.215h31.951
			c3.434,0,6.215-2.781,6.215-6.215V52.165C72.274,48.731,69.493,45.947,66.059,45.947z M38.366,69.428H35.46V53.336h-3.01v-2.732
			h8.924v2.732h-3.008V69.428z M48.707,69.428h-2.582v-1.531c-0.476,0.564-0.972,0.994-1.485,1.289
			c-1.391,0.797-3.301,0.781-3.301-2.037V55.543h2.582v10.643c0,0.559,0.136,0.936,0.687,0.936c0.502,0,1.204-0.645,1.518-1.039
			V55.543h2.582L48.707,69.428L48.707,69.428z M58.644,66.551c0,1.719-0.644,3.053-2.358,3.053c-0.947,0-1.734-0.346-2.453-1.242
			v1.066h-2.605V50.604h2.605v6.061c0.58-0.711,1.373-1.297,2.295-1.297c1.891,0,2.518,1.598,2.518,3.48L58.644,66.551
			L58.644,66.551z M68.187,62.811H63.25v2.619c0,1.043,0.088,1.941,1.127,1.941c1.09,0,1.154-0.732,1.154-1.941v-0.965h2.655v1.045
			c0,2.674-1.149,4.295-3.869,4.295c-2.467,0-3.726-1.797-3.726-4.295v-6.232c0-2.414,1.591-4.084,3.92-4.084
			c2.479,0,3.675,1.572,3.675,4.084V62.811z"/>
		<path fill="#EFEBE3" d="M64.403,57.624c-0.956,0-1.152,0.674-1.152,1.627v1.404h2.281V59.25
			C65.532,58.311,65.329,57.624,64.403,57.624z"/>
		<path fill="#EFEBE3" d="M54.366,57.709c-0.183,0.092-0.357,0.231-0.533,0.424v8.65c0.211,0.227,0.414,0.391,0.61,0.489
			c0.42,0.213,1.036,0.229,1.318-0.144c0.151-0.194,0.227-0.514,0.227-0.957v-7.17c0-0.469-0.094-0.826-0.276-1.065
			C55.4,57.526,54.816,57.481,54.366,57.709z"/>
	</g>
</g>
<g id="Layer_5" display="none">
	<g display="inline">
		<path fill="#FFFFFF" d="M48.667,96.075v-1c-12.796,0-24.393-5.201-32.8-13.607C7.461,73.06,2.259,61.463,2.258,48.667
			c0-12.796,5.203-24.392,13.608-32.799C24.273,7.463,35.869,2.26,48.666,2.26c12.797,0,24.394,5.203,32.801,13.608
			c8.404,8.407,13.607,20.003,13.607,32.799c0,12.796-5.203,24.394-13.607,32.8c-8.407,8.406-20.004,13.607-32.801,13.607
			L48.667,96.075l-0.001,1c26.695-0.002,48.407-21.711,48.409-48.408c0-26.695-21.712-48.406-48.408-48.408
			C21.972,0.261,0.26,21.972,0.258,48.667C0.26,75.364,21.972,97.073,48.667,97.075V96.075z"/>
		<path fill="#FFFFFF" d="M48.667,7.986c-22.468,0-40.681,18.214-40.681,40.68c0,22.469,18.213,40.682,40.681,40.682
			c22.468,0,40.681-18.213,40.681-40.682C89.347,26.2,71.133,7.986,48.667,7.986z M34.451,58.905
			c-6.263,0-11.341-5.006-11.341-11.183c0-0.509,0.037-1.011,0.105-1.503c0.744-5.464,5.488-9.681,11.235-9.681
			c4.57,0,8.508,2.67,10.304,6.511c0.664,1.423,1.035,3.005,1.035,4.673C45.79,53.899,40.715,58.905,34.451,58.905z M62.9,58.905
			c-6.262,0-11.338-5.006-11.338-11.183c0-1.633,0.358-3.184,0.996-4.584c1.772-3.889,5.735-6.6,10.342-6.6
			c5.957,0,10.841,4.535,11.297,10.296c0.024,0.295,0.041,0.59,0.041,0.888C74.238,53.899,69.161,58.905,62.9,58.905z"/>
	</g>
</g>
</svg>
