<?xml version="1.0" encoding="utf-8"?>
<!-- Generator: Adobe Illustrator 16.0.0, SVG Export Plug-In . SVG Version: 6.00 Build 0)  -->
<!DOCTYPE svg PUBLIC "-//W3C//DTD SVG 1.1//EN" "http://www.w3.org/Graphics/SVG/1.1/DTD/svg11.dtd">
<svg version="1.1" id="Layer_1" xmlns="http://www.w3.org/2000/svg" xmlns:xlink="http://www.w3.org/1999/xlink" x="0px" y="0px"
	 width="210.438px" height="88.084px" viewBox="0 0 210.438 88.084" enable-background="new 0 0 210.438 88.084"
	 xml:space="preserve">
<metadata><?xpacket begin="﻿" id="W5M0MpCehiHzreSzNTczkc9d"?>
<x:xmpmeta xmlns:x="adobe:ns:meta/" x:xmptk="Adobe XMP Core 5.3-c011 66.145661, 2012/02/06-14:56:27        ">
   <rdf:RDF xmlns:rdf="http://www.w3.org/1999/02/22-rdf-syntax-ns#">
      <rdf:Description rdf:about=""
            xmlns:dc="http://purl.org/dc/elements/1.1/">
         <dc:format>image/svg+xml</dc:format>
         <dc:title>
            <rdf:Alt>
               <rdf:li xml:lang="x-default">Web</rdf:li>
            </rdf:Alt>
         </dc:title>
      </rdf:Description>
      <rdf:Description rdf:about=""
            xmlns:xmp="http://ns.adobe.com/xap/1.0/"
            xmlns:xmpGImg="http://ns.adobe.com/xap/1.0/g/img/">
         <xmp:CreatorTool>Adobe Illustrator CS6 (Macintosh)</xmp:CreatorTool>
         <xmp:CreateDate>2018-01-29T18:41:54+02:00</xmp:CreateDate>
         <xmp:ModifyDate>2018-01-29T18:41:54+02:00</xmp:ModifyDate>
         <xmp:MetadataDate>2018-01-29T18:41:54+02:00</xmp:MetadataDate>
         <xmp:Thumbnails>
            <rdf:Alt>
               <rdf:li rdf:parseType="Resource">
                  <xmpGImg:width>256</xmpGImg:width>
                  <xmpGImg:height>104</xmpGImg:height>
                  <xmpGImg:format>JPEG</xmpGImg:format>
                  <xmpGImg:image>/9j/4AAQSkZJRgABAgEASABIAAD/7QAsUGhvdG9zaG9wIDMuMAA4QklNA+0AAAAAABAASAAAAAEA&#xA;AQBIAAAAAQAB/+4ADkFkb2JlAGTAAAAAAf/bAIQABgQEBAUEBgUFBgkGBQYJCwgGBggLDAoKCwoK&#xA;DBAMDAwMDAwQDA4PEA8ODBMTFBQTExwbGxscHx8fHx8fHx8fHwEHBwcNDA0YEBAYGhURFRofHx8f&#xA;Hx8fHx8fHx8fHx8fHx8fHx8fHx8fHx8fHx8fHx8fHx8fHx8fHx8fHx8fHx8f/8AAEQgAaAEAAwER&#xA;AAIRAQMRAf/EAaIAAAAHAQEBAQEAAAAAAAAAAAQFAwIGAQAHCAkKCwEAAgIDAQEBAQEAAAAAAAAA&#xA;AQACAwQFBgcICQoLEAACAQMDAgQCBgcDBAIGAnMBAgMRBAAFIRIxQVEGE2EicYEUMpGhBxWxQiPB&#xA;UtHhMxZi8CRygvElQzRTkqKyY3PCNUQnk6OzNhdUZHTD0uIIJoMJChgZhJRFRqS0VtNVKBry4/PE&#xA;1OT0ZXWFlaW1xdXl9WZ2hpamtsbW5vY3R1dnd4eXp7fH1+f3OEhYaHiImKi4yNjo+Ck5SVlpeYmZ&#xA;qbnJ2en5KjpKWmp6ipqqusra6voRAAICAQIDBQUEBQYECAMDbQEAAhEDBCESMUEFURNhIgZxgZEy&#xA;obHwFMHR4SNCFVJicvEzJDRDghaSUyWiY7LCB3PSNeJEgxdUkwgJChgZJjZFGidkdFU38qOzwygp&#xA;0+PzhJSktMTU5PRldYWVpbXF1eX1RlZmdoaWprbG1ub2R1dnd4eXp7fH1+f3OEhYaHiImKi4yNjo&#xA;+DlJWWl5iZmpucnZ6fkqOkpaanqKmqq6ytrq+v/aAAwDAQACEQMRAD8A9D+f/Mt55c8tSanYwRXV&#xA;99YtLa2tp3aON2urqOAguoYrRZCa0NKdD0wxjZpjOXCCT0S3y7+a3lzUnNnqnLy/rCIzyWGoskas&#xA;sahpHt7ivozou+6tyAFWVclOBid2OPLGYuJQV/8AnBZTOY/K2mTa6FbidQZxZ6ftUHhcOrySjwaG&#xA;J1P82ShglLk15dVCHM7pX/jj8ypWLctGslO6xfV7q8I9jJ9YtK/PgPlmQNGepcWXaQ6BoefPzMt5&#xA;A7Q6NqcQPxQqt1p7sKb0cyX4B/2OA6M9CmPaMeoS/wAwfnXrr/VtJi00+Vr265LPrOotHcWqEniq&#xA;Wbxn05ZXrVfX4U/kfplY05upbN0tXHhuPqKK/KiH9D+edX01p7i7Os6fDqDXd3K000lxZzNDcO7N&#xA;3ZbqHZaAU2AFMdRiECKRo85yA3zt65mO5jsVdirsVdirsVdirsVdirsVdirsVdirsVdirsVdirsV&#xA;dirsVdirsVdirsVdirzj86r6zgsvL0d3MsFv+lDd3LuQFENnZ3ExZq9lkCHLsFcYtx9VfhmurznR&#xA;9E82fmE8epw6Gsnl1WMmljVZTaWktAOFw8YjnnnY1qg9MRj+ZjuL56kE8rcXHopAc6LLLvy5+Zun&#xA;Q+vLo1jqcS/bh0y9Y3AUdSsd1DbRv8vUBwjWd4Yy7O7ig9I1mx1WB5bUurwuYbq2mRop4JV+1FNE&#xA;4DI6+BH4ZlwmJCw6/JilA0XXOqFb+PS7C1m1PWZl9SLTrUKZBHXj6srOyRxR125yMAegqdsjkzRh&#xA;zZ4dPLJy5JnL5D8/X1m8V1ZaMIZ04yWc9zPMCrDdZCLYL86Aj3OYp1l9HPj2dW/FuwaO38xfll57&#xA;8u6jr1q9t5RimntJLxJTeQWqXkXDglwQknoeqImKTRqV4/ByUfDRkyCQ2crDiMCSer6SVlZQykMr&#xA;CoI3BBylyG8VdirsVdirsVdirsVdirsVdirsVdirsVdirsVdirsVdirsVdirsVdirsVdirzDzz5c&#xA;07zv+aGgaFfJ6+k+XLObV9WtmHKGeS5kSKygcV/mt5JGBBqBTo2FDJfP/wCYnl7yLpEN7qYlmmup&#xA;Bb6bptogkubmU9EiSqjbuSQB8yAQApNMe8kfnlonmTzAnly/0u+8va3cI0tlbahHxW4VQWYROOrK&#xA;oJIIH05KUSOaIzjLkbQH51aTFoKR/mJYQkS2PC38xQxUH1mxkPBJGX9qW3kKlW68Cw6ZPDl4JW06&#xA;jAMka6su/Ljyl/h/QFlvEDeYNU43euXNPia4ZdogevpwKfTjXsBXqTkJSMjZbYQEQAGG6j/zkfoM&#xA;Wo3cekaBq2u6Tp0jRX2s2MSNAGQgP6HJlMvCu/2dtxUUOIhIiwFlljE0Tu9B03UfK/nnyml3bGPU&#xA;9A1mBlKup4vG1UdHU0KspBVh1BGRZsT/ACk1GfSr7XPy3v7g3Fz5Ukj/AEVcSPykm0q5X1LXmTx5&#xA;PAD6TkKFHw0xV6TirsVdirsVdirsVdirsVdirsVdirsVdirsVdirsVdirsVdirsVdirsVdirsVea&#xA;eSrwj81fNjXFVk1mONrQEinDSJpLSQDf+WaJvp+eW5IUAe8NGHJxSkO4pV+fHlvXZdV8recNMsJt&#xA;Xt/Lr3ceo6daqZLn0b1ET14IhuzxmPcDfp2BIGKfDIFlnxmcCA87/LPytqGveaPLkenWOsHSfLuo&#xA;zandeYdcjeGQczyFrb8yC/N1CybeJ27zyziRQ397VgxSEjI0PIPbPzqUyflhr9vHRrie3K28XVnk&#xA;UiTio7tRCfxykC+TkykALLKLS8s9b0OG8speVnqdssttMBuY54+SNT5NgS+UdF0PW/Kl3peia9pu&#xA;t22o+WZ7ldPi0m2mubTVkuWZlZfTRo9gafE1adSDWmViyxAF9PtcDPgkSaAPF9j2H8t9Y0T8vPJ0&#xA;GleZrmKx16/ubnUT5ctA93c263cjSxwiC3EsnwpSrcePKu+Y59R2DmCoR3PJK9I8ySan+fGk6ra6&#xA;Zd6ba6naXdi0l4sUbXEccCTg+msjyLxeAbOo29+k5wMYiw148sZSNG9nuOVN7sVdirsVdirsVdir&#xA;sVdirsVdirsVdirsVdirsVdirsVdirsVdirsVdirsVeGiG8aUXdlKLfWdOu3vLS5ZSy+rcAzMsi/&#xA;CTHLHcFJFFNjsQQCNmMYnjAdIcpxZSXoOi/mdoV0Ft9ZP6C1IbPDdsFt3bbeC6IWKQHsKh/FBmBP&#xA;FKPN22LPCY2Ka3XnXyrboW/ScE770htnFxKaeEcPN/ppTICJPJnKQiLJeb+efM+vXjw6nb2skllZ&#xA;SV/Q6BXneJ1KNICCV9ZSQaBqceSipNczsWEw9R5ur1Gpjk9A2HegPInmrW/IFmuna5bte+VpCZ47&#xA;iyTm+lPK3OWBoh8UlojMSjqOSCoIK0pVm05G4cjT6uMvSef3phrP5gax5yJh8sXMuleVTUPrSAx3&#xA;t92pachWCH/i0jm37HEfEXDpzLc8l1OsENo7yQ2k6JpWkwNDp9usCueczirSSP3eWRqvIx/mYk5s&#xA;IwERQdRPJKZsm1lk5X81vJAHRm1MH/pBY/wzE1nIOw7N5ye35gO1dirsVdirsVdirsVdirsVdirs&#xA;VdirsVdirsVdirsVdirsVdirsVdirsVdiryPzDZnSvN9zAdodQrLEaUHOrONht8SckX2izYaSe1O&#xA;o1+OjxLMzHXOxV2KsU14P5i1seWUYjSrVEufMDKSPVWSvoWdR2k4l5f8gAft5VL1Hh6df1ORD0R4&#xA;uvT9bKkRERURQqKAFUCgAGwAAy1oULzULOzVDcyiMyHjEm5d268UQVZ29lGAkBIiTyQenSNJ+aXk&#xA;SQxtEWbUz6b05D/QH60JH45h6zkHY9nc5Pc8wHauxV2KuxV2KuxV2KuxV2KuxV2KuxV2KuxV2Kux&#xA;V2KuxV2KuxV2KuxV2KuxViH5leX5dR0b67aNwvtPrLG9CfhFGJIAJPAqGIG5Xkg+1lmKfCbas2Pj&#xA;jTBtNvo760S4VSjGqyxEgmORCVdDTaqsCM28ZWLeenExNFE4WKyeeKCCSeVuEUSs8jHoFUVJ+7El&#xA;IFsU8oXtlpvlAeYdZnjsm1dm1S9nnZUC/WfihjJNN0h4Rgddspxmo2eu7flBlPhjvWzdv5j17zGP&#xA;+ddtTY6W3/S8v0I5rXc2tqeLvUdHk4r7NiJmX08u9TjjD6tz3D9JTzTNDs9PZrgs91fuvGbULlg8&#xA;7gb0rQKi134IFX2yyMQGqUyfc3aD/kKnkdv+LdSWnz0+Q/8AGuYms5B2HZvMvb8wHauxV2KuxV2K&#xA;uxV2KuxV2KuxV2KuxV2KuxV2KuxV2KuxV2KuxV2KuxV2KuxV2KvF/OOinyd5h+vRDj5c1RgsvZLe&#xA;UD4TtsAiCh/4rA6CJi2Zps1bF12t09jiH4/H45onNg6hLfMlvLc6BqFrFs9xBJDyOwUSqULV/wAk&#xA;NXIzFgs8ZqQKX6t5esrqfSEvkjbRtFV7p1m4+mZo4/ShLBvhoiNI2/Q0yMoA1fIM4ZCLr6pIdPPS&#xA;arM1t5TtG1llJWTUSTDp0bdN7ghjIR4Qq30YPFv6d/uZeBw7zNfemdrolxKfV1q6/SExIIt1X0rR&#xA;Kdlhq3P5ysxr0pkhHvazMfwivvRFp/5NDyP/AMZ9R/7p02Yus5BzuzuZe3ZgO2dirsVdirsVdirs&#xA;VdirsVdirsVdirsVdirsVdirsVdirsVdirsVdirsVdirsVQes6RY6xps+nXyepbTrxYbVBG6stQf&#xA;iU7jFSHiUcN/5V1v/C2rmsLb6JfGvCWPekNT+0oHwgmtAVNeId9jp817F02s03CeIckzv45JbC5j&#xA;jHKR4nVAehJUgZlHk4UeaD1uyXW/L9xZRt+41KIQyNuD6E9FkI6b+mxwSHEK72UJcMr7kpu/OOlW&#xA;F43l/QrCXVNTtAqPp9kgSG3BFV9aZuEMQp2qT7ZA5ANgLLYMJI4pGh3lG2uma7e0l1y7WJeo03T2&#xA;ZIh4CSc8ZpSP8ngp7qckIk82BlEfSPiUTZRxw/md5CiiQRxi41FVRQAoH6NnNABmLrOQc7s47ye5&#xA;ZgO1dirsVdirsVdirsVdirsVdirsVdirsVdirsVdirsVdirsVdirsVdirsVdirsVdiqRec/J2l+a&#xA;9Gk02+HBvt210tecMgIKspBU9QK0IPcEMAQQaRIWKeP6bqOpaZrEvlXzJ+71q2r9WuTsl7DuUkQ0&#xA;UFuKmtAK0JABDomzwZuIUebpNVpjA2OSY6afRaWwJ3tjyhH/ABRISY6ey0Kf7GvfLh3ONLvdpWmR&#xA;2CXPEhpLq5mupXApVpW+H/gUCr9GMY0s538kbkmCWwf+TT8h/wDMTqP/AHTJ8wtZyDsuzuZe03uo&#xA;WVige6mWJWNFr1J9gN8woQMuTs8mWMBcjS+1u7a6hE1vIssR2DKa7jtjKJBophMSFgoWfX9GgmMM&#xA;t3GJAaEVJofcioyYwzIumqWpxg0Sjo5EkRXjYOjCqspqCPYjKyKbgQdwgZ9f0aCYwy3aLIDQgVND&#xA;7kAgZYMMyLAaZanGDRKJmvbWGFJ5JAInKhHG4Jb7NKV65AQJNNkskQLJ2VZJEjRpHIVEBZmPQAbk&#xA;4ALZE0Lcjo6K6HkjAMrDoQdwcBCg3upWt3bXcXq27iSOpXkKjcdeuSlExNFEJiQsK2RZJbL5j0SG&#xA;V4pLpVkjYo60bZlNCOmWjBMi6ceWqxg0Si4760kjhkSUFLjaEnbkaE0FflkDAi/JtGSJAN811xdW&#xA;9sqNM/AO4jQmu7N0G2MYk8kymI80Jc+YNHtp3gnuVSVNmUhjSor2GTjhmRYDVLU44mid18Ot6XNB&#xA;LcRXAaGChlejfDXp1GA4pA0RzTHPAgkHYKUXmPRJpUijulaSRgiLRt2Y0A6YTgmBdMY6rGTQKpca&#xA;7pNtcNbT3KxzJTkrA7VFRvSnQ4I4ZEWAylqIRNE7q8l9aR2hu2lX6sBX1R8S0Jp2rkRAk11ZnJER&#xA;4r2UrPWdLvH9O2uUkk7JWjGngDQ5KWKUeYYwzwlsC1da3pVpP6FzcLHLQHiQeh6b0pjHFKQsBE88&#xA;Imid1f67afVTdiVWt1UsZVPIUHXpXI8BuurPxI1xXstuNRsbe2W5mmWOB6FHPfkKig69MIgSaHNE&#xA;ssYiydnW2oWVzbtcQTLJCteTL2oKmo64JQINFMckZCwdkGPM+gkgC7Uk7D4X/pln5efc1fm8femm&#xA;UuQ7FXYqx3zt5H0fzbpRs71fSuovjsNQQfvreWoIZGBVqclBIqOgIIYAggkIlEEUXit1ceYNC1i3&#xA;0LzQFh1yKo0fVqBbTUomPxRFgAscjcVqNvi4sB+xmwxZ+LY83UZ9Lwbj6fuZLY30F5CZI6qynhNC&#xA;4pJG46o43oR9xG4qCDmUDbgmNIjCxS2D/wAmn5C/5idR/wC6ZPmFrOQdl2dzL17V9Pu5Z7W+s+DX&#xA;Npy4xS/ZcOKHfsfDMbFMAEHkXOzY5EiUecUBJqitoupfV7f6le24/wBIhAAIZ/2ww67V3ywY/XGz&#xA;YLSc37uVDhkOaaaVY2MWmQxQxo0LxqWNAedRuW8a5TknIyJLkYccRAAckjjlltLHXobMn0LZv9Ho&#xA;fsFx+8C/6uZBAkYE8y4gJjHII8hy/SnWk2FjHpUEcUaNFJGrOaA8ywBJPjXKMk5GRcrDjiIAAbUg&#xA;tetbe10eCC3QJClxFxUb0q9T1yzDImZJ7mrUQEcYA5WFfzBI0qW+mRmkl+/ByOoiX4pD922Rwirl&#xA;3M9SbqA/i+7q7y9K8cc+mymstg/BSepibeM/djmF1IdV0xoGB5x+7op+UP8Ajkn/AIzSfrw6n6vg&#xA;x0X0fEp1mO5bGdL1CK3m1JHs57gm+nbnDCZFG4FK+O2ZeSBIjuB6R1dfhyCJkKJ9R5BEeYoBdxaZ&#xA;EpaD1ZxxNOLISjEbdiDkcB4eI89mzUx4hEcrKBv9RneO20+/HG/gu4CW/ZlSpAkX+OWQgN5R+kgt&#xA;OTKSBGX1CQ+PmmfmtE/RDtxHL1It6b/bGU6c+pv1g9HyVvMKIuh3vFQtY96CnfBgPrDPUj93JZpe&#xA;owyi3gFjcRtwH754SqVVa15e9NsOSBFmx80YcoNDhPyS/wDSGm2fmTVTfOqK6whOSlq0jFegOWcE&#xA;pY48Pm0eJCOWfF5fchxE6eU9SkCmO3nlMtrGe0TMvH6Dk7/ex7xzYVWCR6E7e5UvLywvE0y30/jL&#xA;fpJE3KMboqj4yzU6YIxlHiMvpTOcZcIjvKwiJ7/T7PzJdteuqI8EYXkC1T9AOQEJSxiu9slkjHKe&#xA;LuCHtoz+g9anjQx2dwZHtEIp8FPtAdgclI+uI6jm1wH7uZH0m6TCfTri60zTZrZkFzaLHJGslSjf&#xA;AAVNP15WJgSkDyLfLEZQiRzDrO/jmi1CCS0FnfojNcxihDVXZww64yhRBuwsMgIkCOGXVD+X9RhG&#xA;n2dubK4ZiFT1hCTHuacufh75LNA8RNj5sNNlHDEcJ+TIsxXOdirsVdiqVeZ/Kug+Z9Il0nW7RLuz&#xA;l34sPiRgKB0bqrCvUfLocVeD+afK/m78vJjd3D3Gs+WIwRH5ggQzXlpEtWSPUYF/3ohSp/ej4hvu&#xA;pamZWLUVzcDPowd4/L9XcmWmeZ4ruyjvPT+s2cgql/YE3UDU/wAlAZlbxUpRenLM+M7Furljo118&#xA;1un6zpVz+afkQW95FKy3N+HjVwXXnp06ryX7S1bbcZiauQIDn9nxIJt7bf6T9ZuEuoLiS1ukXh6i&#xA;UIK1rRlOx3zGhkoURYc3Jh4jxA0W9O0eK0WcySNczXRrcSyU+KgoBQdqHGeUyrpScWARu9yeaGHl&#xA;6SJTFaahPb2pr+4BDcQeyMd1yXjXuQCWv8sRtGRAR1nptpaWhtYkrE1fU5fEXLfaLE9a5XLIZGy3&#xA;QxRjGhyQA8uyxKYrPUZ7a1JJ9AUbjXsjHdcs8cHcgEtH5YjaMiAiJNCtTp0VjGzRxROsgbqxZTXe&#xA;vjkRmPFxNh08eERHIN3Oh2d3fG6ux644COOFvsqAakinc4xymIobLPTxlK5btWuh2dpfC6tB6AMZ&#xA;jkhUfC29QfnjLMZRorDTxjLijshrby/dWsZjttSlijLFuARCKtueoOTlmB5xa46YxFCRTlAVRQTy&#xA;IABY9/fMcuUEpXQrmKWd7bUJYFuJXmaNUQjk536g5f4wIFjk4w05BNSIs2im01pFs/WnaSS0k9X1&#xA;CAC5oRvT55DxKuhzbDiurPJvUdKtr4wtKKS27rJFIOooQSPkaYwyGN+acuETq+YXanp6X9obZ3KK&#xA;WVuQ3PwkH+GDHPhNpy4+ONL7+zW8s5bVmKLKvEsOowQlwm05IcUSO9BQaTfxGMfpOVo46fuykdCB&#xA;26ZYckT/AAtUcMh/EfsVk0i3F9d3b/vPriorxsAVAReP45E5DwgdzIYRxGX85RGhINKm0z13Nu5/&#xA;dkgFkXly4g98l43q4q3Y/l/QYXsj7a2it4ljjUAKACQAK0FKmmVSkSW6MREUFAaZD+kJr1jzM0ax&#xA;mNgCoC5PxDwgMPCHEZd6jDoccWn3NgkzfVp+XpqaExh+oX2wnLchLqGEdOBExvY/Y650RJY7X055&#xA;ILi0ThFOlK0oAQynY1pjHLV7WCs8FgUaMerrLRFgNzJNcPc3V0vCSdwBRaUACjYYyy3VCgFx4Ksk&#xA;2So2+hXtvCkMOqTJEgoihI9h9IyUswJsxYx08oihI18E4yhynYq7FXYq7FXEAih3B6jFXmXmb8jt&#xA;Lnv5da8nXr+VdbmPO4W3QSWFy239/aGicjSnNOJFSdzk4ZJR5NeTFGYqQYdY+XfzNj/MXygPMOgJ&#xA;9X068lkl1rTZDcWTB7V15FWAmh+Lb94Ke+WZc/GBbTg0wxkkHYvfsocp2KuxV2KuxV2KuxV2KuxV&#xA;2KuxV2KuxV2KuxV2KuxV2KuxV2KuxV2KuxV2Kv8A/9k=</xmpGImg:image>
               </rdf:li>
            </rdf:Alt>
         </xmp:Thumbnails>
      </rdf:Description>
      <rdf:Description rdf:about=""
            xmlns:xmpMM="http://ns.adobe.com/xap/1.0/mm/"
            xmlns:stRef="http://ns.adobe.com/xap/1.0/sType/ResourceRef#"
            xmlns:stEvt="http://ns.adobe.com/xap/1.0/sType/ResourceEvent#">
         <xmpMM:RenditionClass>proof:pdf</xmpMM:RenditionClass>
         <xmpMM:OriginalDocumentID>uuid:65E6390686CF11DBA6E2D887CEACB407</xmpMM:OriginalDocumentID>
         <xmpMM:DocumentID>xmp.did:02801174072068118083FCE10DAED1F2</xmpMM:DocumentID>
         <xmpMM:InstanceID>xmp.iid:02801174072068118083FCE10DAED1F2</xmpMM:InstanceID>
         <xmpMM:DerivedFrom rdf:parseType="Resource">
            <stRef:instanceID>uuid:0422f9ea-96fe-9946-a099-8d9eefc40c79</stRef:instanceID>
            <stRef:documentID>xmp.did:66A6819719206811822A897E387FE54C</stRef:documentID>
            <stRef:originalDocumentID>uuid:65E6390686CF11DBA6E2D887CEACB407</stRef:originalDocumentID>
            <stRef:renditionClass>proof:pdf</stRef:renditionClass>
         </xmpMM:DerivedFrom>
         <xmpMM:History>
            <rdf:Seq>
               <rdf:li rdf:parseType="Resource">
                  <stEvt:action>saved</stEvt:action>
                  <stEvt:instanceID>xmp.iid:02801174072068118083FCE10DAED1F2</stEvt:instanceID>
                  <stEvt:when>2018-01-29T18:41:54+02:00</stEvt:when>
                  <stEvt:softwareAgent>Adobe Illustrator CS6 (Macintosh)</stEvt:softwareAgent>
                  <stEvt:changed>/</stEvt:changed>
               </rdf:li>
            </rdf:Seq>
         </xmpMM:History>
      </rdf:Description>
      <rdf:Description rdf:about=""
            xmlns:illustrator="http://ns.adobe.com/illustrator/1.0/">
         <illustrator:StartupProfile>Web</illustrator:StartupProfile>
      </rdf:Description>
      <rdf:Description rdf:about=""
            xmlns:xmpTPg="http://ns.adobe.com/xap/1.0/t/pg/"
            xmlns:stDim="http://ns.adobe.com/xap/1.0/sType/Dimensions#"
            xmlns:xmpG="http://ns.adobe.com/xap/1.0/g/">
         <xmpTPg:NPages>1</xmpTPg:NPages>
         <xmpTPg:HasVisibleTransparency>False</xmpTPg:HasVisibleTransparency>
         <xmpTPg:HasVisibleOverprint>False</xmpTPg:HasVisibleOverprint>
         <xmpTPg:MaxPageSize rdf:parseType="Resource">
            <stDim:w>210.438477</stDim:w>
            <stDim:h>88.083984</stDim:h>
            <stDim:unit>Pixels</stDim:unit>
         </xmpTPg:MaxPageSize>
         <xmpTPg:PlateNames>
            <rdf:Seq>
               <rdf:li>Cyan</rdf:li>
               <rdf:li>Magenta</rdf:li>
               <rdf:li>Yellow</rdf:li>
               <rdf:li>Black</rdf:li>
            </rdf:Seq>
         </xmpTPg:PlateNames>
         <xmpTPg:SwatchGroups>
            <rdf:Seq>
               <rdf:li rdf:parseType="Resource">
                  <xmpG:groupName>Default Swatch Group</xmpG:groupName>
                  <xmpG:groupType>0</xmpG:groupType>
                  <xmpG:Colorants>
                     <rdf:Seq>
                        <rdf:li rdf:parseType="Resource">
                           <xmpG:swatchName>White</xmpG:swatchName>
                           <xmpG:mode>RGB</xmpG:mode>
                           <xmpG:type>PROCESS</xmpG:type>
                           <xmpG:red>255</xmpG:red>
                           <xmpG:green>255</xmpG:green>
                           <xmpG:blue>255</xmpG:blue>
                        </rdf:li>
                        <rdf:li rdf:parseType="Resource">
                           <xmpG:swatchName>Black</xmpG:swatchName>
                           <xmpG:mode>RGB</xmpG:mode>
                           <xmpG:type>PROCESS</xmpG:type>
                           <xmpG:red>0</xmpG:red>
                           <xmpG:green>0</xmpG:green>
                           <xmpG:blue>0</xmpG:blue>
                        </rdf:li>
                        <rdf:li rdf:parseType="Resource">
                           <xmpG:swatchName>RGB Red</xmpG:swatchName>
                           <xmpG:mode>RGB</xmpG:mode>
                           <xmpG:type>PROCESS</xmpG:type>
                           <xmpG:red>255</xmpG:red>
                           <xmpG:green>0</xmpG:green>
                           <xmpG:blue>0</xmpG:blue>
                        </rdf:li>
                        <rdf:li rdf:parseType="Resource">
                           <xmpG:swatchName>RGB Yellow</xmpG:swatchName>
                           <xmpG:mode>RGB</xmpG:mode>
                           <xmpG:type>PROCESS</xmpG:type>
                           <xmpG:red>255</xmpG:red>
                           <xmpG:green>255</xmpG:green>
                           <xmpG:blue>0</xmpG:blue>
                        </rdf:li>
                        <rdf:li rdf:parseType="Resource">
                           <xmpG:swatchName>RGB Green</xmpG:swatchName>
                           <xmpG:mode>RGB</xmpG:mode>
                           <xmpG:type>PROCESS</xmpG:type>
                           <xmpG:red>0</xmpG:red>
                           <xmpG:green>255</xmpG:green>
                           <xmpG:blue>0</xmpG:blue>
                        </rdf:li>
                        <rdf:li rdf:parseType="Resource">
                           <xmpG:swatchName>RGB Cyan</xmpG:swatchName>
                           <xmpG:mode>RGB</xmpG:mode>
                           <xmpG:type>PROCESS</xmpG:type>
                           <xmpG:red>0</xmpG:red>
                           <xmpG:green>255</xmpG:green>
                           <xmpG:blue>255</xmpG:blue>
                        </rdf:li>
                        <rdf:li rdf:parseType="Resource">
                           <xmpG:swatchName>RGB Blue</xmpG:swatchName>
                           <xmpG:mode>RGB</xmpG:mode>
                           <xmpG:type>PROCESS</xmpG:type>
                           <xmpG:red>0</xmpG:red>
                           <xmpG:green>0</xmpG:green>
                           <xmpG:blue>255</xmpG:blue>
                        </rdf:li>
                        <rdf:li rdf:parseType="Resource">
                           <xmpG:swatchName>RGB Magenta</xmpG:swatchName>
                           <xmpG:mode>RGB</xmpG:mode>
                           <xmpG:type>PROCESS</xmpG:type>
                           <xmpG:red>255</xmpG:red>
                           <xmpG:green>0</xmpG:green>
                           <xmpG:blue>255</xmpG:blue>
                        </rdf:li>
                        <rdf:li rdf:parseType="Resource">
                           <xmpG:swatchName>R=193 G=39 B=45</xmpG:swatchName>
                           <xmpG:mode>RGB</xmpG:mode>
                           <xmpG:type>PROCESS</xmpG:type>
                           <xmpG:red>193</xmpG:red>
                           <xmpG:green>39</xmpG:green>
                           <xmpG:blue>45</xmpG:blue>
                        </rdf:li>
                        <rdf:li rdf:parseType="Resource">
                           <xmpG:swatchName>R=237 G=28 B=36</xmpG:swatchName>
                           <xmpG:mode>RGB</xmpG:mode>
                           <xmpG:type>PROCESS</xmpG:type>
                           <xmpG:red>237</xmpG:red>
                           <xmpG:green>28</xmpG:green>
                           <xmpG:blue>36</xmpG:blue>
                        </rdf:li>
                        <rdf:li rdf:parseType="Resource">
                           <xmpG:swatchName>R=241 G=90 B=36</xmpG:swatchName>
                           <xmpG:mode>RGB</xmpG:mode>
                           <xmpG:type>PROCESS</xmpG:type>
                           <xmpG:red>241</xmpG:red>
                           <xmpG:green>90</xmpG:green>
                           <xmpG:blue>36</xmpG:blue>
                        </rdf:li>
                        <rdf:li rdf:parseType="Resource">
                           <xmpG:swatchName>R=247 G=147 B=30</xmpG:swatchName>
                           <xmpG:mode>RGB</xmpG:mode>
                           <xmpG:type>PROCESS</xmpG:type>
                           <xmpG:red>247</xmpG:red>
                           <xmpG:green>147</xmpG:green>
                           <xmpG:blue>30</xmpG:blue>
                        </rdf:li>
                        <rdf:li rdf:parseType="Resource">
                           <xmpG:swatchName>R=251 G=176 B=59</xmpG:swatchName>
                           <xmpG:mode>RGB</xmpG:mode>
                           <xmpG:type>PROCESS</xmpG:type>
                           <xmpG:red>251</xmpG:red>
                           <xmpG:green>176</xmpG:green>
                           <xmpG:blue>59</xmpG:blue>
                        </rdf:li>
                        <rdf:li rdf:parseType="Resource">
                           <xmpG:swatchName>R=252 G=238 B=33</xmpG:swatchName>
                           <xmpG:mode>RGB</xmpG:mode>
                           <xmpG:type>PROCESS</xmpG:type>
                           <xmpG:red>252</xmpG:red>
                           <xmpG:green>238</xmpG:green>
                           <xmpG:blue>33</xmpG:blue>
                        </rdf:li>
                        <rdf:li rdf:parseType="Resource">
                           <xmpG:swatchName>R=217 G=224 B=33</xmpG:swatchName>
                           <xmpG:mode>RGB</xmpG:mode>
                           <xmpG:type>PROCESS</xmpG:type>
                           <xmpG:red>217</xmpG:red>
                           <xmpG:green>224</xmpG:green>
                           <xmpG:blue>33</xmpG:blue>
                        </rdf:li>
                        <rdf:li rdf:parseType="Resource">
                           <xmpG:swatchName>R=140 G=198 B=63</xmpG:swatchName>
                           <xmpG:mode>RGB</xmpG:mode>
                           <xmpG:type>PROCESS</xmpG:type>
                           <xmpG:red>140</xmpG:red>
                           <xmpG:green>198</xmpG:green>
                           <xmpG:blue>63</xmpG:blue>
                        </rdf:li>
                        <rdf:li rdf:parseType="Resource">
                           <xmpG:swatchName>R=57 G=181 B=74</xmpG:swatchName>
                           <xmpG:mode>RGB</xmpG:mode>
                           <xmpG:type>PROCESS</xmpG:type>
                           <xmpG:red>57</xmpG:red>
                           <xmpG:green>181</xmpG:green>
                           <xmpG:blue>74</xmpG:blue>
                        </rdf:li>
                        <rdf:li rdf:parseType="Resource">
                           <xmpG:swatchName>R=0 G=146 B=69</xmpG:swatchName>
                           <xmpG:mode>RGB</xmpG:mode>
                           <xmpG:type>PROCESS</xmpG:type>
                           <xmpG:red>0</xmpG:red>
                           <xmpG:green>146</xmpG:green>
                           <xmpG:blue>69</xmpG:blue>
                        </rdf:li>
                        <rdf:li rdf:parseType="Resource">
                           <xmpG:swatchName>R=0 G=104 B=55</xmpG:swatchName>
                           <xmpG:mode>RGB</xmpG:mode>
                           <xmpG:type>PROCESS</xmpG:type>
                           <xmpG:red>0</xmpG:red>
                           <xmpG:green>104</xmpG:green>
                           <xmpG:blue>55</xmpG:blue>
                        </rdf:li>
                        <rdf:li rdf:parseType="Resource">
                           <xmpG:swatchName>R=34 G=181 B=115</xmpG:swatchName>
                           <xmpG:mode>RGB</xmpG:mode>
                           <xmpG:type>PROCESS</xmpG:type>
                           <xmpG:red>34</xmpG:red>
                           <xmpG:green>181</xmpG:green>
                           <xmpG:blue>115</xmpG:blue>
                        </rdf:li>
                        <rdf:li rdf:parseType="Resource">
                           <xmpG:swatchName>R=0 G=169 B=157</xmpG:swatchName>
                           <xmpG:mode>RGB</xmpG:mode>
                           <xmpG:type>PROCESS</xmpG:type>
                           <xmpG:red>0</xmpG:red>
                           <xmpG:green>169</xmpG:green>
                           <xmpG:blue>157</xmpG:blue>
                        </rdf:li>
                        <rdf:li rdf:parseType="Resource">
                           <xmpG:swatchName>R=41 G=171 B=226</xmpG:swatchName>
                           <xmpG:mode>RGB</xmpG:mode>
                           <xmpG:type>PROCESS</xmpG:type>
                           <xmpG:red>41</xmpG:red>
                           <xmpG:green>171</xmpG:green>
                           <xmpG:blue>226</xmpG:blue>
                        </rdf:li>
                        <rdf:li rdf:parseType="Resource">
                           <xmpG:swatchName>R=0 G=113 B=188</xmpG:swatchName>
                           <xmpG:mode>RGB</xmpG:mode>
                           <xmpG:type>PROCESS</xmpG:type>
                           <xmpG:red>0</xmpG:red>
                           <xmpG:green>113</xmpG:green>
                           <xmpG:blue>188</xmpG:blue>
                        </rdf:li>
                        <rdf:li rdf:parseType="Resource">
                           <xmpG:swatchName>R=46 G=49 B=146</xmpG:swatchName>
                           <xmpG:mode>RGB</xmpG:mode>
                           <xmpG:type>PROCESS</xmpG:type>
                           <xmpG:red>46</xmpG:red>
                           <xmpG:green>49</xmpG:green>
                           <xmpG:blue>146</xmpG:blue>
                        </rdf:li>
                        <rdf:li rdf:parseType="Resource">
                           <xmpG:swatchName>R=27 G=20 B=100</xmpG:swatchName>
                           <xmpG:mode>RGB</xmpG:mode>
                           <xmpG:type>PROCESS</xmpG:type>
                           <xmpG:red>27</xmpG:red>
                           <xmpG:green>20</xmpG:green>
                           <xmpG:blue>100</xmpG:blue>
                        </rdf:li>
                        <rdf:li rdf:parseType="Resource">
                           <xmpG:swatchName>R=102 G=45 B=145</xmpG:swatchName>
                           <xmpG:mode>RGB</xmpG:mode>
                           <xmpG:type>PROCESS</xmpG:type>
                           <xmpG:red>102</xmpG:red>
                           <xmpG:green>45</xmpG:green>
                           <xmpG:blue>145</xmpG:blue>
                        </rdf:li>
                        <rdf:li rdf:parseType="Resource">
                           <xmpG:swatchName>R=147 G=39 B=143</xmpG:swatchName>
                           <xmpG:mode>RGB</xmpG:mode>
                           <xmpG:type>PROCESS</xmpG:type>
                           <xmpG:red>147</xmpG:red>
                           <xmpG:green>39</xmpG:green>
                           <xmpG:blue>143</xmpG:blue>
                        </rdf:li>
                        <rdf:li rdf:parseType="Resource">
                           <xmpG:swatchName>R=158 G=0 B=93</xmpG:swatchName>
                           <xmpG:mode>RGB</xmpG:mode>
                           <xmpG:type>PROCESS</xmpG:type>
                           <xmpG:red>158</xmpG:red>
                           <xmpG:green>0</xmpG:green>
                           <xmpG:blue>93</xmpG:blue>
                        </rdf:li>
                        <rdf:li rdf:parseType="Resource">
                           <xmpG:swatchName>R=212 G=20 B=90</xmpG:swatchName>
                           <xmpG:mode>RGB</xmpG:mode>
                           <xmpG:type>PROCESS</xmpG:type>
                           <xmpG:red>212</xmpG:red>
                           <xmpG:green>20</xmpG:green>
                           <xmpG:blue>90</xmpG:blue>
                        </rdf:li>
                        <rdf:li rdf:parseType="Resource">
                           <xmpG:swatchName>R=237 G=30 B=121</xmpG:swatchName>
                           <xmpG:mode>RGB</xmpG:mode>
                           <xmpG:type>PROCESS</xmpG:type>
                           <xmpG:red>237</xmpG:red>
                           <xmpG:green>30</xmpG:green>
                           <xmpG:blue>121</xmpG:blue>
                        </rdf:li>
                        <rdf:li rdf:parseType="Resource">
                           <xmpG:swatchName>R=199 G=178 B=153</xmpG:swatchName>
                           <xmpG:mode>RGB</xmpG:mode>
                           <xmpG:type>PROCESS</xmpG:type>
                           <xmpG:red>199</xmpG:red>
                           <xmpG:green>178</xmpG:green>
                           <xmpG:blue>153</xmpG:blue>
                        </rdf:li>
                        <rdf:li rdf:parseType="Resource">
                           <xmpG:swatchName>R=153 G=134 B=117</xmpG:swatchName>
                           <xmpG:mode>RGB</xmpG:mode>
                           <xmpG:type>PROCESS</xmpG:type>
                           <xmpG:red>153</xmpG:red>
                           <xmpG:green>134</xmpG:green>
                           <xmpG:blue>117</xmpG:blue>
                        </rdf:li>
                        <rdf:li rdf:parseType="Resource">
                           <xmpG:swatchName>R=115 G=99 B=87</xmpG:swatchName>
                           <xmpG:mode>RGB</xmpG:mode>
                           <xmpG:type>PROCESS</xmpG:type>
                           <xmpG:red>115</xmpG:red>
                           <xmpG:green>99</xmpG:green>
                           <xmpG:blue>87</xmpG:blue>
                        </rdf:li>
                        <rdf:li rdf:parseType="Resource">
                           <xmpG:swatchName>R=83 G=71 B=65</xmpG:swatchName>
                           <xmpG:mode>RGB</xmpG:mode>
                           <xmpG:type>PROCESS</xmpG:type>
                           <xmpG:red>83</xmpG:red>
                           <xmpG:green>71</xmpG:green>
                           <xmpG:blue>65</xmpG:blue>
                        </rdf:li>
                        <rdf:li rdf:parseType="Resource">
                           <xmpG:swatchName>R=198 G=156 B=109</xmpG:swatchName>
                           <xmpG:mode>RGB</xmpG:mode>
                           <xmpG:type>PROCESS</xmpG:type>
                           <xmpG:red>198</xmpG:red>
                           <xmpG:green>156</xmpG:green>
                           <xmpG:blue>109</xmpG:blue>
                        </rdf:li>
                        <rdf:li rdf:parseType="Resource">
                           <xmpG:swatchName>R=166 G=124 B=82</xmpG:swatchName>
                           <xmpG:mode>RGB</xmpG:mode>
                           <xmpG:type>PROCESS</xmpG:type>
                           <xmpG:red>166</xmpG:red>
                           <xmpG:green>124</xmpG:green>
                           <xmpG:blue>82</xmpG:blue>
                        </rdf:li>
                        <rdf:li rdf:parseType="Resource">
                           <xmpG:swatchName>R=140 G=98 B=57</xmpG:swatchName>
                           <xmpG:mode>RGB</xmpG:mode>
                           <xmpG:type>PROCESS</xmpG:type>
                           <xmpG:red>140</xmpG:red>
                           <xmpG:green>98</xmpG:green>
                           <xmpG:blue>57</xmpG:blue>
                        </rdf:li>
                        <rdf:li rdf:parseType="Resource">
                           <xmpG:swatchName>R=117 G=76 B=36</xmpG:swatchName>
                           <xmpG:mode>RGB</xmpG:mode>
                           <xmpG:type>PROCESS</xmpG:type>
                           <xmpG:red>117</xmpG:red>
                           <xmpG:green>76</xmpG:green>
                           <xmpG:blue>36</xmpG:blue>
                        </rdf:li>
                        <rdf:li rdf:parseType="Resource">
                           <xmpG:swatchName>R=96 G=56 B=19</xmpG:swatchName>
                           <xmpG:mode>RGB</xmpG:mode>
                           <xmpG:type>PROCESS</xmpG:type>
                           <xmpG:red>96</xmpG:red>
                           <xmpG:green>56</xmpG:green>
                           <xmpG:blue>19</xmpG:blue>
                        </rdf:li>
                        <rdf:li rdf:parseType="Resource">
                           <xmpG:swatchName>R=66 G=33 B=11</xmpG:swatchName>
                           <xmpG:mode>RGB</xmpG:mode>
                           <xmpG:type>PROCESS</xmpG:type>
                           <xmpG:red>66</xmpG:red>
                           <xmpG:green>33</xmpG:green>
                           <xmpG:blue>11</xmpG:blue>
                        </rdf:li>
                     </rdf:Seq>
                  </xmpG:Colorants>
               </rdf:li>
               <rdf:li rdf:parseType="Resource">
                  <xmpG:groupName>Grays</xmpG:groupName>
                  <xmpG:groupType>1</xmpG:groupType>
                  <xmpG:Colorants>
                     <rdf:Seq>
                        <rdf:li rdf:parseType="Resource">
                           <xmpG:swatchName>R=0 G=0 B=0</xmpG:swatchName>
                           <xmpG:mode>RGB</xmpG:mode>
                           <xmpG:type>PROCESS</xmpG:type>
                           <xmpG:red>0</xmpG:red>
                           <xmpG:green>0</xmpG:green>
                           <xmpG:blue>0</xmpG:blue>
                        </rdf:li>
                        <rdf:li rdf:parseType="Resource">
                           <xmpG:swatchName>R=26 G=26 B=26</xmpG:swatchName>
                           <xmpG:mode>RGB</xmpG:mode>
                           <xmpG:type>PROCESS</xmpG:type>
                           <xmpG:red>26</xmpG:red>
                           <xmpG:green>26</xmpG:green>
                           <xmpG:blue>26</xmpG:blue>
                        </rdf:li>
                        <rdf:li rdf:parseType="Resource">
                           <xmpG:swatchName>R=51 G=51 B=51</xmpG:swatchName>
                           <xmpG:mode>RGB</xmpG:mode>
                           <xmpG:type>PROCESS</xmpG:type>
                           <xmpG:red>51</xmpG:red>
                           <xmpG:green>51</xmpG:green>
                           <xmpG:blue>51</xmpG:blue>
                        </rdf:li>
                        <rdf:li rdf:parseType="Resource">
                           <xmpG:swatchName>R=77 G=77 B=77</xmpG:swatchName>
                           <xmpG:mode>RGB</xmpG:mode>
                           <xmpG:type>PROCESS</xmpG:type>
                           <xmpG:red>77</xmpG:red>
                           <xmpG:green>77</xmpG:green>
                           <xmpG:blue>77</xmpG:blue>
                        </rdf:li>
                        <rdf:li rdf:parseType="Resource">
                           <xmpG:swatchName>R=102 G=102 B=102</xmpG:swatchName>
                           <xmpG:mode>RGB</xmpG:mode>
                           <xmpG:type>PROCESS</xmpG:type>
                           <xmpG:red>102</xmpG:red>
                           <xmpG:green>102</xmpG:green>
                           <xmpG:blue>102</xmpG:blue>
                        </rdf:li>
                        <rdf:li rdf:parseType="Resource">
                           <xmpG:swatchName>R=128 G=128 B=128</xmpG:swatchName>
                           <xmpG:mode>RGB</xmpG:mode>
                           <xmpG:type>PROCESS</xmpG:type>
                           <xmpG:red>128</xmpG:red>
                           <xmpG:green>128</xmpG:green>
                           <xmpG:blue>128</xmpG:blue>
                        </rdf:li>
                        <rdf:li rdf:parseType="Resource">
                           <xmpG:swatchName>R=153 G=153 B=153</xmpG:swatchName>
                           <xmpG:mode>RGB</xmpG:mode>
                           <xmpG:type>PROCESS</xmpG:type>
                           <xmpG:red>153</xmpG:red>
                           <xmpG:green>153</xmpG:green>
                           <xmpG:blue>153</xmpG:blue>
                        </rdf:li>
                        <rdf:li rdf:parseType="Resource">
                           <xmpG:swatchName>R=179 G=179 B=179</xmpG:swatchName>
                           <xmpG:mode>RGB</xmpG:mode>
                           <xmpG:type>PROCESS</xmpG:type>
                           <xmpG:red>179</xmpG:red>
                           <xmpG:green>179</xmpG:green>
                           <xmpG:blue>179</xmpG:blue>
                        </rdf:li>
                        <rdf:li rdf:parseType="Resource">
                           <xmpG:swatchName>R=204 G=204 B=204</xmpG:swatchName>
                           <xmpG:mode>RGB</xmpG:mode>
                           <xmpG:type>PROCESS</xmpG:type>
                           <xmpG:red>204</xmpG:red>
                           <xmpG:green>204</xmpG:green>
                           <xmpG:blue>204</xmpG:blue>
                        </rdf:li>
                        <rdf:li rdf:parseType="Resource">
                           <xmpG:swatchName>R=230 G=230 B=230</xmpG:swatchName>
                           <xmpG:mode>RGB</xmpG:mode>
                           <xmpG:type>PROCESS</xmpG:type>
                           <xmpG:red>230</xmpG:red>
                           <xmpG:green>230</xmpG:green>
                           <xmpG:blue>230</xmpG:blue>
                        </rdf:li>
                        <rdf:li rdf:parseType="Resource">
                           <xmpG:swatchName>R=242 G=242 B=242</xmpG:swatchName>
                           <xmpG:mode>RGB</xmpG:mode>
                           <xmpG:type>PROCESS</xmpG:type>
                           <xmpG:red>242</xmpG:red>
                           <xmpG:green>242</xmpG:green>
                           <xmpG:blue>242</xmpG:blue>
                        </rdf:li>
                     </rdf:Seq>
                  </xmpG:Colorants>
               </rdf:li>
               <rdf:li rdf:parseType="Resource">
                  <xmpG:groupName>Web Color Group</xmpG:groupName>
                  <xmpG:groupType>1</xmpG:groupType>
                  <xmpG:Colorants>
                     <rdf:Seq>
                        <rdf:li rdf:parseType="Resource">
                           <xmpG:swatchName>R=63 G=169 B=245</xmpG:swatchName>
                           <xmpG:mode>RGB</xmpG:mode>
                           <xmpG:type>PROCESS</xmpG:type>
                           <xmpG:red>63</xmpG:red>
                           <xmpG:green>169</xmpG:green>
                           <xmpG:blue>245</xmpG:blue>
                        </rdf:li>
                        <rdf:li rdf:parseType="Resource">
                           <xmpG:swatchName>R=122 G=201 B=67</xmpG:swatchName>
                           <xmpG:mode>RGB</xmpG:mode>
                           <xmpG:type>PROCESS</xmpG:type>
                           <xmpG:red>122</xmpG:red>
                           <xmpG:green>201</xmpG:green>
                           <xmpG:blue>67</xmpG:blue>
                        </rdf:li>
                        <rdf:li rdf:parseType="Resource">
                           <xmpG:swatchName>R=255 G=147 B=30</xmpG:swatchName>
                           <xmpG:mode>RGB</xmpG:mode>
                           <xmpG:type>PROCESS</xmpG:type>
                           <xmpG:red>255</xmpG:red>
                           <xmpG:green>147</xmpG:green>
                           <xmpG:blue>30</xmpG:blue>
                        </rdf:li>
                        <rdf:li rdf:parseType="Resource">
                           <xmpG:swatchName>R=255 G=29 B=37</xmpG:swatchName>
                           <xmpG:mode>RGB</xmpG:mode>
                           <xmpG:type>PROCESS</xmpG:type>
                           <xmpG:red>255</xmpG:red>
                           <xmpG:green>29</xmpG:green>
                           <xmpG:blue>37</xmpG:blue>
                        </rdf:li>
                        <rdf:li rdf:parseType="Resource">
                           <xmpG:swatchName>R=255 G=123 B=172</xmpG:swatchName>
                           <xmpG:mode>RGB</xmpG:mode>
                           <xmpG:type>PROCESS</xmpG:type>
                           <xmpG:red>255</xmpG:red>
                           <xmpG:green>123</xmpG:green>
                           <xmpG:blue>172</xmpG:blue>
                        </rdf:li>
                        <rdf:li rdf:parseType="Resource">
                           <xmpG:swatchName>R=189 G=204 B=212</xmpG:swatchName>
                           <xmpG:mode>RGB</xmpG:mode>
                           <xmpG:type>PROCESS</xmpG:type>
                           <xmpG:red>189</xmpG:red>
                           <xmpG:green>204</xmpG:green>
                           <xmpG:blue>212</xmpG:blue>
                        </rdf:li>
                     </rdf:Seq>
                  </xmpG:Colorants>
               </rdf:li>
            </rdf:Seq>
         </xmpTPg:SwatchGroups>
      </rdf:Description>
      <rdf:Description rdf:about=""
            xmlns:pdf="http://ns.adobe.com/pdf/1.3/">
         <pdf:Producer>Adobe PDF library 10.01</pdf:Producer>
      </rdf:Description>
   </rdf:RDF>
</x:xmpmeta>
                                                                                                    
                                                                                                    
                                                                                                    
                                                                                                    
                                                                                                    
                                                                                                    
                                                                                                    
                                                                                                    
                                                                                                    
                                                                                                    
                                                                                                    
                                                                                                    
                                                                                                    
                                                                                                    
                                                                                                    
                                                                                                    
                                                                                                    
                                                                                                    
                                                                                                    
                                                                                                    
                           
<?xpacket end="w"?>
	</metadata>
<g>
	<path fill="#83C7E4" d="M31.934,35.057c0.361,0.242,0.739,0.465,1.131,0.667c0.04-0.042,0.081-0.084,0.122-0.127
		C32.754,35.441,32.337,35.26,31.934,35.057 M25.446,26.638c-0.263,1.711-0.907,3.296-1.843,4.667l2.011,3.507l1.823-3.151
		c-0.003-0.005-0.007-0.011-0.011-0.017C26.384,30.161,25.71,28.428,25.446,26.638 M48.44,24.418
		c0.033,0.806-0.02,1.626-0.165,2.453c-0.042,0.24-0.092,0.476-0.148,0.709c0.01-0.002,0.02-0.004,0.03-0.005
		c0.045-0.195,0.084-0.391,0.118-0.587C48.431,26.14,48.484,25.276,48.44,24.418 M48.228,21.629
		c0.493,1.711,0.597,3.533,0.273,5.279c-0.037,0.211-0.08,0.42-0.128,0.628c0.466-0.081,0.934-0.15,1.403-0.207l-0.001-0.446
		l0.01,0.103C49.649,25.353,49.047,23.456,48.228,21.629 M24.966,20.953c0.05,0.218,0.094,0.438,0.131,0.656
		c0.154,0.512,0.272,1.039,0.354,1.578c0.017-0.109,0.036-0.217,0.056-0.326c0.02-0.115,0.042-0.23,0.065-0.345
		C25.408,21.979,25.205,21.455,24.966,20.953 M47.214,56.245L47.214,56.245l-12.13,6.564l-1.104,3.58l0.411-4.516L47.214,56.245
		 M46.013,49.485L46.013,49.485l-13.062,7.326l-1.32,3.755l0.629-4.692L46.013,49.485 M47.278,40.801L47.278,40.801l-15.908,9.643
		l-1.973,4.289l1.295-5.236L47.278,40.801 M3.347,20.221c-1.664,3.365-2.599,7.162-2.599,11.187c0,9.248,8.008,20.552,13.657,27.536
		c6.946,8.582,14.521,15.681,21.857,20.848c-0.984-0.711-1.953-1.444-2.906-2.194c-3.646-2.875-7.075-6.014-10.307-9.336
		c-7.625-7.869-21.653-24.72-21.555-36.863c0.05,12.751,15.747,30.675,24.038,38.623c3.701,3.529,7.636,6.819,11.838,9.721
		c3.94,2.713,8.121,5.117,12.567,6.816l-0.011-4.141c-3.142-0.427-6.551-1.406-9.313-2.832c-2.995-1.539-5.701-3.635-7.945-6.142
		c-2.246-2.506-4.032-5.423-5.233-8.563c-1.206-3.14-1.82-6.504-1.825-9.86c0.024,3.356,0.661,6.713,1.882,9.837
		c1.218,3.129,3.017,6.023,5.268,8.503c2.25,2.483,4.953,4.55,7.938,6.061c2.742,1.394,6.119,2.345,9.228,2.751l-0.146-54.248
		c-3.102,0.402-6.129,1.347-8.903,2.783c-2.874,1.483-5.476,3.487-7.645,5.878c-2.173,2.39-3.913,5.168-5.108,8.163
		c-1.198,2.994-1.85,6.201-1.92,9.421c-0.05-2.19,0.16-4.4,0.645-6.563c-0.827,2.365-1.329,4.867-1.487,7.414
		c-0.005-3.391,0.605-6.782,1.811-9.95c1.201-3.169,2.99-6.113,5.244-8.64c0.153-0.171,0.307-0.341,0.464-0.509
		c-2.057-0.791-3.889-2.165-5.205-3.93l-2.063,3.59l-2.249-3.936c-2.073,2.81-5.407,4.632-9.166,4.632
		c-0.812,0-1.605-0.085-2.37-0.247c-2.084-0.427-4.052-1.443-5.593-2.93c-2.164-2.046-3.475-4.977-3.542-7.975
		c-0.031-0.924,0.055-1.85,0.251-2.753c-0.016,0.041-0.031,0.081-0.047,0.121c-1.095,2.835-1.645,5.874-1.651,8.915
		c-0.127-3.493,0.486-7.037,1.819-10.324c0.078-0.176,0.157-0.352,0.239-0.526C3.301,20.56,3.3,20.562,3.299,20.564L3.347,20.221
		 M5.738,7.301L4.116,18.972c1.851-3.307,4.457-6.195,7.571-8.366L5.738,7.301 M25.72,6.699c-0.73,0-1.461,0.033-2.189,0.1
		c-6.055,0.511-11.839,3.448-15.897,7.971c-0.5,0.554-0.975,1.131-1.422,1.728c2.024-1.964,4.793-3.161,7.633-3.251
		c0.159-0.007,0.319-0.01,0.479-0.01c2.875,0,5.745,1.113,7.868,3.081c1.693,1.541,2.908,3.601,3.464,5.831
		c0.667-2.758,2.368-5.238,4.697-6.843c1.945-1.365,4.317-2.095,6.687-2.096c0.688,0,1.376,0.062,2.054,0.188
		c2.42,0.422,4.678,1.651,6.37,3.419c-1.377-1.898-3.024-3.601-4.88-5.036c-2.396-1.857-5.14-3.264-8.051-4.11
		C30.322,7.028,28.021,6.699,25.72,6.699 M41.629,4.475l-5.65,3.837c2.584,1.155,4.976,2.749,7.027,4.706
		c0.24,0.227,0.477,0.46,0.712,0.702L41.629,4.475"/>
	<path d="M42.003,3.533l-0.069,0.051l-6.583,4.457c0.122,0.051,0.245,0.103,0.366,0.155l6.25-4.566l2.388,10.766
		c0.059,0.064,0.117,0.129,0.175,0.194L42.003,3.533"/>
	<path d="M41.967,3.63l-6.25,4.566c0.087,0.038,0.174,0.076,0.261,0.115l5.65-3.837l2.089,9.245c0.214,0.22,0.427,0.446,0.637,0.677
		L41.967,3.63"/>
	<path d="M50.527,69.933l0.047,12.315c0.051,0.005,0.102,0.011,0.153,0.016L50.527,69.933 M0,31.417
		c0.145,13.48,15.857,31.131,24.679,39.498c3.762,3.547,7.761,6.855,12.037,9.773c4.276,2.908,8.832,5.471,13.741,7.201l0.554,0.194
		L51.005,87.5l-0.041-4.961l-0.255-0.026c-0.044-0.005-0.089-0.01-0.134-0.015l0.02,5.003c-4.486-1.586-9.354-4.203-14.333-7.71
		c2.78,2.01,5.686,3.852,8.737,5.437c-4.176-2.059-8.103-4.602-11.819-7.4c-3.717-2.807-7.225-5.887-10.541-9.156
		C14.508,60.622,0.188,44.083,0,31.417 M44.396,14.578L44.396,14.578c2.783,3.142,4.799,6.99,5.751,11.247
		c0.08,0.349,0.148,0.703,0.213,1.057l0.001,0.382l0.063-0.007l0,0.379l0.482,47.845L50.51,26.868
		c-0.099-3.651-2.687-8.579-5.98-12.277l0.043,0.189C44.514,14.712,44.455,14.645,44.396,14.578 M25.862,6.156
		c-4.324,0-8.642,1.137-12.375,3.308c-0.43,0.247-0.852,0.507-1.265,0.779l0.011,0.006c3.911-2.53,8.566-3.996,13.561-3.996
		c0.392,0,0.776-0.006,1.157-0.006c0.579,0,1.149,0.014,1.726,0.083c2.457,0.288,4.805,0.936,6.99,1.891
		c-0.118-0.052-0.236-0.103-0.354-0.152l0.039-0.026c-2.088-0.866-4.292-1.447-6.537-1.707C27.834,6.215,26.849,6.156,25.862,6.156"
		/>
	<path d="M1.494,31.397c-0.099,12.143,13.93,28.994,21.555,36.863c3.232,3.322,6.661,6.461,10.307,9.336
		c0.954,0.75,1.922,1.483,2.906,2.194c4.979,3.507,9.847,6.124,14.333,7.71l-0.02-5.003c-0.215-0.024-0.432-0.052-0.65-0.081
		l0.011,4.141c-4.446-1.699-8.627-4.104-12.567-6.816c-4.202-2.901-8.137-6.191-11.838-9.721
		C17.241,62.072,1.544,44.148,1.494,31.397 M49.843,27.915c-0.022,0.003-0.043,0.005-0.065,0.008l0.146,54.248
		c0.218,0.028,0.435,0.054,0.649,0.077l-0.047-12.315L49.843,27.915 M26.951,6.247c-0.381,0-0.765,0.006-1.157,0.006
		c-4.995,0-9.65,1.466-13.561,3.996l0.008,0.005c-0.181,0.118-0.359,0.239-0.537,0.361l-0.018-0.01
		c-3.115,2.171-5.721,5.059-7.571,8.366l-0.017,0.124c-0.281,0.478-0.547,0.965-0.797,1.462c-0.082,0.174-0.161,0.35-0.239,0.526
		c-1.333,3.287-1.946,6.831-1.819,10.324c0.007-3.041,0.557-6.079,1.651-8.915c0.016-0.041,0.031-0.081,0.047-0.121
		c0.439-2.027,1.429-3.941,2.862-5.458c0.132-0.142,0.268-0.281,0.407-0.416c0.448-0.597,0.922-1.174,1.422-1.728
		c4.058-4.522,9.842-7.459,15.897-7.971c0.728-0.067,1.458-0.1,2.189-0.1c2.301,0,4.603,0.329,6.812,0.972
		c2.912,0.846,5.655,2.252,8.051,4.11c1.856,1.435,3.503,3.137,4.88,5.036c0.416,0.435,0.798,0.903,1.14,1.399
		c0.729,1.038,1.275,2.197,1.626,3.413c0.819,1.827,1.421,3.724,1.557,5.358l-0.01-0.103l0.001,0.446
		c0.089-0.011,0.179-0.021,0.269-0.031l0.316-0.035l-0.001-0.382c-0.065-0.354-0.133-0.708-0.213-1.057
		c-0.952-4.257-2.968-8.105-5.751-11.246v-0.001c-0.21-0.236-0.424-0.467-0.641-0.695l-0.037-0.163
		c-0.235-0.241-0.473-0.475-0.712-0.702c-2.052-1.958-4.443-3.551-7.027-4.706L35.937,8.34c-0.09-0.041-0.18-0.081-0.27-0.12
		c-2.186-0.955-4.534-1.603-6.99-1.891C28.1,6.261,27.529,6.247,26.951,6.247"/>
	<path d="M35.351,8.042l-0.039,0.026c0.119,0.049,0.237,0.101,0.354,0.152c0.004,0.001,0.008,0.003,0.012,0.005l0.039-0.028
		C35.596,8.144,35.473,8.092,35.351,8.042"/>
	<path d="M35.717,8.197l-0.039,0.028c-0.004-0.001-0.008-0.003-0.012-0.005c0.09,0.04,0.18,0.08,0.27,0.12l0.042-0.029
		C35.892,8.273,35.805,8.234,35.717,8.197"/>
	<path d="M44.355,14.396l0.041,0.181c0.06,0.067,0.119,0.135,0.178,0.203l-0.043-0.189C44.472,14.526,44.414,14.46,44.355,14.396"/>
	<path d="M43.718,13.719l0.037,0.163c0.217,0.228,0.431,0.459,0.641,0.695l-0.041-0.181C44.145,14.165,43.933,13.939,43.718,13.719"
		/>
	<path d="M23.603,31.305c-0.079,0.115-0.159,0.228-0.241,0.34l2.249,3.936l2.063-3.59c-0.081-0.108-0.16-0.218-0.237-0.33
		l-1.823,3.151L23.603,31.305"/>
	<path fill="#FEFEFE" d="M25.37,26.005c-0.229,2.542-1.351,4.999-3.151,6.831c-2.042,2.117-4.948,3.382-7.909,3.418
		c-0.085,0.002-0.171,0.003-0.257,0.003c-0.747,0-1.494-0.078-2.227-0.228c0.765,0.162,1.557,0.247,2.37,0.247
		c3.759,0,7.093-1.823,9.166-4.632c0.083-0.112,0.163-0.225,0.241-0.34c0.936-1.371,1.58-2.956,1.843-4.667
		C25.415,26.428,25.389,26.217,25.37,26.005 M14.196,29.26c-2.412,0-4.366-1.955-4.366-4.366c0-2.411,1.955-4.366,4.366-4.366
		s4.366,1.955,4.366,4.366C18.562,27.306,16.607,29.26,14.196,29.26 M14.096,13.864c-2.853,0-5.697,1.178-7.722,3.208
		c-2.067,2.037-3.275,4.907-3.271,7.825C3.078,27.8,4.265,30.7,6.33,32.76c2.042,2.075,4.926,3.289,7.846,3.289
		c0.006,0,0.013,0,0.02,0c0.031,0,0.063,0,0.095,0c2.895,0,5.764-1.191,7.814-3.245c1.844-1.815,3.011-4.289,3.258-6.868
		c-0.08-0.917-0.052-1.842,0.088-2.749c-0.081-0.539-0.2-1.066-0.354-1.578c0.187,1.104,0.204,2.214,0.065,3.284
		c0.026-2.877-1.148-5.738-3.19-7.776c-2.021-2.052-4.866-3.252-7.762-3.252c-0.006,0-0.013,0-0.02,0
		C14.16,13.865,14.128,13.864,14.096,13.864"/>
	<path d="M3.398,21.281c-0.161,0.36-0.312,0.724-0.456,1.091c-0.196,0.904-0.283,1.83-0.251,2.753
		c0.067,2.998,1.378,5.928,3.542,7.975c1.541,1.487,3.509,2.502,5.593,2.93c-5.149-1.09-9.014-5.661-9.014-11.136
		C2.812,23.631,3.019,22.416,3.398,21.281 M14.323,13.237c-0.159,0-0.319,0.003-0.479,0.01c-2.84,0.09-5.609,1.287-7.633,3.251
		c-0.309,0.412-0.605,0.833-0.888,1.264c2.086-2.592,5.286-4.25,8.872-4.25c5.144,0,9.492,3.413,10.902,8.098
		c-0.037-0.219-0.081-0.438-0.131-0.656c0.238,0.502,0.441,1.025,0.606,1.563c0.025-0.123,0.053-0.246,0.083-0.368
		c-0.556-2.23-1.771-4.29-3.464-5.831C20.068,14.35,17.198,13.237,14.323,13.237"/>
	<path d="M6.211,16.498c-0.139,0.135-0.275,0.274-0.407,0.416c-1.434,1.517-2.423,3.431-2.862,5.458
		c0.143-0.367,0.295-0.731,0.456-1.091c0.432-1.292,1.09-2.48,1.926-3.519C5.606,17.332,5.902,16.91,6.211,16.498"/>
	<path d="M14.196,13.511c-3.586,0-6.786,1.659-8.872,4.25C4.488,18.8,3.83,19.989,3.398,21.281c-0.379,1.135-0.585,2.35-0.585,3.613
		c0,5.475,3.864,10.046,9.014,11.136c0.732,0.15,1.479,0.228,2.227,0.228c0.085,0,0.171-0.001,0.257-0.003
		c2.961-0.036,5.867-1.302,7.909-3.418c1.8-1.833,2.922-4.289,3.151-6.831c-0.002-0.023-0.004-0.046-0.006-0.069
		c-0.247,2.579-1.415,5.053-3.258,6.868c-2.05,2.054-4.92,3.245-7.814,3.245c-0.031,0-0.063,0-0.095,0c-0.007,0-0.013,0-0.02,0
		c-2.92,0-5.804-1.214-7.846-3.289C4.265,30.7,3.078,27.8,3.104,24.898c-0.005-2.918,1.203-5.789,3.271-7.825
		c2.025-2.031,4.869-3.208,7.722-3.208c0.032,0,0.064,0,0.095,0c0.007,0,0.013,0,0.02,0c2.896,0,5.74,1.201,7.762,3.252
		c2.042,2.038,3.216,4.899,3.19,7.776c0.139-1.07,0.122-2.18-0.065-3.284C23.688,16.924,19.34,13.511,14.196,13.511"/>
	<path fill="#FEFEFE" d="M31.398,34.674c0.174,0.132,0.353,0.26,0.536,0.383c0.403,0.203,0.821,0.384,1.252,0.54
		c0.073-0.075,0.146-0.15,0.22-0.225C32.722,35.206,32.048,34.973,31.398,34.674 M37.069,29.261c-0.251,0-0.506-0.022-0.762-0.067
		c-2.374-0.419-3.96-2.684-3.542-5.058c0.373-2.118,2.216-3.609,4.295-3.609c0.251,0,0.506,0.021,0.763,0.067
		c2.375,0.419,3.96,2.684,3.542,5.058C40.992,27.771,39.149,29.261,37.069,29.261 M37.169,13.65c-2.229,0-4.451,0.671-6.287,1.923
		c-2.423,1.622-4.15,4.219-4.697,7.062c-0.579,2.84,0.022,5.877,1.62,8.269c1.343,2.048,3.385,3.606,5.692,4.375
		c2.02-2.025,4.351-3.738,6.89-5.053c2.43-1.262,5.049-2.155,7.74-2.647c0.057-0.233,0.106-0.47,0.148-0.709
		c0.146-0.826,0.198-1.647,0.165-2.453c-0.107-2.099-0.798-4.163-1.997-5.881c-1.666-2.438-4.315-4.161-7.201-4.688
		C38.559,13.716,37.863,13.65,37.169,13.65"/>
	<path d="M27.885,31.623l-0.211,0.367c1.316,1.765,3.148,3.139,5.205,3.93c0.062-0.065,0.123-0.131,0.186-0.196
		c-0.392-0.202-0.77-0.425-1.131-0.667C30.311,34.239,28.932,33.052,27.885,31.623 M25.544,25.787
		c-0.022,0.287-0.055,0.571-0.098,0.852c0.264,1.79,0.938,3.522,1.98,5.006c0.004,0.005,0.008,0.011,0.011,0.017l0.213-0.369
		c-1.095-1.611-1.779-3.502-1.936-5.505H25.544 M25.691,25.407l-0.124,0.002c-0.004,0.081-0.008,0.162-0.014,0.243l0.152,0.004
		C25.7,25.573,25.695,25.49,25.691,25.407 M25.572,22.517c-0.023,0.115-0.045,0.229-0.065,0.345
		c-0.02,0.108-0.039,0.217-0.056,0.326c0.084,0.557,0.127,1.127,0.127,1.707c0,0.155-0.003,0.309-0.009,0.462l0.12-0.001
		c-0.026-0.665,0.006-1.341,0.101-2.021C25.727,23.058,25.654,22.785,25.572,22.517 M37.039,13.21c-2.369,0-4.741,0.73-6.687,2.096
		c-2.329,1.604-4.03,4.085-4.697,6.843c0.072,0.289,0.133,0.581,0.183,0.875c0.006-0.035,0.012-0.07,0.018-0.105
		c0.974-5.523,5.777-9.409,11.198-9.409c0.656,0,1.321,0.057,1.989,0.175c5.364,0.946,9.184,5.506,9.398,10.734
		c0.044,0.858-0.009,1.722-0.166,2.569c-0.034,0.197-0.073,0.393-0.118,0.587c0.072-0.013,0.144-0.026,0.216-0.039
		c0.049-0.208,0.092-0.417,0.128-0.628c0.324-1.747,0.22-3.568-0.273-5.279c-0.485-1.081-1.045-2.137-1.63-3.101
		c-0.354-0.586-0.734-1.157-1.136-1.711c-1.691-1.769-3.949-2.998-6.37-3.419C38.415,13.272,37.727,13.21,37.039,13.21"/>
	<path d="M45.462,16.817c0.402,0.554,0.781,1.125,1.136,1.711c0.584,0.963,1.145,2.02,1.63,3.101
		c-0.351-1.216-0.897-2.375-1.626-3.413C46.261,17.72,45.878,17.252,45.462,16.817"/>
	<path d="M27.65,31.292l-0.213,0.369c0.077,0.111,0.156,0.221,0.237,0.33l0.211-0.367C27.805,31.514,27.727,31.403,27.65,31.292
		 M25.554,25.652c-0.003,0.045-0.006,0.089-0.01,0.134h0.171c-0.003-0.043-0.007-0.087-0.009-0.13L25.554,25.652 M25.689,25.354
		l-0.12,0.001c0,0.018-0.001,0.035-0.002,0.053l0.124-0.002C25.691,25.39,25.69,25.372,25.689,25.354"/>
	<path d="M25.451,23.187c-0.14,0.907-0.168,1.832-0.088,2.749c0.033-0.347,0.05-0.695,0.049-1.044
		c0.005,0.372-0.01,0.744-0.043,1.114c0.02,0.211,0.045,0.422,0.076,0.633c0.043-0.28,0.076-0.565,0.098-0.852
		c0.003-0.045,0.007-0.089,0.01-0.134c0.005-0.081,0.01-0.162,0.014-0.243c0-0.018,0.001-0.036,0.002-0.053
		c0.006-0.153,0.009-0.307,0.009-0.462C25.579,24.314,25.535,23.744,25.451,23.187"/>
	<path d="M25.655,22.148c-0.029,0.122-0.057,0.245-0.083,0.368c0.082,0.269,0.155,0.541,0.218,0.816
		c0.014-0.104,0.03-0.206,0.047-0.31C25.788,22.729,25.727,22.438,25.655,22.148"/>
	<path d="M25.413,24.892c0,0.349-0.016,0.698-0.049,1.044c0.002,0.023,0.004,0.046,0.006,0.069
		C25.403,25.635,25.417,25.264,25.413,24.892"/>
	<path d="M37.053,13.509c-5.421,0-10.224,3.885-11.198,9.409c-0.006,0.035-0.012,0.07-0.018,0.105
		c-0.017,0.104-0.033,0.207-0.047,0.31c-0.095,0.681-0.127,1.356-0.101,2.021c0,0.018,0.001,0.035,0.002,0.052
		c0.004,0.083,0.008,0.166,0.014,0.25c0.002,0.043,0.006,0.087,0.009,0.13c0.156,2.003,0.841,3.894,1.936,5.505
		c0.076,0.112,0.154,0.223,0.234,0.332c1.047,1.429,2.426,2.616,4.049,3.434c-0.183-0.123-0.362-0.25-0.536-0.383
		c0.65,0.298,1.324,0.531,2.008,0.698c0.03-0.031,0.061-0.062,0.091-0.092c-2.307-0.769-4.349-2.328-5.692-4.375
		c-1.598-2.392-2.199-5.429-1.62-8.269c0.547-2.844,2.274-5.44,4.697-7.062c1.836-1.252,4.058-1.923,6.287-1.923
		c0.694,0,1.39,0.065,2.074,0.198c2.886,0.527,5.535,2.25,7.201,4.688c1.199,1.719,1.89,3.783,1.997,5.881
		c-0.214-5.228-4.034-9.788-9.398-10.734C38.375,13.566,37.709,13.509,37.053,13.509"/>
	<path d="M14.085,28.277c-0.833,0-1.672-0.323-2.296-0.902c-0.666-0.604-1.084-1.487-1.122-2.406
		c-0.049-0.917,0.284-1.857,0.916-2.551c0.624-0.699,1.542-1.145,2.498-1.193c0.072-0.004,0.144-0.006,0.215-0.006
		c0.886,0,1.78,0.334,2.452,0.937c0.734,0.643,1.206,1.594,1.265,2.59c-0.129-0.391-0.32-0.744-0.55-1.043
		c-0.007,0.156-0.026,0.308-0.055,0.454c0.054,0.237,0.083,0.484,0.083,0.738c0,0.845-0.318,1.616-0.84,2.199
		c-0.037,0.043-0.075,0.086-0.114,0.127c-0.584,0.632-1.432,1.025-2.312,1.053C14.179,28.276,14.132,28.277,14.085,28.277
		 M14.196,20.528c-2.412,0-4.366,1.955-4.366,4.366c0,2.412,1.955,4.366,4.366,4.366s4.366-1.955,4.366-4.366
		C18.562,22.483,16.607,20.528,14.196,20.528"/>
	<path fill="#83C7E4" d="M14.196,26.15c-0.693,0-1.256-0.562-1.256-1.256c0-0.693,0.563-1.255,1.256-1.255
		c0.694,0,1.255,0.562,1.255,1.255C15.451,25.588,14.89,26.15,14.196,26.15 M14.134,21.865c-0.764,0-1.552,0.314-2.11,0.866
		c-0.58,0.56-0.923,1.354-0.93,2.168c-0.015,0.813,0.308,1.626,0.885,2.213c0.571,0.591,1.383,0.941,2.213,0.949
		c0.017,0,0.034,0,0.051,0c0.812,0,1.621-0.329,2.207-0.903c0.604-0.585,0.961-1.407,0.968-2.264
		c0.027,0.793-0.249,1.586-0.767,2.199c0.522-0.583,0.84-1.354,0.84-2.199c0-0.253-0.029-0.5-0.083-0.738
		c-0.052,0.268-0.138,0.518-0.247,0.743c0.014-0.779-0.295-1.56-0.847-2.122c-0.552-0.567-1.317-0.904-2.131-0.912
		C14.167,21.865,14.15,21.865,14.134,21.865"/>
	<path d="M14.296,21.219c-0.072,0-0.144,0.002-0.215,0.006c-0.956,0.048-1.874,0.494-2.498,1.193
		c-0.632,0.693-0.965,1.634-0.916,2.551c0.038,0.919,0.457,1.802,1.122,2.406c0.624,0.579,1.462,0.902,2.296,0.902
		c0.047,0,0.094-0.001,0.14-0.003c0.88-0.028,1.728-0.421,2.312-1.053c0.039-0.042,0.077-0.084,0.114-0.127
		c-0.604,0.673-1.48,1.097-2.455,1.097c-1.82,0-3.296-1.476-3.296-3.296c0-1.82,1.476-3.296,3.296-3.296
		c1.566,0,2.877,1.093,3.212,2.558c0.028-0.146,0.047-0.298,0.055-0.454c0.23,0.299,0.421,0.652,0.55,1.043
		c-0.06-0.996-0.531-1.947-1.265-2.59C16.076,21.553,15.182,21.219,14.296,21.219"/>
	<path d="M14.196,21.598c-1.82,0-3.296,1.476-3.296,3.296c0,1.82,1.476,3.296,3.296,3.296c0.975,0,1.852-0.424,2.455-1.097
		c0.518-0.613,0.793-1.406,0.767-2.199c-0.007,0.856-0.365,1.679-0.968,2.264c-0.585,0.575-1.394,0.903-2.207,0.903
		c-0.017,0-0.034,0-0.051,0c-0.83-0.007-1.642-0.357-2.213-0.949c-0.577-0.586-0.899-1.4-0.885-2.213
		c0.007-0.813,0.351-1.608,0.93-2.168c0.558-0.552,1.346-0.866,2.11-0.866c0.016,0,0.033,0,0.049,0
		c0.814,0.007,1.579,0.345,2.131,0.912c0.552,0.562,0.861,1.343,0.847,2.122c0.109-0.225,0.195-0.475,0.247-0.743
		C17.073,22.691,15.762,21.598,14.196,21.598"/>
	<path d="M14.196,23.639c-0.693,0-1.256,0.562-1.256,1.255c0,0.694,0.563,1.256,1.256,1.256c0.694,0,1.255-0.562,1.255-1.256
		C15.451,24.201,14.89,23.639,14.196,23.639"/>
	<path d="M36.422,28.55c-0.958-0.174-1.831-0.747-2.371-1.544c-0.549-0.789-0.759-1.815-0.581-2.736
		c0.175-0.958,0.735-1.804,1.52-2.338c0.596-0.414,1.327-0.632,2.044-0.632c0.218,0,0.435,0.02,0.646,0.061
		c0.94,0.172,1.771,0.723,2.297,1.495c0.529,0.766,0.734,1.744,0.559,2.65c-0.167,0.909-0.709,1.737-1.467,2.25
		c-0.575,0.398-1.276,0.608-1.969,0.608c-0.213,0-0.425-0.02-0.632-0.06c0.166,0.025,0.334,0.038,0.501,0.038
		c0.726,0,1.453-0.234,2.026-0.662c0.714-0.519,1.202-1.323,1.33-2.177c0.039-0.237,0.05-0.478,0.035-0.715
		c0.007,0.223-0.009,0.45-0.049,0.678c-0.282,1.6-1.673,2.725-3.243,2.725c-0.19,0-0.382-0.016-0.576-0.05
		c-0.325-0.058-0.63-0.161-0.911-0.302C35.807,28.106,36.09,28.35,36.422,28.55 M37.061,20.527c-2.079,0-3.922,1.491-4.295,3.609
		c-0.419,2.375,1.167,4.639,3.542,5.058c0.256,0.045,0.511,0.067,0.762,0.067c2.08,0,3.922-1.49,4.296-3.609
		c0.418-2.375-1.167-4.639-3.542-5.058C37.567,20.549,37.312,20.527,37.061,20.527"/>
	<path fill="#83C7E4" d="M37.067,26.15c-0.072,0-0.146-0.006-0.219-0.019c-0.684-0.12-1.139-0.772-1.019-1.455
		c0.107-0.61,0.637-1.038,1.236-1.038c0.072,0,0.145,0.006,0.219,0.019c0.683,0.121,1.139,0.772,1.018,1.455
		C38.195,25.722,37.665,26.15,37.067,26.15 M37.159,21.74c-0.647,0-1.288,0.202-1.807,0.573c-0.661,0.464-1.118,1.189-1.249,1.966
		c-0.141,0.778,0.043,1.592,0.485,2.223c0.438,0.635,1.124,1.075,1.863,1.206c-0.129,0.019-0.262,0.028-0.397,0.028
		c-0.196,0-0.397-0.02-0.6-0.061c0.041,0.055,0.083,0.11,0.128,0.164c0.28,0.141,0.585,0.244,0.911,0.302
		c0.193,0.034,0.386,0.05,0.576,0.05c1.57,0,2.961-1.125,3.243-2.725c0.04-0.228,0.056-0.455,0.049-0.678
		c-0.038-0.618-0.251-1.22-0.611-1.714c-0.492-0.688-1.254-1.16-2.072-1.291C37.506,21.754,37.332,21.74,37.159,21.74"/>
	<path d="M37.035,21.299c-0.718,0-1.448,0.218-2.044,0.632c-0.785,0.535-1.345,1.38-1.52,2.338
		c-0.178,0.921,0.032,1.947,0.581,2.736c0.54,0.797,1.413,1.37,2.371,1.544c-0.332-0.2-0.615-0.444-0.839-0.711
		c-1.267-0.637-2.021-2.049-1.763-3.517c0.282-1.599,1.672-2.725,3.241-2.725c0.19,0,0.383,0.017,0.577,0.051
		c1.564,0.275,2.675,1.613,2.723,3.14c0.015,0.238,0.004,0.478-0.035,0.715c-0.128,0.854-0.616,1.658-1.33,2.177
		c-0.574,0.427-1.3,0.662-2.026,0.662c-0.167,0-0.335-0.013-0.501-0.038c0.208,0.04,0.419,0.06,0.632,0.06
		c0.693,0,1.394-0.21,1.969-0.608c0.758-0.513,1.301-1.341,1.467-2.25c0.176-0.906-0.029-1.884-0.559-2.65
		c-0.525-0.772-1.357-1.323-2.297-1.495C37.47,21.319,37.253,21.299,37.035,21.299"/>
	<path d="M37.061,21.598c-1.569,0-2.959,1.125-3.241,2.725c-0.259,1.468,0.496,2.879,1.763,3.517
		c-0.045-0.054-0.088-0.108-0.128-0.164c0.203,0.041,0.404,0.061,0.6,0.061c0.135,0,0.268-0.01,0.397-0.028
		c-0.739-0.131-1.425-0.571-1.863-1.206c-0.442-0.631-0.626-1.445-0.485-2.223c0.131-0.777,0.588-1.502,1.249-1.966
		c0.519-0.371,1.159-0.573,1.807-0.573c0.173,0,0.347,0.014,0.519,0.044c0.817,0.131,1.58,0.602,2.072,1.291
		c0.36,0.494,0.573,1.096,0.611,1.714c-0.047-1.527-1.158-2.864-2.723-3.14C37.444,21.614,37.251,21.598,37.061,21.598"/>
	<path d="M37.065,23.638c-0.599,0-1.128,0.428-1.236,1.038c-0.12,0.683,0.335,1.334,1.019,1.455
		c0.074,0.013,0.147,0.019,0.219,0.019c0.598,0,1.128-0.428,1.235-1.038c0.121-0.683-0.335-1.334-1.018-1.455
		C37.21,23.645,37.137,23.638,37.065,23.638"/>
	<polyline points="50.907,75.481 50.965,82.539 50.976,82.54 50.976,82.272 50.907,75.481 	"/>
	<path d="M25.609,55.02c0.004,3.356,0.619,6.721,1.825,9.86c1.201,3.141,2.987,6.058,5.233,8.563
		c2.245,2.507,4.951,4.603,7.945,6.142c2.762,1.426,6.171,2.405,9.313,2.832l0-0.246c-3.108-0.406-6.485-1.357-9.228-2.751
		c-2.984-1.511-5.688-3.577-7.938-6.061c-2.251-2.479-4.05-5.374-5.268-8.503C26.271,61.732,25.634,58.376,25.609,55.02
		 M49.776,27.33c-0.469,0.057-0.937,0.125-1.403,0.207c-0.028,0.118-0.058,0.236-0.089,0.353l-0.214,0.038
		c0.031-0.117,0.06-0.234,0.087-0.352c-0.01,0.001-0.02,0.003-0.03,0.005c-0.029,0.118-0.06,0.236-0.092,0.353
		c-5.52,1.006-10.384,3.669-14.166,7.464c0,0,0,0,0.001,0l-0.064,0.064c0,0,0,0-0.001,0c-0.085,0.086-0.17,0.173-0.254,0.26
		c-0.123-0.04-0.245-0.082-0.365-0.125c-0.041,0.042-0.082,0.084-0.122,0.127c0.109,0.056,0.219,0.111,0.33,0.164l-0.156,0.165
		c-0.121-0.042-0.241-0.086-0.36-0.132c-0.157,0.168-0.312,0.337-0.464,0.509c-2.253,2.527-4.042,5.471-5.244,8.64
		c-1.206,3.167-1.816,6.559-1.811,9.95c0.158-2.547,0.661-5.049,1.487-7.414c-0.485,2.163-0.695,4.373-0.645,6.563
		c0.07-3.22,0.723-6.427,1.92-9.421c1.195-2.995,2.935-5.773,5.108-8.163c2.169-2.392,4.771-4.396,7.645-5.878
		c2.774-1.436,5.801-2.38,8.903-2.783L49.776,27.33"/>
	<path d="M50.425,27.257l-0.063,0.007l0.166,42.669l0.201,12.331c-0.051-0.005-0.102-0.011-0.153-0.016l0.001,0.25
		c0.045,0.005,0.09,0.01,0.134,0.015l0.255,0.026l-0.058-7.058l-0.482-47.845L50.425,27.257"/>
	<path d="M49.925,82.171l0,0.246c0.218,0.029,0.435,0.057,0.65,0.081l-0.001-0.25C50.359,82.225,50.143,82.199,49.925,82.171
		 M50.361,27.264l-0.316,0.035c-0.089,0.01-0.179,0.021-0.269,0.031l0.002,0.593c0.021-0.003,0.043-0.005,0.065-0.008l0.684,42.018
		L50.361,27.264"/>
	<path d="M33.406,35.372c-0.074,0.074-0.147,0.149-0.22,0.225c0.121,0.043,0.243,0.085,0.365,0.125
		c0.084-0.087,0.169-0.174,0.254-0.26C33.672,35.434,33.539,35.404,33.406,35.372 M48.127,27.58
		c-2.691,0.492-5.311,1.386-7.74,2.647c-2.539,1.314-4.87,3.028-6.89,5.053c0.124,0.041,0.248,0.08,0.373,0.117
		c3.782-3.795,8.646-6.458,14.166-7.464C48.067,27.816,48.098,27.698,48.127,27.58"/>
	<path d="M33.064,35.724c-0.062,0.065-0.124,0.131-0.186,0.196c0.119,0.046,0.239,0.09,0.36,0.132l0.156-0.165
		C33.283,35.834,33.173,35.78,33.064,35.724 M33.87,35.397c-0.021,0.021-0.042,0.042-0.064,0.064c0,0,0.001,0,0.001,0L33.87,35.397
		C33.87,35.397,33.87,35.397,33.87,35.397 M48.373,27.536c-0.072,0.013-0.145,0.025-0.216,0.039
		c-0.027,0.118-0.056,0.235-0.087,0.352l0.214-0.038C48.315,27.772,48.345,27.654,48.373,27.536"/>
	<path d="M33.497,35.28c-0.031,0.03-0.061,0.061-0.091,0.092c0.133,0.032,0.266,0.062,0.4,0.089
		c0.021-0.022,0.043-0.043,0.064-0.064C33.745,35.36,33.621,35.321,33.497,35.28"/>
	<polyline points="47.214,56.245 34.39,61.874 33.979,66.39 35.084,62.81 47.214,56.245 	"/>
	<polyline points="46.013,49.485 32.261,55.874 31.631,60.566 32.951,56.812 46.013,49.485 	"/>
	<polyline points="47.278,40.801 30.693,49.497 29.397,54.733 31.371,50.444 47.278,40.801 	"/>
	<path d="M5.279,6.398L3.347,20.221c0.239-0.483,0.493-0.958,0.761-1.422L5.37,6.512l6.603,3.897
		c0.083-0.056,0.166-0.111,0.249-0.166L5.354,6.442L5.279,6.398"/>
	<path d="M5.37,6.512L4.107,18.799c-0.268,0.464-0.522,0.939-0.761,1.422l-0.048,0.343c0.001-0.002,0.002-0.004,0.003-0.006
		c0.252-0.538,0.524-1.068,0.814-1.586L5.738,7.301l5.949,3.305c0.095-0.066,0.19-0.132,0.286-0.196L5.37,6.512"/>
	<path d="M12.222,10.243c-0.083,0.055-0.167,0.11-0.249,0.166l0.009,0.005c0.083-0.056,0.167-0.11,0.251-0.165L12.222,10.243"/>
	<path d="M4.116,18.972c-0.29,0.519-0.562,1.048-0.814,1.586c0.25-0.498,0.516-0.984,0.797-1.462L4.116,18.972 M12.233,10.249
		c-0.084,0.055-0.168,0.109-0.251,0.165l-0.009-0.005c-0.096,0.064-0.191,0.13-0.286,0.196l0.018,0.01
		c0.177-0.123,0.356-0.243,0.537-0.361L12.233,10.249"/>
	<path fill="#FFFFFF" d="M193.13,37.753h-9.959v0.469c0,0.99,3.285,0.261,3.285,2.763c0,0.625-0.418,1.929-0.834,3.024l-2.295,6.152
		h-0.156l-3.284-7.56c-0.418-0.991-0.574-1.669-0.574-2.19c0-1.928,2.398-1.303,2.398-2.241v-0.417h-12.93v0.312
		c0,1.251,2.815,0.47,2.815,2.555c0,0.521-0.209,1.251-0.573,2.242l-2.764,7.299h-0.156l-3.076-7.403
		c-0.365-0.887-0.521-1.617-0.521-2.085c0-2.189,2.764-1.512,2.764-2.502v-0.417H151.16v0.365c0,1.147,2.136,0.104,3.857,3.962
		l8.498,19.187c0.156,0,0.834-0.053,0.99-0.053l6.83-16.267h0.104c2.19,5.266,4.745,11.001,7.248,16.319
		c0.104,0,0.781-0.053,0.938-0.104l7.09-17.206c2.503-6.047,6.361-4.588,6.414-5.787V37.753 M99.7,36.814
		c-4.015,0.626-7.977,1.199-11.991,1.773v0.417c0,1.2,3.285-0.156,3.285,3.859v13.034c0,4.327-3.232,3.023-3.232,4.274v0.313h15.067
		V60.12c0-1.096-2.555,0.104-2.555-3.599V42.288c1.043-1.72,2.867-2.659,4.223-2.659c1.721,0,2.451,1.668,2.451,3.754v12.825
		c0,3.962-2.503,2.868-2.503,3.911v0.364h14.911v-0.313c0-1.251-3.076,0-3.076-4.118V44.061c0-5.37-3.753-7.143-7.612-7.143
		c-2.972,0-6.674,1.147-8.967,4.692h-0.208c0.156-1.512,0.313-3.023,0.521-4.483C99.909,37.022,99.804,36.866,99.7,36.814
		 M136.404,60.433c-3.545,0-4.328-4.85-4.328-11.418c0-5.892,0.887-11.314,4.276-11.314c3.545,0,4.274,4.587,4.274,11.366
		C140.627,55.583,139.793,60.433,136.404,60.433 M136.3,36.814c-9.385,0-14.441,5.474-14.441,12.095
		c0,6.466,4.483,12.305,14.39,12.305c9.905,0,14.545-6.1,14.545-12.305C150.793,42.758,146.675,36.814,136.3,36.814 M67.427,22.32
		c-4.171,0.521-8.342,1.095-12.513,1.668v0.365c0,1.147,3.389-0.156,3.389,3.859v27.58c0,4.379-3.337,3.076-3.337,4.379v0.313
		h15.589v-0.313c0-1.251-2.868,0-2.868-4.17v-6.257h1.199c1.617,2.972,3.181,5.892,5.684,10.74h12.147v-0.313
		c-0.053-1.251-2.502,0.156-5.683-5.683l-5.631-10.271l1.773-1.877c3.858-4.119,7.977-2.867,7.977-4.223v-0.365H72.015v0.469
		c0,1.095,4.537,0.626,4.537,2.555c0,0.574-0.522,1.356-1.408,2.294l-5.579,5.735h-1.877V22.581
		C67.583,22.477,67.531,22.373,67.427,22.32 M206.945,22.268l-12.461,1.668v0.364c0,1.2,3.285-0.156,3.285,3.911v27.736
		c0,4.223-3.181,3.023-3.181,4.223v0.313h15.85v-0.313c0-1.251-3.232,0-3.232-4.118V22.581L206.945,22.268"/>
	<path fill="#83C7E4" d="M203.496,68.046h6.732v1.305h-5.218v4.334h4.587v1.24h-4.587v2.42h5.428v1.305h-6.942V68.046z
		 M197.479,78.817c-0.49,0-0.942-0.059-1.356-0.179c-0.413-0.119-0.785-0.284-1.115-0.494c-0.329-0.21-0.617-0.452-0.862-0.726
		s-0.438-0.564-0.579-0.873l1.199-0.674c0.239,0.463,0.568,0.859,0.989,1.189c0.421,0.329,0.988,0.494,1.704,0.494
		c0.603,0,1.098-0.144,1.483-0.432c0.386-0.287,0.578-0.678,0.578-1.168s-0.15-0.883-0.452-1.178
		c-0.302-0.294-0.789-0.59-1.462-0.884l-0.842-0.378c-0.757-0.323-1.354-0.709-1.787-1.158c-0.436-0.448-0.652-1.059-0.652-1.83
		c0-0.406,0.076-0.774,0.23-1.104c0.154-0.33,0.365-0.61,0.631-0.842c0.267-0.232,0.579-0.406,0.937-0.526s0.746-0.179,1.168-0.179
		c0.742,0,1.356,0.145,1.841,0.431c0.483,0.288,0.887,0.677,1.209,1.169l-1.114,0.757c-0.225-0.323-0.484-0.589-0.778-0.8
		c-0.295-0.21-0.666-0.315-1.115-0.315c-0.477,0-0.859,0.119-1.146,0.358c-0.287,0.238-0.432,0.581-0.432,1.03
		c0,0.407,0.119,0.732,0.357,0.978c0.239,0.246,0.617,0.488,1.136,0.727l0.863,0.379c0.897,0.393,1.603,0.834,2.114,1.324
		c0.512,0.492,0.768,1.164,0.768,2.021c0,0.884-0.322,1.585-0.967,2.104C199.379,78.558,198.531,78.817,197.479,78.817
		 M189.843,68.046h1.472v10.604h-1.472V68.046z M187.213,78.649h-1.684l-1.925-2.799c-0.154,0.028-0.312,0.05-0.474,0.064
		c-0.157,0.014-0.323,0.021-0.49,0.021h-1.403v2.714h-1.515V68.046h2.903c0.716,0,1.351,0.096,1.904,0.285
		c0.554,0.188,1.021,0.454,1.399,0.799c0.378,0.344,0.666,0.758,0.862,1.241s0.295,1.021,0.295,1.609c0,0.8-0.183,1.49-0.547,2.071
		c-0.365,0.582-0.891,1.027-1.579,1.336L187.213,78.649z M182.577,74.631c1.091,0,1.862-0.245,2.313-0.736
		c0.453-0.491,0.681-1.129,0.681-1.914c0-0.771-0.228-1.402-0.681-1.894c-0.451-0.49-1.223-0.736-2.313-0.736h-1.34v5.28H182.577z
		 M169.73,68.046h2.881c0.73,0,1.372,0.098,1.926,0.295c0.555,0.197,1.021,0.474,1.399,0.831c0.378,0.356,0.666,0.782,0.862,1.272
		c0.196,0.491,0.294,1.038,0.294,1.641c0,1.193-0.382,2.16-1.143,2.904c-0.762,0.743-1.869,1.115-3.32,1.115h-1.386v2.545h-1.514
		V68.046z M172.563,74.8c1.076,0,1.848-0.253,2.313-0.754c0.467-0.506,0.701-1.161,0.701-1.971c0-0.838-0.234-1.501-0.701-1.992
		c-0.466-0.486-1.237-0.732-2.313-0.732h-1.319V74.8H172.563z M167.163,78.649h-1.683l-1.926-2.799
		c-0.154,0.028-0.312,0.05-0.473,0.064c-0.158,0.014-0.322,0.021-0.491,0.021h-1.402v2.714h-1.515V68.046h2.903
		c0.715,0,1.35,0.096,1.904,0.285c0.554,0.188,1.02,0.454,1.398,0.799c0.379,0.344,0.667,0.758,0.862,1.241
		c0.196,0.483,0.295,1.021,0.295,1.609c0,0.8-0.183,1.49-0.547,2.071c-0.365,0.582-0.891,1.027-1.578,1.336L167.163,78.649z
		 M162.528,74.631c1.09,0,1.861-0.245,2.314-0.736c0.452-0.491,0.68-1.129,0.68-1.914c0-0.771-0.228-1.402-0.68-1.894
		c-0.453-0.49-1.225-0.736-2.314-0.736h-1.34v5.28H162.528z M150.081,68.046h6.731v1.305h-5.217v4.334h4.586v1.24h-4.586v2.42h5.427
		v1.305h-6.941V68.046z M142.948,69.351h-3.282v-1.305h8.079v1.305h-3.282v9.299h-1.515V69.351z M131.251,72.358
		c-0.295-0.322-0.554-0.638-0.778-0.946c-0.127-0.168-0.245-0.343-0.357-0.526c0.014,0.197,0.035,0.393,0.062,0.59
		c0.027,0.168,0.05,0.361,0.064,0.578c0.013,0.218,0.02,0.424,0.02,0.621v5.975h-1.389V67.921h0.211l5.785,6.373
		c0.154,0.154,0.299,0.319,0.432,0.494c0.133,0.176,0.256,0.342,0.368,0.494c0.126,0.17,0.246,0.338,0.357,0.506
		c-0.027-0.197-0.049-0.393-0.063-0.59c-0.014-0.168-0.023-0.357-0.031-0.567c-0.007-0.21-0.01-0.413-0.01-0.61v-5.975h1.388v10.751
		h-0.21L131.251,72.358z M119.28,68.046h6.732v1.305h-5.218v4.334h4.587v1.24h-4.587v2.42h5.428v1.305h-6.942V68.046z
		 M105.604,68.046h1.516v9.299h4.943v1.305h-6.459V68.046z M98.515,67.921h0.211l4.564,10.729h-1.557l-0.631-1.578h-5.049
		l-0.63,1.578h-1.452L98.515,67.921z M100.64,75.936l-1.515-3.829c-0.069-0.154-0.132-0.33-0.188-0.526
		c-0.057-0.196-0.113-0.378-0.169-0.547c-0.056-0.196-0.112-0.386-0.168-0.567c-0.056,0.182-0.112,0.371-0.168,0.567
		c-0.056,0.169-0.108,0.351-0.158,0.547s-0.108,0.372-0.179,0.526l-1.557,3.829H100.64z M90.122,68.046h1.473v10.604h-1.473V68.046z
		 M82.989,78.817c-0.771,0-1.486-0.137-2.146-0.41c-0.66-0.273-1.231-0.652-1.715-1.136c-0.483-0.483-0.861-1.06-1.136-1.726
		c-0.274-0.666-0.411-1.398-0.411-2.198s0.141-1.532,0.422-2.198c0.279-0.666,0.662-1.241,1.146-1.725
		c0.484-0.484,1.059-0.863,1.725-1.137s1.379-0.41,2.135-0.41c1.01,0,1.858,0.182,2.546,0.547s1.276,0.897,1.768,1.6l-1.157,0.799
		c-0.351-0.49-0.775-0.887-1.273-1.188s-1.126-0.452-1.883-0.452c-0.575,0-1.101,0.105-1.578,0.315
		c-0.476,0.21-0.89,0.505-1.241,0.884c-0.35,0.379-0.62,0.82-0.81,1.324c-0.188,0.506-0.284,1.053-0.284,1.642
		s0.096,1.137,0.284,1.642c0.19,0.504,0.46,0.946,0.81,1.325c0.351,0.378,0.761,0.673,1.23,0.884c0.47,0.21,0.993,0.315,1.567,0.315
		c0.799,0,1.479-0.161,2.041-0.484c0.561-0.323,1.01-0.743,1.346-1.263l1.178,0.736c-0.448,0.73-1.056,1.298-1.82,1.705
		C84.971,78.614,84.056,78.817,82.989,78.817 M69.925,78.817c-0.758,0-1.473-0.133-2.146-0.399s-1.266-0.642-1.777-1.126
		c-0.512-0.483-0.916-1.062-1.21-1.734c-0.295-0.674-0.442-1.41-0.442-2.21s0.147-1.536,0.442-2.209
		c0.294-0.673,0.698-1.251,1.21-1.735c0.511-0.484,1.104-0.859,1.777-1.125c0.673-0.268,1.388-0.4,2.146-0.4
		c0.757,0,1.477,0.133,2.157,0.4c0.68,0.266,1.272,0.641,1.777,1.125c0.506,0.484,0.906,1.062,1.199,1.735
		c0.294,0.673,0.442,1.409,0.442,2.209s-0.148,1.536-0.442,2.21c-0.293,0.672-0.693,1.251-1.199,1.734
		c-0.505,0.484-1.097,0.859-1.777,1.126C71.401,78.685,70.682,78.817,69.925,78.817 M69.925,77.514c0.589,0,1.132-0.105,1.63-0.315
		c0.499-0.211,0.926-0.502,1.284-0.873c0.357-0.372,0.638-0.811,0.841-1.316c0.204-0.504,0.306-1.059,0.306-1.661
		c0-0.589-0.102-1.14-0.306-1.651c-0.203-0.512-0.483-0.954-0.841-1.325c-0.358-0.372-0.785-0.663-1.284-0.873
		c-0.498-0.21-1.041-0.315-1.63-0.315s-1.133,0.105-1.63,0.315c-0.498,0.21-0.926,0.501-1.283,0.873
		c-0.357,0.371-0.639,0.813-0.842,1.325c-0.204,0.512-0.305,1.062-0.305,1.651c0,0.603,0.102,1.157,0.305,1.661
		c0.203,0.506,0.484,0.944,0.842,1.316c0.357,0.371,0.785,0.662,1.283,0.873C68.792,77.408,69.335,77.514,69.925,77.514
		 M58.879,78.817c-0.491,0-0.943-0.059-1.357-0.179c-0.414-0.119-0.785-0.284-1.115-0.494c-0.329-0.21-0.617-0.452-0.862-0.726
		c-0.245-0.273-0.438-0.564-0.578-0.873l1.199-0.674c0.238,0.463,0.567,0.859,0.988,1.189c0.421,0.329,0.989,0.494,1.704,0.494
		c0.603,0,1.098-0.144,1.483-0.432c0.385-0.287,0.578-0.678,0.578-1.168s-0.15-0.883-0.451-1.178
		c-0.303-0.294-0.79-0.59-1.463-0.884l-0.842-0.378c-0.756-0.323-1.353-0.709-1.788-1.158c-0.435-0.448-0.652-1.059-0.652-1.83
		c0-0.406,0.078-0.774,0.231-1.104c0.155-0.33,0.365-0.61,0.631-0.842c0.267-0.232,0.579-0.406,0.937-0.526s0.747-0.179,1.168-0.179
		c0.743,0,1.356,0.145,1.84,0.431c0.484,0.288,0.888,0.677,1.209,1.169l-1.115,0.757c-0.224-0.323-0.483-0.589-0.778-0.8
		c-0.295-0.21-0.666-0.315-1.115-0.315c-0.477,0-0.859,0.119-1.147,0.358c-0.287,0.238-0.431,0.581-0.431,1.03
		c0,0.407,0.12,0.732,0.358,0.978c0.237,0.246,0.616,0.488,1.136,0.727l0.862,0.379c0.898,0.393,1.603,0.834,2.115,1.324
		c0.512,0.492,0.768,1.164,0.768,2.021c0,0.884-0.322,1.585-0.968,2.104C60.78,78.558,59.932,78.817,58.879,78.817"/>
</g>
</svg>
